<svg xmlns="http://www.w3.org/2000/svg" version="1.0" viewBox="0 0 252.94 257.93"><defs><filter id="c" color-interpolation-filters="sRGB"><feGaussianBlur stdDeviation="3"/><feColorMatrix result="fbSourceGraphic" values="1 0 0 0 0 0 1 0 0 0 0 0 1 0 0 0 0 0 6 -2.5"/></filter><filter id="b" color-interpolation-filters="sRGB"><feGaussianBlur stdDeviation="3"/><feColorMatrix result="fbSourceGraphic" values="1 0 0 0 0 0 1 0 0 0 0 0 1 0 0 0 0 0 6 -2.5"/></filter><linearGradient id="a" x1="112.19" x2="217.29" y1="252.02" y2="2.595" gradientUnits="userSpaceOnUse"><stop offset="0" stop-color="gray"/><stop offset="1" stop-color="#fff"/></linearGradient></defs><path fill="url(#a)" stroke="gray" stroke-linecap="round" stroke-linejoin="round" d="m83.67 127.48-.9.9v.3l-.6.3v.6l-.9.9v.3l-.299.3v.3l-.3.3h.3l-.6.6v.3l-.3.3v.899h-.3v.6l-.3.3v.6l-.3.3h.3l-.3.3.3.3-.3.3.3.3h-.3l.3.6-.3.3 32.689 112.78v-.3l.3.6v.3h.3v.3h.6v.299h.599v.3l.3-.3.3.3v-.3.3l.3-.3h.3v.3-.3h.6l.3-.3h.599l.6-.6h.3l.6-.6v.3l131.05-125.68v-.3l.6-.3v-.6h.3l.3-.6.599-.6v-.3l.3-.3v-.6h.3l.3-.3-.3-.299h.3v-.3l.3-.3-.3-.3h.3v-.6h.3l-.3-.3h.3v-.3l.3-.3-.3-.3h.3v-.9l-.3-.3.3-.3-.3-.6.3-.3L220.117 2.7l-.3.3-.3-.9v.3l-.3-.3V1.8h-.3l-.3-.3h-.599v-.3l-.3.3v-.3l-.3.3v-.3l-.3.3-.3-.3v.3h-.6v.3-.3l-.6.6-.3-.3v.3h-.299l-.3.3h-.3l-.6.6v-.3z" transform="translate(-.071 -.7)"/><g fill="#fff" stroke="gray" stroke-linecap="round" stroke-linejoin="round"><path d="m199.369 96.77-.907.312-1.187.312-.625.594h-.594l-.594.594-.593.312-2.72 2.688-.593 1.187-.594.625-.593.875-.313.625-.594.875v.625l-.312.594-.594 1.5-.594 1.187-.312.907v1.187l-.281 1.813-.313.906v.594l-.281.593v3l.281 1.22.594 2.093.312 1.781.594.907.313.593h.28l.313.594.594.313.906.906.594.281h.313l.28.313.907.312h2.719l.281-.312h.594l.312-.313.907-.281.593-.313.594-.281.906-.625.907-.594.28-.593 2.095-2.094.312-.907.313-.28.875-1.5.625-.907v-.594l1.187-3 .313-.625.593-2.375.282-.625v-2.094l.312-.593v-3l-.312-1.813-.282-.875v-.625l-.312-.594-.281-.593-.625-1.188-.282-.625-.312-.594-.594-.593-1.187-.907-.907-.28-.312-.313-.594-.313zm-1.5 5.405h1.187l.594.313h.312l.594.281.906.625.594.594v.281l.313.313.593 1.187v.625l.594.281v1.22l.313 1.187v3.312l-.313.594v.906l-.594 1.5v.594l-.312.594-.594 1.812-.906.875v.625h-.281l-.594.594-.625.906-.875.594h-.625l-.281.281-.594.313h-1.5l-.625-.313h-.281l-.594-.594h-.313l-.593-.593h-.313l-.594-.594v-.313l-.593-.906-.313-1.187-.594-1.5v-3.594l.313-.594v-.312l.281-1.813.313-.875.28-1.219.313-.593.313-.594v-.313l.281-.593h.313l.28-.594v-.313l2.126-2.093h.281v-.313h.594l.312-.281h.594z"/><path fill-rule="evenodd" d="m134.579 152.87-1.8 1.8v.6l-.3.3h-.3v.6l-.3.3v.3h-.3v.3l-.6.6h.3l-.3.3v.9l-.299.3v.599h-.3v.9l-.3.6v.3l.3.3-.3.3v.9l13.195 46.191.3-.3.3.6h.3v.6l.3-.3v.3h.3v.3h.3l.3-.3v.3l.3.3v-.3h.3v.3-.3.3l.3-.3.3.3v-.3h.299l.3-.3.3.3v-.3h.3v-.3h.6l.3-.3h.3l.599-.6 46.183-44.092v-.3l1.2-1.2v-.3l.3-.3v-.3h.3v-.599h.3v-.3l.3-.3v-.6l.299-.3v-.3l.3-.3v-.9h.3v-.6l.3-.3-.3-.3.3-.3v-1.799l-13.195-46.192h-.3v-.6h-.6v-.3h-.6v-.3h-.6v-.3l-.3.3h-.3v-.3.3-.3l-.3.3h-.3v-.3.3h-.899v.3h-.3l-.3.3h-.3l-.3.3h-.3l-.599.6v-.3l-45.284 43.492z"/></g><g filter="url(#b)" transform="matrix(.8193 0 -.64041 1.3002 277.959 -78.81)"><path fill="silver" fill-rule="evenodd" d="M-56.517 141.42v.3l.3-.3.3.3.3-.3v.3l.3-.3h.6l.3-.3.3.3 2.998-2.7-.6.3v-.3l-.6.6h-.3l-.3.3v-.3l-.6.6-.599.3-.6.3-.6.3h-.3l-.3.3h-.3z"/><path fill="#bfbfbf" fill-rule="evenodd" d="m-54.418 141.12.3.3v-.3l.3.3.3-.6.3.3.3-.3.3.3v-.3l.3.3 5.997-5.1-.3.3h-.3l-.6.3-.3.3h-.3l-.599.3-.6.3-.6.6v-.3l-.6.3-.6.6v-.3zM-67.313 152.82h.3l.3.3.3-.3h.3l.3-.3h-.9l-.3.3-.3-.3z"/><path fill="#bdbdbd" fill-rule="evenodd" d="m-66.114 152.82.3.3v-.3h1.8l.3-.6-.3.3v-.3l-.3.3-.3-.3-.3.3-.3-.3-.3.3v-.3l-.3.6v-.3zM-52.318 141.12h.3v-.3l.3.3.3-.3h.6v.3l.3-.3h.3l8.396-6.899-.3-.3-.9.9v-.3l-.6.6-.299-.3-.3.6v-.3l-.6.6h-.3l-.3.3h-.3l-.3.3h-.3z"/><path fill="#bababa" fill-rule="evenodd" d="M-64.314 152.82h.6l.3-.3.3.3v-.3l.3.3.3-.3.3.3.599-.6-.3-.3-.3.3v-.3l-.3.3h-1.2zM-50.219 140.82l.3.3h.3l.3-.3.3.3v-.3h.6l.3.3 8.696-7.499h-.9l-.3.3v-.3l-.3.3-.3-.3v.3l-.3-.3-.299.3z"/><path fill="#b8b8b8" fill-rule="evenodd" d="m-62.215 152.52.3.3.3-.3h.3l.3.3v-.3h.6l.3-.3v.3l.599-.6h-1.5l-.3.3-.3-.3zM-48.42 140.82h.9v.3l.3-.3.3.3.3-.3.3.3 8.696-7.499-.3-.3v.3l-.3-.3-.3.3-.3-.3-.3.3-.3-.3v.3h-.3z"/><path fill="#b6b6b6" fill-rule="evenodd" d="m-60.416 152.52.6.3v-.3h.9l.3-.3v.3l.3-.3v.3l.599-.3-.3-.3v.3l-.6-.3h-1.2zM-46.621 140.82l.3.3h.3v-.3l.6.3v-.3l.3.3h.6l8.996-7.799h-.3l-.3-.3-.3.3h-.6l-.3.3v-.3l-.3.3v-.3z"/><path fill="#b4b4b4" fill-rule="evenodd" d="M-58.316 152.52h.3l.3-.3.3.3h.3v-.3l.3.3.3-.3v.3l.3-.3v.3l.3-.3-.3-.3-.3.3v-.3l-.3.3h-.3l-.3-.3-.3.3v-.3zM-44.821 141.12h.3l.3.3.3-.3v.3h.9l9.596-8.099h-2.1z"/><path fill="#b2b2b2" fill-rule="evenodd" d="m-56.217 152.22.3.3v-.3l.3.3.3-.3.3.3h.6l.3-.3v-.3l-.3.3h-1.5v-.3zM-43.322 141.42l.3.3v-.3l.3.3h.6l.3.3 9.896-8.399-.3-.3v.3l-.3-.3h-1.2z"/><path fill="#afafaf" fill-rule="evenodd" d="m-54.718 152.52.3.3.3-.3v.3-.3l.3.3.3-.3v.3h.6l.899-.9h-.6v.3l-.3-.3h-.3l-.3.3-.3-.3v.3l-.3-.3zM-41.822 141.72l.3.3h.6l.3.3 10.496-8.699h-.3l-.3-.3v.3l-.3-.3-.3.3v-.3h-.3l-.3.3v-.3z"/><path fill="#adadad" fill-rule="evenodd" d="m-53.218 152.82.3.3h.9v.3l.3-.3v.3l1.499-1.5h-1.5l-.3.3-.3-.3zM-40.623 142.32l.3.3v-.3l.6.6h.3l10.796-8.999-.3-.3h-.3l-.3.3v-.3h-.6z"/><path fill="#ababab" fill-rule="evenodd" d="m-51.719 153.12.3.6h.6v.3l2.699-2.1h-2.1zM-39.423 142.92l.9 1.2 11.396-9.899h-.3l-.6-.3h-.6v-.3z"/><path fill="#a9a9a9" fill-rule="evenodd" d="M-50.819 154.02h.3l.9.9 3.598-3v-.3l-.3.3h-.6v-.3l-.3.3h-.3v-.3l-.3.3h-.299zM-38.823 143.82l.6.9.3.3 11.696-9.899v-.3h-.3l-.3-.6v.3l-.3-.3h-.3z"/><path fill="#a6a6a6" fill-rule="evenodd" d="m-49.919 154.62.9 1.2h-.3l5.098-4.2h-.3l-.3.3-.3-.3v.3l-.3-.3-.3.3h-.3v-.3zM-37.924 144.72v.9l.3.3-.3.3 12.895-10.798-.6-.3-.3-.3-.3.3v-.3z"/><path fill="#a4a4a4" fill-rule="evenodd" d="m-49.32 155.82.3.3v.3h.3l-.3.3h.3l-.3.3h.3l6.597-5.4h-1.5l-.299.3-.3-.3zM-37.924 146.22v.6h.3l-.3.3v.9l13.795-11.398-.9-.9z"/><path fill="#a2a2a2" fill-rule="evenodd" d="M-48.72 157.02v1.8l8.697-7.2-.3-.299-.3.3v-.3l-.3.3h-.3l-.3-.3v.3h-.6zM-37.924 147.72v.9l-.3.3h.3l-.6.6h.3l-.3.6 14.695-12.298-.3-.3h.3-.3l.3-.3-.6-.6z"/><path fill="#a0a0a0" fill-rule="evenodd" d="M-48.72 158.51v.3h-.3l.3.3-.3.3h.3l-.3.3v.6h-.3v.6l10.496-8.999h-.3l.3-.3 14.995-12.898.3-.3-.3-.3v-.3l-14.695 12.298v.3l-.3.3v.6l-.3.3-.3-.3-.3.3v-.3.3l-.6-.3z"/><path fill="#a0a0a0" fill-rule="evenodd" d="m-38.823 151.32.3.3h.3l14.695-12.298-.3-.3.3-.3h-.3z"/><path fill="#9e9e9e" fill-rule="evenodd" d="M-49.32 160.61v.9l-.3.3h.3l-.6.6.3.3 10.196-8.399v-1.2l.3-.3-.3-.3.6-.6h-.3zM-38.523 151.62h.3l.3-.3v.3h.3l.3-.3.3.3.3-.3v.3l.3-.3.3.3 12.295-10.498h-.3l.3-.6v-1.2h.3l-.3-.3z"/><path fill="#9b9b9b" fill-rule="evenodd" d="m-49.919 162.41.3.3-.6.6v.3l-.3.6h.3l-.3.3h.3l-.3.3 10.796-8.999v-.3l.3-.3v-.3l-.3-.3.3-.3h-.3l.3-.3h-.3zM-36.424 151.32l.3.3.3-.3h.3l.3.3.3-.3.3.3v-.3l.3.3 9.596-8.399.3-.3h-.3l.3-.6v-.3l.3-.3v-.3l.3-.3h-.3z"/><path fill="#999" fill-rule="evenodd" d="M-50.519 164.81v.9l-.3.3.3.3v.3l11.396-9.599-.3-.6v-.6h-.3zM-34.625 151.32h.3l.3-.3.3.3.3-.3.3.3.3-.3v.3l.3-.3.3.3 7.197-5.999h-.3l.3-.6h-.3l.6-.6v-.6l.3-.3h-.3v-.3z"/><path fill="#979797" fill-rule="evenodd" d="M-50.819 166.61v.3l.3.3v.6h.3l11.996-9.899-.9-.9zM-32.526 151.32h.6v-.3l.3.3.3-.3v.3l.3-.3.3.3v-.3l.3.3 4.798-4.2v-.6h.3l-.3-.3.3-.3v-.599h.3-.3z"/><path fill="#959595" fill-rule="evenodd" d="M-50.219 167.81v.3l.6.9 12.296-10.498h-.3v-.3h-.3l-.6-.6zM-30.426 151.02v.3l.3-.3h.3l.3.3v-.3h1.2l2.998-2.4h-.3l.3-.3-.3-.3v-.9z"/><path fill="#939393" fill-rule="evenodd" d="m-49.619 168.71.3.6v-.3l.6.6v.3l12.895-10.798-.3-.3h-.6v-.3l-.3.3v-.3h-.3zM-28.627 151.02h.6v-.3l.3.3h.3l.3-.3.3.3v-.3l.3.3 1.499-1.2-.3-.6-.3-.6h.3-.3z"/><path fill="#909090" fill-rule="evenodd" d="M-48.72 169.61h.3l.3.3.6.3h.3l12.894-11.098-.3-.3v.3-.3l-.3.3v-.3l-.3.3-.3-.3v.3l-.599-.3zM-26.528 151.02h.3v-.3l.3.3.3-.3v.3l.3-.3.3.3v-.3.3l.3-.3h.3l.3-.3h-.3l-.6-.9z"/><path fill="#8e8e8e" fill-rule="evenodd" d="M-47.52 170.21h.9l.3.3v-.3l.3.3.3-.3v.3l13.494-11.698-.6.3-.3-.3v.3l-.3-.3-.3.3v-.3l-.299.3h-.3zM-24.428 150.72h.3l.3.3.3-.3.3.6v-.3l.3.3.6-.9h-.3l-.3.3v-.3l-.3.3v-.3l-.3.3-.3-.3v.3l-.3-.3z"/><path fill="#8c8c8c" fill-rule="evenodd" d="m-45.721 170.21.3.3h1.2l.3-.3.3.3 14.094-11.998v-.3l-.3.3h-.3l-.6.3-.3-.3-.3.3h-.899zM-22.929 151.02l.6.6h.9l1.2-1.2h-1.2l-.3.3-.3-.3-.3.3v-.3z"/><path fill="#8a8a8a" fill-rule="evenodd" d="m-43.921 170.21.6.3v-.3.3l.3-.3h.6l.3.3.3-.6.3.3 13.794-11.698h-.3l1.2-.9h-.6l-.3.3-.3-.3v.3h-.3l-.3.3h-.6l-.3.3v-.3zM-21.729 151.62l.3.3.3-.3h1.2l.3.3 1.499-1.5h-2.4z"/><path fill="#888" fill-rule="evenodd" d="m-41.522 169.91.3.3.3-.3h.3l.3-.3v.3l.3-.3h.3l.3-.3v.3l.3-.3 5.097-3.9-.3-.3 1.2-.899.9-.9h-.3l1.2-.9h-.3l1.2-.9v-.3l.899-.6-.3-.3 1.2-.9h-.3l1.2-.899h-.3zM-19.93 151.62h.3l.3.3.3-.6.3.3h.3l.3-.3.3.3 1.199-1.2h-.9l-.3-.3-.3.3h-.3z"/><path fill="#858585" fill-rule="evenodd" d="m-39.423 169.31.3.3.3-.3h.3l.3-.3h.3l1.799-1.8v-.3l.9-.6.9-.9v-.3zM-18.131 151.62h.3v-.3l.3.3.6-.3h.3l.3-.3.3.3 1.199-.9h-1.8z"/><path fill="#838383" fill-rule="evenodd" d="M-16.031 151.32h.3l.3-.3h.3l.3-.3h.9l.3-.3h.299l.3-.3-.3.3-.3-.3v.3l-.3-.3v.3h-.6v-.3l-.3.3z"/><path fill="gray" d="M-67.313 152.52v.6h.3-.6.6l.3-.3h-.6l.3.3h.3v-.3l-.3.3h.3v-.3l.3.3.3-.3h-.6l.9.3v-.3.3l.6-.3h-.6.6l.3-.3v.3h.299v-.3h.3l.3.3v-.3h.3-.3.9-.3.9l.6-.3v.3h.299l.3-.3.6.3v-.3h.6-.3l.6.3v-.3h.3l1.499.3v-.3h.3l.3.3h.6l.3-.3-.3.3h.599l.3.3v-.3h.3l.3.3h1.2l.3.3h.599l.3.3h.3l.9.3.3.3h.6v.3l.299.3-.3-.3 1.5 1.5-.3-.3.3.3v.9-.3.6l.3.3-.3-.3v.6h.3v.299l-.3.9.3-.3-.3.3v.9-.3.6l-.3.3.3-.3-.3.3v.6l-.3.3v.3l.3-.3-.3.3v.6h-.3v.6l.3-.3-.6.6v.3l-.3.299h.3v.3l-.3.3v.3h.3l-.3.3-.3 2.1.3.6v-.3.6-.3.3l.3.3v-.3.6l1.2 1.199v-.3l.3.6h.3l.3.3h.6-.3l.3.3h1.799l1.499.3.3-.3v.3l.3-.3h-.3 1.2l.3-.3v.3h.6l.3-.3-.3.3h.3l.299-.3h.6-.3.3l.3-.3v.3l.3-.3h-.3.3v.3l.3-.3h-.3.3l.6-.3-.3.3.3-.3v.3-.3h.599-.6.6l.3-.3-.3.3.3-.3v.3l.6-.6h-.6l.3.3h.3v-.3l10.796-11.098.3-.3h-.3.3l-.3-.3h-.3v.3h.3l-.3-.3-.6.3h.3-.3l-.3.3.3-.3h-.3l-.3.3h.3l-.3-.3-.3.3-.6.3.3-.3h-.3v.3h-.6.3-.6l-.3.3h-.299l-.3.3v-.3l.3.6.3-.3-.3.3.3-.3h.6-.3.9-.3.3l.3-.3-.3.3h.3v-.3.3l.6-.3h-.3.3l.3-.3-.3.3.3-.3v.3l.299-.3h-.3.3v.3l.3-.3h-.3.3l.6-.3h-.6l.3.3v-.3l.3.3v-.3l-.3-.3-10.796 11.098h.3-.3l-.6.3.3-.3-.3.3h-.3.3-.6l-.3.3.3-.3h-.3l-.3.3h-.6.3-.3l-.3.3h.3-.9.3-.899l-.3.3h-1.5l-.599.3h.3l-1.8-.3-.3.3-.3-.3v.3l-.3-.3h-.599l-.3-.3h-.3l-.3-.3h-.6.3l-.3-.3h-.3l-.6-.9-.299-.3v-.3.3-.6.3-.6h-.3l.3-2.1v-.6l.3-.299v-.3l.3-.6-.3.3h.3v-.6l.3-.6v-.9l.3-.3v-.9l.3-.3v-.6l.3-.3v-1.799l-.3-.3v.3-.9.3-.3l-.3-.3v-.6l-1.2-1.5-.3.3-.3-.3h.3-.3l-.6-.3h.3l-.3-.3h-.3l-.9-.3v-.299h-.3l.3.3-.3-.3h-.599l-.6-.3h-.6l-.6-.3v.3l-.3-.3h-.299v.3-.3h-2.1l-1.499-.3-.3.3-.3-.3-.6.3h-3.598l-.3.3-.3-.3-.3.3h-.6l-.3.3.3-.3h-.6l-.3.3v-.3l-.299.3h.3v-.3l-.3.3v-.3zh.3l-.3-.3zl-.6.3.3.3z"/><path fill="gray" d="M-31.326 158.51h-1.2l-.3.3h-2.399v-.3l-.3.3-.9-.3.3.3-.599-.3h-.3.3v-.3l-.3.3v-.3h-.3l.3.3h-.6l.3-.3h-.3l-.3-.3v.3l-.3-.3h.3l-.3-.3v.3l-.3-.3-.6-.9v.3l-.3-.3v-.9.3-.6l-.299.3.3-.6-.3-.6.3-.9v-1.199.3l.3-.3v-.3l.3-.3v-.9l.3-.3v-.6l.3-.3v-.3.3-.3l.3-.3v-2.099l.3-1.2v-.3l-.3-.3v-.9.3-.6l-1.5-1.5h-.3l-.3-.6v.3l-.3-.3v.3l-.3-.3h.3l-.3-.299-.3.3-.9-.3v-.3h-.3l-.299-.3h-.3v.3l-.6-.3v-.3h-.3v.3h-.3v-.3h-.6.3-.6l-1.499-.3h-.3l.3.3-.3-.3h-1.499l-.3-.3-.3.3-.3-.3-.3.3h-4.198l-.3.3h-.9l-.6.3.3-.3h-.6l-.3.3h.3l-.3-.3-.3.3h.3v-.3l-.3.3v-.3l-.299.6.3-.3h-.3l-.6.3.6.6 13.795-7.799h.3-.3.3l.3-.3h-.3v.3h.3l.3-.3-.3.3h.3v-.3l.3.3v-.3h-.3l.6.3v-.3l.3.3.3-.3h-.3 1.199l.3-.3-.3.3h.3v-.3h.3l.3.3v-.3h.3l.6.3v-.3h2.098l.3-.3v.3h.6l.3-.3v.3h2.999-.3 1.2-.3l.6.3h.3l.3.3.3-.3.599.3.3-.6h-.9v-.3l-.3.3h.3l-.3-.3h-.9v-.3l-.3.3h-.3v-.3h-1.499l.3.3-.3-.3h-4.498l-.6.3-.6-.3-.3.3-.3-.3-.3.3h-1.499l-.3.3-.6-.3-.3.3h.3-.6.6-.9l.6.3-.3-.3h-.3l-14.094 7.5.3.599h.3-.6l.3.3v-.3h.3l.3-.3-.6.3h.6-.3.6l.3-.3-.3.3h.6v-.3.3l.3-.3h-.3.599l.3-.3v.3l.3-.3h.3l-.3.3h.3l.3-.3h.3-.3l.6.3.3-.3h.3-.3.899-.3 2.1-.3.6l.299-.3-.3.3h.9l.3-.3-.3.3h.9l.3-.3-.3.3h.6l.3.3.3-.3h.299-.3l1.5.3h.3l.6.3h.3l.299-.3v.3l.6.3h.9l.9.6-.3-.3.6.3.299.3h.3l-.3-.3.3.6h.3l1.2 1.5v-.3.3l.3.3h-.3l.3.3h-.3l.3.3-.3-.3.3.3v.6-.3l-.3 1.199h.3v.3l-.3.3h.3v.3h-.3v.6-.3.6h-.3.3l-.3.3h.3l-.6.3.3.3v-.3l-.3.3v.6-.3.3h-.3v.3h.3l-.3.3v.3-.3.9l-.3.3h.3l-.3.3v.299l-.3.3v.3-.3.6l-.3 1.2.3.3h-.3v.3l.3.6v-.3.3l.3.3-.3-.3v.3l.3.3v.3l.9 1.2h.3l.6.599h.299l-.3-.3.3.3h.6-.3l.3.3h.6l.6.3.3-.3h.3l.299.3h.6l.3-.3v.3h.6l.3-.3.3.3.599-.3h-.3.9l.3-.3.3.3v-.3z"/><path fill="gray" d="M-28.627 134.52h.9l.9.6v-.3.3l.6.3h.299l.3.3-.3-.3 1.2 1.5v.3l.3.3-.3-.3.6.6-.3-.3v.9l.3.3-.3-.3v.3l.3.3h-.3v.899h.3l-.3.3-.3.6h.3v.3h-.3v.3-.3 1.2h-.3v.3h.3l-.3.3v.6h-.3v.6l-.3.3v.6l-.3.3v.599-.3.3h-.3v2.4l.3.3-.3-.3v.3l.6.3-.3-.3v.3l.3.3h-.3l.3.3.9 1.2h.3-.3l.6.6h.3v-.3l.6.599v-.3l.299.3.6.3h.9l.3-.3-.3.3h2.399-.3.6l.3-.3v.3l.3-.3h.3-.3.599l.3.3.3-.3h-.3.3l.3-.3.3.3.3-.3h-.6l.3.3.3-.3h.6-.3.3l.3-.3-.3.3h.3v-.3.3l.3-.3h-.3.599l.3-.3-.6.3h.3l.3-.3v.3l.3-.3h-.3.3v.3l.3-.3h-.3.3l.3-.3h-.3.3v.3l.3-.3v-.6.3l-.3-.3-53.982 2.7-.3.6 54.282-2.7v-.3h.3l-.3-.3v.3-.3l-.6.3-.3.3v-.3.3h-.6l-.6.3.3-.3h-.3l-.3.3h.3l-.3-.3-.3.3h-.3l-.3.3v-.3l-.3.3-.299-.3-.3.3h-.6v.3l-.3-.3-.3.3-.6-.3-.3.6v-.3h-2.398l-.3-.3h-.6l.3.3-.3-.6v.3-.3h-.6.3l-.3-.3v.3-.3h-.6l.3.3-.3-.3-.6-.3h.3l-.6-.9v.3l-.299-.3v-.9l-.3-.3v.3l.3-2.099v-.9l.3-.3v-.6h.3v-1.2l.3-.3v-.6l.3-.3v-.9l.3-.3v-.599l.3-.3v-.9l-.3-.3.3-.6h-.3v-.9.3l-.3-.3.3-.3h-.3v.3-.6l-1.2-1.499h-.6.3l-.3-.3v.3l-.6-.6.3.3-.3-.6-.3.3-.9-.6h-.3l-.299-.3h-.3z"/></g><path fill-rule="evenodd" stroke="#000" stroke-linecap="round" stroke-linejoin="round" stroke-width=".3" d="m3.657 158.682-.9.6.3.3-.6.3v.3h-.3v.6l-.3.3v.3h-.3l.3.3h-.3v2.699h.3l-.3.3h.3v.3l.3.3-.3.3.6.3-.3.3 74.074 88.185h.3l.6.6h.599v.3h.6v.3l.3-.3v.3h.9v.3l.3-.3.3.3v-.3h1.199v-.3l.3.3v-.3h.6l.6-.6v.3l96.864-81.586.3-.3v-.3h.3v-.6l.3-.3v-.3l.3-.3h-.3l.3-.3v-.3l.3-.3h-.3l.3-.3h-.3v-.3h.3l-.3-.3v-1.2h-.3v-.9l-.3-.3v-.3L106.22 78.597l-.6-.3-.3-.3h-.3v-.3h-.9v-.3.3l-.3-.3h-.599l-.3-.3v.3h-.3v-.3l-.3.3h-.9v.3h-1.199l-.3.3h-.3z"/><g filter="url(#c)" transform="translate(111.457 4.062)"><path fill="silver" fill-rule="evenodd" d="M-56.517 141.42v.3l.3-.3.3.3.3-.3v.3l.3-.3h.6l.3-.3.3.3 2.998-2.7-.6.3v-.3l-.6.6h-.3l-.3.3v-.3l-.6.6-.599.3-.6.3-.6.3h-.3l-.3.3h-.3z"/><path fill="#bfbfbf" fill-rule="evenodd" d="m-54.418 141.12.3.3v-.3l.3.3.3-.6.3.3.3-.3.3.3v-.3l.3.3 5.997-5.1-.3.3h-.3l-.6.3-.3.3h-.3l-.599.3-.6.3-.6.6v-.3l-.6.3-.6.6v-.3zM-67.313 152.82h.3l.3.3.3-.3h.3l.3-.3h-.9l-.3.3-.3-.3z"/><path fill="#bdbdbd" fill-rule="evenodd" d="m-66.114 152.82.3.3v-.3h1.8l.3-.6-.3.3v-.3l-.3.3-.3-.3-.3.3-.3-.3-.3.3v-.3l-.3.6v-.3zM-52.318 141.12h.3v-.3l.3.3.3-.3h.6v.3l.3-.3h.3l8.396-6.899-.3-.3-.9.9v-.3l-.6.6-.299-.3-.3.6v-.3l-.6.6h-.3l-.3.3h-.3l-.3.3h-.3z"/><path fill="#bababa" fill-rule="evenodd" d="M-64.314 152.82h.6l.3-.3.3.3v-.3l.3.3.3-.3.3.3.599-.6-.3-.3-.3.3v-.3l-.3.3h-1.2zM-50.219 140.82l.3.3h.3l.3-.3.3.3v-.3h.6l.3.3 8.696-7.499h-.9l-.3.3v-.3l-.3.3-.3-.3v.3l-.3-.3-.299.3z"/><path fill="#b8b8b8" fill-rule="evenodd" d="m-62.215 152.52.3.3.3-.3h.3l.3.3v-.3h.6l.3-.3v.3l.599-.6h-1.5l-.3.3-.3-.3zM-48.42 140.82h.9v.3l.3-.3.3.3.3-.3.3.3 8.696-7.499-.3-.3v.3l-.3-.3-.3.3-.3-.3-.3.3-.3-.3v.3h-.3z"/><path fill="#b6b6b6" fill-rule="evenodd" d="m-60.416 152.52.6.3v-.3h.9l.3-.3v.3l.3-.3v.3l.599-.3-.3-.3v.3l-.6-.3h-1.2zM-46.621 140.82l.3.3h.3v-.3l.6.3v-.3l.3.3h.6l8.996-7.799h-.3l-.3-.3-.3.3h-.6l-.3.3v-.3l-.3.3v-.3z"/><path fill="#b4b4b4" fill-rule="evenodd" d="M-58.316 152.52h.3l.3-.3.3.3h.3v-.3l.3.3.3-.3v.3l.3-.3v.3l.3-.3-.3-.3-.3.3v-.3l-.3.3h-.3l-.3-.3-.3.3v-.3zM-44.821 141.12h.3l.3.3.3-.3v.3h.9l9.596-8.099h-2.1z"/><path fill="#b2b2b2" fill-rule="evenodd" d="m-56.217 152.22.3.3v-.3l.3.3.3-.3.3.3h.6l.3-.3v-.3l-.3.3h-1.5v-.3zM-43.322 141.42l.3.3v-.3l.3.3h.6l.3.3 9.896-8.399-.3-.3v.3l-.3-.3h-1.2z"/><path fill="#afafaf" fill-rule="evenodd" d="m-54.718 152.52.3.3.3-.3v.3-.3l.3.3.3-.3v.3h.6l.899-.9h-.6v.3l-.3-.3h-.3l-.3.3-.3-.3v.3l-.3-.3zM-41.822 141.72l.3.3h.6l.3.3 10.496-8.699h-.3l-.3-.3v.3l-.3-.3-.3.3v-.3h-.3l-.3.3v-.3z"/><path fill="#adadad" fill-rule="evenodd" d="m-53.218 152.82.3.3h.9v.3l.3-.3v.3l1.499-1.5h-1.5l-.3.3-.3-.3zM-40.623 142.32l.3.3v-.3l.6.6h.3l10.796-8.999-.3-.3h-.3l-.3.3v-.3h-.6z"/><path fill="#ababab" fill-rule="evenodd" d="m-51.719 153.12.3.6h.6v.3l2.699-2.1h-2.1zM-39.423 142.92l.9 1.2 11.396-9.899h-.3l-.6-.3h-.6v-.3z"/><path fill="#a9a9a9" fill-rule="evenodd" d="M-50.819 154.02h.3l.9.9 3.598-3v-.3l-.3.3h-.6v-.3l-.3.3h-.3v-.3l-.3.3h-.299zM-38.823 143.82l.6.9.3.3 11.696-9.899v-.3h-.3l-.3-.6v.3l-.3-.3h-.3z"/><path fill="#a6a6a6" fill-rule="evenodd" d="m-49.919 154.62.9 1.2h-.3l5.098-4.2h-.3l-.3.3-.3-.3v.3l-.3-.3-.3.3h-.3v-.3zM-37.924 144.72v.9l.3.3-.3.3 12.895-10.798-.6-.3-.3-.3-.3.3v-.3z"/><path fill="#a4a4a4" fill-rule="evenodd" d="m-49.32 155.82.3.3v.3h.3l-.3.3h.3l-.3.3h.3l6.597-5.4h-1.5l-.299.3-.3-.3zM-37.924 146.22v.6h.3l-.3.3v.9l13.795-11.398-.9-.9z"/><path fill="#a2a2a2" fill-rule="evenodd" d="M-48.72 157.02v1.8l8.697-7.2-.3-.299-.3.3v-.3l-.3.3h-.3l-.3-.3v.3h-.6zM-37.924 147.72v.9l-.3.3h.3l-.6.6h.3l-.3.6 14.695-12.298-.3-.3h.3-.3l.3-.3-.6-.6z"/><path fill="#a0a0a0" fill-rule="evenodd" d="M-48.72 158.51v.3h-.3l.3.3-.3.3h.3l-.3.3v.6h-.3v.6l10.496-8.999h-.3l.3-.3 14.995-12.898.3-.3-.3-.3v-.3l-14.695 12.298v.3l-.3.3v.6l-.3.3-.3-.3-.3.3v-.3.3l-.6-.3z"/><path fill="#a0a0a0" fill-rule="evenodd" d="m-38.823 151.32.3.3h.3l14.695-12.298-.3-.3.3-.3h-.3z"/><path fill="#9e9e9e" fill-rule="evenodd" d="M-49.32 160.61v.9l-.3.3h.3l-.6.6.3.3 10.196-8.399v-1.2l.3-.3-.3-.3.6-.6h-.3zM-38.523 151.62h.3l.3-.3v.3h.3l.3-.3.3.3.3-.3v.3l.3-.3.3.3 12.295-10.498h-.3l.3-.6v-1.2h.3l-.3-.3z"/><path fill="#9b9b9b" fill-rule="evenodd" d="m-49.919 162.41.3.3-.6.6v.3l-.3.6h.3l-.3.3h.3l-.3.3 10.796-8.999v-.3l.3-.3v-.3l-.3-.3.3-.3h-.3l.3-.3h-.3zM-36.424 151.32l.3.3.3-.3h.3l.3.3.3-.3.3.3v-.3l.3.3 9.596-8.399.3-.3h-.3l.3-.6v-.3l.3-.3v-.3l.3-.3h-.3z"/><path fill="#999" fill-rule="evenodd" d="M-50.519 164.81v.9l-.3.3.3.3v.3l11.396-9.599-.3-.6v-.6h-.3zM-34.625 151.32h.3l.3-.3.3.3.3-.3.3.3.3-.3v.3l.3-.3.3.3 7.197-5.999h-.3l.3-.6h-.3l.6-.6v-.6l.3-.3h-.3v-.3z"/><path fill="#979797" fill-rule="evenodd" d="M-50.819 166.61v.3l.3.3v.6h.3l11.996-9.899-.9-.9zM-32.526 151.32h.6v-.3l.3.3.3-.3v.3l.3-.3.3.3v-.3l.3.3 4.798-4.2v-.6h.3l-.3-.3.3-.3v-.599h.3-.3z"/><path fill="#959595" fill-rule="evenodd" d="M-50.219 167.81v.3l.6.9 12.296-10.498h-.3v-.3h-.3l-.6-.6zM-30.426 151.02v.3l.3-.3h.3l.3.3v-.3h1.2l2.998-2.4h-.3l.3-.3-.3-.3v-.9z"/><path fill="#939393" fill-rule="evenodd" d="m-49.619 168.71.3.6v-.3l.6.6v.3l12.895-10.798-.3-.3h-.6v-.3l-.3.3v-.3h-.3zM-28.627 151.02h.6v-.3l.3.3h.3l.3-.3.3.3v-.3l.3.3 1.499-1.2-.3-.6-.3-.6h.3-.3z"/><path fill="#909090" fill-rule="evenodd" d="M-48.72 169.61h.3l.3.3.6.3h.3l12.894-11.098-.3-.3v.3-.3l-.3.3v-.3l-.3.3-.3-.3v.3l-.599-.3zM-26.528 151.02h.3v-.3l.3.3.3-.3v.3l.3-.3.3.3v-.3.3l.3-.3h.3l.3-.3h-.3l-.6-.9z"/><path fill="#8e8e8e" fill-rule="evenodd" d="M-47.52 170.21h.9l.3.3v-.3l.3.3.3-.3v.3l13.494-11.698-.6.3-.3-.3v.3l-.3-.3-.3.3v-.3l-.299.3h-.3zM-24.428 150.72h.3l.3.3.3-.3.3.6v-.3l.3.3.6-.9h-.3l-.3.3v-.3l-.3.3v-.3l-.3.3-.3-.3v.3l-.3-.3z"/><path fill="#8c8c8c" fill-rule="evenodd" d="m-45.721 170.21.3.3h1.2l.3-.3.3.3 14.094-11.998v-.3l-.3.3h-.3l-.6.3-.3-.3-.3.3h-.899zM-22.929 151.02l.6.6h.9l1.2-1.2h-1.2l-.3.3-.3-.3-.3.3v-.3z"/><path fill="#8a8a8a" fill-rule="evenodd" d="m-43.921 170.21.6.3v-.3.3l.3-.3h.6l.3.3.3-.6.3.3 13.794-11.698h-.3l1.2-.9h-.6l-.3.3-.3-.3v.3h-.3l-.3.3h-.6l-.3.3v-.3zM-21.729 151.62l.3.3.3-.3h1.2l.3.3 1.499-1.5h-2.4z"/><path fill="#888" fill-rule="evenodd" d="m-41.522 169.91.3.3.3-.3h.3l.3-.3v.3l.3-.3h.3l.3-.3v.3l.3-.3 5.097-3.9-.3-.3 1.2-.899.9-.9h-.3l1.2-.9h-.3l1.2-.9v-.3l.899-.6-.3-.3 1.2-.9h-.3l1.2-.899h-.3zM-19.93 151.62h.3l.3.3.3-.6.3.3h.3l.3-.3.3.3 1.199-1.2h-.9l-.3-.3-.3.3h-.3z"/><path fill="#858585" fill-rule="evenodd" d="m-39.423 169.31.3.3.3-.3h.3l.3-.3h.3l1.799-1.8v-.3l.9-.6.9-.9v-.3zM-18.131 151.62h.3v-.3l.3.3.6-.3h.3l.3-.3.3.3 1.199-.9h-1.8z"/><path fill="#838383" fill-rule="evenodd" d="M-16.031 151.32h.3l.3-.3h.3l.3-.3h.9l.3-.3h.299l.3-.3-.3.3-.3-.3v.3l-.3-.3v.3h-.6v-.3l-.3.3z"/><path fill="gray" d="M-67.313 152.52v.6h.3-.6.6l.3-.3h-.6l.3.3h.3v-.3l-.3.3h.3v-.3l.3.3.3-.3h-.6l.9.3v-.3.3l.6-.3h-.6.6l.3-.3v.3h.299v-.3h.3l.3.3v-.3h.3-.3.9-.3.9l.6-.3v.3h.299l.3-.3.6.3v-.3h.6-.3l.6.3v-.3h.3l1.499.3v-.3h.3l.3.3h.6l.3-.3-.3.3h.599l.3.3v-.3h.3l.3.3h1.2l.3.3h.599l.3.3h.3l.9.3.3.3h.6v.3l.299.3-.3-.3 1.5 1.5-.3-.3.3.3v.9-.3.6l.3.3-.3-.3v.6h.3v.299l-.3.9.3-.3-.3.3v.9-.3.6l-.3.3.3-.3-.3.3v.6l-.3.3v.3l.3-.3-.3.3v.6h-.3v.6l.3-.3-.6.6v.3l-.3.299h.3v.3l-.3.3v.3h.3l-.3.3-.3 2.1.3.6v-.3.6-.3.3l.3.3v-.3.6l1.2 1.199v-.3l.3.6h.3l.3.3h.6-.3l.3.3h1.799l1.499.3.3-.3v.3l.3-.3h-.3 1.2l.3-.3v.3h.6l.3-.3-.3.3h.3l.299-.3h.6-.3.3l.3-.3v.3l.3-.3h-.3.3v.3l.3-.3h-.3.3l.6-.3-.3.3.3-.3v.3-.3h.599-.6.6l.3-.3-.3.3.3-.3v.3l.6-.6h-.6l.3.3h.3v-.3l10.796-11.098.3-.3h-.3.3l-.3-.3h-.3v.3h.3l-.3-.3-.6.3h.3-.3l-.3.3.3-.3h-.3l-.3.3h.3l-.3-.3-.3.3-.6.3.3-.3h-.3v.3h-.6.3-.6l-.3.3h-.299l-.3.3v-.3l.3.6.3-.3-.3.3.3-.3h.6-.3.9-.3.3l.3-.3-.3.3h.3v-.3.3l.6-.3h-.3.3l.3-.3-.3.3.3-.3v.3l.299-.3h-.3.3v.3l.3-.3h-.3.3l.6-.3h-.6l.3.3v-.3l.3.3v-.3l-.3-.3-10.796 11.098h.3-.3l-.6.3.3-.3-.3.3h-.3.3-.6l-.3.3.3-.3h-.3l-.3.3h-.6.3-.3l-.3.3h.3-.9.3-.899l-.3.3h-1.5l-.599.3h.3l-1.8-.3-.3.3-.3-.3v.3l-.3-.3h-.599l-.3-.3h-.3l-.3-.3h-.6.3l-.3-.3h-.3l-.6-.9-.299-.3v-.3.3-.6.3-.6h-.3l.3-2.1v-.6l.3-.299v-.3l.3-.6-.3.3h.3v-.6l.3-.6v-.9l.3-.3v-.9l.3-.3v-.6l.3-.3v-1.799l-.3-.3v.3-.9.3-.3l-.3-.3v-.6l-1.2-1.5-.3.3-.3-.3h.3-.3l-.6-.3h.3l-.3-.3h-.3l-.9-.3v-.299h-.3l.3.3-.3-.3h-.599l-.6-.3h-.6l-.6-.3v.3l-.3-.3h-.299v.3-.3h-2.1l-1.499-.3-.3.3-.3-.3-.6.3h-3.598l-.3.3-.3-.3-.3.3h-.6l-.3.3.3-.3h-.6l-.3.3v-.3l-.299.3h.3v-.3l-.3.3v-.3zh.3l-.3-.3zl-.6.3.3.3z"/><path fill="gray" d="M-31.326 158.51h-1.2l-.3.3h-2.399v-.3l-.3.3-.9-.3.3.3-.599-.3h-.3.3v-.3l-.3.3v-.3h-.3l.3.3h-.6l.3-.3h-.3l-.3-.3v.3l-.3-.3h.3l-.3-.3v.3l-.3-.3-.6-.9v.3l-.3-.3v-.9.3-.6l-.299.3.3-.6-.3-.6.3-.9v-1.199.3l.3-.3v-.3l.3-.3v-.9l.3-.3v-.6l.3-.3v-.3.3-.3l.3-.3v-2.099l.3-1.2v-.3l-.3-.3v-.9.3-.6l-1.5-1.5h-.3l-.3-.6v.3l-.3-.3v.3l-.3-.3h.3l-.3-.299-.3.3-.9-.3v-.3h-.3l-.299-.3h-.3v.3l-.6-.3v-.3h-.3v.3h-.3v-.3h-.6.3-.6l-1.499-.3h-.3l.3.3-.3-.3h-1.499l-.3-.3-.3.3-.3-.3-.3.3h-4.198l-.3.3h-.9l-.6.3.3-.3h-.6l-.3.3h.3l-.3-.3-.3.3h.3v-.3l-.3.3v-.3l-.299.6.3-.3h-.3l-.6.3.6.6 13.795-7.799h.3-.3.3l.3-.3h-.3v.3h.3l.3-.3-.3.3h.3v-.3l.3.3v-.3h-.3l.6.3v-.3l.3.3.3-.3h-.3 1.199l.3-.3-.3.3h.3v-.3h.3l.3.3v-.3h.3l.6.3v-.3h2.098l.3-.3v.3h.6l.3-.3v.3h2.999-.3 1.2-.3l.6.3h.3l.3.3.3-.3.599.3.3-.6h-.9v-.3l-.3.3h.3l-.3-.3h-.9v-.3l-.3.3h-.3v-.3h-1.499l.3.3-.3-.3h-4.498l-.6.3-.6-.3-.3.3-.3-.3-.3.3h-1.499l-.3.3-.6-.3-.3.3h.3-.6.6-.9l.6.3-.3-.3h-.3l-14.094 7.5.3.599h.3-.6l.3.3v-.3h.3l.3-.3-.6.3h.6-.3.6l.3-.3-.3.3h.6v-.3.3l.3-.3h-.3.599l.3-.3v.3l.3-.3h.3l-.3.3h.3l.3-.3h.3-.3l.6.3.3-.3h.3-.3.899-.3 2.1-.3.6l.299-.3-.3.3h.9l.3-.3-.3.3h.9l.3-.3-.3.3h.6l.3.3.3-.3h.299-.3l1.5.3h.3l.6.3h.3l.299-.3v.3l.6.3h.9l.9.6-.3-.3.6.3.299.3h.3l-.3-.3.3.6h.3l1.2 1.5v-.3.3l.3.3h-.3l.3.3h-.3l.3.3-.3-.3.3.3v.6-.3l-.3 1.199h.3v.3l-.3.3h.3v.3h-.3v.6-.3.6h-.3.3l-.3.3h.3l-.6.3.3.3v-.3l-.3.3v.6-.3.3h-.3v.3h.3l-.3.3v.3-.3.9l-.3.3h.3l-.3.3v.299l-.3.3v.3-.3.6l-.3 1.2.3.3h-.3v.3l.3.6v-.3.3l.3.3-.3-.3v.3l.3.3v.3l.9 1.2h.3l.6.599h.299l-.3-.3.3.3h.6-.3l.3.3h.6l.6.3.3-.3h.3l.299.3h.6l.3-.3v.3h.6l.3-.3.3.3.599-.3h-.3.9l.3-.3.3.3v-.3z"/><path fill="gray" d="M-28.627 134.52h.9l.9.6v-.3.3l.6.3h.299l.3.3-.3-.3 1.2 1.5v.3l.3.3-.3-.3.6.6-.3-.3v.9l.3.3-.3-.3v.3l.3.3h-.3v.899h.3l-.3.3-.3.6h.3v.3h-.3v.3-.3 1.2h-.3v.3h.3l-.3.3v.6h-.3v.6l-.3.3v.6l-.3.3v.599-.3.3h-.3v2.4l.3.3-.3-.3v.3l.6.3-.3-.3v.3l.3.3h-.3l.3.3.9 1.2h.3-.3l.6.6h.3v-.3l.6.599v-.3l.299.3.6.3h.9l.3-.3-.3.3h2.399-.3.6l.3-.3v.3l.3-.3h.3-.3.599l.3.3.3-.3h-.3.3l.3-.3.3.3.3-.3h-.6l.3.3.3-.3h.6-.3.3l.3-.3-.3.3h.3v-.3.3l.3-.3h-.3.599l.3-.3-.6.3h.3l.3-.3v.3l.3-.3h-.3.3v.3l.3-.3h-.3.3l.3-.3h-.3.3v.3l.3-.3v-.6.3l-.3-.3-53.982 2.7-.3.6 54.282-2.7v-.3h.3l-.3-.3v.3-.3l-.6.3-.3.3v-.3.3h-.6l-.6.3.3-.3h-.3l-.3.3h.3l-.3-.3-.3.3h-.3l-.3.3v-.3l-.3.3-.299-.3-.3.3h-.6v.3l-.3-.3-.3.3-.6-.3-.3.6v-.3h-2.398l-.3-.3h-.6l.3.3-.3-.6v.3-.3h-.6.3l-.3-.3v.3-.3h-.6l.3.3-.3-.3-.6-.3h.3l-.6-.9v.3l-.299-.3v-.9l-.3-.3v.3l.3-2.099v-.9l.3-.3v-.6h.3v-1.2l.3-.3v-.6l.3-.3v-.9l.3-.3v-.599l.3-.3v-.9l-.3-.3.3-.6h-.3v-.9.3l-.3-.3.3-.3h-.3v.3-.6l-1.2-1.499h-.6.3l-.3-.3v.3l-.6-.6.3.3-.3-.6-.3.3-.9-.6h-.3l-.299-.3h-.3z"/></g><path fill="#fff" fill-rule="evenodd" stroke="#000" stroke-linecap="round" stroke-linejoin="round" stroke-width=".3" d="m67.536 183.272-.6.9-.6.3v.3h-.3v.6l-.3.3v.6h-.3v2.699h.3v.6l.3.3-.3.3.6.3-.3.3 30.59 35.994.3.6.3-.3.6.6h.299v.3h1.5v.3-.3l.3.3v-.3l.3.3v-.3l.3.3.3-.3v.3-.3h1.199l.3-.3h.3l.3-.3h.3l33.887-28.495v-.3l.6-.6v-.3l.3-.3v-.3h.3l-.3-.3.3-.3v-.3h.3l-.3-.3h.3l-.3-.3v-.3l.3-.3h-.3v-.3l.3-.3h-.3v-.9h-.3v-.6l-.3-.6-30.289-36.293h-.3l-.3-.3h-.3v-.3h-.3v-.3h-.6l-.3-.3-.3.3v-.3h-.899v-.3l-.3.3v-.3l-.3.3h-.3v-.3l-.3.3h-.9v.3l-.299-.3-.9.9v-.3z"/><path fill="#fff" d="m113.42 165.572 1.199 1.5.6.9.6.3.6.3.299.3.6.3.6.3.3.3h.6l.599.3.3.3.6.3.9.299h4.498l.3-.3.6-.3h.6l.899-.6.6-.3 1.8-1.8v-.3l.299-.6.3-.9.3-.599v-.3l.3-2.1v-.6l-.3-1.5v-.599l-.3-.6v-.6l-.3-.6v-.6l-.3-.6-.3-.3-.3-.6-.3-.6-.9-1.499-.3-.3-.3-.6-2.098-2.1-.6-.3-.6-.6-.9-.6-1.499-.599-.9-.6-.6-.3h-.6l-.899-.3h-3.299l-.9.3-.6.3h-.3l-.599.3-.6.3-1.5 1.2-.3.6-.599.6-.3.6-.3.6v.3l-.3.6v.9l-.3 1.199.3.9-.3.6.3.6v1.5l.3.6.3.599v.6l.3.6.3.6v.3l.3.6.6.9zl2.998-2.4-1.2-1.2-.3-.9h-.3v-.6l-.3-.3v-.6l-.299-.3v-.3l-.3-.6-.3-1.2v-2.1l.3-.3v-.599l.3-.3v-.3l.3-.6 1.2-.9h.9l.299-.3h1.8l.9.3h.299l.3.3.9.3.9.3.899.6v.3l.6.3 1.2 1.2.6.3h-.3l.3.6.299.3.9 1.2v.3l.3.3.3.6v.3l.3.3v.299l.3.6v.6l.3 1.5v.6l-.3 1.2v.3l-.3.3-.3.599-.9.9.6-.3-.6.3-.6.3h-.6l-.3.3h-2.099l-.9-.3h-.3l-.3-.3-.6-.3h-.599l-.3-.3-.6-.3-.3-.3-.6-.3v-.3l-.899-.3-.6-1.2z"/><path fill="none" stroke="#000" stroke-linecap="round" stroke-linejoin="round" stroke-width=".9462" d="M182.404 166.477a91.03 91.03 0 1 1-182.058 0 91.03 91.03 0 1 1 182.058 0"/></svg>