<svg xmlns="http://www.w3.org/2000/svg" version="1.0" viewBox="0 0 336.987 427.253"><g style="fill:#000;stroke:none"><path d="M160.04.532c-10.581 4.84-19.746 13.33-15.113 30.9 3.288 10.92 25.661 34.192 4.965 38.019-31.28.614-62.569.112-93.852.081 9.924 22.353 55.261 18.064 77.508 20.59 10.816 1.496 27.288-1.407 14.704 14.15-8.496 8.934-20.021 31.868-28.9 21.722-2.484-11.08-11.22-19.939-19.9-25.137-15.64-4.868-36.454-3.89-47.184 11.253-4.231 5.226-10.66 16.538-6.805 24.558 3.603-12.675 13.177-23.633 27.517-24.972 18.838-4.606 37.842 12.685 31.365 32.014-3.025 19.557-21.782 31.478-35.955 43.333-11.74 8.848-22.213 20.7-29.05 32.889-8.062 20.681-5.993 45.38 12.7 54.8 11.476 8.412 49.802 11.538 40.796 7.15-14.3 9.445-34.059 6.176-47.896-.85-11.216-6.093-18.702-18.709-23.2-30.4-3.34-11.117-6.211-23.478-1.05-33.6 1.487-11.925 9.563-24.007 20.45-31.5 4.477-4.912 21.396-18.087 4.025-11.55-13.286 9.255-25.997 21.013-33.344 35.798-4.6 10.887-6.373 23.874-3.64 36.307 3.2 13.068 7.761 26.216 15.859 36.245 12.765 11.557 28.754 23.916 46.687 20.975 7.641-.267 37.336-13.036 18.738 5.825-8.941 14.179-8.74 22.7-4.486 33.457 4.374 13.462 23.621 17.284 36.884 13.38 7.757-3.02 16.944-8.01 22.793-14.463 3.378-3.726 5.163-7.299 6.157-12.915 3.852-9.71-16.173-24.64-9.073-11.959 6.294 12.669-10.147 24.257-22.513 27.712-21.897 5.413-29.913-11.406-18.187-22.512 8.23-11.8 21.806-19.576 31.4-29.3 11.65-9.076 22.99-20.587 39.517-19.836 15.432.541 24.625 11.555 36.12 19.911 8.61 6.892 18.15 15.76 25.463 23.025 9.225 8.284 17.533 21.235 6.1 31-8.89 4.311-18.742 5.645-26.83 2.95-8.928-2.972-14.023-8.319-15.709-17.733-1.012-8.646 12.177-23.696-2.661-13.017-7.473 10.801-3.796 22.568 3.7 30 8.997 7.412 13.525 8.371 22.9 11.6 13.232 2.23 38.206 1.342 38.5-17.4 4.424-26.855-27.455-48.138-8.42-43.13 13.307 6.967 32.484 4.465 46.532-2.42 9.149-8.027 19.612-16.42 25.038-27.713 4.6-12.465 7.216-21.314 6.25-35.337.81-12.844-2.946-20.899-8.3-30.2-6.03-10.393-16.775-19.819-26.6-26.7-7.421-5.889-16.333-5.14-3.4 3.7 9.757 7.747 20.184 17.38 24.787 30.562 4.985 15.49 5.018 33.106-3.487 47.638-6.447 14.786-22.362 26.333-38.292 28.153-9.409 4.545-42.866-10.73-16.008-6.403 18.227.068 41.007-5.598 44.844-26.458 5.825-30.752-19.53-57.87-41.444-72.192-7.199-6.369-14.24-12.598-20.988-19.988-7.7-9.863-10.79-18.428-8.1-29.96.196-20.25 26.082-23.835 40.425-17.577 6.029 1.645 14.863 7.293 21.006 20.981 2.69-10.523-4.57-20.618-12.39-27.606-9.576-6.705-24.28-12.389-36.053-9.45-12.75 2.114-24.804 12.866-28.127 25.46.104 25.505-23.29-8.26-30.485-17.403-9.44-11.874-7.421-15.688 5.48-15.583 22.785-.4 87.238-4.725 84.532-20.174-32.94-1.752-57.907-.981-90.765-1.327-13.588-4.013-11.132-12.254.302-29.423 8.452-9.703 5.592-27.102-2.825-33.538C175.86.311 169.091-.89 160.04.532m-5.413 32.322c-8.587-15.21 7.82-30.114 22.646-18.281 16.993 16.67-11.577 36.39-22.646 18.281m14.413 76.678c9.843 6.373 14.357 18.708 23.287 25.937 6.867 10.82 16.602 20.048 22.013 30.363 6.314 11.663 9.913 24.427 10.385 37.856 2.22 7.068-7.391 27.675-11.098 15.031.69-16.629-6.076-16.11-4.987-26.987 1.115-13.176-2.704-21.242-9.5-31-8.138-12.824-27.048-14.015-41.625-12.713-17.79 3.624-28.026 20.338-29.378 37.037.84 21.536-7.79 16.26-8.222 36.901-19.136 1.723-3.068-48.298 3.325-58.125 3.882-7.137 9.24-13.032 14.225-19.838 10.22-10.04 18.857-26.456 30.875-35.362l.5.225zm80.5 86c8.14 7.648 17.447 12.59 24.525 22.212 7.677 10.166 18.12 22.936 8.566 36.685-8.418 12.498-35.964 7.16-45.133-.058-10.688-8.102-14.693-9.502-1.344-18.454 9.875-12.842 11.847-21.155 9.286-34.548-2.468-4.145-2.871-8.987 4.1-5.837m-156.8 2.4c-2.691 8.297-2.278 17.506-.275 27.279 4.672 17.478 28.985 17.067 12.151 25.221-11.798 10.724-30.601 19.808-44.426 7.737-9.577-7.71-12.19-18.606-5.725-27.937 4.963-10.545 14.724-18.765 23.317-26.65 3.35-1.506 13.352-12.585 14.958-5.65m53.5 16.6c7.425 12.956-27.154 5.638-8.238-2.538 2.915-.368 6.155.34 8.238 2.538m58.4-.4c7.682 11.833-26.596 8.755-9.577-1.055 3.165-.807 6.705-.62 9.577 1.055"/><path d="M.54 278.332c-2.997 13.224 7.091 28.077 15.412 38.65 25.144 37.587 69.179 62.874 104.688 79.55 7.845 4.009 19.193 6.45 25.725 13.687 17.651 21.661 31.613 21.767 45.556 5.392 11.584-11.4 10.558-10.404 24.119-16.979 28.454-10.562 100.438-55.975 116.65-98.175 2.788-7.073 6.772-14.522 2.25-22.925-13.287 29.759-21.344 33.15-30.009 33.58-20.79-8.869 1.425 7.688-10.02 17.587-24.465 28.892-54.126 47.021-99.064 56.081-21.268 4.445-15.012-4.796-15.13-85.522 2.025-21.576-24.896-21.831-21.19.586 1.069 79.144 4.293 86.634-10.7 85.438-40.67-5.74-71.07-26.684-98.077-50.705-9.768-8.671 12.9-23.081-6.973-19.383-21.197 2.242-31.239-34.12-43.237-36.862"/></g></svg>