<svg xmlns="http://www.w3.org/2000/svg" width="210mm" height="297mm" viewBox="0 0 744.094 1052.362"><g style="display:inline" transform="translate(663.66 1600.222)"><path d="M739.086 477.6c-24.415-2.009-41.041-30.378-30.343-52.579 44.251-76.826 246.22-423.788 294.742-508.881 13.935-20.154 46.82-20.359 60.691 0 44.415 76.737 245.516 423.405 294.96 507.973 10.48 22.15-5.784 50.736-30.352 52.566-88.663.09-491.736.384-589.701.921z" style="fill:red;fill-rule:evenodd;stroke-width:3pt" transform="translate(-1325.517 -1454.464)"/><path d="m775.248 420.377 514.678-1.498-257.032-443.89z" style="fill:#fff;fill-rule:evenodd;stroke-width:3pt" transform="translate(-1325.517 -1454.464)"/><path d="M-210.947-1046.923c-1.81-1.523-5.634-3.36-8.498-4.08-6.812-1.716-9.544-4.422-10.488-10.39-1.517-9.591-3.095-13.403-5.834-14.09-1.436-.36-13.564-.477-26.952-.258-22.633.371-24.566.565-27.542 2.785-1.76 1.312-4.146 3.999-5.3 5.97l-2.098 3.583 5.823 2.42c6.118 2.543 6.86 4.374 2.26 5.58-2.512.657-2.257.945 2.919 3.294 5.623 2.553 5.644 2.582 2.511 3.477-5.64 1.61-64.558 1.742-67.43.151-3.513-1.947-4.4-6.426-2.19-11.059.998-2.094 1.367-4.084.819-4.422-.98-.606-17.284 2.04-47.94 7.781-46.848 8.773-73.572 8.45-93.603-1.131-8.743-4.182-11.635-7.621-11.635-13.836 0-11.156 17.117-19.507 30.454-14.858 6.298 2.196 4.026 4.62-7.378 7.873-12.778 3.644-13.315 8.553-1.411 12.893 4.908 1.789 9.163 2.246 21.435 2.303 17.612.084 26.893-1.568 48.77-8.67 29.4-9.543 38.045-14.444 70.185-39.784 12.29-9.69 28.753-17.424 46.638-21.907 11.482-2.88 32.144-2.905 45.77-.058 7.526 1.572 13.545 1.998 24.006 1.7l13.963-.396 7.184-4.989c25.117-17.439 42.053-27.731 48.83-29.675 2.577-.74 7.43-.117 18.801 2.413 8.43 1.875 15.759 3.677 16.287 4.003.528.325.96 1.787.96 3.245 0 3.944-6.94 9.482-24.002 19.15-8.75 4.958-11.742 8.142-22.346 23.776-7.58 11.175-12.661 17.251-20.05 23.974-12.272 11.165-15.237 16.719-15.253 28.568 0 8.952.602 9.935 6.922 11.071 4.122.742 8.469 4.194 7.058 5.606-.418.417-4.718.758-9.557.758-7.673 0-9.218-.355-12.088-2.769z" style="fill:#000" transform="translate(-2.073)"/><rect width="665.632" height="296.845" x="-624.429" y="-965.676" ry="35.082" style="opacity:1;fill:#fff;fill-opacity:1;stroke:#000;stroke-width:10.36789417;stroke-linecap:butt;stroke-linejoin:miter;stroke-miterlimit:4;stroke-dasharray:none;stroke-dashoffset:0;stroke-opacity:1"/><rect width="589.633" height="140.236" x="-586.429" y="-928.404" ry="16.573" style="opacity:1;fill:red;fill-opacity:1;stroke:none;stroke-width:10;stroke-linecap:butt;stroke-linejoin:miter;stroke-miterlimit:4;stroke-dasharray:none;stroke-dashoffset:0;stroke-opacity:1"/><g style="font-style:normal;font-variant:normal;font-weight:700;font-stretch:normal;font-size:3px;line-height:125%;font-family:Arial;-inkscape-font-specification:&quot;Arial Bold&quot;;text-align:start;letter-spacing:0;word-spacing:0;writing-mode:lr-tb;text-anchor:start;fill:#fff;fill-opacity:1;stroke:none;stroke-width:1px;stroke-linecap:butt;stroke-linejoin:miter;stroke-opacity:1"><path d="m299.499 1008.347 12.612 4q-2.9 10.546-9.668 15.688-6.723 5.097-17.094 5.097-12.832 0-21.094-8.745-8.262-8.789-8.262-23.994 0-16.084 8.306-24.96 8.305-8.922 21.84-8.922 11.822 0 19.205 6.988 4.394 4.13 6.592 11.865l-12.876 3.076q-1.143-5.01-4.79-7.91-3.604-2.9-8.79-2.9-7.163 0-11.645 5.141-4.439 5.142-4.439 16.655 0 12.217 4.395 17.403t11.426 5.185q5.185 0 8.92-3.296t5.362-10.37M381.413 1032.034h-14.15l-5.625-14.634h-25.752l-5.318 14.634H316.77l25.092-64.424h13.755zm-23.95-25.489-8.877-23.906-8.701 23.906zM388.444 967.61h13.008v34.892q0 8.306.484 10.767.835 3.955 3.955 6.372 3.164 2.373 8.613 2.373 5.537 0 8.35-2.241 2.812-2.285 3.383-5.581t.572-10.942v-35.64h13.007v33.838q0 11.601-1.054 16.391t-3.911 8.086q-2.813 3.296-7.559 5.274-4.746 1.933-12.393 1.933-9.228 0-14.018-2.11-4.746-2.152-7.515-5.536-2.768-3.428-3.647-7.163-1.275-5.537-1.275-16.348zM468.073 1032.034v-53.526h-19.116V967.61h51.196v10.898h-19.072v53.526zM508.02 1032.034V967.61h13.007v64.424zM530.74 1000.217q0-9.843 2.944-16.523 2.197-4.922 5.976-8.833 3.823-3.911 8.35-5.801 6.02-2.549 13.886-2.549 14.239 0 22.764 8.833 8.57 8.833 8.57 24.566 0 15.6-8.482 24.433-8.481 8.79-22.676 8.79-14.37 0-22.851-8.746-8.482-8.789-8.482-24.17m13.403-.44q0 10.943 5.053 16.612 5.054 5.625 12.832 5.625t12.744-5.58q5.01-5.626 5.01-16.832 0-11.074-4.878-16.523-4.834-5.45-12.876-5.45t-12.964 5.537q-4.921 5.494-4.921 16.612M603.469 1032.034V967.61h12.656l26.367 43.022V967.61h12.085v64.424h-13.052l-25.971-42.012v42.012z" style="font-size:90px;fill:#fff" transform="matrix(1.30868 0 0 1.30868 -887.437 -2171.512)"/></g><g style="font-style:normal;font-variant:normal;font-weight:700;font-stretch:normal;font-size:3px;line-height:125%;font-family:Arial;-inkscape-font-specification:&quot;Arial Bold&quot;;text-align:start;letter-spacing:0;word-spacing:0;writing-mode:lr-tb;text-anchor:start;fill:#000;fill-opacity:1;stroke:none;stroke-width:1px;stroke-linecap:butt;stroke-linejoin:miter;stroke-opacity:1"><path d="M255.051 991.65q0-8.358 2.5-14.03 1.865-4.178 5.074-7.499 3.246-3.32 7.09-4.925 5.11-2.164 11.79-2.164 12.088 0 19.327 7.5 7.275 7.5 7.275 20.856 0 13.246-7.2 20.745-7.202 7.462-19.253 7.462-12.2 0-19.402-7.424-7.2-7.463-7.2-20.521m11.38-.373q0 9.29 4.29 14.103 4.291 4.776 10.895 4.776t10.82-4.739q4.254-4.775 4.254-14.29 0-9.402-4.141-14.029-4.105-4.626-10.933-4.626t-11.006 4.701q-4.179 4.664-4.179 14.104M334.784 979.039v8.357h-7.163v15.97q0 4.85.186 5.67.224.784.933 1.306.746.523 1.791.523 1.455 0 4.216-1.008l.896 8.134q-3.657 1.567-8.283 1.567-2.836 0-5.112-.933-2.276-.97-3.358-2.462-1.045-1.53-1.455-4.104-.336-1.829-.336-7.388v-17.275h-4.813v-8.357h4.813v-7.873l10.522-6.119v13.992zM360.305 979.039v8.357h-7.164v15.97q0 4.85.187 5.67.224.784.933 1.306.746.523 1.79.523 1.456 0 4.217-1.008l.895 8.134q-3.656 1.567-8.283 1.567-2.835 0-5.111-.933-2.276-.97-3.358-2.462-1.045-1.53-1.455-4.104-.336-1.829-.336-7.388v-17.275h-4.813v-8.357h4.813v-7.873l10.521-6.119v13.992zM390.601 1006.052l10.447 1.753q-2.014 5.746-6.38 8.768-4.328 2.985-10.857 2.985-10.335 0-15.298-6.753-3.917-5.41-3.917-13.656 0-9.85 5.149-15.41 5.149-5.596 13.021-5.596 8.843 0 13.954 5.858 5.112 5.82 4.888 17.872h-26.267q.112 4.664 2.537 7.275 2.426 2.575 6.045 2.575 2.462 0 4.141-1.343 1.68-1.344 2.537-4.328m.597-10.597q-.112-4.552-2.35-6.902-2.239-2.388-5.448-2.388-3.432 0-5.67 2.5-2.24 2.5-2.202 6.79zM420.226 1018.663h-10.484v-39.624h9.738v5.633q2.5-3.992 4.477-5.26 2.015-1.269 4.552-1.269 3.582 0 6.903 1.978l-3.246 9.14q-2.65-1.716-4.925-1.716-2.202 0-3.731 1.232-1.53 1.194-2.426 4.365-.858 3.171-.858 13.283zM436.195 1007.358l10.522-1.605q.672 3.06 2.724 4.664 2.052 1.567 5.746 1.567 4.066 0 6.119-1.492 1.38-1.045 1.38-2.799 0-1.194-.746-1.977-.784-.746-3.507-1.38-12.686-2.799-16.081-5.112-4.702-3.209-4.702-8.918 0-5.148 4.067-8.656 4.067-3.507 12.611-3.507 8.134 0 12.09 2.65 3.954 2.648 5.447 7.834l-9.888 1.829q-.634-2.314-2.425-3.545-1.754-1.231-5.037-1.231-4.142 0-5.932 1.157-1.194.82-1.194 2.126 0 1.12 1.044 1.903 1.418 1.045 9.776 2.948 8.395 1.902 11.715 4.663 3.284 2.799 3.284 7.799 0 5.447-4.552 9.365-4.552 3.917-13.47 3.917-8.096 0-12.834-3.283-4.702-3.284-6.157-8.917M538.688 998.552l10.708 3.395q-2.462 8.955-8.208 13.32-5.708 4.328-14.514 4.328-10.895 0-17.91-7.424-7.013-7.463-7.013-20.372 0-13.656 7.051-21.193 7.052-7.574 18.544-7.574 10.036 0 16.305 5.933 3.73 3.507 5.596 10.074l-10.932 2.611q-.97-4.253-4.067-6.716-3.06-2.462-7.462-2.462-6.082 0-9.887 4.365-3.769 4.366-3.769 14.141 0 10.372 3.731 14.775t9.701 4.403q4.403 0 7.574-2.799t4.552-8.805M568.873 1018.663h-10.485v-39.624h9.739v5.633q2.5-3.992 4.477-5.26 2.015-1.269 4.552-1.269 3.582 0 6.902 1.978l-3.246 9.14q-2.649-1.716-4.925-1.716-2.201 0-3.73 1.232-1.53 1.194-2.426 4.365-.858 3.171-.858 13.283zM586.11 998.29q0-5.223 2.575-10.11 2.574-4.888 7.275-7.462 4.739-2.575 10.56-2.575 8.991 0 14.737 5.858 5.746 5.82 5.746 14.738 0 8.992-5.82 14.924-5.784 5.895-14.589 5.895-5.447 0-10.41-2.462-4.925-2.463-7.5-7.201-2.574-4.776-2.574-11.604m10.746.56q0 5.896 2.798 9.03t6.903 3.134 6.865-3.134q2.798-3.134 2.798-9.104 0-5.82-2.798-8.955-2.761-3.134-6.865-3.134-4.105 0-6.903 3.134t-2.798 9.03M631.555 1007.358l10.522-1.605q.671 3.06 2.723 4.664 2.052 1.567 5.746 1.567 4.067 0 6.12-1.492 1.38-1.045 1.38-2.799 0-1.194-.747-1.977-.783-.746-3.507-1.38-12.685-2.799-16.08-5.112-4.702-3.209-4.702-8.918 0-5.148 4.067-8.656 4.067-3.507 12.611-3.507 8.134 0 12.089 2.65 3.955 2.648 5.447 7.834l-9.887 1.829q-.635-2.314-2.425-3.545-1.754-1.231-5.037-1.231-4.142 0-5.933 1.157-1.194.82-1.194 2.126 0 1.12 1.045 1.903 1.418 1.045 9.775 2.948 8.395 1.902 11.716 4.663 3.283 2.799 3.283 7.799 0 5.447-4.552 9.365-4.552 3.917-13.469 3.917-8.096 0-12.835-3.283-4.7-3.284-6.156-8.917M674.09 1007.358l10.521-1.605q.672 3.06 2.724 4.664 2.052 1.567 5.746 1.567 4.066 0 6.119-1.492 1.38-1.045 1.38-2.799 0-1.194-.746-1.977-.784-.746-3.507-1.38-12.686-2.799-16.081-5.112-4.702-3.209-4.702-8.918 0-5.148 4.067-8.656 4.067-3.507 12.611-3.507 8.134 0 12.09 2.65 3.954 2.648 5.447 7.834l-9.888 1.829q-.634-2.314-2.425-3.545-1.754-1.231-5.037-1.231-4.142 0-5.932 1.157-1.194.82-1.194 2.126 0 1.12 1.044 1.903 1.418 1.045 9.776 2.948 8.395 1.902 11.715 4.663 3.284 2.799 3.284 7.799 0 5.447-4.552 9.365-4.552 3.917-13.47 3.917-8.096 0-12.834-3.283-4.702-3.284-6.157-8.917M720.317 973.666v-9.701h10.485v9.7zm0 44.997v-39.624h10.485v39.624zM777.552 1018.663h-10.484V998.44q0-6.417-.672-8.283-.671-1.903-2.2-2.947-1.493-1.045-3.62-1.045-2.724 0-4.888 1.492-2.164 1.493-2.985 3.955-.783 2.463-.783 9.104v17.947h-10.485v-39.624h9.739v5.82q5.186-6.716 13.058-6.716 3.47 0 6.343 1.269 2.873 1.23 4.328 3.171 1.493 1.94 2.052 4.403.597 2.462.597 7.051zM787.253 1021.274l11.977 1.456q.298 2.089 1.38 2.873 1.493 1.119 4.702 1.119 4.104 0 6.156-1.231 1.38-.821 2.09-2.65.484-1.305.484-4.813v-5.783q-4.7 6.418-11.865 6.418-7.984 0-12.648-6.754-3.656-5.335-3.656-13.282 0-9.962 4.775-15.223 4.814-5.26 11.94-5.26 7.35 0 12.126 6.454v-5.56h9.813v35.558q0 7.014-1.157 10.484t-3.246 5.448-5.597 3.096q-3.47 1.12-8.805 1.12-10.074 0-14.29-3.47-4.216-3.433-4.216-8.731 0-.522.037-1.269m9.365-23.244q0 6.305 2.425 9.253 2.463 2.91 6.045 2.91 3.843 0 6.492-2.985 2.649-3.022 2.649-8.917 0-6.156-2.537-9.141t-6.418-2.985q-3.768 0-6.23 2.947-2.426 2.91-2.426 8.918" style="font-size:76.41262817px;fill:#000" transform="matrix(1.03098 0 0 1.03098 -848.127 -1758.078)"/></g></g></svg>