<svg xmlns="http://www.w3.org/2000/svg" width="316.127" height="71.357" viewBox="0 0 296.369 66.897"><path d="M469.208 245.652c-3.135-.118-56.73-.37-119.1-.558s-118.096-.438-123.836-.554l-10.436-.21-.727-.784c-.4-.43-.817-1.145-.928-1.587-.11-.442-.516-1.365-.901-2.051a66 66 0 0 1-1.498-2.898c-1.652-3.412-2.269-4.663-2.518-5.1-.605-1.063-1.206-2.687-1.206-3.26 0-.99-.935-1.24-4.65-1.24-2.023 0-3.756-.143-4.124-.34-.575-.308-1.464-.414-4.35-.523-.927-.035-.976-.095-.976-1.204 0-1.525.221-1.575 6.658-1.51 3.355.033 5.2-.061 5.417-.278.18-.18.502-1.311.713-2.512.212-1.2.56-3.06.776-4.133l.39-1.95 5.622-.082c6.753-.098 7.403.1 8.72 2.639.962 1.852.974 2.088.21 4.175-.439 1.203-.507 1.726-.262 2.02.254.307 1.736.398 6.463.398 3.373 0 6.374-.13 6.669-.287.461-.247.563-.886.73-4.575.108-2.358.208-7.413.224-11.234.028-6.673.004-6.97-.6-7.575-.629-.628-.853-1.956-.38-2.248.138-.085 36.178-.194 80.09-.243 75.05-.083 79.869-.057 80.352.426.426.425.455.646.168 1.275-.19.419-.536.761-.767.761s-.56.17-.733.379c-.184.22-.472 4.168-.693 9.491l-.38 9.114.69.558c1.058.856 3.123.757 3.865-.186.514-.653.611-1.448.803-6.56.238-6.363.127-6.99-1.27-7.151-.747-.086-.825-.209-.825-1.295v-1.2l2.82-.178c3.43-.217 3.63-.401 3.63-3.349 0-2.365-.34-3.221-1.285-3.228-.935-.006-1.29-.312-1.539-1.328-.175-.715-.088-.98.46-1.393.648-.49.655-.54.17-1.281-.972-1.483-.605-2.86 1.032-3.871.678-.42.806-.738.919-2.298.072-.996.196-1.876.275-1.956.298-.298 1.337.2 1.84.88.623.843 1.069 5.423.616 6.322-.34.675.348 6.686.82 7.157.16.161.292.796.292 1.412 0 1.994.22 2.061 6.791 2.061 3.458 0 6.086-.127 6.429-.31.621-.333.818-1.907.28-2.24-.165-.102-.3-.427-.3-.722s-.27-.847-.6-1.228c-.33-.38-.6-.806-.6-.946s-.447-.254-.992-.254c-1.724 0-2.05-.478-1.948-2.85.12-2.76.341-2.875 5.34-2.775l3.75.075.088 2.175c.087 2.13.07 2.184-.75 2.54-2.127.924-3.088 1.729-3.088 2.587 0 .94 1.552 3.489 2.3 3.776.92.352 2.476-.19 3.464-1.206 1.197-1.233 1.512-1.26 2.288-.197.567.777.735.824 2.85.807 1.279-.01 2.436-.173 2.682-.377.238-.198.512-1.131.61-2.075.172-1.668.825-2.69 1.465-2.293.15.092.906.257 1.681.368l1.41.2.152 1.7c.083.934.264 1.81.4 1.947.137.136 2.027.248 4.199.248h3.95l.087.9c.076.783-.169 1.115-1.87 2.55-2.698 2.275-2.661 2.54.766 5.482l2.717 2.332 1.495-.198 1.494-.199 1.791 1.842c1.99 2.046 2.474 2.182 4.536 1.279 1.809-.793 3.13-1.235 5.033-1.686a35 35 0 0 0 3.062-.895c1.295-.463 1.433-.608 1.66-1.753.295-1.496.885-1.712 2.14-.785.746.552 1.12.624 2.338.454 1.702-.237 5.23-1.267 6.36-1.857.434-.227 1.06-.418 1.39-.425s.938-.205 1.35-.441 1.119-.433 1.57-.44c.95-.012 3.166-.82 3.854-1.406.66-.563 1.756-.504 1.99.105.261.68-.47 9.426-.823 9.852-.152.183-.358 1.336-.457 2.561-.1 1.226-.302 2.498-.45 2.828s-.478 2.423-.733 4.65-.592 4.59-.75 5.25-.29 2.516-.294 4.125c-.01 3.166-.06 3.042 2.064 4.813.787.655 1.038 1.125 1.154 2.157.27 2.391.022 2.767-1.974 3-2.549.295-12.217.345-18.8.097m-81.368-20.744 1.418-1.303v-9.476c0-8.215-.063-9.539-.471-9.947-.423-.423-3.947-.472-34.304-.472h-33.832l-.571.631c-.502.554-.596 1.314-.77 6.225-.279 7.879-.283 14.53-.01 14.96.319.502 2.835.544 37.415.62l29.706.064zm-144.264.528c.1-.261.182-5.094.182-10.74 0-7.585-.094-10.36-.36-10.626-.55-.55-2.778-.444-3.467.165-.533.471-.63 1.172-.938 6.825-.5 9.139-.455 13.787.137 14.379.67.67 4.189.667 4.446-.003zm36.53-.426c.65-.88.72-.9 3.293-.9 2.388 0 2.702-.069 3.438-.75.615-.57 1.139-.752 2.19-.757.76-.004 1.97-.143 2.69-.31 2.152-.496 2.512-.179 3.17 2.792.177.802.24.825 2.202.815 1.896-.009 4.62-.693 5.525-1.387 2.006-1.537 4.444-1.927 4.444-.711 0 .319.157.924.348 1.344.337.738.442.764 3.075.76 1.5-.003 2.919-.126 3.153-.275.53-.335.877-6.12.905-15.06.016-5.113-.058-6.251-.425-6.556-.343-.285-5.645-.356-23.475-.314-12.667.03-27.553.106-33.08.17-9.85.114-10.061.129-10.576.76-.46.566-.523 1.352-.512 6.387.02 8.425.4 13.587 1.054 14.31.508.562 1.077.582 16.22.582h15.695zm122.976-45.775c.014-.35.085-.42.181-.181.087.216.076.475-.024.575s-.17-.078-.157-.394" style="fill:#010101" transform="translate(-193.958 -178.914)"/></svg>