<svg xmlns="http://www.w3.org/2000/svg" xml:space="preserve" version="1.0" viewBox="0 0 660.204 450.177"><path d="M573.3 286.2c6.32 2.42 14.68-4.04 18.66-14.43 4-10.4 2.11-20.79-4.21-23.21" style="stroke:#000;stroke-width:.7056;stroke-linecap:round;fill:none" transform="scale(.99843)"/><path d="M587.75 248.56c-6.32-2.43-14.67 4.03-18.66 14.43-3.99 10.39-2.11 20.79 4.21 23.21" style="stroke:#000;stroke-width:1.6992;stroke-linecap:round;fill:none" transform="scale(.99843)"/><path d="M592.558 256.947c-.809-4.443-3.165-6.88-6.03-7.988l.608-1.587c2.966 1.148 5.052 4.613 5.881 9.225zM572.699 284.963c3.025 1.158 6.61.599 9.835-1.907l.11.579c-3.515 2.716-7.26 4.173-10.544 2.905z"/><path d="M579.4 260.07c-2.01-.77-4.67 1.29-5.94 4.59-1.27 3.31-.67 6.62 1.34 7.39" style="stroke:#000;stroke-width:.7056;stroke-linecap:round;fill:none" transform="scale(.99843)"/><path d="M579.94 274.03c2.01.77 4.67-1.29 5.94-4.6s.67-6.61-1.34-7.39" style="stroke:#000;stroke-width:1.6992;stroke-linecap:round;fill:none" transform="scale(.99843)"/><path d="M584.54 262.04c-2.01-.77-4.67 1.29-5.94 4.6s-.67 6.62 1.34 7.39" style="stroke:#000;stroke-width:.7056;stroke-linecap:round;fill:none" transform="scale(.99843)"/><path d="M583.312 262.428c-.868-.34-1.947-.46-2.885.26l-.1-.58c1.218-.938 2.456-1.697 3.594-1.267zM577.362 270.675c.25 1.368 1.088 1.797 1.967 2.127l-.6 1.587c-.988-.38-1.557-1.837-1.827-3.354z"/><path d="M569.09 297.16c10 3.84 23.22-6.38 29.54-22.83 6.31-16.45 3.33-32.9-6.67-36.74-10-3.83-23.22 6.39-29.54 22.84-6.31 16.45-3.32 32.89 6.67 36.73m5.71-25.11 5.14 1.98m-.54-13.96 5.14 1.97" style="stroke:#000;stroke-width:1.6992;stroke-linecap:round;fill:none" transform="scale(.99843)"/><path d="M571.67 285.33c6.19.76 13.31-5.66 16.87-14.88 3.61-9.4 2.41-18.79-2.58-22.34m-31.98 27.92c.15 9.95 4.07 16.84 9.97 19.16m-15.04-19.35c.58 9.08 4.4 15.23 9.9 17.38" style="stroke:#000;stroke-width:.7056;stroke-linecap:round;fill:none" transform="scale(.99843)"/><path d="M543.93 275.67c.96 8.17 4.65 13.6 9.74 15.57l15.42 5.92m-169.61-65.11c6.76 2.6 15.01-1.25 21.69-9.24" style="stroke:#000;stroke-width:1.6992;stroke-linecap:round;fill:none" transform="scale(.99843)"/><path d="M389.51 212.98c.06 3.51.59 6.63 1.45 9.13m7.4 9.44c.38.2.77.37 1.12.5m-14.84-17.21c.44 3.48 1.39 6.44 2.65 8.7m-7.09-6.99c.91 3.46 2.36 6.22 4.12 8.13m170.45 51.38v-5.35m-.02 0-39.77-1.42m39.77 1.42-21.74-8.35m-27.59 10.6 27.59-10.6m-27.59 10.6v5.35" style="stroke:#000;stroke-width:.7056;stroke-linecap:round;fill:none" transform="scale(.99843)"/><path d="m554.77 276.05-39.76-1.42" style="stroke:#000;stroke-width:1.6992;stroke-linecap:round;fill:none" transform="scale(.99843)"/><path d="m515.01 274.63-.03-5.34m.03 5.34-9.59 3.68" style="stroke:#000;stroke-width:.7056;stroke-linecap:round;fill:none" transform="scale(.99843)"/><path d="m554.77 276.06 2.44-.94c1.53-10.7 12.02-35 25.94-37.73 9.28-1.81 22.19-.4 24.21 20.98" style="stroke:#000;stroke-width:1.6992;stroke-linecap:round;fill:none" transform="scale(.99843)"/><path d="M554.63 270.71c2.1-8.3 7.36-20.37 14.54-28.28 3.95-4.35 8.49-7.44 13.33-8.39 3.18-.62 6.73-.87 10.21-.3" style="stroke:#000;stroke-width:.7056;stroke-linecap:round;fill:none" transform="scale(.99843)"/><path d="M595.57 234.4c1.31.41 2.6.95 3.83 1.66 2.38 1.37 4.59 3.34 6.44 6.12 2.3 3.47 4.08 8.29 4.82 14.92m-77.7 5.29c2.1-8.3 7.36-20.35 14.53-28.25 3.95-4.34 8.49-7.44 13.33-8.38 4.73-.93 10.27-1.03 15.2 1.15m21.23 8.07-22.21-8.53m32.32 31.92 3.3-1.27m-3.62-1.38-5.28-2.03M429.9 309.28l89.68-34.43" style="stroke:#000;stroke-width:1.6992;stroke-linecap:round;fill:none" transform="scale(.99843)"/><path d="m505.42 272.96-75.52 28.99" style="stroke:#000;stroke-width:.7056;stroke-linecap:round;fill:none" transform="scale(.99843)"/><path d="m626.79 222.42-31.12 11.95m-61.39 23.56-109.52 42.05-344.27 80.96" style="stroke:#000;stroke-width:1.6992;stroke-linecap:round;fill:none" transform="scale(.99843)"/><path d="M429.9 301.95 82.35 383.68m-3.621.85-5.205 1.23" style="stroke:#000;stroke-width:.7056;stroke-linecap:round;fill:none" transform="scale(.99843)"/><path d="M429.9 309.28 91.54 388.85m-7.504 1.77-10.524 2.21" style="stroke:#000;stroke-width:1.6992;stroke-linecap:round;fill:none" transform="scale(.99843)"/><path d="m600.23 236.57 38.97-14.96" style="stroke:#000;stroke-width:.7056;stroke-linecap:round;fill:none" transform="scale(.99843)"/><path d="M639.16 221.62v7.33m-33.56 12.88L639.04 229" style="stroke:#000;stroke-width:1.6992;stroke-linecap:round;fill:none" transform="scale(.99843)"/><path d="m384.05 270.3 204.48-78.49m7.79-2.99 1.3-.5M384.05 270.3l.6 6.36" style="stroke:#000;stroke-width:.7056;stroke-linecap:round;fill:none" transform="scale(.99843)"/><path d="m376.1 269.26.6 6.35m-.6-6.35 212.43-81.55" style="stroke:#000;stroke-width:1.6992;stroke-linecap:round;fill:none" transform="scale(.99843)"/><path d="m384.05 270.3-7.95-1.04" style="stroke:#000;stroke-width:.7056;stroke-linecap:round;fill:none" transform="scale(.99843)"/><path d="m376.69 275.61 7.96 1.05 203.88-78.27m7.79-2.99 1.9-.73m-.6-6.35.6 6.36m-.6-6.36-1.3-.17" style="stroke:#000;stroke-width:1.6992;stroke-linecap:round;fill:none" transform="scale(.99843)"/><path d="m514.26 236.1 74.27-28.51m7.79-2.99 25.28-9.7m-107.34 41.2.6 6.36" style="stroke:#000;stroke-width:.7056;stroke-linecap:round;fill:none" transform="scale(.99843)"/><path d="m506.31 235.06.59 6.35m-.59-6.35 82.22-31.56m7.79-2.99 17.33-6.65" style="stroke:#000;stroke-width:1.6992;stroke-linecap:round;fill:none" transform="scale(.99843)"/><path d="m514.26 236.1-7.95-1.04" style="stroke:#000;stroke-width:.7056;stroke-linecap:round;fill:none" transform="scale(.99843)"/><path d="m506.9 241.41 7.96 1.05M621.6 194.9l.6 6.35m-.6-6.35-7.95-1.05m-98.79 48.61 73.67-28.28m7.79-2.99 25.88-9.94m-194.92 97.76-35.65-13.69m-4.21-1.62-19.07-7.32m-4.21-1.61-21.49-8.25m-4.21-1.62-6.78-2.6m-4.21-1.61-40.66-15.61" style="stroke:#000;stroke-width:1.6992;stroke-linecap:round;fill:none" transform="scale(.99843)"/><path d="M420.33 301.02 391.63 290m-4.21-1.62-19.07-7.32m-4.21-1.61-21.49-8.25m-4.21-1.62-6.78-2.6m-4.21-1.62-45.17-17.34M80.01 380.61 353.85 275.5v7.8" style="stroke:#000;stroke-width:.7056;stroke-linecap:round;fill:none" transform="scale(.99843)"/><path d="m130.03 369.29 28.39-10.9m15.27-5.86 90.95-34.92m15.28-5.86 73.89-28.36m-237.22 79.23 232.12-89.1" style="stroke:#000;stroke-width:1.6992;stroke-linecap:round;fill:none" transform="scale(.99843)"/><path d="M282.28 248.02v7.62" style="stroke:#000;stroke-width:.7056;stroke-linecap:round;fill:none" transform="scale(.99843)"/><path d="m282.18 255.71 45.27 17.49m3.17 1.23 7.82 3.02m68.89 26.62-16.94-6.55m-2.97-1.14-21.44-8.29m-1.84-.71-10.33-3.99m-57.47-34.65 102.05-39.18m4.21-1.61 87.62-33.63" style="stroke:#000;stroke-width:1.6992;stroke-linecap:round;fill:none" transform="scale(.99843)"/><path d="m386.5 206.8-99.71 38.28" style="stroke:#000;stroke-width:.7056;stroke-linecap:round;fill:none" transform="scale(.99843)"/><path d="M382.24 204.49 281.65 243.1m86.7 44.08-4.21 1.62v-21.97l4.21-1.61m0 21.96v-21.96m23.28 31.83-4.21 1.61v-23.07m4.21 21.46v-23.07m-25.04-8.58-14.43-3.36-9.29-5.72" style="stroke:#000;stroke-width:1.6992;stroke-linecap:round;fill:none" transform="scale(.99843)"/><path d="M340.37 262.02c.08.03.17.05.24.07m2.06-5.87c-.02-.01-.04-.02-.06-.02-1.05-.41-2.4.57-3.02 2.18s-.27 3.24.78 3.64m11.79.02c-.37-.15-.84.2-1.06.76-.21.56-.09 1.13.28 1.27" style="stroke:#000;stroke-width:.7056;stroke-linecap:round;fill:none" transform="scale(.99843)"/><path d="m340.61 262.08 10.77 1.99" style="stroke:#000;stroke-width:1.6992;stroke-linecap:round;fill:none" transform="scale(.99843)"/><path d="M367.06 265.71a1.24 1.24 0 0 0-.47-.31c-1.05-.4-2.4.58-3.02 2.18-.61 1.61-.26 3.24.79 3.65" style="stroke:#000;stroke-width:.7056;stroke-linecap:round;fill:none" transform="scale(.99843)"/><path d="m351.38 264.07 12.98 7.16m-25.92 6.23v-20.49l4.21-1.62m0 20.5v-13.39m0-6.25v-.86m-10.99 18.68-4.21 1.61v-18.93m4.21 17.32v-16.91m-147.48 99.43-20.74-7.96m-5.14-1.98-16.98-6.51" style="stroke:#000;stroke-width:1.6992;stroke-linecap:round;fill:none" transform="scale(.99843)"/><path d="m177.96 358.02-19.55-7.5m-5.14-1.98-15.67-6.01m20.81 7.99v7.87" style="stroke:#000;stroke-width:.7056;stroke-linecap:round;fill:none" transform="scale(.99843)"/><path d="m165.23 361.01-6.82-2.62m-21.05-8.08 5.65 2.17m172.91-26.91-46.26-17.76" style="stroke:#000;stroke-width:1.6992;stroke-linecap:round;fill:none" transform="scale(.99843)"/><path d="m309.7 327.03-45.06-17.29v7.87" style="stroke:#000;stroke-width:.7056;stroke-linecap:round;fill:none" transform="scale(.99843)"/><path d="m296.98 330.03-32.34-12.42m-44.68-28.88 44.56 17.11" style="stroke:#000;stroke-width:1.6992;stroke-linecap:round;fill:none" transform="scale(.99843)"/><path d="m216.24 291.16 43.26 16.61" style="stroke:#000;stroke-width:.7056;stroke-linecap:round;fill:none" transform="scale(.99843)"/><path d="m215.99 298.94 33.25 12.76" style="stroke:#000;stroke-width:1.6992;stroke-linecap:round;fill:none" transform="scale(.99843)"/><path d="m331.8 252.25-9.67-3.71" style="stroke:#000;stroke-width:.7056;stroke-linecap:round;fill:none" transform="scale(.99843)"/><path d="m330.09 257.72-9.66-3.71m1.7-5.47 215.88-82.87" style="stroke:#000;stroke-width:1.6992;stroke-linecap:round;fill:none" transform="scale(.99843)"/><path d="m547.67 169.38-215.88 82.87" style="stroke:#000;stroke-width:.7056;stroke-linecap:round;fill:none" transform="scale(.99843)"/><path d="m322.13 248.54-1.7 5.47" style="stroke:#000;stroke-width:1.6992;stroke-linecap:round;fill:none" transform="scale(.99843)"/><path d="m331.79 252.25-1.7 5.47" style="stroke:#000;stroke-width:.7056;stroke-linecap:round;fill:none" transform="scale(.99843)"/><path d="m545.97 174.85-215.88 82.87m217.58-88.34-9.66-3.71m9.66 3.71-1.7 5.47m-152.9 17.52 106.51-40.88" style="stroke:#000;stroke-width:1.6992;stroke-linecap:round;fill:none" transform="scale(.99843)"/><path d="m509.24 155.19-106.51 40.89" style="stroke:#000;stroke-width:.7056;stroke-linecap:round;fill:none" transform="scale(.99843)"/><path d="m507.54 160.66-106.51 40.89m108.22-46.36-9.67-3.7m9.66 3.7-1.7 5.47" style="stroke:#000;stroke-width:1.6992;stroke-linecap:round;fill:none" transform="scale(.99843)"/><path d="m402.73 196.08-9.66-3.71" style="stroke:#000;stroke-width:.7056;stroke-linecap:round;fill:none" transform="scale(.99843)"/><path d="m401.03 201.55-9.66-3.71m1.7-5.47-1.7 5.47" style="stroke:#000;stroke-width:1.6992;stroke-linecap:round;fill:none" transform="scale(.99843)"/><path d="m402.73 196.08-1.7 5.47m-10.76 6.02-21.73-8.35m21.62 8.35c.68-2.7 1.7-5.8 3.01-9.03m3.52-7.56c2.26-4.24 4.96-8.34 8.01-11.69 3.94-4.35 8.49-7.44 13.32-8.39 5.29-1.03 11.58-1.04 16.9 2.02 1.06.61 2.09 1.34 3.07 2.21" style="stroke:#000;stroke-width:.7056;stroke-linecap:round;fill:none" transform="scale(.99843)"/><path d="M445.82 191.35q.21 1.26.36 2.61m-77.7 5.29c2.11-8.3 7.36-20.35 14.54-28.25 3.94-4.34 8.48-7.44 13.32-8.38 4.73-.93 10.27-1.03 15.2 1.15m21.23 8.07-22.21-8.53m-42.08 35.94-8.57 13.81m86.27-19.1-3.57-1.37m96.78 53.44-14.13-5.42m-16.7-6.41-3.86-1.48M488 226.3l-38.04-14.6m-15.93-6.11-12.64-4.85m-28.86 11.08 5.86 2.25m4.21 1.61 2.57.99m15.93 6.12 19.43 7.45m2.59 1 16.01 6.14m13.91 5.34 27.46 10.54m2.59 1 17.97 6.9m2.41.92.17.06M402.6 217.86l-4.21 1.61v-18.93m4.21 17.32v-16.91m-26.24 17.07c1.7 3.54 4.1 5.94 6.81 7.13m185.37-29.76-20.3-7.79m-4.2-1.62-6.78-2.6" style="stroke:#000;stroke-width:1.6992;stroke-linecap:round;fill:none" transform="scale(.99843)"/><path d="m562.45 197.73-14.2-5.46m-4.21-1.61-6.78-2.61" style="stroke:#000;stroke-width:.7056;stroke-linecap:round;fill:none" transform="scale(.99843)"/><path d="m536.22 195.5 7.82 3.02m29.9 9.74-4.2 1.61v-4.26m0-10.68v-7.02l4.2-1.62m0 21.97v-4.27m0-10.68v-7.02m23.28 13.87v-5.11m-25.03-8.57-14.43-3.37-9.29-5.71" style="stroke:#000;stroke-width:1.6992;stroke-linecap:round;fill:none" transform="scale(.99843)"/><path d="M545.97 183.09c.08.03.16.06.24.07m2.05-5.86-.06-.03c-1.05-.4-2.4.57-3.02 2.18-.61 1.61-.26 3.24.79 3.65m11.79.01c-.37-.14-.84.2-1.06.76-.22.57-.09 1.14.27 1.28" style="stroke:#000;stroke-width:.7056;stroke-linecap:round;fill:none" transform="scale(.99843)"/><path d="m546.21 183.16 10.76 1.99" style="stroke:#000;stroke-width:1.6992;stroke-linecap:round;fill:none" transform="scale(.99843)"/><path d="M572.66 186.78c-.15-.14-.31-.24-.47-.3-1.05-.4-2.4.57-3.02 2.18s-.27 3.24.78 3.64" style="stroke:#000;stroke-width:.7056;stroke-linecap:round;fill:none" transform="scale(.99843)"/><path d="m556.98 185.15 12.74 7.02M544.04 200v-21.96l4.2-1.61m0 21.97v-14.86m0-6.26v-.85m-10.98 18.67-4.21 1.62v-16.91m4.21 15.29v-16.91m10.98 20.2-4.2 1.62m8.13 1.66-6.21-2.4m20.08 7.76 3.7 1.43m1.84.71 1.08.42m13.87 5.36 2 .77m7.79 3.01 19.98 7.72m-171.56 4.17-4.21 1.62v-16.91m4.21 15.29v-16.91m59.96 39.93-4.2 1.62v-23.08m4.2 21.46v-23.07m20.56 30.96-4.2 1.62v-23.07m4.2 21.45v-23.07" style="stroke:#000;stroke-width:1.6992;stroke-linecap:round;fill:none" transform="scale(.99843)"/><path d="m536.49 252.12-11.23-4.31m-4.2-1.61-11.6-4.45m-2.62-1.01-2.14-.82m-4.2-1.62-7.97-3.06m-13.91-5.34-33.88-13m-20.09-7.71-12.64-4.85m122.71 52.32-9.46-3.63m-4.2-1.61-16.36-6.28m-4.2-1.61-14.78-5.67m-13.91-5.34-27.07-10.4m-4.21-1.61-6.75-2.59m-15.93-6.12-12.64-4.85M533 258.43l-7.74-2.97m-4.2-1.62-16.36-6.28m-4.2-1.61-17.93-6.88m-13.91-5.34-23.92-9.18m-4.21-1.62-9.91-3.8m-15.93-6.12-12.09-4.64" style="stroke:#000;stroke-width:.7056;stroke-linecap:round;fill:none" transform="scale(.99843)"/><path d="M281.65 243.1 109.64 355.46m-6.83 4.46-25.737 16.82m-2.85 1.86-.699.45" style="stroke:#000;stroke-width:1.6992;stroke-linecap:round;fill:none" transform="scale(.99843)"/><path d="m282.28 248.02-169.47 110.7m-6.83 4.46L79.777 380.3" style="stroke:#000;stroke-width:.7056;stroke-linecap:round;fill:none" transform="scale(.99843)"/><path d="m76.928 382.16-3.404 2.22m208.76-128.74-54.98 35.91m-11.31 7.39-67.32 43.98m-11.31 7.39-16.14 10.53m411.83-179.08-2.54-.97m-15.94-6.12-20.15-7.73" style="stroke:#000;stroke-width:1.6992;stroke-linecap:round;fill:none" transform="scale(.99843)"/><path d="m533.05 186.44-8.64-3.32m-15.93-6.11-14.06-5.4" style="stroke:#000;stroke-width:.7056;stroke-linecap:round;fill:none" transform="scale(.99843)"/><path d="m533.05 194.29-18.86-7.24m-15.93-6.12-4.88-1.87m-3.16-1.22-4.6-1.76" style="stroke:#000;stroke-width:1.6992;stroke-linecap:round;fill:none" transform="scale(.99843)"/><path d="m576.36 203.06 6.65 2.56m13.91 5.34 20.08 7.7m4.21 1.62 5.58 2.14" style="stroke:#000;stroke-width:.7056;stroke-linecap:round;fill:none" transform="scale(.99843)"/><path d="m583.65 200.27 4.88 1.87m15.68 6.02 12.79 4.91m4.21 1.61 18.04 6.93M617 226.32v-23.08m4.21 21.46v-23.07m-126.79-22.97-4.2 1.62v-12.97m4.2 11.35V165.7m-104.26 41.87 8.36-3.21M119.38 365.5l-25.338-26.1" style="stroke:#000;stroke-width:1.6992;stroke-linecap:round;fill:none" transform="scale(.99843)"/><path d="m113.6 367.72-24.345-25.08" style="stroke:#000;stroke-width:.7056;stroke-linecap:round;fill:none" transform="scale(.99843)"/><path d="m108.46 365.74-15.524 5.96m20.664-3.98-5.14-1.98-21.329-21.97" style="stroke:#000;stroke-width:1.6992;stroke-linecap:round;fill:none" transform="scale(.99843)"/><path d="m137.36 350.31.24-7.78m78.64-51.37v7.78" style="stroke:#000;stroke-width:.7056;stroke-linecap:round;fill:none" transform="scale(.99843)"/><path d="m74.592 346.86 5.744-2.2m11.01-4.23 18.664-7.16" style="stroke:#000;stroke-width:1.6992;stroke-linecap:round;fill:none" transform="scale(.99843)"/><path d="m110.01 326.78-16.24 6.23m-14.209 5.45-4.969 1.91m0 6.49v-6.49m35.418-13.59-6.37-2.45" style="stroke:#000;stroke-width:.7056;stroke-linecap:round;fill:none" transform="scale(.99843)"/><path d="m103.64 324.33-11.118 4.27" style="stroke:#000;stroke-width:1.6992;stroke-linecap:round;fill:none" transform="scale(.99843)"/><path d="m74.592 340.37-6.369-2.45" style="stroke:#000;stroke-width:.7056;stroke-linecap:round;fill:none" transform="scale(.99843)"/><path d="m74.592 346.86-6.369-2.44m0-6.5v6.5m20.732-17.94c-2.992-1.15-6.846 1.64-8.605 6.22-1.551 4.04-.959 8.13 1.282 9.85m2.665 1.19c2.992 1.15 6.846-1.64 8.605-6.22 1.759-4.59.76-9.23-2.233-10.38" style="stroke:#000;stroke-width:1.6992;stroke-linecap:round;fill:none" transform="scale(.99843)"/><path d="M90.669 327.14c-2.993-1.15-6.847 1.63-8.606 6.22-1.208 3.15-1.115 6.32.051 8.41" style="stroke:#000;stroke-width:.7056;stroke-linecap:round;fill:none" transform="scale(.99843)"/><path d="M83.92 343.57c.129.07.261.13.377.17" style="stroke:#000;stroke-width:1.6992;stroke-linecap:round;fill:none" transform="scale(.99843)"/><path d="M90.223 327.416c-.915-.35-1.92-.749-2.879-.37v-.658c1.162-.45 2.379-.979 3.486-.56z"/><path d="M86.005 326.49c-.566-1.01-1.337-1.67-2.188-1.98" style="stroke:#000;stroke-width:1.6992;stroke-linecap:round;fill:none" transform="scale(.99843)"/><path d="M83.816 324.51c-2.994-1.15-6.847 1.63-8.606 6.22-.659 1.72-.932 3.44-.857 4.96" style="stroke:#000;stroke-width:.7056;stroke-linecap:round;fill:none" transform="scale(.99843)"/><path d="M83.38 324.79c-.914-.35-1.918-.749-2.878-.38v-.648c1.162-.45 2.378-.979 3.486-.56z"/><path d="M78.872 337.39c.206.07.419.12.615.13m3.449-8.98a2.2 2.2 0 0 0-.549-.31c-1.65-.63-3.775.9-4.746 3.43s-.42 5.09 1.231 5.73" style="stroke:#000;stroke-width:.7056;stroke-linecap:round;fill:none" transform="scale(.99843)"/><path d="m82.103 323.85 1.713.66m5.139 1.97 1.714.66m-6.372 16.6-.396-.15m-15.678-5.67 6.191-2.22m-.018 0 5.057 1.94m2.65-13.79c-2.993-1.15-6.847 1.64-8.606 6.22-.824 2.15-1.043 4.31-.736 6.11" style="stroke:#000;stroke-width:1.6992;stroke-linecap:round;fill:none" transform="scale(.99843)"/><path d="m110.01 326.78 4.6-6.89m-.01 0 6.74-2.58" style="stroke:#000;stroke-width:.7056;stroke-linecap:round;fill:none" transform="scale(.99843)"/><path d="M121.34 317.31v6.47l-6.78 2.6m-4.55 6.89 4.6-6.88m-10.97-2.06 4.6-6.88 6.73-2.59" style="stroke:#000;stroke-width:1.6992;stroke-linecap:round;fill:none" transform="scale(.99843)"/><path d="m114.6 319.89-6.36-2.44" style="stroke:#000;stroke-width:.7056;stroke-linecap:round;fill:none" transform="scale(.99843)"/><path d="m121.34 317.31-6.36-2.45" style="stroke:#000;stroke-width:1.6992;stroke-linecap:round;fill:none" transform="scale(.99843)"/><path d="M85.764 340.55c1.807.5 3.992-1.2 5.012-3.85 1.07-2.78.463-5.61-1.356-6.31-1.819-.69-4.16 1-5.229 3.78-.639 1.67-.68 3.34-.217 4.59" style="stroke:#000;stroke-width:.7056;stroke-linecap:round;fill:none" transform="scale(.99843)"/><path d="m86.643 334.42-13.156 21.36m14.771-19.27c.148-.2.268-.42.35-.64.365-.95.157-1.91-.464-2.15-.47-.18-1.042.1-1.458.68m1.613 2.04-11.656 18.93" style="stroke:#000;stroke-width:1.6992;stroke-linecap:round;fill:none" transform="scale(.99843)"/><path d="M75.018 354.89c-.617-.19-1.374.39-1.726 1.31-.124.32-.182.64-.181.93" style="stroke:#000;stroke-width:.7056;stroke-linecap:round;fill:none" transform="scale(.99843)"/><path d="M73.111 357.13c0 .59.23 1.02.586 1.2" style="stroke:#000;stroke-width:1.6992;stroke-linecap:round;fill:none" transform="scale(.99843)"/><path d="M73.554 355.382c-.205.35.043.609.043.958l-1.2.46c0-.52.502-1.228.805-1.738z"/><path d="M80.4 361.52c.816.32 1.867-.44 2.348-1.69s.207-2.52-.609-2.83a1.14 1.14 0 0 0-.869.02" style="stroke:#000;stroke-width:1.6992;stroke-linecap:round;fill:none" transform="scale(.99843)"/><path d="M81.27 357.02c-.627.24-1.176.89-1.479 1.67-.48 1.25-.208 2.52.609 2.83" style="stroke:#000;stroke-width:.7056;stroke-linecap:round;fill:none" transform="scale(.99843)"/><path d="M81.142 357.239c-.309.12-.834.16-1.035.5l-.353-.32c.419-.71.749-1.498 1.388-1.738zM79.724 359.715c.102.48.53.33.853.45l-.607 1.587c-.433-.17-.591-1.048-.728-1.687z"/><path d="m75.018 354.89 7.043 2.08m-1.737 4.52-6.627-3.16" style="stroke:#000;stroke-width:1.6992;stroke-linecap:round;fill:none" transform="scale(.99843)"/><path d="M72.195 370.31a.92.92 0 0 0-.457-.42c-.621-.23-1.42.34-1.785 1.29s-.158 1.92.463 2.16m14.109 13.44c-.617-.18-1.375.4-1.727 1.31-.353.92-.17 1.85.406 2.13" style="stroke:#000;stroke-width:.7056;stroke-linecap:round;fill:none" transform="scale(.99843)"/><path d="M89.907 393.42c.817.31 1.868-.45 2.349-1.7.48-1.25.207-2.52-.609-2.83" style="stroke:#000;stroke-width:1.6992;stroke-linecap:round;fill:none" transform="scale(.99843)"/><path d="M91.646 388.89c-.816-.31-1.869.45-2.349 1.7s-.208 2.51.609 2.83" style="stroke:#000;stroke-width:.7056;stroke-linecap:round;fill:none" transform="scale(.99843)"/><path d="M91.198 389.069c-.265-.1-.656-.44-.932-.24l-.125-.579c.573-.42 1.114-.978 1.665-.759zM89.216 391.565c.102.47.53.32.853.44l-.608 1.587c-.432-.17-.59-1.048-.727-1.677z"/><path d="m84.525 386.78 7.043 2.08m-1.736 4.53-6.627-3.17m-13.236-17.23 13.016 17.15m-10.817-19.87 12.775 16.84" style="stroke:#000;stroke-width:1.6992;stroke-linecap:round;fill:none" transform="scale(.99843)"/><path d="M70.492 369.42c-.621-.24-1.42.33-1.785 1.28-.365.96-.158 1.92.463 2.16" style="stroke:#000;stroke-width:.7056;stroke-linecap:round;fill:none" transform="scale(.99843)"/><path d="m69.17 372.86.985.38m.337-3.82 1.246.47m-6.593-3.19c0 .89 1.875 1.61 4.189 1.61s4.189-.72 4.189-1.61-1.876-1.6-4.189-1.6-4.189.71-4.189 1.6m0 38.04c0 .89 1.875 1.61 4.189 1.61s4.189-.72 4.189-1.61m-7.351 22.37c0 .67 1.415 1.22 3.162 1.22s3.162-.55 3.162-1.22m-6.324 0v-21.32m6.324 21.32v-21.32m-7.351-1.05V366.7m8.378 0v5.36m0 5.61v27.07m-13.599 23.29 7.227 2.77" style="stroke:#000;stroke-width:1.6992;stroke-linecap:round;fill:none" transform="scale(.99843)"/><path d="m67.15 430.8 10.002-3.84" style="stroke:#000;stroke-width:.7056;stroke-linecap:round;fill:none" transform="scale(.99843)"/><path d="m77.152 426.96-4.656-1.79m-12.572 2.86 6.248-2.4m.978 5.17v4.43l-3.793 3.58v5.57m13.704-12.87-13.703 12.87m13.794-17.42v4.68m-17.228-3.61v3.07m-2.899 4.09-.894.85m.001 0v1.6m6.395 11.4c3.334 1.28 7.626-1.82 9.586-6.93.908-2.36 1.156-4.74.833-6.73" style="stroke:#000;stroke-width:1.6992;stroke-linecap:round;fill:none" transform="scale(.99843)"/><path d="M66.428 430.52c-2.68.86-5.082 3.59-6.389 6.95-1.961 5.11-.847 10.29 2.488 11.57" style="stroke:#000;stroke-width:.7056;stroke-linecap:round;fill:none" transform="scale(.99843)"/><path d="M59.445 443.823c.468 2.176 1.8 3.145 3.288 3.724l-.608 1.578c-1.599-.61-2.66-2.616-3.161-4.953z"/><path d="M63.002 429.21c-2.68.85-5.083 3.59-6.39 6.95-1.96 5.1-.847 10.28 2.487 11.56m.002 0 3.427 1.32" style="stroke:#000;stroke-width:1.6992;stroke-linecap:round;fill:none" transform="scale(.99843)"/><path d="m65.145 386.33-36.211 13.9" style="stroke:#000;stroke-width:.7056;stroke-linecap:round;fill:none" transform="scale(.99843)"/><path d="m65.145 394.28-36.211 13.9m36.211-25.81-41.372 15.88m5.161 9.93-14.084-5.43" style="stroke:#000;stroke-width:1.6992;stroke-linecap:round;fill:none" transform="scale(.99843)"/><path d="m12.532 393.94-6.521 2.5m.001 9.7v-9.7" style="stroke:#000;stroke-width:.7056;stroke-linecap:round;fill:none" transform="scale(.99843)"/><path d="m28.934 400.23-11.24-4.31m-.001 0-5.161-1.98" style="stroke:#000;stroke-width:1.6992;stroke-linecap:round;fill:none" transform="scale(.99843)"/><path d="m.85 394.46 5.162 1.98" style="stroke:#000;stroke-width:.7056;stroke-linecap:round;fill:none" transform="scale(.99843)"/><path d="m7.371 391.96 5.161 1.98m2.318 8.81-8.838 3.39M.85 404.16l5.162 1.98m1.359-14.18-6.521 2.5m0 9.7v-9.7M597.8 67.33c0-1.14-2.4-2.063-5.37-2.063s-5.38.924-5.38 2.063" style="stroke:#000;stroke-width:1.6992;stroke-linecap:round;fill:none" transform="scale(.99843)"/><path d="M587.05 67.333c0 1.14 2.41 2.064 5.38 2.064s5.37-.925 5.37-2.064" style="stroke:#000;stroke-width:.7056;stroke-linecap:round;fill:none" transform="scale(.99843)"/><path d="M586.977 67.228c0 .48.16 1.047.978 1.36l-.5.192c-1.127-.432-2.176-.894-2.176-1.553zM595.044 68.589c.978-.375.968-.868.968-1.36h1.698c0 .561-1.049 1.123-2.167 1.552z"/><path d="M587.05 72.651c0 1.141 2.41 2.064 5.38 2.064s5.37-.924 5.37-2.064m0 19.946c0-.551-.56-1.053-1.48-1.422m-7.79 0c-.99.4-1.48.912-1.48 1.422" style="stroke:#000;stroke-width:1.6992;stroke-linecap:round;fill:none" transform="scale(.99843)"/><path d="M587.05 92.597c0 1.141 2.41 2.064 5.38 2.064s5.37-.924 5.37-2.064" style="stroke:#000;stroke-width:.7056;stroke-linecap:round;fill:none" transform="scale(.99843)"/><path d="M586.977 92.452c0 .48.16 1.049.978 1.362l-.5.191c-1.127-.432-2.176-.895-2.176-1.554zM595.044 93.814c.978-.375.968-.868.968-1.362h1.698c0 .563-1.049 1.125-2.167 1.554z"/><path d="M587.05 97.916c0 1.14 2.41 2.063 5.38 2.063s5.37-.924 5.37-2.063" style="stroke:#000;stroke-width:1.6992;stroke-linecap:round;fill:none" transform="scale(.99843)"/><path d="M588.53 92.597c0 .826 1.75 1.496 3.9 1.496s3.89-.67 3.89-1.496" style="stroke:#000;stroke-width:.7056;stroke-linecap:round;fill:none" transform="scale(.99843)"/><path d="M587.05 97.916v-5.319m0-19.946v-5.318m10.75 0v5.318m-1.48 1.423v18.522m1.48.001v5.319m-9.27-23.842v1.938m0 2.346v14.238m0 138.98V98.936m7.79 135.37v-135.9" style="stroke:#000;stroke-width:1.6992;stroke-linecap:round;fill:none" transform="scale(.99843)"/><path d="M589.58 78.76c.5-.19.67-.96.38-1.719-.3-.759-.93-1.22-1.43-1.029-.49.19-.66.96-.37 1.718.29.759.93 1.22 1.42 1.03m5.79-3.132c-.3.112-.55.416-.69.781-.1.252-.13.504-.11.721m.39 14.465c.16.061.33.036.5-.053m-.9-.697c0 .383.16.656.4.75m-.4-.756V77.126m.81 14.459c.64-.285.95-.635.95-.982m-1.01-14.952c.68-.287 1.01-.647 1.01-1.005" style="stroke:#000;stroke-width:1.1304;stroke-linecap:round;fill:none" transform="scale(.99843)"/><path d="M440.48 6.949c0-1.14-2.41-2.063-5.38-2.063-2.96 0-5.37.924-5.37 2.063" style="stroke:#000;stroke-width:1.6992;stroke-linecap:round;fill:none" transform="scale(.99843)"/><path d="M429.73 6.949c0 1.14 2.41 2.063 5.37 2.063 2.97 0 5.38-.924 5.38-2.063" style="stroke:#000;stroke-width:.7056;stroke-linecap:round;fill:none" transform="scale(.99843)"/><path d="M429.904 6.939c0 .478.15 1.047.968 1.36l-.49.191c-1.127-.432-2.176-.894-2.176-1.552h1.698M437.97 8.3c.98-.375.97-.868.97-1.36h1.697c0 .562-1.059 1.124-2.167 1.552z"/><path d="M429.73 12.268c0 1.14 2.41 2.063 5.37 2.063 2.97 0 5.38-.924 5.38-2.063m0 19.945c0-.552-.56-1.053-1.48-1.423m-7.79 0c-.99.4-1.48.912-1.48 1.423" style="stroke:#000;stroke-width:1.6992;stroke-linecap:round;fill:none" transform="scale(.99843)"/><path d="M429.73 32.213c0 1.14 2.41 2.063 5.37 2.063 2.97 0 5.38-.924 5.38-2.063" style="stroke:#000;stroke-width:.7056;stroke-linecap:round;fill:none" transform="scale(.99843)"/><path d="M429.904 32.163c0 .478.15 1.049.968 1.362l-.49.19c-1.127-.433-2.176-.894-2.176-1.553zM437.97 33.525c.98-.376.97-.87.97-1.362h1.697c0 .562-1.059 1.124-2.167 1.554z"/><path d="M429.73 37.532c0 1.139 2.41 2.063 5.37 2.063 2.97 0 5.38-.925 5.38-2.063" style="stroke:#000;stroke-width:1.6992;stroke-linecap:round;fill:none" transform="scale(.99843)"/><path d="M431.21 32.213c0 .825 1.74 1.495 3.9 1.495 2.15 0 3.89-.67 3.89-1.495" style="stroke:#000;stroke-width:.7056;stroke-linecap:round;fill:none" transform="scale(.99843)"/><path d="M429.73 37.532v-5.319m0-19.945V6.949m10.75 0v5.318M439 13.69v18.522m1.48.001v5.319m-9.27-23.842v1.938m0 2.346v14.239m0 138.98V38.953m7.79 135.92V39.483" style="stroke:#000;stroke-width:1.6992;stroke-linecap:round;fill:none" transform="scale(.99843)"/><path d="M432.26 18.376c.5-.191.66-.96.37-1.719s-.93-1.221-1.42-1.029c-.5.189-.66.959-.37 1.718.29.758.93 1.219 1.42 1.03m5.78-3.133c-.29.113-.54.416-.69.782-.09.251-.12.504-.1.72m.39 14.466c.16.061.33.036.5-.054m-.9-.697c0 .383.16.657.4.751m-.4-.756V16.741m.8 14.459c.65-.284.96-.635.96-.981m-1.01-14.952c.68-.287 1.01-.646 1.01-1.004" style="stroke:#000;stroke-width:1.1304;stroke-linecap:round;fill:none" transform="scale(.99843)"/><path d="m589.06 77.386-29.7.857m29.7-.857-52.28 14.176m51.75-13.204-10.35 6.604m-2.14 1.31-26.19 15.708M431.74 17.001l-52.89-2.893m38.29 7.814-31.52 7.813m-7.03 1.564-41.94 9.377m92.47-20.838-30.21 14.065m43.32-6.11 37.71 4.095m-41.66-8.057 43.68-2.455m-43.97-6.109 26.15-7.98m-24.63 12.067 61.05-9.703m-30.72-4.043 19-5.256m112.79 73.987 19.01-10.916m4.44-2.83L636 53.72m-35.58 25.065 59.43-21.022m-55.39 25.874 13.34-1.213m-18.19 4.851 40.43.404M627.1 82.02l22.24-.404" style="stroke:#000;stroke-width:.7056;stroke-dasharray:.0283,1.4112;stroke-linecap:round;fill:none" transform="scale(.99843)"/></svg>