<svg xmlns="http://www.w3.org/2000/svg" viewBox="0 0 120.94 139.09"><g fill="#00f" stroke="#fff" transform="translate(-656.38 -639.44)"><path stroke-width="1.369" d="M666.21 762.17c-4.34.36-7.56 4.117-7.2 8.456a7.87 7.87 0 0 0 8.498 7.197l11.772-.976a7.87 7.87 0 0 0 7.197-8.5c-.36-4.339-4.155-7.513-8.495-7.153zm2.543 4.747 7.545-.626c2.165-.18 3.94.395 4.12 2.56s-1.474 3.066-3.639 3.245l-7.545.626c-2.164.18-3.986-.434-4.166-2.598-.18-2.165 1.52-3.028 3.685-3.207zM737.81 709.58c-3.395-2.726-8.317-2.22-11.044 1.176s-2.186 8.345 1.21 11.071l9.21 7.396a7.87 7.87 0 0 0 11.07-1.21c2.727-3.395 2.16-8.31-1.235-11.037zm-1.423 5.194 5.903 4.74c1.694 1.36 2.586 2.999 1.226 4.693s-3.18 1.21-4.873-.151l-5.904-4.74c-1.693-1.36-2.593-3.06-1.233-4.753s3.187-1.15 4.88.21zM686.07 749.6c-2.834 3.306-2.484 8.242.822 11.076a7.87 7.87 0 0 0 11.104-.855l7.687-8.969a7.87 7.87 0 0 0-.855-11.104c-3.306-2.834-8.237-2.424-11.07.883zm5.146 1.589 4.926-5.749c1.414-1.65 3.08-2.49 4.73-1.076s1.107 3.217-.307 4.867l-4.927 5.748c-1.413 1.65-3.14 2.494-4.79 1.08s-1.046-3.22.367-4.87zM703.57 694.36c-3.928-1.88-8.604-.261-10.484 3.667a7.87 7.87 0 0 0 3.705 10.502l10.656 5.097a7.87 7.87 0 0 0 10.502-3.705c1.88-3.928.205-8.584-3.723-10.464zm-.2 5.382 6.83 3.267c1.96.937 3.203 2.329 2.265 4.288s-2.82 1.904-4.779.966l-6.83-3.267c-1.96-.937-3.223-2.386-2.285-4.346s2.84-1.846 4.8-.909z"/><rect width="30.397" height="6.186" x="-970.65" y="-374.74" stroke-width="1.467" ry="3.093" transform="matrix(-.92003 -.39184 .42349 -.9059 0 0)"/><rect width="28.623" height="6.009" x="-28.105" y="1020.9" stroke-width="1.403" ry="3.005" transform="rotate(-42.774)"/><path stroke-width="1.19999124" d="M716.013 776.045c-.571-.924-4.438-2.697-10.344-4.745-15.783-5.47-24.767-11.48-32.125-21.487-2.386-3.245-2.65-3.434-4.782-3.434-1.241 0-2.522.265-2.847.59-1.12 1.12-6.591-10.07-8.145-16.661-1.055-4.474-1.046-11.018.02-14.607l.846-2.851 5.885 5.938c6.525 6.584 11.308 10.228 16.801 12.799l3.655 1.71-1.356 1.611c-1.582 1.88-2.22 4.631-1.708 7.36 1.33 7.094 18.058 15.252 23.696 11.558 3.008-1.971 3.052-2.39 3.793-36.285.376-17.235.582-31.522.458-31.749-.125-.227-9.733-.412-21.351-.412h-21.125v-8.243h42.864l-.02-3.984-.02-3.984-2.412-1.528c-6.84-4.332-8.754-14.258-4.015-20.826 2.164-3 2.763-3.487 6.468-5.264a15.15 15.15 0 0 1 13.188 0c3.705 1.777 4.303 2.264 6.468 5.264 4.739 6.568 2.825 16.494-4.015 20.826l-2.412 1.528-.02 3.984-.02 3.984h42.864v8.243h-21.125c-11.619 0-21.227.185-21.351.412-.125.227.081 14.514.458 31.75.74 33.894.784 34.313 3.793 36.284 5.638 3.694 22.365-4.465 23.696-11.557.512-2.73-.126-5.481-1.708-7.36l-1.356-1.612 3.655-1.71c5.493-2.57 10.276-6.215 16.8-12.799l5.886-5.938.846 2.85c1.066 3.59 1.075 10.134.02 14.608-1.554 6.591-7.025 17.78-8.145 16.66-.667-.666-4.203-.784-5.043-.169-.303.222-1.596 1.78-2.874 3.463-7.44 9.798-16.302 15.654-31.837 21.038-5.906 2.048-9.773 3.822-10.344 4.745-.19.307-.563.558-.83.558-.266 0-.64-.251-.829-.558zm4.718-117c2.316-2.315 2.274-5.572-.1-7.79-5.301-4.952-12.806 2.662-7.678 7.79 2.262 2.262 5.516 2.262 7.778 0z"/><path stroke-width="1.369" d="M688.83 677.7c-1.43 4.113.698 8.58 4.81 10.011a7.87 7.87 0 0 0 10.026-4.85l3.88-11.158a7.87 7.87 0 0 0-4.851-10.025c-4.113-1.43-8.554.752-9.984 4.865zm5.37-.4 2.487-7.15c.714-2.053 1.959-3.443 4.01-2.73 2.052.714 2.206 2.591 1.492 4.643l-2.487 7.15c-.713 2.052-2.013 3.47-4.064 2.756s-2.151-2.617-1.438-4.67z"/><rect width="28.623" height="6.009" x="55.592" y="963.95" stroke-width="1.403" ry="3.005" transform="rotate(-42.774)"/><rect width="28.623" height="6.009" x="-809.66" y="574.42" stroke-width="1.403" ry="3.005" transform="rotate(260.64)"/><path stroke-width="1.369" d="M718.89 736.48c-4.255.923-6.958 5.068-6.035 9.324a7.87 7.87 0 0 0 9.366 6.026l11.544-2.505a7.87 7.87 0 0 0 6.025-9.366c-.923-4.255-5.1-6.907-9.356-5.984zm3.141 4.374 7.399-1.605c2.122-.46 3.958-.123 4.419 2 .46 2.122-1.061 3.232-3.184 3.693l-7.399 1.605c-2.123.46-4.01.09-4.47-2.032s1.112-3.2 3.235-3.66z"/><rect width="28.623" height="6.009" x="325.74" y="-983.89" stroke-width="1.403" ry="3.005" transform="rotate(115.72)"/><rect width="28.623" height="6.009" x="612.75" y="813.8" stroke-width="1.403" ry="3.005" transform="rotate(-6.1)"/></g></svg>