<svg xmlns="http://www.w3.org/2000/svg" viewBox="0 0 1154.9 1723.3"><path fill="#1e4bc3" d="M575.12 0c-109.35 0-198 88.653-198 198 0 87.896 57.295 162.37 136.56 188.22 2.98 15.952 6.232 33.114 9.25 48.406-73.976 5.13-147.93-4.158-221.91-12.375l36.35 234.34c70.709-29.531 127.63-45.277 176.16-52.625-30.428 254.12-6.556 477.81 36 658.97-235.29 10-300.98-136.4-306.66-328.2 28.571 32.664 74.546 63.146 153.09 89.562-14.37-118.7-37.65-234.4-147.46-321.26C132.08 767.083 40.27 863.778 0 998.008c61.689-17.621 122.71-35.254 164.59-52.875-55.674 143.05-17.628 587.32 358.41 626.03 7.994 55.35 27.747 104.24 50.5 142l1.625 10.125c.78-1.198 1.569-2.401 2.344-3.625.775 1.224 1.563 2.427 2.344 3.625l1.625-10.063c22.767-37.769 42.502-86.685 50.5-142.06 376.03-38.714 414.08-482.98 358.41-626.03 41.885 17.621 102.9 35.254 164.59 52.875-40.29-134.12-132.09-230.81-248.52-294.86-109.81 86.86-133.09 202.56-147.46 321.26 78.548-26.417 124.52-56.899 153.09-89.562-5.674 191.8-71.365 338.16-306.66 328.22 42.556-181.16 66.428-404.85 36-658.97 48.526 7.348 105.45 23.094 176.16 52.625l36.34-234.39c-73.976 8.217-147.93 17.505-221.91 12.375 3.125-15.833 6.505-33.71 9.562-50.094 76.66-27.3 131.54-100.49 131.54-186.53 0-109.35-88.622-198-197.97-198zm0 105.06c51.326 0 92.938 41.611 92.938 92.938 0 51.326-41.611 92.906-92.938 92.906-51.326 0-92.938-41.58-92.938-92.906s41.611-92.938 92.938-92.938"/></svg>