<svg xmlns="http://www.w3.org/2000/svg" xml:space="preserve" viewBox="0 0 401.192 165.153"><path d="M177.22 61.838c-.796-.831-1.114.484-2.262.377-.6-1.296 2.52-1.79 2.26-.377zM384.6 72.396c-1.147.863-2.683 1.339-4.901 1.131.45-1.62 3.61-1.482 4.9-1.131zM87.855 88.232c-1.344 1.197-2.225-1.277-3.771-1.131 1.225-1.077 2.725.778 3.771 1.131M165.53 96.151c1.186-1.283.423 2.571 2.64 1.508-.293.336-.405.852-.377 1.509-1.5-.257-1.41-2.104-2.26-3.017zM271.86 98.413c-1.572 2.073-6.155 1.135-9.05 1.886 2-2.042 6.49-2.401 9.05-1.887zM260.92 98.79c-.8 1.645.842 2.065 0 3.394-1.21.331-.781-.978-1.508-1.131-1.789.725-3.079 1.949-4.147 3.394-4.724 1.515-9.515.793-13.197 3.017 3.281-4.692 15.079-1.506 17.345-8.673.52.003 1.02.003 1.52.003zM243.58 107.84c1.244.619.219 5.151-.754 6.033-5.199 1.656-12.311-.942-16.214.754 2.841-3.133 12.308.467 16.214-2.263-.51-2.07-.29-3.22.75-4.52zM122.92 109.72c1.787-.271 4.762 1.517 6.787 2.262-1.79.28-4.76-1.51-6.79-2.26z" style="clip-rule:evenodd;fill-rule:evenodd"/><path d="M234.53 110.48c-.251 1.509-2.426 1.094-4.148 1.131-.1-1.77 2.98-1.83 4.15-1.13zM91.249 112.36c.387-.841 2.524-.298 2.262.755-.482-.52-1.781-.23-2.262-.76zM103.31 113.5c.526-.98 1.952.275 2.64.377-.62 1.07-2.04-.19-2.64-.38zM103.69 115c-1.492-.486-.77 1.241-2.262.754.047-.943.72-1.18-.377-1.508.65-1.25 2.45-.5 2.64.76z" style="clip-rule:evenodd;fill-rule:evenodd"/><path d="M106.33 116.51c-.985-.147-2.069-.194-2.64-.755-.19-1.92 3.15-1 2.64.75zM157.23 115c1.504-.373 1.136 1.127 2.64.754-.98.79-2.64-.1-2.64-.75zM141.77 117.27c2.071-.556 4.954 1.325 7.165 1.885-2.2.68-4.73-1.56-7.17-1.89zM140.64 120.66c1.757-.866 3.813 1.206 6.033 1.131-2.14 1.25-4.07-.94-6.03-1.13zM190.79 121.04c1.08-.074 2.058-.047 1.885 1.131-1.08.07-2.06.04-1.89-1.13zM82.953 122.17c1.552-.908 3.878.662 5.656 1.132.794.209 2.34-.71 2.263.754-2.952-.31-5.138-1.39-7.919-1.88zM92.002 123.68c1.848.917 4.481 1.049 6.787 1.508-1.747.48-5.912.13-6.787-1.51zM108.22 125.56c-1.794 1.152-3.334-1.18-5.656-.754.73-1.26 4.59-.07 5.66.75zM85.97 125.56c3.327-.433 7.764 1.283 11.689 1.509-3.668.77-8.033-1.01-11.689-1.51zM85.97 127.45c.319-.889 1.654.313 2.262.377-.525 1.09-1.861-.11-2.262-.38zM101.81 127.82c-.488 1.174-6.179-.537-2.262-.377.762.04 1.672.67 2.262.38zM162.14 130.84c1.19.066 2.249.265 2.263 1.508-1.41.15-2.21-.3-2.26-1.51zM94.265 131.97c.803-.203 3.112-.793 3.017.754-1.476.22-2.19-.32-3.017-.75zM158.74 131.97c1.093-.945 3.007.496 3.394 1.509-1.68.05-2.43-.83-3.39-1.51zM143.28 138c.283 1.288-1.532.479-1.131 1.885 1.426 1.088 3.812 1.216 5.279 2.263 10.885-2.44 20.716 2.021 32.05 1.509 1.963-1.306 4.594-1.942 6.787-3.017 4.27 2.078 12.486-2.186 16.214 1.508-.186 1.165-2.021-.177-3.394-.377-2.41-.352-5.62-.799-6.787.377.664 2.228 4.597 1.185 5.656 3.017 3.393 1.429 7.071-1.672 8.295 1.131-6.789 1.841-10.664-2.368-15.459-2.639-.952-.055-.964.738-1.131.754-1.615.151-3.834-1.054-5.656.377.872-2.933 5.76.02 6.787-2.263-2.788-1.047-7.749-1.263-9.427 1.509-1.534.104-4.34.564-6.41.754-2.305.211-5.688-1.216-9.049-1.509-2.94-.256-6.093.302-7.918-1.131-4.536-.368-8.249.731-11.312.754-1.251-1.011-2.644-1.88-4.902-1.885-.738-.705-.116-1.381 0-2.263-5.427-.528-11.497 1.508-16.59 3.394 2.483-2.624 6.514-3.211 9.803-4.147 1.335-.042-.801-1.247.377-1.131 2.134-.343 3.499.822 4.524-.378 1.11.55 1.09 2.21 3.39 1.53zM211.15 142.53c-2.203.369-5.031.633-7.542 0 1.33-.8 7.05-1.99 7.54 0zM120.28 143.28c-.399 1.361-2.669.851-3.394 1.886.162.592 1.186.322.754 1.508-1.517.074-1.544.047-1.131-1.131-.909-.154-.82.688-1.885.377.276.353.686.571 1.131.754-2.159.983-5.022 1.262-7.164 2.263-.442-.061-.318-.688-.377-1.131-1.974.614-4.741 2.195-6.41 1.885 5.47-2.83 12.69-3.91 18.48-6.42zM123.3 148.18c.512.116.312.944.377 1.508h-1.885c.33-.66 1.38-.62 1.5-1.51z" style="clip-rule:evenodd;fill-rule:evenodd"/><path d="M107.08 149.32c-1.021.739-1.947 1.572-3.771 1.509 1.03-.75 1.95-1.58 3.77-1.51zM121.79 150.07c1.376-.244 2.008.255 2.639.755-.48.82-2.9.42-2.64-.75zM131.22 161.38c-.918 1.427-3.05-2.142-5.279-1.886 1.68-1.78 3.97.94 5.28 1.89zM120.66 160.25c-.088 1.169-1.337 1.177-2.262 1.509.331 1.177 1.461 1.555 2.639 1.885-1.402 1.132-3.737-.019-3.016-2.262 1.04-.22 1.58-.94 2.64-1.13zM89.74 162.89c-.364.768-1.448.814-2.639.754.155-1.02 1.793-1.55 2.639-.75zM132.72 165.15c-2.453-2.082-5.165-.462-7.541-1.886 1.66-1.33 6.76-.1 7.54 1.89zM291.09 0h1.131c.287 10.136-3.488 19.899-.754 30.165-2.613 3.409.281 8.089 2.263 12.066 3.623 7.271 8.75 16.019 12.065 23 9.724 1.731 22.241 2.766 32.051 1.508 1.498-.192 3.118-1.309 4.524-1.131 1.479.187 2.13 1.264 3.394 1.885 1.873.921 4.301 1.109 5.279 2.639 3.587.183 6.082 1.459 8.295 3.017 6.563.158 14.012 2.656 20.738 1.885 3.724-.427 7.408-3.151 9.427.377 2.208.809 5.439.593 7.164 1.885 2.045-.034 4.187-.165 4.524 1.508-1.678 3.033-4.643.257-6.41-.377-2.916-1.046-6.792-.968-8.672-2.639-1.435-.555-.074 1.686-1.509 1.131-3.843-.502-8.842.52-13.574 0-5.581-.613-11.159-2.638-15.836-2.639-3.277-2.504-7.84-3.724-11.689-5.656-2.643.577-3.893.406-6.032 1.131-1.415.74-.822-.356-1.886-.754-.727.53-1.517.996-2.64 1.131.262-.304.587-1.033 0-1.131-13.298 1.438-24.629-.507-35.443-4.902-4.25 2.341-9.408-.447-12.82-2.263-4.127 1.704-8.811-.121-12.819-1.508-2.752-.952-4.149-6.104-6.41-7.918-6.35.342-9.562-3.767-13.197-7.164-4.575-.327-8.411-1.393-10.935-3.771-3.065 2.331-6.088-.239-9.427 0-1.193.085-1.979 1.135-3.017 1.508-1.837.66-6.447 1.775-8.295 1.886-3.033.182-5.327-1.323-8.673-1.886-2.864.951-5.31.902-7.918 2.263-.557.29-.87 1.223-1.508 1.508-1.22.545-2.804.547-4.148 1.131-5.454 2.37-8.374 5.636-16.213 4.148 1.421-2.546 4.062-.07 6.033-.377.929-.145 2.077-1.322 3.394-1.886 2.599-1.112 5.463-1.22 7.165-3.394 3.369-.527 5.984-1.808 7.918-3.771 2.049.422 3.959.418 5.278-.754 7.138 2.601 13.247 1.263 20.361-1.508 2.78.869 6.702 1.016 9.427 0 2.667.566 3.701 3.096 6.41 2.639 1.335-.225 3.146-2.175 4.901-3.771 4.022-3.653 9.104-10.228 13.197-12.82.349-1.411 1.538-1.981 1.885-3.394 4.729-2.678 8.819-6.342 12.443-10.181 3.57-3.781 7.944-7.037 10.558-11.689.01-.373.01-.75.01-1.127zm-2.26 5.656c-3.467 3.95-7.777 7.054-10.936 11.312 4.173-3.62 10.899-4.686 12.066-11.312zm-.76 6.033c-.083-.294-.315-.438-.754-.377-4.897 4.78-11.81 7.546-16.968 12.066 4.825.075 8.084.902 14.705.754 1.57-3.581 2.39-7.91 3.01-12.443zm-1.88 11.689c-.433 1.186.592.916.754 1.508-1.539-.032-2.813 3.802-1.131 4.525 1.064-.982 1.519-3.17 1.885-4.902.919-4.34 1.548-9.257 1.509-13.197-1.02 4.015-1.85 8.209-3.02 12.066zm-17.35.754c.278 2.325-.128 3.85 1.131 5.656-1.828 6.467-2.726 13.865-3.771 21.115 2.632 3.15 4.154 7.409 8.295 9.049 3.999-10.958 6.562-23.352 10.181-34.689-4.04.04-11.57-.677-15.84-1.131zm19.61 7.164c1.029-.034.76.628 1.509 0-1.488-1.327.87-3.334-.754-4.525-.89 1.706-.34 2.697-.76 4.525zm-23-2.262c-2.7.567-2.068 4.468-3.771 6.033.09-1.544 1.144-2.124 1.131-3.771-4.649 4.022-8.678 8.667-12.82 13.197h3.394c3.824 7.507 5.402-2.735 7.164-6.41-.001 1.507-.753 2.263-.754 3.771.648.148.967-.56 1.131 0-1.621 1.897-2.127 4.911-3.017 7.541.789.217 1.077.935 2.263.754 1.089-5.448 4.104-10.978 4.147-16.214-.195.146-.558 1.832-.754.754.27-2.082 2.74-3.675 1.89-5.655zm1.13 12.82c.448-4.105 2.145-8.877 1.886-12.443h-1.132c.08 4.781-1.75 7.718-.76 12.443zm18.1-12.066c-1.922 5.368-4.656 11.933-4.901 17.722 2.046-5.999 4.39-11.698 6.41-17.722-1.03-.034-.76.628-1.51 0zm12.44 32.427c1.655.23 3.053 2.303 4.524 1.508-3.993-9.203-8.302-18.092-11.688-27.902-.083-.293-.316-.438-.754-.377.73 9.335 4.62 18.756 7.92 26.771zm-33.18-18.853c-.642 2.592-3.416 6.116-.754 7.918 2.223-.569 1.151-3.932 1.508-6.033.26-1.525.583-2.844.755-4.902.125-1.503 1.228-3.534 0-4.148-.94 2.032-.88 4.578-1.52 7.165zm23.76-4.148c1.292.383.898-2.833.377-3.017.08 1.215-.67 1.596-.38 3.017zm-9.43 16.214c-.474 1.538-2.404 4.681 0 5.656 2.562-1.633 2.389-5.489 3.017-8.672.942-4.777 3.147-9.294 2.64-13.951-1.9 5.177-4.05 11.739-5.66 16.967zm6.79-2.639c.372-2.28 1.894-3.175 4.148-2.639.045-1.805.024-3.544-.755-4.525-.631 1.81-2.741-.658-3.394 1.131-.063-.564.135-1.392-.377-1.508-1.01 2.054-.6 5.425.37 7.541zm5.28 1.885c-.888-.369-.338-2.176-1.131-2.639-.272.547-.098 3.167.377 4.147.741.113.747-.509 1.131-.754.842 1.924.498 5.033 2.263 6.033.644-1.594-2.282-5.443-.377-7.164-.52-.016-.828.178-1.132.377-.677-2.405-.739-7.875-1.508-8.295-.52 2.26.91 6.21.38 8.295zm-3.77-1.131c-1.035-.886-3.343.135-2.263 1.131 1.479-.339 1.323 4.201 3.771 4.148-.3-1.968-1.69-2.838-1.51-5.279zm-4.91 7.918c1.161-2.491 1.672-4.494.755-7.164.04 2.247-2.52 5.679-.76 7.164zm1.89-3.394c.062 1.164-.891 2.131 0 3.017 3.301-1.668 7.921 4.501 11.688 2.262-3.61-2.044-7.44-3.874-11.69-5.279zm5.66 1.886c.716-.71.045-1.959-.755-2.262 0 .999-.22 2.22.75 2.262zM180.24 51.28c-.698 1.393-2.774-.937-3.394.377-.73-1.149 2.49-1.359 3.39-.377z" style="clip-rule:evenodd;fill-rule:evenodd"/><path d="M118.02 133.48c.465-1.146 1.296.408 2.262 0 .923-.042.08-1.247-.377-1.132 1.854.062 6.139-.608 5.279-3.771.314-.856 2.316.751 3.017-.377-.091-.663-.649-.859-1.508-.754 2.559-.977 5.258-.037 7.164-1.131-.396-.575-4.318-.912-2.262-1.509-2.159-.154-4.875 1.09-8.295 0 2.337-.251-.4-2.241-.754-.377-.339-1.61-1.889-1.846-3.017-.754-1.254.26-.607-.779-.377-1.132-12.553-3.785-25.636-7.042-38.083-10.935 1.022-1.202 3.346.92 4.525-.377-.546-.837-2.245-.521-3.017-1.131.974-1.192 2.363.377 3.394.377-.386 1.061-.428 1.606 1.131 1.508 1.224-.564-1.705-.674-.377-1.508 1.104-.099 1.159.853 2.263.754-.093.409-.75.256-.754.754 2.195 1.491 6.41 2.835 9.05 2.64-.218-.913-1.424-.839-2.263-1.131-.149-.904 1.717.209 1.131-1.132 2.115-.354 2.425 1.095 4.147 1.132.188 1.122.661 2.96 2.263 3.771.735.372 2.004-.194 3.016 0 .786.15 1.188.943 1.885 1.131 1.575.424 3.433-.36 3.771.754.896-.11-.419-1.02-.754-1.131 1.16-.269 4.345.675 5.656 1.509.162 1.058-1.405-.945-1.508.377 1.957 1.051 3.146.769 4.901.754.512-.117.313-.944.377-1.509 1.068.063 1.571.691 2.639.755.273 1.153-.65 1.108-.377 2.262.343.912 1.113-.854 2.262-.377-1.02 1.811 1.395 2.001 3.394 1.886-1.404-1.015-.291-.928-.754-1.886.308-.763 1.988.239 2.639.377-.061.442-.688.318-1.131.377.333.665 1.673.623.754 1.509.247-.335 2.473-1.148.754-1.132 4.238.051 8.579 2.05 13.197 2.263-.757-.877-1.567-1.701-2.262-2.64 3.004-.987 5.448 1.838 9.049 1.509-.894-1.542-.637-1.148-.754-2.263 1.964-.53 4.921 1.916 6.787.754-1.479-1.16-3.55-1.729-5.656-2.262 3.655-.551 8.917 2.967 12.82 2.639.431-.036.207-.406 0-.377 1.774-.472 4.456.949 6.41 0-.381-.624-1.602-.409-2.263-.754.324-.778 2.625-.397 3.017 0 .473-.598-.394-2.143 1.131-1.131-.641-1.925-1.971-.499-3.394-.377 1.351-2.477-4.008-1.184-4.525-3.017 3.635.147 6.093 1.732 8.295 1.508.904-.149-.209 1.718 1.131 1.132-.093.409-.75.256-.754.754.093.409.75.256.754.754 1.621.179.482-1.015 1.131-1.131 1.132.502 2.885.383 4.525.377-.248-.506-.806-.702-1.508-.754 1.489-.266 3.686.502 5.656.377.757.769-.167.739-.377 1.508 1.427 2.093 7.042-.003 7.542 3.017h3.016c-.165-.464-.482-.774-1.131-.754 3.356-.384 8.326 1.007 11.688 0 .379.501.357 1.403 1.131 1.508 4.813-.088 9.263-.54 12.066-2.64-.465-1.145-1.297.409-2.263 0 3.11-1.162 4.907-3.639 6.787-6.032-2.362-.472-5.645 1.39-7.541 2.64-3.2-.154-6.561 1.018-9.05.377-.478 1.149 1.289 1.92.377 2.262-.676-.048-.795.462-1.508.377 1.845-1.031-.967-1.39-1.508-2.262-.786.11.56 1.02-.754 1.131q-1.534-.162-2.262-1.131c-2.801-.976-8.507 1.368-10.558-1.509-.442.062-.318.688-.377 1.132-.965-.04-1.797-.214-2.262-.755-2.385 1.098-7.846-.496-10.558-1.508-1.792.827-2.062-.615-4.902-.377-.522-.231-.057-1.452-.754-1.509-.442.062-.318.688-.377 1.132-12.406-2.802-23.578-6.839-34.312-11.312-1.36.148-2.528.488-3.771.755.594-.998.42-1.172-.754-.755-.139-.641.294-.711.754-.754-1.552-1-3.467-2.216-5.656-1.508-10.121-6.231-23.034-9.646-33.559-15.46-.644-.355-2.116-1.763-4.147-1.508.881 1.758 2.956 2.323 4.902 3.017-.449.87-2.555-.963-1.508 1.131-.75-.507-1.795-.719-2.64-1.131.117-.512.944-.313 1.508-.377-1.399-1.821-2.991-1.308-4.524-2.64.085-.543 1.125-.132 1.131-.754-.857-1.021-1.457-1.178-3.016-.755-.714-1.874-3.661-3.276-5.656-2.639-.159 1.291 1.129 1.133 1.508 1.885.919.756-1.399-.535-1.885-.754-1.539.347-2.065 1.705-3.394 2.263q.07 1.439 1.508 1.508c-.061.442-.688.318-1.131.377q.07 1.44 1.508 1.509c-.061.441-.688.317-1.131.377-.842.669 1.078 1.621 1.131 2.262.031.368-.622 1.37-.754 1.132 1.313 2.366 3.934 1.827 6.787 3.017.13.054.492 1.044.754 1.131 1.498.499 2.927 1.084 4.525 1.508-.154-1.459-1.735-1.058-2.64-1.508-2.375-1.182-4.675-2.827-7.164-3.771 4.343.561 8.493 4.577 13.951 5.278.12.886 1.167.845 1.508 1.509 3.012.633 5.075 2.215 7.918 3.017-3.01-3.903-9.875-3.952-13.197-7.542 10.048 4.029 18.537 9.618 29.411 12.82-1.335-3.566-6.96-2.844-9.426-5.278h-1.885c-4.853-3.11-10.334-5.368-15.459-7.919-4.466-2.222-8.779-4.061-13.197-6.41 1.78-.45 4.165 1.408 6.033 2.263 1.858.85 3.906 1.504 5.279 3.017 1.19-.185 1.332.68 2.64.377 4.69 2.852 9.114 5.969 15.459 7.164.76 1.754 2.968 2.06 5.279 2.263-2.72-2.502-8.265-4.402-12.443-6.41-3.433-1.649-6.568-3.53-10.181-4.524-3.361-3.176-8.938-4.135-12.066-7.541 2.797.847 4.272 3.018 7.541 3.393 5.411 3.389 12.072 7.535 18.099 9.05.442.061.318.688.377 1.131 3.989 1.541 8.004 3.057 11.689 4.902-.37 1.057-1.006-.548-1.508.377 1.599 2.046 4.708 2.581 7.164 3.771.055 1.665-.923-.035-1.885.377.831 3.11 4.825 3.563 7.541 4.525 2.152.761 4.342 1.949 6.41 2.639.807.27 1.72.074 2.64.377.829.273 1.8 1.307 2.639 1.509 3.255.785 6.358 1.839 9.049 3.394-3.158-.164-7.444-2.827-11.688-4.147-.785-.245-1.914-.055-2.64-.378-.485-.215-.638-.949-1.131-1.131-4.883-1.797-9.698-3.144-14.329-5.655-1.478-.803-3.09-1.46-5.279-2.263.728 2.666 5.418 1.369 5.656 4.524 7.568 2.739 14.797 5.815 22.624 8.296-2.421 1.031-4.437-1.591-7.541-1.132-.408-.764-3.287-2.159-4.524-2.64-2.328-.902-4.778-1.285-7.165-2.262-2.696-1.104-5.152-3.039-7.918-4.147-.738-.296-1.793.023-2.64-.377-.502-.238-.624-.934-1.131-1.132-1.441-.562-2.648-.445-4.147-1.131-2.594-1.188-6.239-3.104-9.049-4.147.061-.442.688-.318 1.131-.377-1.467-2.359-3.746.57-5.656-1.509-.512.117-.312.944-.377 1.509 1.121.151 2.203 1.546 4.147 1.885-5.562-.724-11.554-4.281-16.968-6.41 3.906-.656 7.934 5.069 12.066 3.017-3.341-1.81-7.098-3.854-11.312-5.278-1.044-.354-1.975-1.103-3.017-.378-.027 1.284 1.109 1.405 1.885 1.886-.105.792-1.007-.546-1.508.377q.334 2.306 2.64 2.64c-.461 1.149-1.439-.552-1.885.377.593 1.418.494 3.528 1.885 4.147-.093.41-.75.256-.754.754 2.672 1.456.373 4.832 1.508 8.296 8.223 2.712 17.128 4.741 26.395 6.41-8.448-.226-17.233-3.38-25.263-5.279-.85 1.178-.114 2.247.377 3.394.542 1.265.292 2.49.377 4.902.267.99 1.77.744 2.263 1.508-.248 1.129-.806-.36-1.508 0 .534 2.569.343 4.978 3.771 5.279 1.153.583-1.635.332-2.262.377.368 1.966-.508 2.833 1.131 3.394-.87 3.769 1.834 6.422 1.508 9.804 2.944.904 7.215 1.237 7.542-2.263-.061-.442-.688-.318-1.131-.377 1.838-.928 4.722-.809 5.279-3.017 1.421-.29 1.802.46 3.017.377-.754 1.34-1.8 2.769.377 3.394-1.448 1.423-2.037-1.212-2.262-2.263-2.533.735-4.803 1.733-5.279 4.525-2.75 1.332-3.955 1.34-7.542.754.16-.788-.258-.999-.377-1.509-.611.646-.351 2.164-1.885 1.886-1.713-6.081-4.236-13.098-5.656-20.361-.323-1.653.15-4.096-1.131-4.901-.964-11.525-5.125-18.186-5.279-30.919-1.943.044-2.312 1.441-3.017 3.017-1.608 3.596-3.931 7.565-6.033 11.312-1.076 1.916-1.738 3.812-3.394 5.278 4.767 10.316 10.857 19.308 15.836 29.411 1.277.105 2.165.6 3.771.377-.808 4.119 1.907 7.573 6.033 7.918-.788 1.354-3.395-.825-3.394.755-1.154-1.737-3.325-2.457-4.148-4.525.37-1.138.77-2.246 1.131-3.394-1.871-1.477-2.405 1.604-4.902.754-.867-.516-.936-1.828-1.508-2.639-3.225 1.007-6.514 6.816-10.181 6.787-3.698-.03-2.79-3.589-6.787-4.148.208 2.465-1.046 5.715-4.524 4.148.491-1.072 2.558-.066 3.394-1.509.109-1.618-1.777-1.239-1.885-2.64 1.11-.201 1.85-1.085 3.016-1.131 3.285-.13 4.794 4.188 8.295 3.771 4.08-.487 3.652-5.763 9.049-6.41-3.805-7.884-8.647-14.73-12.066-23-3.48.065-5.946.405-6.41 4.147 1.258.74 3.577-.686 5.279-.754-.324 2.441-4.432 1.099-6.41 1.885-2.925 3.432-4.784 7.747-7.918 11.312-1.327 1.51-2.988 3.405-4.524 5.279-.414.505-.896.809-1.131 1.131-1.012 1.388-1.229 3.204-2.262 4.525-.73.934-2.167 1.767-3.017 2.639-.944.969-1.589 2.398-3.017 2.64.2-.303.394-.612.377-1.131-3.217 3.642-6.994 7.463-10.935 11.312-2.412 2.355-5.246 6.447-9.049 6.41 2.869-2.284 5.566-4.74 8.295-7.164 8.07-9.274 16.922-17.768 23.755-28.279 2.805-2.349 4.896-5.411 6.41-9.05-.538-1.602-1.96.576-3.771 0-1.243-.14-1.884-.881-2.639-1.508-8.809.203-16.567 4.052-27.903 2.262-1.157-.183-2.379-1.185-3.771-1.508-1.245-.289-2.687.725-3.394-.754 1.507-2.016 4.022-.029 5.656.377 3.41.847 6.435.005 9.05 1.131 1.146-.739 3.41-.36 4.524-1.131 1.161-.281.725 1.035 1.885.754 5.639-.542 11.163-3.898 16.591-4.524 1.308-.151 2.497.275 3.771 0 .935-.202 1.666-1.283 2.64-1.509 1.228-.284 1.331.774 2.262-.377.906-1.356 1.98-2.545 2.64-4.147-1.019-3.506-3.736-5.313-4.525-9.05-5.776-9.624 3.556-22.191 8.295-26.394-4.791-2.876-13.234-2.099-15.836-7.164-3.661-1.533-5.635 1.998-9.804 2.639-2.691.415-4.87.866-7.164 1.886-1.048.208-1.056 1.458-1.508 2.262-2.85.921-6.086 1.455-7.918 3.394-2.646.371-4.827-.253-7.164 0-1.074.116-2.231.816-3.394.754-2.976-.172-5.593-3.082-9.071-1.523.519-2.764 3.072-.383 4.525-1.885 8.811 3.372 18.173-.074 25.64-5.279 5.115-.792 9.684-2.131 13.197-4.524 5.431 1.284 11.721 2.814 15.836.754 6.039 1.339 9.081-2.585 12.82-3.771 2.447-.775 4.897-.006 7.541-1.508 1.448.995 3.631.886 5.279 1.885.407.247.665 1.29 1.131 1.508 1.303.612 3.122.518 4.525 1.131 1.337.584 2.302 1.933 3.394 2.262 2.668.804 5.322-.421 7.918.754 1.046-1.09.442-3.831 2.262-4.147-.306-3.481 1.789-4.372 4.525-5.656 1.052-.494 1.608-1.096 1.885-1.131 5.426-.702 8.518 4.885 11.312 7.164v3.017c3.263.633 7.338.455 10.935.754 6.745-2.816 13.815-2.863 18.853-5.656 1.265-.701 1.892-1.847 3.394-2.639.208-.11.982.169 1.131 0 .701-.797.478-.347 2.262-.754 3.19-.729 6.804-1.692 9.049-4.147 2.719.791 6.163.173 8.672-.377-.21.769-1.134.739-.377 1.508 3.297-.853 6.07 1.252 6.787 4.148 2.493 1.152 4.672 2.618 5.656 5.279 5.977-1.873 10.778 1.713 12.82 6.033 5.301.148 5.591-4.716 11.312-4.147.958.425.871 1.894 1.886 2.262 2.269.509 1.938-1.581 3.017-2.262 3.037.75 6.905.157 10.558.754 2.822-4.341 4.171-10.157 7.918-13.574 2.672.093 5.914-.384 7.541.754.282 2.922-1.993 3.285-1.885 6.033.513.609 2.605-.389 4.147 0 .196 4.625-4.873 8.318-7.164 12.066-.396.646-.333 1.638-.754 2.263-1.572 2.333-4.133 3.197-3.017 7.164 1.294 4.604 4.013 10.085 3.017 17.345-.203 1.477-1.432 2.485-1.132 4.524-2.487 2.905-5.562 5.383-7.918 8.296-.939 1.161-1.338 2.77-2.263 3.771-.968 1.048-2.375 1.505-3.394 2.64-1.162 1.295-1.81 3.169-3.017 4.524-1.095 1.229-3.069 1.852-3.394 3.771 3.754-.093 6.178-2.596 9.05-1.508 2.181-.558 3.219-2.659 5.279-3.394 2.527-.902 6.022-.344 9.049-1.132.766-.199 1.539-.937 2.263-1.131.567-.152 1.341.211 1.885 0 3.459-1.341 6.658-4.381 9.804-6.787 1.32-1.009 2.291-2.651 4.147-3.394 3.969-1.585 7.568.119 10.559-3.394-.245-1.376.254-2.009.754-2.64 6.578.448 10.521-6.114 15.836-7.164 1.992-.393 3.624.032 4.902 1.131 3.29-.273 5.557.477 8.295.755 2.738-2.809 7.376-3.191 12.443-2.263.48.943-.192 1.181.377 1.508-1.676 1.672-5.053-.757-7.541-.377-2.232.341-2.838 1.697-4.147 3.017-4.33.061-8.634-1.602-13.197-.754-1.211.331-.782-.978-1.509-1.131-5.075 1.962-8.329 5.748-14.328 6.787-.998.51-.902 2.113-1.508 3.017-1.606.53-2.993 1.28-4.148 2.262-3.287-.271-5.662.37-7.918 1.132-2.129 2.646-5.528 4.023-7.164 7.164-2.472.161-4.43 1.122-6.41 2.639-4.14.26-6.678 2.121-11.688 1.509-2.292 1.506-4.051 3.399-6.787 4.147-1.474.403-2.932-.074-4.524 0-1.858.087-3.092.764-4.902 1.131-.597.121-1.46-.193-2.263 0-.625.151-1.417.715-1.885.755-2.919.245-5.957-1.057-9.05-1.132-2.1-.051-4.062 1.026-6.033 1.132-1.059.056-1.323-.546-2.639-.755-1.682-.266-3.684.332-4.902 0-3.007-.818-5.583-3.759-8.672-3.017-.854-.277-.825-1.437-1.886-1.508-5.452.078-8.273 2.787-13.197 3.394-2.457-1.632-8.798-1.69-12.443 0-.543.085-.132 1.125-.754 1.131-1.305.455-2.83.69-4.525.755-.034-1.029.628-.76 0-1.509-5.207.667-10.803-.254-13.951 3.017-2.049-.568-5.254-.643-5.279 1.886-2.218-.082-2.762 1.511-3.771 2.639-3.458.815-5.91 2.637-9.049 3.771-1.418.162-1.334-1.179-2.263-1.508-1.763.373-1.564 2.709-4.147 2.263-1.041 1.221-1.81 2.714-3.394 3.394 1.065-1.984 2.603-2.726 1.885-4.902 2.324.188 2.284-1.287 3.394.377.214-1.42 1.815-1.453 2.64-2.262 1.23 1.53 5.33 1.98 4.87-.37zm-10.94-26.4c-1.319-1.828-4.876-3.413-7.164-3.017 2.814.6 4.494 2.31 7.164 3.02zm-.75-1.88c-.041-1.112-2.111-2.133-3.017-1.131.69.7 1.91.86 3.02 1.13zm60.71-51.657c-3.268 2.908-8.35 2.708-12.443 4.524-1.894.841-3.252 2.257-4.902 3.017-1.783.821-3.723 1.688-5.656 2.262-2.452.729-5.13.649-7.918 1.508-.798.246-1.453.942-2.262 1.131-3.492.816-7.183.514-10.935 1.508.018-1.491 3.08.063 2.64-1.885h-4.525c-.619 1.14-1.491 2.027-1.131 4.147 3.552 2.673 10.147.095 13.574 3.017-.254 2.768 2.614 2.413 2.639 4.902 6.923-.317 7.264 8.94 4.525 13.197 3.483-.279 6.56-1.052 9.803-1.508 2.716-.382 4.925-1.912 7.542-2.64 1.686-.469 3.577-.255 5.279-.754 2.361-.693 4.188-2.593 6.787-2.64.851-1.035.856-2.914 3.017-2.64-2.704-5.306 3.228-6.691 2.262-10.558-.628-2.515-4.544-1.501-6.41-4.147-1.099-1.559-.706-2.861-1.131-5.656.806-1.206 1.925-2.097 3.393-2.64.142-2.75 2.472-3.31 3.771-4.902-2.27-.796-4.57 1.387-7.91.757zm41.85 53.537c1.717.512 1.63-1.388 2.263-2.263 1.265-1.748 2.381-3.172 3.394-4.901 3.175-5.426 6.514-10.819 9.427-16.214 2.916-2.735 4.825-6.285 6.787-9.426 4.067-6.514 8.991-13.318 10.935-21.493-1.594-.417-3.588-.435-5.656-.377-3.954 6.855-8.104 13.514-10.558 21.87-3.628 4.542-3.994 12.344-7.918 16.59a1.9 1.9 0 0 0-1.132-1.131c-.094 1.1.711 1.301 1.132 1.885-.969.472-3.168 7.281-4.525 7.164.35.03-1.333-4.339-1.508-4.524 1.041.09.86 1.402 1.508 1.886.362-1.271-1.154-2.576 0-3.394 1.278.23.605 2.411 2.263 2.262.066-1.951-.772-2.997-1.131-4.524.538.091.636.621 1.131.754-.322-1.202.328-1.431.754-1.885-.892-.543-2.556-1.55-1.508-3.771-2.304-.044-1.16-2.545-1.131-4.148-1.312-1.077-.754-4.023-2.263-4.902-.139 2.526 1.077 3.699 1.508 5.656-.837-.938-1.021-.77-1.885-1.131-.105-1.1.091-1.296.754-.754-.214-1.672-1.222-2.549-1.131-4.524-1.581-.284.512 1.44-1.132 1.508-.063-.564.135-1.392-.377-1.508-1.37 2.708 1.739 5.991 1.132 7.918-.043-.963-.691-1.32-1.132-1.885-.03.851 1.139 6.775 2.64 4.902-.033.822 1.032 2.438.377 2.64-.39-1.882-.965-.179-2.263 0 .604-.714-.337-2.171-1.131-2.64-.947 1.223-.111 3.183.377 4.147-1.247-.108-.822 3.231 0 4.147-1.378.78.019 2.33 0 3.394.006-.336-2.05 2.46 0 1.886.973-.091-.518-.648 0-1.509.992.98.297-.608 1.509-.377-.195 2.316 2.003 2.085 2.639.755-1.19 2.841-3.2 4.851-4.16 7.911zm-32.05-50.143c-2.249.014-3.549-.592-5.279.377 1.715.09 3.701 1.713 5.656 1.885 1.237.109 4.424-.246 4.902-1.131-.89-1.372-3.199-1.326-4.902-1.885.875.12 1.448-.061 1.885-.377.042-1.425-.738-2.027-1.885-2.262-.84 1.04-.72 1.914-.38 3.393zm-68.25 0c-1.938-.812-3.841 1.35-3.771 3.771 1.452-.969 3.441-3.563 5.279-1.885-.575 3.34 1.273 4.256 1.131 7.164 2.612-.907 4.084-2.954 4.524-6.033-.594-1.919-3.125-1.902-4.902-2.639 1.263-.828 2.408.571 3.017-.754-.52-2.42-4.81-.804-5.28.376zm71.65 4.901c-1.413-2.654-8.251-3.31-7.164-.377.063-.817-1.337-.171-1.886-.377v1.885c.548.206 1.949-.44 1.886.377-.677-.048-.883.375-.754 1.131.702.36 1.26-1.129 1.508 0 .112.992-1.463.297-1.131 1.508.617 1.018 1.474 1.794 2.64 2.262.322-1.202-.329-1.431-.754-1.885 1.184.178.997-1.015 1.886-1.131.446.56 1.424.587 1.885 1.131.219 1.476-.325 2.189-.754 3.017 3.568.399 3.906-3.494 6.033-3.394.083-1.662.59-2.597-.377-3.771-.537.846-.281 2.484-1.508 2.639.718-2.375 1.349-4.74 1.131-6.41-1.22.814-1.64 2.411-2.66 3.395zm-90.123 1.508c-2.046.035-2.826-1.195-4.902-1.131-.513-2.503-4.041-1.992-5.656-3.394-2.458 1.242-4.202 1.214-7.164 1.508-5.558 3.889-17.728 5.684-24.132 4.147 1.529 3.624 6.701 3.605 10.935 4.525.924.709 1.989 1.279 3.394 1.508 4.916-4.613 9.635-3.718 14.329-1.508 2.947 1.388 4.12 2.208 7.164 3.394 3.161 1.231 7.93 2.234 10.935 3.394 1.86.718 2.862 1.892 4.525 1.885 1.73-.008 3.233-1.991 5.279-1.131.448-1.186 1.273-1.995 1.508-3.394-1.057-.292-1.66-1.57-3.017-1.885-2.553-.593-6.21.396-8.295 0-1.729-.328-4.412-.507-4.902-1.885 4.303.306 8.734 2.035 13.574.754-.985-.522.184-3.2-.754-3.771-4.323-.958-10.941.382-12.823-3.016zm15.463-.754c1.098.285 1.423 1.343 1.885 2.262-.307-1.564 2.325-.189 2.64-1.131-1.055-1.082-.146-4.126-1.508-4.901-1.52.735-3 1.524-3.01 3.77zm136.87-3.393c-.099.53-.827.43-1.131.754-3.698 6.912-7.81 13.347-12.066 19.23-1.481 2.048-3.289 3.952-4.147 6.41 3.168-1.401 4.306-4.477 6.033-6.788.661-.885 1.621-1.446 2.262-2.262 4.327-5.511 7.755-11.193 11.312-16.968-.43-.433-1.32-.426-2.25-.376zm-123.68 6.032c3.169-.577 1.677-5.432-.754-5.656.33 1.668.06 3.607.75 5.656zm-12.82 6.788c1.792.345 3.397.876 3.771 2.64 2.232-.013 3.428.744 4.902-.377-.352-1.222.122-3.054-.754-4.525-3.825.291-8.229-1.138-9.426-4.902-.231-.727.841-1.965-.754-2.262-1.2 3.026.67 6.988 2.26 9.426zm95.78-2.64c-3.648-1.756-5.087-5.722-9.426-6.787-1.946 1.496-5.494.034-7.542.754-1.072 3.47-.993 5.739-.377 9.804-1.443-.065-.592-2.424-2.262-2.262-.967.961.084 1.829.754 2.262-1.118 3.511-.084 8.125 3.771 7.918 1.21-2.643 1.298-4.115 1.508-7.542.063-.853-1.813-1.658-.754-2.262 2.839.355 4.089 4.136 6.787 3.394.742-1.158-.938-1.97-1.508-3.394-.75-1.874-1.643-4.652-.754-5.656 1.279 1.737 1.32 4.712 3.394 5.656 1.054-.454.308-2.708 1.131-3.394 1.762.752 1.504 3.523 2.64 4.902 1.153.273 1.109-.65 2.262-.377-.427.956-1.818.947-1.508 2.639 1.81-.076 2.762-1.009 4.902-.754.43-3.066-2.74-2.533-3.01-4.901zm-87.48-3.77c1.388.478 1.852-1.879 1.131-2.263-.34.797-1.15 1.115-1.13 2.263zm111.61 4.147c1.159.577 1.159-2.462 0-1.885zm.38-2.262c-.042-.46-.112-.893-.754-.754-1.166-1.599-5.164-.366-7.541-.754-1.456 1.573-2.935 3.028-5.279 1.885-1.157-.565-1.179-2.114-2.262-1.885 1.115 6.616 4.266 12.175 6.032 17.722.5 1.567.039 4.353 2.263 4.901 2.61-6.938 4.15-14.95 7.54-21.115zm-23.38 2.639c2.023.428 4.789-1.432 6.033-3.017-1.59-1.381-5.12 1.261-6.03 3.017zm-87.48-1.508c.674.835 1.45 1.567 1.508 3.017-.559.949-1.896 1.121-1.508 3.017 2.367-.272 2.843-2.436 3.771-4.148-1.061-.95-.785-3.236-2.262-3.771-.38.752-1.67.595-1.51 1.885zm-40.345 9.427c.116-.12.409.424 0 .754-.798.645-1.024-.264-2.263.377-.268 1.902 1.16 2.108.754 4.147 1.186-.432.916.592 1.508.754.455-1.172-.411-3.951.754-5.279 1.262.546-.711 2.305 1.508 3.017V79.56c1.889-.123 2.365-1.657 3.394-2.64.592-.036 1.307.051 1.131-.754-.938-.57-2.09-.926-1.885-2.64-1.576-.635-2.086-.874-3.016-1.508-1.647 2.016 1.421 1.923 1.508 3.394-1.028-.274-.759.75-1.508.754v-1.131c-1.301-.025-2.273 2.226-3.017 1.508-.049-.677.375-.882 1.131-.754-1.35-1.383-1.028-1.912 0-3.394-.236-.896-.507-1.755-1.508-1.886-1.7 1.676.378 4.65-.754 7.165 2.34.58 2.145-1.375 3.771-1.508.151 1.352-.863 1.221-1.508 1.886m-3.016-5.656c-.077-1.057 1.429-3.306-.754-3.394.389 3.453-.613 7.033.754 8.672.972-1.516.129-3.486 0-5.278m-1.132 2.262c-.255-.875-1.712-.55-1.885-1.508 1.014.104 1.075-2.656.377-3.017-.87 1.299-.835 4.545-3.016 3.394.826 2.046-1.217 2.237-1.508 4.148.113-.742-.509-.748-.754-1.131 1.509-.251 1.094-2.425 1.131-4.147 1.161.281.725-1.035 1.885-.754.056-.935.07-1.83-.754-1.885.227 2.44-.817.985-1.508.377-1.116 1.948-.263 2.292 0 4.902-.338 1.061-2.562 2.193-1.885 3.017.559-.194 1.557.004 2.639.377-.001.378.305.449.377.754-.88 1.131-2.763 1.259-2.639 3.394-.231.522-1.452.057-1.508.754-.014 1.879-4.49 4.552-3.394 7.541 1.831-4.202 4.78-7.285 7.541-10.558.727.153.298 1.462 1.508 1.131q.07-1.439 1.508-1.508c.469 3.176.752 6.537 2.262 8.672.584-3.402-.531-4.607-.377-8.295-1.391-1.129-3.084-3.946-2.262-6.033 1.178.257.634 1.148 0 1.508 1.149.017 1.92-.344 2.262-1.133m4.148-4.148c1.607-.577 2.257 1.731 3.393.377-.662-.571-3.179-1.654-3.393-.377m102.94.755c-.291 2.176 1.897 1.873 1.508 4.147 1.312-.197.987-2.03 1.508-3.016-1.33-.052-1.69-1.079-3.02-1.131zm3.77-1.132a4.3 4.3 0 0 1-3.394 0c.17 1.74 3.44 1.918 3.39 0zm14.33 7.542c-1.384-.532-1.445-.927-2.262.377.017-2.53-1.674-3.354-3.771-3.771-1.277 2.256 2.355 7.332 3.771 4.524.76 1.178-.432 2.354.754 3.394 1.424.167 1.77-.744 2.64-1.131.154-.909-.689-.82-.377-1.885 2.462-1.284 1.763-7.581 0-9.05-1.14 1.842-3.09 5.532-.75 7.542zm12.44-2.64c.815.85 1.286-.312 2.64 0-.466-1.922-1.223-3.554-2.263-4.902.23 1.986-.28 3.24-.38 4.902zm-3.39-2.262c.561.319.546 1.214.754 1.885 1.182-.202 1.359-1.407 1.509-2.64-.66.345-1.88.13-2.26.755zm-26.39 7.164c.038-.967 1.405-.606 1.885-1.131-.906-2.613-2.381-4.657-4.525-6.033.01 1.81.93 5.786 2.63 7.164zm-119.15-1.508c1.261-2.207 3.972-2.627 3.771-4.902-.975 1.672-4.226 3.056-3.771 4.902m67.114-2.262c.558.196.95.558 1.508.754.196-.558.558-.95.754-1.508-.99.005-2.22-.21-2.26.754zm72.4 1.508c1.276-.106 2.165-.6 3.771-.377 1.357 1.102 3.003 2.379 2.262 4.525 2.288-.843 1.711-5.454 0-6.41-2.62.141-6.05-.517-6.03 2.262zm-25.27 3.393c1.253.201 2.46 1.789 3.771.754.403-1.409-.936-1.075-.754-2.262-.741-.113-.748.509-1.131.754-.689-.945-.785-2.483-1.885-3.017-.91 1.023.42 2.095 0 3.771zm6.04 14.328c-1.721 1.89-2.521 6.055-3.017 8.296 2.15-.517 2.279.989 4.147.754 1.106-.778 1.991-1.78 3.017-2.64.074-1.456.014-2.778-.377-3.771.548-.206 1.949.44 1.885-.377-2.188-.038-.66-1.551-1.508-2.64-1.259 1.159-.491 3.569-1.508 4.148-1.054-2.684 1.074-4.782 3.017-5.656.139 1.494-.884 2.305.377 3.017 1.96-2.062 5.689-2.354 7.542-4.524.451-2.086-.525-2.743-1.131-3.771.146-.984.193-2.068.754-2.639 1.55.083 3.573-.306 3.771 1.131-1.398.268-1.619-.645-3.017-.377.592 1.473.992 1.176 1.131 2.64 2.599-.041 3.262-2.018 4.525-3.394 2.611-.783 4.301-2.487 4.902-5.279-.91-1.353-2.138-2.386-4.525-2.262-.01 2-.813 3.209-1.508 4.525-1.465-.998-3.157.458-5.279 0-.718 2.352 2.493.775 2.64 2.262-.89-.288-2.606-.743-3.394 0-.168-.963-.529-1.733-1.131-2.262v3.394c-.671.208-1.566.193-1.885.754 2.441-.241.704 1.486 2.262 2.263-3.12 3.354-8.76 3.208-11.68 6.414zm-56.56-12.065c-.668.086-1.888-.38-1.508.754 2.391-1.075 4.021 1.036 7.164.377.026-1.535-1.394-1.623-3.017-1.508.119-.51.537-.72.377-1.508-.709-1.138-1.745 1.436-2.262.377.56-1.105-.426-1.4.754-1.885 1.421-.29 1.802.46 3.016.377-.38-2.615-4.62-1.102-6.033-1.508.45 1.564 1.1 2.918 1.51 4.524zm107.08 19.989c.476-1.159 1.37-1.898 1.886-3.017 1.229.098 1.814-.447 1.886-1.509-3.603-1.343.779-6.878-2.263-8.672.047.943.72 1.181-.377 1.508q.085-1.404-.754-1.885c-.713.987.733 2.337.377 4.147-1.476-.596-.781.979-1.509 1.131.312-1.065-.531-.977-.377-1.885h1.131c.078-1.084-.095-1.916-.754-2.263q.339 1.469-1.131 1.132c-.185 1.189.68 1.331.377 2.639-1.494 2.569.446 6.991-1.131 8.673-.896-1.115-3.918-.104-4.525-1.509.507-.551.771-2.986-.377-3.017-.586 1.212-1.539 2.638-1.508 3.394-2.995-.674-5.583 2.167-6.787 4.525 6.03-.6 11.26-2.39 15.82-3.4zm.76.37c8.75-3.252 4.794-18.867 1.508-25.263-.2 6.511 5.65 22.163-1.51 25.263zm-95.02-21.868c-1.09 2.906-.526 6.628-2.639 9.803 3.725.483 8.84 4.356 12.066.755.474.154.771.485.754 1.131 1.365-.521 3.487-.283 3.771-1.886-1.794-1.413-8.755-.575-11.312.755-.283-1.918-2.01-.181-2.263-2.263-.39 1.258-1.495 1.258-1.885 0 .806-.451.468-2.046 2.263-1.509-1.404-2.07.59-3.799 0-7.164-1.695.187-1.059-1.958-1.886-2.64-.24 1.62.33 2.431 1.13 3.018zm1.13-.754c.015-1.146.219-2.482-1.131-2.263.01 1.125-.04 2.299 1.13 2.263zm-21.49-.754c-2.676.208-2.759 1.343-4.524 1.885-.106-1.295-2.25-1.355-2.64-.377 2.854.423 4.574 3.102 7.541 2.262.322-1.202-.328-1.431-.754-1.885h1.508c-.98.992.609.297.377 1.508 1.641.258 2.087-.678 2.64-1.508-1.146-1.074-3.459-.713-1.885-2.639-1.83-.001-.903 1.32-1.508 1.885-.944-.481-1.181.192-1.508-.377.41-.08.57-.418.74-.754zm63.72-.754c-.856 2.415-4.273 4.99-2.262 7.918 2.054.043 2.702-1.32 3.771-2.262.103.888 1.67.229 1.508-.378-.229-.65-1.789.029-1.885-.754-.12-1 2.112.353 1.508-1.131-1.105-.56-1.4.426-1.885-.754.928-.446-.772-1.424.377-1.885.909-.154.819.689 1.885.377-.08-1.306-2.08-.687-3.02-1.131zm-125.18 8.672c-.353-1.735 1.207-1.558 1.886-2.262-2.115-1.287 2.274-3.789 1.131-5.279-.898 2.374-3.621 4.921-3.017 7.541m5.657-7.164c-1.575-.358-2.281 2.506-3.394 3.77 1.351-.054-.039.968.754 1.886 1.324.221 1.24-1.782 2.263-.754.312-1.066-.532-.977-.377-1.886.482-.021.522-.483 1.131-.377-.001.209.305.428.377 0-1.758-.48-.301-2.159-.754-2.639m-.755 24.892c1.981-2.454 3.513-6.588 5.656-10.559 1.174-2.175 3.459-3.913 3.771-6.032.393-2.681-.781-6.091-3.017-7.918-3.408 6.344-10.914 15.082-6.41 24.509m111.61-21.876c2.007-.411 3.649-.411 5.656 0 .124-2.261-2.317-1.957-4.148-2.262.36 1.626-1.42 1.097-1.51 2.262zm-59.95-.376c-1.147.116-2.572-1.416-3.016-.754.41.62 2.24 1.744 3.02.754zm115.75 8.295c3.195-.701 2.706-5.088 6.41-5.279-.007-1.502-.36-2.656-1.131-3.394.074 1.08.047 2.058-1.131 1.886.308-1.439-.803-1.46-1.509-1.886-2.923 2.356-4.818 5.739-6.41 9.427.979 2.541 1.345 5.693 1.132 9.426h1.885c.137-4.554.355-7.87-.754-12.442 2.866 1.624 3.25-3.192 4.901-2.64-.89 1.879-2.97 2.567-3.4 4.905zm-107.84-5.656c1.284.476 2.865.654 4.147 1.131-.551-1.711-2.4-2.125-3.771-3.017.15.91-.69.821-.38 1.886zm86.73-.377c.71.665 1.746-.471 2.263-1.132-.97-.926-1.81.405-2.26 1.132zm-101.81 0c.258-1.167-2.16-1.57-2.639-.754.71.418 1.78.481 2.64.754zm66.74 7.541c-.673-.002-2.193 1.016-2.639 0 1.211.332.517-1.243 1.508-1.131.475.735 2.339.955 2.64-.377-.186-1.029-1.971 1.602-1.508-.755-.671-.226-1.566 1.105-1.885 0 .649.021.966-.29 1.131-.754-1.34-.488-1.371-.853-3.017-.377-.149.648.56.967 0 1.131-.594-.034-.295-.962-1.131-.754-.745.261-1.005 1.006-1.131 1.886 1.159.586 1.332 1.854.754 2.639-1.448-1.443-2.142-3.64-3.394-5.278 2.235-1.913 7.015-1.281 7.541-4.902-7.164 1.621-12.246 4.221-19.23 5.279 1.877 4.248 7.758-.066 10.935-.377 1.361 3.666 3.794 6.26 4.902 10.181.443.059 1.07-.065 1.131.377-.668.086-1.888-.38-1.508.754 1.066.316 2.328.438 3.394.754.128-1.795 1.874-3.928 0-4.524.805-.452 2.054-.46 2.262-1.508-.671-.226-1.565 1.104-1.885 0 .5-.883 2.593-.173 2.64-1.509-.684-.976-2.477 1.292-3.017.377.52-.373 1.43-.35 1.53-1.125zm.75-2.262c3.358.216 5.693-.591 6.41-3.017-1.841-.043-1.623-2.147-2.262-3.394-5.98-1.416-5.59 2.938-4.15 6.411zm-99.538-3.771c1.324.415 1.484-2.246 1.131-2.262-.026 1.105-1.437.826-1.131 2.262m107.46 2.263c.022-.217 3.223-.864 2.262-1.886-.19.959-3.52.722-2.26 1.886zm3.77-2.64c-.53-.099-.43-.827-.754-1.131-1.363.396-2.088 1.431-3.017 2.262 1.44-.2 2.7-.566 3.77-1.131zm37.71 5.279c-1.388 2.136-3.203 3.758-4.525 6.032-1.298 2.232-2.286 4.62-4.147 6.41-.468 1.411-.491 2.143-.754 3.017-11.838 1.655-21.942-1.615-33.936-2.64.125.685 1.047 1.33 1.508 1.509 3.47 1.342 7.578 1.184 10.935 1.508 1.776 1.188 6.728 1.68 8.672.377 1.762 1.893 6.07-.612 7.541 1.132 2.48-.914 6.85.062 8.296-1.886-.112-2.111-1.672 1.255-1.886-.754 4.372-6.94 8.204-14.42 12.82-21.115-2.85.902-3.16 4.304-4.52 6.405zm-87.48-3.771c1.473.415 1.511-2.246.377-2.262.27 1.153-.39 1.374-.38 2.262zm67.5.755c1.72-.857 3.639.042 4.901.754.023-1.405-.38-2.385-.754-3.394-1.125-.54-1.282.308-2.262-.377 1.26 1.99-2.53.588-1.89 3.017zm-63.35 0c1.173.388 2.431-2.201.754-2.263.19 1.188-1.15.854-.75 2.263zm-80.314 5.278c-.604-1.388-1.136-2.025.754-2.262-.793-1.263-1.644-3.229-.377-4.525-1.1.335-1.301.481-1.885-.377-.083.294-.316.438-.754.377 1.381 2.13-.589 3.471 0 5.279.118-.336 1.376 1.364 2.262 1.508m75.034-3.77c.963-.042.748-1.263.754-2.263h-1.508c-.57.575-.67 2.586.76 2.263zm49.02-.377c.807.216 1.802 1.549 2.263 0-1.784-.048.832-.472 0-1.886-1.16-.086-2.79 2.724-2.26 1.886zm13.57 1.508c1.386.779 2.086-.102 3.394-.378 2.713.933 5.7 1.591 7.541 3.394.129 1.49 1.002 4.14 0 5.279.938-.041 1.168-.707 1.886 0 .772-2.178-.843-2.531.377-3.771-2.558-.367-.012-4.811-.754-6.41-1.211-.331-.782.978-1.509 1.131-1.956-2.065-7.573-.471-10.558-1.508.01.886-.65 1.109-.38 2.261zm-16.96 1.131c1.563.432 1.469-.793 2.64-.754.064-1.07-1.275-.736-.754-2.263-1.15 1.088-1.323 1.136-3.016.377.25 1.008 2.62 1.039 1.13 2.64m-14.71 6.787c-1.884-1.212.538-.501.377-1.509.27-1.023-1.778.271-1.508-.754.526-1.541-1.28-3.99-2.262-5.278-.078 1.615-3.721 2.2-4.148 1.131v1.508c.548.207 1.949-.44 1.885.377-2.073.338 1.292.013.377 1.509-1.024-.402-1.766-.239-2.263.754 1.595-.564 2.423 1.565 3.394.377-1.142-.549-.842-2.372 0-2.64.944-.063 1.181.58 1.508 1.132-.445.183-.855.401-1.131.754 2.329-.531 2.807 1.369 2.262 2.64.85-.518 1.41.968 1.5-.001zm9.8-6.41c-.084-.293-.01-.744-.377-.754v1.508c.907-.246 3.943-.301 3.017-1.131-.38.242-1.29.229-2.64.377m49.02 3.394c1.177-.847 1.388-2.938.377-4.147-.95.471-2.74 3.842-.38 4.147zm-88.99 0c-.333.216-1.673 1.555-.754.754 1.152-.272 1.374.386 2.262.377.305-1.813-1.654-1.361-1.131-3.394-1.93.045-.76 1.492-.38 2.263zm44.12-.754c.24-1.372-.781-1.481-1.885-1.509-.08 1.212 1.34.918 1.88 1.509zm3.02-1.509h-1.886c-.12 1.768 1.75 1.01 1.89 0zm16.21 8.298c.439.063.41.596.377 1.131h1.885c.855-4.224-.98-6.902-3.394-9.427-3.564-.045-6.301.737-8.672 1.886-1.315 2.455-.608 6.933-2.639 8.672.392.398 2.692.779 3.017 0-.994.114-1.238-.521-1.131-1.508.538.09.636.621 1.131.754-.725-1.535 2.454-2.392 1.885-3.771 1.531 2.113 3.84 3.449 5.656 5.279-1.836.453-1.022-1.744-3.017-1.132-.154.909.689.819.377 1.886 2.141.188 3.876.812 4.525-1.132-.506-.248-.702-.806-.754-1.508-2.661-.104-4.446-1.084-4.902-3.394 1.819 1.156 2.159-1.703 4.147-.377-.35-1.858 1.354-1.663 1.885-2.64.79 1.713 2.79 4.72-.39 5.28zm-26.39-.76c.292.085.744.011.754.378 1.388-.816 1.5-1.744 4.147-1.132-.186-2.197 1.932-2.091 2.263-3.771-2.83-4.061-7.76-.305-7.16 4.521zm48.26-3.013c.104-.165-.101 1.003-.377 1.885 1.189-.185 1.331.68 2.64.377-1.285-1.565.905-2.742-1.132-3.771.62 1.882-.73.883-1.13 1.508zm-60.71 1.133c.789.217 1.076.935 2.263.754.093-.786.996-2.324-.377-2.64.81 2.06-1.41 1.098-1.88 1.89zm-16.21.75c.564-.064 1.392.135 1.508-.377-.542-.589-.95-1.312-1.885-1.508-.12.878.06 1.458.38 1.888zm64.86 1.51c-2.835.164-7.213 1.415-8.672 4.147 3.101 1.062 6.091.114 10.181.377 1.089-2.054 3.016-3.269 3.394-6.033-1.646.471-3.152-.001-4.902-.377v1.88zm-38.09.38c-1.587-1.278-2.942-1.003-5.279-1.886.33 1.65 4.14 3.54 5.28 1.89zm8.3 1.88c-1.524-1.492-4.877-1.155-7.541-1.508.8 1.34 6.35 3.1 7.54 1.51zm-13.58 2.26c-.799-.41 1.29-.495 1.508.377 1.142-.94 2.553-.633 3.394.377.001.378-.305.449-.377.754 2.13-1.251 4.53.624 6.033 0-1.206-1.53-4.382-1.895-5.656-2.262-.485-.141-1.184.118-1.508 0-.771-.281-1.125-.965-1.886-1.132-1.877-.411-4.357-.62-6.41-.377 2.94-.11 3.39 1.48 4.92 2.26zm-12.06-.75c-.92-.84-2.138-1.382-4.147-1.132.38 1.14 3.06 1.95 4.15 1.13zm73.15.38c1.267.991 2.464-.607 3.395-1.132-.67-.38-2.8.27-3.4 1.13zm-7.54 1.13c2.326.967 5.408-.3 7.164-1.131-1.94-.59-5.14.57-7.16 1.13zm-59.2 1.13c-.113-.741.509-.747.754-1.131-.909.154-.82-.688-1.885-.377-.06.95.58 1.18 1.14 1.51zm22.24.38c1.086.897 2.721-.072 2.64-1.509-1.79-.41-1.8.96-2.64 1.51zm33.18 6.78c-.663-.09-.859-.648-.754-1.508 2.36.425 1.978-.212 4.147-.377-.027 1.284 1.109 1.404 1.886 1.885-.028-.656.084-1.172.377-1.508-.88-.563-1.625.127-1.886-.377.097-.783 1.657-.104 1.886-.754-.833-3.724 3.229-2.554 3.771-4.902-3.667-.272-4.099 2.688-6.41 3.771.293.085.744.011.754.378-2.597-.458-1.475-.092-3.017.754v-1.132c-2.479.14-2.065-.071-3.016 1.132h-2.263q.339-1.47-1.131-1.132c-.358 2.25-4.713.122-7.165 0-.727.153-.298 1.462-1.508 1.132-.084-.713.425-.832.377-1.509-.996-.009-2.362.352-1.885-1.131-1.293-.167-2.731.348-4.147.377-.483 1.488 1.099.912 1.131 1.886-1.155 1.574-5.824 2.171-3.017 4.901.961-2.684 3.201-4.088 5.656-5.278-.59 3.144 4.104.156 4.902 2.262 1.272-1.374 4.882-1.426 6.033 0-.756.501-.877 1.638-1.886 1.886.048 1.083.472 1.79 1.886 1.508.288-2.307.261-2.772 1.131-4.147.935.535 4.527.411 2.263 1.885.95-.48 1.85.86 1.9.01zm-154.59-3.77c.503.538 2.137.538 2.64 0-.133-1.124-.218-2.296-1.131-2.639-.406.98-1.364 1.41-1.509 2.64zm126.31-2.26c.697.057.231 1.276.754 1.508 1.627.259 3.127.644 3.771 1.886-.159-.856 3.282.751 2.262-.377-.444-.06-1.07.064-1.131-.377.123-.884 1.645-.366 1.885-1.132-1.445.068-.137-.309-.377-1.131-.292-.085-.744-.011-.754-.377-1.75 1.81-4.61-.92-6.41 0m18.48 1.51c.392.398 2.692.779 3.016 0-.292-.084-.744-.01-.754-.377.437-.146.437-1.831 0-.754-.35.79-2.13.13-2.27 1.13zm16.97 2.64c.672-.226 1.566 1.105 1.886 0-.835-.296.071-2.334-1.509-1.886.12.88-.07 1.45-.38 1.89zm-176.84.75c-.196.954 1.381.945 1.885 1.131 2.184.807 4.2.892 7.164.755.963-1.3 2.443-2.082 2.639-4.147-4.162 1.31-7.111 1.49-11.688 2.27zm56.559-1.13c-.944-.313-1.481-1.033-2.64-1.131-.207 1.24 2.529 1.46 2.64 1.13zm83.333 3.4c1.183.152 2.52-1.468 1.508-2.263-.19 1.07-1.97.54-1.51 2.26zm14.33 0c1.16.264.725.264 1.885 0-.159-.722-.137-1.623-1.131-1.509.26 1.03-.76.76-.76 1.51zm4.14 0c.903-.605 2.506-.511 3.017-1.509h-2.64c.09.71-.43.83-.38 1.51zm-50.52 6.41c.598.553 2.994.778 2.64-.755-1.53-.35-1.74-.17-2.64.76z" style="clip-rule:evenodd;fill-rule:evenodd"/><path d="M186.64 66.363c3.321.072 2.438 4.35 5.279 4.902-1.78-.104-4.58-2.447-5.28-4.902zM92.002 90.872c.592-.81 1.604 1.136 3.017.754.585-1.591-2.093.083-1.508-1.508 3.684.213 4.834 2.958 7.165 4.524-.529.769-1.299-.37-2.263.377-1.13-2.393-4.677-2.365-6.415-4.147zM79.937 92.003c1.998-.733 3.92 1.854 6.033 2.262-1.686.42-3.909-1.866-6.033-2.262M100.3 93.511c2.451.438 8.791 3.884 12.82 5.656.591 1.023-1.406-.825-2.64-.378 1.919 1.601 4.223 2.816 7.164 3.394-.37-.509-1.006-.753-1.508-1.131.645-1.1 1.373.854 2.64.377.108.657-1.204 2.024.377 1.886-5.644-1.271-11.608-5.484-17.722-7.541.85-1.456-.16-1.712-1.13-2.268zm4.15 2.263c.717 1.178 3.081 2.686 4.524 1.885-2.08-.053-2.48-1.796-4.52-1.885zM83.33 102.18c2.069.696 3.896 1.635 6.033 2.263-1.447.19-5.125-.64-6.033-2.26zM121.41 104.82c.045-.63 1.608.43 1.508-1.131 1.327.32 3.131 2.131 4.525 1.131 1.831 1.814 4.87 2.42 7.164 3.771-1.633.492-4.501-1.021-6.033-1.885.948 2.068 3.563 2.47 5.656 3.394-4.74-.35-7.85-3.61-12.82-5.27zM82.576 104.45c2.019-1.097 3.926 1.077 6.033 1.886 1.229.472 2.844.332 4.148.754 1.258.406 2.563 1.475 3.771 1.885 2.332.794 4.506 1.459 6.41 1.509-3.095-1.72-8.044-3.395-12.443-4.902 6.557.734 12.763 5.084 19.984 6.41.139.642-.294.712-.754.755 2.304 1.843 5.852 2.443 8.672 3.771-2.13 1.363-3.232-1.534-5.656-1.132-.225 1.984 1.903 1.617 3.017 2.263-2.285 1.145-3.63-1.894-6.033-1.886-.653.342-1.042 1.389 0 1.509-.344.798-1.516-.712-2.64-.377-.354-1.765 3.355-.546 1.131-1.886 1.037-1.133 1.972 1.023 3.771.377-1.533-1.896-4.845-2.86-7.541-3.771-2.029-.685-4.226-1.239-7.164-1.508-1.691-1.325-3.897-2.137-6.787-2.263-1.859-1.93-5.425-2.13-7.923-3.4zM148.94 117.27c-4.417.141-8.771-3.042-13.574-3.771 1.117 1.899 4.03 2.003 6.033 3.017-3.574.051-7.42-2.884-11.312-3.771 1.334-.94 3.184.824 4.524 1.131-.446-1.69-2.344-1.929-4.147-2.263-3.927-2.985-9.453-4.373-13.951-6.787-.551-.722 2.84.509 3.394 1.132h2.262c7.49 5.2 17.22 8.16 26.78 11.31zM107.08 108.97c-3.456.06-7.608-2.444-10.935-3.771 2.322-.34 7.445 3.06 10.935 3.77zM82.576 106.33c.669-.767 2.422.572 3.394.754-.569.67-2.344-.65-3.394-.75z" style="clip-rule:evenodd;fill-rule:evenodd"/><path d="M92.002 109.72c1.448.067 5.965.313 6.787 2.262-1.428-.456-3.041-.729-4.147-1.508-.094 2.855-7.942-1.376-1.508 0-.277-.34-.686-.56-1.132-.75zM108.22 109.72c4.513 1.833 7.688 3.037 12.443 4.901-2.688-.067-7.379-2.021-10.181-3.394-.75-.36-2.15-.53-2.26-1.51zM134.61 110.86c3.442-.045 7.568 2.485 11.312 3.394-.94-1.951-4.21-1.571-5.656-3.017 2.891.129 6.812 2.487 10.181 3.394-.061.442-.687.318-1.131.377.275.856 1.134 1.128 1.885 1.509-5.06-.85-10.99-4.09-16.59-5.65zM121.04 115.38c3.533.358 7.654 2.454 11.689 3.771 2.592.846 5.39 1.055 7.164 3.017-6.51-2.04-12.85-4.25-18.85-6.79zM155.73 116.89c.425-.521 2.2.795 3.394.754-.093.409-.75.256-.754.754.545 1.115.842.325 2.262.754-.165-.464-.482-.774-1.131-.754 2.017-.376 6.232.299 7.541 1.886-1.088-.576-3.626-1.186-4.524-.754.105.774 1.007.752 1.508 1.131-1.136.429-2.442-.128-3.771.754 1.066-1.945-2.479-2.675-3.771-2.263.165.464.482.774 1.131.755-1.81 1.713-4.47-1.655-7.165-1.509 1.578-1.094 4.206 1.688 5.656.754-.37-.509-1.006-.753-1.508-1.131.896-1.113 2.284.456 3.394.377-.28-.98-1.78-.74-2.27-1.5zM118.77 117.27c1.58-1.12 6.095 1.841 5.656 1.508-2.13-.27-3.86-.92-5.66-1.51zM84.084 118.02c1.408-.642 4.582.185 5.279 1.509-1.51-.75-3.43-1.1-5.279-1.51zM125.94 119.53c2.168-.778 4.523 1.504 7.164 1.508-2.23.84-4.7-1.32-7.16-1.51zM82.953 119.91c3.981-.365 10.516 2.574 16.591 3.394.748.342.748 1.266 0 .377-6.022-.77-11.069-2.51-16.591-3.77z" style="clip-rule:evenodd;fill-rule:evenodd"/><path d="M92.38 120.28c9.221.582 19.213 3.661 28.279 5.655-.818 1.155-2.123-.361-3.394 0 .396.986 1.532 1.233 3.017 1.132-1.065.826-.208 1.634 0 3.017-.344.798-1.515-.712-2.64-.378.483-1.182 1.795.821 1.885-.754-1.587-1.429-4.729-1.303-7.164-1.885-.054 2.254 2.393-.203 2.64 1.885-3.706-.567-6.715-1.832-10.935-1.885.15-.904-1.717.209-1.131-1.132 1.662-.027 2.596.672 3.771 1.132 2.491-2.384 5.759-.433 9.426 0 .672-1.014-1.661-.729-.377-1.132-6.61-3.09-15.52-3.86-23.39-5.67zm16.21 6.41c.903.262 2.663 1.83 3.017.377-.6-.31-2.3-1.43-3.02-.38zM156.48 134.61c.987 1.526 3.943 1.084 4.525 3.017-2.835-.321-3.953 1.075-6.787.754-.56.165.148.482 0 1.131-.335-.293-.852-.405-1.508-.377.455-1.586-.609-1.653-.754-2.64 1.668.534 3.169 1.268 4.902.755-.929-1.082-3.262-.761-3.394-2.64 1.8.292 1.476-1.541 1.508-3.017 1.983.404 2.106 2.67 4.525 2.64-.36.8-2.12-.3-3.02.39zM137.63 150.82c.091-.973.649.518 1.508 0-.263-1.321-2.274-.892-3.017-.755.132-1.25 2.173-.592 3.394-.754-1.615-1.512-.913-3.169.377-4.524-2.306-1.308-7.087-3.843-9.803-2.263.204 1.43 2.345.923 3.394 1.509-.697 1.151-1.792-.436-3.017 0-.765.875.914 1.593 1.131 2.639-2.103-.052-4.024-1.147-7.165-.377.862-.395 1.336-1.178 2.64-1.131.139-.642-.294-.712-.754-.754.315-1.068 2.317-.449 3.017-1.132 1.001-.876-1.001-1.009 0-1.885 5.648-.911 8.415 1.631 12.82 2.263-.931 1.068-3.095 2.528-2.263 4.147.093.409.75.256.754.754 9.34-.299 16.229-2.965 24.132-.377-2.855 1.862-7.491-.43-11.312-.377-4.583.063-8.647 2.723-12.443 1.131-.189 1.823 1.833 1.435 2.639 2.263-1 1.097-2.276-.719-3.394-.755.204 2.059 3.391 1.135 3.771 3.017-2.56-.46-4.22-1.81-6.41-2.64zM72.019 145.54c-.521.861-.769 1.997-1.131 3.017-.873.862.128-1.176 0-1.886-.689-1.65-2.456-.915-3.771-.377.795-2.552 4.325-2.016 6.033-.754.569 2.831-1.52 3.005-1.508 5.279 2.064 1.837 6.813-2.948 8.295 1.131-1.748.323-.395-.594-1.131-.754-1.47 1.015 1.168 1.059.754 2.262-2.266-1.573-6.45-2.027-9.049-.377-.893-.364-1.853-.661-1.508-2.262.992-.112.297 1.463 1.508 1.131-.544-1.98 3.63-4.2 1.508-6.41M181.74 145.17c-1.719 3.302-11.168 3.751-16.591 3.394 3.45-1.43 6.909-.393 11.312-1.508 1.69-1.47 3.56-.96 5.28-1.88zM93.888 147.05c1.597.035 1.753 1.523.754 2.262 2.238 1.364 3.758.699 6.787.377-1.719 2.178-6.479 1.313-9.049 2.64.292.965 2.43.084 2.262 1.509-2.713-.737-5.602-1.362-8.672-.755q.44-1.947-1.508-1.508c3.188-1.672 7.446-.036 10.181-1.886-.41-.76-1.81-1.53-.756-2.63z" style="clip-rule:evenodd;fill-rule:evenodd"/><path d="M130.46 148.94c-1.999-.336-3.516-2.228-5.279-.754-.41-1.77 5.08-1.27 5.28.75zM137.63 154.22c1.558-.721 4.216 2.463 6.033 1.508-2.121-1.524-4.757-2.532-7.164-3.771 2.979-.586 5.813 2.228 8.295 3.394 2.838-.298 7.942-2.271 8.295 1.131-1.314-.571-2.191-1.579-4.525-1.131-2.238 2.789-5.95 1.145-9.803 1.131.085-.543 1.125-.131 1.131-.754-.84-.44-1.39-1.15-2.28-1.51zM66.74 155.35c3.294 1.478 8.457-2.714 10.558 1.885-1.295 1.148-1.763-1.739-3.394-1.508.021 1.232.731 4.492-1.131 5.656.043-1.35 2.71-5.291-1.885-4.902-1.184-.178-.996 1.015-1.885 1.132-1.272-.19-3.362-.9-2.263-2.27z" style="clip-rule:evenodd;fill-rule:evenodd"/><path d="M77.297 161.38c-1.54-.689-2.858-1.657-1.508-3.394.783.097.103 1.656.754 1.885 1.538.091 3.5.041 4.902 1.132 4.911-1.523 12.616-1.768 18.099-3.771-1.73 1.664-5.309 1.479-6.787 3.394 3.863.593 8.168-1.632 11.312-3.016 2.021 1.693 4.602-.357 7.165-.378-2.214-1.894-6.672-.025-9.804-.377 6.26-2.379 14.812-1.296 21.492.377.117.882.738 1.559 0 2.263-.572-.685-.947-1.566-1.885-1.885-1.027.347.527 1.179 0 2.262-.914-3.188-4.94-1.094-7.164-2.64-2.762.373-6.332 2.213-9.426 2.263-1.571.025-2.333-.335-4.148.377-2.379.935-6.274 1.887-10.181 2.263-.208-.836.72-.537.754-1.131-2.021-1.041-4.953-.103-7.542 0 .309 1.576 1.758 2.013 3.394 2.262-1.697 1.056-3.808-.706-4.524-1.885-2.773-.385-4.162.614-6.033 1.131-.903-.2.911-.77 1.129-1.11zM151.96 157.61c-1.897 2.907-5.383-.12-7.918 1.508-1.264-1.658 3.081-.928 4.147-1.508-.95 2.43 2.03-.51 3.77 0zM148.18 128.58c-.852 1.181-1.577 1.329.377 1.886-1.128 1.511-2.656 2.623-3.394 4.524-2.469.472-6.679 1.688-7.918-.754 1.833.517 5.736.679 7.541 0-1.126-.521-5.2.03-6.41-1.509.787-1.124 1.983.501 3.394 0 .494-1.625-1.795-.467-1.508-1.885.714.669 2.491.274 3.771.377-.464-.793-2.27-.244-2.64-1.131.235-1.991 1.718-.493 3.017-1.132.93-.44 2.71-1.26 3.77-.38z" style="clip-rule:evenodd;fill-rule:evenodd"/></svg>