<svg xmlns="http://www.w3.org/2000/svg" version="1.0" viewBox="0 0 350 405.44"><defs><linearGradient id="a" x1="537.42" x2="537.42" y1="580.17" y2="508.72" gradientTransform="translate(-91.905 -27.434)" gradientUnits="userSpaceOnUse"><stop offset="0" style="stop-color:#000;stop-opacity:.67843"/><stop offset=".57" style="stop-color:#000;stop-opacity:.32941"/><stop offset="1" style="stop-color:#000;stop-opacity:0"/></linearGradient><linearGradient id="b" x1="274.7" x2="508.42" y1="620.6" y2="571.56" gradientTransform="matrix(.93592 .03593 0 .93592 -59.411 -9.066)" gradientUnits="userSpaceOnUse"><stop offset="0" style="stop-color:white"/><stop offset="1" style="stop-color:white;stop-opacity:0"/></linearGradient><linearGradient id="c" x1="661.36" x2="566.57" y1="663.62" y2="568.83" gradientTransform="matrix(.95436 -.0076 0 .95436 -65.819 2.656)" gradientUnits="userSpaceOnUse"><stop offset="0" style="stop-color:white"/><stop offset="1" style="stop-color:white;stop-opacity:0"/></linearGradient><linearGradient id="e" x1="157.41" x2="477.9" y1="850.19" y2="788.82" gradientUnits="userSpaceOnUse"><stop offset="0" style="stop-color:#cdd6e5"/><stop offset="1" style="stop-color:#4f6983"/></linearGradient><linearGradient id="j" x1="230.26" x2="271.06" y1="342.92" y2="235.18" gradientTransform="matrix(.06879 0 0 .06879 1105 287.55)" gradientUnits="userSpaceOnUse"><stop offset="0" style="stop-color:#59749b"/><stop offset="1" style="stop-color:#bed0e0;stop-opacity:.55686"/></linearGradient><linearGradient id="k" x1="230.26" x2="271.06" y1="342.92" y2="235.18" gradientTransform="matrix(.05768 0 0 .04284 1108.1 296.33)" gradientUnits="userSpaceOnUse"><stop offset="0" style="stop-color:#4a2600"/><stop offset="1" style="stop-color:#673100"/></linearGradient><linearGradient id="l" x1="266.85" x2="189.25" y1="330.36" y2="237.22" gradientTransform="matrix(-.05768 0 .02897 .0474 1135.8 294.75)" gradientUnits="userSpaceOnUse"><stop offset="0" style="stop-color:#985f36"/><stop offset="1" style="stop-color:#673100"/></linearGradient><filter id="d" width="1.351" height="2.495" x="-.175" y="-.747"><feGaussianBlur stdDeviation="45.867"/></filter><filter id="g"><feGaussianBlur stdDeviation="2.88"/></filter><filter id="i"><feGaussianBlur stdDeviation="6.667"/></filter><radialGradient id="f" cx="106.71" cy="309.01" r="71.787" gradientTransform="matrix(.06672 .01918 -.03272 .12005 1114.9 269.7)" gradientUnits="userSpaceOnUse"><stop offset="0" style="stop-color:#4474a2"/><stop offset=".5" style="stop-color:#869bbe"/><stop offset="1" style="stop-color:#44768b"/></radialGradient><radialGradient id="h" cx="245.71" cy="400.65" r="240" fx="291.43" fy="224.85" gradientTransform="matrix(.06879 0 0 .05143 1105 294.92)" gradientUnits="userSpaceOnUse" spreadMethod="reflect"><stop offset="0" style="stop-color:#4474a2"/><stop offset=".5" style="stop-color:#8baebe"/><stop offset="1" style="stop-color:#4c698b"/></radialGradient></defs><path d="M546.97 490.34c-.24.02-.48.03-.72.07h-.03c-.03 0-.11.03-.13.03-.01 0-.08.03-.09.03-21.96 3.69-60.08 9.62-83.44 18a7.61 7.61 0 0 0-4.81 5.53c-.11.5-.06.75-.06 1.12h-.03c-.01.08 0 .15 0 .22 0 .25-.05.66-.04.82h.1c-.02 1.83.49 3.71 1.78 5.15 6.82 7.64 11.26 17.38 13.72 26.44 2.45 9.03 2.8 17.72 2.25 21.37-.51 3.36-3.59 11.35-5.35 18.76-.86 3.65-1.59 7.65-.71 11.9a13.58 13.58 0 0 0 10.31 10.47l.09.03c.16.03.31.04.47.06 21.83 3.67 26.5 5.14 48.44 13h.03c1.66.59 3.43.46 5-.09l.03.06c.25-.07.35-.12.53-.19.26-.08.58-.16.75-.21.07-.02.13-.04.19-.07 21.16-7.5 42.4-13.32 63.37-16.84.06-.01.11-.02.16-.03.21-.04.45-.1.66-.16 5.41-1.43 8.47-6.01 9.28-10.62.7-4.03.12-7.83-.63-11.44-1.51-7.32-4.24-15.2-4.81-18.97-.55-3.63-.18-12.33 2.28-21.37 2.46-9.06 6.9-18.8 13.72-26.44 1.23-1.38 1.78-3.2 1.78-5.06h.13c.02-.22-.07-.44-.07-.66 0-.11.05-.21.04-.31.17 1.3.19 1.25 0-.1h-.07c-.02-.53 0-1.07-.15-1.62a7.6 7.6 0 0 0-5.06-5.22c-22.24-6.84-44.77-10.68-67.41-13.59-.52-.09-.94-.1-1.47-.07z" style="fill:#000" transform="matrix(1.37206 0 0 2.83408 -502.225 -1389.601)"/><path d="m455.35 467.47-.29.03c-.23.04-.28.06-.12.03-.8.14-1.5.59-1.96 1.26a3 3 0 0 0-.48 2.28c4.06 20.72-.42 40.86-1.62 52.25-.37 3.48-1.5 8.08-2.47 12.78-.98 4.7-1.82 9.49-1.35 13.84a3.02 3.02 0 0 0 1.72 2.38v.37c.33-.01.75-.02 1.25-.06v-.03h.32c9.21-.95 17.96-7.18 29.21-18.19 11.26-11.01 25.16-27.04 44.41-48.59.69-.76.94-1.82.66-2.81a3 3 0 0 0-2-2.07c-21.86-6.72-44.15-10.54-66.66-13.44-.21-.03-.42-.04-.62-.03" style="fill:#bb7637" transform="matrix(1.3881 0 0 2.83408 -382.003 -1314.767)"/><path d="M455.1 467.5c-.06.01-.11.02-.16.03-22 3.7-60.2 9.74-82.72 17.82-.97.35-1.69 1.18-1.9 2.19-.22 1.01.1 2.06.84 2.78 21.26 20.71 35.96 36.49 47.81 47.06 11.85 10.56 21.22 16.26 31.38 15.22a3.007 3.007 0 0 0 2.68-3.32c-.32-3.01.31-7.42 1.25-11.96s2.12-9.21 2.57-13.38c1.11-10.5 5.91-31.78 1.56-54.03-.3-1.55-1.75-2.6-3.31-2.41" style="fill:peru" transform="matrix(1.3881 0 0 2.83408 -382.003 -1314.767)"/><path d="m455.35 467.47-.25.03h-.04c-.23.04-.28.06-.12.03-22 3.7-60.2 9.74-82.72 17.82-.97.35-1.69 1.18-1.91 2.18-.21 1.01.11 2.07.85 2.79 21.26 20.71 35.96 36.49 47.81 47.06 11.24 10.02 20.24 15.65 29.81 15.31.15 0 .38-.02.57-.03.22-.01.45-.01.68-.03l.32-.03c9.21-.95 17.96-7.18 29.21-18.19 11.26-11.01 25.16-27.04 44.41-48.59.69-.76.93-1.83.66-2.82a3.02 3.02 0 0 0-2-2.06c-21.86-6.72-44.15-10.54-66.66-13.44-.09-.01-.19.01-.28 0-.12 0-.23-.03-.34-.03" style="fill:url(#a)" transform="matrix(1.3881 0 0 2.83408 -382.003 -1314.767)"/><path d="M373.06 485.82a2.98 2.98 0 0 0-2.6 1.85c-.44 1.06-.23 2.29.54 3.15 7.44 8.33 12.14 18.71 14.75 28.31 2.61 9.59 3.06 18.48 2.35 23.25-.7 4.59-3.78 12.24-5.41 19.12-.82 3.45-1.34 6.76-.69 9.91s3.17 6.11 6.81 6.94c.07.01.13.02.19.03 21.93 3.68 27.4 5.34 49.38 13.22.87.3 1.84.19 2.62-.32 14.17-9.16 23.59-14.61 29.94-19.46 6.35-4.86 9.81-9.68 10.5-16.16.43-4.04-1.41-8.04-4.06-12.5-2.66-4.46-6.34-9.33-10.47-14.34-8.27-10.03-18.35-20.59-25.25-28.6-.5-.58-1.21-.95-1.97-1.03-23.58-2.29-43.76-5.41-65.44-13.19-.38-.14-.78-.2-1.19-.18" style="fill:#b16c31" transform="matrix(1.3881 0 0 2.83408 -382.003 -1314.767)"/><path d="M375.76 488c-1.08.02-2.02.66-2.44 1.64-.41.98-.21 2.13.51 2.96 6.97 8.07 11.37 17.96 13.81 27.03 2.44 9.08 2.86 17.41 2.19 21.85-.65 4.27-3.53 11.32-5.06 17.7-.76 3.2-1.25 6.28-.64 9.25s2.96 5.83 6.37 6.74l.18.03c20.52 4.24 25.64 5.98 46.21 14.15.82.32 1.73.24 2.46-.2 13.25-8.07 22.07-12.83 28.01-17.15 5.95-4.31 9.19-8.7 9.83-14.74.4-3.76-1.32-7.57-3.8-11.84s-5.93-8.97-9.8-13.8c-7.74-9.68-17.17-19.93-23.63-27.67-.47-.57-1.13-.94-1.84-1.04-22.07-2.99-40.95-6.64-61.25-14.69-.35-.15-.73-.22-1.11-.22" style="fill:url(#b)" transform="matrix(1.3881 0 0 2.83408 -382.003 -1314.767)"/><path d="M521.72 481.47c-.41 0-.81.09-1.19.25-20.49 8.95-58.43 16.06-81.4 17.44-1.37.09-2.5 1.09-2.75 2.44-4.37 22.27.42 43.55 1.53 54.06.65 6.21 2.51 13.76 3.65 19.81.77 4.04 2.36 16.19-3.18 16.13 1.34.35 2.23-.14 3.43-.5 21.37-7.58 42.87-13.49 64.16-17.07.08-.01.17-.03.25-.06 3.39-.89 5.56-3.95 6.09-7 .54-3.04.09-6.29-.62-9.72-1.42-6.84-4.13-14.48-4.84-19.22-.72-4.76-.24-13.65 2.37-23.25 2.61-9.59 7.31-19.97 14.75-28.31.79-.88.99-2.14.5-3.22s-1.56-1.78-2.75-1.78" style="fill:peru" transform="matrix(1.3881 0 0 2.83408 -382.003 -1314.767)"/><path d="M519.8 483.67c-.39 0-.78.09-1.13.25-19.56 8.69-55.77 15.77-77.69 17.26a2.88 2.88 0 0 0-2.63 2.34c-4.17 21.29.4 41.56 1.46 51.59.63 5.92 2.4 13.11 3.49 18.88.73 3.85 2.25 15.43-3.04 15.41 1.29.33 2.13-.14 3.28-.5 20.4-7.4 40.91-13.2 61.23-16.77.08-.02.16-.04.24-.07 3.23-.88 5.3-3.81 5.81-6.72s.08-6.01-.59-9.27c-1.36-6.53-3.94-13.79-4.63-18.31-.68-4.54-.22-13.03 2.27-22.2 2.49-9.18 6.98-19.13 14.08-27.14.75-.85.94-2.05.47-3.07a2.83 2.83 0 0 0-2.62-1.68" style="fill:url(#c)" transform="matrix(1.3881 0 0 2.83408 -382.003 -1314.767)"/><path d="M434.56 521.88c-.78 15.27 1.08 28.52 1.47 36.24.33 6.53 1.8 14.46 2.63 20.82.4 3.1 1 10.76-.87 14.63l4.02-.33c-1.2.38-2.09.89-3.43.52 5.54.07 3.95-12.46 3.18-16.63-1.14-6.24-3-14.02-3.65-20.42-.77-7.45-3.28-20.16-3.35-34.83" style="fill:#000" transform="matrix(1.3881 0 0 2.83408 -382.003 -1314.767)"/><path d="M1152.7 260.25c13.5-5.28 15.8-9.46 30-1.36-4.7 2.58-9 5.78-16.7 6.79-8.5-1.43-10.5-3.47-13.3-5.43" style="fill-rule:evenodd;fill:#734700" transform="matrix(6.7941 0 0 7.376 -7697.89 -1858.43)"/><path d="M655.24 788.82a261.74 61.373 0 1 1-523.47 0 261.74 61.373 0 1 1 523.47 0" style="filter:url(#d);fill:url(#e)" transform="matrix(.45606 0 0 .33576 -54.527 120.034)"/><path d="M1117.6 304.37c-.9-3.44-3.7-2.52-6.3-2.28-4 .15-5.1 11.05.9 15.52-2.2-12.28-.7-18.45 2.5-12.32 1.2 1.14 2.4-.45 2.9-.92" style="fill-rule:evenodd;fill:url(#f)" transform="matrix(6.7941 0 0 7.376 -7528.037 -2028.078)"/><path d="M150.44 242.37c-68.755-80.49-143.7 52.99-41.49 172.13" style="filter:url(#g);stroke:#fff;stroke-width:3.8;fill:none" transform="matrix(.47372 0 0 .52824 -24.633 89.35)"/><path d="M1143.3 311.12c0 8.78-7.4 16.74-16.5 16.74s-16.5-7.96-16.5-16.74c0-6.31 7.2-7.94 16.5-7.94s16.5 1.28 16.5 7.94" style="fill:url(#h)" transform="matrix(6.7941 0 0 7.376 -7528.037 -2028.078)"/><path d="M531.57 287.39c0 37.85-94.72 75.11-211.43 75.11s-211.43-37.26-211.43-75.11 94.72-62.03 211.43-62.03 211.43 24.18 211.43 62.03" style="filter:url(#i);fill:#f9f9f9" transform="matrix(.46734 0 0 .50737 -20.557 95.915)"/><path d="M1140.8 307.7c0 2.38-6.3 4.73-14 4.73s-13.9-2.35-13.9-4.73c0-2.39 6.2-3.91 13.9-3.91s14 1.52 14 3.91z" style="stroke:#fefcfc;stroke-width:.12381;fill:url(#j)" transform="matrix(6.7941 0 0 7.376 -7528.037 -2028.078)"/><path d="M1139.3 309.33c-1 1.68-6.2 2.78-12.7 2.78s-11.1-1.23-12.2-2.65c-1-3.26 25.7-3.13 24.9-.13" style="fill:url(#k)" transform="matrix(6.7941 0 0 7.376 -7528.037 -2028.078)"/><path d="M1124.8 307.51c-3.3.32-7 3.23-1 4.02 6.6.87 16.6-.9 14.7-2.33-2.3-1.84-11.4-2.23-13.7-1.69" style="opacity:.91011;fill:url(#l)" transform="matrix(6.7941 0 0 7.376 -7528.037 -2028.078)"/><path d="M1133.3 255.08a3.133 4.23 0 1 1-6.2 0 3.133 4.23 0 1 1 6.2 0" style="fill:#6a3500" transform="matrix(2.31374 -3.34076 3.55317 2.90044 -3332.395 3077.953)"/><path d="M1131.1 255.34a.679 3.76 0 1 1-1.3 0 .679 3.76 0 1 1 1.3 0" style="fill:#472e00" transform="matrix(2.31374 -3.34076 3.55317 2.90044 -3333.254 3078.36)"/><path d="M1133.3 255.08a3.133 4.23 0 1 1-6.2 0 3.133 4.23 0 1 1 6.2 0" style="fill:#6a3500" transform="matrix(3.3609 -2.03884 2.16848 4.21314 -4122.98 1262.95)"/><path d="M1131.1 255.34a.679 3.76 0 1 1-1.3 0 .679 3.76 0 1 1 1.3 0" style="fill:#472e00" transform="matrix(3.3609 -2.03884 2.16848 4.21314 -4123.917 1262.944)"/><path d="M1133.3 255.08a3.133 4.23 0 1 1-6.2 0 3.133 4.23 0 1 1 6.2 0" style="fill:#6a3500" transform="matrix(3.29337 2.16478 -2.30238 4.12857 -2871.518 -3436.365)"/><path d="M1131.1 255.34a.679 3.76 0 1 1-1.3 0 .679 3.76 0 1 1 1.3 0" style="fill:#472e00" transform="matrix(3.29337 2.16478 -2.30238 4.12857 -2871.925 -3437.25)"/><path d="M1133.3 255.08a3.133 4.23 0 1 1-6.2 0 3.133 4.23 0 1 1 6.2 0" style="fill:#6a3500" transform="matrix(3.40935 -1.94166 2.06513 4.27388 -4102.418 1163.086)"/><path d="M1131.1 255.34a.679 3.76 0 1 1-1.3 0 .679 3.76 0 1 1 1.3 0" style="fill:#472e00" transform="matrix(3.40935 -1.94166 2.06513 4.27388 -4103.37 1163.013)"/><path d="M1133.3 255.08a3.133 4.23 0 1 1-6.2 0 3.133 4.23 0 1 1 6.2 0" style="fill:#6a3500" transform="matrix(3.58253 -1.53067 1.628 4.49103 -4250.523 660.798)"/><path d="M1131.1 255.34a.679 3.76 0 1 1-1.3 0 .679 3.76 0 1 1 1.3 0" style="fill:#472e00" transform="matrix(3.58253 -1.53067 1.628 4.49103 -4251.474 660.65)"/><path d="M1133.3 255.08a3.133 4.23 0 1 1-6.2 0 3.133 4.23 0 1 1 6.2 0" style="fill:#6a3500" transform="matrix(3.52824 1.67273 -1.7791 4.42294 -3232.794 -2968.407)"/><path d="M1131.1 255.34a.679 3.76 0 1 1-1.3 0 .679 3.76 0 1 1 1.3 0" style="fill:#472e00" transform="matrix(3.52824 1.67273 -1.7791 4.42294 -3233.337 -2969.219)"/><path d="M1133.3 255.08a3.133 4.23 0 1 1-6.2 0 3.133 4.23 0 1 1 6.2 0" style="fill:#6a3500" transform="matrix(3.82005 .5203 -.55339 4.78872 -3903.657 -1763.15)"/><path d="M1131.1 255.34a.679 3.76 0 1 1-1.3 0 .679 3.76 0 1 1 1.3 0" style="fill:#472e00" transform="matrix(3.82005 .5203 -.55339 4.78872 -3904.404 -1763.755)"/><path d="M1133.3 255.08a3.133 4.23 0 1 1-6.2 0 3.133 4.23 0 1 1 6.2 0" style="fill:#6a3500" transform="matrix(3.78744 -.7505 .79824 4.74786 -4259.81 -301.762)"/><path d="M1131.1 255.34a.679 3.76 0 1 1-1.3 0 .679 3.76 0 1 1 1.3 0" style="fill:#472e00" transform="matrix(3.78744 -.7505 .79824 4.74786 -4260.626 -302.13)"/><path d="M1133.3 255.08a3.133 4.23 0 1 1-6.2 0 3.133 4.23 0 1 1 6.2 0" style="fill:#6a3500" transform="matrix(3.73594 1.00985 -1.07408 4.68332 -3658.736 -2302.654)"/><path d="M1131.1 255.34a.679 3.76 0 1 1-1.3 0 .679 3.76 0 1 1 1.3 0" style="fill:#472e00" transform="matrix(3.73594 1.00985 -1.07408 4.68332 -3659.416 -2303.355)"/><path d="M1133.3 255.08a3.133 4.23 0 1 1-6.2 0 3.133 4.23 0 1 1 6.2 0" style="fill:#6a3500" transform="matrix(3.85001 0 0 4.82626 -4163.79 -1167.731)"/><path d="M1131.1 255.34a.679 3.76 0 1 1-1.3 0 .679 3.76 0 1 1 1.3 0" style="fill:#472e00" transform="matrix(3.85001 0 0 4.82626 -4164.605 -1168.233)"/><path d="M1133.3 255.08a3.133 4.23 0 1 1-6.2 0 3.133 4.23 0 1 1 6.2 0" style="fill:#6a3500" transform="matrix(3.2948 2.16231 -2.2998 4.13027 -2897.122 -3420.16)"/><path d="M1131.1 255.34a.679 3.76 0 1 1-1.3 0 .679 3.76 0 1 1 1.3 0" style="fill:#472e00" transform="matrix(3.2948 2.16231 -2.2998 4.13027 -2897.581 -3421.047)"/><path d="M1133.3 255.08a3.133 4.23 0 1 1-6.2 0 3.133 4.23 0 1 1 6.2 0" style="fill:#6a3500" transform="matrix(3.85001 0 0 4.82626 -4104.178 -1183.139)"/><path d="M1131.1 255.34a.679 3.76 0 1 1-1.3 0 .679 3.76 0 1 1 1.3 0" style="fill:#472e00" transform="matrix(3.85001 0 0 4.82626 -4104.993 -1183.64)"/><path d="M1133.3 255.08a3.133 4.23 0 1 1-6.2 0 3.133 4.23 0 1 1 6.2 0" style="fill:#6a3500" transform="matrix(3.73455 -1.01593 1.08053 4.68152 -4267.048 -1.093)"/><path d="M1131.1 255.34a.679 3.76 0 1 1-1.3 0 .679 3.76 0 1 1 1.3 0" style="fill:#472e00" transform="matrix(3.73455 -1.01593 1.08053 4.68152 -4267.952 -1.364)"/><path d="M1133.3 255.08a3.133 4.23 0 1 1-6.2 0 3.133 4.23 0 1 1 6.2 0" style="fill:#6a3500" transform="matrix(2.76246 2.91137 -3.09648 3.46294 -2123.504 -4122.721)"/><path d="M1131.1 255.34a.679 3.76 0 1 1-1.3 0 .679 3.76 0 1 1 1.3 0" style="fill:#472e00" transform="matrix(2.76246 2.91137 -3.09648 3.46294 -2123.767 -4123.697)"/><path d="M1133.3 255.08a3.133 4.23 0 1 1-6.2 0 3.133 4.23 0 1 1 6.2 0" style="fill:#6a3500" transform="matrix(.16284 4.17604 -4.44156 .20413 1162.801 -4695.3)"/><path d="M1131.1 255.34a.679 3.76 0 1 1-1.3 0 .679 3.76 0 1 1 1.3 0" style="fill:#472e00" transform="matrix(.16284 4.17604 -4.44156 .20413 1163.228 -4696.205)"/><path d="M1133.3 255.08a3.133 4.23 0 1 1-6.2 0 3.133 4.23 0 1 1 6.2 0" style="fill:#6a3500" transform="matrix(1.39363 3.89633 -4.14407 1.74701 -262.423 -4819.782)"/><path d="M1131.1 255.34a.679 3.76 0 1 1-1.3 0 .679 3.76 0 1 1 1.3 0" style="fill:#472e00" transform="matrix(1.39363 3.89633 -4.14407 1.74701 -262.288 -4820.789)"/><path d="M1133.3 255.08a3.133 4.23 0 1 1-6.2 0 3.133 4.23 0 1 1 6.2 0" style="fill:#6a3500" transform="matrix(3.43617 -1.88515 2.00502 4.30749 -4228.117 1092.12)"/><path d="M1131.1 255.34a.679 3.76 0 1 1-1.3 0 .679 3.76 0 1 1 1.3 0" style="fill:#472e00" transform="matrix(3.43617 -1.88515 2.00502 4.30749 -4229.053 1092.071)"/><text xml:space="preserve" x="849.805" y="8.933" style="font-size:12px;font-family:Bitstream Vera Sans;fill:#000" transform="rotate(50 -315.951 34.817)">
      
    </text></svg>