<svg xmlns="http://www.w3.org/2000/svg" version="1.0" viewBox="0 0 890.05 601.01"><defs><filter id="f" width="1.093" height="1.41" x="-.047" y="-.205"><feGaussianBlur stdDeviation="8.169"/></filter><filter id="h"><feGaussianBlur stdDeviation="2.321"/></filter><filter id="i" width="1.22" height="1.175" x="-.11" y="-.087"><feGaussianBlur stdDeviation="9.101"/></filter><filter id="k"><feGaussianBlur stdDeviation="4.631"/></filter><filter id="l"><feGaussianBlur stdDeviation="2.879"/></filter><filter id="j"><feGaussianBlur stdDeviation="5.901"/></filter><filter id="g"><feGaussianBlur stdDeviation="6.893"/></filter><filter id="m" width="1.041" height="1.287" x="-.021" y="-.143"><feGaussianBlur stdDeviation="3.034"/></filter><filter id="b" width="1.114" height="1.351" x="-.057" y="-.175"><feGaussianBlur stdDeviation="17.454"/></filter><filter id="a" width="1.091" height="1.282" x="-.046" y="-.141"><feGaussianBlur stdDeviation="14.02"/></filter><filter id="c" width="1.155" height="1.477" x="-.077" y="-.238"><feGaussianBlur stdDeviation="23.733"/></filter><linearGradient id="e" x1="69.67" x2="570.52" y1="190.63" y2="190.63" gradientUnits="userSpaceOnUse"><stop offset="0" style="stop-color:#f5f5f5"/><stop offset=".5" style="stop-color:#000;stop-opacity:.37755"/><stop offset="1" style="stop-color:#f5f5f5"/></linearGradient><linearGradient id="d" x1="82.728" x2="574.46" y1="83.4" y2="265.44" gradientUnits="userSpaceOnUse"><stop offset="0" style="stop-color:#f4f4f4"/><stop offset=".5" style="stop-color:#000;stop-opacity:.32653"/><stop offset="1" style="stop-color:#f4f4f4"/></linearGradient></defs><path d="M957.82 543.52a375.3 101.31 0 1 1-750.6 0 375.3 101.31 0 1 1 750.6 0" style="filter:url(#a);fill:#d4d4d4" transform="matrix(.98468 -.20703 .17078 1.1937 -146.322 -70.937)"/><path d="M957.82 543.52a375.3 101.31 0 1 1-750.6 0 375.3 101.31 0 1 1 750.6 0" style="filter:url(#b);fill:#949494" transform="matrix(.79093 -.16629 .13717 .95883 -86.188 54.872)"/><path d="M957.82 543.52a375.3 101.31 0 1 1-750.6 0 375.3 101.31 0 1 1 750.6 0" style="filter:url(#c);fill:#5d5d5d" transform="matrix(.58168 -.1223 .10088 .70516 -26.031 184.382)"/><path d="M320 72.438c-140.32 0-254.19 61.412-254.19 137.06 20.698 162.29 16.699 248.14 98.94 377.16 24.61 38.6 69.56 83.68 155.25 83.68s134.62-42.94 155.25-83.68c82.74-163.44 80.91-225.12 98.94-377.16 0-75.65-113.87-137.06-254.19-137.06" style="fill:#ececec" transform="translate(-46.312 -72.438)"/><path d="M574.46 190.58c0 65.02-113.96 117.78-254.37 117.78-140.42 0-254.38-52.76-254.38-117.78.005-65.01 113.96-117.78 254.38-117.78 140.41.005 254.37 52.77 254.37 117.78" style="fill:url(#d)" transform="translate(-46.312 -72.438)"/><path d="M313.72 80.844c-67.6 1.403-131.37 13.425-189.94 48.916-20.17 12.7-42.035 33.53-46.181 57.96-2.927 24.22 9.577 42.64 28.211 56.12 40.27 30.98 90.92 43.42 140.23 51.26 76.46 10.84 156.19 5.61 229.21-19.69 30.16-11.15 60.52-26.98 80.37-53 11.3-15.7 10.22-35.34.2-52.65-14.57-28.17-44.24-45-72.13-57.49-54.88-23.288-110.68-31.413-169.97-31.426" style="fill:url(#e)" transform="translate(-46.312 -72.438)"/><path d="M317.62 167.78c-58.6 1.13-119.13 12.91-167.71 47.16-13.37 9.89-25.48 22.12-32.94 37.22 52.97 33.03 116.3 44.29 177.94 47.73 70.33 3.22 142.54-5.4 206.84-35.02 8.65-4.23 17.11-8.83 25.09-14.31-18.03-33.22-53.68-51.67-88.03-64.22-38.78-13.61-80.1-18.9-121.19-18.56" style="fill:#b87c00" transform="translate(-46.312 -72.438)"/><path d="M314.92 167.53c-55.16.99-107.78 16.24-155.34 45.26-40.2 29.85-50.24 54.37.5 9.51 47.55-29.01 100.83-33.75 155.99-34.74 48.4-.44 120 16.66 164.51 36.05 20.64 9.53 55.66 8.23-22.47-31.02-44.51-19.39-94.8-25.5-143.19-25.06" style="filter:url(#f);fill-opacity:.4456;fill:#000" transform="translate(-46.312 -72.438)"/><path d="M66.469 199.69a75 75 0 0 0-.657 9.81c20.696 162.29 16.697 248.14 98.938 377.16 15.59 24.45 39.34 51.51 76.44 68.06 159.86-2.44 288.72-113.89 288.72-250.84 0-45.83-14.44-88.8-39.63-125.79-45.09 18.82-104.76 30.29-170.19 30.29-133.81 0-243.59-47.92-253.62-108.69z" style="filter:url(#g);fill:#e4e4e4" transform="translate(-46.312 -72.438)"/><path d="M610.42 283.26c-19.49-.04-41.05.8-57.81 16.39-21.34 19.86-32.45 96.31-20.48 83.54 20.49-21.85 45.02-60.84 82.7-60.77 45.57.08 73.94 34.93 59.76 92.15s-59.14 98.61-104.02 90.73c-39.93-7.02-44.48-44.44-52.79-65.07-6.64-16.47-33.87 68.14-22.27 89.86 8.56 16.02 30.15 16.56 49.64 16.6 61.2.11 125.48-58.81 143.49-131.52 18.02-72.71-17.02-131.79-78.22-131.91" style="filter:url(#h);fill:#c7c7c7" transform="rotate(-.853 -2644.07 -352.45)scale(.90216)"/><path d="M600.92 305.51c-17.57.23-37.02 1.27-51.92 15.57-18.98 18.2-27.98 87.3-17.35 75.63 18.18-19.99 39.79-55.5 73.78-55.94 41.11-.53 67.16 30.51 55.14 82.32s-51.5 82.71-92.61 83.24c-34.14.45-36.29-40.08-48.49-57.97-8.01-11.75-30.98 61.87-18.88 81.35 8.65 13.92 27.42 14.53 45 14.3 55.21-.72 112.4-54.73 127.67-120.56s-17.13-118.66-72.34-117.94" style="fill:#d6d6d6" transform="translate(-46.312 -72.438)"/><path d="M610.88 294.03c-19.49-.03-41.05.81-57.81 16.41-12.97 12.07-22.13 45.02-24.66 66.16 4.45-15.58 10.99-30.85 18.94-38.25 16.76-15.6 38.33-16.45 57.81-16.41 55.3.11 89.23 48.37 81.97 111.31.71-2.42 1.36-4.86 1.97-7.31 18.02-72.71-17.02-131.79-78.22-131.91m61.69 140.07c-16.39 52.61-58.98 89.44-101.53 81.97-39.93-7.02-44.47-44.45-52.78-65.07-4.44-11.01-18.08 23.21-23.16 53.57 5.93-18.32 13.49-31.59 17.41-25.66 13.23 20.03 14.93 64.99 52.78 65.06 45.57.09 89.85-33.5 104.03-90.72 1.66-6.7 2.72-13.09 3.25-19.15" style="filter:url(#i);fill:#fff" transform="matrix(.87766 -.0131 .01346 .90206 17.042 -39.665)"/><path d="M91.312 242.09a270 270 0 0 0-20.531 8.82c15.65 136.31 19.047 218.21 93.969 335.75 14.82 23.25 37.04 48.84 71.09 65.53 120.03-16.86 211.69-105.82 211.69-212.97 0-51.34-21.06-98.5-56.19-135.56-22.62 3.05-46.51 4.72-71.25 4.72-100.52 0-187.48-27.07-228.78-66.29z" style="filter:url(#j);fill:#dedede" transform="translate(-46.312 -72.438)"/><path d="M147.69 302.97c-24.52 0-48.053 3.65-69.878 10.34 11.62 101.41 24.148 174.84 86.938 273.35 12.57 19.72 30.47 41.11 56.37 57.34 77.82-25.28 133.16-89.56 133.16-164.78 0-97.29-92.55-176.25-206.59-176.25" style="filter:url(#k);fill:#d7d7d7" transform="translate(-46.312 -72.438)"/><path d="M94.691 413.87c-1.156.06-2.314.15-3.462.23 14.561 62.87 36.481 119.09 84.241 186.72 8.21 11.63 18.42 23.77 31.15 34.88 30.11-25.25 48.15-60.78 46.33-99.27-3.4-71.63-74.3-126.53-158.26-122.56z" style="filter:url(#l);fill:#ccc" transform="translate(-46.312 -72.438)"/><path d="M317.54 173.45c-55.15.98-107.12 9.67-154.68 38.68-39.79 29.48 7.34-5.2-.81 2.29 47.56-29.01 104.12-33.1 159.28-34.09 48.39-.44 94.77-.87 139.28 18.52 20.64 9.53 78.26 38.9.12-.34-44.5-19.4-94.79-25.51-143.19-25.06" style="filter:url(#m);fill:#fff" transform="translate(-46.312 -72.438)"/><path d="M-741.34-153.78c30.81 52.4 50.28 108.87 52.45 170.6 1.92 45.79-7.24 91.46-32.2 129.3-35.08 54.6-83.83 101.52-106.53 163.29-17.38 45.42-15.91 96.34-2.27 142.54 8.84 30.92 22.03 60.49 37.27 88.77 6.78 7.24 2.53-5.78.38-9.25-19.28-46-24.77-96.26-12.59-145.44 13.08-54.89 45.76-101.71 82.1-143.33 35.37-41.07 74.44-82.22 90.41-135.19 13.17-42.144 5.8-88.133-11.93-127.79-22.44-50.616-57.11-94.85-93.91-135.88-4.76-2.45-5.25-5.19-3.18 2.38" style="fill-rule:evenodd;fill:#710000" transform="translate(397.018 333.862)scale(.17258)"/><path d="M-739.61-154.82c217.64 366.69-242.18 340.01-51.27 694.61-144.07-329.9 383.87-326.06 51.27-694.61" style="fill-rule:evenodd;fill:#b40000" transform="translate(397.018 333.862)scale(.17258)"/><path d="M53.812 209.5c20.696 162.29 16.697 248.14 98.938 377.16 5.32 8.34 11.58 16.98 19.01 25.41" style="stroke:#fff;stroke-linecap:round;stroke-width:15;fill:none" transform="translate(-46.312 -72.438)"/><path d="M-477.16 273.95v20.4c-6.61-4.19-13.41-6.28-20.39-6.28-5.93 0-10.78 1.5-14.52 4.51-3.71 2.96-5.57 7.25-5.57 12.85 0 5.87 2.03 10.29 6.08 13.25 4.08 2.94 8.83 4.41 14.27 4.41 6.67 0 13.66-2.09 20.94-6.28v18.93c-7.49 4.11-16.17 6.17-26.06 6.17-13.15 0-23.12-3.56-29.9-10.68-6.75-7.11-10.12-15.56-10.12-25.35 0-10.96 3.76-19.8 11.28-26.51 7.53-6.75 17.44-10.12 29.76-10.12 9.21 0 17.28 1.57 24.23 4.7" style="fill:#000" transform="rotate(-90 -59.375 -13.063)"/></svg>