<svg xmlns="http://www.w3.org/2000/svg" width="2464" height="2464" version="1.0" viewBox="0 0 1848 1848"><path d="M7 33c0 24.2.2 28 1.5 28S10 57.4 10 34.5V8h18.5C44.3 8 47 7.8 47 6.5S44.1 5 27 5H7zM240 13.5c0 1.3 75.5 1.5 673.5 1.5s673.5-.2 673.5-1.5-75.5-1.5-673.5-1.5-673.5.2-673.5 1.5"/><path d="M24 56v32h1560v78.7c0 77.1.1 78.9 2.1 83.3 2.7 6 8.3 11.7 14.4 14.6l5 2.4H1787v127l-252.8.2c-289.4.3-257.7-.9-268.8 10.2-7.7 7.8-9.8 13.3-9.8 26.1s2.1 18.3 9.8 26.1c11.1 11.1-20.6 9.9 268.9 10.2l252.7.2v143l-64.7.2c-72.3.3-68.1-.1-75.6 7.5-5.8 5.8-7.2 9.6-7.2 19.8s1.4 14 7.2 19.8c7.5 7.6 3.3 7.2 75.6 7.5l64.7.2v133l-268.3.2c-245.1.3-268.5.4-271.8 1.9-20.4 9.3-20.4 37.5 0 46.8 3.3 1.5 26.7 1.6 271.8 1.9l268.3.2v326.9l-73.8.3-73.7.3-5 2.3c-6.6 3-11.8 8.3-14.7 14.6-3.3 7.4-3.3 22.8 0 30.2 2.9 6.3 8.1 11.6 14.7 14.6l5 2.3 73.8.3 73.7.3V1376h-214.7c-118 0-214.4-.2-214.2-.4s4.5-2.8 9.5-5.8c19.5-11.7 40.3-29.5 55.6-47.7 16.9-20.1 33.3-48.5 40.8-70.8l3.4-10.2 33.6-.3c32.5-.3 33.6-.4 38.5-2.6 6.6-3 11.8-8.3 14.7-14.6 3.3-7.4 3.3-22.8 0-30.2-2.9-6.3-8.1-11.6-14.7-14.6-4.8-2.2-6.2-2.3-33.6-2.6l-28.6-.3-.6-14.7c-1.3-30.3-8.9-59.7-22.6-87.7-3.8-7.7-9.2-17.5-12-21.8s-5.1-8-5.1-8.2c0-.3 61.2-.5 136.1-.5h136l5.4-2.6c6.9-3.2 12.1-9.2 14.1-16.3 4-13.4-4.9-28.1-18.7-31-3.4-.8-51.3-1.1-151.7-1.2-109.9 0-149.5-.3-157.7-1.3l-11-1.2-17.5-9.5c-28-15.1-40.8-20.8-58.2-25.8-44.1-12.8-86.3-13-130.3-.6-14.5 4.1-26.2 8.7-41.1 16.4l-11.3 5.7-.4-32.6c-.3-29.4-.6-33.1-2.4-38.6-3.3-9.9-8.1-17.8-14.9-24.8q-16.65-16.8-38.4-18.3c-4.1-.3-27.7.7-52.5 2.1-72.8 4.3-78.5 4.5-82 2.8-1.6-.8-8.8-4.9-15.9-9.1l-12.9-7.6 122.4-.5c135.3-.6 125.3 0 133.2-6.9 10.8-9.6 10.8-27.6 0-37.2-7.9-6.9 5.3-6.4-161.9-6.7l-151-.2-5.3-6.4c-14.7-17.8-30.9-46.2-39.6-69.5-6.8-18.4-9.9-30.2-14-54.3l-.4-2.8 384.2-.2c369-.3 384.3-.4 387.8-2.1 4.7-2.3 10.3-7.9 12.6-12.6 2.5-5.1 2.5-20.1 0-25.2-2.3-4.7-7.9-10.3-12.6-12.6-3.5-1.7-18.9-1.8-388.3-2.1l-384.6-.2.5-4.3c1.7-15.3 8.5-47.3 10.4-49.2.2-.2 6.9-3 14.9-6.3 56.9-23.5 91.1-44.3 119.8-72.9l10.3-10.2 106.7-.3c122.8-.3 112 .5 122.8-10.2 7.7-7.8 9.8-13.3 9.8-26.1s-2.1-18.3-9.8-26.1c-10.7-10.6-2.6-9.8-104.2-10.2l-88.1-.3 1.3-6.7c2.1-10.8 1.8-36.2-.7-48.8-4.2-21.8-14.3-45.9-26.4-62.8-3-4.2-5.5-7.9-5.5-8.1 0-.3 123.6-.5 274.8-.5h274.7l5-2.4c10.5-5 16.5-14.4 16.5-26.1s-6-21.1-16.5-26.1l-5-2.4H1196c-304.9 0-309.5 0-312.7-2-3.6-2.2-23.5-10.9-33.3-14.7-9.3-3.5-38.2-11.6-54-15.1-22.1-4.9-53.9-9.7-55.2-8.4-1.9 1.9-.2 3.7 5.8 6.1 22.1 9.1 53.9 22.8 64.4 27.9l12.5 6-22.5.1c-21.5.1-22.7.2-27.5 2.5-10.5 5-16.5 14.4-16.5 26.1 0 11.2 5.6 20.5 15.5 25.8 4 2.2 4.8 2.2 67.5 2.7l63.4.5 4.8 6c27.3 33.8 38.8 73.8 30.5 105.5-1.4 5.2-3 10.7-3.6 12.2L934 394H786.3l-8-9.3c-18.7-21.4-43.3-41.6-68.3-55.8-9-5.1-9.9-5.4-16.6-5.4-6.1 0-7.7.4-12 3-8.8 5.5-13.6 15.5-11.9 25.3 1.2 7.3 5.5 12.4 16.2 19.5 5.4 3.6 14 10.1 19.2 14.4l9.4 7.8-27.4.5-27.5.5-6.6 3.3c-7.7 3.8-13 9.2-16.7 17.1-2.3 4.9-2.6 6.9-2.6 15.6s.3 10.7 2.6 15.6c3.7 7.9 9 13.3 16.7 17.1l6.7 3.3 51.4.5 51.5.5.8 3c1.7 6 1.1 25.5-1.1 35.9-1.2 5.4-2.1 10-2.1 10.2s-7.5 4.2-16.7 8.8c-27.5 13.9-48.1 27.1-66.3 42.1-10.1 8.4-26.3 25.2-33.4 34.7l-5.8 7.8h-47.2c-36.7.1-47.9.4-50.9 1.4-5.5 2-10.3 6.1-13.4 11.4-2.6 4.3-2.8 5.6-2.8 14.7s.2 10.4 2.8 14.7c1.5 2.6 4.3 5.9 6.2 7.4 6.8 5.1 8.3 5.3 46.2 5.4h35.1l-1.3 5.7c-5.2 22.2-5.1 63.8.1 90.8 1.6 8.2 5.1 22.1 7.8 31 .9 2.7 1.6 5.1 1.6 5.2 0 .2-3.7.3-8.2.3-7.4 0-8.9.4-13.6 3-9.3 5.4-13.9 14.3-12.9 25.3.9 9.7 7.2 18 16.4 21.3 2.6.9 9.3 1.3 21 1.4h17.1l5.6 11.6c3.1 6.4 5.6 12.1 5.6 12.7s-19.4.7-58.3.2c-64.2-.8-66.3-.7-74.6 5-2.5 1.6-5.9 5.2-7.6 7.9l-3 4.9v72.2l2.8 4.8c3.3 5.5 9.3 10.2 15 11.8 2.9.8 14.6.8 41.6-.1 51.1-1.5 170.7-1.6 200.1-.1 12.9.6 43.5 2.3 68 3.6 143.8 7.9 175.6 8.7 369.5 9.4 160.1.6 169.3.7 174 2.5 2.8 1 6.9 2.9 9.3 4.2 5.5 3.3 25 22.6 33.7 33.4l6.7 8.5-48.2.3-48.2.2-8.7-4.9c-39-22.4-87.5-26.4-131.6-10.9-6.7 2.4-21.7 9.7-27.8 13.5l-3.9 2.5-42.7-.4-42.6-.3-6.6 3.3c-7.8 3.8-13.1 9.2-16.8 17.1l-2.6 5.6v81l3.3 6.7c3.8 7.7 9.2 13 17.1 16.6 5.4 2.6 6.3 2.7 31.6 3.3 14.3.4 26.1.8 26.3.8.1.1.2 14.3.2 31.6v31.5h-33.7c-38.2 0-86.4-1.1-173.8-4-89.6-2.9-146.8-4.2-167.5-3.8-17.5.3-18.8.4-24.1 2.9-7.9 3.7-13.3 9-17.1 16.7l-3.3 6.7v121l3.3 6.7c5.3 10.9 15.8 18.3 27.6 19.5 5.7.6 28-.6 72.1-3.8 31.7-2.2 36-2.6 95-8.4 90.6-8.9 128.6-11.6 189.4-13.1l26.4-.7-.6 6.3c-.7 5.9-7 32.5-10 41.5-2.1 6.7-6.3 13.9-9.3 16-5.7 4.1-17.4 6-42.9 7-48.8 1.9-84.2 4.7-159.7 13-114.7 12.6-152.7 15-239.3 15-48.2 0-64.1-.4-87-2-39.5-2.7-45.6-2.7-52.6.6-12.7 6-19.5 16.2-20.9 31.6-.5 4.8-1.4 12.6-2 17.3s-1.2 14.1-1.3 21c-.2 12.3-.1 12.6 3.1 19.1 3.8 7.8 9.2 13.1 17.1 16.8 5.4 2.5 6.5 2.6 30.1 3.3 13.5.4 62.5 1 109 1.4 85 .7 119.5.2 203.5-3.1 61.3-2.4 158.5-4.5 158.5-3.4 0 .3-1.8 2-4 3.8-2.3 1.8-8.4 7.2-13.8 11.9-16.8 15.1-37.9 30.5-56.7 41.7l-7.7 4.5H824.7c-91.1.1-112.9.3-116 1.4-5.5 2-10.3 6.1-13.4 11.4-2.5 4.1-2.8 5.7-2.8 13.2s.3 9.1 2.8 13.2c1.5 2.6 4.3 5.9 6.2 7.4 6.6 5 8.8 5.3 40.5 5.4 47 0 73.5-3.1 111.8-13.1 24.3-6.3 62.9-22.1 82.9-33.7l7.1-4.2h279.9l6.1-3.1c6.9-3.4 10.4-7.1 13.8-14.4 2-4.2 2.4-6.6 2.4-15.1 0-9.3-.3-10.6-3.1-16.2-3.2-6.5-6.6-9.9-13.3-13.5l-4.1-2.2-99.4-.5-99.3-.5 6.3-7c15-16.5 24.9-29.3 37.2-48.1 10-15.3 23.8-40.8 29.8-55.3 5.7-13.4 7.6-15.5 15.9-17 16.6-2.9 35.2-3.1 349.8-3.1H1787v131h-459.7l-6.1 3.1c-6.9 3.4-10.4 7.1-13.8 14.4-2 4.2-2.4 6.6-2.4 15s.4 10.8 2.4 15c3.4 7.3 6.9 11 13.8 14.4l6.1 3.1H1824V243h-219V24H24zm20.6-20.8c-.3 1.3-.6 4.7-.6 7.5 0 4.5-.3 5.3-1.9 5.3-2 0-3.1-3.9-3.1-11.3 0-3.5.2-3.7 3.1-3.7 2.8 0 3.1.3 2.5 2.2m10 3c-.3 2.9-.6 6.3-.6 7.5 0 1.6-.6 2.3-2 2.3-1.6 0-2-.7-2-3.8 0-2-.3-5.4-.6-7.5-.7-3.6-.6-3.7 2.6-3.7h3.3zm27.8-4c1.4.6 3.2 2.1 4 3.3 1.4 2.1 1.3 2.3-1.1 3.4-2 .9-2.9.9-4.2-.2-6.8-5.9-13 1-11.8 13.3.8 9.6 5.1 13.3 10.5 9.3 2.1-1.6 3.2-1.8 5-1 2.9 1.3 2.5 3.4-1 6-3.4 2.6-10.6 2.7-14.3.3-8.5-5.6-8.7-28.1-.4-34 2.7-1.9 9.7-2.1 13.3-.4m50.6 1.3c0 1.6-.6 2.5-1.5 2.5s-1.5.9-1.5 2.5.6 2.5 1.5 2.5 1.5.9 1.5 2.5-.6 2.5-1.5 2.5c-1.2 0-1.5 1.9-1.5 11v11h-6V59c0-10.3-.1-11-2-11-1.5 0-2-.7-2-2.5s.5-2.5 2-2.5c1.6 0 2-.7 2-3.8 0-4.7 1.4-6.2 5.7-6.2 2.9 0 3.3.3 3.3 2.5m17 0c0 1.6-.6 2.5-1.5 2.5s-1.5.9-1.5 2.5.6 2.5 1.5 2.5 1.5.9 1.5 2.5-.6 2.5-1.5 2.5c-1.2 0-1.5 1.9-1.5 11v11h-6V59c0-10.3-.1-11-2-11-1.5 0-2-.7-2-2.5s.5-2.5 2-2.5c1.6 0 2-.7 2-3.8 0-4.7 1.4-6.2 5.7-6.2 2.9 0 3.3.3 3.3 2.5m84.5 7.4c2.2 5.5 4.3 9.7 4.6 9.5.4-.2 2.4-4.7 4.5-9.9 3.5-8.9 3.9-9.5 6.6-9.5h2.8v37h-5.9l-.3-9.6-.3-9.7-3.4 8.4c-1.8 4.6-3.7 8.7-4.1 9.2-.3.4-2.4-3.7-4.6-9l-3.9-9.8-.3 10.2c-.3 10.2-.3 10.3-2.7 10.3H225V33h2.8c2.5 0 3 .8 6.7 9.9m110.1-7.7c-.3 1.3-.6 4.7-.6 7.5 0 4.5-.3 5.3-1.9 5.3-2 0-3.1-3.9-3.1-11.3 0-3.5.2-3.7 3.1-3.7 2.8 0 3.1.3 2.5 2.2m10 3c-.3 2.9-.6 6.3-.6 7.5 0 1.6-.6 2.3-2 2.3-1.6 0-2-.7-2-3.8 0-2-.3-5.4-.6-7.5-.7-3.6-.6-3.7 2.6-3.7h3.3zm29.4.4c0 3.9.3 5.3 1.2 4.8 2-1.3 8-.5 10.1 1.3 4.5 4.1 6 13.2 3.2 19.9-1.9 4.6-6.1 6.3-14.2 5.6l-6.3-.4V52.5c0-16.8 0-17.2 2.3-18.3 3.5-1.7 3.7-1.5 3.7 4.4m77.5 4.3c2.2 5.5 4.3 9.7 4.6 9.5.4-.2 2.4-4.7 4.5-9.9 3.5-8.9 3.9-9.5 6.6-9.5h2.8v37h-5.9l-.3-9.6-.3-9.7-3.4 8.4c-1.8 4.6-3.7 8.7-4.1 9.2-.3.4-2.4-3.7-4.6-9l-3.9-9.8-.3 10.2c-.3 10.2-.3 10.3-2.7 10.3H452V33h2.8c2.5 0 3 .8 6.7 9.9M620 38c0 4.7.2 5 2.5 5 2 0 2.5.5 2.5 2.5s-.5 2.5-2.5 2.5c-2.5 0-2.5.1-2.5 8.5 0 7.9.1 8.5 2.1 8.5 1.7 0 1.9.4 1.3 2.2-1.3 4.4-3.5 4.8-6.9 1.3-2.3-2.2-2.5-3.2-2.5-11s-.2-8.5-2-8.5c-1.6 0-2-.7-2-3s.4-3 2-3c1.7 0 2-.7 2-3.8 0-3 .5-4.1 2.3-5 3.5-1.7 3.7-1.5 3.7 3.8m18 0c0 4.7.2 5 2.5 5 2 0 2.5.5 2.5 2.5s-.5 2.5-2.5 2.5c-2.5 0-2.5.1-2.5 8.5 0 7.9.1 8.5 2.1 8.5 1.7 0 1.9.4 1.3 2.2-1.3 4.4-3.5 4.8-6.9 1.3-2.3-2.2-2.5-3.2-2.5-11s-.2-8.5-2-8.5c-1.6 0-2-.7-2-3s.4-3 2-3c1.7 0 2-.7 2-3.8 0-3 .5-4.1 2.3-5 3.5-1.7 3.7-1.5 3.7 3.8m16.4-3.4c.8 2.1-.1 3.4-2.4 3.4-2.2 0-3.4-1.5-2.6-3.5.7-2 4.2-1.9 5 .1m64.1 8.3c2.2 5.5 4.3 9.7 4.6 9.5.4-.2 2.4-4.7 4.5-9.9 3.5-8.9 3.9-9.5 6.6-9.5h2.8v37h-5.9l-.3-9.6-.3-9.7-3.4 8.4c-1.8 4.6-3.7 8.7-4.1 9.2-.3.4-2.4-3.7-4.6-9l-3.9-9.8-.3 10.2c-.3 10.2-.3 10.3-2.7 10.3H709V33h2.8c2.5 0 3 .8 6.7 9.9M826 51.5V70h-6V55c0-12.7-.2-15-1.5-15-2.3 0-1.9-4.1.5-4.7 1.1-.3 2-.9 2-1.4s1.1-.9 2.5-.9h2.5zm27.6-16.6c8.1 4.9 6.1 20.9-3.8 31.4-4.1 4.3-5.3 4.5-6.9 1.6-.9-1.8-.6-2.6 2.4-5.8 1.9-2 3.9-4.5 4.5-5.6 1-1.9.8-2.1-2.4-1.7-7.3.9-13.4-4.1-13.4-11 0-3.2.7-4.7 3.4-7.4 2.9-2.9 4.1-3.4 8.3-3.4 3 0 6 .7 7.9 1.9M874 38c0 4.7.2 5 2.5 5 2 0 2.5.5 2.5 2.5s-.5 2.5-2.5 2.5c-2.5 0-2.5.1-2.5 8.5 0 7.9.1 8.5 2.1 8.5 1.7 0 1.9.4 1.3 2.2-1.3 4.4-3.5 4.8-6.9 1.3-2.3-2.2-2.5-3.2-2.5-11s-.2-8.5-2-8.5c-1.6 0-2-.7-2-3s.4-3 2-3c1.7 0 2-.7 2-3.8 0-3 .5-4.1 2.3-5 3.5-1.7 3.7-1.5 3.7 3.8m15 .6c0 5.3.1 5.5 2.2 4.8 4.2-1.3 8.1-.6 10.7 2.1 2.4 2.4 2.6 3.3 2.9 13.5l.4 11H899v-9.1c0-10.6-.9-12.9-5-12.9s-5 2.3-5 12.9V70h-6V52.7c0-17 0-17.4 2.3-18.5 3.5-1.7 3.7-1.5 3.7 4.4m57-4.1c7.8 4 7.4 13.1-.8 18.6-5.3 3.6-11.2 8.9-11.2 10.1 0 .4 4.1.8 9 .8h9v6h-25.3l.6-4.1c.7-5.7 4.9-11.4 11-15.3 6.5-4.2 8-6 7.2-8.5-1.3-4.2-10.7-4.3-12-.1-.4 1.4-1.1 1.7-3.2 1.1-3.9-1-3.9-2.7 0-6.6 3-3 4.2-3.5 8.1-3.5 2.6 0 6 .7 7.6 1.5m33.8 1.5c3.7 3.7 5.6 11.2 4.9 19-.9 10.3-5.2 15.3-13.2 15.3-8.2 0-12.5-5.2-13.3-16.3-.5-8.3 1-14.1 4.9-17.9 2.6-2.7 3.8-3.1 8.4-3.1s5.8.4 8.3 3m21.2 15.5V70h-6V55c0-12.7-.2-15-1.5-15-2.3 0-1.9-4.1.5-4.7 1.1-.3 2-.9 2-1.4s1.1-.9 2.5-.9h2.5zm23.8-16c1 2.1.9 2.7-.2 3.1-1.2.5-7.6 8.6-7.6 9.7 0 .2 1.1.2 2.4 0 3.5-.7 8.9 1.3 11.7 4.3 3.4 3.6 3.3 10.2 0 13.8-5.4 5.7-14.5 5.4-19.7-.7-2.3-2.8-2.6-3.8-2.2-9.2.4-7.1 3.6-14.1 8.8-19.6 4.3-4.6 5.3-4.8 6.8-1.4m75.2 8.6 6.5 11.1.3-11.1.3-11.1h5.9v37h-2.7c-2.5 0-3.5-1.2-9.3-11.8l-6.5-11.7-.3 11.7-.3 11.8h-5.9V33h2.8c2.4 0 3.4 1.2 9.2 11.1m40.8-8.1c3.7 3.7 5.6 11.2 4.9 19-.9 10.3-5.2 15.3-13.2 15.3-8.2 0-12.5-5.2-13.3-16.3-.5-8.3 1-14.1 4.9-17.9 2.6-2.7 3.8-3.1 8.4-3.1s5.8.4 8.3 3m44.5-1.9c5.8 2.6 7.4 10.8 3.1 15.9-3 3.5-2.9 3.9 1.5 14.7l2.1 5.3h-3.3c-3.2 0-3.4-.2-6.2-8-2.9-7.7-3.1-8-6.2-8h-3.3v16h-6V33h8c4.3 0 9 .5 10.3 1.1m21.7 17.4V70h-6V33h6zm28.9-15.9c3.8 3.2 3.8 3.7.4 5.3-2 .9-2.8 1-3.1.1-.6-1.6-4.6-3-7.1-2.3-3.3.8-5.1 5.4-5.1 12.8 0 10.1 3.8 15.3 8.9 12.5 1.9-.9 4.1-4 4.1-5.4 0-.3-1.3-.6-3-.6-2.7 0-3-.3-3-3v-3h13l-.6 4.2c-1.5 10.5-7.5 15.9-15.2 13.9-7.3-2-10.2-7.2-10.2-18.7 0-12.6 4.1-18.4 13.1-18.4 3.7 0 5.5.6 7.8 2.6m17.1 4.9V48h13V33h6v37h-6V54h-13v16h-6V33h6zm49-5c0 2.3-.4 2.5-4.5 2.5h-4.5v32h-6V38h-4c-3.6 0-4-.3-4-2.5V33h23zm22.3-1.4c1.2.6 2.8 1.9 3.5 2.9 1 1.6.9 2.1-.7 3-1.5.7-2.7.6-4.9-.7-2.5-1.4-3.5-1.5-5.6-.5-2.8 1.2-3.4 4.3-1.3 6 .7.6 3.4 1.6 6 2.2 6 1.6 10.7 6.6 10.7 11.4 0 7.2-8.1 13.6-15.1 12.1-3.3-.7-7.5-3.8-8.9-6.5-.8-1.6-.6-2.2 1.7-3.3 2.4-1.3 2.8-1.2 4.7.9 3.1 3.3 5.9 3.8 8.9 1.3 5.4-4.1 2.9-8.5-6.2-10.9-2.4-.6-5.5-2.3-6.8-3.6-2.1-2.1-2.4-3.2-2-6.1.9-5.3 5.2-9.3 9.8-9.3 2.1 0 4.9.5 6.2 1.1m47 0c5.8 2.6 7.4 10.8 3.1 15.9-3 3.5-2.9 3.9 1.5 14.7l2.1 5.3h-3.3c-3.2 0-3.4-.2-6.2-8-2.9-7.7-3.1-8-6.2-8h-3.3v16h-6V33h8c4.3 0 9 .5 10.3 1.1M1406 36v3h-15v9h5c4.9 0 5 .1 5 3s-.1 3-5 3h-5v10h17v6h-23V33h21zm24.3-1.9c1.2.6 2.8 1.9 3.5 2.9 1 1.6.9 2.1-.7 3-1.5.7-2.7.6-4.9-.7-2.5-1.4-3.5-1.5-5.6-.5-2.8 1.2-3.4 4.3-1.3 6 .7.6 3.4 1.6 6 2.2 6 1.6 10.7 6.6 10.7 11.4 0 7.2-8.1 13.6-15.1 12.1-3.3-.7-7.5-3.8-8.9-6.5-.8-1.6-.6-2.2 1.7-3.3 2.4-1.3 2.8-1.2 4.7.9 3.1 3.3 5.9 3.8 8.9 1.3 5.4-4.1 2.9-8.5-6.2-10.9-2.4-.6-5.5-2.3-6.8-3.6-2.1-2.1-2.4-3.2-2-6.1.9-5.3 5.2-9.3 9.8-9.3 2.1 0 4.9.5 6.2 1.1M1465 36v3h-15v9h5c4.9 0 5 .1 5 3s-.1 3-5 3h-5v10h17v6h-23V33h21zm26.3-1.9c5.8 2.6 7.4 10.8 3.1 15.9-3 3.5-2.9 3.9 1.5 14.7l2.1 5.3h-3.3c-3.2 0-3.4-.2-6.2-8-2.9-7.7-3.1-8-6.2-8h-3.3v16h-6V33h8c4.3 0 9 .5 10.3 1.1m22 11.4 4 12 3.9-12.3c3.8-12 3.9-12.2 6.8-12.2 1.7 0 3 .3 3 .7-.1.5-2.7 8.7-5.8 18.3-5.3 16.1-6 17.5-8.3 17.8s-2.6-.3-5.7-10.5c-1.8-5.9-4.3-14.3-5.7-18.6l-2.4-7.8 3.1.3c3.1.3 3.2.6 7.1 12.3M1558 36v3h-15v9h5c4.9 0 5 .1 5 3s-.1 3-5 3h-5v10h17v6h-23V33h21zm25-1.2c5.5 2.7 7.5 7.3 7.5 16.7-.1 13.8-4.5 18.5-17.2 18.5h-7.3V33h6.8c4.4 0 7.9.6 10.2 1.8M112.1 44.5c3.6 2.3 5.1 13.8 2.5 20-3.3 7.9-15.3 7.9-19.1 0-3.1-6.8-1.1-17.9 3.8-20.3 4.1-2.1 9.1-1.9 12.8.3m60.7.8c2.2 2.1 4.2 7.3 4.2 11.4 0 2.2-.4 2.3-8 2.3-4.4 0-8 .3-8 .8 0 .4.7 1.8 1.6 3 1.7 2.5 4.2 2.8 6.9.8 1.4-1 2.5-1.1 4.2-.3 2.8 1.2 2.6 2.4-.9 5-3.8 2.8-10.2 2.6-13.4-.4s-4.8-8.6-4-14.2c.9-5.6 3.7-9.4 7.9-10.5 4-1.1 6.6-.5 9.5 2.1m27 0c2.2 2.1 4.2 7.3 4.2 11.4 0 2.2-.4 2.3-8 2.3-4.4 0-8 .3-8 .8 0 .4.7 1.8 1.6 3 1.7 2.5 4.2 2.8 6.9.8 1.4-1 2.5-1.1 4.2-.3 2.8 1.2 2.6 2.4-.9 5-3.8 2.8-10.2 2.6-13.4-.4s-4.8-8.6-4-14.2c.9-5.6 3.7-9.4 7.9-10.5 4-1.1 6.6-.5 9.5 2.1m78.5.8c1.4 1.7 1.7 4.1 1.7 13V70l-3.8-.2c-2.2 0-4.4.2-5.1.6-1.7 1.1-7.9-1.3-9.6-3.7-2.4-3.4-1.9-9.4 1-12.2 1.8-1.9 3.5-2.5 7-2.5 3.2 0 4.5-.4 4.5-1.4 0-2-3.4-2.9-7.5-2.2-2.8.6-3.6.3-4.5-1.4-.9-1.6-.8-2.2.6-2.7 6.6-2.5 12.7-1.8 15.7 1.8m49.5-.8c2.2 2.1 4.2 7.3 4.2 11.4 0 2.2-.4 2.3-8 2.3-4.4 0-8 .3-8 .8 0 .4.7 1.8 1.6 3 1.7 2.5 4.2 2.8 6.9.8 1.4-1 2.5-1.1 4.2-.3 2.8 1.2 2.6 2.4-.9 5-3.8 2.8-10.2 2.6-13.4-.4s-4.8-8.6-4-14.2c.9-5.6 3.7-9.4 7.9-10.5 4-1.1 6.6-.5 9.5 2.1m177.5.8c1.4 1.7 1.7 4.1 1.7 13V70l-3.8-.2c-2.2 0-4.4.2-5.1.6-1.7 1.1-7.9-1.3-9.6-3.7-2.4-3.4-1.9-9.4 1-12.2 1.8-1.9 3.5-2.5 7-2.5 3.2 0 4.5-.4 4.5-1.4 0-2-3.4-2.9-7.5-2.2-2.8.6-3.6.3-4.5-1.4-.9-1.6-.8-2.2.6-2.7 6.6-2.5 12.7-1.8 15.7 1.8m49.5-.8c2.2 2.1 4.2 7.3 4.2 11.4 0 2.2-.4 2.3-8 2.3-4.4 0-8 .3-8 .8 0 .4.7 1.8 1.6 3 1.7 2.5 4.2 2.8 6.9.8 1.4-1 2.5-1.1 4.2-.3 2.8 1.2 2.6 2.4-.9 5-3.8 2.8-10.2 2.6-13.4-.4s-4.8-8.6-4-14.2c.9-5.6 3.7-9.4 7.9-10.5 4-1.1 6.6-.5 9.5 2.1m24.6-.4c-.4 4-.4 4-3.3 3.5-4.1-.9-5.1 1.6-5.1 12.5V70h-6V43l4.5.2c2.5 0 4.8-.1 5.1-.5.9-.9 4.9.9 4.8 2.2m23.9 1.2c1.4 1.7 1.7 4.1 1.7 13V70l-3.8-.2c-2.2 0-4.4.2-5.1.6-1.7 1.1-7.9-1.3-9.6-3.7-2.4-3.4-1.9-9.4 1-12.2 1.8-1.9 3.5-2.5 7-2.5 3.2 0 4.5-.4 4.5-1.4 0-2-3.4-2.9-7.5-2.2-2.8.6-3.6.3-4.5-1.4-.9-1.6-.8-2.2.6-2.7 6.6-2.5 12.7-1.8 15.7 1.8m159 0c1.4 1.7 1.7 4.1 1.7 13V70l-3.8-.2c-2.2 0-4.4.2-5.1.6-1.7 1.1-7.9-1.3-9.6-3.7-2.4-3.4-1.9-9.4 1-12.2 1.8-1.9 3.5-2.5 7-2.5 3.2 0 4.5-.4 4.5-1.4 0-2-3.4-2.9-7.5-2.2-2.8.6-3.6.3-4.5-1.4-.9-1.6-.8-2.2.6-2.7 6.6-2.5 12.7-1.8 15.7 1.8M306 45.7c-.1 1.9-2.2 5.4-6.5 10.8l-6.5 8 6.5.3c6.2.3 6.5.4 6.5 2.7 0 2.5 0 2.5-10 2.5h-10v-2.6c0-1.6 2.4-5.6 6.6-11l6.6-8.4h-6.1c-5.8 0-6.1-.1-6.1-2.5 0-2.5 0-2.5 9.5-2.5h9.5zm108.9 7.1 3.7 9.2 3.4-9.5c3.5-9.4 3.5-9.5 6.8-9.5 1.9 0 3.2.4 3 .8-.1.5-3.7 9.5-7.8 20L416.5 83h-3.2c-1.8 0-3.3-.1-3.3-.3s1.2-3.2 2.6-6.7l2.5-6.2-5-12.7c-2.8-6.9-5.1-13-5.1-13.4 0-.5 1.4-.7 3.1-.5 2.9.3 3.4.9 6.8 9.6M533 45.7c-.1 1.9-2.2 5.4-6.5 10.8l-6.5 8 6.5.3c6.2.3 6.5.4 6.5 2.7 0 2.5 0 2.5-10 2.5h-10v-2.6c0-1.6 2.4-5.6 6.6-11l6.6-8.4h-6.1c-5.8 0-6.1-.1-6.1-2.5 0-2.5 0-2.5 9.5-2.5h9.5zm122 10.8V70h-6V43h6zm123.9-3.7 3.7 9.2 3.4-9.5c3.5-9.4 3.5-9.5 6.8-9.5 1.9 0 3.2.4 3 .8-.1.5-3.7 9.5-7.8 20L780.5 83h-3.2c-1.8 0-3.3-.1-3.3-.3s1.2-3.2 2.6-6.7l2.5-6.2-5-12.7c-2.8-6.9-5.1-13-5.1-13.4 0-.5 1.4-.7 3.1-.5 2.9.3 3.4.9 6.8 9.6M688 52v3h-12v-6h12zm379 0v3h-12v-6h12zM883.8 213.4c19.1 9.7 36.8 22.9 53.1 39.5l12.4 12.6-20.7.3-20.6.2-6.3-6.6c-13.1-14.1-35.9-31.3-57.7-43.6l-8.5-4.8h21.8c21 0 21.9.1 26.5 2.4m929.5 54.4c3.1 3.2 5.7 6.3 5.7 7 0 .8-1.8 1.2-5.5 1.2h-5.5v157h-69v26h-6.5c-5.1 0-6.5-.3-6.5-1.5 0-1.1 1.2-1.5 5-1.5h5v-44h-4.5c-3.3 0-4.5-.4-4.5-1.5 0-1.2 1.3-1.5 6-1.5h6v21h66V276h-5.5c-3.7 0-5.5-.4-5.5-1.2 0-1.5 11-12.8 12.5-12.8.6 0 3.6 2.6 6.8 5.8M787.2 403.4c7.7 11.3 17.1 29.3 20.3 39.1 2.3 7.2 5.5 20.1 5.5 22.6 0 .5-9.6.9-23.4.9h-23.4l-.7-3.8c-.8-4.6-6.8-18.7-11.3-26.7-5.6-10-14.2-21.4-23.6-31.2l-8.8-9.3h29.8l29.9.1zm194.1-3.2c-3.5 12-5.8 17.9-11.5 28.8-5.7 11.1-15.6 26-22.2 33.5l-3.1 3.6-34.4-.3-34.3-.3 5.5-3.8c22.4-15.4 44.6-40.2 54.3-60.8l2.8-5.9h44.5zm359.7 6.3c0 1.2-1.7 1.5-9.5 1.5h-9.5v46h11c9.1 0 11 .3 11 1.5 0 1.3-2.1 1.5-12.5 1.5H1319v-52h11c9.1 0 11 .3 11 1.5m24.4 7.6c1.4 1.1 2.6 2.4 2.6 2.9 0 1.4-4.1 2.3-5.3 1.1-1.6-1.6-5.3-1.3-6.8.5-1.8 2.2 0 4.7 4.1 5.5 6.9 1.4 11 5.6 11 11.1 0 9.6-13.9 13.8-20 6l-2.1-2.7 2.1-1.7c2.1-1.7 2.3-1.7 4.2.8 2.7 3.4 7.6 3 9.7-.8 1.4-2.4 1.4-2.8-.2-4.6-1-1.1-3.8-2.5-6.3-3.1-8.4-2.1-10.8-8-5.8-14 3.2-3.8 8.7-4.3 12.8-1m117.6.3c0 1.7-.5 2.3-1.7 2.2q-1.8 0-2.1 2.1c-.3 1.8.2 2.3 1.7 2.3 1.6 0 2.1.6 2.1 2.5 0 1.8-.5 2.5-2 2.5-1.9 0-2 .7-2 9.5 0 9.5 0 9.5-2.5 9.5s-2.5 0-2.5-9.5c0-7.8-.3-9.5-1.5-9.5-.9 0-1.5-.9-1.5-2.5s.6-2.5 1.5-2.5 1.5-1 1.5-2.6c0-4.4 1.7-6.4 5.5-6.4 3 0 3.5.3 3.5 2.4m84.4-.3c1.4 1.1 2.6 2.4 2.6 2.9 0 1.4-4.1 2.3-5.3 1.1-1.6-1.6-5.3-1.3-6.8.5-1.8 2.2 0 4.7 4.1 5.5 6.9 1.4 11 5.6 11 11.1 0 9.6-13.9 13.8-20 6l-2.1-2.7 2.1-1.7c2.1-1.7 2.3-1.7 4.2.8 2.7 3.4 7.6 3 9.7-.8 1.4-2.4 1.4-2.8-.2-4.6-1-1.1-3.8-2.5-6.3-3.1-8.4-2.1-10.8-8-5.8-14 3.2-3.8 8.7-4.3 12.8-1m45.6 14.4V445h-6v-15.3c0-15 .1-15.4 2.3-16.5 1.2-.6 2.5-1.1 3-1.1.4-.1.7 7.3.7 16.4m42-12c0 3.8.3 4.5 2 4.5 1.5 0 2 .7 2 2.5s-.5 2.5-2 2.5c-1.8 0-2 .7-2 7.6 0 7 .1 7.5 1.9 6.9 1.6-.5 1.8-.2 1.4 1.5-.8 3.1-3.6 4.2-6.1 2.4-2-1.3-2.2-2.4-2.2-10 0-7.7-.2-8.4-2-8.4-1.5 0-2-.7-2-2.5s.5-2.5 2-2.5c1.6 0 2-.7 2-3.5 0-2.2.6-3.8 1.8-4.4 2.8-1.7 3.2-1.3 3.2 3.4m16.3-3.1c.3.8-.1 2-.9 2.7-1.2 1-1.8.9-3.1-.3-.8-.9-1.2-2.1-.9-2.7 1-1.6 4.3-1.4 4.9.3m-276.5 9.9c1.2 1.1 2.2 2.4 2.2 2.8 0 1.5-4.4 1.7-6.6.3-3.2-2.1-6.1-.4-7 4.1-1.3 7.3 2.6 11.4 8.1 8.5 1.6-.8 2.8-.9 4.1-.2 1.6.9 1.5 1.2-.9 3.6-3.5 3.5-9.4 3.6-13.4.2-2.6-2.2-2.8-3-2.8-9.4 0-6 .3-7.4 2.4-9.6 3.7-3.9 9.7-4 13.9-.3m26.2.2c1.1 1.2 1.6 4.2 1.8 11.5l.4 10h-4.4c-2.3.1-5.3.1-6.6.1-5.6.2-9-5.4-7-11.3 1.2-3.5 3.5-4.8 8.2-4.8 2.5 0 3.6-.5 3.6-1.4 0-2-3.2-2.9-6.2-1.7-1.7.7-2.9.6-3.7-.2-1.9-1.9-1.2-3.6 1.7-4.3 1.5-.3 3.2-.7 3.7-.8 1.7-.5 6.8 1.3 8.5 2.9m84.8-.2c1.9 2 3.2 8.5 2.5 12.9-1.4 9-10.6 12.1-16.5 5.7-2.4-2.5-2.8-3.8-2.8-8.8 0-9.3 4.9-13.9 12.5-11.9 1.6.4 3.5 1.4 4.3 2.1m22.6-.4c-.4 4.2-.4 4.2-2.3 3.1-3.6-1.9-5.1 1.1-5.1 10.6 0 8.3 0 8.4-2.5 8.4h-2.5v-24.1l3.5.3c1.9.1 3.7-.1 4.1-.4.9-1 4.9.8 4.8 2.1m68.4.4c1.9 2 3.2 8.5 2.5 12.9-1.4 9-10.6 12.1-16.5 5.7-2.4-2.5-2.8-3.8-2.8-8.8 0-9.3 4.9-13.9 12.5-11.9 1.6.4 3.5 1.4 4.3 2.1m100 0c1.9 2 3.2 8.5 2.5 12.9-1.4 9-10.6 12.1-16.5 5.7-2.4-2.5-2.8-3.8-2.8-8.8 0-9.3 4.9-13.9 12.5-11.9 1.6.4 3.5 1.4 4.3 2.1m-249.9.4c1.8 2.2 2.1 4 2.1 11.9 0 9.4 0 9.4-2.5 9.4s-2.5-.1-2.5-8.4c0-8.6-1.2-11.6-4.5-11.6s-4.5 3-4.5 11.6c0 8.3 0 8.4-2.5 8.4h-2.5v-23.8l7.4-.1c6.9-.1 7.6.1 9.5 2.6m179.1 5.7c0 6.4.4 8.8 1.6 10 1.8 1.9 2.8 2 5.5.6 1.7-.9 1.9-2.2 1.9-10 0-8.9 0-9 2.5-9h2.5v23.9l-4.7.1c-2.7.1-5.9.1-7.2.2-1.3 0-3.3-1-4.5-2.1-1.8-1.9-2.1-3.6-2.4-12.1l-.4-10h2.6c2.6 0 2.6 0 2.6 8.4m46 3.6v12h-6v-24h6zm50.9-9.3c1.8 2.2 2.1 4 2.1 11.9 0 9.4 0 9.4-2.5 9.4s-2.5-.1-2.5-8.4c0-8.6-1.2-11.6-4.5-11.6s-4.5 3-4.5 11.6c0 8.3 0 8.4-2.5 8.4h-2.5v-23.8l7.4-.1c6.9-.1 7.6.1 9.5 2.6m-859.4 44.2c-1.6 1.5-25 14-35 18.6l-9.5 4.4v-7.3c0-4-.3-9.4-.6-12l-.7-4.6h23.4c14.1 0 22.9.4 22.4.9M743 597.2c-.7 6.7-1.3 12.4-1.5 12.6-.1.1-8.9.1-19.6 0l-19.4-.3 10.5-7.1c10.9-7.4 30.1-18.6 30.8-18 .2.2-.2 6-.8 12.8m-61 25.5c-11.7 12-17.6 19.9-25 33.6l-4.2 7.7h-16.9c-9.9 0-16.9-.4-16.9-.9 0-.6 1.4-5.2 3.1-10.3 3.8-11.5 9.5-23.9 15.6-34.1l4.7-7.7h51.2zm107.5 9c0 11.5.3 23.4.8 26.5l.7 5.8h-40.8l-.6-3.3c-1.3-7.1-3.6-32.6-3.6-41V611h43.5zm-43 35.5c3.5 16 6.8 29.5 8.6 34.8 10.7 32.5 28 63.7 48.9 87.8l7.1 8.2-82.8-.2-82.8-.3-1.2-10c-5.6-46.9-2.6-81.9 10-114.3l3.1-8.2H746zm-104 136.5c.6 4.7 7 37.5 8.2 42 .4 1.9.1 2.3-2 2.3-2.2 0-3-1.3-8.5-14.3-3.3-7.8-7.6-18.8-9.6-24.5l-3.5-10.2h14.7zm215 4.3c10.4 11.8 28.2 28 40.4 36.8l4.5 3.2h-18.7l-9.1-5.2c-17.3-9.8-33-21.5-48.7-36.2l-8.1-7.6h31.7zm29.6 46.3c6.3 3 16.1 7.1 21.9 9.1 5.8 2.1 11.3 4.1 12.4 4.5 1 .4-23.1 1.5-53.5 2.4-59.1 1.9-205.6 4.3-206.5 3.5-.4-.5-5.4-22.8-5.4-24.3 0-.3 49.4-.5 109.9-.5h109.8zm442.8 190.8c6.7 4.1 18.7 13.7 25.5 20.5 27 27.1 42.5 61.6 45.2 100.9l.7 9.5H1131v-101.8l10.4-9.9c5.7-5.5 14.1-12.5 18.7-15.6l8.3-5.7h79c78.6 0 79.1 0 82.5 2.1m142.7 143.3c-.9 15.8-4.5 35.6-8.7 48.3l-1.1 3.3h-36c-33.9 0-36-.1-35.3-1.8 6.8-16.4 10.9-32.5 12.6-49.2l1.3-12h67.9zm-91.1 59.3c-21.7 39.6-60.1 67.6-104.7 76.5-9.4 1.9-14.5 2.2-29.8 2.2-26.7-.1-41.3-3.3-64.7-14.4-15.9-7.5-28.3-16.2-41-28.4l-10.3-9.9V1241h254.2zM1132.8 1373l4.7 3h-5.2c-5.2 0-5.3 0-5.3-3 0-1.7.2-3 .5-3s2.6 1.3 5.3 3m212.1 4.4c-.8.9-18.6 7.8-27.3 10.7-35.9 12-77.3 14.3-117.1 6.3-8.7-1.7-31.1-8.9-41.5-13.2l-6.5-2.7 9-.6c10.5-.6 184-1.1 183.4-.5"/><path d="M385.1 49.4c-.7.9-1.1 4.1-.9 8.3l.3 6.8 3.5.3c4.4.5 6-1.7 6-8 0-3.5-.6-5.4-2-6.8-2.3-2.3-5.3-2.6-6.9-.6M841.2 40.2c-1.9 1.9-1.5 6.6.7 7.8 4.7 2.4 11.1 0 11.1-4.2 0-3.9-8.8-6.6-11.8-3.6M968.9 39.4c-3.4 1.6-5.2 7.7-4.6 15.1.5 4.9 1 6.4 3.2 8.3 3 2.5 5.7 2.3 8.9-.8 2.8-2.7 3.4-14.3.9-18.9-2.1-4.1-5.1-5.4-8.4-3.7M1016.6 55.3c-2.7 2-1.8 6.9 1.7 8.5 6.2 3 12.8-3.9 7.7-8-2.6-2.1-6.9-2.3-9.4-.5M1129.9 39.4c-3.4 1.6-5.2 7.7-4.6 15.1.5 4.9 1 6.4 3.2 8.3 3 2.5 5.7 2.3 8.9-.8 2.8-2.7 3.4-14.3.9-18.9-2.1-4.1-5.1-5.4-8.4-3.7M1173 43.5v4.6l5.8-.3c5.4-.3 5.7-.4 6-3.1.5-4.2-1.3-5.7-6.9-5.7h-4.9zM1359 43.5v4.6l5.8-.3c5.4-.3 5.7-.4 6-3.1.5-4.2-1.3-5.7-6.9-5.7h-4.9zM1479 43.5v4.6l5.8-.3c5.4-.3 5.7-.4 6-3.1.5-4.2-1.3-5.7-6.9-5.7h-4.9zM1572 51.5V64h3.8c2.8 0 4.5-.7 6.3-2.6 2.1-2.2 2.4-3.5 2.4-9.9s-.3-7.7-2.4-9.9c-1.8-1.9-3.5-2.6-6.3-2.6h-3.8zM101.6 49.9c-2.5 2.7-2.5 10.5-.1 13.1 3.9 4.3 9 .7 9-6.5 0-7.1-5.1-10.8-8.9-6.6M162.7 49.8c-2.9 3.2-2.1 4.2 3.3 4.2 5.2 0 5.8-.7 4-4.1-1.3-2.4-5.2-2.5-7.3-.1M189.7 49.8c-2.9 3.2-2.1 4.2 3.3 4.2 5.2 0 5.8-.7 4-4.1-1.3-2.4-5.2-2.5-7.3-.1M266.1 58.4c-1.7 2.1-.6 6.3 1.9 7.1 3.4 1.1 6.2-1.2 5.8-4.8-.3-2.8-.7-3.2-3.4-3.5-1.9-.2-3.6.3-4.3 1.2M317.7 49.8c-2.9 3.2-2.1 4.2 3.3 4.2 5.2 0 5.8-.7 4-4.1-1.3-2.4-5.2-2.5-7.3-.1M493.1 58.4c-1.7 2.1-.6 6.3 1.9 7.1 3.4 1.1 6.2-1.2 5.8-4.8-.3-2.8-.7-3.2-3.4-3.5-1.9-.2-3.6.3-4.3 1.2M544.7 49.8c-2.9 3.2-2.1 4.2 3.3 4.2 5.2 0 5.8-.7 4-4.1-1.3-2.4-5.2-2.5-7.3-.1M591.1 58.4c-1.7 2.1-.6 6.3 1.9 7.1 3.4 1.1 6.2-1.2 5.8-4.8-.3-2.8-.7-3.2-3.4-3.5-1.9-.2-3.6.3-4.3 1.2M750.1 58.4c-1.7 2.1-.6 6.3 1.9 7.1 3.4 1.1 6.2-1.2 5.8-4.8-.3-2.8-.7-3.2-3.4-3.5-1.9-.2-3.6.3-4.3 1.2M1409.5 436c-.9 2.8 1.3 5.2 4.4 4.8 2.1-.2 2.7-.9 2.9-3.6.3-3.1.2-3.2-3.2-3.2-2.6 0-3.6.5-4.1 2M1495.2 427.2c-1.5 1.5-1.6 8.2-.2 10.9 1.3 2.3 5.3 2.5 7.1.3.7-.9 1.4-3.3 1.4-5.4s-.7-4.5-1.4-5.4c-1.6-1.9-5.2-2.1-6.9-.4M1586.2 427.2c-1.5 1.5-1.6 8.2-.2 10.9 1.3 2.3 5.3 2.5 7.1.3.7-.9 1.4-3.3 1.4-5.4s-.7-4.5-1.4-5.4c-1.6-1.9-5.2-2.1-6.9-.4M1686.2 427.2c-1.5 1.5-1.6 8.2-.2 10.9 1.3 2.3 5.3 2.5 7.1.3.7-.9 1.4-3.3 1.4-5.4s-.7-4.5-1.4-5.4c-1.6-1.9-5.2-2.1-6.9-.4M1619 48.5V73h49V24h-49zm42 0V66h-35V31h35z"/><path d="M1633 48.5V59h21V38h-21zM1675 34.5V45h21V24h-7v14h-7V24h-7z"/><path d="M1710 27.5c0 3.3.2 3.5 3.5 3.5h3.5v14h-3.5c-3.3 0-3.5.2-3.5 3.5V52h-21v7h-14v28h-3.5c-3.3 0-3.5-.2-3.5-3.5s-.2-3.5-3.5-3.5-3.5.2-3.5 3.5.2 3.5 3.5 3.5 3.5.2 3.5 3.5-.2 3.5-3.5 3.5-3.5.2-3.5 3.5v3.5h-14v-3.5c0-3.3.2-3.5 3.5-3.5h3.5V80h-21v14h3.5c3.3 0 3.5.2 3.5 3.5s-.2 3.5-3.5 3.5-3.5.2-3.5 3.5v3.5h-14v3.5c0 3.3.2 3.5 3.5 3.5h3.5v14h3.5c3.3 0 3.5-.2 3.5-3.5s.2-3.5 3.5-3.5 3.5-.2 3.5-3.5.2-3.5 3.5-3.5 3.5-.2 3.5-3.5V108h14v3.5c0 3.3-.2 3.5-3.5 3.5h-3.5v14h-14v3.5c0 3.3-.2 3.5-3.5 3.5s-3.5.2-3.5 3.5.2 3.5 3.5 3.5 3.5.2 3.5 3.5-.2 3.5-3.5 3.5h-3.5v21h3.5c3.3 0 3.5-.2 3.5-3.5V164h14v-3.5c0-3.3-.2-3.5-3.5-3.5s-3.5-.2-3.5-3.5.2-3.5 3.5-3.5 3.5-.2 3.5-3.5V143h-14v-7h21v3.5c0 3.3.2 3.5 3.5 3.5s3.5.2 3.5 3.5-.2 3.5-3.5 3.5-3.5.2-3.5 3.5.2 3.5 3.5 3.5 3.5-.2 3.5-3.5.2-3.5 3.5-3.5 3.5-.2 3.5-3.5.2-3.5 3.5-3.5 3.5.2 3.5 3.5v3.5h14v-14h3.5c3.3 0 3.5.2 3.5 3.5s.2 3.5 3.5 3.5h3.5v-14h7v14h7v-14h7v-14h21v7h-14v14h-3.5c-3.3 0-3.5.2-3.5 3.5s.2 3.5 3.5 3.5 3.5.2 3.5 3.5v3.5h-28v7h14v7h14v14h3.5c3.3 0 3.5.2 3.5 3.5s-.2 3.5-3.5 3.5-3.5.2-3.5 3.5-.2 3.5-3.5 3.5h-3.5v-14h-3.5c-3.3 0-3.5-.2-3.5-3.5s-.2-3.5-3.5-3.5-3.5-.2-3.5-3.5V164h-21v-3.5c0-3.3-.2-3.5-3.5-3.5h-3.5v14h-3.5c-3.3 0-3.5-.2-3.5-3.5s-.2-3.5-3.5-3.5h-3.5v14h7v14h-7v21h7v14h35v-7h14v7h14v-3.5c0-3.3.2-3.5 3.5-3.5s3.5-.2 3.5-3.5.2-3.5 3.5-3.5 3.5-.2 3.5-3.5.2-3.5 3.5-3.5 3.5.2 3.5 3.5.2 3.5 3.5 3.5 3.5.2 3.5 3.5.2 3.5 3.5 3.5h3.5v-14h7v21h3.5c3.3 0 3.5-.2 3.5-3.5s.2-3.5 3.5-3.5 3.5.2 3.5 3.5.2 3.5 3.5 3.5 3.5-.2 3.5-3.5.2-3.5 3.5-3.5h3.5v-14h-7v-14h-3.5c-3.3 0-3.5-.2-3.5-3.5s-.2-3.5-3.5-3.5-3.5-.2-3.5-3.5.2-3.5 3.5-3.5 3.5-.2 3.5-3.5-.2-3.5-3.5-3.5-3.5-.2-3.5-3.5.2-3.5 3.5-3.5h3.5v-14h21v-14h-7v-14h7v-14h-3.5c-3.3 0-3.5-.2-3.5-3.5s-.2-3.5-3.5-3.5h-3.5V87h3.5c3.3 0 3.5.2 3.5 3.5s.2 3.5 3.5 3.5h3.5V80h-21v7h-14v-7h-21V59h-7V45h3.5c3.3 0 3.5-.2 3.5-3.5s-.2-3.5-3.5-3.5-3.5-.2-3.5-3.5.2-3.5 3.5-3.5 3.5-.2 3.5-3.5-.2-3.5-3.5-3.5-3.5.2-3.5 3.5-.2 3.5-3.5 3.5-3.5-.2-3.5-3.5V24h-28v3.5c0 3.3-.2 3.5-3.5 3.5s-3.5-.2-3.5-3.5-.2-3.5-3.5-3.5-3.5.2-3.5 3.5m28 7c0 3.3.2 3.5 3.5 3.5s3.5-.2 3.5-3.5.2-3.5 3.5-3.5 3.5.2 3.5 3.5-.2 3.5-3.5 3.5-3.5.2-3.5 3.5.2 3.5 3.5 3.5 3.5.2 3.5 3.5-.2 3.5-3.5 3.5h-3.5v21h7V59h7v14h-3.5c-3.3 0-3.5.2-3.5 3.5s-.2 3.5-3.5 3.5-3.5.2-3.5 3.5V87h28v21h28v-3.5c0-3.3.2-3.5 3.5-3.5h3.5v35h3.5c3.3 0 3.5.2 3.5 3.5s-.2 3.5-3.5 3.5-3.5-.2-3.5-3.5-.2-3.5-3.5-3.5-3.5-.2-3.5-3.5-.2-3.5-3.5-3.5-3.5.2-3.5 3.5v3.5h-14v7h-21v7h14v14h-3.5c-3.3 0-3.5-.2-3.5-3.5s-.2-3.5-3.5-3.5-3.5-.2-3.5-3.5-.2-3.5-3.5-3.5-3.5-.2-3.5-3.5.2-3.5 3.5-3.5 3.5-.2 3.5-3.5V136h14v-3.5c0-3.3-.2-3.5-3.5-3.5s-3.5-.2-3.5-3.5V122h14v-3.5c0-3.3-.2-3.5-3.5-3.5s-3.5-.2-3.5-3.5-.2-3.5-3.5-3.5-3.5.2-3.5 3.5v3.5h-14V94h-14v7h-14v3.5c0 3.3.2 3.5 3.5 3.5s3.5.2 3.5 3.5v3.5h-14v7h-14v3.5c0 3.3-.2 3.5-3.5 3.5s-3.5.2-3.5 3.5-.2 3.5-3.5 3.5-3.5.2-3.5 3.5-.2 3.5-3.5 3.5-3.5-.2-3.5-3.5.2-3.5 3.5-3.5 3.5-.2 3.5-3.5.2-3.5 3.5-3.5 3.5-.2 3.5-3.5V122h-14v3.5c0 3.3-.2 3.5-3.5 3.5s-3.5.2-3.5 3.5v3.5h-14v-7h14v-7h-14v-3.5c0-3.3.2-3.5 3.5-3.5s3.5-.2 3.5-3.5-.2-3.5-3.5-3.5-3.5-.2-3.5-3.5V101h14v21h3.5c3.3 0 3.5-.2 3.5-3.5V115h14V94h-3.5c-3.3 0-3.5.2-3.5 3.5s-.2 3.5-3.5 3.5-3.5-.2-3.5-3.5-.2-3.5-3.5-3.5-3.5-.2-3.5-3.5.2-3.5 3.5-3.5h3.5V66h3.5c3.3 0 3.5.2 3.5 3.5s.2 3.5 3.5 3.5h3.5V59h14v-3.5c0-3.3.2-3.5 3.5-3.5s3.5-.2 3.5-3.5.2-3.5 3.5-3.5 3.5-.2 3.5-3.5.2-3.5 3.5-3.5 3.5-.2 3.5-3.5.2-3.5 3.5-3.5 3.5.2 3.5 3.5m49 63c0 3.3-.2 3.5-3.5 3.5s-3.5-.2-3.5-3.5.2-3.5 3.5-3.5 3.5.2 3.5 3.5m-28 28c0 3.3-.2 3.5-3.5 3.5s-3.5-.2-3.5-3.5.2-3.5 3.5-3.5 3.5.2 3.5 3.5m-14 14c0 3.3-.2 3.5-3.5 3.5s-3.5-.2-3.5-3.5.2-3.5 3.5-3.5 3.5.2 3.5 3.5m0 14c0 3.3.2 3.5 3.5 3.5h3.5v14h3.5c3.3 0 3.5.2 3.5 3.5v3.5h-14v-21h-3.5c-3.3 0-3.5-.2-3.5-3.5s.2-3.5 3.5-3.5 3.5.2 3.5 3.5m42 0c0 3.3.2 3.5 3.5 3.5s3.5.2 3.5 3.5v3.5h-14v-14h3.5c3.3 0 3.5.2 3.5 3.5m-84 28V192h3.5c3.3 0 3.5.2 3.5 3.5s.2 3.5 3.5 3.5h3.5v-14h-3.5c-3.3 0-3.5-.2-3.5-3.5s.2-3.5 3.5-3.5 3.5.2 3.5 3.5.2 3.5 3.5 3.5 3.5.2 3.5 3.5.2 3.5 3.5 3.5h3.5v21h-14v7h-28v-14h-7v-14h7v14h3.5c3.3 0 3.5.2 3.5 3.5s.2 3.5 3.5 3.5 3.5-.2 3.5-3.5.2-3.5 3.5-3.5 3.5-.2 3.5-3.5-.2-3.5-3.5-3.5-3.5-.2-3.5-3.5-.2-3.5-3.5-3.5h-3.5v-14h-3.5c-3.3 0-3.5-.2-3.5-3.5V171h14zm84 0V192h-21v-21h21zm-28 14c0 3.3-.2 3.5-3.5 3.5h-3.5v14h-3.5c-3.3 0-3.5-.2-3.5-3.5s-.2-3.5-3.5-3.5-3.5-.2-3.5-3.5V199h14v-3.5c0-3.3.2-3.5 3.5-3.5s3.5.2 3.5 3.5m21 7v3.5h-14v-7h14zm21 0v3.5h-14v-7h14zm7 14c0 3.3-.2 3.5-3.5 3.5s-3.5-.2-3.5-3.5.2-3.5 3.5-3.5 3.5.2 3.5 3.5"/><path d="M1724 48.5c0 3.3.2 3.5 3.5 3.5s3.5.2 3.5 3.5V59h-21v3.5c0 3.3-.2 3.5-3.5 3.5s-3.5.2-3.5 3.5-.2 3.5-3.5 3.5-3.5.2-3.5 3.5V80h21v3.5c0 3.3.2 3.5 3.5 3.5s3.5.2 3.5 3.5V94h14v-7h-14V66h3.5c3.3 0 3.5.2 3.5 3.5s.2 3.5 3.5 3.5 3.5-.2 3.5-3.5-.2-3.5-3.5-3.5-3.5-.2-3.5-3.5.2-3.5 3.5-3.5 3.5-.2 3.5-3.5.2-3.5 3.5-3.5 3.5-.2 3.5-3.5-.2-3.5-3.5-3.5-3.5.2-3.5 3.5-.2 3.5-3.5 3.5-3.5-.2-3.5-3.5-.2-3.5-3.5-3.5-3.5.2-3.5 3.5m-7 21c0 3.3-.2 3.5-3.5 3.5s-3.5-.2-3.5-3.5.2-3.5 3.5-3.5 3.5.2 3.5 3.5M1682 90.5c0 3.3.2 3.5 3.5 3.5s3.5-.2 3.5-3.5-.2-3.5-3.5-3.5-3.5.2-3.5 3.5M1703 90.5c0 3.3.2 3.5 3.5 3.5s3.5-.2 3.5-3.5-.2-3.5-3.5-3.5-3.5.2-3.5 3.5M1759 97.5c0 3.3.2 3.5 3.5 3.5s3.5-.2 3.5-3.5-.2-3.5-3.5-3.5-3.5.2-3.5 3.5M1703 108v7h7v-14h-7zM1787 118.5v3.5h14v-7h-14zM1773 181.5c0 3.3.2 3.5 3.5 3.5s3.5-.2 3.5-3.5-.2-3.5-3.5-3.5-3.5.2-3.5 3.5M1773 48.5V73h49V24h-49zm42 0V66h-35V31h35z"/><path d="M1787 48.5V59h21V38h-21zM181.8 101.6 175 105v21h-11v14h11v22.4c0 13.5.4 23.6 1.1 25.3 2.6 6.9 9.6 10.9 16.5 9.5 3.7-.7 4-1 6.1-7.2 2.8-8.4 2.8-9.4.4-8-1.1.5-3.4 1-5.1 1-4.5 0-5-2.5-5-24.1V140h13v-14h-12.9l-.3-13.9-.3-13.9zM16 148v48h60v-16H31v-26h29v-15H31v-24h42v-15H16zM115.6 125.5c-2.1.8-4.5 2-5.2 2.6-1.1.9-1.4.7-1.4-1 0-2-.5-2.1-7.5-2.1H94v71h15v-22.8c0-12.5.5-24.3 1-26.3 1.7-6 5.2-8.4 12.1-8.4 5.3 0 6.2.3 9.1 3.3l3.3 3.2.3 25.5.3 25.5H150v-24.8c0-27.3-.7-31.7-5.9-38.9-1.6-2.2-4.6-4.8-6.7-5.8-5.1-2.5-16.5-3-21.8-1M233.4 126.4c-6.2 2.9-11.7 9.1-14.6 16.5-3.2 8.5-3.7 24.7-.9 33.9 3.5 11.6 11.9 19.1 23.2 20.7 6.1.9 16.4-1.7 20.9-5.4 3.9-3.1 8.2-8.9 7.7-10.4-.1-.5-3-2.1-6.4-3.5l-6.2-2.5-3 3.1c-8 8-20.3 3.3-22.5-8.6l-.5-3.2H273v-4.3c-.1-12.4-4.8-26.3-10.7-31.9-7.3-6.9-19.4-8.8-28.9-4.4m16.7 13.1c3.6 1.9 6.9 7 6.9 10.7v2.8h-13c-14.1 0-14.1 0-11.9-5.7 3-8 11-11.4 18-7.8M291 160v36h16v-24.5c0-26.1.5-29.1 4.9-31.5 3.1-1.6 8.6-1.2 11.3.9l2.5 2 2.1-6.2c1.2-3.4 2.2-6.8 2.2-7.5 0-1.9-7.8-5.2-12.3-5.2-4.3 0-9.1 2.1-10.6 4.7-.9 1.5-1 1.2-1.1-1.5V124h-15zM1619 153.5V171h7v-35h-7z"/><path d="M534 146.2c-3.8 8.6-5.2 16.2-5.7 30.3-.5 12.5.3 23.2 2.4 31.2l.5 2.3H316.5l-5 2.4c-18.3 8.7-22.4 32.9-7.9 46.8 2.2 2 5.9 4.6 8.4 5.7 4.3 2 6.4 2.1 50.6 2.1h46.2l1.2 4.7c3.6 13.9 1.8 34.1-4.6 52.5-6.2 17.8-14.1 32.8-30.4 58.1l-7.5 11.6-85 .3-85 .3-6.7 3.3c-7.7 3.8-13 9.2-16.7 17.1-2.3 4.9-2.6 6.9-2.6 15.6 0 9.3.2 10.5 3.3 16.7 3.8 7.7 9.2 13 17.1 16.7l5.6 2.6 64.1.3 64.1.3-3.3 10.4c-6.8 21.5-7.9 29.4-7.9 56 0 19.2.4 25.7 1.8 32.5 2.5 11.8 6.3 24.6 10.3 34.8 1.9 4.8 3.4 8.8 3.4 8.9 0 .2-7.5.3-16.7.3-18.1.1-21.7.8-27.8 5.4-1.9 1.5-4.7 4.8-6.2 7.4-2.6 4.3-2.8 5.6-2.8 14.7s.2 10.4 2.8 14.7c1.5 2.6 4.3 5.9 6.2 7.4 6.8 5.1 8.3 5.3 47.1 5.4h36.1l11 11.7c31.7 33.9 42.2 49.5 47.7 70.4 4.5 17.5 5.4 31.7 2.9 47.1l-.6 3.8H277.6c-124.4.1-152.8.3-155.9 1.4-5.5 2-10.3 6.1-13.4 11.4-2.4 4.1-2.8 5.8-2.8 12.7s.4 8.6 2.8 12.7c3.1 5.3 7.9 9.4 13.4 11.4 3.1 1.1 29.7 1.3 145.6 1.4 92.2 0 141.7.3 141.7 1 0 1.2-14 15.3-17.2 17.4-2 1.3-7.1 1.2-41.3-.5-21.4-1-54.7-2.8-74-4-19.2-1.2-38.9-1.9-43.6-1.6-19.9 1.3-39.5 14.2-48.6 32.2-6.9 13.4-6.7 12-7.1 57.2l-.3 41.3H56V665h71.3c56.9-.1 72-.4 75-1.4 5.5-2 10.3-6.1 13.4-11.4 2.6-4.3 2.8-5.6 2.8-14.7s-.2-10.4-2.8-14.7c-3.1-5.3-7.9-9.4-13.4-11.4-3-1-18.1-1.3-75-1.4H56V467.2l16.3-.4c15-.3 16.6-.5 21.8-2.9 7.9-3.7 13.3-9 17.1-16.7 3.1-6.2 3.3-7.4 3.3-16.7s-.2-10.5-3.3-16.7c-3.8-7.7-9.2-13-17.1-16.7-5.2-2.4-6.8-2.6-21.9-2.9l-16.2-.4V267h161.5l5-2.4c10.5-5 16.5-14.4 16.5-26.1s-6-21.1-16.5-26.1l-5-2.4H24v1614h1800v-58h-675.4l10.7-10.8c5.8-5.9 11.1-12 11.6-13.6 3.2-8.2-.3-18.9-7.7-24.1l-4.4-3-383-.3c-253.9-.1-384.3.1-386.8.8-5.5 1.5-11.5 6.3-14.7 11.7-2.5 4.3-2.8 5.7-2.8 13.8 0 8 .3 9.5 2.8 13.7 3.1 5.3 7.9 9.4 13.4 11.4 3.2 1.1 68.1 1.3 378.8 1.4h375l-17.5 17.5-17.5 17.5h-905l-17.5-17.5-17.5-17.5H225c46.3-.1 59.3-.4 62.3-1.4 5.5-2 10.3-6.1 13.4-11.4 2.5-4.2 2.8-5.7 2.8-13.7 0-8.1-.3-9.5-2.8-13.8-3.2-5.5-9.2-10.2-14.8-11.7-2.5-.7-26.9-1-70.1-.8-64.2.3-66.4.4-69.7 2.3-5.6 3.3-9.3 8.7-9.9 14.4-.9 9.8 0 11.6 12.1 23.8l11.1 11.3H56v-123h29.3c27.2 0 29.5-.2 33.7-2.1 6-2.7 11.7-8.3 14.6-14.4 2.1-4.3 2.4-6.5 2.4-16s-.3-11.7-2.4-16c-2.9-6.1-8.6-11.7-14.6-14.4-4.2-1.9-6.5-2.1-33.7-2.1H56v-131h143.6l3.8 9.7c15.3 39.1 38.3 76.2 68.4 110.5l9.4 10.8h-33.9c-31.8 0-34.1.2-38.3 2.1-6 2.7-11.7 8.3-14.6 14.4-2.1 4.3-2.4 6.5-2.4 16s.3 11.7 2.4 16c2.9 6.1 8.6 11.7 14.6 14.4 4.4 2 6.3 2.1 79.7 2.1h75.2l6.2 3.7c10.5 6.1 35.6 17.7 49.9 23.1 33.3 12.5 64.6 19.6 99.6 22.7 22.9 2 108 2.1 113.7.1 5.5-2 10.3-6.1 13.4-11.4 2.5-4.1 2.8-5.7 2.8-13.2s-.3-9.1-2.8-13.2c-3.1-5.3-7.9-9.4-13.4-11.4-3.1-1.1-27.7-1.3-133.2-1.4H370.7l-10.1-6.2c-12.1-7.4-27.3-17.9-37-25.6-8.8-6.9-34.6-29.5-34.6-30.2 0-.3 16.1-.2 35.7.3 19.7.4 44.8.6 55.8.5 19.2-.3 20.2-.4 25.6-2.9 7.8-3.7 13.4-9 16.9-16.3 3.2-6.6 4.4-12.4 6-28.6 1.1-10.9 2.2-19.2 4.1-30.9 1.5-8.9.7-15.1-3.1-22.7q-5.4-10.95-16.8-16.2c-4.8-2.1-8.8-2.8-30.6-4.8-24.8-2.3-71.4-5.4-110.1-7.4-11-.5-29.2-1.7-40.5-2.5s-22.5-1.6-25-1.8l-4.5-.2-4.3-14c-6-19.9-9.1-32.1-10.2-41.1-.6-4.4-1.3-9.4-1.6-11.2l-.7-3.4 11.9.7c6.6.3 17.8 1 24.9 1.5 35.4 2.4 46.3 3.1 74 4.5 35.3 1.8 64.6 4.1 122 9.5 107.8 10.1 185.9 15.3 194.6 13 10.8-2.9 19-9.7 23.8-19.9l2.6-5.6v-123l-3.3-6.7c-3.8-7.7-9.2-13-17.1-16.7l-5.6-2.6-45 .1c-24.7.1-82.3 1.4-128 2.8-45.6 1.4-109.1 3-141 3.6-31.9.5-71.6 1.3-88.2 1.6l-30.3.7v-63.1l16.2-.7c9-.3 22.2-1.1 29.3-1.6 7.2-.5 31.9-1.8 55-2.9 59.2-2.7 74.7-3.8 151.5-10 129.8-10.5 157.5-12 228.5-12 74.6 0 140.7 3.4 242.5 12.6 21.7 2 42.1 3.4 45.2 3.1 12-1 22.6-8.4 28-19.5l3.3-6.7v-79l-3.3-6.7c-3.7-7.7-9.2-13-16.9-16.5-4.7-2.2-8.2-2.7-24.6-3.9-10.6-.8-41.5-3.5-68.7-5.9-61.1-5.5-84.3-7.2-117-8.4-95.2-3.7-157.9-2-291 7.9-64.8 4.9-134.6 9.1-180.5 11-13.7.6-31.7 1.5-40 2-8.2.5-24.6 1.3-36.2 1.6l-21.3.7v-49l35.8-.6c38.2-.7 103.7-2.7 166.2-5.2 21.2-.8 43-1.6 48.5-1.8 8.9-.2 10.6-.6 14.7-3 5.3-3.1 9.4-7.9 11.4-13.4 1.9-5.5 1.9-77.1 0-82.6-2-5.5-6.1-10.3-11.3-13.4-4.4-2.5-5.5-2.7-23.7-3.5-10.5-.4-19.8-.9-20.6-1.1-.8-.1 1.6-2.4 5.5-5.2 3.9-2.7 9.5-7.1 12.6-9.7l5.7-4.8h46.3c36.1-.1 47.2-.4 50.2-1.4 5.5-2 10.3-6.1 13.4-11.4 2.4-4.1 2.8-5.8 2.8-12.7s-.4-8.6-2.8-12.7c-1.5-2.6-4.3-5.9-6.2-7.4-6.6-5-8.7-5.3-41.2-5.4-16.7 0-30.3-.2-30.3-.4 0-.3 1.2-5.3 2.8-11.3 2.5-10.1 2.7-12.1 2.7-32.3 0-21-.1-21.8-3.3-33.5-3.8-14.2-11.9-31.6-21.4-45.8l-6.6-9.7h10.7c15.4-.1 22.2-3.2 27.8-12.8 2.6-4.3 2.8-5.6 2.8-14.7s-.2-10.4-2.8-14.7c-1.5-2.6-4.3-5.9-6.2-7.4-6.7-5.1-8.6-5.3-42.6-5.4h-31.7l-6-12.3c-19.9-39.8-20.9-82-3.1-123.7l2.7-6.5 77.4-.5 77.3-.5 6.7-3.3c7.7-3.8 13-9.2 16.7-17.1 2.3-4.9 2.6-6.9 2.6-15.6s-.3-10.7-2.6-15.6c-3.7-7.9-9-13.3-16.7-17.1l-6.7-3.3-57.7-.3c-37.8-.2-57.8-.6-57.8-1.3 0-.5 1.2-3.3 2.6-6.1 4.1-8.1 12.3-31.1 14.9-42.1 5.6-23.2 5.5-51-.4-69.1l-2.7-8.6h121.30000000000001l3.4 4.7c8.8 12.4 39.8 41.5 48.1 45.3 17.3 7.9 35-9.4 26.6-26-2-3.9-4.3-5.8-16.7-14l-14.5-9.5 38.5-.5c37-.5 38.5-.6 42.4-2.7 9.9-5.3 15.5-14.6 15.5-25.8s-5.6-20.5-15.5-25.8c-4-2.2-4.7-2.2-68.5-2.7l-64.5-.5-3.2-6.5c-7.4-15-11.7-35-11.1-51.5.3-7.9.1-9-1.5-9.3-1.3-.3-2.3.9-3.7 4m18.7 70.6c7.1 12.9 26.1 34.9 39.3 45.5l4.5 3.7H563l-5.4-8.3c-7.9-12.1-13-22-16.9-32.7-5.7-15.5-5.9-14 2-14h6.8zm-166.5 5.1c7.9 2.7 11.4 4.7 19.5 10.8 8.4 6.3 16.7 16.1 22.2 26.2l3.9 7.1h-18.6l-2.6-6.6c-5.7-14.9-16.7-29.1-28.1-36.3-5.6-3.5-4.3-4 3.7-1.2M416 396c0 1-2.7 6.1-18.9 36-5.8 10.8-12.1 22.8-14 26.8l-3.5 7.2H331l2.6-5.8c6.3-14.4 21.1-39.8 34.2-59l4.3-6.2H394c13.4 0 22 .4 22 1m-21.6 226.7c4.7 6.5 13.7 18.3 19.9 26.3l11.4 14.5-26.1.3-26.1.2-5-5.6c-9.9-11.3-21.1-26.4-26.7-36.3-3.2-5.5-5.8-10.3-5.8-10.6s11.2-.5 24.9-.5h25zM452 800.2c0 2.4-10.7 22.6-15.4 29.2-7.5 10.6-15.4 18.6-18.3 18.6-1.4 0-2.3-.3-2.1-.8.2-.4 2.8-5.7 5.9-11.7 4.8-9.5 9.1-22.2 11.4-33.8l.5-2.7h9c6.5 0 9 .3 9 1.2m-275 309.3v66.5H56v-133h121zm.3 185.7c.4 42.4.8 56.8 2.1 65.8.9 6.3 1.6 12.3 1.6 13.2 0 1.7-3.6 1.8-62.5 1.8H56v-135h120.8zM1808 160.5c0 3.3.2 3.5 3.5 3.5s3.5-.2 3.5-3.5-.2-3.5-3.5-3.5-3.5.2-3.5 3.5M1661 167.5c0 3.3.2 3.5 3.5 3.5s3.5-.2 3.5-3.5-.2-3.5-3.5-3.5-3.5.2-3.5 3.5M1808 174.5v3.5h14v-7h-14zM1619 202.5V227h49v-49h-49zm42 0V220h-35v-35h35z"/><path d="M1633 202.5V213h21v-21h-21zM1815 188.5c0 3.3.2 3.5 3.5 3.5s3.5-.2 3.5-3.5-.2-3.5-3.5-3.5-3.5.2-3.5 3.5M9 855.5c0 556.2.2 626.5 1.5 626.5s1.5-70.3 1.5-626.5S11.8 229 10.5 229 9 299.3 9 855.5M1840 475c0 190.4.2 215 1.5 215s1.5-24.6 1.5-215-.2-215-1.5-215-1.5 24.6-1.5 215M1832 1168c0 404.7.2 456 1.5 456s1.5-51.3 1.5-456-.2-456-1.5-456-1.5 51.3-1.5 456M1765.5 1656.5c-4.9 4.8-1.6 12.5 5.3 12.5s9.9-8.7 4.6-12.9c-3.5-2.8-6.9-2.6-9.9.4M1813.8 1657.6l-6.8 3.4v21h-11v14h11v22.4c0 13.5.4 23.6 1.1 25.3 2.6 6.9 9.6 10.9 16.5 9.5 3.7-.7 4-1 6.1-7.2 2.8-8.4 2.8-9.4.4-8-1.1.5-3.4 1-5.1 1-4.5 0-5-2.5-5-24.1V1696h13v-14h-12.9l-.3-13.9-.3-13.9zM12 1744.5v88.5h49c42.9 0 49-.2 49-1.5s-5.9-1.5-47.5-1.5H15v-87c0-76.7-.2-87-1.5-87s-1.5 10.5-1.5 88.5M1600 1704v48h60v-16h-45v-26h29v-15h-29v-24h42v-15h-57zM1679.6 1683.2c.4.6 5 7.3 10.2 14.7s9.6 14 9.8 14.6c.3.6-5.4 9.7-12.6 20.3l-13 19.2h8.7l8.8-.1 9.1-12.9 9.1-13 8.9 13 8.8 13h18.700000000000003l-1.9-2.8c-1-1.5-7.1-10.2-13.6-19.4l-11.6-16.6 9.3-14.4c5.1-7.9 9.7-14.9 10.1-15.6.5-.9-1.3-1.2-8.1-1.2h-8.8l-5.5 8.5c-3 4.7-5.8 8.5-6.1 8.5s-3.2-3.8-6.4-8.5l-5.9-8.5h-9.3c-7 0-9.2.3-8.7 1.2M1763 1717v35h15v-70h-15zM1840 1815.5v15.5h-359.5c-318.9 0-359.5.2-359.5 1.5s40.8 1.5 361 1.5h361v-17c0-14.4-.2-17-1.5-17s-1.5 2.4-1.5 15.5M306 1837.5c0 1.3 34.9 1.5 308.5 1.5s308.5-.2 308.5-1.5-34.9-1.5-308.5-1.5-308.5.2-308.5 1.5"/></svg>