<svg xmlns="http://www.w3.org/2000/svg" version="1.0" viewBox="0 0 471.12 247.32"><path d="M555.59 333.22H222.94c40.6 17.67 100 28.87 166.34 28.87s125.72-11.2 166.31-28.87z" style="fill-rule:evenodd;stroke:#000;stroke-width:1px;fill:#416453" transform="matrix(1.0612 0 0 1.1576 -177.531 -172.399)"/><path d="M572.56 324.97H205.97c5.16 2.9 10.92 5.62 16.97 8.25h332.65c6.05-2.63 11.81-5.35 16.97-8.25z" style="fill-rule:evenodd;stroke:#000;stroke-width:1px;fill:#64787f" transform="matrix(1.0612 0 0 1.1576 -177.531 -172.399)"/><path d="M588 314.66H190.56c4.58 3.56 9.61 7.05 15.41 10.31h366.59c5.81-3.27 10.86-6.74 15.44-10.31z" style="fill-rule:evenodd;stroke:#000;stroke-width:1px;fill:#416453" transform="matrix(1.0612 0 0 1.1576 -177.531 -172.399)"/><path d="M590.59 312.59H187.94c.83.7 1.74 1.38 2.62 2.07H588c.88-.69 1.76-1.37 2.59-2.07z" style="fill-rule:evenodd;stroke:#000;stroke-width:1px;fill:#64787f" transform="matrix(1.0612 0 0 1.1576 -177.531 -172.399)"/><path d="M603.34 298.84H175.22c3.24 4.76 7.46 9.36 12.72 13.75h402.65c5.27-4.39 9.51-8.99 12.75-13.75z" style="fill-rule:evenodd;stroke:#000;stroke-width:1px;fill:#416453" transform="matrix(1.0612 0 0 1.1576 -177.531 -172.399)"/><path d="M605.19 296.09H173.34c.55.94 1.25 1.83 1.88 2.75h428.12c.63-.91 1.3-1.82 1.85-2.75z" style="fill-rule:evenodd;stroke:#000;stroke-width:1px;fill:#64787f" transform="matrix(1.0612 0 0 1.1576 -177.531 -172.399)"/><path d="M609.94 284.38H168.59c.84 3.99 2.51 7.89 4.75 11.71h431.85c2.24-3.82 3.91-7.72 4.75-11.71z" style="fill-rule:evenodd;stroke:#000;stroke-width:1px;fill:#416453" transform="matrix(1.0612 0 0 1.1576 -177.531 -172.399)"/><path d="M610.47 281.62H168.06c.12.93.34 1.84.53 2.76h441.35c.19-.92.41-1.83.53-2.76z" style="fill-rule:evenodd;stroke:#000;stroke-width:1px;fill:#64787f" transform="matrix(1.0612 0 0 1.1576 -177.531 -172.399)"/><path d="M610.34 272.69H168.19a32.2 32.2 0 0 0-.13 8.93h442.41a32.163 32.163 0 0 0-.13-8.93z" style="fill-rule:evenodd;stroke:#000;stroke-width:1px;fill:#416453" transform="matrix(1.0612 0 0 1.1576 -177.531 -172.399)"/><path d="M608.81 266.5H169.75c-.7 2.04-1.26 4.1-1.56 6.19h442.15c-.3-2.09-.83-4.15-1.53-6.19z" style="fill-rule:evenodd;stroke:#000;stroke-width:1px;fill:#64787f" transform="matrix(1.0612 0 0 1.1576 -177.531 -172.399)"/><path d="M389.28 192.91c-112.47 0-205.38 32.09-219.53 73.59h439.06c-14.15-41.5-107.06-73.59-219.53-73.59z" style="fill-rule:evenodd;stroke:#000;stroke-width:1px;fill:#416453" transform="matrix(1.0612 0 0 1.1576 -177.531 -172.399)"/><path d="M427.35 250.66a78.254 48.5 0 1 1-156.51 0 78.254 48.5 0 1 1 156.51 0" style="fill:#201d19" transform="translate(-131.675 -87.026)"/><path d="m146.14 232.34 1.92 3.75c-2.32-.22-4.61-.41-6.87-.59l-5.39-4.63-.21 4.22c-1.21-.07-2.44-.13-3.62-.18-4.24 5.51-7.35 11.23-9.19 17.12-.74 2.37-1.33 4.77-1.66 7.19-.24 1.85-.4 3.69-.4 5.56 0 1.59.1 3.21.28 4.78.12 1.07.36 2.13.56 3.19.9 4.63 2.65 9.14 5.03 13.56.59 1.08 1.34 2.09 2 3.16 3.45 5.5 7.93 10.85 13.5 15.94.89.81 1.85 1.57 2.79 2.37 4.86 4.13 10.18 8.16 16.34 11.94 5.48 3.36 11.58 6.52 18 9.56 8.42 4 17.61 7.71 27.47 11.1 4.84.33 9.86.56 14.97.71l-3.78 7.22 10.06-7.09c1.4.02 2.81.05 4.22.06l-4.57 9.47 10.85-9.44c1.21 0 2.42-.02 3.62-.03l-5.72 8.97 10.22-3.87 2.94-5.22c1.05-.03 2.09-.07 3.12-.1l-.21 4.82 6.81-5.04c2.06-.08 4.08-.17 6.06-.28l-.25 4.35 5.41-4.66c1.84-.12 3.58-.26 5.31-.41v2.63l3.53-2.94c13.9-1.3 23.34-3.19 23.34-5.28.01-5.49-51.72-51.82-69.03-66.84L221.75 253l-12.16-13.12-4.75 4.31c-3.33-.6-7.4-1.29-12.5-2.13l-8.03-8.03 4.03 7.38c-1.86-.3-3.62-.57-5.62-.88l-11.53-6.5 5.97 5.69c-3.69-.54-7.5-1.09-11.38-1.6l-11.86-5.77 4.55 4.87c-.67-.08-1.33-.14-2-.22z" style="fill-rule:evenodd;fill:#574a39" transform="translate(-120.18 -115.94)"/><path d="M430.75 173c-36.71-.04-82.73 5.57-96.03 20.34l-4.94-.25 2.81 3.22c-.09.17-.19.33-.28.5l-8.56-2 7.37 8.88c.02.3.02.6.04.9l-3.28-1.18 3.43 4.34.03.44-5.87-2.72 6.06 5.75c.07.83.17 1.62.25 2.44l-8.72-2.69v2.06l9.1 3.97c.18 1.39.39 2.76.62 4.09l-6.09.53 2.06 1.38-2.94.53 8.13 3.22c.24 1.02.53 2.01.81 3l-11.34 3.91 12.65.28c.32.9.65 1.78 1 2.65l-4.03 7.03 6.75-1.24a60 60 0 0 0 2.1 3.62l-.91 8.31 3.34-4.75c1.44 1.96 3 3.86 4.72 5.72l-8.25 5.91-.16 3.59 10.97-6.87c1.35 1.32 2.77 2.64 4.29 3.93-2.81 3.67-8.17 10.99-7.19 11.97.66.67 5.62-4.24 10.78-8.72.93.4 1.6.81 3.65 1.25l-5.81 8.04-.93 4.31 10.06-11.97c.74.14.88.29 1.72.44l-7.1 10.96 9.82-9.9c1.24.21 3.84.27 4.59 1.56 4.11 13.29-.19 4.51 4.28-.22 2.6-1.12 7.74.24 9.41.44l-1.44 8.69 5.34-8.13c5.7.64 11.63 1.21 17.5 1.72-.3 1.94-.97 4.99-2.15 5.81 1.69-.53 6.16-1.84 6.78-5.4 1.99.16 3.94.3 5.87.43 1.05 3.04 4.5 13.01 5.47 16.26.51 1.68 2.05-8.9 3.06-15.72 2.44.13 4.76.24 6.94.31l-.81 14.84 8.75-14.72c1.11-.01 2.13-.05 3.06-.09l-3.15 17.44 10.65-19c.76-.35 1.52-.76 2.31-1.22l.35 21.56 4.59-24.94c.75-.58 1.5-1.2 2.25-1.84l1.03 10.44 4.78-15.85c3.53-3.54 4.87-5.38 7.91-9.15l6.06 11.12-1.72-16.03c.37-.47.75-.94 1.1-1.41l6.81 9-2.84-14.62c1.92-2.9 3.26-5.3 3.75-6.75.18-.54.34-1.17.5-1.84l9.09 10.84-8.47-14.37c.16-1.19.25-2.46.35-3.82l10.93-1.68-10.75-5.82a84 84 0 0 0-.84-9.78l8.59-4.12-9.34-.13c-.2-.96-.36-1.93-.59-2.87l3.37-2.82-4.31-.4c-.3-.96-.62-1.92-.97-2.85l2.47-2.56h-3.53c-.43-.95-.88-1.89-1.38-2.78 0-.01.01-.02 0-.03l.78-1.5-1.34.59c-2.11-3.52-4.75-6.42-8.06-8.28-6.05-3.4-24.89-5.5-47.16-5.53m-22.34 105.09c-.31.1-.55.17-.63.22.23 0 .43-.08.63-.22" style="fill-rule:evenodd;fill:#a79370" transform="translate(-120.18 -115.94)"/><path d="M317.72 217.62c-4.61.07-10.53 2.23-16.72 5.32l.53-3.75-2.65 4.84c-.84.44-1.67.91-2.5 1.38l-1.19-2.82-.66 3.82c-2.04 1.17-4.05 2.43-6.03 3.68l-2.31-4.81-.22 3.41-1.22-1.22-.13 5.12c-1.06.71-2.11 1.41-3.12 2.1l-1.88-2.6-.24 4.13c-1.1.77-2.14 1.5-3.13 2.22l-2.44-4.41-.15 6.25c-4.37 3.24-7.16 5.53-7.16 5.53l26.81 31.41s6.11-4.97 12.91-10.6l2.34 1.44 1.63-4.72c.79-.66 1.56-1.31 2.34-1.96l1.88 1.59-.13-3.06 2.6-2.19 4.09 1.59-1.19-4.09c.63-.54 1.31-1.09 1.84-1.56l6.88-1.88-4.5-.31.19-.19c6.57-6.5 12.4-21.16-.5-31.87-1.52-1.27-3.58-1.82-5.97-1.79z" style="fill-rule:evenodd;stroke:#473a2a;stroke-width:1.3081px;fill:#473a2a" transform="translate(-120.18 -115.94)"/><path d="M228.56 212.06c-10.03.12-18.65 3.25-18.65 3.25-7.93 7.93-6.92 15.6-2.53 23.78l-5.19.25 8.28 4.91c.58.88 1.19 1.76 1.81 2.66H207l6.97 2.37c.69.97 1.38 1.95 2.09 2.94l-5.59 2.25 8.31 1.62c.49.7.99 1.39 1.47 2.1l-6.34 3.15 10.21 2.91c.58.98 1.12 1.97 1.66 2.97l-7.06 4.78 10.12 1c.63 1.07 1.33 2.2 2.13 3.41l-2.28 4.53 1.72 1.37 3.43 1.38-1.03 4.15 5.57-1.31c.73.94 1.49 1.91 2.28 2.88l-1.32 4.28h4.91c2.15 2.53 4.43 5.15 6.81 7.78l-8.97-.56 14.44 9.97h3.38c2.7 2.77 5.47 5.54 8.28 8.24l-5.13 1.72 8.44 1.44c.64.6 1.27 1.19 1.91 1.78l-10.69 2.28 13.97.69c.59.53 1.19 1.07 1.78 1.59l-13.35 3.22 16.38-.56.59.5-11.47 2.81 14.5-.28c1.81 1.49 3.61 2.92 5.38 4.28l-8.53 1.16 12.09 1.5c1.55 1.13 3.07 2.19 4.56 3.19l-3.21 1.15h5c2.08 1.34 4.09 2.54 6.03 3.57l-.72 1.93 2.81-.87c1.85.88 3.6 1.57 5.25 2.09l-2.22 4.97 5.56-4.16c1.92.31 3.65.28 5.13-.15.89-.26 1.88-.61 2.91-1l1.18 3.94 2.57-5.47c1.55-.69 3.22-1.46 4.97-2.32l1.74 4.69.72-5.93c2.68-1.36 5.58-2.87 8.57-4.5l-5.5 8.37 10.9-11.37c1.32-.74 2.68-1.52 4.03-2.29l-2.56 8.16 8.06-11.28c.93-.53 1.88-1.06 2.82-1.59l1.5 4.28 3.31-7.04c1.62-.92 3.21-1.81 4.84-2.74l3.19 3.59v-5.41l1.47-.84 2.69 6.25 1.4-8.56c2-1.12 4-2.24 5.97-3.32l-1.19 7.41 4.32-9.06c2.94-1.59 5.84-3.1 8.65-4.53l-1.62 6.71 5.15-8.53c.68-.33 1.37-.65 2.04-.97l.71 4.35 4.13-6.56c1.17-.53 2.31-1.04 3.44-1.5l.68 2.9 4.47-4.87c1.61-.57 3.13-1.09 4.57-1.47l3.74 4.87 2.91-6.72c.54-.19 1.08-.37 1.63-.59l2.03 5.63 3.75-8.5a65 65 0 0 0 3.44-2.16l1.09 5.19 1.59-7.1a89 89 0 0 0 8.91-7.59l-2 5.56 3.78-7.34c1.44-1.47 2.85-2.96 4.22-4.5l-.13-8c-.79.46-1.55.87-2.31 1.22l-9.69 17.25-.78.72 2.97-16.41c-.93.04-1.95.08-3.06.09l-8.75 14.72.81-14.84c-2.18-.07-4.5-.18-6.94-.31-1.01 6.82-2.55 17.4-3.06 15.72-.97-3.25-4.42-13.22-5.47-16.26-1.93-.13-3.88-.27-5.87-.43-.62 3.56-5.09 4.87-6.78 5.4-.2.14-.4.22-.63.22.08-.05.32-.12.63-.22 1.18-.82 1.85-3.87 2.15-5.81-1.86-.16-3.72-.36-5.59-.53-.86.8-1.97 1.82-2.88 2.66h-5.93l4.68 1.15c-.62.58-1.25 1.18-1.9 1.78l-7.6 1.19 4.5 1.66c-.3.27-.5.47-.81.75-.17.15-.36.29-.53.44l-6.94.93 1.28 2.31c-.33.13-.65.27-1 .38l-9.9-2.69 6.37 3.63c-.33.07-.66.13-1 .18l-14.69-2.43 6.16 3.09c-3.99-.01-8.24-.4-12.59-1.06l-5.94-5.13 3.5 4.72c-1.02-.17-2.04-.33-3.06-.53l-8.35-4.53 2.66 3.28c-.79-.18-1.59-.36-2.38-.56l-6.12-4.09-.81 2.24c-.42-.12-.83-.25-1.25-.37l-1.72-4.63-2.38 3.38c-2.4-.75-4.75-1.51-7-2.28l-5.4-4.88.53 3.16c-.69-.25-1.44-.51-2.09-.75h-.04l-6.31-4.81.38 2.53c-.37-.14-.66-.27-1-.41l-4.19-7.62-1.53 5.28c-2.44-1.04-3.94-1.72-3.94-1.72s-.64-.42-1.13-.75l2.47-5.56-9.28.78c-.89-.64-1.87-1.34-2.87-2.06l.47-4.91-4.75 1.78c-.18-.13-.36-.27-.54-.4l2.19-6.19-5.19-.69-2.34 2.78c-1.01-.78-2.03-1.59-3.06-2.4l-3.88-9.66.25 6.75c-.85-.7-1.71-1.38-2.56-2.09l-5.94-11.19.44 6.43c-.99-.88-2.01-1.76-2.97-2.65l-.03-.03-5.69-10.97-.43 4.97c-.68-.71-1.34-1.43-1.97-2.13l-1.38-8.34-2.37 3.94c-.64-.82-1.24-1.62-1.78-2.41a23.5 23.5 0 0 0-3.72-4.22l-1.41-4.87-1.28 2.78c-5.55-3.64-12.26-4.7-18.44-4.63zm244.85 45.25c-.88.99-1.81 2.02-3.07 3.28l-.93 3.13c1.45-2.19 2.79-4.33 4-6.41zm-8.88 8.69c-.75.64-1.5 1.26-2.25 1.84l-1.34 7.35c1.39-1.7 2.72-3.41 4-5.13zm-19.59 24.44-.56 1 .09-.56z" style="fill-rule:evenodd;stroke:#7a6349;stroke-width:1px;fill:#7a6349" transform="translate(-120.18 -115.94)"/><path d="m406.09 116.44 4.94 9.53c-1.13-.05-2.26-.11-3.41-.13l-4.71-6.22 2.93 6.19c-.93 0-1.85.04-2.78.07l-3.72-5.32 1.75 5.41c-1.14.05-2.27.1-3.4.19l-8.85-6.16 6.22 6.41c-1.88.19-3.75.42-5.59.71l-9.44-6.56 6.69 7.03c-.98.19-1.94.42-2.91.63l-11.47-6.34 7.32 7.31c-1.79.47-3.53 1-5.25 1.56l-9.38-7.37 8.13 7.78q-1.14.39-2.25.81l-8.88-3.16 7.09 3.85c-.24.09-.47.18-.71.28l-9.6-.16 5.28 2.06c-.34.17-.69.31-1.03.47l-8.56.47 1.34 3.53c-.08.06-.16.13-.25.19l-9.9-5.78 8.03 7c-.17.11-.34.23-.5.34l-12.6-3.4 9.88 5.37c-1 .76-1.97 1.55-2.91 2.35l-3.78-2.66 2.6 3.69c-.1.08-.19.16-.29.25l-10.74-6.75 9.46 7.9c-.56.55-1.11 1.1-1.65 1.66l-11.38-8.44-1.87.38 12.22 9.15c-.63.68-1.24 1.37-1.82 2.06l-6.46-4.65 5.4 6c-.18.23-.38.45-.56.69l-6.53-3.13 5.47 4.66c-1.21 1.73-2.3 3.51-3.25 5.34l-4.85-5.69 4.13 6.75v.41c-.42.87-.81 1.74-1.16 2.62l-3.44-.56-.68 2.06 3.31.72c-.53 1.59-.98 3.18-1.31 4.82l-3.03-.72 2.62 3.03c-.12.85-.24 1.73-.31 2.59l-2.66.56 2.56 1.13c-.01.45-.03.89-.03 1.34l-7 3.72 7.03-1.93c.02.52.06 1.07.1 1.59l-2.85 5.69 3.13-3.22c.36 2.55.98 5.03 1.81 7.47l-4.75 2.62 5.44-.75c.39 1 .84 2 1.31 2.97l-6.25 1.56.35 1.38 6.84-1.07c.85 1.58 1.77 3.1 2.81 4.6l-3.62 4.22 4.81-2.53c1.04 1.38 2.18 2.72 3.37 4.03l-8.03 5.72-.15 1.72 9.18-6.41c.49.5.97 1.01 1.47 1.5l-6.18 3.69 7.9-2.1c1.15 1.04 2.35 2.03 3.6 3l-1.54 3.06h1.72l.19 1.54 2.06-.85 1.94-.59c1.63 1.08 3.33 2.08 5.09 3.06l-4.28 3.19 5.94-2.28c.3.15.6.31.91.47l-4.29 3.87 5.97-3.03c1.23.59 2.48 1.15 3.75 1.69l-6.62 3.75 9.25-2.69c1.5.58 3.06 1.12 4.62 1.63l-3.37 4.5 5.75-3.76c1.39.42 2.79.81 4.22 1.16v3.81l2.25-.87 1.87 1.56 1.75-3.25c1.6.29 3.21.56 4.85.78l.62 4.69 1.25-4.47c1.56.18 3.13.36 4.72.47l-.28 7.09 1.9-7.03c.35.02.69.05 1.04.06l1 6.97.56-6.9c1.09.03 2.18.06 3.28.06.69 0 1.38-.02 2.06-.03l.13 5.16 1.53-5.19c1.9-.07 3.76-.18 5.62-.35l.57 5.19 2.78-3.25-.66-2.22c.86-.1 1.72-.22 2.56-.34l.16 6.69 1.75-6.97c.69-.11 1.38-.22 2.06-.35l.13 5.6 1.37-1.57-.09-4.31c1.78-.34 3.55-.72 5.28-1.15l1.19 7.03.12-7.35c1.25-.33 2.47-.68 3.69-1.06l3.06 7.88-1.31-8.47c1.51-.5 3.02-1.03 4.47-1.6l3.53 7.66-2.25-8.19c.6-.24 1.19-.49 1.78-.75l1.35 4.47-.22-5c1.45-.66 2.86-1.34 4.25-2.06l2.65 4.5.88-1.72-1.97-3.59c.67-.37 1.35-.74 2-1.13l5.31 3-2.62-4.66c1.59-1.03 3.09-2.15 4.56-3.28l5.97 3.47-3.41-5.5c1.41-1.19 2.74-2.44 4-3.72l4.38 2.35-.35-2.75-2.06-1.66c1.21-1.34 2.33-2.74 3.37-4.15l3.85 4.78-2.28-7.04c.27-.41.52-.83.78-1.24l4.59 2.24.69-1.21-3.59-3.94c.38-.75.72-1.52 1.06-2.28l4.44 2.28.15-1.38-3.72-2.93c.88-2.24 1.56-4.53 2.03-6.88l4.63-.5-.53-2.06-3.78.72c.12-.8.23-1.6.31-2.41l3.31-2.44-3.15.38c.02-.56.03-1.12.03-1.69 0-.36-.02-.7-.03-1.06l3.78-.63-3.81-.68c-.06-.86-.18-1.72-.29-2.57l6.35-2.56-6.53 1.19c-.12-.72-.23-1.44-.38-2.16l6.91-2.03-7.32.38c-.15-.58-.32-1.15-.5-1.72l3.13-2.03-3.63.47c-.24-.71-.52-1.41-.81-2.1l3.88-6.62-5.81 2.46c-.34-.62-.67-1.26-1.04-1.87l2.35-3.78-3.53 1.91c-.42-.65-.86-1.28-1.32-1.91l4.47-8.06-5.43 4.12v-3.19l-3.47 1.75c-.4-.42-.81-.83-1.22-1.25l.56-1.43 3.56-2.63-7.34 1.06c-.65-.56-1.32-1.11-2-1.65l5.78-10.28-7.97 8.59a75 75 0 0 0-9.66-6.06l-2.62-8.19 1.12 7.44c-1.04-.53-2.1-1.05-3.18-1.53v-4.22l-2.63 1.12V129l-1.69.75-.78-1.87-1.12 1.5-2.25-2.63.72 4.37c-1.84-.62-3.71-1.22-5.63-1.74l.97-3.94-3.12 3.37a100 100 0 0 0-7.69-1.56l-.81-6.69-1 6.38c-2.51-.37-5.07-.63-7.66-.82z" style="fill-rule:evenodd;stroke:#b5a78f;stroke-width:1px;fill:#b5a78f" transform="translate(-120.18 -115.94)"/><path d="M369.36 153.6c3.45-3.69 6.99-7.26 10.85-10.51.84-.85 2.47-1.97 3.3-2.59 4.01-2.42 8.66-4.41 13.35-4.92h14.73c3.24.11 6.23 1.5 9 3.08 2.21.72 4.21 1.91 6.31 2.89 2.73 1.07 5.16 2.72 7.85 3.85 1.69.6 2.91 1.88 4.21 3.07 2.06 2.24 3.5 4.93 5.35 7.32 1.05 1.52 1.39 3.44 1.92 5.2.62 5.81.19 11.67.19 17.51v14.63c.37 3.03-.87 5.43-3.06 7.43-2.56.83-5.16 1.2-7.9 1.17-2.02.06-4.05.17-6.07.25-4.24-.46-7.93-3.46-10.72-6.54-.79-.6-1.05-1.44-1.53-1.93-.6-.6-.93-1.29-1.34-2.12-.5-1.01-.75-1.05-1.91-1.34-5.01 2.65-12.6 6-17.42 1.54-1.4-1.09-2.6-2.33-4.4-2.5-2.52.85-4.51 2.21-6.7 3.46-1.65.62-3.61 1.09-5.49 2.1-2.19.97-3.16.69-5.29 1.23-3.38-1.43-7.38-2.48-9.73-5.28-2.84-2.33-3.16-5.99-3.41-9.41v-5.77c-1.27-4.82 1.91-8.82 2.75-13.17.61-1.5 1.59-2.73 2.48-3.91.24-2.02 1.21-3.44 2.68-4.74z" style="fill-rule:evenodd;stroke:#a38765;stroke-width:1px;fill:#a38765" transform="translate(-120.18 -115.94)"/><path d="m401.97 189.55-3.8 12.2-12.14 5.81-11.59 6.71 12.71-5.77 7.22-.28 3.61 3.14 1.22 1.55 2.39-2.35 2.72-.28 3.29.42 7.92 7.04-8.3-9.8-4.13-5.16z" style="stroke-linejoin:round;stroke:#151515;stroke-width:1px;fill:#14140d" transform="translate(-120.18 -115.94)"/><path d="M406.46 141.12c-1.27.32-2.38.24-3.54.81-1.72 1.43-3.12 3.25-4.63 4.91-1.16 1.16-2.2 1.38-3.27 2.45-2.99 2.37-5.97 4.75-8.99 7.08-.76.76-1.88 1.22-2.45 1.91-1.17 1.41-1.15 2.76-1.36 3.81-.3 1.5.27 2.73.54 3.82 2.12 2.78 4.52 4.23 7.18 6.59.5.25 2.73 1.62 3.29 2.18.81.81 3.14.77 3.88 1.52.97.97 1.5 2.21 2.06 3.58.4.99 1.15 2.06 1.19 2.97.13 2.71.82 6.8 1.46 6.8 1.37 0 4.32-5.2 5.83-7.5.76-1.17 1.57-2.93 2.59-3.18.77-.19 1.99-.69 2.57-.65.67.04 1.81-.05 3.46-.05h8.17c1.29 0 2-.92 2.73-1.64.91-.91 1.68-1.19 2.18-2.18.46-.92.31-2.6.54-3.54.33-1.33.27-2.67.27-4.08 0-1.7-.24-2.67-.81-3.82-.56-1.12-1.23-2.04-1.91-2.72-.83-.83-1.91-1.38-2.45-2.45-.71-1.42-1.75-1.8-2.18-3.55-.38-1.51-1.27-1.78-1.64-3.27-.23-.93-1.1-2.48-1.63-3.54-.62-1.24-.82-2.45-1.64-3.54-.7-.94-.77-1.86-1.63-2.72-3.32-1.64-6.31-1.12-9.81 0" style="stroke-linejoin:round;fill-rule:evenodd;stroke-width:1px;fill:#282f2d" transform="translate(-120.18 -115.94)"/><path d="M384.33 167.42c-.84-.85 1.82-2.55 2.45-3.8.31-.98.79-1.55 1.59-2.16.78-.7 1.61-1.27 2.53-1.78.31-.15.66-.37 1.03-.47 1.6-.39 3.24-.47 4.88-.47 1.45.6 2.84 1.46 3.66 2.82.51.86 1.08 1.67 1.59 2.53.26.26.28.87.28 1.22 0 .63.05 1.31-.09 1.88-.31.9-.83 1.71-1.31 2.53-.44.94-1.09 1.61-1.76 2.4-1.14.95-1.9 2.93-3.78 3.29-5.09-1.16-8.32-4.8-11.07-7.99" style="fill-rule:evenodd;stroke-width:1px;fill:#070705" transform="translate(-120.18 -115.94)"/><path d="M412.29 178.25c-1.18-1.4-1.28-3.11-1.97-4.97-.47-1.26-.8-2.79-.57-3.94 1.16-1.65 2.76-2.87 4.32-4.12 1.59-.54 2.45-.83 3.51-1.32 1.64-.41 2.95-.15 4.46.19.95.75 1.62 1.79 2.25 2.81 2.03 3.59 1.24 7.44.38 11.26-7.27.09-7.51-.07-12.38.09" style="fill-rule:evenodd;stroke-width:1px;fill:#080805" transform="translate(-120.18 -115.94)"/><path d="M368.58 150.87c-.21-.43-.51-.99-.75-1.32-.29-.38-.5-.5-.84-.84-.31-.31-.48-.38-.85-.56-.4-.2-.82-.19-1.31-.19-.45 0-.99.1-1.31.19-.52.13-.7.42-.94.75-.29.39-.61.6-.85.84-.26.27-.57.98-.65 1.31-.11.43-.37.74-.47 1.13-.12.46-.27.69-.38 1.13-.12.49-.28.81-.28 1.31 0 .41-.28.81-.28 1.31v1.41c0 .54.07.83.19 1.31s.19 1.03.28 1.41c.11.46.36.82.66 1.12.44.45.58.34 1.12.47.52.13 1.01.16 1.5.28.62.16.78-.31 1.13-.65.33-.34.59-.9.75-1.22.13-.27.55-.93.75-1.13.28-.28.34-.62.66-.94.73-1.74.83-1.67 1.5-2.72.14-.28.5-1.37.56-1.59.1-.39.11-.9.19-1.22-.18-.56.15-.78-.38-1.59z" style="fill-rule:evenodd;stroke:#43383a;stroke-width:1px;fill:#483d3f" transform="translate(-120.18 -115.94)"/><path d="M369.03 153.36c-.78-.71-2.49-.41-2.49-.41s-1.07.17-1.62.82c-.55.66-.58 1.81-.58 1.81l-.61 1.89-.21 1.84s.26 1.98 1.13 1.5c.53-.56 3.81-4.78 4.38-7.45z" style="fill-rule:evenodd;stroke:#000;stroke-width:1px;fill:#060604" transform="translate(-120.18 -115.94)"/><path d="M371.77 169.72s-58.34 25.51-59.09 32.26M370.83 174.03s-50.27 23.45-57.58 34.52M374.21 173.28c-44.27 40.33-44.64 57.77-44.64 57.77" style="stroke:#000;stroke-width:1px;fill:none" transform="translate(-120.18 -115.94)"/><path d="M373.46 176.47c-39.02 19.88-54.96 50.83-54.96 50.83M373.27 178.53s-40.52 47.27-35.08 52.9M372.52 184.91c-29.45 39.77-21.57 43.33-21.57 43.33M375.52 187.72s-23.63 36.02-19.32 39.58M379.27 190.16s-17.82 21.95-14.25 26.26M381.34 191.1s-10.13 17.45-6.94 18.57M386.21 189.79s-7.12 8.63-5.25 16.69M389.21 189.04c3.7-1.52-.55 12-.56 12M442.3 174.59s37.7 46.9 28.32 48.02" style="stroke:#000;stroke-width:1px;fill:none" transform="translate(-120.18 -115.94)"/><path d="M443.42 182.29s37.52 27.94 35.83 32.26" style="stroke:#000;stroke-width:1px;fill:none" transform="translate(-120.18 -115.94)"/><path d="M440.61 178.72s50.46 47.27 45.77 48.96M438.55 183.41s51.39 58.34 46.14 60.59M438.36 189.6S474 237.24 472.12 241M437.23 194.1s33.95 47.08 29.83 55.34M434.61 196.54s31.7 61.71 15.57 61.71" style="stroke:#000;stroke-width:1px;fill:none" transform="translate(-120.18 -115.94)"/><path d="M430.48 195.42s20.82 51.02 12.75 53.08M426.17 195.98s14.81 33.95 11.06 38.64M424.1 194.1s6.76 27.01 2.63 28.14M420.91 190.91s-.37 20.82-6.56 19.14M417.73 187.35s.75 4.88-5.63 11.25" style="stroke:#000;stroke-width:1px;fill:none" transform="translate(-120.18 -115.94)"/><path d="M205.54 237.06s8.86-4.88 6.79-9.19c-2.06-4.32 4.64 4.04 10.88-3.01 5.82-6.56.12-8.71 4.13-8.06 7.8 2.77 19.17.19 16.87-2.48-2.22-2.59-21.2-7.74-33-.71-5.94 3.53-8.21 9.06-8.15 13.86.08 5.26 2.79 9.65 2.48 9.59" style="fill-rule:evenodd;fill:#14160d" transform="translate(-120.18 -115.94)"/><path d="M315.68 232.12c-1.1-1.69-3.47.2-5.42-.77-1.22-.61-2.77-1.58-3.86-2.33-2.01-1.37-2.45-1.34-3.44-.34-1 3.27-2.13 6.7.34 10.66 3.95 3.89 7.89 7.61 13.41 8.6 2.01.5 3.87-.09 4.82-1.03 1.54-1.55 1.39-2.91.51-3.79-3.46-2.42-4.79-3.5-5.16-6.36.35-.77.28-3.52-1.2-4.64" style="fill-rule:evenodd;fill:#000" transform="translate(-120.18 -115.94)"/><path d="M319.55 220.26c-3.85-.32-6.38-.31-9.72 1.54-1.88.86-1.03 3.17-1.03 5.51 0 1.59 2.41 3.26 3.44 3.26 1.54 0 5.33.29 6.88-.51 1.98-1.04 1.39-2.64 2.23-4.13 1.05-1.85 1.17-5.68-1.8-5.67" style="fill-rule:evenodd;fill:#000" transform="translate(-120.18 -115.94)"/><path d="M465.65 171.5c-.42-.32-.51-.79-.75-1.03-.38-.38-.53-.54-.84-.85-.37-.36-.66-.56-.94-.84-.34-.34-.42-.38-1.03-.38h-1.41c-.55 0-.8.1-1.31.1-.34 0-.63.53-.85.75-.28.29-.51.41-.75.66-.35.35-.54.64-.94.84-.32.16-.61.67-.84.84-.38.29-.69.82-.84 1.13-.22.43-.29.92-.29 1.41v1.5c0 .52.19.74.29 1.12.1.4.55.64.75 1.03.19.4.45.89.56 1.32.07.29.86.77 1.03.93.4.41 1.01.81 1.31 1.04.46.34.93.64 1.22.93.37.37.63.46 1.03.66.38.19.7.19 1.22.19.56 0 .84-.09 1.22-.28.54-.27.77-.58 1.03-.85.81-.89 1-.99 1.51-1.97.44-1.15.71-1.5.75-2.44v-1.4c0-.47 0-1.41.09-1.88-.33-1.07-.31-1.31-1.22-2.53" style="fill-rule:evenodd;fill:#483d3f" transform="translate(-120.18 -115.94)"/><path d="M454.89 174.24c.05-.18 1.36-.43 1.66-.58.48-.24 1.06.09 1.6.09s.66.35 1.12.47c.19.05.67.85.75.94.28.27.48.58.66.94.21.42.24.66.47 1.12.17.35.1.88.19 1.31.08.43 0 .97 0 1.41 0 .55-.02 1.05-.38 1.22-.52.25-.86.06-1.12.09-.4.06-.66-.13-1.05-.27-.43-.15-.54-.45-.94-.65-.27-.14-.86-.64-1.11-.89-.31-.3-.4-.82-.59-1.25-.19-.42-.47-.46-.72-.97-.2-.39-.52-.95-.52-1.39 0-.6-.01-1.05-.02-1.59z" style="fill-rule:evenodd;stroke:#000;stroke-width:1px;fill:#060705" transform="translate(-120.18 -115.94)"/><path d="M322.21 229.02c-1.18.65-2.36 1.49-3.86 2.76-.72.6-.61 4.36-.61 5.15 0 1.78 2.38 3.09 3.79 3.79 2 1 3.48.98 4.81-.35.77-.76 1.38-3.22 1.38-4.64 0-1.76.53-3.44.86-4.73-.81-3.99-3-3.37-6.37-1.98" style="fill-rule:evenodd;fill:#000" transform="translate(-120.18 -115.94)"/></svg>