<svg xmlns="http://www.w3.org/2000/svg" xml:space="preserve" viewBox="0 0 359.504 275.493"><path d="M117.09 67.542c.47-3.261-.68 4.811 0 0M105.71 76.487c2.692-.633.331 5.764-1.627 5.692.9-1.538 1.04-3.841 1.63-5.692zM169.95 90.311c.47-3.262-.69 4.81 0 0M235.81 90.311c1.384-.299 1.534.634 1.627 1.626-.692-.149-.767.317-.812.813-.96-.131-.69-1.482-.82-2.439zM241.51 94.377c3.503 1.62-2.038 3.895 1.625 6.505-4.08 1.36-2.44-5.456-1.63-6.503zM239.88 101.7c.759.868 2.999.253 2.439 2.439-.944-.132-1.446.18-1.627.812-1.1-.25-.67-2.04-.81-3.25zM232.56 117.15c2.371-1.196 2.371 3.634 0 2.439v-2.44zM271.59 127.72c1.878-2.604 3.626 1.731 6.507.814-1.86 2.58-4.31-1.05-6.51-.81zM335.02 141.54c.46-3.26-.69 4.81 0 0M224.43 150.48c.827.527.841 1.87 2.439 1.626-.71 1.188-.646 3.148-3.252 2.439-.26-1.89.13-3.12.81-4.07zM313.88 159.43c-.138-1.764 2.883-.367 4.065-.812.14 1.76-2.88.36-4.06.81zM306.56 170.81c-1.41 1.029-2.131 2.749-4.879 2.439.74-1.7 2.4-2.48 4.88-2.44zM298.43 174.06c2.8 2.11-4.19 1.97 0 0M52.854 185.45c-6.178.76-2.727-3.96 0 0M69.118 186.26c.465-3.26-.688 4.81 0 0M177.27 190.33c2.46-3.01 2.73 2.47 0 0M91.072 196.02c.311-1.547 1.035.52.814 1.627-.31 1.54-1.034-.52-.814-1.63zM95.951 197.65c.466-3.27-.686 4.81 0 0M306.56 211.47c.225 3.206-5.728.232-6.506 2.439-2.83-2.63 5.39-1.07 6.51-2.44zM111.4 223.67c.529-2.294.945 1.873.812 2.439-.37 1.63-1.52.65-.81-2.44zM241.51 222.86c3 2.46-2.47 2.73 0 0M24.394 237.49c3.027-2.84 4.126 2.22 0 0M347.21 239.12c-2.27 3.314-6.652.979-10.571.814-11.192-.478-26.742.354-39.03 0 2.145-3.683 6.512-.696 9.758-.814 2.913-.106 5.816-1.653 8.943-1.625 7.29.05 20.78 3.11 30.9 1.62zM15.45 238.3c-1.786 2.49-5.208-.93 0 0M7.318 239.93c-.136-1.765 2.883-.369 4.065-.814.138 1.76-2.883.37-4.065.81zM111.4 239.93c1.384-.301 1.535.634 1.627 1.625-.692-.148-.767.317-.814.814-.96-.13-.69-1.48-.82-2.44zM20.329 244c-1.763 1.217-4.578 1.386-7.318 1.625.898-2.08 4.364-1.59 7.318-1.62zM35.779 249.69c3.429 1.88 11.975-1.864 16.262.812-2.776.734-9.9 3.09-16.262 3.254-1.391.036-1.529-.434-1.627-1.627-1.802-.447-1.158 1.553-2.44 1.627-1.382.299-1.533-.634-1.625-1.627-3.274.476-11.263 5.689-13.01 0 3.282-.12 6.344 2.019 7.317-1.627 5.439 2.602 8.033-2.873 14.637-1.625 2.632.95-2.183.94-3.252.83zM333.39 251.32c4.454 1.903-3.53 5.094-4.879 1.625 1.25-2.74 4.77 1.84 4.88-1.62zM66.679 254.57c2.287.325.66 3.739 4.879 1.627-.554 1.79-1.797 3.808 2.439 3.252-2.538 5.369-9.71.464-14.637.812 2.5 1.838 7.415 1.26 7.319 5.693-2.797-1.928-6.149-1.928-8.946 0-.371-2.541 1.737-2.6 4.066-2.439-5.423-.811-9.66-2.809-16.262-2.439 7.269-2.86 16.892-.678 23.581-1.627.062-2.772-3.013-2.407-5.692-2.439-1.303-3.19 3.512-.28 3.253-2.43zM296.8 254.57c2.354 1.888-6.689-.78-4.88 3.252h-4.879c3.25-1.09 4.3-4.38 9.76-3.25zM54.481 256.19c.132-.953 1.482-.687 2.439-.814-.13.96-1.482.69-2.439.81zM101.64 255.38c-2.981 2.086-10.242 3.593-13.823 2.439 4.192-1.23 9.191-1.65 13.823-2.44zM76.437 256.19c1.458-.104 1.715.995 3.252.812-.147 2.36-3.864 1.97-3.252-.81zM163.44 257.01c1.422 3.381-10.324 3.41-12.196 1.627 1.01-3.41 10.96 1.82 12.2-1.63zM244.76 261.07c-6.47-1.015-9.704 1.115-15.449-2.439-2.559-.931-1.977 1.276-3.253 1.625-7.417-2.337-14.366 4.382-21.956 1.627 1.788-2.864 4.045-.148 8.946-.812 3.069-.736 11.678-4.032 16.263-4.066 3.61-.026 7.491 1.84 11.383 2.439 2.841.439 7.215-1.426 8.946 2.439-3.225 1.387-8.565.652-12.198 1.627-.03-3.29 5.82-.7 7.32-2.45zM172.39 260.26c-.103 1.798-3.451.346-4.879.814.69-2.9 2-.09 4.88-.81zM173.2 260.26c.133-.951 1.482-.686 2.439-.812-.13.95-1.48.68-2.44.81z" style="clip-rule:evenodd;fill-rule:evenodd"/><path d="M178.89 259.45c1.68 1.302 5.213.753 5.694 3.252-3.754-.297-4.681-1.001-8.134 0 .103 1.798 3.451.346 4.879.814-2.359 4.768-8.972.624-14.635 2.439.251-1.103 2.034-.676 3.252-.814 1.005-2.632-2.632-.621-1.627-3.252 2.65.61 9.36.81 10.57-2.44zM198.41 262.7c-2.026-.682-4.357-1.062-7.318-.812.64-2.19 5.71-1.85 7.32.81zM230.12 264.32c-6.252 1.067-11.667 2.972-18.702 3.253h-3.252c.1-1.796 3.448-.346 4.879-.813 2.829-1.905 6.376-3.121 13.01-3.252 1.12-.02 4.91-1.86 4.06.81zM278.1 265.14c-.957 1.324-6.396 1.71-2.439 3.255-1.288 1.692-5.69.272-7.319 1.625 3.23-3.485-.957-2.167-4.879-2.439.556-2.966 3.238.172 6.506-.813 1.34-1.91 4.74-1.77 8.13-1.63zM281.35 266.76c.13-.952 1.482-.686 2.439-.812-.13.95-1.48.69-2.44.81zM141.49 270.83c-1.282 2.769-6.388.291-10.571 0-4.201-.293-10.643 1.522-12.198-1.627 1.766.457 6.659 1.941 8.131 0-1.127-1.856-5.66-.304-8.131-.812-.315-3.299 5.068-.897 7.319-1.628 4.48 4.7 11.79-.91 15.45 4.07zM178.89 268.39c-1.378 1.144-3.781-.407-6.504.812 3.328 2.902 11.685.784 15.45 3.252-1.636 2.949-5.463.577-7.319-.814-13.698.221-17.454-4.049-31.712-.811 3.387-4.456 15.855-2.003 23.581-2.439.97-2.67 4.31-.69 6.5 0zM179.71 268.39c-.138-1.766 2.883-.369 4.064-.814.14 1.76-2.88.37-4.06.81zM65.866 268.39c1.631-.277 2.544.164 2.44 1.625h-2.44v-1.63zM115.47 268.39c-2.61 2.539-6.502 3.798-12.198 3.25 3.67-1.48 7.77-2.53 12.2-3.25zM195.16 268.39c.495 3.206-4.466.954-6.506 1.625-.5-3.21 4.47-.96 6.51-1.63zM278.91 269.2c1.551 1.526 1.471-.483 4.066 0 1.24 2.5-5.31 2.5-4.07 0zM97.578 270.83h4.879c.771 2.937-3.204 1.133-4.879 1.625-.003-.54-.003-1.09-.003-1.63zM144.74 271.64c2.47-3 2.74 2.47 0 0M264.27 270.83c2.299-.675 2.106 1.144 4.066.811.14 1.33-5.32 1.64-4.07-.81zM273.22 271.64c1.941-1.886 7.726-.719 7.318 2.439-3.91.66-2.94-3.56-7.32-2.44z" style="clip-rule:evenodd;fill-rule:evenodd"/><path d="M174.83 272.46c1.946.491 3.71 1.169 6.504.814-1.33 2.51-6.45 3.69-6.5-.81zM166.7 274.08c.1-1.794 3.448-.346 4.877-.811-.02 2.23-3.84 1.93-4.88.81zM118.72 56.972c10.396 6.409 16.114 17.496 25.208 25.208 5.99-11.085 11.618-22.534 16.263-34.965 2.299.672 2.106-1.146 4.066-.813-.348-1.551-2.323-1.471-1.627-4.065 4.833-12.253 15.377-26.522 12.197-41.471.945.132 1.446-.179 1.625-.813 2.913-.472 2.474 2.407 2.439 4.879 14.023-1.886 26.787 3.96 39.031 6.505 7.291-4.987 18.09-.659 22.769 4.065 9.394 2.616 15.103-1.775 25.208-.813 5.79.552 9.945 4.115 15.45 4.879 2.921.405 7.293-.987 11.383-.812 3.438.146 9.357-.422 11.386 3.252-8.804-1.956-14.471-.662-23.581 0 7.786 2.514 22.397-1.798 25.206 5.692-7.518-3.923-17.121-1.166-25.206-2.439-8.262-1.301-21.272-3.643-30.087-4.879-3.898-.547-8.146.146-11.384-.813-4.879-1.443-9.139-8.375-17.89-4.879-2.413-3.019-9.598-.838-16.265-1.626-9.551-1.128-17.603-5.252-24.394-1.626 7.044 22.771 16.436 43.196 26.834 62.612 1.777-.12 1.747-2.048 1.627-4.066 2.363.618-.738 6.702 1.627 7.319 2.729-1.933.955-19.279-.814-9.758-6.599-20.505-19.088-35.123-27.646-53.667 9.486 9.984 14.98 26.508 23.582 39.845 5.362 8.317 13.303 13.641 19.514 20.328-3.396-.682-8.313-6.854-12.195-9.757.951 6.645 10.233 11.986 16.263 16.263.565-2.735-1.672-2.666-2.44-4.066.239-1.934 2.201.904 2.44 1.627 2.284-1.238 2.563-4.484 4.064-6.506 3.132 1.697 1.918 3.387.814 6.506-2.209-.74.828-2.85.812-4.066-2.612-.173-1.979 2.9-3.252 4.066 1.386.512 1.338 2.456 2.439 3.252-.133.953-1.482.687-2.439.813q.683 1.756 2.439 2.44c-2.504-1.839-4.819 1.605-6.507 4.878 1.168 3.982 4.246 6.056 5.692 9.758q1.81-1.037 1.627-4.065c.772 1.392.16 11.802 1.627 4.065 1.846.865.309 5.112.812 7.319 1.986 2.06 1.731-1.714 4.879-.813.022 2.502-2.379 5.754 1.627 5.691 1.039-6.922 2.359-16.247 0-21.955-1.21.689-1.178 2.618-1.627 4.067-1.817-.352-.329-4.009-.812-5.693-3.266-.013-2.261 4.245-2.439 7.319-1.21.757-1.31 5.856-1.627.812 1.258-1.182.716-4.162.812-6.505-3.073.341-.468-4.491-3.252-5.691 5.29-3.112 4.43-12.376 5.691-19.516-2.536.987-2.447 4.599-3.252 7.318-3.918-3.336-.187-8.605 1.627-13.011 2.717-6.607 6.789-11.777 5.691-22.768.869-3.038-2.02-2.318-1.627-4.879 1.916.018 2.396-1.4 4.879-.813.554 2.208-.021 10.132 0 12.198 22.654 33.997 47.468 65.831 69.118 100.83 6.621-2.865 8.623-10.35 14.638-13.824.483-1.685-1.007-5.342.812-5.692 3.469.97 1.075 3.982 1.625 5.692 2.55 7.909 15.793 12.32 18.704 21.143 2.52 1 6.184-3.121 6.504.812.656 3.045-2.349.717-3.252.813-4.008.426-10.247 2.162-13.822 3.252-2.532-1.804 3.206-2.15 4.877-2.438-1.391-1.862-6.205-.299-8.944-.813 1.525 3.273-.234 5.468 4.067 6.505-2.169 8.374 1.504 11.762 1.625 21.142-2.163-4.342-3.074-9.936-3.252-16.263-3.512.194-6.22 2.091-4.067 5.691-1.428-.74-1.486-2.849-2.439-4.066-8.915 6.805-16.952 14.489-25.206 21.956 10.208 1.988 24.557-.162 34.965 1.625 1.218-3.438-3.375-5.225-.812-7.316 3.522.271 1.89 5.699 4.064 7.316 4.203 1.033 8.524-2.127 9.758.814-1.61 1.942-3.539.227-5.691.812-5.389 1.471-10.912 9.961-17.89 13.825-.824.455-2.86.638-3.252.812-3.964 1.771-8.121 5.314-13.825 4.066-.726 1.81-3.147 4.072-4.877 2.439 1.301-3.073 5.188-2.765 8.132-4.066 3.665-1.623 6.608-4.226 12.197-4.879 4.835-3.838 11.295-6.053 14.636-11.386-13.306 2.371-28.404 1.368-42.283.814-8.667 5.698-15.177 13.554-23.581 19.517-.565 2.983-1.404 6.182 0 8.943 6.121-2.552 7.427-9.918 14.636-11.383 2.287.967 2.19 4.313 3.254 6.504 1.958.333 1.768-1.484 4.064-.814 1.861.634-2.534 1.709-4.064 1.629-2.928 3.579-5.341 7.668-6.507 13.009-3.608 1.541-7.153 3.146-8.131 7.318 3.437 1.44 8.974.784 13.011 1.627-2.193 1.874-7.843.287-11.386.812-.068 1.156-.135 2.304.814 2.439-1.384 2.111-1.899-3.458-4.066-3.252-3.81 2.694-3.088 9.923-6.504 13.011 4.156 1.151 8.702-1.794 14.635 0-.124-3.398-2.604-4.442-6.504-4.066 3.792-3.229 8.612-2.111 16.263-2.438-.715 3.621-7.126 1.547-9.759 3.25.432.653.849 1.319.814 2.439 3.993 1.804 11.159-.209 14.636-1.625 2.072-1.18 1.104 2.219 1.627 2.439 2.464 1.039 5.935-2.376 8.943 0-1.801.788-9.874 5.027-9.756 0-6.482 1.352-11.586.537-16.265 2.439-1.938-2.518-12.165-2.78-13.01.812.959 3.212 4.032-.407 6.506 1.627-.351 1.817-4.009.329-5.691.812.816 1.623 3.595 1.282 3.252 4.066-6.519 1.096-8.515-2.327-14.638-1.627-.407-1.258 7.837-.812 9.759-2.439-.608-1.535-2.428-.563-.812-2.439-3.112-.401-2.599 2.824-6.507 1.627-.347-2.247 3.031-.763 3.255-2.439-5.786-3.748-13.151 2.626-18.704-1.627-4.306.957-7.744 2.738-12.196 2.439-2.721-.183-4.821-2.283-7.318-2.439-6.153-.384-13.49 3.071-21.142 2.439-3.02-.249-5.297-1.623-8.134-1.627-6.401-.008-13.883 4.177-20.326 0-7.877 2.078-15.553 1.482-22.769.814-1.581-.146-2.566-1.553-4.067-1.627-4.534-.223-9.257.877-13.823.812-6.892-.095-16.01.373-21.956-1.625-1.948-.534-3.728 1.418-5.692 1.625-4.183.441-7.12-2.121-11.383-2.439-1.362-.101-1.583 1.393-3.254 1.627-1.647.23-3.772-.951-4.877-.812-6.893.86-13.634 3.779-18.704-.814-8.97 2.359-14.519 2.989-23.581 1.627-1.621-8.138-10.314-9.201-11.384-17.89-.945.133-1.446-.179-1.627-.812-14.565.099-27.598 1.018-41.47-.812 12.561.084 28.045-2.072 39.845 0 3.413-4.177.229-14.95 4.877-17.892 1.139.289.07 1.433-.813 1.629 1.043 2.27 3.872-.373 4.067-1.629-10.812-.491-6.743-12.562-11.385-17.888.16-3.635 2.546-5.043 4.066-7.318-6.598-4.245-.572-21.113-11.385-21.142-.847-4.241-1.14-7.463 3.254-8.133.249 2.463 2.516 2.904 1.625 6.506.373 1.083 3.515-.973 4.066 1.627 1.067-.289 1.278-1.433 2.439-1.627.337-4.403-1.755-6.376-2.439-9.757 5.417-5.56-1.705-14.989 1.627-19.516 3.878-.772 1.384 3.722 1.625 5.691.481 3.937 2.004 7.958 1.627 9.758.534 1.091 1.738 1.514 3.252 1.626-1.709 4.093-2.374 9.583.812 13.824 2.139.241.64-3.155 3.254-2.439 2.51 4.348-3.587 4.327-7.319 3.252-.497 3.208 4.464.957 6.504 1.627 2.486 1.256-3.527.715-4.879.812.726 2.526 5.689.816 7.318 2.439 1.266-1.153-1.936-6.715 3.252-5.691-5.818-9.309 6.596-13.836 3.254-.814-1.31 1.673-4.394 1.571-4.066 4.879 7.798.679 13.672-11.94 17.889-18.702 1.615-.01 1.033-2.219 3.252-1.626 1.013-5.222 4.568-7.902 4.879-13.824-.686-1.752-3.567-1.312-4.879-2.44 2.45-2.591 7.387-.841 13.01-1.626 1.451 1.377 6.519 4.611 8.133.813-.351-1.818-4.008-.33-5.693-.813.596-.759 1.479-1.232 2.439-1.626-.648-1.52-1.358-2.978-1.625-4.879-.995-1.174-3.104-1.233-4.067-2.439-.03-5.945-8.233-8.013-6.506-13.01-1.533-2.261-4.881-2.708-4.064-7.319 1.298 1.685 1.765 4.198 4.064 4.879-.026-5.935-5.545-6.38-8.944-8.945-1.122-6.467-8.153-7.025-6.504-16.262-.732-2.794-3.515-3.534-3.254-7.319 5.764-.342 3.08 7.762 8.946 7.319-.09 2.022-1.525 2.517 0 4.065 2.425-.013 2.765-2.115 4.879-2.439-.253-1.104-2.037-.675-3.254-.813 1.505-1.207 3.864-1.558 6.506-1.626 13.115-9.767 29.038-20.681 34.964-34.965 2.197 1.174.72 4.938 3.254 7.317-6.583-.088 2.931 10.45-2.439 8.946 1.348 9.764 3.8 18.426 8.131 25.207-.239-3.03-3.142-10.399-4.879-14.636 3.505-.848 3.12 11.621 6.506 13.823.343 1.7-.558 2.154-.814 3.253 3.458 3.036 6.332 12.996 8.946 19.516 3.059-2.36 2.823-8.018 4.879-11.384-.078-3.446-7.465.417-6.506-4.065 8.549.959 7.565-7.615 11.383-11.384-5.96-11.664-18.22-17.023-24.41-28.449zm100.02 18.703c2.863 3.099 3.956 7.969 7.318 10.571.723-1.717 2.475-2.403 2.438-4.879-3.19-1.447-6.62-6.916-9.76-5.692zm8.94 12.197c.231-.954 3.584-3.378 0-3.252 1.12 1.852-2.1 3.056 0 3.252m8.13 20.328c-1.206-1.52 2.319-3.73-1.625-4.066.472 2.64-.554 3.783-.814 5.692 1.728.357 3.625 1.011 5.693 0 1.24-3.81-3.75-2.25-3.25-1.62zm-1.62-5.69c-3.118-2.574-4.646-6.738-6.507-10.571-2.076-.628-3.737 3.182-4.879.813 4.113-7.621-5.039-14.636-8.131-20.329-.445 1.182.951 4.203-.812 4.065-.187-1.44.818-4.072-1.627-3.252-2.051 12.42 8.013 17.386 13.824 24.395-2.51.215-4.967 2.926-6.506 1.626.917 6.066-5.794 4.505-4.879 10.571 6.211-.248 11.799.128 17.077.813 1.93-1.61 1.14-5.92 2.45-8.13zm-20.33-15.452c-.352 2.632 1.069 7.034-1.627 7.319-.329-2.422.788-10.491-.812-8.945.476 4.269-1.433 6.156-.812 10.571h10.57c-1.56-3.858-4.21-6.64-7.32-8.945zm25.21-2.438c2-5.056-2.55-2.682 0 0m3.25 1.626c.175-6.162 5.038-8.378 1.627-13.824 2.217-2.438 2.46-10.611 0-13.011-1.591 8.981-3.235 17.908-4.066 27.647 2.645-1.274 4.382 4.202 4.879 0-.09-2.88-2.69 1.728-2.44-.812m.81-1.626h1.627v-1.627h-1.627zm15.45 54.48c10.136-1.203 14.678-.382 26.833-.813 1.526-.195-.459-1.339.814-1.626 3.256 1.465 16.356 2.723 13.011-.813 3.172 1.437 8.372.844 10.57 3.253-5.24.723-7.973 3.953-14.637 3.252-3.436 2.529-5.687 6.239-10.571 7.318 1.646-2.691 5.44-3.234 6.506-6.505-5.304-.677-13.052-.177-21.142 0 .133 2.573-2.162 2.717-1.627 5.691 2.205 2.403 3.762 5.454 7.319 6.505 2.877-1.458 4.951-3.721 8.131-4.878-1.936 2.401-4.441 4.231-7.318 5.691 6.903 13.094 27.762 1.968 32.526-6.505 5.295.688 6.444-2.771 8.131-5.692-23.011-30.386-43.364-63.429-65.865-94.324 3.191 11.443 9.265 20.009 13.824 30.086-2.196-.244-1.458-3.42-3.254-4.065 5.525 13.99 11.024 28.007 21.144 37.405-5.396-10.599-14.543-21.775-17.077-32.526 5.975 11.642 12.852 22.384 19.515 33.338 2.019-.119 3.948-.151 4.066 1.626-11.04 2.725-21.326 1.57-33.339 0-1.661 5.457 4.839 2.75 4.879 6.506-4.262 2.704-4.594 7.174-7.318 9.757-.953-.23-3.379-3.582-3.252 0 3.1.11 4.35 5.6 8.14 7.32zm19.52-30.09c-2.11-4.241-6.273-8.329-8.946-13.011-8.171-14.321-13.563-31.529-21.142-45.536-.571 16.835 3.579 28.946 4.067 44.724 3.216 1.932 6.418 3.88 8.943 6.505-2.556-.967-4.302-2.746-7.318-3.253.04 5.111.78 9.52 1.627 13.824 8.068-.794 19.692 2.763 24.394 0-3.74.9-.83-1.65-1.62-3.25zm22.77 30.9c-1.678.492-5.649-1.312-4.879 1.627h4.879v-1.63zm-32.53 3.26h-4.879c.624 2.791 2.251 4.574 4.879 3.252v-3.25zm28.46 18.7c5.543.379 11.164-3.451 15.449-1.627-5.149.826-11.054 5.191-16.262 3.254.63-.183 1.603-.024 1.625-.814-5.487-.606-8.448 1.31-13.823.814 1.444 4.721 9.485.443 11.384 1.625-2.346.906-5.042 1.465-8.132 1.627 4.817 7.381 11.719 12.678 17.89 18.704 4.97-3.37 8.652-8.241 13.011-12.198 3.025-2.748 8.095-4.169 8.945-8.945-3.084-4.69-7.531.565-9.759 0 3.295-.267 6.121-5.437 1.626-6.506 3.065.626 3.888-.991 6.506-.812-6.57-11.62-23.74-.55-28.48 4.89zm33.34-5.69v-4.065c-2.976.176-3.119 1.116-5.691 0v2.439c3.19-.76 2.05 2.82 5.69 1.62zM42.28 209.84c.439-1.888-1.314-5.605-2.438-3.252 1.674.23.765 3.03 2.438 3.25zm48.789-84.56c1.146-1.939-1.296-5.915-4.065-6.505-.322 3.84 1.68 5.36 4.065 6.5zM79.686 86.246c-2.536 1.259-6.591 1-6.506 4.879 2.509 1.501 4.678-3.118 6.506-4.879m33.341-22.769c-.13-2.75-2.732-3.527 0-4.879-4.201-.692-5.156 4.169-7.319 6.506-8.452 9.133-21.934 15.727-29.272 26.021 16.216-3.299 20.518-18.513 32.524-26.021-9.008 12.404-22.207 20.618-30.085 34.152 2.975 4.885 5.497 10.223 9.756 13.824 6.107-9.073 9.712-20.647 15.45-30.087 2.658 2.609-.211 6.685-1.625 9.758-3.433 7.448-8.511 14.135-11.385 20.329 6.247-.913 15.412 4.88 18.702-.813.092.992.245 1.925 1.627 1.626 1.115-3.283-1.457-2.879-2.44-4.065 1.631-11.924 4.37-27.069 3.252-39.031-.195.882-1.338 1.952-1.625.812.424-1.28 3.13-4.354.813-5.692-1.162 3.445-2.313 6.902-4.065 9.758 1.4-4.567 2.03-9.904 5.69-12.21zm6.5 20.329c-.583-1.137-1.328-3.168-3.252-3.252-.251 2.961.13 5.292.812 7.318-3.356-2.95-.875 11.798.814 6.505-.534 4.889 1.069 11.913-.814 15.45-.483-1.684 1.005-5.342-.812-5.692-2.159 5.358 3.493 7.946 0 11.383 5.122-1.437 13.522 2.987 17.89 0-6.98-8.6-9.44-21.597-14.64-31.714zm64.24-76.436c-4.71-2.346-2.14 2.006 0 0m.82-.813c.75 3.824 2.563 1.291 4.877.813-.249.986 2.349 2.804 2.439.812-2.56-2.243-4.31-.463-7.32-1.625zm22.76 4.879c-4.604-1.629-8.102-4.366-14.636-4.065 1.71 3.995 12.9 2.81 14.64 4.065zm-27.64-1.626h1.625V8.183h-1.625c-.01.542-.01 1.084-.01 1.627zm.81 7.317c-.729-2.793-1.264-5.783-3.252-7.318.16 3.357-.93 7.974 3.25 7.318zm43.1-4.879c1.182-.444 4.203.951 4.064-.812-1.21-1.29-3.32-.599-4.06.812zm24.39 5.693c-6.09-.974-2.62 2.489 0 0m28.46 2.439c-4.416-1.56-12.222-4.024-17.89-1.626 5.42.552 11.92 4.326 17.89 1.626m-91.07 7.318c-.534-.949-2.268-1.278-2.44-1.626.043.085 1.331-.833.812-1.626-1.442-2.209-3.075-1.53-4.064-5.691 1.004 23.884 5.616 50.6 6.505 77.249h22.769V78.928c-5.198-6.939-10.372-15.062-14.638-23.581-4.291-8.574-8.603-18.313-9.756-26.834.284 2.424.469 4.951 2.438 5.692-1.51-2.231-.7-4.857-1.63-6.507zm79.69-5.692c3.21.401-2.652-2.5-5.693-.812 3 .61 4.48.661 5.69.812zm-119.54 64.24c-1.152 4.54-5.828 5.556-6.504 10.571 4.462 1.404 10.667-.816 17.077 0-2.4-4.657-7.09-7.009-10.58-10.571zm25.21-45.537c-.241-2.139 3.155-.64 2.439-3.253-2.145-6.536 2.032-6.504 1.627-13.01-6.099 3.93-4.097 15.961-9.758 20.329-2.69 16.825-11.137 27.895-17.89 40.657.867 1.574 3.746 1.133 4.879 2.439 1.009 4.954 3.501 8.425 8.944 8.945 2.94-19.023 6.24-37.669 9.76-56.107zm-.81 46.349c-.981-6.145 2.51-12.105 0-17.076-.896 9.133-2.755 17.303-3.252 26.834 3.023.855 1.593-2.743 3.252-3.252-.567 3.006 1.286 3.592 4.064 3.252 1.351-18.017 2.715-45.307.814-60.986-1.45 17.245-1.81 35.587-4.87 51.228zm8.13-2.438c.064 3.968-1.857 11.363 2.439 11.383 3.594-2.779 1.065-8.047.812-12.197-.804-13.265-.259-30.593-3.252-40.658.15 12.979-.2 29.033 0 41.472zm15.45-37.406c-.059-.519-2.652-2.735-2.439-.813.21 1.859 2.59 2.15 2.44.813zm-22.77.813c-.68 4.81.47-3.262 0 0m0 6.505c.223-1.106-.504-3.174-.812-1.626-.22 1.108.5 3.174.81 1.626zm-3.25 12.198c-1.24 6.874-1.111 14.07-1.627 19.516-.346 3.649-4.515 8.328-.812 10.571 2.194-12.44 2.616-26.657 5.691-38.219-3.45.52-2.75 5.351-3.25 8.132zm14.64 3.252c-.529 11.331 3.056-4.06-.814-4.878-.6 2.485.82 2.963.81 4.878zm2.44 26.021c-.019-4.202.731-15.798-2.44-19.516 2.57 4.741-1.5 16.128 2.44 19.516m-113.03-1.626c-.008-3.276-3.062-7.739-4.879-6.505 2.062 1.732 1.161 6.426 4.879 6.505m4.064.813c3.056.615 2.75-2.128 4.067-3.253-1.981.459-4.183.696-4.067 3.253m.815 4.88c-1.796-.644-1.058-3.822-3.254-4.065-1.68 1.046 1.009 7.115 3.254 4.065m177.26 6.51c-1.398-.044-2.085.626-2.439 1.626 1.19 1.15 3.15 1.19 2.44-1.63zm-3.25-5.7c1.039.045 1.125 1.042 2.439.813.66-3.541-2.367-3.892-3.252-1.627.105-1.068.122-5.883-.815-3.252-.261 5.16.688 11.53-.812 15.45 6.41.14.89-6.66 2.44-11.38zm-133.36 0c.223-1.106-.503-3.174-.812-1.626-.22 1.106.5 3.176.81 1.626zm63.43-2.438c-.957.127-2.309-.14-2.439.813.96-.127 2.31.141 2.44-.813zm4.88.814c-.913.082-1.267-1.182-1.628 0 .01.824 1.43 1.024 1.63 0zm1.62.814c1.4.044 2.084-.626 2.439-1.626-1.28.076-2.82-.11-2.44 1.626zm5.7 0c2.52.081 4.51-.368 5.691-1.626-1.85.591-6.35-1.466-5.69 1.626zm12.19-1.628c-.956.127-2.307-.14-2.439.813.96-.127 2.31.141 2.44-.813zm-41.47 1.628c-1.176 3.076 2.234 1.561 1.627 4.066 4.845.19 5.513.069 8.943.812 2.54-8.812-6.72-3.1-10.57-4.88zm23.58 10.57c-2.077.09-2.845 1.491-4.065 2.439.957.127 2.308-.14 2.44.812-2.245-.348-.765 3.033-2.44 3.253.932-2.558-1.277-1.977-1.627-3.253-1.536-.181-1.793.917-3.252.813-1.239 4.764 3.944 3.104 4.066 6.505 3.841.045 4.749-2.84 7.317-4.065-.43-2.55-1.43-4.53-2.45-6.5zm1.63 8.94c-.687 1.751-3.567 1.312-4.88 2.439 2.635 4.684 7.209 7.428 10.571 11.383-1.01-5.48-2.39-10.6-5.69-13.82zm-6.5 3.26c-4.862 3.436-.854 10.611-.814 16.264 3.356.645 5.062-.36 5.692-2.44-.63 3.916 8.075 2.727 9.758 1.626-1.444-4.201-6.097 1.797-8.131-.812.014-2.427 6.026 1.146 4.879-2.44-4.09-3.79-6.86-8.87-11.39-12.2zm26.83-13.83c1.296-.601-.187-3.98 2.439-3.253-1.096-3.521-2.995-2.002-.812-5.693-3.814.313-9.725-.066-14.638 1.627-4.125-1.938-10.123-.507-13.011.812.245-2.142-1.125-2.668-3.252-2.439-1.426.743-2.824 1.513-2.439 4.066 3.806 1.912 11.022-.092 13.823.812-.506 2.205-3.396 2.024-3.252 4.879.889 1.822 1.346 4.075 2.439 5.691 2.973.536 3.119-1.759 5.691-1.626-7.774 3.638-1.125 13.756 0 20.329 6.553-.224 10.604-2.946 16.263-4.065.068-6.302-1.398-11.069-.812-17.89-1.896-2.568-9.125-1.852-12.198-.813 1.252-2.032 5.255-5.546 6.507-4.878-2.8 1.56.92 3.32 3.25 2.43zm4.88-4.87c2.602-.108 3.577-1.844 3.252-4.879-2.81-.1-3.78 1.639-3.25 4.879zm-83.76 15.44c-5.483 1.434-11.094-2.179-13.823 1.626.363.944 4.919-.203 6.506 1.626-.412 3.926-3.728 4.948-4.879 8.131 7.01 4.62 10.35-5.72 12.19-11.39zm-13.01 12.2c-1.882 1.808.277 3.171 0 5.693 3.822-1.609 10.563 3.644 15.45.812-4.101-1.096-8.357-5.845-12.196-2.44 2.1-2.19-.85-3.92-3.25-4.06zm43.1-31.71c-7.139 1.669-13.237-.369-21.142.813.684 6.919-3.038 9.43-4.879 13.824.634 2.077 4.042 1.378 4.066 4.066-9.243.516-10.053 9.462-13.825 15.45 6.556 1.848 12.191 4.613 18.702 6.505 3.407-1.475 6.41-3.349 10.573-4.066 1.176-1.263 1.083-3.794 2.44-4.879 2.034-.137 2.543 1.249 3.251 2.439-2.82-.381-.467 4.413-2.439 4.879-.079-1.278.108-2.82-1.627-2.44q.184 3.03-1.625 4.066c.716-4.773-4.779-.999-6.506-.813-1.262 3.432 4.516-.178 3.252 3.253-14.116-.834-20.849 5.713-24.394 15.45.163-4.835-6.948.847-7.319 3.252 6.023 8.07 10.228 17.962 17.077 25.208 7.118-10.501 17.476-22.097 15.45-39.031-5.086 10.311-10.059 26.412-16.264 31.713 7.431-11.815 10.934-27.555 19.516-38.218.016 5.991-3.015 13.231-1.627 17.889 1.979-2.9 1.429-8.33 3.254-11.384.443 1.182-.951 4.203.812 4.066 3.557-7.286 8.87-12.815 11.383-21.143-2.019-1.057-3.375 2.386-4.064 0 9.148-.49 6.903-13.024 2.439-17.076 3.212 1.124 3.062 5.611 5.691 7.319.734-1.791-.116-3.492.812-6.505-2.891-1.264-.491 2.762-2.439 2.44-1.549-1.974-1.716-5.332-4.879-5.693-.662 2.049-2.183 3.237-3.252 4.879.851-3.147 2.798-6.594-.812-8.131-.285 3.535-2.983 8.912-.814 12.197-.696-1.658 1.279-4.48 1.627-2.439-1.138 4.013-2.591 7.71-4.879 10.572 1.042-4.154-2.37-.861-2.44-2.44 2.9-7.4 3.6-17 4.88-26.02zm-34.96 52.04c4.377-2.126 8.769-4.24 10.571-8.945-2.773 2.377-8.314 1.987-11.385 4.065 1.695.467 1.017 5.26-.812 4.879-1.753-.687.305-5.184-1.627-5.693-2.27 1.852-.046 3.151-2.44 4.879.496-1.944-1.019-5.899.814-6.505.843 1.097 17.286-1.149 8.944-1.626-2.937-2.479-7.118-.08-9.758-1.626 1.4.043 2.084-.626 2.44-1.627h-4.065c-.413 2.026.026 4.906-2.439 4.879 1.111 2.386 2.207 2.753 0 4.879 1.188.709 3.148.646 2.439 3.253-1.171-.911-1.984-.877-2.439.812 3.198-1.029 2.417 1.918 2.439 4.065 4.74.41 5.68-2.98 7.33-5.67zm11.38 36.59c1.922 4.04 3.22 8.707 7.319 10.573 2.847-7.995 2.708-18.976 4.879-27.648-5.48 4.29-7.83 11.7-12.2 17.08zm23.58-77.25c-.883-2.083 2.469-3.876 0-4.878-.52.86-1.61 6.97 0 4.88zm52.86-4.06c.602-1.899.563-4.582-.814-6.505.49 1.95-1.03 5.9.81 6.51zm39.03-1.63c.046-.497.12-.963.812-.814-.093-.992-.243-1.925-1.627-1.626.13.96-.14 2.31.82 2.44zm-166.7 9.76c-.271-1.896-.833-3.502-2.439-4.065.094 2.07.152 4.18 2.439 4.06zm131.73-4.07c-.957.127-2.307-.139-2.439.813.96-.12 2.31.15 2.44-.81zm11.38 8.95c1.299.601-.184 3.98 2.44 3.253 4.319-2.701 5.1-5.625 13.824-4.879.04-2.479-.74-4.14-2.439-4.879-.396.961-.866 1.844-1.627 2.44-1.819-5.064-7.124 1.388-10.57-2.44-.315 2.124-.418 4.462-1.628 5.693-.008-2.161.31-4.645-.812-5.693-5.998.243-9.311-3.205-13.01.813 1.011 4.138.359 9.941 1.627 13.824 1.425.224 4.057-2.291 4.879 0-1.96-.333-1.768 1.484-4.066.812.008 2.161-.307 4.644.812 5.692 1.427.224 4.059-2.29 4.879 0-3.155-.175-5.1.862-5.691 3.252 1.665 1.259 7.278 1.259 8.945 0-.395-4.569-.6-5.323 1.625-8.131 2.735-.567 2.667 1.671 4.067 2.439-2.559-.39-3.181 1.158-4.88 1.626.446 1.182-.95 4.203.812 4.066 1.405-.494-.062-3.857 1.628-4.066.012 2.156-.452 4.788 1.625 4.879 2.16-.673 5.966-.146 8.945 0 5.272-6.928-5.893-21.633-10.57-11.385-2.366-2.088-5.744 1.068-7.319-.813 4.93.58 5.05-3.63 6.52-6.49zm21.15-4.88c-.181.634-.683.946-1.628.814-.592 2.219 1.617 1.637 1.628 3.253 1.354-1.084 5.174.296 4.879-2.439-3.375 1.452-4.765-.706-3.254-3.253-1.12.035-1.786-.382-2.44-.812-.04 1.12.38 1.78.81 2.44zm-34.97 13.01c-.973-4.72.638-12.021-2.439-14.638 1.78 3.92-.33 11.72 2.44 14.64zm-121.97-13.82c-5.208-.94-1.785 2.48 0 0m9.761 1.62c-.494-.469-3.858-1.903-4.067 0 1.446-.48 3.377 2.39 4.067 0m4.88.82c.002-.452-.66-.923-.814 0 2.72 2.19 7.49-.63.81 0zm-17.08.81c3.304 4.014 6.456 8.181 8.131 13.824 1.958 1.623 3.938-1.419 5.692.813-1.537-.183-1.793.916-3.252.812-.125 2.023 1.278 2.518 1.627 4.067h4.879c2.998-4.09-.764-5.664 1.625-8.945-4.179-.158-4.752-3.921-8.131-4.879 2.339-4.068 9.828.234 11.383-3.253-5.56-1.7-17.047-5.4-21.95-2.43zm89.45 4.06h1.625v-1.627h-1.625c-.01.55-.01 1.09-.01 1.63zm71.55 0c-.011-.82-1.425-1.023-1.625 0 .91-.08 1.26 1.19 1.62 0zm4.88-.81c-.957.127-2.308-.14-2.439.813.96-.12 2.31.14 2.44-.81zm-161 9.76c.203-1.404-1.531-4.815-2.439-2.438 1.536.09.563 2.69 2.439 2.44zm146.37-1.63c.63 3.164.931 6.658 3.252 8.132-.906-2.674.139-7.786-.812-6.506-1.3 3 .18-3.28-2.44-1.62zm-43.92 8.95c5.11 2.43 9.656-2.098 15.452-1.626v-4.879c-5.64 1.68-13.62 1.01-15.45 6.51zm17.9-3.25c-.187-1.441.818-4.073-1.627-3.253-.23 1.85.19 3.05 1.63 3.25zm115.46 15.44c-.514-2.739 1.048-7.554-.812-8.945.15 4.47-3.87 8.11.81 8.94zm-.81-17.88c-3.37 4.49-8.049 7.672-10.57 13.01 1.344 2.721 2.483 5.646 7.318 4.879 1-5.52 5.26-12.08 3.25-17.89zm4.06 6.5c.399-.053-.718-2.112-.812-1.626-.965 5.009-3.134 11.507 2.439 13.01 1.933-.867-1.743-3.746.812-4.879-.389 2.558 1.16 3.179 1.627 4.879 4.35-.53 10.826 1.067 13.823-.814-6.767-4.617-10.613-12.155-17.89-16.263-.59-.43 2.39 5.37 0 5.69zm-231.74 1.63c-2.161-1.634-1.972-5.618-4.879-6.505-.893 4.18 2.829 7.97 4.879 6.51zm69.93 5.69c-1.262-2.626 2.051-10.991-.814-11.383-1.444 4.65-.135 7.006-3.252 9.757 3.09-1.66 3.14 3.76 4.06 1.62zm78.87-10.57c-.245 2.143 1.127 2.669 3.254 2.44-.05-2.19-1.85-3.91-3.25-2.44zm-145.55 17.07v2.438h2.439v-1.626c-1.04-.04-1.13-1.04-2.44-.81zm3.25 0c-1.497-8.228-8.137-6.406-11.383-13.011-6.165-.428-8.697-1.636-14.637-.812-4.949 15.107-14.272 25.843-22.769 37.404 15.31 6.488 28.769-5.944 41.471-9.758.134-4.022 2.718-10.196 3.254-16.262 1.92.26 1.52 2.83 4.07 2.44zm0-11.38c-4.687.039-.265-.739 0-2.439h-4.879c-.48 2.44 3.44 4.61 4.88 2.44zm17.08 0c9.42 1.28 1.8-3.25 0 0m64.24 0c.809.711 7.04 2.263 6.504-.813.23-.51-5.73-.37-6.5.81zm82.13-.81c-.346 3.267 5.522 1.352 5.691 0-2.92.67-3.94-1.84-5.69 0zm10.57.81c2.108.812 5.445 1.428 6.504-.813-1.66-1.57-5.33-.55-6.5.81zm-171.58 8.94c1.294-2.09 1.506-8.719-.813-9.758.19 4.38-3.51 7.74.81 9.76zm75.62 24.4v2.439c.957-.126 2.309.141 2.439-.812-1.28-.08-.63-2.08-2.44-1.63zm29.28 17.08c-.74-4.141-4.671-5.088-4.879-9.758-5.13-4.989-11.502-5.969-15.45-12.198-5.26-8.296-2.596-20.238-8.131-29.272-3.104-.727-5.19 1.328-6.507 0-.535 4.072.586 10.039 2.439 4.879.568 4.09-1.38 5.667-.812 9.757 1.6.244 1.613-1.097 2.44-1.626.98 3.42-1.314 3.567-1.628 5.692 5.417.12.231 2.455 0 4.066 1.082 1.99 3.025-.895 3.253.812 2.732 11.904 5.661 23.613 7.318 36.592-.6-.574-3.98-2.026-3.252.814 9.86 1.39 15.84-7.96 25.21-9.75zm-17.89 9.75c-1.452.718-3.351.752-3.252 3.252 7.463 1.751 15.591 2.841 24.394 3.252.263-4.201 3.668-7.309 1.627-11.384-4.064.273-1.635 7.04-4.879 8.132-.234-4.549 3.479-8.651 1.625-12.198-6.09 3.37-13.36 5.9-19.51 8.95zm10.57-60.98h-7.319c-.1 3.54 6.65 2.49 7.32 0zm30.9 1.62c1.515-.111 2.719-.535 3.252-1.626-1.44.19-4.07-.81-3.25 1.63zm13.01 0c1.536-.36 4.9 1.106 4.064-1.626h-4.064v1.63zm13.82-1.62c-1.428.467-4.776-.983-4.879.813 1.32 1.39 4.2.74 4.88-.81zm-127.66.81c-.957.127-2.309-.141-2.439.812.96-.13 2.31.14 2.44-.81zm38.22 2.44c2.371 1.196 2.371-3.634 0-2.438v2.44zm-24.4 22.77c-.443-1.182.951-4.203-.812-4.066-2.432 11.124-5.633 25.806-4.879 37.406 3.437-7.679 2.106-20.121 5.691-27.648.412 2.557-1.916 3.322.814 4.066 2.107-10.859 9.893-25.626 9.757-33.339-3.95 7.42-8.79 13.97-10.57 23.58zm47.16-24.4c2.576 13.688 9.397 23.129 14.638 34.152 2.544-.166 5.971.548 7.318-.812 1.784-6.434-9.651-17.959-4.066-15.451-.345-6.158-3.176-9.832-3.252-16.263-3.096-1.648-5.387.665-9.759 0-.895 3.648 4.685 5.02 2.44 7.319-1.73-3.69-4.23-6.61-7.32-8.95zm24.4 0c-3.235-.526-3.27 2.152-6.506 1.626-.443 1.182.951 4.203-.812 4.066-.185-1.441.82-4.072-1.625-3.253-.021 1.916 1.4 2.395.812 4.879 6.021 1.298 1.675 12.961 6.504 15.449-.056-2.765-.253-5.674 1.627-6.504 1.929 2.542-.609 6.772 0 10.57.434 2.702 3.054 2.185-.812 1.627.095 2.887-.588 6.551 2.439 6.504 4.059-1.022 3.948-6.167 4.878-9.758 1.974-7.624 5.862-16.249 7.318-23.581-1.904-1.618-5.174-1.873-8.943-1.626-2.342.912-.554 5.952-3.253 6.505-.395-1.447-.868.354-1.627.813.62-1.92 1.6-5.62 0-7.32zm29.27 1.63c1.322 5.727 1.787 12.309 4.879 16.263 2.371-3.863 5.545-6.923 7.318-11.384-3.47-3.21-5.92-8.67-12.2-4.88zm-78.87.81h1.625v-1.626h-1.625c-.01.55-.01 1.09-.01 1.63zm17.89 7.32c.481 10.088 3.826 17.315 10.57 21.142-.632.181-1.604.022-1.627.812 2.226.757 3.469 2.496 5.692 3.252.343-2.782-2.436-2.443-3.253-4.064.955-4.141-4.828-8.032-5.691-13.012 6.326 2.891 4.281 14.151 13.011 14.637-5.76-9.689-8.431-22.468-14.638-31.712-.11 2.329-5.581-.703-5.691 1.626 1.382 3.514 5.337 8.737 4.879 11.384-1.22-1.22-1.45-3.43-3.25-4.07zm58.54-6.51c2.15 4.3-1.54-3.09 0 0m-9.75 34.16c-3.495 1.827-.898 3.996-1.627 6.504 2.548 1.348 2.293-4.053 3.252-1.625-.722 1.446-2.269 2.066-1.625 4.879-7.326 2.287-2.042 9.124 1.625 11.384-2.343-.365-2.544-2.877-5.691-2.44-.979 5.046 1.836 6.296 4.066 8.134-2.428.181-2.767-3.004-4.879-.814-.271 4.359 5.084 7.354 8.943 4.879-1.844-1.353 1.19-10.312 0-16.263-.251-1.918-2.824-1.513-2.439-4.066 3.782.734 2.985-6.899.814-7.316 2.698-3.014.424-3.147 0-5.694-.002-.004 1.71-.994 1.625-1.625-.05-.373-1.665-.738-1.625-1.627.006-.166 1.444-1.338 1.625-2.439.859-5.222-.691-11.413-.812-17.076-.063-3.008 2.901-7.181-.812-8.945-1.783 5.807-.11 15.068-4.066 18.702 1.671-.373 1.886 2.133 1.627 5.691-1.039-.044-1.127-1.041-2.439-.812 3.204 3.212.002 4.837 0 4.879 3.48.7-1.1 4.73 2.45 5.7zm73.18-30.09c1.048 1.121 3.531.805 5.692.814-.46-1.981-.696-4.183-3.253-4.067-.24 1.67-2.2 1.6-2.44 3.26zm-134.17 1.63c.247-2.145-1.697-2.097-3.252-2.44-.82 2.71 1.13 2.66 3.25 2.44zm73.18-.82c-.913.082-1.267-1.183-1.625 0 0 .82 1.42 1.03 1.62 0zm6.51 17.08c-.474 6.009 2.556 15.251 4.879 21.142 9.546-1.029 16.803-8.669 24.394-8.943-3.17 4.69-11.59 4.133-15.449 8.131 6.771-.371 23.753 1.153 29.274-.812-9.188-10.328-18.873-20.16-29.274-29.274-4.47 3.38-8.59 7.12-13.82 9.75zm13.01-11.38c-2.47-1.596-2.797-5.335-7.319-4.879-.604 6.712-8.129 6.508-7.318 14.637 5.62.61 8.79-7.93 14.64-9.76zm-104.9.81c.194-.884 1.34-1.954 1.627-.814.227 4.293-2.993 5.14-4.066 8.131 1.398.321 2.084-1.206 2.439 0v4.879c-1.035 1.134-3.982.355-4.064 2.439 1.432 2.474 2.518-2.219 3.252 0-2.376 10.005-2.734 21.938-4.879 30.088 3.348-.639 4.173 1.247 7.318.812.662-18.038 1.492-32.246 1.625-49.602-1.416.06-2.528-.183-3.252-.813.87 2.07-2.48 3.87-.01 4.87zm164.26-4.07c.803 3.599.125 2.126-.812 4.877 2.458-.251 6.324.904 6.504-1.625-.961-.394-1.843-.867-2.439-1.626.947-.137.883-1.286.812-2.439-1.88-.26-3.12.13-4.06.81zm-155.31 2.44h2.439q.22-2.66-2.439-2.438v2.44zm73.99 17.08c2.546-4.317.893-15.203-1.625-19.514.9 6.14-1.92 16 1.62 19.51zm-14.63-16.26c.116-.961 1.446-1.844 0-2.439-.12.96-1.45 1.84 0 2.44zm-131.73 8.13c.49-.361-2.502-1.435-1.627.812 6.319-.379 10.422-3.828 8.131-10.57-4.37 1.69-2.87 7.08-6.5 9.76zm-60.99-4.07c.106-1.067.125-5.882-.812-3.251-.109 1.07-.125 5.88.812 3.25zm117.09-2.44c-.68 4.81.47-3.26 0 0m20.33 1.63c.373-2.54-1.737-2.6-4.064-2.438-.78 2.95 3.51.83 4.06 2.44zm74-1.63c-2.25 3.09 2.98 3.58 0 0m-142.3 2.44h1.625v-1.625h-1.625c-.01.54-.01 1.08-.01 1.62zm223.61.82c.247-2.143-1.125-2.669-3.252-2.439-.81 2.71 1.13 2.66 3.25 2.44zm-161-.82c-.01-.818-1.424-1.021-1.627 0 .92-.08 1.27 1.18 1.63 0zm165.07 0c-.913.084-1.267-1.18-1.627 0 .01.82 1.43 1.02 1.63 0zm-163.44 11.39c2.426.742 5.265 1.523 6.504-.812-.634-.181-.944-.682-.812-1.627-1.397-.321-2.084 1.206-2.439 0v-1.627c1.04.044 1.126 1.043 2.439.814v-3.254c-2.385.931-3.019.481-4.066-1.625 1.442-.185 4.073.818 3.254-1.627-.748-1.419-2.543-1.796-4.879-1.627-.07 4.58 1.13 7.08.01 11.39zm-16.27-8.13c-.093-.991-.243-1.926-1.626-1.627-.589 1.852-.726 4.154-1.626 5.691 1.24-1.777 6.193-4.057 4.879-5.691-.16.91-.89 1.26-1.62 1.63zm3.26-.82c-.69 4.81.46-3.26 0 0m-106.53 3.26c.229-1.854-.195-3.058-1.625-3.254.184 1.43-.821 4.06 1.625 3.25zm116.28-.82c2.373 1.195 2.373-3.636 0-2.439zm61.8-.81h1.627v-1.627h-1.627v1.63zm-126.85.81c-4.889 5.562-5.465 19.268-6.504 26.021-1.438 1.511-2.375-.353-4.067-.812 1.549 4.416 8.252 3.676 12.198 5.691.383-10.188 1.218-19.922.813-30.899zm52.04 1.63c-.68 4.81.47-3.27 0 0m2.44 0c-1.96 2.73 2.73-1.97 0 0m2.44 1.62c2.371 1.195 2.371-3.635 0-2.439zm21.14-.81c-.911.084-1.267-1.182-1.625 0 .01.82 1.42 1.02 1.62 0zm-69.93.81c-1.96 2.73 2.73-1.96 0 0m56.92.82h1.627v-1.627h-1.627v1.63zm-16.26 2.44c.576-.6 2.026-3.98-.812-3.252.14 1.21-.29 3 .81 3.25zm-36.59 0c.044-1.398-.626-2.084-1.627-2.439-.04 1.39.63 2.08 1.63 2.44zm41.47-1.63c-.69 4.81.47-3.26 0 0m71.56 1.63c2.371 1.196 2.371-3.635 0-2.439zm-131.73-.82c-.01-.82-1.427-1.023-1.627 0 .91-.08 1.27 1.19 1.63 0zm-31.717 9.76c4.464 3.396 12.679 3.041 15.45 8.129-3.398-.757-3.218-.542-4.879 1.627-.293-3.12-1.92-4.903-4.877-3.252-2.893-5.975-10.519-5.036-14.638-8.131-.183.632-.022 1.603-.812 1.627.06-1.417-.183-2.53-.814-3.255-3.051 1.598-1.771-.766-4.064-1.625-.321 4.591 1.89 13.928 3.252 7.319 1.142 2.845-2.281 5.204 0 6.504.158-3.21 3.447 2.247 4.066-2.439-.644 2.812.903 3.433 1.625 4.879 4.065-.474 5.062 3.493 6.506-.814-.261 1.886.13 3.122.812 4.066 2.546.42 3.629-2.225 3.252 1.627 1.886.259 3.124-.132 4.067-.814-.062 1.417.181 2.53.812 3.255 11.927 2.016 16.254 5.176 28.46 8.943.403-3.808 1.611-4.998 3.252-8.943-3.172-1.28-8.206-3.303-9.756-4.067-5.389-2.654-14.439-2.217-14.638-7.318 2.542 1.254 5.856 1.733 8.131 3.252-3.491-5.982 4.189-12.533 4.067-20.327-9.59 3.06-19.216 9.76-29.267 9.74zm115.47-8.13c.816-.002.967.658 1.627.814-.078-1.277.108-2.82-1.627-2.439v1.63zm-67.49-.81c-.718-.624-2.321.5-2.439.812-1.16 3.1 4.05.59 2.44-.81zm113.84 2.43c1.207 1.28 3.633.905 3.252-1.627-1.85-.22-3.05.21-3.25 1.63zm-.81-2.43c-.47.494-1.904 3.858 0 4.066-1.06-2.03 2.38-3.38 0-4.07zm-172.39 1.62c-4.227 3.57 2.598-1.48 0 0m91.07 17.89c6.061-.321 1.242-6.793 4.879-8.129 2.071.417 3.154 1.384 3.252-1.627-2.034.102-2.543 1.551-3.252-.812 1.076-.011.745-1.427 1.627-1.627 1.282.074.636 2.072 2.439 1.627v-3.255c-2.036.101-2.545 1.554-3.251-.812 1.777-.12 1.745-2.048 1.625-4.066-5.054 1.975-2.046 8.442-5.692 10.573.63.181 1.603.02 1.627.811-2.48 1.07-3.25 3.82-3.27 7.32zm15.45-14.64v-3.252c-3.048 1.914-3.581.614-6.505-.814-.469.494-1.903 3.858 0 4.066 2.39-1.96 2.89-.88 6.5-.01zm-49.6-1.62c-.66 3.543 2.367 3.893 3.252 1.627v3.253c-1.099-.257-1.553-1.158-3.252-.812-.997 4.211 2.851 2.309 3.252 3.252 1.908 5.448.734 8.987 1.627 15.449h4.066c1.164-4.257 4.861-5.98 4.064-12.195-5.9-1.421-4.626-10.011-9.758-12.198.56 3.66-1.36 1.86-3.25 1.62zm61.8 5.69c2.022.088 2.518 1.522 4.066 0 .604-2.504-2.232-1.565-1.627-4.067.816.002.968-.659 1.627-.812.093.991.243 1.925 1.625 1.625 1.695-1.618.026-3.473-1.625-4.064-.104 3.847-1.019-1.793-4.066 0 .36 3.88.36 3.42-.01 7.31zm82.13 26.83c-.814 1.081-1.34 2.453-2.439 3.252 1.065-4.35-1.802-9 0-11.383.092.99.242 1.926 1.625 1.625 1.524-1.549.09-2.043 0-4.065-2.63-1.005-.62 2.631-3.252 1.625 1.713-1.808-.856-3.92 0-7.318 2.397 2.361 3.182-2.508.812-3.252-.394.961-.867 1.844-1.625 2.439-.335-3.858-.008-7.056 1.625-8.943-.941-2.58-3.24.174-3.252-4.067 1.039.045 1.127 1.044 2.439.815.064-4.188-3.505.307-2.439-4.88-2.595-.698-2.514 1.28-4.064 1.625-.129 13.397.682 24.466.812 38.219 9.826 1.06 13.301 1.722 19.516-1.625-.138 2.034 1.248 2.544 2.44 3.25 1.175-1.262 1.083-3.792 2.438-4.877 1.075.01.744 1.425 1.627 1.627 5.193-7.547 13.839-11.642 19.517-18.704-7.307-.712-16.188-.72-26.021-.812-1.186-1.199-4.931-3.99-5.693-.814 1.172 1.802 1.984-1.023 2.439.814-1.646 7.132 2.452 11.038 2.439 18.702-1.364-2.215-4.772 2.255-4.064-2.439 1.039.044 1.126 1.043 2.439.814-.413-3.383.283-7.872-3.254-8.133-1.123 3.292 1.766 2.571 1.627 4.879-1.659 1.42-1.595-.606-3.252.814-.588 2.483.831 2.961.812 4.879-1.222.584-3.425.618-4.066 0 .9-.27 2.77-3.56.78-4.08zM38.22 177.32c2.145.249 2.097-1.697 2.439-3.252H38.22v3.25zm9.759 0c-2.077 1.036.752 3.984-.814 4.067-3.284-1.372.696-4.985-1.625-7.319-3.266-.282-2.145 3.818-4.067 4.88 3.716.497 2.153 3.848.812 5.691 2.974.692 4.357-3.748 5.694 0-.993.092-1.926.242-1.627 1.625 1.539 1.444 5.371.594 8.131.814v-4.064c-4.057.261-2.432-5.158-5.692-5.694 2.074-.891 4.183 2.777 4.064-.812-1.083-2.32-3.615.62-4.876.81zm126.03-.82h1.627v-1.627h-1.627v1.63zm39.85 3.26c.407-3.389-2.061-3.904-4.879-4.065.21 2.77 1.74 4.22 4.88 4.06zm44.72-3.26c-.69 4.81.47-3.26 0 0m-158.56 0c-2.472 2.74 3 2.47 0 0m27.65 5.7c-.377-2.336-.941-4.48-3.254-4.88.29 2.41 1.4 4.01 3.25 4.88zm93.51 0v-4.064c-1.049-1.122-3.533-.807-5.691-.815-.08 3.6 1.46 5.58 5.69 4.88zm-60.99-1.63h1.627c.044-1.042 1.041-1.128.812-2.439h-2.439zm3.25.81h1.627v-3.252h-1.627v3.25zm12.2 2.44c-.139-2.3.7-5.577-1.627-5.689-.36 2.05-1.83 5.57 1.63 5.69zm8.13-2.44c1.056-1.082 1.072-3.027-.812-3.252.14 1.22-.29 3 .81 3.25zm42.29-3.25c1.337 3.277 1.87 3.669 3.253 5.689.128-4.994 4.317 2.461 4.879-3.25-4.71-.64-2.65-1.21-8.13-2.44zm-36.6 4.07c.229-1.854-.194-3.058-1.625-3.252.18 1.44-.82 4.07 1.62 3.25zm34.16 0c-1.344-.013-.455-2.255-1.627-2.439-.69 1.66.71 5.05 1.63 2.44zm.81.81c3.108.602.928-2.997 0-3.254-.07 2.22 1.35 1.64 0 3.25zm34.96-1.63c.816-.002.969.657 1.627.812-.078-1.278.108-2.819-1.627-2.439v1.63zm-40.65 8.95c1.611-3.79-1.939-8.697-6.506-8.943 1.09 4.06 2.76 7.54 6.51 8.94zm-28.46 13.01c-4.037-.418-4.338-.338-7.319-.812-.999-3.802.526-5.293-.812-8.132-2.592-.694-3.087.708-4.066 1.625v-3.252c.945.685 2.181 1.073 4.066.812.279-2.706-.782-6.564 0-11.383h-4.066c-.696 2.594 1.28 2.516 1.627 4.064-3.011 1.199-1.402 1.739-3.254-.811 1.26 6.781-2.572 15.396 1.627 17.888.496-1.944-1.021-5.898.812-6.505.588 2.026.411 3.989 0 6.505 4.71.51 7.25 2.31 11.38 0zm-7.32-17.08c3.274.794 3.274-4.859 0-4.064v4.06zm-84.569-2.44c-1.964 2.73 2.729-1.96 0 0m21.139 1.63c.245-2.143-1.125-2.67-3.252-2.439-.82 2.71 1.13 2.67 3.25 2.44zm43.1-.81h1.627v-1.625h-1.627v1.62zm25.21 0c-1.075-.008-.744-1.425-1.627-1.625-.93 1.66 1.28 3.87 1.63 1.62zm2.44 1.62c.227-1.852-.196-3.056-1.627-3.25.19 1.44-.82 4.07 1.63 3.25zm30.08 1.63c2.983-.271 1.296 4.127 4.879 3.252-1.279 1.208-.904 3.636 1.627 3.254v-4.066c-3.992-.624-2.746-2.249-1.627-4.877-2.084-1.356-6.299-2.843-6.504-.814 2.44-.81 1.44 1.82 1.62 3.26zm3.26 7.32c.436-2.875-.689-4.188-2.439-4.879-.937.961-.921 2.875-.814 4.879 3.168-.443 3.023 4.869 5.693 2.439 1.26-2.89-2.77-.49-2.44-2.44zm-122.79-10.57c-1.966 2.72 2.73-1.97 0 0m156.13 2.44c1.057-1.081 1.073-3.025-.812-3.254.13 1.21-.3 2.99.81 3.25zm3.25-.82c2.371 1.195 2.371-3.634 0-2.439zm-103.27 1.63c-.183-1.537.917-1.794.812-3.252h-2.44c-.23 1.85.2 3.05 1.63 3.25zm.81 4.07c3.106.277 4.111-7.018 1.626-7.318-.93 3.25-.46 3.68-1.63 7.32zm15.45-.82c3.758-.421 1.244-2.901 2.439-6.504-3.98.19-.75 3.39-2.44 6.5zm59.36-4.06c.044-1.4-.626-2.085-1.627-2.439-1.16 1.18-1.19 3.15 1.63 2.44zm.81 0h2.439v-2.439h-2.439zm-71.55.81h2.439c.042-1.398-.626-2.085-1.627-2.438.04 1.12-.38 1.79-.81 2.44zm-106.53 1.63c2.373 1.195 2.373-3.635 0-2.439zm44.727-1.63c-1.968 2.73 2.72-1.97 0 0m19.51 0c-.15-1.204-1.964-.744-3.252-.812-1.74 2.99 4.14 3.66 3.25.81zm14.64 2.44c-1.798.349-2.035-4.885-3.252-2.439 1 .45 1.58 5.34 3.25 2.44zm51.23 0v-3.252h-2.44c-.23 2.12.3 3.5 2.44 3.25zm5.69 0v-1.627c-1.5-2.7-3.97 2.44 0 1.63zm37.4-1.63c.188 1.442-.818 4.072 1.628 3.254.862-.337 1.888-4.458.812-4.066-.13.96-1.28.89-2.44.82zm5.7 3.26c.628-.556 2.116-4.845-.814-4.066-.25 1.89-1.74 3.5.81 4.07zm2.44 0c1.208-1.49 2.183-2.752 0-4.066-.47.49-1.91 3.86 0 4.07zm-80.5 0c.254-1.1 1.155-1.553.812-3.254h-2.44c-.23 1.85.19 3.05 1.63 3.25zm4.87.81c2.143.247 2.67-1.125 2.439-3.252-2.14-.25-2.67 1.12-2.44 3.25zm109.78-1.63h1.628c1.264-2-2.763-2.392-2.44-.812.49.04.96.12.81.81zm26.83-.81c-8.03-.11 3.95.05 0 0m12.2 0c-.942-.682-2.181-1.073-4.066-.812-.78 2.98 4 3.23 4.07.81zm5.69.81c1.76 1.663 5.059.281 5.692-1.625-2.3.14-5.57-.7-5.69 1.62zm9.76 0c2.017.12 3.946.152 4.066-1.625-1.54.36-4.91-1.11-4.07 1.62zm-282.16 1.63c4.217.084 9.137 1.086 12.196 1.627 1.314.233 2.758-.248 4.066 0 4.464.851 9.583 5.609 12.198 2.439-10.1-4.6-18.633-9.13-28.46-4.07zm73.183 0c2.219-.074 1.637 1.354 3.252 0 .64-3.13-3.89-3.13-3.25 0zm173.2-2.44c-1.182.445-4.203-.949-4.066.812 1.19-.44 4.21.95 4.07-.81zm49.6 0c-1.429.468-4.777-.981-4.88.812 1.43-.46 4.78.98 4.88-.81zm-208.98 8.13c1.686-.483 5.343 1.008 5.694-.812-2.47-1.597-2.955-5.178-5.694-6.506-.674 2.036-2.227 3.194-2.438 5.693 3.105.669.957-3.92 4.064-3.254.4 2.56-2.49 1.84-1.62 4.88zm56.11-4.06v-3.254h-2.44c-.23 2.12.3 3.49 2.44 3.25zm-34.96.81c.195-1.161 1.338-1.37 1.625-2.439-2.01-2.61-5.03 1.89-1.63 2.44zm36.59-3.25c-2.47 2.73 3 2.46 0 0m2.44 2.44c2.371 1.196 2.371-3.635 0-2.439zm-39.85 5.69c1.96-.334 1.768 1.484 4.066.812-.59-4.29 3.377-7.179-.812-8.132.2 3.72-1.1 5.95-3.26 7.32zm4.88.81c5.212-.662 1.88-4.92 4.066-8.132-4.03.04-2.1 6.03-4.07 8.13zm17.89-6.5h1.627v-1.627h-1.627v1.63zm60.99.81c.56-2.187-1.682-1.57-2.439-2.439-.49 2.11.33 2.92 2.44 2.44zm24.39.81c-.185-1.44.82-4.072-1.627-3.252-.22 1.85.2 3.05 1.63 3.25zm3.25-.81h1.627c.046-1.039 1.041-1.125.812-2.439h-2.439zm-123.59 1.62c-1.914-.257-.483-3.855-3.254-3.254-1.01 2.7 2.85 4.64 3.25 3.25zm23.58-.81c.046-.495.12-.963.812-.812-.093-.993-.243-1.924-1.627-1.627.13.96-.14 2.31.82 2.44zm-42.29.81c.817-2.714-1.127-2.666-3.252-2.439-.24 2.15 1.13 2.67 3.25 2.44zm65.06 1.63c3.129.643 3.129-3.892 0-3.252v3.25zm-125.23 1.63c-.333-1.961 1.484-1.768.812-4.067h-2.439c.449 1.45.419 3.38 1.627 4.07zm91.89-3.26c-.01-.82-1.426-1.022-1.627 0 .91-.08 1.27 1.19 1.63 0zm41.47 1.63q.22-2.66-2.439-2.439c-.15 1.77.66 2.59 2.44 2.44zm36.59.81c.255-1.1 1.157-1.554.812-3.255-1.216.141-3.002-.288-3.253.814 1.54.09.56 2.69 2.44 2.44zm33.34-2.44v1.625c2 1.265 2.392-2.76.812-2.439-.04.5-.12.96-.81.81zm-198.41 0c-.718-.626-2.321.5-2.439.812-1.15 3.07 4.046.59 2.439-.81zm95.141 1.63c1.08 1.056 3.025 1.071 3.253-.812-1.08-1.06-3.03-1.07-3.25.81zm13.82 0h1.627v-1.625H173.2v1.62zm63.43-1.63c-.721-.626-2.323.5-2.439.812-1.17 3.11 4.05.59 2.44-.81zm-110.59 4.07c.778-2.945-3.511-.827-4.066-2.44-.37 2.54 1.74 2.6 4.07 2.44zm-56.922 0h1.625v-1.625h-1.625v1.62zm45.532 3.25c-.492-1.678 1.312-5.649-1.625-4.879.5 1.68-1.3 5.65 1.63 4.88zm13.02-3.25c1.182 1.258 4.161.716 6.504.814-.23-2.28-6.42-3.27-6.5-.81zm59.35.81q.731-3.173-2.438-2.439c-.56 2.19 1.68 1.57 2.44 2.44zm3.26 0c.042-1.4-.626-2.087-1.627-2.439-1.16 1.19-1.19 3.15 1.63 2.44zm39.03 1.63c.385-2.555-1.016-3.322-2.44-4.064-1.58 1.56-.85 4.97 2.44 4.06zm-92.7-1.63c1.424-.225 4.057 2.289 4.879 0-1.617-.013-1.035-2.219-3.252-1.627-.01 1.08-1.43.75-1.63 1.63zm22.77 0h1.626v-1.627h-1.626v1.63zm-107.34 3.26c1.31 2.213 1.26 5.788 4.879 5.691-.064-4.662 1.823-6.841-1.627-9.758-.054 2.38-1.857 3.02-3.252 4.07zm20.329-2.44h1.627c1.264-2.001-2.762-2.392-2.439-.812.495.04.963.11.812.81zm100.02 0h2.439c.104-1.461-.809-1.904-2.439-1.627v1.63zm49.6 0c.462 3.689 4.656-4.657.812-.812-.38.38-.93-.16-.81.81zm-162.63 8.13c3.535-.259 3.125-4.464 3.252-8.131-1.039-.047-1.125-1.042-2.439-.812-2.771 1.99-.944 5.43-.813 8.94zm87.82-4.07c-4.983-5.168-13.193-1.866-20.329-4.879 2.09 6.47 14.62 9.31 20.33 4.88zm0-.81c-.411-2.554 1.916-3.322-.812-4.064-1.11 1.03-1.26 3.98.81 4.06zm86.19-2.44c.816-.002.969.658 1.627.814-.002-.816.658-.97.812-1.627-.814.002-.967-.66-1.625-.812.01.82-.65.97-.81 1.63zm25.21 1.63c3.132.64 3.132-3.895 0-3.252v3.25zm-195.15 6.5c3.431-.365 3.398-4.191 4.065-7.318-1.615-.013-1.033-2.219-3.252-1.627-2.179 2.12.431 7.77-.813 8.95zm60.984 1.63c1.075-.008.744-1.424 1.627-1.625 2.483 4.46 7.473 1.798 10.571 4.879.126-.959-.141-2.309.812-2.439-.06 1.417.183 2.528.814 3.25 2.592.696 3.085-.706 4.064-1.625 1.958 6.258 11.345 3.335 15.45 5.691.445-1.182-.951-4.202.812-4.066.145 2.568.572 4.852 3.255 4.879 1.342-.012.453-2.255 1.625-2.439v3.255c4.12-.753 7.87 2.68 13.824 2.439 1.282-1.699.562-5.401 1.625-7.319-1.047-1.119-3.53-.805-5.691-.814-.439 2.881 2.879 2 2.439 4.879-3.513-1.093-2.805-6.409-8.131-5.689-.936 2.384 3.9 3.018 1.625 4.064-1.212-2.04-4.334-2.17-4.877-4.879-11.137-1.023-23.483-3.934-34.967-8.131-.092.993-.243 1.924-1.625 1.627.331-1.96-1.486-1.77-.814-4.066-1.709-.729-3.615-1.264-4.879-2.439.971 5.735-1.417 4.965-4.065 5.691 3.62-1.04 2.92 3.92 6.55 4.88zm35.78-8.13c-.486-2.767-4.743-1.762-7.319-2.439.35 2.91 4.22 2.29 7.32 2.44zm-86.193 0c1.278-.078 2.819.108 2.44-1.627h-1.627c.002.82-.658.97-.813 1.63zm-8.131 10.57c1.505-1.707 1.218-3.944 4.065-2.439 1.727-2.704 4.215-8.819-1.625-8.943 1.31 5.36-5.806 9.16-2.44 11.38zm82.124-7.32c1.43.47 4.779-.983 4.879.814-2.154.012-4.787-.453-4.879 1.625 6.127 2.275 13.706 3.1 21.142 4.064 1.258-1.18.716-4.161.814-6.504-2.588-.548-6.332-2.833-8.131-1.625-.484 1.683 1.005 5.341-.814 5.691-1.098-.799-1.626-2.169-2.44-3.252q2.664.22 2.44-2.439h-8.944c-.078-1.28.108-2.821-1.627-2.439-2.28-.13-2.34 1.98-2.44 4.06zm21.14-2.44c1.256-2.456-4.207-2.139-4.064-.812.94.68 2.18 1.07 4.06.81zm5.7.81v-1.627c-1.5-2.7-3.97 2.45 0 1.63zm46.35.81c5.316-1.651 1.984 1.475 5.691 2.439 1.16-1.085 1.16-4.608 0-5.691-2.381.73-2.497.73-4.879 0-.26 1.1-1.16 1.56-.81 3.25zm11.38 0c.229-2.127-.297-3.497-2.439-3.252-1.47 1.39.25 3.2 2.44 3.25zm-53.67 8.95c.229-4.518-1.576-6.304 1.627-8.133-2.714.816-2.666-1.128-2.439-3.252h-2.439c.9 3.98-2.44 12.2 3.25 11.38zm-68.3-7.32h1.625c.498-.048.963-.122.814-.814-1.266-.213-.564-1.783 0-2.439-2.63-.73-1.15 2.65-2.44 3.25zm4.06-.81h1.627c-.002-.814.658-.967.812-1.625-1.039-.046-1.125-1.043-2.439-.814v2.43zm-42.28 3.25c3.409.426 3.222-2.74 4.067-4.879h-3.254c.589 2.49-1.403 2.39-.813 4.88zm100.02-1.63h2.439c.104-1.461-.809-1.904-2.439-1.627v1.63zm13.01 1.63c-2.566.397-2.871-1.467-5.692-.814 1.25 2.672 3.326 2.736.812 5.693h1.627c.045.494.121.961.812.811 1.439-1.203-1.526-4.201 2.44-4.064-.161 2.327-.103 4.438 2.439 4.064.52-3.932-1.075-5.75 0-8.129-1.1-.257-1.553-1.16-3.252-.814-.19 1.54.91 1.79.81 3.25zm7.32 0c7.176-2.363 3.503 11.143 11.383 10.568.637-3.45 1.326-11.11 6.507-7.318 1.248 3.96-2.981 2.441-4.066 4.066 3.27.255.142 6.908 5.691 4.88-.755-6.446 7.002-4.382 5.691-11.384-5.798-.337-13.835.03-19.515-2.439.957-.126 2.308.139 2.439-.812-3-2.23-6.6.59-8.12 2.43zm36.59-1.63h2.439c.104-1.461-.809-1.904-2.439-1.627v1.63zm-82.94-.81c-.957.126-2.309-.141-2.439.812.95-.12 2.31.14 2.44-.81zm65.05.81c-.845-.858-5.807-1.68-6.507 0 1.42.98 5.75 3.18 6.51 0zm5.69 1.63c3.684.016 5.148 1.689 8.131 0-1.41-1.24-7.22-3.2-8.13 0zm-132.54 3.25c1.693 1.29-.493 6.458 3.252 5.693.446-1.182-.951-4.202.812-4.064-.471 2.639.554 3.782.815 5.689 3.188-2.347 2.056-.625 4.879.815 2.207.581-.582-3.836 1.625-3.255.361 1.537-1.105 4.903 1.627 4.067 2.207.581-.582-3.834 1.625-3.253-.167 2.336.207 4.131 1.627 4.88 1.075-2.382-.52-4.197 0-8.134-6.442-2.23-11.588-5.758-19.517-6.504-.611 3.04 3.108 1.76 3.255 4.05zm88.632-1.62h1.627v-1.625h-1.627v1.62zm16.26 4.06c2.987.46 3.705-6.416 0-5.689-.22 3.37 1.07 3.17 0 5.69zm34.16-1.62c5.727-1.888 9.696-1.689 15.45-1.625-.925-3.144-5.935-2.198-9.758-2.439.27 3.51-6.13.37-5.69 4.06zm-162.63 0c1.505-1.433-.21-2.518-1.627-3.252-1.026.95-.652 3.37 1.627 3.25zm134.98 2.44c-.11-2.6.801-6.223-2.439-5.691.12 1.71-.71 5.32 2.44 5.69zm-117.09 4.06c.381-3.104-4.729-3.163-5.694-2.439-.183 1.539.917 1.796.814 3.255 2.985-1.539 4.594 1.456 8.131 1.625-.255-3.295-.544-10.802-1.627-10.569-.055 3.19-.392 6.11-1.624 8.13zm-7.318-7.32c-.138 2.036 1.248 2.548 2.439 3.254-.592-2.219 1.615-1.637 1.625-3.254-1.546-1.52-2.042-.09-4.064 0m151.24 0c-.942-.682-2.179-1.071-4.064-.811-1.44 3.64 4.3 2.92 4.06.81zm-138.23 4.88c.168-2.335-.207-4.129-1.627-4.879.012 2.16-.451 4.79 1.627 4.88zm124.41-4.06c-.011-.82-1.425-1.023-1.627 0 .17.98.91.5 1.63 0zm50.41 1.62c1.035-2.736-4.123-3.36-4.877-1.625 1.71.47 2.33 2.01 4.88 1.62zm-32.52 0c2.123-.314 4.462-.417 5.692-1.625-2.57-.13-4.91-.03-5.69 1.62zm13.01.82c2.445 2.35 2.839-1.939 6.504-.814 2.576.905 7.032 3.134 8.134-.811-5.89 1.07-12.1-3.02-14.63 1.62zm34.96 1.62c4.907-.475.87-4.032-1.625-4.064-.61 2.5 2.8.99 1.62 4.06zm16.27-2.44c-.183 1.539.915 1.796.812 3.254 2.599.085 5.47-4.223 2.44-4.879-.12 1.51-2.75.51-3.25 1.63zm-215.49-.81c-.856 4.72 3.525.34 0 0m-24.393 4.07c2.035.137 2.546-1.249 3.252-2.439-1.1-.257-1.553-1.157-3.252-.814v3.25zm179.7-.82c4.082-1.111 8.608 3.234 8.133-2.439-3.03.5-7.39-.34-8.13 2.44zm53.67 8.13c2.024-.805 6.915-4.213 3.252-5.694-1.06 1.42-5.88 3.27-3.25 5.69zm4.07-10.57c-2.63 1.437-6.167 1.967-5.691 6.507 3.37-.45 7.15-3.82 5.69-6.51zm-104.9 8.95c-.503-4.169-.503-3.963 0-8.132h-3.252c1.05 4.54-1.7 8.24 3.25 8.13zm30.9-2.44c8.229-3.098 14.029 2.112 21.142-3.253-5.726-.562-13.787.829-17.075 0 .719-.465 3.607-3.354 1.625-1.627-3.13 1.67-5.57-.35-5.69 4.88zm54.48-1.63c2.432-.278 3.238-2.183 4.067-4.064-2.504.57-1.563.57-4.067 0v4.06zm-151.24 0c1.946 2.121-1.151 9.283 3.252 8.946-.181-1.522-2.097-5.389 0-6.506 4.752-.145 6.801 2.415 8.943 4.879.566 3.276-4.044 1.376-4.877 3.254 3.015-.578 3.489 1.389 6.504.812v-8.131c-1.982-2.083-7.03-1.104-8.943-3.255 2.154-.012 4.787.454 4.879-1.625-1.759-.682-2.774-2.106-5.693-1.627.97 3.4-1.24 3.64-4.06 3.25zm67.49 4.07c4.721-.095 2.307-5.47 2.439-7.319h-2.439c-.48 3.78 1.11 4.91 0 7.32zm5.69-.81c-1.278.076-2.819-.108-2.439 1.625h4.066c-1.083-2.312 1.764-8.085-3.254-8.132.19 2.51.82 4.59 1.62 6.51zm65.87-6.51c-2.026.685-4.355 1.065-7.316.812-1.299.603.184 3.98-2.44 3.255-.52-1.774 2.304-2.589-.814-2.44-1.342.013-.455 2.256-1.625 2.44q.22-2.662-2.439-2.44c-1.855 1.396-2.592 3.914-4.879 4.88-13.865-.502-30.336 1.604-39.031-4.067-.128.957.141 2.31-.814 2.44-2.917.479-.02-4.857-3.252-4.067-.584 2.863 1.599 4.542-.812 8.134h4.064c-.101-2.036-1.551-2.546.814-3.254 1.216 1.494 3.393 2.028 4.064 4.066 3.259-1.583 7.148 1.358 9.759-1.627v2.439c9.668-2.093 16.602 1.905 24.396-2.439.862 3.278 4.894.774 5.691-.812 1.45 3.974 2.692-1.613 4.879 1.627 1.475-2.561 9.384-.769 10.571-1.627 3.252-2.354-.746-3.457 3.252-.812-.012-2.157.451-4.789-1.627-4.88-.973 2.546-3.311-.246-4.064 3.253-.76-3.4-.54-3.22 1.63-4.88zm-56.93 7.32c-3.2.23.16 3.58 0 0m68.31-3.25v-4.067h-2.439c-.16 2.33-.1 4.44 2.44 4.07zm-222.8.81c3.497.788 2.251-3.168 4.064-4.067-2.768-.06-3.029 2.39-4.064 4.07zm64.233 4.06c5.174 1.294 4.681-1.665 7.319 1.625-.413-2.839-.365-6.14-1.625-8.132-.554 3.702-2.758-3.279-6.506-1.627-1.02 2.4.28 5.13.82 8.13zm155.32-.81c1.712-1.808-.858-3.921 0-7.319h-2.439c.83 2.42 0 6.5 2.44 7.32zm-215.49-1.62c2.265 1.302 2.249-3.511.814-3.255-.257 1.1-1.158 1.55-.814 3.26zm34.966 4.06c1.404-.494-.062-3.856 1.625-4.064q-.181 3.028 1.627 4.064v-6.504c-3.147 1.692-1.328-1.212-4.879-.815.351 2.63-1.069 7.03 1.627 7.32zm206.54-4.06c.237-.5 2.022-3.13 0-3.255.77 1.52-2.44 2.72 0 3.26zm-231.75 12.19c.456 4.639-1.46 11.945 3.252 13.823.269-7.945-2.273-19.4-2.439-27.647-1.039-.045-1.125-1.042-2.439-.812-.011 5.14 1.018 8.46 1.626 14.64zm84.57-12.19c.473-2.913-2.408-2.472-4.879-2.439-.47 2.91 2.41 2.47 4.88 2.44zm-52.858 4.87c.056-2.769.252-5.674-1.625-6.506-1.328 1.57-1.376 6.79 1.625 6.51zm.815.82c3.188-2.348 2.056-.628 4.879.812-.252-2.458.903-6.323-1.627-6.504-1.127.497-.123 3.13-1.627 3.252.121-2.017.152-3.946-1.625-4.066v6.51zm42.283 3.25c2.52-1.071 4.51 2.411 5.691 0-2.353-.626-3.952-2.01-3.252-5.691.816.002.967-.658 1.627-.812 2.698 1.095 6.809.778 7.317 4.064-.805 2.179-4.954 1.011-4.879 4.066 2.821-.652 3.126 1.21 5.694.812 1.571-1.978.782-6.803 0-8.943-4.983-.167-8.382-1.918-13.01-2.439-.08 3.33-.16 6.66.81 8.94zm-56.108-6.51h1.627v-1.627h-1.627v1.63zm75.628 0c.943.682 2.179 1.071 4.065.812.77-2.98-4-3.23-4.07-.81zm132.54 1.63c2.606.71 2.544-1.252 3.252-2.439-2.03-.14-2.54 1.25-3.25 2.44zm-158.56-1.63h-5.693c-.96 3.48 6.64 3.48 5.69 0zm21.14 8.13c.811.893 4.434 3.052 5.691.812-2.833.321-4.403-5.286-1.627-5.691 1.81 1.174 3.922 2.042 7.319 1.627-1.232-3.92-7.564-2.736-11.384-4.066-1.22 1.32.7 4.08 0 7.32zm21.95-6.5c.137-1.762-2.883-.369-4.064-.812-1.86 3.22 4.98 3.6 4.06.81zm-99.202.81c-.01-.82-1.426-1.023-1.627 0 .912-.08 1.266 1.19 1.627 0m35.782 2.44v2.439c2.889 1.264.49-2.763 2.438-2.439-.178 5.212 2.965 2.051 5.694 4.064-.11-2.6.8-6.224-2.439-5.691-.128.957.138 2.31-.814 2.439.182-1.539-.915-1.796-.812-3.252-2.79-.61-1.04 3.31-4.07 2.44zm35.77-1.62c-.563-.636-4.536-1.81-4.877 0 .57.63 4.54 1.81 4.88 0zm121.16 2.44c1.537.09.565 2.688 2.439 2.439.237-2.474 4.302-1.121 4.879-3.252-1.873.249-.902-2.352-2.439-2.439-.49 2.95-3.61.06-4.88 3.25zm-100.01 5.69c2.202-.778-.769-6.729 2.439-6.504 2.088 1.164 5.149 1.353 6.504 3.252.026 3.82-6.646.941-7.318 4.066 3.655-.521 6.943 2.219 9.758 0 .35-3.332-.754-5.21-1.627-7.318-4.949.614-6.89-1.785-11.383-1.627-.71 1.29-2.69 9.31 1.63 8.13zm19.51-7.32c-1.182.445-4.202-.951-4.064.814 1.18-.44 4.2.95 4.06-.81zm-100.02 3.25c.128-4.384-3.32-.478-4.877-2.439-.285 2.83 3.818 3.41 4.877 2.44zm1.627-.81c-.183-.63-.022-1.603-.812-1.625v2.439c3.052-1.597 1.771.767 4.064 1.625v-4.064c-2.218-.6-1.636 1.61-3.252 1.62zm34.15 4.06c2.763.021 5.672.177 8.133 1.627 1.992-1.083-1.466-2.455.812-3.254 2.157-.259-.76 4.557 2.439 3.254v-4.879c-4.532.807-7.76-1.99-9.758.812-.185-1.442.818-4.072-1.627-3.252-1.42 1.36.73 2.73.01 5.69zm78.88-5.69c-1.431.468-4.776-.983-4.879.812 1.04 1.12 4.86 1.42 4.88-.81zm55.29.82q-.193 5.072 4.879 4.879c.3-4.01-1.47-6.84-4.88-4.88zm7.32 4.06c.183-.632.022-1.604.812-1.627 1.075.01.744 1.425 1.627 1.627 1.868-2.106.095-5.503-3.252-4.879-1.12 1.05-1.42 4.87.81 4.88zm-169.13 2.44v-6.506c-3.555-.96-3.554 7.47 0 6.51zm65.053-5.69c-1.1-.257-1.553-1.157-3.252-.812-1.31 2.26 3.51 2.25 3.25.81zm21.14 6.5c.317-2.124.418-4.462 1.627-5.691 3.04-.06 4.657 1.306 5.692 3.252-.195 2.245-3.023 1.856-4.067 3.252h6.507c.251-2.961-.131-5.292-.814-7.318-3.583-.209-6.29-1.3-10.571-.812.02 2.96-.46 6.42 1.62 7.32zm29.27-6.5c-1.04-.044-1.126-1.043-2.44-.812-1.26 2 2.77 2.39 2.44.81zM92.703 244c2.372-.723 2.805-1.04 4.066.814 1.402-.494-.064-3.858 1.625-4.067.484 1.684-1.005 5.343.813 5.692 1.288-2.129.134-6.691 4.066-4.065.138-1.218-.291-3.001.812-3.254.046.498.122.963.814.814q-.531-2.723-3.254-3.254c-.139 1.216.291 3.001-.812 3.254v-4.066c-2.891-1.266-.49 2.763-2.44 2.439.229-1.854-.196-3.058-1.625-3.252-1.605.563.199 4.536-1.627 4.879-.592-1.848 1.464-6.344-1.627-5.693-1.558 1.97-.513 6.54-.812 9.77zm151.25-8.95c.588 1.85.725 4.153 1.625 5.691 3.59-1.18 4.285-2.101 7.319-2.439.333-1.96-1.485-1.768-.812-4.066-2.8 1.41-5.05-.88-8.14.82zm-195.97 1.63h1.625v-1.625h-1.625v1.62zm108.15 1.62h4.065v-3.252c-1.94.51-3.8 1.09-4.07 3.25zm14.63-2.44c-1.1-.255-1.553-1.157-3.252-.812-1.3 2.27 3.51 2.25 3.25.81zm20.33 6.51c2.774-1.348-2.15-5.349 1.627-5.693h3.252c2.03.679-.935 6.355 2.439 5.693 2.197-1.729.076-5.986-.814-7.318h-8.943c.67 2.58-.34 6.84 2.43 7.32zm11.38.81c1.846-2.333-1.507-5.649 2.439-6.504q2.533.721 3.255 3.254c-.512 1.385-2.458 1.337-3.255 2.439.962.936 2.875.919 4.88.811 2.032-7.724-4.101-7.282-8.944-8.129-.99 1.59-2.19 8.82 1.63 8.13zm30.9-7.32c.67 2.04-1.581 7.002 1.627 6.506 3.033.321.341-5.079 2.439-5.693 4.717-1.465 3.188 3.318 5.691 4.066 1.631-1.618-.257-3.872-.812-5.691-3.71-.47-5.06 1.43-8.95.8zm-96.76.82c-1.12.036-1.786-.381-2.439-.812v5.691c2.556-2.478 3.254.675 7.318.814v-4.879c-2.648 1.473-4.265-1.069-5.691 1.625-.04-1.12.38-1.79.81-2.44zm78.06 6.5c.213-2.379-1.838-2.495-1.625-4.877 2.104-3.336 6.93 2.687 6.504-.812-1.606-1.374-5.075-.889-7.318-1.627-1.31 1.92-1.67 8.31 2.45 7.32zm6.51-6.5c.08 2.901.379 5.583 2.439 6.504 3.541-.965-1.037-4.995 2.439-5.689 2.747-.309 3.469 1.408 4.878 2.439-.195 2.243-4.015.863-4.878 2.439 1.148 1.16 3.948-.178 5.692-.814 1.6-7.51-5.98-5.64-10.57-4.88zm-145.56 1.62c2.504-.569 1.563-.569 4.067 0 1.244-2.49-5.311-2.49-4.067 0m5.692.82h1.627c-.002-.814.66-.967.812-1.625-1.039-.046-1.125-1.043-2.439-.814v2.43zm101.65-1.63c-1.039-.046-1.125-1.043-2.439-.814-1.26 2 2.76 2.39 2.44.81zm-95.953 2.44c2.372 1.196 2.372-3.635 0-2.439zm22.763 5.69c1.671-3.883.69 1.215 3.254.814-.13-2.57-.028-4.907 1.625-5.692.654 2.819-1.21 3.126-.812 5.692 2.867-.386 2.672-3.832 3.252-6.505-2.943-1.857-4.211-.556-7.319-1.627-.449 4.017-.417-.845-1.625-.812-.96 3.41.61 4.88 1.63 8.14zm33.34-2.44c1.218-.232 5.875-1.045 3.254-2.438-1.597 2.576-.518-4.285-3.254-3.252-1.61 1.54-.39 3.84 0 5.69m119.54-4.88c.742 1.425.279 4.057 1.625 4.877-.074-4.415 6.207-2.247 4.879-5.689-2.4.67-2.77 1.49-6.51.81zm-24.4 3.26c-.249-1.873 2.35-.902 2.439-2.439-1.1-.257-1.553-1.157-3.252-.812.14 1.21-.29 2.99.81 3.25zm-162.63-.82h1.627v-1.627h-1.627v1.63zm73.998-1.62c-1.252 1.24-1.448 5.575 1.627 4.88.076-1.278-.11-2.821 1.625-2.44.209 3.967 3.531 1.806 6.506 4.065.938-.959.921-2.873.813-4.878-3.831.011-4.617-1.494-4.88.812-1.57-2.61-3.13-.5-5.7-2.43zm110.59 4.06c2.453 1.256 2.139-4.205.812-4.064-1.52 1.44.97 2.37-.81 4.06zm-176.46-2.44c-1.039-.046-1.125-1.043-2.439-.812-1.264 2 2.763 2.39 2.439.81zm37.407 6.51c5.065-1.08 1.113 1.812 3.252 3.252.367-2.641 3.938-7.869.814-8.944-1.605.566.199 4.538-1.627 4.88v-5.692c-2.65.31-1.97 3.98-2.43 6.5zm-1.63-7.32c1.148 3.106-2.123 5.921 0 7.317.73-1.79 3.29-6.41 0-7.32zm97.58 3.25h3.252v-3.25c-1.88.28-3.81.53-3.25 3.25zm-126.85-1.62c-.689 4.81.465-3.26 0 0m71.56 4.06c2.596 1.147 2.054-4.863.812-4.878-.94.96-.92 2.88-.81 4.88zm4.06.82c1.252-1.24 1.448-5.576-1.625-4.88.01 2.15-.46 4.78 1.62 4.88zm1.63 0c2.5 1.243 2.5-5.311 0-4.065v4.06zm4.88.81c-.333-1.961 1.484-1.768.812-4.067-1.1-.255-1.553-1.155-3.252-.811-.03 2.47-.47 5.35 2.44 4.88zm74.81-1.63c2.143.246 2.669-1.124 2.44-3.251h-2.44v3.25zm-113.03 3.26c-.004-1.453 2.19-4.73 0-5.694-.76.68-1.74 5.18 0 5.69zm43.1-4.88c.11 1.515.534 2.716 1.625 3.252.183-.633.022-1.604.814-1.627.093.992.243 1.926 1.625 1.627v-4.067c-1.97-.33-1.78 1.49-4.07.82zm6.5 3.25c1.806-.338.781-4.458-.812-4.067-.63.56-2.12 4.85.81 4.07zm49.6 0c3.332-.54 6.116-.719 8.945 0 .683-.943 1.073-2.182.812-4.067-3.033.399-3.988.879-7.318 0 .79 2.96-3.96.38-2.44 4.07zm-131.73-.81c.046-.496.122-.963.814-.814-.092-.991-.243-1.925-1.627-1.625.14.95-.13 2.3.82 2.44zm34.16 2.44c1.996.476 3.948-5.356.812-4.879-.94.96-.92 2.87-.81 4.88zm51.22-.82c-.903-2.553-.38-2.147.814-4.064h-2.439c.37 1.53-1.1 4.9 1.63 4.06zm4.07.82c1.079-1.714 2.63-4.51-.812-4.879-1.12 1.04-1.42 4.86.81 4.88zm5.69 0c.636-.566 1.81-4.538 0-4.879-.63.56-1.81 4.53 0 4.88zm-105.71-3.26c-.008-.819-1.424-1.021-1.625 0 .911-.08 1.266 1.19 1.625 0m2.44 1.63c.046-.496.123-.961.814-.812-.092-.991-.245-1.927-1.627-1.625.127.95-.14 2.3.813 2.43zm46.348 1.63c-.233-1.417 2.598-4.366-.812-4.064.44 1.17-.95 4.19.81 4.06zm2.44 1.62c.592-2.805 2.448-.542 4.067 0-.47-1.429.983-4.777-.814-4.879-1.902 4.772-.371-.452-3.252-.811-.77.69-1.75 5.18-.01 5.69zm57.73-4.88c-.181 1.538.917 1.795.814 3.254 1.958.333 1.768-1.484 4.064-.814-.06-1.417.183-2.528.815-3.25-2.29 1.29-3.45-.94-5.69.81zm13.83 3.26c.845-.769.742-4.189-1.627-4.064-1.24 1.16-.79 4.23 1.63 4.06zm8.94-.82c2.855-1.844 2.675 1.715 4.879 0-.109-1.513-.535-2.717-1.625-3.25-.196 2.094-1.4-1.12-3.254 0-.01 1.09-.01 2.17-.01 3.25zm5.69 0c1.842.393 4.884-2.039 2.44-3.25-.342 3.908-.293-.972-2.44 0zm-133.35-.81h1.627v-1.627h-1.627v1.63zm52.041 3.25c3.633 1.043 5.563-5.457 1.627-4.879.87 3.04-2.02 2.32-1.63 4.88zm113.03-.81c2.453 1.254 2.139-4.207.812-4.066.67 2.3-1.14 2.11-.81 4.07zm-108.96.81c2.57 1.201 3.91-4.671.812-4.064.33 1.96-1.48 1.76-.81 4.06zm4.06 0h1.627v-3.252h-1.627v3.25zm92.7.82h1.628v-3.254h-1.628v3.25zm-132.54 0c2.034.137 2.546-1.25 3.252-2.439-1.56.34-3.5.29-3.25 2.44zm12.2-1.63c-.666 2.947 6.137 1.966 5.692 0-1.73-.36-3.63-1.01-5.69 0zm30.08 0c-.566 3.047 6.153 1.981 4.879-.812-2.48 1.21-3.16-.27-4.88.81zm6.51 0c-1.97 2.73 2.72-1.97 0 0m3.25 1.63c.046-.498.12-.963.812-.814-.093-.991-.243-1.924-1.625-1.625.12.95-.14 2.3.81 2.44zm3.25.81c.576-.6 2.026-3.98-.812-3.252.14 1.21-.29 3 .81 3.25zm69.12-.81c-.6 3.49 1.07-6.29 0 0m-68.31 1.62c2.911 1.551 5.168-.227 5.693-3.252-3.83-.86-4.56 1.39-5.69 3.25zm6.51-2.44v1.627c2 1.266 2.392-2.763.812-2.439-.04.49-.12.96-.81.81zm-93.512 0c-5.208-.94-1.786 2.48 0 0m101.64 0c-.957.128-2.308-.139-2.44.814.96-.12 2.31.15 2.44-.81zm.81 1.63c1.101.255 1.555 1.157 3.254.812v-1.625c-.046-.498-.122-.963-.814-.814-.01 1.33-2.25.45-2.44 1.62zm4.88.81h1.627v-1.625h-1.627v1.62zm21.96 0h1.627v-1.625h-1.627v1.62zm3.25 0c1.119-.034 1.785.385 2.439.814.39-2.52-2.19-3.05-2.44-.81zm61.8 6.51c-2.3.672-2.106-1.146-4.066-.812-1.25 2.45 4.21 2.13 4.07.81z" style="clip-rule:evenodd;fill-rule:evenodd"/><path d="M107.34 81.366c2.14-4.297-1.55 3.095 0 0M262.65 102.51c-.16-1.86 5.93 5.17 0 0M180.52 125.28c1.85 3.257 4.432 6.717 4.88 8.131 1.72 5.45-4.27-3.91-4.88-8.13zM284.6 131.78c-1.437-2.046 4.079.732 5.691.813-1.08 2.07-3.61-1.19-5.69-.81zM262.65 132.6c.961-2.19 4.239.003 5.691 0-.78 2.01-3.12-1.12-5.69 0zM156.13 145.6c-1.519 2.19.66-1.408 0-3.253.935-2.63.918 2.184.812 3.253h-.81zM336.64 170.81c2.522-.866 3.219 7.062 5.694 8.944-3.17 1.53-3.56-6.71-5.69-8.94zM86.193 191.96c0-3.47 1.176 7.81 0 0M252.08 221.23c3.41-3.41-3.42 3.41 0 0M42.283 243.18c-.181 2.532-4.046 1.377-6.504 1.63.13.95 1.482.684 2.439.811-.185 1.037-2.428 1.066-2.439 0h-8.946c-2.341-1.36 4.157-.646 5.694-.811 3.095-.7 5.387-2.2 9.756-1.63M122.79 255.38c1.922-2.648 4.604.75 6.504.814 2.337.169 4.131-.207 4.879-1.627 4.004 1.587 10.773 3.244 15.45 1.627-3.114 2.259-13.616 4.129-17.077.812-1.683.483-5.34-1.005-5.691.812-1.44-.72-1.03-3.29-4.06-2.43zM120.35 256.19c2.319-1.425-1.593 1.22-2.439 1.625.251 1.104 2.035.674 3.252.814.71 2.243-6.615-.02-8.131-.814 1.61-1.37 5.07-.89 7.32-1.63zM261.02 258.63c1.166-2.403.624 1.886-1.627.812-1.48-.63.49-.87 1.63-.81zM244.76 264.32c2.104-2.694 7.811 2.578 8.132-2.439 4.782 1.437 7.619 1.227 13.01.812-3.47 1.14-16.33 2.61-21.14 1.63z" style="clip-rule:evenodd;fill-rule:evenodd"/></svg>