<svg xmlns="http://www.w3.org/2000/svg" xmlns:xlink="http://www.w3.org/1999/xlink" version="1.0" viewBox="0 0 658.31 849.09"><defs><linearGradient id="a"><stop offset="0" style="stop-color:#786721"/><stop offset="1" style="stop-color:#786721;stop-opacity:0"/></linearGradient><linearGradient xlink:href="#a" id="b" x1="166.88" x2="169.71" y1="817.6" y2="740.91" gradientTransform="translate(-1318 -231.93)" gradientUnits="userSpaceOnUse"/><linearGradient xlink:href="#a" id="c" x1="172.87" x2="169.71" y1="847.92" y2="740.91" gradientTransform="matrix(1.0008 0 0 .29689 -908.56 731.21)" gradientUnits="userSpaceOnUse"/><linearGradient id="f" x1="-2039.3" x2="-1965.8" y1="48.271" y2="53.927" gradientTransform="translate(750.86 -212.3)" gradientUnits="userSpaceOnUse"><stop offset="0" style="stop-color:#24221c"/><stop offset="1" style="stop-color:#24221c;stop-opacity:0"/></linearGradient><linearGradient id="g" x1="-1824.3" x2="-1979.9" y1="215.15" y2="273.5" gradientTransform="translate(791.46 -393.48)" gradientUnits="userSpaceOnUse"><stop offset="0" style="stop-color:#24221c"/><stop offset="1" style="stop-color:#24221c;stop-opacity:0"/></linearGradient><linearGradient id="e" x1="-820.24" x2="-639.22" y1="339.6" y2="720.9" gradientTransform="translate(-500 -518)" gradientUnits="userSpaceOnUse"><stop offset="0" style="stop-color:#fd5"/><stop offset="1" style="stop-color:#fd5;stop-opacity:0"/></linearGradient><linearGradient id="d" x1="-268.7" x2="-543.93" y1="413.14" y2="271.72" gradientTransform="translate(-534 44)" gradientUnits="userSpaceOnUse"><stop offset="0" style="stop-color:#fd5"/><stop offset="1" style="stop-color:#fd5;stop-opacity:0"/></linearGradient></defs><g transform="translate(1464.6 205.13)"><path fill="none" d="M-916.35 78.16c-1.61 4.099-4.45 7.532-6.6 11.356-2.24 3.702-4.5 7.464-6.12 11.484-2.06 4.96-3.37 10.08-4.09 15.39-.83 4.78-1.91 9.49-2.61 14.29l-37.32 18.41c.56-4.79 1.37-9.55 2.6-14.22.52-5.47 1.33-10.95 3.54-16.03 1.14-4.56 3.48-8.38 5.64-12.5 2.45-3.21 3.96-7.097 6.59-10.159zM81.316 682.25c12.087-8.84 19.344-23.46 26.964-35.89 21.64-38.04-3.13 5.61 17.66-31.34 2.61-4.64 4.89-9.5 7.89-13.9 12.67-18.53 29.43-36.76 44.18-53.76 18.16-20.15 36.37-40.51 57.01-58.18 16.43-12.28 7.53-5.93 43.99-26.37 4.27-2.4 9.68-3.15 14.45-2.65 5.19 1.03 9.96 3.75 13.98 7.14 4.21 3.19 7.56 7.5 10.74 11.69 3.17 3.98 6.79 7.55 10.11 11.39 3.33 4.16 6.66 8.3 9.82 12.58 12.06 18.99 27.77 35.14 42.79 51.78 4.88 5.96 9.64 12.02 14.65 17.87 24.01 28.01 10.76 10.39 37.12 42.44 28.79 34.99 30.54 39.02 59.67 77.45 12.3 16.23 24.77 32.35 37.16 48.52 23.37 32.01 56.94 78.38 80.9 109.59 94.28 122.78-13.72-21.68 78.96 101.62 65.86 87.57 16.05 24.1 81.67 106.07 41.59 50.5 83.8 100.6 129.27 147.7 4.47 5 9.45 9.5 14.2 14.3l-35.18 21.1c-3.65-5.5-7.45-10.8-10.86-16.4-35.79-53.7-72.42-106.8-110.55-158.8-77.24-103.63 1.97 1.5-81.74-106.12-66.04-84.91-11.93-17.06-76.87-102.86-10.92-14.42-72.09-92.44-84.03-107.69-16.27-19.18-57.44-68.32-75.73-87.82-10.47-11.16-41.94-40.81-54.76-53.78-5.9-5.96-11.4-12.31-17.3-18.27-5.56-5.62-11.39-10.97-17.09-16.45-11.05-12.36-22.1-24.77-34.42-35.9-3.13-2.83-6.61-5.25-9.73-8.08-1.57-1.43-2.38-3.56-3.97-4.98-3.2-4.15-6.32-8.37-9.87-12.24-3.35-3.88-6.75-7.72-9.92-11.75-3.1-3.91-6.55-7.63-10.49-10.69-3.64-2.71-7.68-4.88-12.33-4.97-3.01.26-5.79.86-8.61 2.02-1.24.51-4.79 2.4-3.64 1.71 44.21-26.68 37.12-22.22 24.1-13.81-23.02 17.64-43.08 38.88-62.92 59.94-10.96 12.3-19.86 21.85-29.9 34.98-14.88 19.47-26.27 41.16-38.11 62.52-2.61 4.94-5.36 9.81-7.83 14.83-1.76 3.58-3.01 7.4-4.86 10.93-1.75 3.37-5.08 5.93-7.16 9.1z" style="fill-opacity:0"/><path fill="none" d="M864.08 1237.1c-2.18-3.8-5.53-6.7-8.34-9.9-2.57-3.4-6.87-4-10.24-6-1.08-.7-2-1.6-3-2.4-8.73-7.7-17.35-15.5-25.46-23.9-1.54-1.6-3.08-3.3-4.62-5-1.48-1.7-2.91-3.4-4.43-5.1-1.38-1.5-3.08-2.7-4.26-4.3-2.96-4.2-5.2-8.8-8.09-13-7.48-10.9-15.36-20.3-23.63-30.6-17.4-21.7-36.16-42.4-54.7-63.2-7.83-9-15.81-17.9-23.22-27.2-4.41-4.5-7.79-9.9-11.85-14.7-2.88-4.3-5.99-8.2-9.63-11.9-4.16-2.8-7.93-6-12.05-8.9-6.73-2.7-10.12-8.9-14.47-14.31-2.3-4.12-4.33-8.39-6.89-12.34-9.12-14.06-20.37-26.66-31.33-39.26-15.07-17.3-3.32-4.25-17.19-19.45-3.46-5.28-8.61-9.04-12.67-13.78-3.15-3.67-5.83-7.74-9.03-11.37-3.64-4.12-8.05-7.54-11.49-11.84-5.08-6.35-9.28-13.36-13.98-20-5.13-7.25-10.34-14.45-15.5-21.68-48.28-81.36 15.6 26.13-43.05-71.89-9.62-16.07-18.86-32.37-28.71-48.29-10.94-17.68-22.47-34.98-33.67-52.48-49.49-77.32-21.65-35.16-71.31-108.63-10.31-14.73-20.57-29.49-30.92-44.18-9.88-14.01-19.62-28.12-29.79-41.92-27.28-36.99-56.74-72.41-86.64-107.29-12.68-14.88-25.62-29.52-37.86-44.75-13.31-18.79-9.02-7.03 31.45-30.36.51.25 1.02.51 1.53.76l-34.77 23.97c-.43.02-.86.04-1.29.05 11.89-7.2 23.99-14.07 35.66-21.61.35-.23-.59-.85-1.01-.78-.31.06.13.63.28.91 1.11 2.13 2.92 3.87 3.72 6.18 9.47 16.71 19.55 33.06 30.38 48.94 25.29 37.95 50.82 75.73 76.49 113.42 9.65 14.16 19.73 28.05 28.94 42.49 9.64 15.1 18.41 30.74 27.61 46.11 11.17 17.66 22.04 35.53 33.53 52.99 26.61 40.45 46.4 67.3 73.87 106.72 10.73 15.39 21.06 31.07 31.97 46.34 12.5 17.48 36.69 48.99 50.63 67.27 16.1 20.85 14.98 20.7 32.89 39.02 3.91 4 8.13 7.69 12.19 11.53 3.85 3.35 7.94 6.45 11.55 10.05 4.38 4.37 6.83 10.44 11.43 14.62 8.42 10.97 16.88 21.88 25.56 32.65 4.42 5.48 17.29 21.5 22.13 26.73 3.3 3.55 6.96 6.73 10.44 10.1 4.24 5.18 8.36 10.01 14.53 12.95 4.26 3.03 8.45 6.22 12.55 9.45 3.67 3.86 6.64 8.06 9.65 12.36 3.87 5 7.55 10.2 11.41 15.2 6.82 9.5 14.12 18.8 21.31 28.1 16.72 22 33.76 43.8 50.87 65.5 7.25 8.8 17.29 21.3 25.2 29.6 3.6 3.8 7.65 7.1 11.34 10.8 4.6 4.5 8.35 9.9 12.91 14.5 8.27 8 16.91 15.7 26.28 22.4 4.98 2.7 10.45 4.6 14.19 9.1 2.9 3.1 6 6 8.79 9.3z" style="fill-opacity:0"/><path fill="none" d="m385.71 660.93 11.05-.66 11.05-.66-4.95 9.9-4.95 9.89-6.1-9.23z" style="fill-opacity:0" transform="translate(-1318 -231.93)"/><path d="M-1463.9 507.7c272.7 264.75 635.25 25.75 585.24 10.59z" style="fill-rule:evenodd;stroke:#000;stroke-width:1px;fill:#fff"/><path d="m-1280.9-200.43-36.3 715.19" style="stroke:#000;stroke-width:9.405;fill:none"/><path fill="none" d="m131.43-61.924 497.51 347.04 497.56 347.05-549.36 257.34-549.3 257.29 51.792-604.34z" style="fill-opacity:0"/><path fill="none" d="m85.714 532.36 144.63-397.78 144.62-397.79 272.18 324.14 272.18 324.14-416.8 73.65z" style="fill-opacity:0"/><path fill="none" d="M414.29 320.93a22.857 111.43 0 1 1-45.72 0 22.857 111.43 0 1 1 45.72 0M251.43 196.65a22.857 7.143 0 1 1-45.72 0 22.857 7.143 0 1 1 45.72 0" style="fill-opacity:0" transform="translate(-1318 -231.93)"/><path fill="none" d="M477.14 133.79a138.57 247.14 0 1 1-277.14 0 138.57 247.14 0 1 1 277.14 0" style="fill-opacity:0"/><path fill="none" d="M465.71 138.08a17.143 214.29 0 1 1-34.28 0 17.143 214.29 0 1 1 34.28 0" style="fill-opacity:0"/><path fill="none" d="M454.29 633.79a1.429 30 0 1 1-2.86 0 1.429 30 0 1 1 2.86 0" style="fill-opacity:0" transform="translate(-1318 -231.93)"/><g fill="none" style="fill-opacity:0"><path d="m226.56-70.021 288.57 159.19 74.54-40.359L260.44-72.27z" style="fill-rule:evenodd;fill:#afafde"/><path d="M226.56-222.26v152.24l33.88-2.253v-144.47l-33.88-5.52z" style="fill-rule:evenodd;fill:#353564"/><path d="m260.44-216.74 329.23-296.6V48.81L260.44-72.27z" style="fill-rule:evenodd;fill:#e9e9ff"/><path d="m226.56-222.26 288.57-389.95 74.54 98.87-329.23 296.6z" style="fill-rule:evenodd;fill:#4d4d9f"/><path d="M515.13-612.21V89.17l74.54-40.36v-562.15z" style="fill-rule:evenodd;fill:#d7d7ff"/><path d="m226.56-222.26 288.57-389.95V89.17L226.56-70.02z" style="fill-rule:evenodd;fill:#8686bf"/></g><g fill="none" style="fill-opacity:0"><path d="m1862.6-56.939 431.5-189.47v516.69l-431.5-79.34z" style="fill-rule:evenodd;fill:#e9e9ff"/><path d="M2344.6-461.76v822.23l-50.5-90.19v-516.69z" style="fill-rule:evenodd;fill:#d7d7ff"/><path d="m1787.5 206.82 557.1 153.65-50.5-90.19-431.5-79.34z" style="fill-rule:evenodd;fill:#afafde"/><path d="M1787.5-94.844v301.66l75.1-15.88v-247.88l-75.1-37.904z" style="fill-rule:evenodd;fill:#353564"/><path d="m1787.5-94.844 557.1-366.92-50.5 215.35-431.5 189.47-75.1-37.904z" style="fill-rule:evenodd;fill:#4d4d9f"/><path d="m1787.5-94.844 557.1-366.92v822.23l-557.1-153.65z" style="fill-rule:evenodd;fill:#8686bf"/></g><g fill="none" style="fill-opacity:0"><path d="M349.19-217.64v12.99z" style="fill-rule:evenodd;fill:#e9e9ff"/><path d="M295.13-227.97v14.28l54.06 9.04v-12.99z" style="fill-rule:evenodd;fill:#353564"/><path d="m295.13-227.97 54.06 10.33z" style="fill-rule:evenodd;fill:#4d4d9f"/><path d="m295.13-213.69 54.06 9.04z" style="fill-rule:evenodd;fill:#afafde"/><path d="M295.13-227.97v14.28l54.06 9.04v-12.99z" style="fill-rule:evenodd;fill:#d7d7ff"/><path d="M295.13-227.97v14.28z" style="fill-rule:evenodd;fill:#8686bf"/></g><g fill="none" style="fill-opacity:0"><path d="m320.85-65.115 5.71 1.607 60.87-5.464-6.85-1.284z" style="fill-rule:evenodd;fill:#afafde"/><path d="M320.85-86.037v20.922l59.73-5.141v-18.729z" style="fill-rule:evenodd;fill:#353564"/><path d="m380.58-88.985 6.85.736v19.277l-6.85-1.284z" style="fill-rule:evenodd;fill:#e9e9ff"/><path d="m320.85-86.037 5.71.922 60.87-3.134-6.85-.736z" style="fill-rule:evenodd;fill:#4d4d9f"/><path d="M326.56-85.115v21.607l60.87-5.464v-19.277z" style="fill-rule:evenodd;fill:#d7d7ff"/><path d="m320.85-86.037 5.71.922v21.607l-5.71-1.607z" style="fill-rule:evenodd;fill:#8686bf"/></g><rect width="271.43" height="242.86" x="-1126.6" y="214.72" fill="none" ry="14.272" style="fill-opacity:0"/><path d="M-1464.1 509.48c272.8 264.75 635.29 25.75 585.28 10.59z" style="fill-rule:evenodd;stroke:#000;stroke-width:1px;fill:url(#b)"/><path d="M-1229.2 491.51c-12.8-3.49-26 5.92-36.8 11.31-12.4 6.21-16 7.54-31.1 11.31-2 .51-3.7 1.89-5.6 2.83" style="stroke:#000;stroke-width:3;fill:none"/><path d="M-1056 951.92c272.95 78.58 635.73 7.65 585.69 3.14z" style="fill-rule:evenodd;stroke:#000;stroke-width:.54509px;fill:#fff" transform="translate(-342.24 -345.07)"/><path d="M-1054.7 951.34c272.96 78.56 635.75 7.64 585.7 3.14z" style="fill-rule:evenodd;stroke:#000;stroke-width:.54509px;fill:url(#c)" transform="translate(-342.24 -345.07)"/><path d="M-1001.3 512.13c4.03 3 26.48 10.39 33.98 14.14 10.56 5.28 21.09 15.44 28.28 22.63 8.11 8.11 18.11 15.28 25.46 22.63 8.64 8.64 12.51 15.34 19.8 22.63 6.74 6.74 11.17 14 16.97 19.8" style="stroke:#000;stroke-width:7;fill:none"/><path d="M-1316.5 511.55c3.7 3.03 24.8 10.51 31.8 14.3 9.9 5.34 19.8 15.61 26.5 22.89 7.6 8.21 17 15.46 23.9 22.89 8.1 8.74 11.7 15.52 18.5 22.89 6.3 6.82 10.5 14.16 15.9 20.03" style="stroke:#000;stroke-width:6.8159;fill:none"/><path d="m-1293.1-113.77 401.91 634.53" style="stroke:#000;stroke-width:10.558;fill:none"/><path d="M-1228.6 494.43c705.74 2.86-54.3-582.86-54.3-582.86z" style="fill-rule:evenodd;stroke:#000;stroke-width:1px;fill:#fff"/><path d="m-1275.8-196.41 2.3 68.06c28.4 1.22 51 26.61 90.3-17.59 5.3-7.34 18.9-12.56 37.9-16.43 25.7-5.24 61.2-8.02 98.9-10.22-43.4-11.71-85.7-28.31-134.8-14.01-56 26.37-65.2-3.96-94.6-9.81z" style="fill-rule:evenodd;stroke:#000;stroke-width:.69166px;fill:#fff"/><path d="M-1229.2 495.41c705.76 2.86-54.2-582.86-54.2-582.86z" style="fill-rule:evenodd;stroke:#000;stroke-width:1px;fill:url(#d)"/><path d="M-1228.8 494.32c705.67 2.86-54.3-582.86-54.3-582.86z" style="fill-rule:evenodd;stroke:#000;stroke-width:1px;fill:url(#e)"/><path d="m-1275.9-196.59 2.3 68.07c28.4 1.21 51 26.61 90.3-17.6 5.3-7.33 18.9-12.55 37.9-16.42 25.7-5.25 61.2-8.02 99-10.22-43.5-11.71-85.8-28.31-134.9-14.01-56 26.37-65.2-3.96-94.6-9.82z" style="fill-rule:evenodd;stroke:#000;stroke-width:.69166px;fill:url(#f)"/><path d="m-1274.9-196.74 2.3 68.06c28.4 1.22 51 26.61 90.3-17.59 5.3-7.33 18.9-12.55 37.9-16.43 25.7-5.24 61.2-8.02 99-10.22-43.5-11.71-85.8-28.31-134.9-14.01-56 26.37-65.2-3.96-94.6-9.81z" style="fill-rule:evenodd;stroke:#000;stroke-width:.69166px;fill:url(#g)"/></g></svg>