<svg xmlns="http://www.w3.org/2000/svg" xml:space="preserve" width="580" height="580"><g stroke="param(outline) #FFF" stroke-opacity="param(outline-opacity)" transform="translate(-48.124 -40.404)scale(1.10722)"><ellipse cx="104.809" cy="288.427" fill-opacity="param(fill-opacity)" rx="34.688" ry="50.192" style="opacity:1;fill:#000;stroke-width:1.79828382" transform="matrix(.96748 -.25295 .26268 .96488 0 0)"/><path d="M288.03 251.896c36.703-2.685 56.297 31.35 54.497 57.603 25.027 17.662 27.945 39.432 29.433 62.373 1.775 27.366-8.124 61.228-25.205 78.313-15.594 69.099-37.385 99.145-61.811 98.652-29.528-.596-48.817-11.289-66.401-71.566-23.577-29.498-39.347-73.545-25.28-106.462 13.417-31.4 10.708-44.284 38.547-66.188 7.908-29.24 25.543-50.48 56.22-52.725z" style="opacity:1;fill:#000;fill-opacity:1;stroke-width:1.72814167"/><ellipse cx="248.481" cy="155.747" fill-opacity="param(fill-opacity)" rx="39.688" ry="55.57" style="opacity:1;fill:#000;stroke-width:1.84511697" transform="matrix(.99807 .06217 -.04174 .99913 0 0)"/><ellipse cx="349.845" cy="119.201" fill-opacity="param(fill-opacity)" rx="37.309" ry="54.937" style="opacity:1;fill:#000;stroke-width:1.77873933" transform="rotate(8.256)"/><ellipse cx="451.706" cy="49.004" fill-opacity="param(fill-opacity)" rx="36.247" ry="53.375" style="opacity:1;fill:#000;stroke-width:1.72814167" transform="rotate(23.504)"/><ellipse cx="525.133" cy="88.166" fill-opacity="param(fill-opacity)" rx="33.503" ry="49.334" style="opacity:1;fill:#000;stroke-width:1.72814167" transform="rotate(26.146)"/><g fill-opacity="param(fill-opacity)" stroke-width="param(outline-width) 0" style="opacity:1;fill:#000"><path d="M-208.067-653.283c-4.386 6.727-30.624-17.134-22.956-21.121 0 0 41.74-32.968 43.141-27.954 0 0-13.905 39.443-20.185 49.075z" style="fill:#000;stroke-width:1.47486424" transform="scale(-.68092 .68092)rotate(-40.427 712.813 104.731)"/></g><g fill-opacity="param(fill-opacity)" stroke-width="param(outline-width) 0" style="opacity:1;fill:#000"><path d="M-192.486-622.913c-2.974 4.56-20.764-11.618-15.565-14.321 0 0 28.3-22.354 29.25-18.954 0 0-9.427 26.744-13.685 33.275z" style="fill:#000" transform="scale(-1.04394 1.04394)rotate(-37.286 837.626 -233.029)"/></g><g fill-opacity="param(fill-opacity)" stroke-width="param(outline-width) 0" style="opacity:1;fill:#000"><path d="M-192.486-622.913c-2.974 4.56-20.764-11.618-15.565-14.321 0 0 28.3-22.354 29.25-18.954 0 0-9.427 26.744-13.685 33.275z" style="fill:#000" transform="scale(-.8249 .8249)rotate(-49.597 627.124 222.78)"/></g><path fill-opacity="param(fill-opacity)" d="M151.692 190.327c.75 4.308 19.004-1.998 16.023-5.64 0 0-13.807-25.461-15.585-23.253 0 0-1.512 22.724-.438 28.893z" style="opacity:1;fill:#000;stroke-width:.80311942"/><g fill-opacity="param(fill-opacity)" stroke-width="param(outline-width) 0" style="opacity:1;fill:#000"><path d="M-208.067-653.283c-4.386 6.727-30.624-17.134-22.956-21.121 0 0 41.74-32.968 43.141-27.954 0 0-13.905 39.443-20.185 49.075z" style="fill:#000;stroke-width:1.47486424" transform="scale(-.68092 .68092)rotate(-52.852 483.716 177.877)"/></g></g></svg>