<svg xmlns="http://www.w3.org/2000/svg" version="1.0" viewBox="0 0 46.812 39.05"><defs><linearGradient id="b" x1="23.896" x2="23.896" y1="4.737" y2="40.904" gradientTransform="translate(-1.253 -4.058)" gradientUnits="userSpaceOnUse"><stop offset="0" style="stop-color:#59597d"/><stop offset="1" style="stop-color:#000"/></linearGradient><filter id="a" color-interpolation-filters="sRGB"><feGaussianBlur stdDeviation=".601"/></filter></defs><path d="M20.393 31.822V10.627c-3.325-2.494-4.306-8.915 2.909-8.935s6.026 7.688 3.117 9.143v20.987c3.948 0 9.558-6.65 9.558-6.65l-3.324-3.118L45.12 17.9l-.83 14.753-4.365-3.74c-7.48 10.805-24.727 11.636-32.623.207l-4.155 3.325-1.455-14.338 12.467 4.156-3.324 3.325s4.987 6.026 9.558 6.234z" style="opacity:.8;fill-rule:evenodd;filter:url(#a);stroke:#000;stroke-width:.5;fill:#000"/><path d="M19.63 31.059V9.864C16.305 7.371 15.324.949 22.54.929c7.214-.02 6.025 7.688 3.116 9.143v20.987c3.948 0 9.558-6.65 9.558-6.65l-3.324-3.117 12.468-4.155-.831 14.753-4.364-3.74c-7.48 10.804-24.726 11.635-32.622.207l-4.156 3.324L.93 17.344 13.398 21.5l-3.325 3.324s4.987 6.026 9.559 6.234z" style="fill-rule:evenodd;stroke:#000;stroke-width:.5;fill:url(#b)"/></svg>