<svg xmlns="http://www.w3.org/2000/svg" width="600" height="600"><path d="M361.59 196.59c-7.47.16-11.55 4.52-9.09 10.47 3.13 7.59 20.34 5 20.34-3.06 0-4.14-2.57-6.53-7.84-7.22-1.2-.16-2.34-.21-3.41-.19m1.32-15.75c20.53 0 39.44 22.28 27.97 32.94-4.36 4.05-.77 24.15 5.12 28.69 2.3 1.77 22.37 5.31 44.62 7.87 37.87 4.36 41.12 4.34 50.32-.72 15.63-8.58 21.28-3.09 21.28 20.69 0 22.49-5.41 28.78-18.97 22.03-6.12-3.04-15.51-3.14-43.47-.5-43.14 4.08-51.18 6.65-54.03 17.19-2.69 9.98.71 161.67 4.81 214.22 3.12 39.89 8.28 62.65 16.16 71.34 5.49 6.05 38.37 15.07 54.25 14.88 29.29-.35 64.36-20.12 108.69-61.28 5.4-5.02 9.43-8.64 13.43-12.22-17.26-4.88-42.81-7.59-42.81-7.59l91.44-32.85s-5.74 97.51-8.6 103.22c-3.24 3.51-8.56-24.93-17.43-43.72-1.4 2.59-2.34 4.65-4.07 7.63-43.76 75.6-82.36 106.13-141.43 111.78-31.19 2.98-68.77 10.22-78.81 15.22-3.69 1.83-10.62 9.58-15.41 17.18-4.79 7.61-10.67 13.82-13.06 13.82s-8.27-6.21-13.07-13.82c-4.79-7.6-11.75-15.35-15.43-17.18-10.05-5-47.59-12.24-78.79-15.22-55.92-5.35-93.55-33.5-134.53-100.56-7.61 18.45-12.39 42.06-15.37 38.84-2.86-5.72-8.564-103.22-8.564-103.22l91.404 32.88s-23.81 2.49-41 7.06c43.65 40.26 78.31 59.68 107.28 60.03 15.88.19 48.74-8.83 54.22-14.88 7.89-8.69 13.04-31.45 16.16-71.34 4.1-52.55 7.54-204.24 4.84-214.22-2.84-10.54-10.88-13.11-54.03-17.19-27.96-2.64-37.34-2.54-43.47.5-13.56 6.75-19 .46-19-22.03 0-23.78 5.68-29.27 21.32-20.69 9.19 5.06 12.41 5.08 50.28.72 22.26-2.56 42.35-6.1 44.65-7.87 5.89-4.54 9.49-24.64 5.13-28.69-11.47-10.66 7.43-32.94 27.97-32.94" style="fill:#000" transform="matrix(-.00128 .42093 -.53079 -.00162 407.982 147.167)"/><path d="M355.16 695.66c-3.17-4.99-9.18-11.16-13.36-13.7-9.78-5.96-45.81-13.43-80.97-16.79-58.91-5.63-94.9-33.99-138.3-108.95l-15.73-27.17 33.01 30.25c46.55 42.68 78.06 59.16 113.6 59.43 23.3.17 54.44-8.01 62.47-16.41 15.03-15.72 19.82-58.24 22.9-203.21 2.38-111.95 3.3-108.35-29.12-113.44-12.66-1.98-37.9-3.82-56.1-4.08l-33.08-.48-.02-11.9c-.01-10.14.84-11.56 5.79-9.63 12.5 4.88 21.14 4.92 62.19.24 47.56-5.43 53.08-8.04 56.49-26.8 2.16-11.85 2.44-12.06 16.54-12.06s14.39.21 16.55 12.06c3.4 18.76 8.93 21.37 56.48 26.8 41.06 4.68 49.7 4.64 62.2-.24 4.95-1.93 5.8-.51 5.79 9.63l-.02 11.9-33.09.48c-18.19.26-43.43 2.1-56.09 4.08-32.43 5.09-31.5 1.49-29.12 113.44 3.07 144.97 7.86 187.49 22.89 203.21 8.03 8.4 39.18 16.58 62.48 16.41 35.54-.27 67.04-17.76 113.6-60.44l42.09-40.35-11.68 26.16c-43.36 74.9-92.43 115.35-151.43 121.14-58.31 5.73-79.97 12.25-92.01 27.71l-9.18 11.78z" style="fill:#1e1e1e" transform="matrix(-.00128 .42093 -.53079 -.00162 407.982 147.167)"/><path d="m102.99 516.19 5.16 77.93s11.44-32.59 18.28-45.02c8.13-1.82 42.64-8.05 41.65-9.08-38.23-15.2-64.15-20.78-65.09-23.83M635.57 503.26l-4.42 77.98s-11.75-32.48-18.71-44.85c-8.14-1.74-42.71-7.64-41.73-8.69 38.09-15.55 63.96-21.38 64.86-24.44" style="fill:#1e1e1e;fill-rule:evenodd" transform="matrix(-.00128 .42093 -.53079 -.00162 407.982 147.167)"/><path d="M361.59 196.59c-7.47.16-11.55 4.52-9.09 10.47 3.13 7.59 20.34 5 20.34-3.06 0-4.14-2.57-6.53-7.84-7.22-1.2-.16-2.34-.21-3.41-.19m1.32-15.75c20.53 0 39.44 22.28 27.97 32.94-4.36 4.05-.77 24.15 5.12 28.69 2.3 1.77 22.37 5.31 44.62 7.87 37.87 4.36 41.12 4.34 50.32-.72 15.63-8.58 21.28-3.09 21.28 20.69 0 22.49-5.41 28.78-18.97 22.03-6.12-3.04-15.51-3.14-43.47-.5-43.14 4.08-51.18 6.65-54.03 17.19-2.69 9.98.71 161.67 4.81 214.22 3.12 39.89 8.28 62.65 16.16 71.34 5.49 6.05 38.37 15.07 54.25 14.88 29.29-.35 64.36-20.12 108.69-61.28 5.4-5.02 9.43-8.64 13.43-12.22-17.26-4.88-42.81-7.59-42.81-7.59l91.44-32.85s-5.74 97.51-8.6 103.22c-3.24 3.51-8.56-24.93-17.43-43.72-1.4 2.59-2.34 4.65-4.07 7.63-43.76 75.6-82.36 106.13-141.43 111.78-31.19 2.98-68.77 10.22-78.81 15.22-3.69 1.83-10.62 9.58-15.41 17.18-4.79 7.61-10.67 13.82-13.06 13.82s-8.27-6.21-13.07-13.82c-4.79-7.6-11.75-15.35-15.43-17.18-10.05-5-47.59-12.24-78.79-15.22-55.92-5.35-93.55-33.5-134.53-100.56-7.61 18.45-12.39 42.06-15.37 38.84-2.86-5.72-8.564-103.22-8.564-103.22l91.404 32.88s-23.81 2.49-41 7.06c43.65 40.26 78.31 59.68 107.28 60.03 15.88.19 48.74-8.83 54.22-14.88 7.89-8.69 13.04-31.45 16.16-71.34 4.1-52.55 7.54-204.24 4.84-214.22-2.84-10.54-10.88-13.11-54.03-17.19-27.96-2.64-37.34-2.54-43.47.5-13.56 6.75-19 .46-19-22.03 0-23.78 5.68-29.27 21.32-20.69 9.19 5.06 12.41 5.08 50.28.72 22.26-2.56 42.35-6.1 44.65-7.87 5.89-4.54 9.49-24.64 5.13-28.69-11.47-10.66 7.43-32.94 27.97-32.94" style="fill:#000" transform="matrix(.42093 .00128 -.00162 .53079 147.167 192.018)"/><path d="M355.16 695.66c-3.17-4.99-9.18-11.16-13.36-13.7-9.78-5.96-45.81-13.43-80.97-16.79-58.91-5.63-94.9-33.99-138.3-108.95l-15.73-27.17 33.01 30.25c46.55 42.68 78.06 59.16 113.6 59.43 23.3.17 54.44-8.01 62.47-16.41 15.03-15.72 19.82-58.24 22.9-203.21 2.38-111.95 3.3-108.35-29.12-113.44-12.66-1.98-37.9-3.82-56.1-4.08l-33.08-.48-.02-11.9c-.01-10.14.84-11.56 5.79-9.63 12.5 4.88 21.14 4.92 62.19.24 47.56-5.43 53.08-8.04 56.49-26.8 2.16-11.85 2.44-12.06 16.54-12.06s14.39.21 16.55 12.06c3.4 18.76 8.93 21.37 56.48 26.8 41.06 4.68 49.7 4.64 62.2-.24 4.95-1.93 5.8-.51 5.79 9.63l-.02 11.9-33.09.48c-18.19.26-43.43 2.1-56.09 4.08-32.43 5.09-31.5 1.49-29.12 113.44 3.07 144.97 7.86 187.49 22.89 203.21 8.03 8.4 39.18 16.58 62.48 16.41 35.54-.27 67.04-17.76 113.6-60.44l42.09-40.35-11.68 26.16c-43.36 74.9-92.43 115.35-151.43 121.14-58.31 5.73-79.97 12.25-92.01 27.71l-9.18 11.78z" style="fill:#1e1e1e" transform="matrix(.42093 .00128 -.00162 .53079 147.167 192.018)"/><path d="m102.99 516.19 5.16 77.93s11.44-32.59 18.28-45.02c8.13-1.82 42.64-8.05 41.65-9.08-38.23-15.2-64.15-20.78-65.09-23.83M635.57 503.26l-4.42 77.98s-11.75-32.48-18.71-44.85c-8.14-1.74-42.71-7.64-41.73-8.69 38.09-15.55 63.96-21.38 64.86-24.44" style="fill:#1e1e1e;fill-rule:evenodd" transform="matrix(.42093 .00128 -.00162 .53079 147.167 192.018)"/><path d="M361.59 196.59c-7.47.16-11.55 4.52-9.09 10.47 3.13 7.59 20.34 5 20.34-3.06 0-4.14-2.57-6.53-7.84-7.22-1.2-.16-2.34-.21-3.41-.19m1.32-15.75c20.53 0 39.44 22.28 27.97 32.94-4.36 4.05-.77 24.15 5.12 28.69 2.3 1.77 22.37 5.31 44.62 7.87 37.87 4.36 41.12 4.34 50.32-.72 15.63-8.58 21.28-3.09 21.28 20.69 0 22.49-5.41 28.78-18.97 22.03-6.12-3.04-15.51-3.14-43.47-.5-43.14 4.08-51.18 6.65-54.03 17.19-2.69 9.98.71 161.67 4.81 214.22 3.12 39.89 8.28 62.65 16.16 71.34 5.49 6.05 38.37 15.07 54.25 14.88 29.29-.35 64.36-20.12 108.69-61.28 5.4-5.02 9.43-8.64 13.43-12.22-17.26-4.88-42.81-7.59-42.81-7.59l91.44-32.85s-5.74 97.51-8.6 103.22c-3.24 3.51-8.56-24.93-17.43-43.72-1.4 2.59-2.34 4.65-4.07 7.63-43.76 75.6-82.36 106.13-141.43 111.78-31.19 2.98-68.77 10.22-78.81 15.22-3.69 1.83-10.62 9.58-15.41 17.18-4.79 7.61-10.67 13.82-13.06 13.82s-8.27-6.21-13.07-13.82c-4.79-7.6-11.75-15.35-15.43-17.18-10.05-5-47.59-12.24-78.79-15.22-55.92-5.35-93.55-33.5-134.53-100.56-7.61 18.45-12.39 42.06-15.37 38.84-2.86-5.72-8.564-103.22-8.564-103.22l91.404 32.88s-23.81 2.49-41 7.06c43.65 40.26 78.31 59.68 107.28 60.03 15.88.19 48.74-8.83 54.22-14.88 7.89-8.69 13.04-31.45 16.16-71.34 4.1-52.55 7.54-204.24 4.84-214.22-2.84-10.54-10.88-13.11-54.03-17.19-27.96-2.64-37.34-2.54-43.47.5-13.56 6.75-19 .46-19-22.03 0-23.78 5.68-29.27 21.32-20.69 9.19 5.06 12.41 5.08 50.28.72 22.26-2.56 42.35-6.1 44.65-7.87 5.89-4.54 9.49-24.64 5.13-28.69-11.47-10.66 7.43-32.94 27.97-32.94" style="fill:#000" transform="matrix(.00128 -.42093 .53079 .00162 192.018 452.833)"/><path d="M355.16 695.66c-3.17-4.99-9.18-11.16-13.36-13.7-9.78-5.96-45.81-13.43-80.97-16.79-58.91-5.63-94.9-33.99-138.3-108.95l-15.73-27.17 33.01 30.25c46.55 42.68 78.06 59.16 113.6 59.43 23.3.17 54.44-8.01 62.47-16.41 15.03-15.72 19.82-58.24 22.9-203.21 2.38-111.95 3.3-108.35-29.12-113.44-12.66-1.98-37.9-3.82-56.1-4.08l-33.08-.48-.02-11.9c-.01-10.14.84-11.56 5.79-9.63 12.5 4.88 21.14 4.92 62.19.24 47.56-5.43 53.08-8.04 56.49-26.8 2.16-11.85 2.44-12.06 16.54-12.06s14.39.21 16.55 12.06c3.4 18.76 8.93 21.37 56.48 26.8 41.06 4.68 49.7 4.64 62.2-.24 4.95-1.93 5.8-.51 5.79 9.63l-.02 11.9-33.09.48c-18.19.26-43.43 2.1-56.09 4.08-32.43 5.09-31.5 1.49-29.12 113.44 3.07 144.97 7.86 187.49 22.89 203.21 8.03 8.4 39.18 16.58 62.48 16.41 35.54-.27 67.04-17.76 113.6-60.44l42.09-40.35-11.68 26.16c-43.36 74.9-92.43 115.35-151.43 121.14-58.31 5.73-79.97 12.25-92.01 27.71l-9.18 11.78z" style="fill:#1e1e1e" transform="matrix(.00128 -.42093 .53079 .00162 192.018 452.833)"/><path d="m102.99 516.19 5.16 77.93s11.44-32.59 18.28-45.02c8.13-1.82 42.64-8.05 41.65-9.08-38.23-15.2-64.15-20.78-65.09-23.83M635.57 503.26l-4.42 77.98s-11.75-32.48-18.71-44.85c-8.14-1.74-42.71-7.64-41.73-8.69 38.09-15.55 63.96-21.38 64.86-24.44" style="fill:#1e1e1e;fill-rule:evenodd" transform="matrix(.00128 -.42093 .53079 .00162 192.018 452.833)"/><path d="M361.59 196.59c-7.47.16-11.55 4.52-9.09 10.47 3.13 7.59 20.34 5 20.34-3.06 0-4.14-2.57-6.53-7.84-7.22-1.2-.16-2.34-.21-3.41-.19m1.32-15.75c20.53 0 39.44 22.28 27.97 32.94-4.36 4.05-.77 24.15 5.12 28.69 2.3 1.77 22.37 5.31 44.62 7.87 37.87 4.36 41.12 4.34 50.32-.72 15.63-8.58 21.28-3.09 21.28 20.69 0 22.49-5.41 28.78-18.97 22.03-6.12-3.04-15.51-3.14-43.47-.5-43.14 4.08-51.18 6.65-54.03 17.19-2.69 9.98.71 161.67 4.81 214.22 3.12 39.89 8.28 62.65 16.16 71.34 5.49 6.05 38.37 15.07 54.25 14.88 29.29-.35 64.36-20.12 108.69-61.28 5.4-5.02 9.43-8.64 13.43-12.22-17.26-4.88-42.81-7.59-42.81-7.59l91.44-32.85s-5.74 97.51-8.6 103.22c-3.24 3.51-8.56-24.93-17.43-43.72-1.4 2.59-2.34 4.65-4.07 7.63-43.76 75.6-82.36 106.13-141.43 111.78-31.19 2.98-68.77 10.22-78.81 15.22-3.69 1.83-10.62 9.58-15.41 17.18-4.79 7.61-10.67 13.82-13.06 13.82s-8.27-6.21-13.07-13.82c-4.79-7.6-11.75-15.35-15.43-17.18-10.05-5-47.59-12.24-78.79-15.22-55.92-5.35-93.55-33.5-134.53-100.56-7.61 18.45-12.39 42.06-15.37 38.84-2.86-5.72-8.564-103.22-8.564-103.22l91.404 32.88s-23.81 2.49-41 7.06c43.65 40.26 78.31 59.68 107.28 60.03 15.88.19 48.74-8.83 54.22-14.88 7.89-8.69 13.04-31.45 16.16-71.34 4.1-52.55 7.54-204.24 4.84-214.22-2.84-10.54-10.88-13.11-54.03-17.19-27.96-2.64-37.34-2.54-43.47.5-13.56 6.75-19 .46-19-22.03 0-23.78 5.68-29.27 21.32-20.69 9.19 5.06 12.41 5.08 50.28.72 22.26-2.56 42.35-6.1 44.65-7.87 5.89-4.54 9.49-24.64 5.13-28.69-11.47-10.66 7.43-32.94 27.97-32.94" style="fill:#000" transform="matrix(-.42093 -.00128 .00162 -.53079 452.833 407.982)"/><path d="M355.16 695.66c-3.17-4.99-9.18-11.16-13.36-13.7-9.78-5.96-45.81-13.43-80.97-16.79-58.91-5.63-94.9-33.99-138.3-108.95l-15.73-27.17 33.01 30.25c46.55 42.68 78.06 59.16 113.6 59.43 23.3.17 54.44-8.01 62.47-16.41 15.03-15.72 19.82-58.24 22.9-203.21 2.38-111.95 3.3-108.35-29.12-113.44-12.66-1.98-37.9-3.82-56.1-4.08l-33.08-.48-.02-11.9c-.01-10.14.84-11.56 5.79-9.63 12.5 4.88 21.14 4.92 62.19.24 47.56-5.43 53.08-8.04 56.49-26.8 2.16-11.85 2.44-12.06 16.54-12.06s14.39.21 16.55 12.06c3.4 18.76 8.93 21.37 56.48 26.8 41.06 4.68 49.7 4.64 62.2-.24 4.95-1.93 5.8-.51 5.79 9.63l-.02 11.9-33.09.48c-18.19.26-43.43 2.1-56.09 4.08-32.43 5.09-31.5 1.49-29.12 113.44 3.07 144.97 7.86 187.49 22.89 203.21 8.03 8.4 39.18 16.58 62.48 16.41 35.54-.27 67.04-17.76 113.6-60.44l42.09-40.35-11.68 26.16c-43.36 74.9-92.43 115.35-151.43 121.14-58.31 5.73-79.97 12.25-92.01 27.71l-9.18 11.78z" style="fill:#1e1e1e" transform="matrix(-.42093 -.00128 .00162 -.53079 452.833 407.982)"/><path d="m102.99 516.19 5.16 77.93s11.44-32.59 18.28-45.02c8.13-1.82 42.64-8.05 41.65-9.08-38.23-15.2-64.15-20.78-65.09-23.83M635.57 503.26l-4.42 77.98s-11.75-32.48-18.71-44.85c-8.14-1.74-42.71-7.64-41.73-8.69 38.09-15.55 63.96-21.38 64.86-24.44" style="fill:#1e1e1e;fill-rule:evenodd" transform="matrix(-.42093 -.00128 .00162 -.53079 452.833 407.982)"/><g style="fill:#000;fill-opacity:1"><path d="m328.486 60.406 1.992-.598 2.39-1.394 2.192-.399h1.593l5.578 1.992 3.586 1.594 4.581 3.187 3.785.2 6.375 1.394 2.988.2 3.386-.798 3.586-1.394h7.37l5.379.996 3.984 1.394 3.785 1.594 2.789.797 2.39.199 1.992.598 2.191-.2-2.788 2.59-3.387 1.992-1.394.598-.2.398 1.196.797 2.988 1.195 2.789-.2h1.195l7.968 3.188 5.976 2.59 3.586 1.593 3.187.996-1.992.996h-3.586l-3.785.797-1.394.2 1.394.597 2.59.598 9.163 2.988 12.351 4.581 6.972.2 9.562-1.594 19.323-2.988 4.98-.2.796.4-3.187 2.589-5.976 3.386-6.374 3.785-2.988 3.586-.797 4.581.996 6.375-.399.996-2.59-.996-1.593-.2-1.793 3.188-.398 3.785-.399 2.191-3.386 1.992-3.187 3.187-1.195 4.184-.797 4.382.597 1.992-.796 1.395h-.399l-2.191-1.793-2.59-7.968.996-5.976 2.191-7.969.996-4.581-2.19-6.375-5.578-2.59-6.574-.398-5.18.2.797 5.975-.199 3.586-.199.797-3.984-1.793-3.586-.398h-2.988l-4.183 1.195-3.187 1.793-2.79.797-2.788-3.188-3.586-1.195-4.98-.398h-5.976l-.398.597 1.394 2.79.2 3.983-.2 2.79-5.578-4.981-5.378-3.586-4.98-2.59-4.781-2.19" style="fill:#000;fill-opacity:1;fill-rule:evenodd;stroke:#000;stroke-width:1px;stroke-linecap:butt;stroke-linejoin:miter;stroke-opacity:1" transform="matrix(-.65957 .88437 -.70535 -.52605 528.835 -104.163)"/><path d="m329.717 59.93 4.55-2.124h3.64l3.64 2.124 6.37 1.82 2.73 3.336h4.853l3.943.91 5.764.91 5.763-3.64 6.066.607 6.37.91 7.28 3.336 7.887 1.82 3.64-.606-3.944 3.336-4.246 2.427-1.517.91 4.853 1.213 3.64-.606 10.01 4.853 9.707 3.336 2.426.607-3.033 1.517-7.583.606 3.336 1.517 20.627 6.977 3.033.303 14.863-1.517 17.593-3.033 5.763-.91.607 1.82-6.673 3.943-7.584 4.55-4.55 4.247-.91 3.64.304 4.853.91 3.336v.607l-3.943-1.213-.607.606-1.213 2.73-1.214 3.337.304 2.123-6.067 4.247-2.427 5.46-.91 6.066v2.124l-3.336-4.247-2.73-6.37 1.82-8.19 2.426-9.706-1.82-6.977-6.673-2.73-8.796.304-1.82.606 1.516 6.674-.606 3.336-5.46-2.426h-3.943l-2.427-.304-4.853 2.73-3.943 1.213-.607.304-2.123-2.123-2.124-1.517-5.46-1.213h-5.46l-1.82.91 1.517 1.516-.303 7.887-3.64-3.337-6.977-5.46-8.19-3.64-2.123-1.516v-.607l-1.82-.303.91 4.246.607 4.55-1.517 2.73-4.55-5.763-3.033-5.763-.91-.91-2.123 4.246-4.247 2.124-.606-5.46-3.64-6.977-3.944-5.46-4.246-6.37-3.64-5.763-3.64-4.55-2.73-6.976-2.73-5.764-.607-2.73 2.427-2.73z" style="fill:#000;fill-opacity:1;fill-rule:evenodd;stroke:#000;stroke-width:1px;stroke-linecap:butt;stroke-linejoin:miter;stroke-opacity:1" transform="matrix(-.65957 .88437 -.70535 -.52605 528.835 -104.163)"/><path d="m340.334 76.613-1.517-.91-.303-3.034.91-1.516 2.123 1.516.91 2.124z" style="fill:#fff;fill-opacity:1;fill-rule:evenodd;stroke:#000;stroke-width:1px;stroke-linecap:butt;stroke-linejoin:miter;stroke-opacity:1" transform="matrix(-.65957 .88437 -.70535 -.52605 528.835 -104.163)"/><path d="m344.884 81.466 2.123-.607.303-1.82 1.82.607-1.516 3.336-3.64-.303z" style="fill:#000;fill-opacity:1;fill-rule:evenodd;stroke:#000;stroke-width:1px;stroke-linecap:butt;stroke-linejoin:miter;stroke-opacity:1" transform="matrix(-.65957 .88437 -.70535 -.52605 528.835 -104.163)"/><path d="M351.557 69.333v8.796l-.91 3.943-3.033 2.73 4.55-.91 2.426-6.066-.607-6.067zM357.32 81.162l6.067 4.247 12.133 5.763 12.436 2.73 20.626 2.427 11.224.607 1.213-.607-12.74-2.123-24.873-3.944-13.65-4.246-8.19-3.337-4.246-2.73z" style="fill:#fff;fill-opacity:1;fill-rule:evenodd;stroke:#000;stroke-width:1px;stroke-linecap:butt;stroke-linejoin:miter;stroke-opacity:1" transform="matrix(-.65957 .88437 -.70535 -.52605 528.835 -104.163)"/></g><g style="fill:#000;fill-opacity:1"><path d="m328.486 60.406 1.992-.598 2.39-1.394 2.192-.399h1.593l5.578 1.992 3.586 1.594 4.581 3.187 3.785.2 6.375 1.394 2.988.2 3.386-.798 3.586-1.394h7.37l5.379.996 3.984 1.394 3.785 1.594 2.789.797 2.39.199 1.992.598 2.191-.2-2.788 2.59-3.387 1.992-1.394.598-.2.398 1.196.797 2.988 1.195 2.789-.2h1.195l7.968 3.188 5.976 2.59 3.586 1.593 3.187.996-1.992.996h-3.586l-3.785.797-1.394.2 1.394.597 2.59.598 9.163 2.988 12.351 4.581 6.972.2 9.562-1.594 19.323-2.988 4.98-.2.796.4-3.187 2.589-5.976 3.386-6.374 3.785-2.988 3.586-.797 4.581.996 6.375-.399.996-2.59-.996-1.593-.2-1.793 3.188-.398 3.785-.399 2.191-3.386 1.992-3.187 3.187-1.195 4.184-.797 4.382.597 1.992-.796 1.395h-.399l-2.191-1.793-2.59-7.968.996-5.976 2.191-7.969.996-4.581-2.19-6.375-5.578-2.59-6.574-.398-5.18.2.797 5.975-.199 3.586-.199.797-3.984-1.793-3.586-.398h-2.988l-4.183 1.195-3.187 1.793-2.79.797-2.788-3.188-3.586-1.195-4.98-.398h-5.976l-.398.597 1.394 2.79.2 3.983-.2 2.79-5.578-4.981-5.378-3.586-4.98-2.59-4.781-2.19" style="fill:#000;fill-opacity:1;fill-rule:evenodd;stroke:#000;stroke-width:1px;stroke-linecap:butt;stroke-linejoin:miter;stroke-opacity:1" transform="matrix(-.65957 -.88437 -.70535 .52605 528.835 700.13)"/><path d="m329.717 59.93 4.55-2.124h3.64l3.64 2.124 6.37 1.82 2.73 3.336h4.853l3.943.91 5.764.91 5.763-3.64 6.066.607 6.37.91 7.28 3.336 7.887 1.82 3.64-.606-3.944 3.336-4.246 2.427-1.517.91 4.853 1.213 3.64-.606 10.01 4.853 9.707 3.336 2.426.607-3.033 1.517-7.583.606 3.336 1.517 20.627 6.977 3.033.303 14.863-1.517 17.593-3.033 5.763-.91.607 1.82-6.673 3.943-7.584 4.55-4.55 4.247-.91 3.64.304 4.853.91 3.336v.607l-3.943-1.213-.607.606-1.213 2.73-1.214 3.337.304 2.123-6.067 4.247-2.427 5.46-.91 6.066v2.124l-3.336-4.247-2.73-6.37 1.82-8.19 2.426-9.706-1.82-6.977-6.673-2.73-8.796.304-1.82.606 1.516 6.674-.606 3.336-5.46-2.426h-3.943l-2.427-.304-4.853 2.73-3.943 1.213-.607.304-2.123-2.123-2.124-1.517-5.46-1.213h-5.46l-1.82.91 1.517 1.516-.303 7.887-3.64-3.337-6.977-5.46-8.19-3.64-2.123-1.516v-.607l-1.82-.303.91 4.246.607 4.55-1.517 2.73-4.55-5.763-3.033-5.763-.91-.91-2.123 4.246-4.247 2.124-.606-5.46-3.64-6.977-3.944-5.46-4.246-6.37-3.64-5.763-3.64-4.55-2.73-6.976-2.73-5.764-.607-2.73 2.427-2.73z" style="fill:#000;fill-opacity:1;fill-rule:evenodd;stroke:#000;stroke-width:1px;stroke-linecap:butt;stroke-linejoin:miter;stroke-opacity:1" transform="matrix(-.65957 -.88437 -.70535 .52605 528.835 700.13)"/><path d="m340.334 76.613-1.517-.91-.303-3.034.91-1.516 2.123 1.516.91 2.124z" style="fill:#fff;fill-opacity:1;fill-rule:evenodd;stroke:#000;stroke-width:1px;stroke-linecap:butt;stroke-linejoin:miter;stroke-opacity:1" transform="matrix(-.65957 -.88437 -.70535 .52605 528.835 700.13)"/><path d="m344.884 81.466 2.123-.607.303-1.82 1.82.607-1.516 3.336-3.64-.303z" style="fill:#000;fill-opacity:1;fill-rule:evenodd;stroke:#000;stroke-width:1px;stroke-linecap:butt;stroke-linejoin:miter;stroke-opacity:1" transform="matrix(-.65957 -.88437 -.70535 .52605 528.835 700.13)"/><path d="M351.557 69.333v8.796l-.91 3.943-3.033 2.73 4.55-.91 2.426-6.066-.607-6.067zM357.32 81.162l6.067 4.247 12.133 5.763 12.436 2.73 20.626 2.427 11.224.607 1.213-.607-12.74-2.123-24.873-3.944-13.65-4.246-8.19-3.337-4.246-2.73z" style="fill:#fff;fill-opacity:1;fill-rule:evenodd;stroke:#000;stroke-width:1px;stroke-linecap:butt;stroke-linejoin:miter;stroke-opacity:1" transform="matrix(-.65957 -.88437 -.70535 .52605 528.835 700.13)"/></g><g style="fill:#000;fill-opacity:1"><path d="m328.486 60.406 1.992-.598 2.39-1.394 2.192-.399h1.593l5.578 1.992 3.586 1.594 4.581 3.187 3.785.2 6.375 1.394 2.988.2 3.386-.798 3.586-1.394h7.37l5.379.996 3.984 1.394 3.785 1.594 2.789.797 2.39.199 1.992.598 2.191-.2-2.788 2.59-3.387 1.992-1.394.598-.2.398 1.196.797 2.988 1.195 2.789-.2h1.195l7.968 3.188 5.976 2.59 3.586 1.593 3.187.996-1.992.996h-3.586l-3.785.797-1.394.2 1.394.597 2.59.598 9.163 2.988 12.351 4.581 6.972.2 9.562-1.594 19.323-2.988 4.98-.2.796.4-3.187 2.589-5.976 3.386-6.374 3.785-2.988 3.586-.797 4.581.996 6.375-.399.996-2.59-.996-1.593-.2-1.793 3.188-.398 3.785-.399 2.191-3.386 1.992-3.187 3.187-1.195 4.184-.797 4.382.597 1.992-.796 1.395h-.399l-2.191-1.793-2.59-7.968.996-5.976 2.191-7.969.996-4.581-2.19-6.375-5.578-2.59-6.574-.398-5.18.2.797 5.975-.199 3.586-.199.797-3.984-1.793-3.586-.398h-2.988l-4.183 1.195-3.187 1.793-2.79.797-2.788-3.188-3.586-1.195-4.98-.398h-5.976l-.398.597 1.394 2.79.2 3.983-.2 2.79-5.578-4.981-5.378-3.586-4.98-2.59-4.781-2.19" style="fill:#000;fill-opacity:1;fill-rule:evenodd;stroke:#000;stroke-width:1px;stroke-linecap:butt;stroke-linejoin:miter;stroke-opacity:1" transform="matrix(.65957 .88437 .70535 -.52605 69.904 -104.163)"/><path d="m329.717 59.93 4.55-2.124h3.64l3.64 2.124 6.37 1.82 2.73 3.336h4.853l3.943.91 5.764.91 5.763-3.64 6.066.607 6.37.91 7.28 3.336 7.887 1.82 3.64-.606-3.944 3.336-4.246 2.427-1.517.91 4.853 1.213 3.64-.606 10.01 4.853 9.707 3.336 2.426.607-3.033 1.517-7.583.606 3.336 1.517 20.627 6.977 3.033.303 14.863-1.517 17.593-3.033 5.763-.91.607 1.82-6.673 3.943-7.584 4.55-4.55 4.247-.91 3.64.304 4.853.91 3.336v.607l-3.943-1.213-.607.606-1.213 2.73-1.214 3.337.304 2.123-6.067 4.247-2.427 5.46-.91 6.066v2.124l-3.336-4.247-2.73-6.37 1.82-8.19 2.426-9.706-1.82-6.977-6.673-2.73-8.796.304-1.82.606 1.516 6.674-.606 3.336-5.46-2.426h-3.943l-2.427-.304-4.853 2.73-3.943 1.213-.607.304-2.123-2.123-2.124-1.517-5.46-1.213h-5.46l-1.82.91 1.517 1.516-.303 7.887-3.64-3.337-6.977-5.46-8.19-3.64-2.123-1.516v-.607l-1.82-.303.91 4.246.607 4.55-1.517 2.73-4.55-5.763-3.033-5.763-.91-.91-2.123 4.246-4.247 2.124-.606-5.46-3.64-6.977-3.944-5.46-4.246-6.37-3.64-5.763-3.64-4.55-2.73-6.976-2.73-5.764-.607-2.73 2.427-2.73z" style="fill:#000;fill-opacity:1;fill-rule:evenodd;stroke:#000;stroke-width:1px;stroke-linecap:butt;stroke-linejoin:miter;stroke-opacity:1" transform="matrix(.65957 .88437 .70535 -.52605 69.904 -104.163)"/><path d="m340.334 76.613-1.517-.91-.303-3.034.91-1.516 2.123 1.516.91 2.124z" style="fill:#fff;fill-opacity:1;fill-rule:evenodd;stroke:#000;stroke-width:1px;stroke-linecap:butt;stroke-linejoin:miter;stroke-opacity:1" transform="matrix(.65957 .88437 .70535 -.52605 69.904 -104.163)"/><path d="m344.884 81.466 2.123-.607.303-1.82 1.82.607-1.516 3.336-3.64-.303z" style="fill:#000;fill-opacity:1;fill-rule:evenodd;stroke:#000;stroke-width:1px;stroke-linecap:butt;stroke-linejoin:miter;stroke-opacity:1" transform="matrix(.65957 .88437 .70535 -.52605 69.904 -104.163)"/><path d="M351.557 69.333v8.796l-.91 3.943-3.033 2.73 4.55-.91 2.426-6.066-.607-6.067zM357.32 81.162l6.067 4.247 12.133 5.763 12.436 2.73 20.626 2.427 11.224.607 1.213-.607-12.74-2.123-24.873-3.944-13.65-4.246-8.19-3.337-4.246-2.73z" style="fill:#fff;fill-opacity:1;fill-rule:evenodd;stroke:#000;stroke-width:1px;stroke-linecap:butt;stroke-linejoin:miter;stroke-opacity:1" transform="matrix(.65957 .88437 .70535 -.52605 69.904 -104.163)"/></g><g style="fill:#000;fill-opacity:1"><path d="m328.486 60.406 1.992-.598 2.39-1.394 2.192-.399h1.593l5.578 1.992 3.586 1.594 4.581 3.187 3.785.2 6.375 1.394 2.988.2 3.386-.798 3.586-1.394h7.37l5.379.996 3.984 1.394 3.785 1.594 2.789.797 2.39.199 1.992.598 2.191-.2-2.788 2.59-3.387 1.992-1.394.598-.2.398 1.196.797 2.988 1.195 2.789-.2h1.195l7.968 3.188 5.976 2.59 3.586 1.593 3.187.996-1.992.996h-3.586l-3.785.797-1.394.2 1.394.597 2.59.598 9.163 2.988 12.351 4.581 6.972.2 9.562-1.594 19.323-2.988 4.98-.2.796.4-3.187 2.589-5.976 3.386-6.374 3.785-2.988 3.586-.797 4.581.996 6.375-.399.996-2.59-.996-1.593-.2-1.793 3.188-.398 3.785-.399 2.191-3.386 1.992-3.187 3.187-1.195 4.184-.797 4.382.597 1.992-.796 1.395h-.399l-2.191-1.793-2.59-7.968.996-5.976 2.191-7.969.996-4.581-2.19-6.375-5.578-2.59-6.574-.398-5.18.2.797 5.975-.199 3.586-.199.797-3.984-1.793-3.586-.398h-2.988l-4.183 1.195-3.187 1.793-2.79.797-2.788-3.188-3.586-1.195-4.98-.398h-5.976l-.398.597 1.394 2.79.2 3.983-.2 2.79-5.578-4.981-5.378-3.586-4.98-2.59-4.781-2.19" style="fill:#000;fill-opacity:1;fill-rule:evenodd;stroke:#000;stroke-width:1px;stroke-linecap:butt;stroke-linejoin:miter;stroke-opacity:1" transform="matrix(.65957 -.88437 .70535 .52605 69.904 700.129)"/><path d="m329.717 59.93 4.55-2.124h3.64l3.64 2.124 6.37 1.82 2.73 3.336h4.853l3.943.91 5.764.91 5.763-3.64 6.066.607 6.37.91 7.28 3.336 7.887 1.82 3.64-.606-3.944 3.336-4.246 2.427-1.517.91 4.853 1.213 3.64-.606 10.01 4.853 9.707 3.336 2.426.607-3.033 1.517-7.583.606 3.336 1.517 20.627 6.977 3.033.303 14.863-1.517 17.593-3.033 5.763-.91.607 1.82-6.673 3.943-7.584 4.55-4.55 4.247-.91 3.64.304 4.853.91 3.336v.607l-3.943-1.213-.607.606-1.213 2.73-1.214 3.337.304 2.123-6.067 4.247-2.427 5.46-.91 6.066v2.124l-3.336-4.247-2.73-6.37 1.82-8.19 2.426-9.706-1.82-6.977-6.673-2.73-8.796.304-1.82.606 1.516 6.674-.606 3.336-5.46-2.426h-3.943l-2.427-.304-4.853 2.73-3.943 1.213-.607.304-2.123-2.123-2.124-1.517-5.46-1.213h-5.46l-1.82.91 1.517 1.516-.303 7.887-3.64-3.337-6.977-5.46-8.19-3.64-2.123-1.516v-.607l-1.82-.303.91 4.246.607 4.55-1.517 2.73-4.55-5.763-3.033-5.763-.91-.91-2.123 4.246-4.247 2.124-.606-5.46-3.64-6.977-3.944-5.46-4.246-6.37-3.64-5.763-3.64-4.55-2.73-6.976-2.73-5.764-.607-2.73 2.427-2.73z" style="fill:#000;fill-opacity:1;fill-rule:evenodd;stroke:#000;stroke-width:1px;stroke-linecap:butt;stroke-linejoin:miter;stroke-opacity:1" transform="matrix(.65957 -.88437 .70535 .52605 69.904 700.129)"/><path d="m340.334 76.613-1.517-.91-.303-3.034.91-1.516 2.123 1.516.91 2.124z" style="fill:#fff;fill-opacity:1;fill-rule:evenodd;stroke:#000;stroke-width:1px;stroke-linecap:butt;stroke-linejoin:miter;stroke-opacity:1" transform="matrix(.65957 -.88437 .70535 .52605 69.904 700.129)"/><path d="m344.884 81.466 2.123-.607.303-1.82 1.82.607-1.516 3.336-3.64-.303z" style="fill:#000;fill-opacity:1;fill-rule:evenodd;stroke:#000;stroke-width:1px;stroke-linecap:butt;stroke-linejoin:miter;stroke-opacity:1" transform="matrix(.65957 -.88437 .70535 .52605 69.904 700.129)"/><path d="M351.557 69.333v8.796l-.91 3.943-3.033 2.73 4.55-.91 2.426-6.066-.607-6.067zM357.32 81.162l6.067 4.247 12.133 5.763 12.436 2.73 20.626 2.427 11.224.607 1.213-.607-12.74-2.123-24.873-3.944-13.65-4.246-8.19-3.337-4.246-2.73z" style="fill:#fff;fill-opacity:1;fill-rule:evenodd;stroke:#000;stroke-width:1px;stroke-linecap:butt;stroke-linejoin:miter;stroke-opacity:1" transform="matrix(.65957 -.88437 .70535 .52605 69.904 700.129)"/></g></svg>