<svg xmlns="http://www.w3.org/2000/svg" version="1.0" viewBox="0 0 128 128"><path d="M74.656 10.156 55.531 17.5l.125 8.188.156.093-9.531 3.657.125 8.187 8.75 6.406 20.032-8.125v-.531l.718.531 20.032-8.125.062-8.25-9.844-5.562-2.844 1.093zm-.094.313 1.219.719-17.875 7.406-1.531-.969zm1.282.75 1.656.969-17.844 7.562-1.562-1.031zm1.75 1 1.844 1.093-17.844 7.657-1.75-1.125zm1.968 1.156 2 1.156-18.468 7.407-1.375-.876zm6.5.906 1.219.719-2.781 1.156v-.468h-.062l-.782-.438zm-4.343.344 1.843 1.094-19 7.156L63.188 22zm5.625.406L89 16l-4.531 1.938.031-1.688zM84 16v1.969l-.906.343-.688-.968-.062-.094-.094-.031-.188-.125-.062.062-.094.032-1.906.656.125.437-4.937 3-6.719 2.594.031-1.719-2.969 1.156V25l-.687.25.031-2zm5.094.031 1.844 1.094-6.469 2.781v-1.875zm1.968 1.157 2 1.156-8.593 3.437v-1.75zm-9.468.343h.468l-16.25 10.094-.25.094.032-.25zm-.282.031-1.124.657.124-.281zm1 .094.844 1.5-16.687 10.719-1.031-1.563.062-.062zm-26.281.188 1.688 1.094.031.593-1.312-.969.031 1.594-.469-.218zM84 18.062v2.469l-1.031.407v-1.282l.75-.5-.563-.781zm9.219.376 1.843 1.093-10.624 4v-1.625zm-35.281.624 1.406.938v.688l-1.438-1.063zm-1.157.219 1.969 1.375-1.906 1zm38.75.344-.031 2.156-.906.344-.688-.969-.062-.094-.094-.031-.188-.125-.062.063-.094.031-1.906.656.125.438-4.937 3-6.719 2.594.031-1.719-2.969 1.156v1.687l-.687.25.031-1.812 7.781-3.125.188-.281zm-12.937.25.187 3.531-1.781.938-.031-3.375v-.031zM56 20.094l.5.187.031 1.625-.562-.281zm3.5 0 1.875 1.218.094.907-2.063-1.5zm24.5.531v1.219l-1.031.375V21zm-25.156.094L61 22.25l-4.094 2.188-.062-2.719zm21.875.406.187 3.25-.218.125-.063-3.312zm-.313.187.032.532-2.032.781zm12.688.032h.468l-16.25 10.094-.25.093.032-.25zm-.282.031-1.124.656.124-.281zm-31.281.031 1.375.906-.031.969-1.344-1zm32.281.063.844 1.5-16.687 10.719-1.031-1.563.062-.063zm-19.093.093-6.313 3.813.032-1.344zm-18.75.157.562.312.063 2.281.031.907.813.562-.063.781-1.469-1L55.938 24l.656.312-.656-.374zm39.531.156v2.469l-1.031.406v-1.281l.75-.5-.563-.781zm-15.062.063.062 1.25-7.406 2.874 4.968-3.25zm3.562.031.031 1.906-19.312 7.687.031-2.124.812-.313.344.563-.031 1.124 2.625-1 .062-.812 4.032-2.625 7.906-3.063.062 1.376 2.407-1.032v-1.312zm-22.906.343.406.282 1.719 1.218-4.375 2.688-1.906-1.406v-.438zm1.937.063 1.188.781v2l-.594-.437v-.907L63 23.344zm5.188.031v.282l-2.25.937-.219-.187.125.468-.031 3.063-.063.031-.062-3.562h.031v-.032zm0 .344-.157 2.844L66 26.844l.031-3.063zm25.875.938.187 3.531-1.781.937-.031-3.375v-.031zm-30.875.25.093 3.156h-.031l-1.969 1.187-.468-.312-1.875-1.407zm32.281.5v1.218l-1.031.375v-1.219zm-31.875.437.594.469.031 2.406-.594-.594zm28.594.063.187 3.25-.218.124L92.125 25zm-.313.187.032.531-2.032.782zm-26.375.031-.031 2-.312.188v.156l-.407.156.063-2.218zm20.688.219-6.313 3.813.032-1.344zm5.719.375L92 27l-7.406 2.875 4.968-3.25zm3.562.031V27.5l-19.281 7.781.031-2.031.812-.312.344.562-.031 1.125 2.625-1 .062-.813 4.032-2.624L92 27.125l.062 1.375 2.407-1.031v-1.313zm-37.969.094 1.188.844-.063.75-1.156-.813zm-1.406.156 1.219.907-8.688 3.593-1.531-.969zm23.594.188v.281l-2.25.938-.219-.188.125.469-.031 3.062-.063.031-.062-3.562h.031v-.031zm0 .343-.157 2.844-2.062 1.25.031-3.062zm-20.875.25 1.812 1.313.063.781-1.938-1.344zm-1.375.219 1.437 1.031-8.5 3.626-1.562-1.032zm5.843.157.094 2.624-1.968-1.437zm.344.218.594.563v1.406l-.562-.25.562.406.094 2-1.719-1.312v-.688l1.063.781v-1.187zm12.063.094v1.469l-.469-.344v-.937zm-10.563.125-.031.406-.156.063.531.906-.75.312.031-1.562zm9.594.094v2.187l-.906.344-.688-.969-.062-.093-.094-.032-.188-.125-.062.063-.094.031-1.906.656.125.438-4.937 3-6.719 2.593.031-1.718-2.969 1.156v1.688l-.687.25L55.562 35l8.532-3.219.187.281zm-15.719.437 1.625 1.188-8.312 3.562-1.75-1.125zm1.813.125 1.406 1 .156.781L60.875 29zm14.406.5.469.375.031 2.406-.531-.531zm1.781.188-.031 2-.312.187v.156l-.407.157.063-2.219zm-8.75.219-.031.406-1.906.844zm-7.531.218 1.469 1.094-8.375 3.375L52.469 33zm11.594.063h.468l-16.25 10.093-.25.094.032-.25zm-.282.031-1.124.656.124-.281zm1 .094.844 1.5-16.687 10.718-1.031-1.562.062-.062zm-26.281.187 1.688 1.094.031.594-1.312-.969.031 1.594-.469-.219zM74.75 30v2.469l-1.031.406v-1.281l.75-.5-.563-.782zm-12.406.594 1.437 1.031-8.469 3.187-1.374-.874zM48.688 31l1.406.938v.687l-1.438-1.063zm-1.157.219 1.969 1.375-1.906 1zm27.688.062.531.5v1.407l-.531-.219.531.375v1.812l-.562-.375.031-1.812v-1.688m1.437.157-.031.406-.156.062.531.906-.75.313.031-1.563zm-3.312.374.187 3.532-1.781.937-.031-3.375v-.031zm-26.594.219.5.188.031 1.625-.562-.282zm3.5 0 1.875 1.219.094.906-2.063-1.5zm24.5.531v1.219l-1.031.375v-1.218zm-25.156.094 2.156 1.532-4.094 2.187-.062-2.719zM79.781 33l-.031.406-1.906.844zm-8.312.062.187 3.25-.218.126-.063-3.313zm-.313.188.032.531-2.032.781zm-18.875.094 1.375.906-.031.969-1.344-1zm13.188.156-6.313 3.812.032-1.343zm-18.75.156.562.313.063 2.281.031.906.813.563-.063.781-1.469-1 .032-1.562.656.312-.656-.375zm24.469.219.062 1.25L63.844 38l4.968-3.25zm3.562.031v1.719l-19.281 7.781.031-2.031.812-.313.344.563-.031 1.125 2.625-1 .062-.812 4.032-2.626 7.906-3.062.062 1.375 2.407-1.031v-1.313zm-22.906.344.406.281 1.719 1.219-4.375 2.688-1.906-1.407v-.437zm39.75 0s-3.706.605-7.844 1.469c-4.138.863-8.787 1.158-11.344 2.562-3.678 2.086-4.139 6.045-11.594 6.563a4.9 4.9 0 0 0-1.593 0c-1.423.21-2.03.596-3.125 1.375v.469l-.656-.469-1.532.062-5.281-3.437.281-.532-5.594-3-33.156 13.5.125 2.282 5.969 3.312.531.594 2.688 3.906c-5.589 3.555-8.01 6.158-9.531 8.063-1.527 1.912-2.846 2.771-4.907 3.656h.313c2.287-.982 3.455-1.363 4.937-3.219 1.457-1.825 3.977-4.826 9.344-8.281l.125.187 1.25.126 4.781 3 .375.874 1.344.969-.094 14.407c1.096.778 2.265 1.602 3.688 1.812 1.422.21 2.615-.196 4.468-1.781l-.25-7.907 2.594 1.657.906.031c1.878 1.672 3.522 3.616 5.5 5.188l.844-.063 2.219 1.469-.187 14.5c.72 1.239 2.545 1.726 3.906 2.218 1.422.208 2.459-.383 4.312-1.968l-.125-8.063 2.469 2.063.938-.25 6.937 6.5.906.031 6.875 5.035.25.93 1.938 1.53-.188 16.38c1.147.99 2.462 1.52 3.875 1.97 1.423.21 2.803-.35 4.657-1.94l-.469-13.22 23.471-9.966.03 9.816c2.62 2.91 5.81 2.65 8.78.4l-.37-13.779 4.68-2-.09-2.75-4.35-3.187.16-5.844c-4.83-3.144-6.49-1.098-8.9-.281l-2.29-2.063-1.37.094-7.626-5.156.218-.469-7.281-4.281-.062-1.063-3.813-2.093V59.75c-1.491-1.465-2.405-1.483-4.375-1.594-1.422.21-2.279.721-3.375 1.5v.032L75.469 58.5l-1.281.156-6.844-4.968-1.906.781-1.844-1.281-.032-6.876c-.694-.594-1.278-.981-1.812-1.218 5.934.026 5.44-3.158 10.906-6.282 2.297-1.261 7.269-2.112 11.375-2.968 4.107-.857 7.625-1.406 7.625-1.406zm-37.813.062 1.188.782v2l-.594-.438v-.906l-.625-.469zm5.188.032v.281l-2.25.937-.219-.187.125.469-.031 3.062-.063.032-.062-3.563h.031v-.031zm0 .344-.157 2.843-2.062 1.25.031-3.062zm-5 1.187.093 3.156h-.031l-1.969 1.188-.468-.313-1.875-1.406zm.406.937.594.469.031 2.407-.594-.594zm1.906.282-.031 2-.312.187v.157l-.407.156.063-2.219zm-8 .718 1.188.844-.063.75-1.156-.812zm1.313.938 1.812 1.312.063.782-1.938-1.344zm4.468.375.094 2.625-1.968-1.438zm.344.219.594.562v1.406l-.562-.25.562.407v1.812l-1.625-1.125v-.687l1.063.781v-1.188zm1.5.218-.031.407-.156.062.531.907-.75.312.031-1.562zm-12.718.344 4.874 2.5-31.437 13.188-5.5-2.594zm8.406.313 1.406 1 .156.781-1.531-1.062zm7.437.906-.031.406-1.906.844zm-11.125 1.969 5.282 3.312-20.969 9a5.6 5.6 0 0 0-1.125.063c-1.423.21-2.592.346-3.688 1.125v.906l-6.875 2.938-3.375-4.532zm11.875 1.875c.974-.022 2.094.382 3.5 1.531l-.062 7.031c-.017.024-.045.04-.063.063v.031c-1.246 1.629-4.405 2.258-6.687.469l-.125-7.594c1.007-.709 1.993-1.347 3.031-1.5q.2-.028.406-.031m-5 1.75 1.344.843.063 3.969-20.782 8.75.032-3.281c-.805-.689-1.461-1.107-2.063-1.344zm7.781.219c-1.868 1.475-3.231 1.4-5.187.124l-.25.25c2.185 2.169 3.816 2.173 5.625-.124zm-6.374 5.281.031 2.031c2.732 2.34 5.677 1.842 7.343-.375l1.5 1.031L32 69.344l-5.531-4.594.875-.375v.969c2.908 2.231 5.383 1.994 8-.438l.031-3.937zm-45.532.969 5.875 2.843-.187 1.907-5.469-3.157zM67.25 54.5l6.438 4.438-35.75 15.687-6.032-4.406zm-35.594 1.219c.974-.022 2.094.382 3.5 1.531l-.062 7.031c-1.145 2.015-5.006 3.288-7.438.813l.125-8.156c1.007-.709 2.431-1.035 3.469-1.188q.2-.028.406-.031m-14.718.843 2.906 4.376-.063 1.781-2.937-4.375zm11.75 1.376-.25.25c2.212 1.905 4.118 2.191 6.124.187l-.312-.25c-1.916 1.095-3.684 1.06-5.562-.187m-1.282.218-.062 5.5-.688.313-6-3zm53.375.313c.974-.022 2.094.382 3.5 1.531l-.062 7.031c-.775 1.906-3.552 2.821-6.75.563L77.344 60c1.007-.709 1.993-1.347 3.031-1.5q.2-.028.406-.031m-5.719.406 1.876 1.469.156 4.562L55.594 74v-2.688c-1.373-1.348-2.269-2.06-3.938-2.25zm8.438 2c-1.909 1.019-3.369 1.166-5.312.25l-.126.25c2.073 1.823 3.837 1.536 5.626-.25zm-63.25.531 6 2.813-.094 1.906-5.094-3.156-.906-.125zm6.312 4.188 5.344 4-.218.375-.282.593-4.937-3.5zm50.563.094.094 2.187c2.747 2.353 5.776 1.904 7.437-.344v-.75l3.688 1.813-35.469 14.718-6.813-4.437 1.563-.656.031 1.531c2.747 2.353 6.276 1.717 7.938-.531v-4.407zm-49.25 2.874 3.406 2.469-.093 1.094L35 74.594l.156 7.812c-1.607 1.315-2.836 2.096-3.906 1.938-1.04-.154-2.336-1.041-3.344-1.75zm60.031.813 7.282 4.594-37.032 14.656-5.312-4.469zm-36.718.063c1.069-.158 2.486.749 4.093 2.062l-.062 7.031c-1.119 2.17-4.652 3.407-7.063 1.063l-.062-8.344c1.007-.709 2.055-1.659 3.094-1.812m-2.657 1c-.356.272-.732.546-1.062.781l.125 6.187-2.656 1.125-5.626-4.093zm-16.75.437 6.125 4.25v.937l-2.594-1.687h-.031L31.625 72zm17.031.937-.124.126c1.77 2.654 3.723 2.847 5.874.062l-.5-.125c-1.522 1.707-3.433 1.122-5.25-.063m46.344 2.719 7.504 5.281-36.754 14.907-6.468-5.844zm-55.937.563 5.5 4.218-.157 1.969-5.406-5.187-.781-.032.156-.906zm6.406 4.125 6.687 4.469-.5 1.874-6.374-4.343c-.079-.113-.417-.106-.407-.219l.157-1.469zm-19.344.281c-1.449 1.11-1.99 2.492-1.312 4.375.819 1.497 2.672 2.589 4.625 2.969 2.013.391 3.999-.228 5.625-1.156 2.299-1.314 3.837-3.493 1.219-5.688h-.157c1.968 2.063.721 4.517-1.156 5.531-1.312.709-3.582 1.53-5.344 1.188-1.704-.332-3.928-1.868-4.531-2.969-.69-1.635.05-3.314 1.031-4.25m77.969.25 2.59 2.406.07 4.469-23.004 9.063.125-3.063c-1.491-1.465-3.092-1.858-5.062-1.969-1.332.568-2.788.762-3.907 1.969l.126 6.5L73 100l-6.094-5.125zm6.97.531c1.39.058 2.77.568 4 1.469l-.06 7.281c-1.01 1.94-4.9 2.992-7.91.313l-.03-7.782c1.21-.956 2.61-1.339 4-1.281m2.34 1.844c-1.52 1.707-3.18 2.06-5 .875v.125c2.23 2.895 3.57 1.732 5.28-.594zM47.625 83.25l4.313 2.875.093.937 3.063 2.563.062 7.719c-1.607 1.313-2.961 2.251-4.031 2.094-1.051-.156-2.417-1.031-3.437-1.75zm5 1.594 5.219 4.187-.032 2.125-5.25-4.437zm54.315 2.375.03 2.406c2.73 2.534 5.69 1.975 8.59-.125l.03-1.531 3.5 2.656-37.778 15.255-7.874-5.38 1.75-.688.031 1.188c2.722 2.52 5.645 1.99 8.5-.12l.156-4.442zm-48.471 2.062H59l6.625 5.907.094 2.374-6.875-6.468-.438-.063zm20.75 1.813c1.07-.158 2.549.718 4.156 2.031l-.156 7.375c-1.199 1.69-5.302 2.38-7.625.56l-.032-8.122c1.008-.709 2.618-1.691 3.657-1.844m40.441 0-.07 1.718-38.309 16.468.25-2.9zM81.812 93.5c-1.605 1.838-3.404 1.464-5.343.156l-.094.063c1.669 2.6 3.518 2.817 5.625.093zm-35.75.031c-1.649 1.182-2.177 2.789-2.062 4.75 1.122 3.229 4.632 3.539 7.625 3.629v-.22c-2.748.03-6.089-.91-7.437-3.378-.191-1.571.743-3.515 1.843-4.531zM66.5 95.344l6.375 5.066.281 2.25-6.75-5.004zm48.31.156.28 12.91c-2.49 2.67-5.28 2.67-7.56 0l-.12-9.754zm-55.872 1.938-.094.156c1.238 2.256.804 4.856-.063 5.996-.866 1.14-3.052 1.95-4.812 2.13-2.992.16-7.251-.77-9.375-2.97l-.094-.06c1.943 2.95 6.308 3.41 9.562 3.25 1.962-.2 3.865-.99 4.969-2.44s1.271-3.577-.093-6.062M73.5 101.25l7.406 4.87-.156 3.29-6.812-5.53zm42.38.81.15.1c1.3.59 1.6 1.69 1.5 3.06l.31.22c-.01-2.13-.17-2.79-1.96-3.38m-10.97 2.75c-1.2 2.87-.85 5.14.4 6.63s3.26 2.19 5.31 2.28c2.06.09 4.17-.43 5.63-1.53 1.46-1.11 2.2-2.92 1.41-5.03h-.04c.67 1.76-.35 4.08-1.56 5-1.2.91-3.34 1.42-5.18 1.34-1.85-.08-4.26-1.06-5.26-2.25-.99-1.19-1.63-3.73-.53-6.37zm-28.941 1.1 5 3.97 2.125-.91.25 12.53c-1.607 1.31-3.024 2.25-4.094 2.09-1.039-.15-2.367-1.19-3.375-1.9zm-2.219 10.5c-1.599 1.34-2.795 3.27-2.344 5.28.451 2 2.519 3.8 6.875 4.93h.157c-4.183-1.08-6.447-3.32-6.782-4.81s.705-3.99 2.125-5.19zm10.719.78-.031.25c1.853.21 2.817 1.29 3.124 2.5.308 1.2-.072 2.51-1.124 3.22l.031.06c1.431-.96 1.84-1.77 1.437-3.34-.402-1.58-1.227-2.44-3.437-2.69" style="fill-rule:evenodd;fill:#5c2700"/></svg>