<svg xmlns="http://www.w3.org/2000/svg" width="210mm" height="297mm" viewBox="0 0 744.094 1052.362"><g transform="translate(535 -89)"><path d="M-472.352 226.967s0 139.388 110.028 140.574c109.698-1.186 110.029-140.574 110.029-140.574z" style="color:#000;display:inline;overflow:visible;visibility:visible;opacity:1;fill:navy;fill-opacity:1;fill-rule:nonzero;stroke:#fff;stroke-width:2;stroke-linecap:round;stroke-linejoin:round;stroke-miterlimit:4;stroke-dasharray:none;stroke-dashoffset:0;stroke-opacity:1;marker:none"/><ellipse cx="-362.324" cy="226.077" rx="110.029" ry="38.258" style="color:#000;display:inline;overflow:visible;visibility:visible;opacity:1;fill:#fff;fill-opacity:1;fill-rule:nonzero;stroke:navy;stroke-width:1;stroke-linecap:round;stroke-linejoin:round;stroke-miterlimit:4;stroke-dasharray:none;stroke-dashoffset:0;stroke-opacity:1;marker:none"/><ellipse cx="-364.104" cy="224.594" rx="101.659" ry="32.03" style="color:#000;display:inline;overflow:visible;visibility:visible;opacity:1;fill:navy;fill-opacity:1;fill-rule:nonzero;stroke:none;stroke-width:.99999988;stroke-linecap:round;stroke-linejoin:round;stroke-miterlimit:4;stroke-dasharray:none;stroke-dashoffset:0;stroke-opacity:1;marker:none"/><path d="M-479.53 230.219c-16.976.269-41.313 10.538-41.46 40.343 0 23.864 46.465 51.213 75.273 51.9-6.211-10.76-10.73-20.244-14.115-28.982.797 2.42 1.61 4.873 2.603 7.745-10.932.358-43.982-17.5-43.982-34.7.144-10.963 26.907-13.918 33.4.205.351 1.249.641 2.27.967 3.428-2.87-13.065-4.008-25.407-5.951-39.469-2.033-.342-4.31-.509-6.735-.47" style="color:#000;display:inline;overflow:visible;visibility:visible;opacity:1;fill:navy;fill-opacity:1;fill-rule:nonzero;stroke:none;stroke-width:1;stroke-linecap:round;stroke-linejoin:round;stroke-miterlimit:4;stroke-dasharray:none;stroke-dashoffset:0;stroke-opacity:1;marker:none"/><path d="M-364.104 212.836a86.732 27.327 0 0 0-86.732 27.328 86.732 27.327 0 0 0 .129 1.154 101.659 32.03 0 0 0 86.603 15.305 101.659 32.03 0 0 0 86.55-15.303 86.732 27.327 0 0 0 .183-1.156 86.732 27.327 0 0 0-86.733-27.328" style="color:#000;display:inline;overflow:visible;visibility:visible;opacity:1;fill:#221a07;fill-opacity:1;fill-rule:nonzero;stroke:none;stroke-width:.99999988;stroke-linecap:round;stroke-linejoin:round;stroke-miterlimit:4;stroke-dasharray:none;stroke-dashoffset:0;stroke-opacity:1;marker:none"/></g></svg>