<svg xmlns="http://www.w3.org/2000/svg" xml:space="preserve" overflow="visible" viewBox="0 0 250.851 169.275"><g fill-rule="evenodd" clip-rule="evenodd"><path d="M231.85 10.853c.027-.973 1.224-.776 2-1-.02.972-1.22.776-2 1M232.85 23.853c.027-.973 1.224-.776 2-1-.02.972-1.22.776-2 1M236.85 25.853c1.547 1.453 2.099 3.9 2 7-3.8.801-1.27-4.728-2-7M201.85 29.853c1.282-2.794 3.991 1.227 5 2-.248 1.086-1.989.678-2 2-2.06-.275-.94-3.726-3-4M236.85 52.853c.247-1.258 1.987-1.009 2 0-.89.615-1.79 1.208-2 0M235.85 57.853c.58-4.012-.84 5.915 0 0M239.85 67.853c1.16-3.952 1.16 3.951 0 0M27.854 101.85c3.311 2.355 8.648 2.685 12 5-4.145 3.89-18.215 1.972-21-2 5.169 2.194 3.304-2.573 8-3l.5 1.5zM245.85 99.853c-8.41 3.177-9.76-5.764 0 0M42.854 103.85h2v2h-2zM248.85 103.85c1.78.732.144 1.817 0 3-1.78-.73-.14-1.82 0-3M230.85 104.85c2.318-.319 3.839.16 5 1 .18 1.63-6.54 2.02-5-1M121.85 113.85h3c.281 1.614-.945 1.721-1 3h-2zM221.85 123.85c-3.19 6.966-12.631.161-18 0 4.465-6.797 8.775-5.381 17-3l-.5 1.833 1.5 1.17zM158.85 124.85c4.217 1.782 10.369 1.63 15 3-2.22 4.113-10.026 2.641-14 5-2.627-.707-1.974-4.693-4-6l1.699-.7zM140.85 125.85c5.581.085 8.148 3.184 9 8-5.549.214-7.445-3.222-10-6l1.5-.5zM176.85 127.85c1.16-3.95 1.16 3.95 0 0M185.85 135.85c.027-.973 1.224-.776 2-1-.02.97-1.22.78-2 1M143.85 144.85v2l-1.5 1.166.5 1.834h-7c.445-3.221 1.526-5.807 6-5l1 .5zM151.35 155.35l1.5.5c2.168-.169.452 3.547 1 5-2.36-1.308-6.911-.423-9-2 .299-2.701 4.206-1.794 5-4zM198.85 142.85c8.319 1.137 16.113-2.971 23 0-5.061 5.031-16.175 5.991-24 2l1.5-.5zM64.854 150.85c1.025-2.231 6.695-.79 6 2-3.146.48-3.909-1.42-6-2M189.85 23.853c4.951.285 5.966-3.367 10-4l-.5 1.5 1.5.5c-.19.81-1.004.997-1 2l-.5 1 .5 1c-1.931 1.194-5.458 3.423-3 6h-1v1c-.151 1.849-3.387.614-4 2l-.5-1.5-.5 1.5c-2.507-.827-3.164-3.503-5-5l.5-1.5-.5-1.5c.353-1.313 1.76-1.573 2-3l1 .5zM245.07 7.496l-1.214 1.357c-.811-.19-.997-1.003-2-1l.5-2.5-2.5.5h-3l.499-1.5-1.499-.5c1.888-1.778 4.037-3.295 8-3 .83 2.502 2.739 3.927 3 7l-1.79-.357zM204.85 6.853v2c-1.23.437-2.055 1.279-2 3-1.735-1.599-2.166-4.501-2-8 1.793-.127 2.108 1.224 4 1zM247.07 54.21l1.786-.357c.409 2.409-1.827 2.173-1 5l-1.5-.5-.5 1.5c-2.424.642-3.747-4.764-2-5l1.5-.5-.5-1.5h1l1.21 1.357zM238.35 81.353l1.5-.5c-1.984 11.683-11.357 15.977-16 25-11.188 3.146-15.113 13.554-26 17l-1.301-1.301-1.699-.699c1.442-2.225 2.511-4.822 2-9l1.5-.5-.5-1.5c17.291-6.043 28.891-17.775 40-30l.5 1.503zM194.02 125.35l1.834-.5v1l-1.5 1.166.5 1.834h-3c.34-2.008-.205-3.129-2-3 .436-1.23 1.279-2.055 3-2l1.17 1.5zM185.35 108.35l.5 1.5h-2c.937 5.062 6.054 5.945 5 13-4.938 2.902-13.665-2.242-23-1-2.038-1.63-5.233-2.101-7-4-5.041 2.293-11.593 3.074-18 4l.499-1.5-1.499-.5c2.443-4.529-3.773-7.924-2-15l1.5.5.5-1.5h1l1.5.5 1.5-.5c6.133 3.104 20.497-4.392 22 5 4.292-1.548 6.16-5.605 12-3l-.5 1.5 1.5-.5c.247 1.257 1.987 1.008 2 0l1.5.5-.5-1.5c2.48-.147 4.853-.187 5 2zM134.35 69.353l-2.5.5h-3l-.5-2-.5-2c5 .63 17.097 3.386 19-2 1.085.247.678 1.988 2 2l-.5 1.5 1.5.5v1c.81.19.996 1.003 2 1 .189-.81 1.003-.997 1-2-.851.184-.944-.39-1-1l.5-1.5-1.5-.5c-.185-.851.39-.944 1-1l1.5 1.5 1.5-1.5c3.179 1.399 8.946 1.503 11-1h1v-1c.85-.184.942.39 1 1 3.562-.771 3.767-4.9 6-7l1.5.5 1.5-.5c3.374 3.062-1.807 9.672 1 12l-.5 1.5 1.5.5c-2.447 9.475-19.801-9.461-22 5l-1.5.5-.5 1.5c-2.005-1.711-8.107-1.457-9 1l-1-.5-1-.5h-2l-2.723-.445-2.277-1.555c.34-2.007-.205-3.129-2-3zm7.5 3.5c1.16 3.951 1.16-3.952 0 0M164.15 49.153l-1.3-1.3c-.182-5.182 4.945-5.054 8-7v7l-1.5-.5-.5 1.5c-1.48.52-2.521 1.479-4 2zM183.35 67.353l-1.5-.5c-.147-2.48-.187-4.853 2-5-3.524-4.593-6.011-12.878-5-19l-.5-1-.5-1c1.99.209 4.271-4.24 5-2-1.401.353-.087 1.76 1 2l.5 1.5 1.5-.5c-.693 2.364-2.312 8.945 0 11 2.92-2.893 1.098 1.68 1 4 5.422.422 1.414-8.586 5-10l1.5.5.5-1.5c.85-.184.942.39 1 1l-.5 1.5 1.5.5c-3.301 3.915 1.172 13.286-3 18-4.616-.616-5.755 2.245-10 2z"/><path d="M200.85 35.853v-1c2.094 3.239 5.722 4.944 6 10h2v1h1c-.694.807-1.557 2.739 0 3l-.5 1.5 1.5.5c2.686 8.968 11.904 10.944 12 20h9l-.5 1.5.5 1.5c-1.309 3.106-10.61 2.15-7 7l-1.5.5.5 1.5c.184.85-.391.943-1 1l-.5-1.5-1.5.5c-.891-.777-2.259-1.075-4-1-.827 2.826 1.409 2.59 1 5l-.5 1.5 1.5.5c-4.172 6.478-11.496 6.807-20 7-.128 1.793 1.224 2.108 1 4-.811.189-.997 1.003-2 1l-.5-1.5-1.5-.5c.086-5.754.216-11.55-1-16 5.043-4.67 10.77-2.518 16-7-6.052-1.583-19.613-1.708-23 5-3.631-.037-7.895.561-9-2 1.549-6.199 14.759-6.479 21-11-1.303-5.341 3.94-10.888 3-19-2.092-2.18-2.854.5-6 0l.5-1.5-.5-1.5c-1.093-5.425 2.38-6.287 3-10z"/><path d="m168.35 100.35.5 1.5c-1.42.085-2.832.165-3-1l-.5-1-.5-1c3.329-5.799.01-14.65 3-19l1.5.5 1.5-.5v2c4.427 2.239 13.185.148 17 3-.236 4.098-.49 8.176-2 11-3.371-1.964-7.774-2.893-13-3-1.028 2.305-3.442 3.224-3 7zM160.35 96.353l-.5 1.5c-5.362-2.189-12.255-14.69-5-20l.5 1.5 1.5.5c4.191 4.741 3.878 8.566 5 17zM174.85 18.853c3.05-2.729-2.73 3.042 0 0"/><g fill="none" stroke="#000" stroke-linecap="round"><path stroke-width="1.732" d="M212.35 13.853c2.173-.458 4.312-1.468 6.5-2"/><path stroke-width="1.57" d="M7.354 73.353c4.666 11.186 15.618 19.122 20 30"/><path stroke-width="1.97" d="m8.354 107.35-.01.995c10.106 7.582 27.51 6.952 40.51 5.505"/><path stroke-width="2.614" d="M224.35 109.85c-.667.06-1.334.275-2 .5"/><path stroke-width="2.28" d="M112.35 116.85c-11.432-.394-22.075-3.75-33-6.5"/><path stroke-width="1.708" d="m.854 115.35.048-.815c11.477.848 23.949 6.294 36.452 6.815"/><path stroke-width="1.789" d="M232.35 115.85c1.037.007 1.85.377 3 .5"/><path stroke-width="3.082" d="M220.35 122.69c1.95-.54 4.003-.25 6-.333"/><path stroke-width="1.887" d="M234.35 122.35c4.201.979 9.215.182 12.5 3.5"/><path stroke-width="2.019" d="M4.354 125.85c12.477 2.833 25.045 7.268 38 3.5"/><path stroke-width="3.055" d="M154.35 124.85c1.435.373 2.446.734 3.199 1.3"/><path stroke-width="2.047" d="M127.35 126.35c4.54 1.334 9.473-.415 14 1"/><path stroke-width="1.937" d="M60.354 137.35c-5.62-1.451-1.681-11.668-9.45-9.35q-.276.174-.55.35"/><path stroke-width="3.088" d="M168.35 135.35h7"/><path stroke-width="2.687" d="M151.35 155.35c.3-2.397-.562-5.336-3.009-6.277-2.021-.285-4.11-.089-5.991-1.057"/><path stroke-width="1.778" d="m142.85 145.35.146-.503c3.889-1.115 7.797-2.61 11.854-2.997"/><path stroke-width="2.09" d="M188.85 142.85c2.952 2.286 7.203-.021 10.5 1.5"/><path stroke-width="2.055" d="M41.021 149.69c6.42 3.455 12.776.703 19.833 1.167"/><path stroke-width="1.845" d="M174.85 157.85c5.957 3.221 18.033-2.853 20.049 5.791 8.692-1.729 14.396 4.134 22.451 4.709"/><path stroke-width="2.45" d="M208.35 19.353c1.412-.49 2.581-.389 3.5-.25"/><path stroke-width="1.661" d="M211.85 19.103c3.521-2.146 7.509-4.269 11.833-5.083"/><path stroke-width="1.414" d="M223.69 14.02c1.352-.677 2.233-1.398 3.667-1.667"/><path stroke-width="1.857" d="M223.69 14.02c4.863 6.143 16.816 3.516 24.167 6.083"/><path stroke-width="2.475" d="M247.85 20.103c1.104-4.301 1.419-9.822-2.786-12.607"/><path stroke-width="2.179" d="m239.85 7.853 2.5-2.5"/><path stroke-width="1.706" d="m205.35.853.502.147c1.098 1.838.244 4.292-1.002 5.853"/><path stroke-width="2.152" d="M204.85 6.853c10.634 1.265 21.559-3 32.499-2.5"/><path stroke-width="2.8" d="M247.85 20.103c.912 6.58 2.547 13.613.877 20.247-.373.275-1.212.923-2.044 1.669"/><path stroke-width="2.121" d="M246.69 42.02c.182.855.147 3.304.167 4.833"/><path stroke-width="3.233" d="M246.85 46.853c.744 2.312.632 4.967.214 7.357"/><path stroke-width="4.448" d="M208.78 131.78c2.846-.424 5.719-1.17 8.572-.428"/><path stroke-width="5.148" d="M208.78 131.78c-.31 1.049-.385 2.188-.5 2.929"/><path stroke-width="3" d="M208.28 134.71c.399 1.571 2.099 2.194 3.572 2.144"/><path stroke-width="2.933" d="M208.28 134.71c-1.464.401-2.638.543-3.928 1.144"/><path stroke-width="3.251" d="M208.78 131.78c-3.672-4.205-9.538-3.43-14.428-4.762"/><path stroke-width="3.033" d="M194.02 125.35c.755-1.97 1.619-2.689 2.533-3.801"/><path stroke-width="2.415" d="M198.35 111.35c-3.732-3.018-8.687-1.157-13-3"/><path stroke-width="1.977" d="M114.35 123.85c9.283.42 17.662-5.688 26.999-3.5"/><path stroke-width="2.416" d="M10.354 66.353c38.968-4.905 78.754-1.502 118 1.5"/><path stroke-width="2" d="M148.35 67.353c1.404-.642 2.536-1.359 4-2"/><path stroke-width="1.773" d="M150.35 61.353c.353-.916 1.889-1.619 3.5-2"/><path stroke-width="4.858" d="M153.85 59.353c2.021-4.881 6.863-6.614 10.3-10.2"/><path stroke-width="1.931" d="M169.35 53.353c.545-1.925.849-4.094 0-6"/><path stroke-width="3.229" d="M153.85 59.353c-.553 1.956-.503 3.987-.5 6"/><path stroke-width="1.254" d="M166.85 62.853c-.451-.883-.432-2.235-.5-3.5"/><path stroke-width="2.45" d="M175.35 56.353a24 24 0 0 1-.5-4"/><path stroke-width="2.16" d="M177.35 69.353c2.083-.683 4.368-.169 6-2"/><path stroke-width="1.972" d="M167.35 26.353c-.68-2.4-.764-5.198-.198-7.604 3.288-1.917 6.524-3.933 10.181-4.867 2.949 1.29 3.356 4.787 4.351 7.47"/><path stroke-width="1.852" d="M181.69 21.353c2.748-1.231 6.6-.269 7.167 3"/><path stroke-width="1.809" d="M167.35 26.353c-1.961 1.243-4.087 3.103-4.066 5.609.396.479.702.672 1.004.852.248.228.482.498.717.77 1.827.6 3.822-.031 5.679.436"/><path stroke-width="2.972" d="M170.69 34.02c3.687-1.472 8.143-1.258 12.066-3.067"/><path stroke-width="2.45" d="M182.75 30.953c.886-1.645 2.001-1.923 3.601-2.6"/><path stroke-width="1.304" d="M195.85 31.853c1.935 1.194 3.703 1.983 5 4"/><path stroke-width="1.37" d="M208.85 45.853c2.146-.755 4.31-3.863 3.5-6"/><path stroke-width="2.45" d="M220.35 39.353c-.443-1.134-.991-1.718-1.5-2.5"/><path stroke-width="2.125" d="M211.85 19.103c.913 3.866 3.23 7.232 2.261 11.292.387.593.867 1.038 1.352 1.475.967.001 1.801-.337 2.626-.788.412-1.161 1.702-1.49 3.262-2.729"/><path stroke-width="1.958" d="M221.35 28.353c.52-1.336.067-3.393-.5-4.5"/><path stroke-width="1.414" d="M221.35 28.353c.775 1.613 1.743 2.928 3.5 3.5"/><path stroke-width="1.508" d="M246.69 42.02c-8.505-2.596-17.759-.535-26.333-2.667"/><path stroke-width="1.645" d="M220.35 39.353c-2.417 1.092-2.985 3.814-4 6"/><path stroke-width="3.471" d="M167.35 26.353c5.105.399 11.113-.563 14.333-5"/><path stroke-width="2.068" d="M199.35 24.853c3.948.363 6.431-3.235 9-5.5"/><path stroke-width="2.402" d="m208.35 19.353-.869-1.133c-1.452-.501-2.796-.349-4.12-.217-1.093 1.024-2.242 2.26-4.011 3.351"/><path stroke-width="1.915" d="M185.35 40.353c-.321.471-.61 1.228-1 2"/><path stroke-width="2.035" d="M193.35 47.353c-.585-1.826-.514-3.087 0-4"/><path stroke-width="2.398" d="M194.35 48.353c1-.321 1.999-.61 3-1"/><path stroke-width="1.202" d="M191.35 39.353v-6"/><path stroke-width="2.864" d="M182.75 30.953c.425.917.874 1.885 1.101 2.9"/><path stroke-width="1.8" d="M170.69 34.02c1.61 3.121 3.526 8.089 7.667 7.833"/><path stroke-width="2.525" d="M231.35 72.353a24 24 0 0 1 4-.5"/><path stroke-width="2.121" d="M223.35 81.353c1.333.45 2.666.431 4 .5"/><path stroke-width="2.338" d="M222.35 82.353c-.699 1.675-.072 3.453.094 4.576-1.208 1.577-3.558.375-5.094 1.424"/><path stroke-width="1.995" d="M197.35 99.353c-8.435 4.592-20.336 5.171-29 1"/><path stroke-width="2.098" d="M165.35 99.853c-2.143-.011-4.066-1.633-5-3.5"/><path stroke-width="2.345" d="M155.35 79.353c.32-1 .609-2 1-3"/><path stroke-width="2.828" d="m156.35 76.353-1-1"/><path stroke-width="6.042" d="M140.85 85.853c.006 1.171.009 2.962-.072 3.928"/><path stroke-width="3.3" d="M140.78 89.781c1.699 1.514 1.751 3.995 1.405 6.072"/><path stroke-width="3.082" d="M142.19 95.853c.346 2.811.083 5.67.167 8.5"/><path stroke-width="1.254" d="M177.35 107.35c1.666-1.17 3.333-1.026 5 0"/><path stroke-width="1.813" d="M238.35 81.353c3.213-7.26 8.23-14.87 8-23"/><path stroke-width="2.039" d="M243.35 47.853c-8.804-1.856-18.03-1.434-27-2.5"/><path stroke-width="1.81" d="M216.35 45.353c-2.35 1.622-4.032 4.244-7 5"/><path stroke-width="2.031" d="M156.35 76.353c4.305 1.211 8.623 1.959 13 3"/><path stroke-width="3.037" d="M169.35 79.353a28 28 0 0 1 5-2"/><path stroke-width="3" d="M169.35 79.353v1"/><path stroke-width="3.136" d="M246.85 46.853c-1.351.321-2.382.61-3.5 1"/><path stroke-width="1.581" d="M243.35 47.853c-.053 2.294-.59 3.059-.329 3.985.717.319 1.33 1.37 2.329 2.515"/><path stroke-width="3.037" d="M134.35 69.353c-1.162 1.692-1.714 3.756-1.451 5.798 1.481 1.913 4.115 1.917 6.229 1.257"/><path stroke-width="3.028" d="M139.13 76.408c1.585 3.096-.972 6.836 1.723 9.445"/><path stroke-width="2.53" d="M140.85 85.853c2.808-2.014 3.196-5.481 4-8.5"/><path stroke-width="2.082" d="M138.52 95.853h3.667"/><path stroke-width="3.535" d="M140.78 89.781c-2.568.841-2.685 3.851-2.262 6.072"/><path stroke-width="2.463" d="M138.52 95.853c-1.342 3.051-.57 6.608.834 9.5"/><path stroke-width="1.174" d="M200.35 105.35a14 14 0 0 0 4-2"/><path stroke-width="1.414" d="M238.35 112.35c.753-.58 1.625-1.041 2-2"/></g></g></svg>