<svg xmlns="http://www.w3.org/2000/svg" width="715.51" height="715.51" viewBox="0 0 670.791 670.791"><path d="M541.393 821.328c-4.437 2.718-5.384 14.88-9.957 17.362s-15.287-3.355-19.984-1.116c-4.698 2.24-6.91 14.236-11.718 16.226-4.809 1.99-14.852-4.934-19.758-3.199s-8.36 13.436-13.35 14.912-14.255-6.46-19.315-5.246-9.719 12.488-14.836 13.435-13.501-7.915-18.66-7.237-10.971 11.404-16.16 11.81c-5.187.407-12.6-9.282-17.801-9.147-5.202.135-12.103 10.194-17.305 10.057s-11.56-10.549-16.748-10.959-13.103 8.874-18.262 8.193c-5.159-.68-10.394-11.699-15.51-12.649-5.117-.95-13.959 7.456-19.018 6.24s-9.115-12.722-14.104-14.202c-4.99-1.48-14.661 5.956-19.566 4.217-4.905-1.738-7.735-13.604-12.542-15.597s-15.203 4.39-19.9 2.149c-4.696-2.242-6.27-14.34-10.843-16.823-4.572-2.485-15.578 2.777-20.014.057-4.437-2.72-4.738-14.916-9.026-17.865s-15.783 1.134-19.91-2.035-3.153-15.33-7.11-18.71c-3.955-3.381-15.815-.522-19.589-4.106s-1.533-15.574-5.114-19.35-15.674-2.173-19.052-6.13c-3.379-3.959.103-15.65-3.064-19.78-3.166-4.13-15.36-3.799-18.307-8.088-2.946-4.29 1.739-15.554-.98-19.991-2.717-4.438-14.88-5.384-17.361-9.958-2.482-4.574 3.355-15.286 1.116-19.984s-14.236-6.91-16.226-11.718c-1.99-4.809 4.935-14.852 3.2-19.758-1.737-4.906-13.437-8.36-14.913-13.35s6.46-14.254 5.247-19.315c-1.214-5.06-12.489-9.719-13.435-14.836-.947-5.117 7.914-13.5 7.236-18.66s-11.403-10.971-11.81-16.16c-.407-5.187 9.282-12.599 9.147-17.801s-10.194-12.103-10.056-17.305c.137-5.202 10.548-11.56 10.958-16.748S38.119 505.06 38.8 499.9c.68-5.159 11.7-10.394 12.65-15.51.949-5.117-7.456-13.958-6.24-19.018s12.722-9.115 14.201-14.104c1.48-4.99-5.956-14.66-4.217-19.566 1.738-4.905 13.605-7.735 15.598-12.542 1.992-4.807-4.391-15.203-2.15-19.9s14.34-6.27 16.824-10.842-2.778-15.579-.057-20.015c2.72-4.437 14.915-4.738 17.864-9.026s-1.134-15.783 2.035-19.91 15.33-3.153 18.71-7.11c3.381-3.955.523-15.815 4.106-19.589s15.575-1.532 19.35-5.113 2.173-15.675 6.131-19.053 15.65.103 19.78-3.063c4.129-3.167 3.798-15.362 8.088-18.308s15.553 1.739 19.99-.979c4.438-2.718 5.385-14.88 9.959-17.362s15.286 3.355 19.983 1.116 6.91-14.236 11.719-16.226 14.851 4.935 19.757 3.2c4.906-1.736 8.36-13.436 13.35-14.913 4.99-1.476 14.255 6.46 19.315 5.247s9.719-12.488 14.836-13.435 13.501 7.914 18.66 7.237c5.16-.678 10.971-11.404 16.16-11.811 5.187-.407 12.6 9.282 17.801 9.148 5.203-.135 12.103-10.195 17.305-10.057s11.56 10.548 16.749 10.958c5.187.41 13.102-8.873 18.26-8.193 5.16.681 10.395 11.7 15.512 12.65 5.116.95 13.958-7.456 19.018-6.24s9.114 12.722 14.104 14.201 14.66-5.955 19.565-4.217 7.735 13.605 12.542 15.598c4.808 1.993 15.203-4.39 19.9-2.15 4.696 2.242 6.27 14.34 10.843 16.824 4.572 2.484 15.578-2.777 20.015-.057 4.436 2.72 4.737 14.916 9.025 17.864 4.288 2.95 15.783-1.133 19.911 2.036s3.152 15.329 7.108 18.71c3.957 3.38 15.816.522 19.59 4.105s1.533 15.575 5.114 19.35 15.674 2.173 19.053 6.131c3.378 3.958-.104 15.65 3.063 19.78 3.166 4.129 15.361 3.798 18.307 8.088 2.947 4.29-1.739 15.553.98 19.99 2.717 4.439 14.88 5.385 17.361 9.959 2.482 4.574-3.355 15.286-1.116 19.984 2.239 4.697 14.236 6.91 16.226 11.718s-4.935 14.851-3.199 19.757 13.436 8.36 14.912 13.35-6.46 14.255-5.246 19.315 12.488 9.72 13.435 14.836c.946 5.117-7.915 13.501-7.237 18.66s11.404 10.972 11.81 16.16-9.282 12.6-9.147 17.802 10.194 12.102 10.057 17.304-10.55 11.561-10.959 16.749c-.41 5.188 8.874 13.102 8.193 18.261-.68 5.16-11.7 10.395-12.65 15.511-.949 5.117 7.456 13.958 6.24 19.018s-12.722 9.115-14.201 14.104 5.956 14.66 4.217 19.565c-1.738 4.905-13.605 7.735-15.597 12.543-1.993 4.807 4.39 15.202 2.149 19.899-2.242 4.696-14.34 6.27-16.824 10.843-2.484 4.572 2.778 15.579.057 20.015s-14.915 4.737-17.864 9.025 1.134 15.784-2.035 19.911-15.33 3.153-18.71 7.109-.523 15.815-4.106 19.589-15.575 1.533-19.35 5.114-2.173 15.674-6.131 19.053c-3.958 3.378-15.65-.104-19.78 3.063-4.128 3.167-3.798 15.361-8.088 18.308s-15.553-1.74-19.99.978" style="fill:#d38d5f;fill-opacity:1;stroke:none;stroke-width:5;stroke-linecap:round;stroke-linejoin:miter;stroke-miterlimit:4;stroke-dasharray:none;stroke-opacity:1" transform="translate(-36.033 -208.395)"/><path d="M390.703 575.264 531.436 838.69 387.307 577.106 499.734 853.8 383.738 578.584l82.888 286.93-86.592-285.834 52.441 294.022-56.24-293.32 21.42 297.894-25.271-297.591-9.835 298.5 5.973-298.603L327.54 876.42l37.153-296.342-71.681 289.932 67.925-290.835-101.595 280.851 97.954-282.141L226.9 846.577 353.809 576.22 196.042 829.81 350.516 574.2l-183.41 235.71 180.346-238.062-207.045 215.247L344.65 569.188 116.24 761.614 342.143 566.25 94.87 733.747l245.085-170.682L76.53 703.798 338.113 559.67 61.419 672.096 336.636 556.1l-286.93 82.888 285.834-86.592-294.022 52.441 293.319-56.24-297.893 21.421 297.59-25.272-298.5-9.835 298.603 5.974L38.8 499.902l296.342 37.153L45.21 465.373l290.835 67.926L55.194 431.703l282.142 97.955L68.643 399.262 339 526.172 85.409 368.403l255.61 154.474-235.71-183.41 238.063 180.346L128.124 312.77l217.908 204.243-192.427-228.41L348.97 514.505 181.473 267.232l170.681 245.085-140.732-263.426L355.55 510.475 243.124 233.781l115.995 275.217-82.888-286.93 86.592 285.834-52.441-294.022 56.24 293.319-21.42-297.893 25.271 297.59 9.835-298.5L374.335 507l40.983-295.837-37.153 296.342 71.682-289.932-67.926 290.835 101.595-280.85-97.954 282.14 130.396-268.692-126.91 270.357 157.768-253.591L392.34 513.38l183.411-235.71-180.347 238.063L602.45 300.486 398.207 518.394l228.41-192.427-225.902 195.365 247.272-167.497-245.085 170.681 263.426-140.732-261.584 144.128 276.694-112.426L406.222 531.48l286.93-82.888-285.834 86.593 294.022-52.442-293.32 56.24 297.893-21.42-297.59 25.271 298.5 9.835-298.603-5.973 295.837 40.983-296.342-37.153 289.932 71.682-290.835-67.926 280.851 101.595-282.142-97.954L674.215 688.32 403.857 561.41l253.591 157.768-255.61-154.474 235.71 183.41-238.063-180.346 215.248 207.044-217.908-204.243 192.427 228.41-195.365-225.902L561.384 820.35Z" style="fill:#c87137;fill-opacity:1;stroke:none;stroke-width:5;stroke-linecap:round;stroke-linejoin:miter;stroke-miterlimit:4;stroke-dasharray:none;stroke-opacity:1" transform="translate(-36.033 -208.395)"/><path d="m-382.288 605.396 133.724 251.982-138.354-249.47 106.652 264.58-111.52-262.565 78.412 274.278-83.463-272.783 49.312 280.971-54.492-280.013 19.673 284.587-24.925-284.175-10.182 285.084 4.916-285.224-39.926 282.459 34.704-283.148-69.232 276.738 64.11-277.969-97.78 267.985 92.815-269.745L-553.1 865.264l120.502-258.565-151.36 241.799 146.87-244.553-175.807 224.653 171.628-227.86-198.326 205.045 194.506-208.673-218.672 183.192 215.252-187.199-236.623 159.33 233.64-163.672-251.981 133.724 249.47-138.354-264.58 106.652 262.565-111.52-274.278 78.412 272.783-83.463-280.971 49.313 280.012-54.492-284.586 19.672 284.175-24.924-285.084-10.183 285.223 4.917-282.458-39.926 283.147 34.703-276.737-69.232 277.968 64.11-267.984-97.78 269.744 92.815-256.295-125.256 258.565 120.502-241.8-151.36 244.553 146.87-224.653-175.806 227.861 171.627-205.045-198.325 208.672 194.505-183.19-218.672 187.197 215.252-159.33-236.623 163.672 233.64-133.723-251.98 138.353 249.469-106.651-264.58 111.519 262.565-78.412-274.278 83.463 272.783-49.312-280.971 54.492 280.013-19.673-284.587 24.925 284.175 10.182-285.084-4.916 285.224 39.926-282.458-34.704 283.147 69.233-276.738-64.11 277.969 97.78-267.985-92.816 269.745 125.257-256.296-120.503 258.565 151.36-241.799-146.87 244.553 175.807-224.653-171.628 227.86 198.326-205.045-194.506 208.673 218.673-183.191-215.253 187.198 236.623-159.33-233.64 163.672 251.981-133.724-249.469 138.354 264.579-106.652-262.565 111.52 274.278-78.412-272.783 83.463L-78.66 501.43l-280.013 54.493 284.586-19.673-284.175 24.924 285.085 10.183-285.224-4.917 282.458 39.926-283.147-34.703 276.737 69.232-277.968-64.11 267.984 97.78-269.744-92.815 256.296 125.256-258.565-120.502 241.798 151.36-244.552-146.87 224.653 175.806-227.861-171.627 205.045 198.325-208.672-194.505 183.191 218.672-187.198-215.252 159.33 236.623z" style="fill:#deaa87;fill-opacity:1;stroke:none;stroke-width:5;stroke-linecap:round;stroke-linejoin:miter;stroke-miterlimit:4;stroke-dasharray:none;stroke-opacity:1" transform="scale(.90924)rotate(8.587 1269.502 5643.227)"/><path d="M591.429 517.98c0 60.752-65.34 72.18-105.151 111.993-39.812 39.812 2.11 146.612-112.83 141.663-100-4.305-64.2-88.994-104.011-128.806-39.813-39.812-118.008-64.098-118.008-124.85 0-60.75 24.624-115.75 64.436-155.563s94.812 24.135 155.564 24.135c60.75 0 115.75-63.947 155.563-24.135s64.437 94.812 64.437 155.564" style="fill:#dea37a;fill-opacity:1;stroke:none;stroke-width:5;stroke-linecap:round;stroke-linejoin:miter;stroke-miterlimit:4;stroke-dasharray:none;stroke-opacity:1" transform="translate(-36.033 -208.395)"/><g transform="translate(409.942 -300.56)"><ellipse cx="-130.35" cy="736.196" rx="62.103" ry="65.267" style="fill:#a05a2c;fill-opacity:1;stroke:none;stroke-width:5;stroke-linecap:round;stroke-linejoin:miter;stroke-miterlimit:4;stroke-dasharray:none;stroke-opacity:1"/><ellipse cx="-135.958" cy="733.431" rx="66.775" ry="66.53" style="fill:#deaa87;fill-opacity:1;stroke:none;stroke-width:5;stroke-linecap:round;stroke-linejoin:miter;stroke-miterlimit:4;stroke-dasharray:none;stroke-opacity:1"/><path d="m-156.796 706.46-134.35-59.598M-165.888 728.684l-123.238 11.112M-161.788 756.594l-86.873 47.478M-137.604 778.182l-59.599 85.862" style="fill:none;fill-rule:evenodd;stroke:#000;stroke-width:3;stroke-linecap:butt;stroke-linejoin:miter;stroke-miterlimit:4;stroke-dasharray:none;stroke-opacity:1"/><circle cx="-171.478" cy="715.347" r="2.525" style="fill:#000;fill-opacity:1;stroke:none;stroke-width:3;stroke-linecap:round;stroke-linejoin:miter;stroke-miterlimit:4;stroke-dasharray:none;stroke-opacity:1"/><circle cx="-150.809" cy="693.187" r="2.525" style="fill:#000;fill-opacity:1;stroke:none;stroke-width:3;stroke-linecap:round;stroke-linejoin:miter;stroke-miterlimit:4;stroke-dasharray:none;stroke-opacity:1"/><circle cx="-171.77" cy="742.179" r="2.525" style="fill:#000;fill-opacity:1;stroke:none;stroke-width:3;stroke-linecap:round;stroke-linejoin:miter;stroke-miterlimit:4;stroke-dasharray:none;stroke-opacity:1"/><circle cx="-151.192" cy="720.631" r="2.525" style="fill:#000;fill-opacity:1;stroke:none;stroke-width:3;stroke-linecap:round;stroke-linejoin:miter;stroke-miterlimit:4;stroke-dasharray:none;stroke-opacity:1"/><circle cx="-150.69" cy="769.96" r="2.525" style="fill:#000;fill-opacity:1;stroke:none;stroke-width:3;stroke-linecap:round;stroke-linejoin:miter;stroke-miterlimit:4;stroke-dasharray:none;stroke-opacity:1"/><circle cx="-149.179" cy="744.925" r="2.525" style="fill:#000;fill-opacity:1;stroke:none;stroke-width:3;stroke-linecap:round;stroke-linejoin:miter;stroke-miterlimit:4;stroke-dasharray:none;stroke-opacity:1"/><circle cx="-129.351" cy="765.496" r="2.525" style="fill:#000;fill-opacity:1;stroke:none;stroke-width:3;stroke-linecap:round;stroke-linejoin:miter;stroke-miterlimit:4;stroke-dasharray:none;stroke-opacity:1"/><circle cx="-118.219" cy="782.518" r="2.525" style="fill:#000;fill-opacity:1;stroke:none;stroke-width:3;stroke-linecap:round;stroke-linejoin:miter;stroke-miterlimit:4;stroke-dasharray:none;stroke-opacity:1"/><path d="m-165.888 728.684-123.238 11.112" style="fill:none;fill-rule:evenodd;stroke:#000;stroke-width:3;stroke-linecap:butt;stroke-linejoin:miter;stroke-miterlimit:4;stroke-dasharray:none;stroke-opacity:1"/></g><g transform="matrix(-1 0 0 1 272.397 -300.56)"><ellipse cx="-130.35" cy="736.196" rx="62.103" ry="65.267" style="fill:#a05a2c;fill-opacity:1;stroke:none;stroke-width:5;stroke-linecap:round;stroke-linejoin:miter;stroke-miterlimit:4;stroke-dasharray:none;stroke-opacity:1"/><ellipse cx="-135.958" cy="733.431" rx="66.775" ry="66.53" style="fill:#deaa87;fill-opacity:1;stroke:none;stroke-width:5;stroke-linecap:round;stroke-linejoin:miter;stroke-miterlimit:4;stroke-dasharray:none;stroke-opacity:1"/><path d="m-156.796 706.46-134.35-59.598M-165.888 728.684l-123.238 11.112M-161.788 756.594l-86.873 47.478M-137.604 778.182l-59.599 85.862" style="fill:none;fill-rule:evenodd;stroke:#000;stroke-width:3;stroke-linecap:butt;stroke-linejoin:miter;stroke-miterlimit:4;stroke-dasharray:none;stroke-opacity:1"/><circle cx="-171.478" cy="715.347" r="2.525" style="fill:#000;fill-opacity:1;stroke:none;stroke-width:3;stroke-linecap:round;stroke-linejoin:miter;stroke-miterlimit:4;stroke-dasharray:none;stroke-opacity:1"/><circle cx="-150.809" cy="693.187" r="2.525" style="fill:#000;fill-opacity:1;stroke:none;stroke-width:3;stroke-linecap:round;stroke-linejoin:miter;stroke-miterlimit:4;stroke-dasharray:none;stroke-opacity:1"/><circle cx="-171.77" cy="742.179" r="2.525" style="fill:#000;fill-opacity:1;stroke:none;stroke-width:3;stroke-linecap:round;stroke-linejoin:miter;stroke-miterlimit:4;stroke-dasharray:none;stroke-opacity:1"/><circle cx="-151.192" cy="720.631" r="2.525" style="fill:#000;fill-opacity:1;stroke:none;stroke-width:3;stroke-linecap:round;stroke-linejoin:miter;stroke-miterlimit:4;stroke-dasharray:none;stroke-opacity:1"/><circle cx="-150.69" cy="769.96" r="2.525" style="fill:#000;fill-opacity:1;stroke:none;stroke-width:3;stroke-linecap:round;stroke-linejoin:miter;stroke-miterlimit:4;stroke-dasharray:none;stroke-opacity:1"/><circle cx="-149.179" cy="744.925" r="2.525" style="fill:#000;fill-opacity:1;stroke:none;stroke-width:3;stroke-linecap:round;stroke-linejoin:miter;stroke-miterlimit:4;stroke-dasharray:none;stroke-opacity:1"/><circle cx="-129.351" cy="765.496" r="2.525" style="fill:#000;fill-opacity:1;stroke:none;stroke-width:3;stroke-linecap:round;stroke-linejoin:miter;stroke-miterlimit:4;stroke-dasharray:none;stroke-opacity:1"/><circle cx="-118.219" cy="782.518" r="2.525" style="fill:#000;fill-opacity:1;stroke:none;stroke-width:3;stroke-linecap:round;stroke-linejoin:miter;stroke-miterlimit:4;stroke-dasharray:none;stroke-opacity:1"/><path d="m-165.888 728.684-123.238 11.112" style="fill:none;fill-rule:evenodd;stroke:#000;stroke-width:3;stroke-linecap:butt;stroke-linejoin:miter;stroke-miterlimit:4;stroke-dasharray:none;stroke-opacity:1"/></g><path d="M-426.142 496.183c0 14.59-3.079 65.864-37.234 65.864-17.915 0-65.806-29.488-65.806-65.864 0-36.375 23.067-65.863 51.52-65.863s51.52 29.488 51.52 65.863" style="fill:#fff;fill-opacity:1;stroke:none;stroke-width:3;stroke-linecap:round;stroke-linejoin:miter;stroke-miterlimit:4;stroke-dasharray:none;stroke-opacity:1" transform="translate(716.57 -233.777)"/><g style="fill:#000"><path d="M-426.142 496.183c0 14.59-3.079 65.864-37.234 65.864-17.915 0-65.806-29.488-65.806-65.864 0-36.375 23.067-65.863 51.52-65.863s51.52 29.488 51.52 65.863" style="fill:#000;fill-opacity:1;stroke:none;stroke-width:3;stroke-linecap:round;stroke-linejoin:miter;stroke-miterlimit:4;stroke-dasharray:none;stroke-opacity:1" transform="matrix(.47845 0 0 .47845 477.044 47.229)"/></g><path d="M-426.142 496.183c0 14.59-3.079 65.864-37.234 65.864-17.915 0-65.806-29.488-65.806-65.864 0-36.375 23.067-65.863 51.52-65.863s51.52 29.488 51.52 65.863" style="fill:#fff;fill-opacity:1;stroke:none;stroke-width:3;stroke-linecap:round;stroke-linejoin:miter;stroke-miterlimit:4;stroke-dasharray:none;stroke-opacity:1" transform="matrix(-1 0 0 1 -34.702 -233.777)"/><g style="fill:#000"><path d="M-426.142 496.183c0 14.59-3.079 65.864-37.234 65.864-17.915 0-65.806-29.488-65.806-65.864 0-36.375 23.067-65.863 51.52-65.863s51.52 29.488 51.52 65.863" style="fill:#000;fill-opacity:1;stroke:none;stroke-width:3;stroke-linecap:round;stroke-linejoin:miter;stroke-miterlimit:4;stroke-dasharray:none;stroke-opacity:1" transform="matrix(-.47845 0 0 .47845 204.824 47.229)"/></g><path d="M427.157 588.827c-45 0-40 50-50 50s-5-50-53.036-50c-31.964 0 23.036-50 53.036-50s80 50 50 50" style="fill:#000;fill-opacity:1;stroke:none;stroke-width:5;stroke-linecap:round;stroke-linejoin:miter;stroke-miterlimit:4;stroke-dasharray:none;stroke-opacity:1" transform="translate(-36.033 -208.395)"/><path d="M235.735 322.871c-36.742 1.55-47.325 43.427-64.257 38.572-18.685-5.357-17.058-13.748-16.313-33.215.587-15.365-5.007-35.63 31.892-35.272 17.613.17 68.14 29.094 48.678 29.915M507.73 325.728c36.742 1.55 47.325 43.427 64.256 38.572 18.685-5.357 17.058-13.748 16.314-33.215-.588-15.365 5.007-35.63-31.892-35.272-17.613.17-68.142 29.094-48.678 29.915" style="fill:#dea37a;fill-opacity:1;stroke:none;stroke-width:3;stroke-linecap:round;stroke-linejoin:miter;stroke-miterlimit:4;stroke-dasharray:none;stroke-opacity:1" transform="translate(-36.033 -208.395)"/><path d="M377.214 585.464v50.8" style="fill:none;fill-rule:evenodd;stroke:#101010;stroke-width:3;stroke-linecap:round;stroke-linejoin:miter;stroke-miterlimit:4;stroke-dasharray:none;stroke-opacity:1" transform="translate(-36.033 -208.395)"/></svg>