<svg xmlns="http://www.w3.org/2000/svg" version="1.0" viewBox="0 0 670.59 684"><defs><linearGradient id="a" x1="283.19" x2="283.19" y1="-1574.4" y2="-1807.7" gradientTransform="matrix(.94571 0 0 1.9663 98.407 3795.2)" gradientUnits="userSpaceOnUse"><stop offset="0" style="stop-color:#3771c8"/><stop offset=".5" style="stop-color:#56b0ff"/><stop offset="1" style="stop-color:#cff0ff"/></linearGradient><linearGradient id="e" x1="349.12" x2="348.09" y1="866.72" y2="846.91" gradientTransform="translate(179.67 -386.36)scale(.93026)" gradientUnits="userSpaceOnUse"><stop offset="0" style="stop-color:gray"/><stop offset="1" style="stop-color:#fff"/></linearGradient><radialGradient id="d" cx="289.25" cy="714.31" r="41.925" gradientTransform="matrix(.7709 .1612 -.56051 2.6805 639.53 -1677)" gradientUnits="userSpaceOnUse"><stop offset="0" style="stop-color:#fff"/><stop offset=".5" style="stop-color:#ebebeb"/><stop offset="1" style="stop-color:#b3b3b3"/></radialGradient><clipPath id="c"><path d="M-346.64 823.56a71.761 72.37 0 0 1 72.44-71.62l-.68 72.37z" style="color:#000;fill-rule:evenodd;fill:#ffe680" transform="matrix(1.2069 -.00125 -.00125 1.2814 57.905 -232.44)"/></clipPath><filter id="b" width="1.282" height="1.287" x="-.141" y="-.143"><feGaussianBlur stdDeviation="5.144"/></filter></defs><g transform="translate(-30.926 -15.442)"><rect width="670.59" height="684" x="30.926" y="15.442" ry="0" style="color:#000;fill-rule:evenodd;fill:url(#a)"/><path d="M-346.64 823.56a71.761 72.37 0 0 1 72.44-71.62l-.68 72.37z" clip-path="url(#c)" style="color:#000;fill-rule:evenodd;filter:url(#b);fill:#ffe680" transform="scale(1.3719 -1.3719)rotate(89.037 298.448 557.733)"/><path d="M53.886 372.8c7.084.64 14.407 1.29 18.914 1.95 1.476.21 3.027.38 4.646.48-.182 0-.355-.02-.54-.03-10.414-.36-29.452-1.19-45.562-1.49-2.532 1.35-4.256 4.07-4.256 7.18v3.23c5.393.32 6.979.72 8.963.97-3.273.32-6.153.78-8.963 1.28v8.91c7.915.71 16.298 1.31 24.4 1.37 19.328.14-.18-1.15 18.314-1.43 10.856-.16 26.61-.45 39.448-.85-5.19 1.01-1.23 3.16 5.6 4.01 1.54.2 3.51.27 5.76.31-8.47.66-15.19 1.68-24.52 2.34-.781.06-1.586.08-2.368.12-.009-.01-.023-.01-.03-.03-.274-.67 15.728-2.51 8.038-3.07-7.698-.56-28.716.74-37.503.36-8.787-.37-.436-1.31-11.421-1.52-8.514-.16-17.852.64-25.718 1.25v3.16c2.906.51 6.154.97 9.052 1.19 6.615.5-1.977-.13 5.935.43 5.545.39 14.881.81 23.411.97 3.594 1.26 11.767 2.64 16.516 3.5 7.129 1.28-15.234.8-.629 1.82 14.604 1.03 6.698.88 26.197 1.16 19.5.28 56.36 1.92 68.91.76 12.56-1.17 6.57-3.56 10.07-4.96 1.17-.46 1.93-.81 2.22-1.09 4.56.67 11.2 1.23 19.82 1.37 12.96.2 24.98.29 36.72.15-.82.13-1.01.26-.36.42 5.06 1.27 6.55 2.52 19.6 3.38 8.22.54 18.9 1.06 29.4 1.49-.29.13-.15.27-.62.55-1.03.6-11.09.5-8.16 1.03 2.94.54-4 1.95-.75 2.65.15.03.33.03.51.06-1.07.13-1.89.25-2.01.36-.69.71 9.31.34 11.42 1.07 2.12.73-.48 1.37 6.3 1.95 6.78.57 38.81-.18 47.6-.37 5.92-.12 7.84.24 9.95.27 1.98.59 11.22.62 17.6 1.19 7.29.66 7.74.89 19.06 1.19 11.32.29 14.41.33 23.77.21s2.02-1.25 5.13-2.04c3.1-.79 5.52-2.08.81-2.92-1.7-.3.06-.58 2.54-.79 4.59.1 9.61.24 14.3.27.61.06 1.64.16 3.3.34 2.45.27 4.01.74 5.36 1.28-9.65.31-27.44.15-14.2.3 4.46.05 9.89.17 15.73.34 2.62 1.18 5.25 2.47 13.4 2.86 2.3.1 4.34.16 6.24.18 2.78.44 5 .95.75 1.43-3.03.34-6.95.77-10.7 1.24-.66-.06-1.32-.14-1.98-.21-11.88-1.3-16.61.42-31.57-.15-14.95-.57-27.94-.08-43.28.55-15.34.62-10.78 3.79-20.23 5.26-9.46 1.47-2.16 1.64 9.59 2.89s18.29.75 36.99 1.25c9.89.26 7.9.75 6.2 1.24-1.64-.08-3.41-.15-5.36-.24-20.64-.89-36.94-2.23-57.26-1.67-20.31.55-32.4 2.44-46.52 3.71-14.11 1.27-15.56-.12-25.27 1.82-1.78.36-2.42.66-2.24.92-1.07-.54-1.46-1.06-.42-1.52 4.63-2.07 41.56-.84 25.92-2.35-15.63-1.5-32.77-.14-58.03-.85-15.69-.44-24.87-.84-34.56-1 10.98-.93 21.87-2.15 30.94-2.34 15.19-.33 53.67 2.92 54.91 1.27 1.25-1.65 6.39-4.57 1.8-5.87-2.87-.81-5.72-1.62-10.55-2.34.23-.23.57-.48 3.18-.3 5.47.36 17.2 1.19 25.38.97s2.58.58 10.83.39c8.24-.18 11.97-2.05 11.63-2.73-.34-.69-3.35-.25-3.33-1.04.02-.78-1.85-1.45-10.28-1.64-8.44-.19-17.92-.96-25.84-.58s-.72.93-6.63 1.43c-5.91.51-9.22.88-7.64 1.52.98.4-1.57.88-2.34 1.34-1.83-.19-3.9-.35-6.23-.52-12.74-.91-35.46.73-50.69.28-15.23-.46 1.34-2.48-15.83-1.95-17.16.53-28.87.59-39.08 1.98s-28.48 2.69-25.24 4.07c3.24 1.39 33.13 1.62 39.65 3.08 4.43.99-3.48 2.42-3.65 3.28-14.67.7-22.42 2.49-27.76 4.35-2.85 1-9.85.72-17.21.28-8.75-1.29-37.88-.83-50.803-1.4-13.243-.59-7.811-2.95-21.942-2.25-14.131.69-3.964-.42-14.058.76-4.612.53-15.221.82-25.389 1.12v3.77c3.539.18 6.836.36 9.352.58 6.485.56-3.469 1.72-9.352 2.74v1.61c10.754.55 29.317-1.8 42.654-1.91 14.064-.12 31.868 2.41 37.738 1.3 5.87-1.1-6.88-1.31 1.95-2.7 3.99-.64 12.22-1.14 19.3-1.62 9.67.75 22.8 1.45 30.19 2.38 13.76 1.73 18.87 3.74 40.58 3.68 21.72-.07 25.13-2.1 51.38-1.92 26.26.18 22.75 1.94 35.31.09 9.12-1.34-.72-3.31-5.03-5.08 3.48.91 16.69 1.39 17.74 2.74 1.45 1.86-4.28 3.96 12.08 4.84 16.36.87 22.12 1.63 40.5 1.21s58.43 1.48 74.63.34c16.21-1.15 4.31-2.1 15.38-3.59 11.07-1.5 23.96-5.52 7.97-7.09-6.9-.68-11.04-1.26-15.19-1.79 17.5.46 41.14.77 50.6-.1 12.01-1.09 8.31-.75 18.13-2.19 7.86-1.15-10.87-3.81-18.43-5.71 2.3.04 4.63.07 6.95.12 16.39.34.4 3.38 16.85 2.98 16.44-.4 19.41-1.58 31.08-2.68s46.03-.84 52.16-2.1c6.12-1.26-3.69-2.07-13.91-3.19-10.22-1.13-23.48-2.04-33.84-3.04s-26.69-.33-42.69-.4c-4.18-.02-7.37-.05-10.04-.09 1.05-.11 2.14-.2 3.3-.3.77-.07 1.65-.14 2.58-.19 4.28.06 8.34.09 11.72.03 18.61-.29 4.87-.17 21.28-.48 16.4-.32 8.8-.5 16.57-1.8 6.73-1.12 5.32-1.64 4.47-2.58.72-.24 1.34-.48 1.74-.7 7.31.31 14.73.63 18.37 1.03 9.89 1.09 4.3 1.03 15.35 1.8s-12.86 2.55 3.39 1.97c2.26-.08 5.03-.14 8.03-.15-8.28.8-22.32 2.21-19.66 3.01 2.98.9 18.44-.12 23.95.61s10.29 1.19 20.77 1.34 4.16 1.27 14.27.88 26.03-.66 30.81-1.34c4.79-.68-14.03-2.15-14.75-3.01-.71-.86 16.7-1.1 7.77-1.67-1.15-.08-2.01-.13-3-.18 7.84-1.35 11.97-4.27 14.36-5.33 2.67-1.19 19.83-1.7 17.23-3.16-2.59-1.46-19.88 2.13-31.83 1.06-11.95-1.06-45.51-3.48-61.69-3.59h-1.47c-14.13.03-5.17 2.07-14.47 2.89-7.35.65-23.54.86-35.67 1.43-7.11-.65-17.79-1.16-28.66-1.46-.9-.02-1.68-.04-2.49-.06-1.32-.45-2.72-.77-10.58-.55-7.28.21-11.49.76-15.56 1.37-12.31.33-36.44-1.01-45.77.16-1.54.19-2.54.42-3.21.66-8.1-.38-17.72-1.11-24.9-1-8.72.14-10.51 1.67-16.07 2.16s-14.54-.98-14.03-.24c.49.71 3.52 1.13 5.13 1.76-7.77.1-15.16.63-23.41.82-1.92-.31-4.51-.56-7.83-.79-7.25-.49 4.49-1.07-6.62-1.03-2.59.01-5.63-.1-8.84-.25-1.44-.26-3.87-.49-7.38-.66a22 22 0 0 1-1.32-.1c13.8-.63 30.25-1.68 41.16-2.13 15.64-.64-1.22-1.09 2.82-2.09 4.03-1-1.18-2.89-6.78-3.84-.26-.04-.42-.08-.6-.12-1.06 0-3.03-.05-6.47-.21-12.64-.58-42.44-1.6-61.72-1.8-.44-.79 5.46-1.89 8.69-2.86 1.89.37 4.37.67 7.73.83 15.75.71 6.86-.58 20.57-1.53s50.67-1.6 55.9-2.76c5.23-1.17-2.12-1.1 4.83-2.38 6.94-1.28-11.21-2.49-20.63-3.71-.58-.07-1.06-.15-1.43-.21-.84.01-1.89.03-3.21.03-13.4.02-49.36-.74-67.51-.34.32-.43.11-.88.36-1.24.58-.84 7.74-2.5-1.97-3.11-9.72-.6-.28.59-10.02.31-9.73-.28-19.19-.97-29.61-.52-10.43.46-19.98-.44-30.43 0-4.3.18-8.26.53-11.21.95-2.94-.89-18.4-.53-19.72-1.5-1.35-.98-8.84-.72-18.64-1.15s-13.89-.57-25.69.03c-11.81.6-3.69-.69-12.38.06-8.7.74-26.95 1.59-26.86 2.43s18.63 2.41 25.39 3.14c6.75.72-18.85.2-8.72.7 10.13.49 38.54.12 52.72.21s7.77-.24 18.68-.88c4.74-.28 8.72-.67 11.51-1.13 4.29.78 18.28 1.33 25.84 1.83 7.91.52-9.99 1.17.15 1.46 10.13.28 35.3-1.07 45.5-1.4 3.45-.12 4.78.08 5.33.33-3.6.35-1.2.53.57.73.15.15.47.27 1.38.28.16.14-.77.28-4.14.51-12.55.85-13.4 1.66-15.85 2.89-2.46 1.24 13.75-.54 20.41.55 3.04.5 3.98 1.53 5.58 2.56-11.8-.42-33.86.2-44.73-.52-13.04-.87-11.6-2.37-26.94-2.34-8.3.01-12.57.51-16.58 1.09.04-.71-.62-1.43-4.89-1.88-7.81-.84 14.01-2.57 1.38-2.77s-41-.11-52.78.33c-11.79.45-4.85 2.07-16.04 2.53-7.07.29-15.55-.18-22.69-.34 3.5-.17 6.26-.36 7.97-.58 8.19-1.02 3.41-.49-1.29-1.85-4.69-1.36-6.82-2.51-17.56-3.38-10.739-.86-15.329-.98-27.728-1.7-10.325-.6-15.351-1.26-27.457-1.58 14.749-.31 31.309.28 43.793-.25 14.762-.62 6.162-4.18 2.942-5.56-3.231-1.39 11.48.64 4.34-.67-6.434-1.19-12.356-2.33-24.967-2.95 10.237.23 22.507-.79 34.347.33 15.37 1.45 2.19 1.21 21.8.82 5.22-.1 13.13-.12 22.09-.15-5.21.86-7.83 2.07-14.51 2.34-9.33.38-12.4-.2-17.93.55-5.52.75 13.87 2.23 20.66 3.1 1.86.24 2.16.38 1.92.43.83.01 1.98.04 3.65.09 12.33.37 21.61-.14 32.14-.03 10.52.11 11.06-.29 19.93-.85s4.96-.65 6.95-1.43c1.99-.79-4.4-.63-11.87-1.22s-7.09-1.75-18.34-2.1c-4.69-.14-6.03-.54-6.84-.91 21.38-.07 44.2-.23 52.97-1.07 13.67-1.3-2.34-1.27-7.67-2.49H53.89zm95.804 10.01c-3.63-.07-.53.11 0 0m227.39 7.27c8.32-.14-5.09-.81 0 0m-7.47 14.63c2.6.01-.3-.29-.72-.21.04.03.23.12.72.21M253.85 372.8c9.42.23 14.79.28 25.84.03 1.77-.04 3.83-.05 6.05-.03zm31.89 0c15.59.14 40.38 1.48 48.89.55 1.57-.17 2.7-.36 3.54-.55zm126.17 0c-13.9.62-21.43 2.05-26.62 3.56-2.85.83-9.85.58-17.21.21-8.75-1.07-37.88-.68-50.8-1.15-13.25-.49-7.82-2.47-21.95-1.89s-3.96-.31-14.05.67c-10.1.98-48.63.93-49.37 2.22s22.94 1.56 33.33 2.31-21.46 2.79-11.06 3.56 30.3-1.42 44.36-1.52 31.87 2.01 37.74 1.1c5.87-.92-6.88-1.12 1.95-2.29 3.99-.52 12.22-.94 19.3-1.33 9.67.62 22.8 1.2 30.19 1.97 13.76 1.45 18.87 3.13 40.58 3.08 21.72-.06 25.12-1.76 51.38-1.62 26.25.15 22.75 1.63 35.31.09 9.11-1.11-.72-2.75-5.04-4.22 3.49.75 16.7 1.15 17.75 2.28 1.45 1.55-4.28 3.28 12.08 4.01s22.12 1.39 40.5 1.04 58.43 1.22 74.63.27c16.21-.95 4.31-1.77 15.38-3.01 11.07-1.25 23.96-4.57 7.97-5.87-6.9-.57-11.04-1.08-15.19-1.52 10.32.22 22.73.39 33.15.36a7.9 7.9 0 0 0-5.58-2.31h-44c1.15.2.14.43-.84.67-1.64-.07-3.41-.14-5.36-.21-4.08-.15-7.9-.3-11.69-.46h-65.89c-9.56.66-17.5 1.51-26.2 2.16-14.11 1.06-15.56-.1-25.27 1.52-1.78.3-2.42.54-2.24.76-1.07-.45-1.46-.89-.42-1.28 4.63-1.72 41.56-.69 25.92-1.94-15.63-1.26-32.77-.11-58.03-.7-8.41-.2-14.9-.37-20.65-.52zm-24.76 10.22c-5.15.01-10.19.13-14.12.43-7.87.58-4.72 1.83-7.46 2.55-2.75.73-17.03-.47-12.95.28 4.07.74 11.86 1.34 17.77 2.03 5.91.7 9.7.58 19.16.98 9.45.4-2.78-.86 7.04-1.22s17.45.91 24.04.28c6.59-.64 22.35-1.72 19.48-2.47-2.87-.74-19.65-.84-27.66-1.15-8.01-.32-1.95-1.02-10.59-1.4-4.31-.2-9.56-.31-14.71-.31m117.44.52c-16.02.04-34.46.95-44.15 1.82-10.01.91-21.55 1.27-18.83 2.44 2.72 1.16-.18 3.95 7.88 4.74 4.25.42 11.9.42 20.15.34-.21.08-.38.16-.6.24-3.94 1.45-9.62 2.92-14.27 4.32 1.68.02 3.71.08 6.12.21 19.7 1.09 34.1 3.22 52.72 4.38 18.62 1.17 22.23-.58 42.87-1.33 20.63-.76 27.02.38 31.41-1.07s.15-1.67 2.67-3.13c1.28-.75 11.05-1.73 18.16-2.65 2.92.15 5.57.3 7.5.49 8.42.83 28.8 1.49 42.17 1.98l2.4.09c-12.33.73-18.64 2.13-24.31 3.01-6.03.93 5.73.39 7.97 1.49s1.01 2.03 14.03 2.86-14.92 2.79 1.53 2.95 21.86-1.4 35.22-1.55c.93-.01 2.26-.01 3.39 0v-6.76c-5.68-.18-10.4-.65-14.81-1.12 3.09.05 6.38.03 10.1-.03 1.73-.03 3.28-.07 4.71-.12v-6.88c-1.48-.02-3.08-.05-5.01-.15-10.9-.55-34.14-.69-46.97-.67s-15.73 1.21-25.87 1.76c-2.9.16-6.72.24-10.73.28-13.56-.84-33.74-1.23-52.46-1.77.02-.01.02-.04.03-.06 1.25-1.21 24.49-1.5 16.13-2.34s-2.53-1.09-15.29-1.67c-12.75-.59-35.96-2.08-52.33-2.1zm-49.82 13.9c-3.85-.05-5.93.14-6.83.4-1.5-.08-2.96-.14-4.26-.22-8.43-.48 1.86.85-5.85.34-7.7-.52-25.98-1.18-35.34-.85-9.35.32-6.03.09-16.03.51-10.01.43-20.79 2.27-21.55 3.11-.77.84 5.72.21 14.2.97 8.49.76 11.29 1.98 19.94 2.46 4.11.24 11.39-.06 18.97-.48-7.95.77 26.73 3.11 35.82 4.01 9.15.91-23.52 1.86-8.36 2.1s31.53-.23 47.96-.36 40.1 1.66 52.15 1.06-10.65-1.86-5.84-2.86c4.81-.99.69-2.5-4.23-3.56-4.91-1.06-2.37.41-13.58-.18-11.04-.58-36.18-2.81-51.1-2.77-3.21-.71-7.87-1.47-6.66-1.88 1.52-.52-4.68-.85-11.45-1.16.65-.21 1.34-.43 2.04-.64m213.18-12.75c-.59.01-1.14.01-1.62.04-3.77.21-3.13.77-5 1.09-1.88.32-2.39.32-3.69.67-.32.09-.58.13-.69.15.23-.02 1.15-.09 3.12 0 3.58.17 5.3.59 9.89.64s6.01.24 10.01-.03c4-.26 14.85-.2 16.55-.58 1.69-.38-5.04-.22-6.27-.55-1.22-.32-.34-.68-2.69-.97-2.35-.28-.95-.1-5.04-.06-3.58.03-10.39-.43-14.57-.4m-518.44 13.82c.47.01.95.03 1.4.06 11.32.6.71.09 12.23.3 3.26.06 8.73.12 15.11.15l-.15.06c-1.67.64-.74 1.28.57 1.92-7.68-.7-18.48-1.86-29.16-2.49m429.81 3.19c-1.5.05-2.4.2-4.83.49-4.72.54-17.4.8-22.63 1.3s-1.47.78-1.71 1.4c-.24.63-3.83 1.06 5.13 1.34s23.44.94 32.7.82c9.26-.11 8.47-.33 12.26-.91 3.79-.57 18.38-1.09 20.86-1.67 2.49-.59 12.87-.12 6.27-.55-6.61-.43-13.42-.58-22.45-.88-9.04-.3-9.38-1.25-18.08-1.31-2.72-.02-4.47-.03-5.76-.03-.7 0-1.27-.02-1.76 0m-136.09.7c2.87-.01 5.93.06 8.99.15-2.52.31-5.45.59-9.89.7-9.56.24-13.5-.07-18.4.06 6.35-.38 12.42-.76 16.42-.88.94-.03 1.89-.03 2.88-.03m-414.52 5.11c-.624 0-1.122.01-1.619.03v7.3c10.627.17 20.16.81 30.544.85 13.122.06 21.344-1.7 25.419-2.7 4.075-1.01-13.912-.29-12.14-1.4 1.773-1.12 22.474-.8 16.097-1.83s-40.637-1.82-51.587-2.13c-3.422-.09-5.328-.13-6.714-.12m215.07 4.26c-6.12.01-13.76.33-20.54.61-1.27-.11-2.74-.17-5.18-.16-.45.01-.92 0-1.44 0-8.28.13-11.2 1.05-18.76 1.53-7.57.47-11.55 1.63-14.84 2.43-3.3.8 13.75.3 15.7 1.09 1.96.8-1.63 1.63 6.81 1.86s32.25-1.75 40.5-1.95c8.24-.19 12.78-.05 18.88-.51 2.29-.18.34-.37-2.76-.58 3.42-.08 6.61-.21 8.75-.37 6.59-.48 7.33-1.52 3.93-2.1-3.39-.57-9.47.28-13.67-.36-4.19-.64-5.79-1.34-14.69-1.49-.83-.02-1.73 0-2.69 0m-151.59 3.01c-11.285.08-15.715 1.88-25.449 2.49-10.383.66-7.257.86-13.519 2.01s-25.282 3.1-17.235 4.2c8.046 1.1 25.417.99 37.348 1.4 11.932.41-.315-.72 14.059-.18 14.372.53 44.912 1.64 56.982 1.15s-3.67-3.78.39-4.89 19.47-2.01 10.1-3.08c-9.36-1.07 7.73-.41-1.74-1.43-9.46-1.01-45.5-1.49-58.568-1.67-.817-.01-1.616 0-2.368 0m-24.07 10.68c-11.542-.01-25.913.5-36.63.7-.855.01-1.536.02-2.158.03 3.128-.01 6.914.08 2.038.55-1.169.11-2.655.23-4.286.36v7.54c8.233.22 13.547.22 23.8-.06 14.208-.38 45.217 1.96 54.942.67 9.73-1.28 3.88-2.98 2.13-4.16-1.74-1.19 9.2-3.04 6.89-4.32-2.3-1.29-22.229.06-33.328-.89-3.468-.29-8.152-.42-13.398-.42m576.87 2.46c-1.67.01-3.58.08-6.08.28-8.91.67-5.53 1.23-9.78 2.25-4.24 1.01-12.35.45-13.6 1.64-1.26 1.19 9.99 1.21 17.32 2.16 3.56.46 3.54 1.3 3.57 2.07-10.57-.91-19.64-1.88-30.13-1.31-12.89.7-11.49 2.36-19.42 3.8-1.93.35-5.24.67-9.17.98-1.66-.18-3.06-.36-3.93-.55-4.96-1.08 6.6-2.19 2.64-3.29-3.97-1.09-10.14-1.84-21.52-2.07-11.39-.22-16.09-.32-27.1-.39s-4.84 3.54-11.39 4.32-36.76-1.29-38.79-.12c-1.95 1.12 33.04 3.55 43.56 4.41.66-.02 1.63-.03 2.99-.03 6-.02 13.98.01 21.91 0-1.18.14-2.1.3-2.66.45-4.86 1.31 12.09 1.27 21.31 2.32 5.43.61 16.14 2.09 27.01 3.22-9.53.25-24.52 1.52-32.23 1.28-10.37-.33-37.91-2.52-46.61-1.8-8.69.73-14.53 2.6-17.95 3.8-3.42 1.21-.88.66 3.83 1.86 4.72 1.2 4.08.68 11.45 1.43s10.88 1.39 21.65 1.43c10.59.04 34.71 1.08 42.17.33-.47.12-.58.25-.21.37 2.7.89 29.46.97 38.01 1.58s8.19 3.06 18.82 3.26c10.64.2-5.33-2.22 4.68-2.71s21.2 1.85 27.1.85c5.89-1 15.51-2.95 20.95-4.01 5.44-1.07-3.09.53-8.63-.37s-25.95-2.1-33.79-2.77c-7.83-.66-14.13-1.32-26.91-1.31-12.79.02-9.52 2.05-14.81 2.95-3.82.66-16.8 1.23-22.69 1.83 2.98-.62-1.87-1.02 5.21-1.7 8.24-.79-3.08-2.66-3.2-3.87-.1-.97 16.87-1.17 20.62-1.73 4.99.42 9.76.72 13.76.73 14.51.05 11-3.25 25.36-3.32 14.36-.06 44.07 2.32 50.47 1.01 2.88-.59 6.9-1.14 9.84-1.71v-2.55c-2.61-.66-1.23-1.02 0-1.46v-1.49c-.01-.01-.02 0-.03 0-3.85-1.28-28.74-1.85-45.3-2.56 3.12-.41 6.54-.91 11.4-1.18 10.86-.62 15.93-.28 24.87-.95 2.69-.2 5.93-.53 9.06-.91v-3.65c-5.81-.2-12.27-.33-15.83-.79-6.29-.82-12.09-1.89-22.93-1.73-7.79.1-10.59-.3-14.87-.28M521.17 442.1c-4.02.12 3.09.5 3.56.39-.03-.04-.67-.15-2.4-.3-.32-.03-.76-.06-1.16-.09m-362.82 4.74c-5.15.01-10.19.17-14.12.52-7.87.7-4.72 2.2-7.46 3.07-2.75.87-17.03-.56-12.95.34 4.08.89 11.86 1.63 17.77 2.46s9.7.68 19.16 1.16c9.45.48-2.78-1.03 7.04-1.46 9.82-.44 17.45 1.09 24.04.33s22.35-2.08 19.48-2.98-19.65-1.02-27.66-1.4c-8.01-.37-1.95-1.21-10.58-1.67-4.32-.23-9.57-.37-14.72-.37m117.44.64c-16.02.05-34.46 1.11-44.15 2.16-10.01 1.09-21.55 1.58-18.83 2.98s-.18 4.74 7.89 5.69c4.24.5 11.89.5 20.14.4-.2.1-.38.2-.6.3-3.94 1.75-9.62 3.49-14.27 5.17 1.68.03 3.71.12 6.12.28 19.7 1.3 34.1 3.83 52.72 5.23s22.23-.68 42.87-1.58c20.63-.91 27.02.46 31.41-1.28s.16-2.02 2.67-3.77c1.28-.9 11.05-2.06 18.16-3.17 2.92.18 5.57.35 7.5.58 8.42 1 28.8 1.76 42.17 2.34.83.04 1.61.09 2.4.12-12.33.88-18.64 2.57-24.31 3.62-6.03 1.13 5.73.48 7.97 1.8s1.01 2.44 14.03 3.44-14.92 3.33 1.53 3.53c16.45.19 21.86-1.68 35.22-1.86 7.6-.11 22.46.46 35.22.73-1.67.55-2.41.99-7.97 1.61-8.88.99-13.54 2.22-10.25 3.53 3.28 1.31-9.65 2.56 7.82 2.83 10.66.17 20.15.59 29.8.85-.09.01-.15.03-.24.03-9.4.73-4.56.8-7.8 1.95s-25.12 2.03-18.79 2.92c6.18.87 11.54 2.17 17.26 2.95-1.05.73-2.63 1.58-.72 2.1 3.26.88 17.03.05 24.04.12 4.57.05 7.17-.13 10.37-.33 1.46.02 2.87.06 4.14.06 3.34 0 5.65-.07 7.62-.15 2.42.38 3.26.96 4.01.39.4-.3 1.47-.55 2.67-.79 2.23-.15 4.76-.32 8.87-.46 11.82-.38-3.44-.42 3.15-1.52s20.17-3.36 16.55-4.26c-3.63-.89-3.26-2.29-13.22-2.64-5.75-.21-13.2-.48-20.84-.7 13.52-.54 27.85-1.28 37.65-1.49 14.44-.32 23.19-1.48 20.9-2.98-2.3-1.51-.82-1.37-5.16-2.65-.78-.23-2.33-.4-4.44-.52.16-.02.26-.03.36-.06 1.96-.52-7.54-1.26-8.06-1.82-.52-.57 8.53-.54 4.17-.98-4.36-.43.25-.11-5.13-.36-5.38-.26-7.42-.63-13.94-.64s-20.5 1.28-25.27 1.55c-4.14.24-4.31.27-5.87.58-2.59-1.29-.61-2.99-8.72-2.65-5.45.23-11.99.46-18.26.76-.75-.49-1.95-1-2.82-1.49-2.32-1.31-15.5-1.61-22.21-3.04s-13.38-1.17-29.16-1.46c-6.79-.13-12.13-.78-17.15-1.43 3.09.06 6.38.05 10.1-.03 14.08-.3 17.16-1.52 27.22-2.25 10.06-.74 1.67-1.1 3.39-2.53 1.72-1.42-3.36-2.35-10.43-3.28-7.08-.93-9.57.11-20.48-.55-10.9-.66-34.14-.81-46.97-.79s-15.73 1.46-25.87 2.13c-2.9.19-6.72.26-10.73.3-13.56-1-33.73-1.48-52.45-2.13.01-.02.01-.04.03-.06 1.24-1.46 24.49-1.79 16.12-2.8-8.36-1.01-2.53-1.3-15.28-2-12.76-.7-35.97-2.51-52.34-2.53zm-49.82 16.7c-3.85-.05-5.93.18-6.83.49-1.5-.09-2.96-.15-4.26-.24-8.43-.59 1.86 1.01-5.84.39-7.71-.62-25.99-1.42-35.34-1.03-9.36.39-6.04.12-16.04.64-10.01.51-20.79 2.7-21.55 3.71-.77 1.01 5.72.24 14.2 1.15 8.49.92 11.29 2.4 19.94 2.98 4.13.28 11.47-.09 19.09-.6-8.6.91 26.55 3.74 35.7 4.83 9.15 1.1-23.52 2.24-8.36 2.53s31.53-.3 47.96-.46 40.11 2.03 52.16 1.31-10.66-2.24-5.85-3.44c4.81-1.19.69-2.98-4.23-4.26-4.91-1.27-2.37.47-13.57-.24-11.04-.7-36.19-3.4-51.11-3.35-3.21-.86-7.87-1.75-6.66-2.25 1.53-.62-4.68-1.02-11.45-1.4.65-.25 1.34-.5 2.04-.76m213.18-15.33c-.59.01-1.14.03-1.62.06-3.77.26-3.13.92-5 1.31s-2.39.4-3.69.82a4.4 4.4 0 0 1-.69.18c.23-.02 1.16-.11 3.12 0 3.58.21 5.3.68 9.89.73 4.59.06 6.01.29 10.01-.03s14.85-.21 16.55-.67c1.7-.45-5.04-.24-6.27-.64-1.22-.39-.34-.84-2.69-1.18-2.35-.35-.95-.14-5.04-.09-3.58.03-10.39-.53-14.57-.49m-395.19.46c-2.505-.01-5.038.04-7.644.18-3.144.16-6.198.16-9.232.12v7.21c11.816-.33 27.76-1.31 35.37-1.61 3.452-.14 4.788.06 5.336.36-3.6.43-1.204.67.569.92.148.18.466.3 1.379.3.156.17-.767.36-4.136.64-12.551 1.02-13.404 1.98-15.857 3.47-2.453 1.48 13.748-.64 20.413.67 3.044.59 3.98 1.8 5.575 3.04-11.796-.5-33.854.29-44.722-.58a97 97 0 0 1-3.927-.4v15.12c2.198.36 4.921.71 8.663 1.01 12.765 1.01 31.433 1.99 46.221 2.52-5.763.41 2.94 1.07-.929 1.86-4.127.83-26.222 2.16-26.918 3.01s9.308.37 11.421 1.25c2.113.87-.489 1.65 6.295 2.34s38.809-.21 47.599-.43 8.73.89 13.64 0c4.91-.88 7.7-1.72 7.04-2.67s-4.5-1.85-11.75-2.44 4.49-1.3-6.62-1.25c-5.65.03-13.34-.53-20.62-1.03 14.32-.73 32.54-2.13 44.24-2.71 15.64-.77-1.22-1.32 2.82-2.52 4.03-1.2-1.18-3.49-6.78-4.63-.26-.05-.42-.11-.6-.15-1.06 0-3.03-.05-6.47-.24-12.64-.69-42.435-1.93-61.72-2.16-.442-.95 5.466-2.28 8.693-3.44 1.89.44 4.373.79 7.733.98 15.744.85 6.854-.66 20.564-1.8s50.67-1.98 55.9-3.38c5.23-1.39-2.11-1.29 4.83-2.83 6.94-1.53-11.21-2.97-20.62-4.44q-.885-.135-1.44-.24c-.84.02-1.89.03-3.21.03-13.4.02-49.356-.91-67.504-.43.312-.52.108-1.05.359-1.49.575-1 7.737-2.98-1.978-3.71s-.275.67-10.011.34c-7.303-.25-14.459-.78-21.972-.79m104.32 6.05c8.32-.17-5.09-.97 0 0m-7.47 17.55c3.47.02-2.83-.65 0 0m441.11-14.42c-1.25.01-2.6.07-4.19.22-7.3.66-10.99 1.45-13.55 2.49s-21.53 1.77-23.92 2.89 21.58.16 26.5.94c4.91.79-5.8 1.67 6.44 1.59 12.25-.08 27.41.62 39 .51 11.59-.1 12.64-1.32 19.39-2.04 6.75-.71.83-.55 4.59-1.49 3.76-.93-1.57-1.11-10.91-1.7-9.35-.59-14.81-2.04-26.5-2.4-9.13-.29-12.38-1.03-16.85-1.01m-229.63 10.8c-2.83.01-3.35.13-6.6.58-4.72.66-17.4 1.01-22.63 1.61s-1.46.92-1.71 1.68c-.24.75-3.83 1.24 5.13 1.58 8.96.33 23.44 1.11 32.7.97s8.47-.37 12.26-1.06 18.38-1.31 20.86-2.01c2.49-.71 12.87-.16 6.27-.67-6.61-.52-13.42-.71-22.45-1.07-9.04-.35-9.38-1.5-18.08-1.58-2.72-.02-4.47-.03-5.75-.03m-137.86.85c2.87-.01 5.93.08 8.99.19-2.52.37-5.45.68-9.89.82-9.56.29-13.5-.07-18.4.09 6.35-.46 12.42-.92 16.42-1.07.94-.03 1.9-.02 2.88-.03m340.28 3.69c1.58.03 3.6.06 5.45.21 1.49.12 4.17.37 7.11.64-1.59-.02-3.12-.04-4.56-.06-4.05-.08-6.47-.39-8-.79m36.57.82c1.21-.01 2.63.03 4.1.09-1.9-.02-3.89-.03-5.93-.03.53-.04 1.15-.06 1.83-.06m-225.39 1.97c-14.13.04-5.17 2.45-14.47 3.44-8.77.93-30.24 1.13-42.24 2.19-3.73-.32-8.24-.56-13.49-.73-16.47-.52-5.62-2.77-21.67-2.22-16.04.55-17.21 3.21-34.71 3.92-9.52.39-18.43-.22-25.93-.66.37-.32 3.34-.32 4.2-.31-.34-.01-1.19-.02-3.15-.09-8.82-.29-21.14-1.56-29.85-1.4-8.72.16-10.51 2-16.07 2.59-5.56.58-14.54-1.16-14.03-.28.51.89 3.75 1.36 5.31 2.16 1.55.81 6.92 2.22 15.88 2.5 8.97.27 6-1.03 13.61-1.04 7.3 0 21.07.7 30.07.43 2.82.4 5.27.77 6.74 1.09 7.17 1.57-38 1.03-19.03 1.28s54.26 2.27 72.87 1.92 4.87-.23 21.28-.61 8.8-.6 16.58-2.16c7.77-1.56 4.66-2.16 4.13-3.68-.05-.14-.17-.26-.36-.4 8.08.42 16.75.83 20.8 1.37 9.89 1.31 4.3 1.24 15.35 2.16 11.06.93-12.86 3.06 3.39 2.37 13.18-.55 41.37.53 56.8.31-3.75.7-6.31 1.59-8.54 2.28-3.3 1.02 13.75.35 15.71 1.37 1.95 1.02-1.64 2.08 6.8 2.37s32.25-2.21 40.5-2.46c8.24-.25 12.78-.08 18.88-.67s-17.87-1.34-13.76-2.34c2.16-.53 3.91-.58 4.2-.61-.23-.03-1.31-.12-3.66-.43-6.27-.81-11.8-.54-19.81-1.09-7.51-.52-7.08-1.23-13.82-1.19-.45 0-.92-.01-1.44 0-4.26.08-7.11.45-9.89.85 5.44-1.78 8.61-4.36 10.58-5.41 2.68-1.43 19.83-2.02 17.24-3.77-2.6-1.76-19.89 2.55-31.84 1.27s-45.51-4.19-61.69-4.32zm310.73 1.31c-7.72.02-7.99.37-16.46 1.01-9.04.68-30.25-.93-38.37-.22-8.12.72 23.78 1.79 20.53 2.74-3.24.95-25.13.42-17.29 1 7.83.59 17.81 1.32 27.99 1.37 9.59.06 28.68.2 38.34.22-.8-.08-1.04-.22.15-.43 1.9-.34 4.53-.6 7.11-.85v-2.53c-4.35-.42-9.13-.83-10.85-1.24-3.69-.88-.15-1.04-9.51-1.07zm14.74 6.12c2.15.2 8.33 0 1.83 0zm-664.27-1.89v4.59c5.686-.13 11.575-.27 15.017-.57 6.582-.59 7.322-1.87 3.927-2.56s-9.474.34-13.668-.43c-1.983-.36-3.408-.72-5.276-1.03m650.12 4.38c-3.77.05-7.04.21-9.38.58-9.34 1.49-.45 4.42.99 5.81.59.57-.34.63-1.08.61.61.07 1.65.19 3.3.42 8.46 1.2 6.67 5.27 20.29 6.09 2.3.14 4.34.22 6.24.24.38.08.7.16 1.05.24v-13.65c-7.28-.18-15.02-.43-21.41-.34M39.2 489.7c-.866.01-1.852.04-3.028.1-4.577.22-7.172.58-9.082 1v9c1.224.07 2.584.14 4.167.19 11.628.35 17.549.08 27.187-.64 9.637-.73 23.993.36 26.827-.95 2.834-1.3 1.319-2.5 5.636-3.83 4.316-1.33 15.885-.44 7.733-1.46-8.15-1.01-41.869.53-49.219-.33-6.661-.78-1.848-3.11-10.221-3.08m279.33 1.56c-11.28.09-15.71 2.41-25.44 3.19-10.39.83-7.26 1.09-13.52 2.56-6.27 1.46-25.29 3.95-17.24 5.35s25.42 1.27 37.35 1.79c11.93.53-.31-.93 14.06-.24s44.91 2.09 56.98 1.46c12.07-.62-3.67-4.82.39-6.24 4.06-1.41 19.47-2.56 10.1-3.92-9.36-1.36 7.73-.53-1.74-1.82-9.46-1.3-45.5-1.9-58.57-2.13a62 62 0 0 0-2.37 0m298.85.12c-9.74-.03-18.67 1.01-29.19 1.15-10.53.15-2.77 2.08-7.19 3.11-4.43 1.03 3.51.12 3.17 1.24s10.67 1.02 17.96 1.86 7.74 1.15 19.06 1.52 14.41.39 23.77.24c9.36-.14 2.02-1.55 5.13-2.55 3.1-1.01 5.52-2.7.81-3.77-4.72-1.07 16.98-1.66 7.88-1.92s-31.65-.85-41.4-.88m-392.34.12c-12.79.13-34.49.05-45.47.76s6.32 2.27-1.32 3.44-12.94.48-15.62 1.97c-2.67 1.5 4.16 2.02 7.29 3.32s11.71 2.23 24.31 2.28 17.34-1.02 29.16-1.43c11.82-.4 7.47 1.61 14.72.28 7.25-1.34 4.47-4.46-.09-5.6-4.56-1.15-4.4-1.07-8.45-2.19-3.92-1.09 7.53-2.84-3.39-2.83zm306.26 6.3c-1.04.02-2.04.06-3.03.12-7.92.48-.72 1.18-6.63 1.82s-9.22 1.1-7.64 1.92c.98.51-1.57 1.12-2.34 1.7-1.83-.24-3.9-.45-6.23-.67-12.74-1.16-35.46.95-50.69.37s1.34-3.17-15.83-2.5c-17.16.68-28.87.75-39.08 2.53-10.21 1.77-28.48 3.43-25.24 5.2s33.13 2.07 39.65 3.92c4.43 1.27-3.48 3.07-3.65 4.17-14.67.9-22.42 3.16-27.76 5.54-2.85 1.27-9.85.9-17.2.33-8.76-1.64-37.89-1-50.81-1.73-13.25-.75-7.81-3.77-21.94-2.89-14.14.88-3.97-.52-14.06.97-10.1 1.5-48.63 1.46-49.37 3.44s22.94 2.38 33.33 3.53-21.46 4.26-11.06 5.44c10.4 1.19 30.3-2.19 44.36-2.34 14.07-.15 31.87 3.08 37.74 1.68 5.87-1.41-6.88-1.69 1.95-3.47 3.99-.81 12.22-1.43 19.3-2.04 9.67.95 22.81 1.82 30.19 3.01 13.76 2.21 18.87 4.8 40.58 4.72 21.72-.09 25.13-2.69 51.38-2.47 26.26.23 22.75 2.48 35.31.12 9.12-1.71-.72-4.22-5.03-6.48 3.48 1.16 16.69 1.78 17.74 3.5 1.45 2.38-4.28 5.06 12.08 6.18 16.36 1.11 22.12 2.08 40.5 1.55 18.38-.54 58.43 1.89 74.64.42 16.2-1.46 4.3-2.68 15.37-4.59s23.96-7 7.98-9c-6.91-.87-11.05-1.63-15.2-2.31 12 .4 26.79.7 38.01.51v-17.98c-.11.02-.18.05-.3.07-3.03.43-6.95 1-10.7 1.61-.66-.09-1.32-.15-1.98-.25-11.88-1.66-16.61.51-31.57-.21-14.95-.72-27.94-.1-43.28.7s-10.78 4.82-20.23 6.69c-9.46 1.88-2.16 2.09 9.59 3.68s18.29.98 36.99 1.62c9.89.33 7.9.95 6.2 1.58-1.63-.12-3.4-.23-5.36-.34-20.64-1.13-36.94-2.8-57.25-2.1-20.32.71-32.41 3.13-46.53 4.75-14.11 1.62-15.56-.2-25.26 2.28-1.79.46-2.43.86-2.25 1.19-1.07-.69-1.46-1.36-.42-1.95 4.63-2.63 41.56-1.09 25.93-3.01-15.64-1.92-32.78-.16-58.04-1.07-15.69-.56-24.87-1.04-34.56-1.24 10.98-1.19 21.87-2.76 30.94-3.01 15.19-.42 53.67 3.71 54.91 1.61 1.25-2.11 6.39-5.8 1.8-7.45-2.87-1.04-5.72-2.07-10.55-2.99.23-.29.57-.61 3.18-.39 5.47.46 17.21 1.52 25.38 1.25 8.18-.28 2.58.72 10.83.48 8.24-.24 11.97-2.62 11.63-3.5-.34-.87-3.35-.3-3.33-1.3.02-1.01-1.85-1.83-10.28-2.07-7.38-.22-15.58-.99-22.81-.85m-424.57 2.73c-20.428.08 18.36 4.57 3.51 6.39s-74.717 2.57-77.996 5.05 26.655 4.96 38.098 7.52c1.476.32 3.027.54 4.646.7a10 10 0 0 0-.54-.04c-10.808-.58-30.893-1.91-47.36-2.31v16.25c3.476.43 4.862.93 6.505 1.24-2.33.35-4.452.81-6.505 1.31v14.63c7.176.94 14.683 1.66 21.942 1.74 19.328.22-.18-1.76 18.314-2.19 10.856-.25 26.61-.67 39.446-1.28-5.19 1.55-1.22 4.81 5.61 6.11 1.53.3 3.5.44 5.75.49-8.47 1.01-15.19 2.55-24.518 3.56-.781.09-1.586.15-2.368.21-.009-.02-.023-.03-.03-.06-.274-1.03 15.726-3.82 8.034-4.68-7.694-.86-28.712 1.16-37.499.58s-.436-2.06-11.42-2.38c-7.649-.22-15.941.76-23.261 1.65v5.75c2.213.51 4.494.97 6.594 1.21 3.308.39 2.791.32 2.458.28.243.01 1.065.07 3.478.33 5.544.6 14.88 1.24 23.41 1.49 3.595 1.92 11.767 4.05 16.516 5.36.847.23 1.253.44 1.379.6-5.823.17-11.182.42-15.137.85-.915.11-1.576.22-2.129.34-11.624-.65-24.66-1.14-30.694-1.4-2.871-.12-4.55-.17-5.875-.18v11.28c7.37.25 14.285.79 21.402 1.07 1.091 1.36 5.361 2.26 7.644 3.89 3.127 2.24 11.712 3.84 24.309 3.93s17.347-1.74 29.167-2.44c11.82-.69 7.47 2.78 14.72.49s4.47-7.65-.09-9.61c-4.56-1.97-4.41-1.84-8.46-3.78-.08-.03-.14-.08-.21-.12 20.16.78 47.88 2.33 58.46.82 12.55-1.78 6.56-5.46 10.07-7.6 1.16-.71 1.92-1.23 2.21-1.67 4.57 1.03 11.2 1.92 19.82 2.13 12.96.31 24.99.43 36.72.21-.82.2-1.01.42-.36.67 1.75.67 3.06 1.34 4.58 1.97-14.14-.91-31.65-1.42-39.95-1.67-.82-.02-1.62-.04-2.37-.03-11.29.17-15.72 4.17-25.45 5.51-10.38 1.43-7.26 1.86-13.52 4.38s-25.28 6.77-17.23 9.18c8.04 2.42 25.41 2.18 37.35 3.08 11.93.9-.32-1.58 14.05-.4 14.38 1.18 44.91 3.6 56.99 2.53 11.85-1.06-3.1-8.07.21-10.62 4.38-.14 8.63-.31 11.3-.61 6.58-.74 7.32-2.34 3.92-3.22-.93-.25-2.11-.33-3.35-.34 1.89-.87 2.17-1.73-1.59-2.67-4.32-1.09-3-1.36-1.26-1.56 12.46 1.16 28.85 2.23 42.14 2.83-5.76.52 2.94 1.41-.93 2.41-4.12 1.06-26.22 2.71-26.91 3.8-.7 1.08 9.3.49 11.42 1.61 1.69.9.42 1.7 3.32 2.43-3.24.49-6.26 1.14-9.17 2.01-10.21 3.05-28.48 5.91-25.24 8.95s33.13 3.52 39.66 6.72c4.42 2.16-3.49 5.25-3.66 7.15-14.67 1.54-22.41 5.43-27.75 9.52-2.86 2.18-9.85 1.57-17.21.61-8.75-2.82-37.88-1.79-50.81-3.04-13.24-1.29-7.81-6.45-21.94-4.93s-3.96-.9-14.06 1.67c-10.09 2.57-48.63 2.5-49.37 5.9-.74 3.41 22.94 4.11 33.34 6.09 10.39 1.97-21.46 7.31-11.06 9.33 10.4 2.03 30.29-3.76 44.36-4.01 14.06-.25 31.87 5.3 37.74 2.89 5.86-2.42-6.88-2.93 1.95-5.99 3.98-1.39 12.21-2.45 19.3-3.5 9.67 1.64 22.8 3.16 30.18 5.2 13.77 3.8 18.87 8.21 40.59 8.06 21.72-.14 25.12-4.62 51.38-4.23 26.25.39 22.74 4.27 35.31.22 9.11-2.94-.72-7.26-5.04-11.14 3.48 1.98 16.7 3.03 17.75 5.99 1.45 4.09-4.29 8.7 12.08 10.62 16.36 1.92 22.11 3.63 40.49 2.71s58.43 3.21 74.64.7 4.31-4.6 15.38-7.88 23.95-12.05 7.97-15.48c-6.9-1.49-11.04-2.82-15.2-3.99 17.51 1.01 41.14 1.73 50.6-.15 12.02-2.4 8.31-1.65 18.14-4.81 7.85-2.52-10.88-8.39-18.44-12.56l6.96.3c16.38.75.4 7.36 16.84 6.48 16.45-.88 19.41-3.4 31.09-5.81 9.63-1.99 34.7-1.96 46.61-3.44v-6.17c-2.52-.64-5.4-1.29-8.37-2.01-8.26-1.99-18.5-3.68-27.6-5.41 3.52-2.02 5.8-4.28 7.34-5.33 2.68-1.82 19.83-2.57 17.24-4.8-2.6-2.24-19.89 3.24-31.84 1.61-.33-.05-.83-.1-1.2-.15 1.74-.53 3.37-1.07 5.4-2.53 2.39-1.72 5.07-3.19 5.96-4.59 10.68-.45 16.3-2.06 27.22-2.25 1.63-.03 3.65-.01 5.85.03v-10.28h-.12c-6.79-.16-12.13-1-17.15-1.83 3.09.07 6.38.07 10.1-.03 2.81-.08 5.09-.21 7.17-.36v-10.32c-2.03.01-4.4-.06-7.47-.3-10.9-.85-34.14-1.03-46.97-1s-15.73 1.85-25.87 2.7c-2.9.25-6.72.34-10.73.4-13.56-1.28-33.73-1.86-52.45-2.68.01-.03.01-.06.03-.09 1.25-1.86 24.49-2.3 16.12-3.59-8.36-1.29-2.53-1.66-15.28-2.55-12.76-.9-35.97-3.2-52.34-3.23h-1.53c-16.02.06-34.46 1.42-44.15 2.77-10.01 1.39-21.55 1.99-18.83 3.77s-.18 6.05 7.89 7.27c4.25.64 11.89.62 20.14.49-.2.13-.38.27-.6.39-3.94 2.23-9.62 4.46-14.27 6.61 1.68.03 3.71.13 6.12.33 19.7 1.66 34.11 4.91 52.72 6.69 18.62 1.78 22.23-.85 42.87-2.01 20.64-1.15 27.02.58 31.41-1.64 4.39-2.21.16-2.6 2.67-4.84 1.28-1.14 11.05-2.6 18.16-4.01 2.92.22 5.57.47 7.5.76 8.42 1.27 28.8 2.23 42.17 2.98.83.05 1.61.07 2.4.12-12.33 1.12-18.63 3.31-24.31 4.66-6.03 1.43 5.73.59 7.97 2.28.91.68 1.25 1.31 2.19 1.91-4.93-.53-10.3-.97-15.73-1.3-2.88-.18-5.25-.24-7.29-.25-8.81-.01-11.29 1.33-21.28 1.92-1.54.09-3.27.1-5.13.09h-.03c-2.89-.53-5.1-1.07-10.34-1.12-2.72-.03-4.47-.07-5.75-.07-2.31.01-3.17.14-5.13.49-7.87-.26-15.2-.28-19.45.88-1.32.36-2.28.78-2.94 1.22-.61.07-1.22.14-1.71.21-5.22.77-1.46 1.17-1.71 2.13-.22.87-3.11 1.46 3.09 1.89 1.31 1.73 3.59 3.4 4.26 4.5.59.97-.35 1.11-1.08 1.07.61.11 1.64.32 3.29.73 1.73.42 2.99 1.05 4.08 1.79-7.27.35-15.18.68-21.61 1.22.01-.87-.61-1.72-2.22-2.44 2.06 0 3.97-.08 5.64-.21 6.39-.49 3-1.25-.87-2.1 3.87-.58 7.45-.98 2.73-1.22-2.11-.1-5.08-.24-8.31-.39-.21-.22-.05-.43.6-.64 4.81-1.52.69-3.82-4.22-5.44-4.92-1.63-2.38.6-13.58-.31-11.04-.89-36.19-4.33-51.11-4.26-3.21-1.09-7.87-2.23-6.66-2.86 1.53-.79-4.68-1.31-11.45-1.79.65-.32 1.34-.65 2.04-.97-3.85-.08-5.93.25-6.83.63-1.5-.11-2.96-.22-4.26-.33-8.43-.75 1.86 1.3-5.84.52-7.71-.79-25.99-1.84-35.34-1.34-9.35.49-6.04.17-16.04.82-10.01.65-20.79 3.46-21.55 4.74-.76 1.29 5.72.3 14.21 1.46 8.48 1.17 11.28 3.06 19.93 3.81 2.12.18 5.09.14 8.51-.03-2.57.86-9.94.8-7.37 1.82 2.93 1.17-4.01 4.26-.75 5.78 3.25 1.52 17.02.09 24.04.21 7.02.13 9.25-.57 16.48-1.15 3.44-.28 5.47.3 6.84.82-4.83.55-8.58.98-1.32 1.16 8.22.2 16.8.06 25.54-.13-.3 1.17 1.21 2.69-1.35 3.72-3.71 1.48 1.26.61 2.76 1.43-1.34.11-2.74.25-4.32.33-9.51.5-18.43-.29-25.93-.85.37-.4 3.34-.41 4.2-.4-.33-.01-1.19-.04-3.15-.12-8.82-.37-21.14-2-29.85-1.79-8.72.2-10.51 2.56-16.07 3.31s-14.54-1.49-14.03-.36c.51 1.12 3.76 1.77 5.31 2.8 1.55 1.02 6.92 2.81 15.88 3.16 1.45.06 2.5.03 3.42 0-4.27.87-6.55 1.64-5.21 2.83.98.87-1.57 1.91-2.34 2.92-1.83-.42-3.9-.79-6.24-1.16-12.73-1.99-35.45 1.61-50.68.61-4.51-.29-6.23-.89-6.87-1.55 4.95-.15 9.26-.29 11.69-.37 8.79-.28 8.73 1.13 13.64 0 4.91-1.12 7.71-2.22 7.04-3.43-.66-1.21-4.5-2.32-11.75-3.08-7.25-.75 4.49-1.67-6.62-1.61-5.43.03-12.75-.63-19.78-1.24 1.06-.12 2.12-.24 3.23-.37 13.6-.98 29.52-2.47 40.17-3.13 7.56-.48 7.5-.87 5.9-1.34 2.13-.4-.3-.87-3.74-1.37-.02-.16.18-.34.66-.52 4.03-1.53-1.18-4.45-6.78-5.9-.26-.07-.41-.13-.6-.18-1.06-.01-3.03-.1-6.47-.34-12.64-.88-42.43-2.44-61.72-2.73-.44-1.22 5.47-2.87 8.69-4.35 1.89.55 4.38.98 7.74 1.21 15.75 1.09 6.85-.85 20.56-2.31 13.71-1.45 50.67-2.48 55.9-4.26s-2.11-1.69 4.83-3.65-11.2-3.79-20.62-5.66q-.885-.165-1.44-.3c-.84.02-1.89.03-3.21.03-13.4.03-49.36-1.14-67.5-.52.31-.66.1-1.32.36-1.88.57-1.28 7.73-3.85-1.98-4.78-9.72-.93-.28.88-10.01.46-9.74-.43-19.19-1.46-29.62-.76-10.42.7-19.98-.68-30.42 0-4.31.28-8.27.82-11.21 1.46-2.95-1.36-18.41-.84-19.73-2.32-1.35-1.51-8.84-1.13-18.64-1.79s-13.89-.83-25.69.09-3.69-1.08-12.38.06c-8.7 1.14-26.94 2.43-26.86 3.71.09 1.29 18.64 3.73 25.39 4.84s-18.85.27-8.72 1.03 38.54.21 52.72.34 7.77-.33 18.68-1.31c4.74-.42 8.72-1.06 11.51-1.76 4.29 1.18 18.28 2.03 25.84 2.8 7.91.8-9.99 1.84.15 2.28s35.3-1.65 45.5-2.16c3.45-.18 4.79.07 5.33.45-3.6.54-1.2.84.57 1.16.15.23.47.39 1.38.39.16.22-.76.48-4.13.83-12.55 1.3-13.41 2.55-15.86 4.44s13.75-.85 20.41.82c3.05.76 3.98 2.31 5.58 3.89-11.8-.64-33.86.35-44.72-.76-13.05-1.32-11.61-3.65-26.95-3.62-8.3.02-12.57.81-16.58 1.71.05-1.09-.62-2.22-4.88-2.92-7.82-1.29 14-3.93 1.37-4.23-12.62-.31-41-.17-52.78.51-11.79.68-4.85 3.17-16.04 3.87-7.07.44-15.55-.25-22.69-.49 3.5-.27 6.27-.58 7.97-.91 8.19-1.57 3.41-.78-1.28-2.86-4.7-2.08-6.83-3.85-17.57-5.17-10.736-1.33-15.327-1.45-27.726-2.56-10.325-.92-15.351-1.97-27.457-2.46 14.749-.47 31.309.44 43.793-.37 14.77-.95 6.16-6.4 2.938-8.51-3.227-2.12 11.492.98 4.342-1.04-6.432-1.82-12.354-3.55-24.965-4.5 10.237.36 22.505-1.23 34.355.49 15.36 2.22 2.18 1.9 21.79 1.3 5.23-.16 13.13-.23 22.09-.27-5.2 1.31-7.83 3.21-14.51 3.62-9.33.58-12.4-.36-17.92.79-5.53 1.15 13.86 3.44 20.65 4.78 1.86.36 2.16.55 1.92.64.83.02 1.98.07 3.65.15 12.33.56 21.61-.24 32.14-.06 10.53.17 11.06-.43 19.93-1.28 8.87-.86 4.97-.99 6.96-2.19 1.98-1.2-4.41-.99-11.87-1.89-7.47-.9-7.1-2.68-18.35-3.22-4.69-.23-6.03-.83-6.83-1.4 21.38-.1 44.19-.34 52.96-1.61 15.02-2.19-5.81-1.93-8.93-4.44-3.12-2.52 11.51-8.21-4.83-9.86-16.33-1.66-11.5.91-34.26.06s-50.64-5.61-71.07-5.54m40.5 31.28c-3.63-.11-.52.17 0 0m227.39 11.16c8.32-.22-5.09-1.24 0 0m-7.47 22.39c3.47.02-2.82-.83 0 0M290 504.88c-10.63.13-22.79.67-32.16.89-.86.02-1.54.01-2.16.03 3.13-.02 6.91.07 2.04.67-9.82 1.19-38.96 3.27-35.91 5.11 3.04 1.83 3.1 2.66 12.02 4.26.48.08.85.17 1.19.24.68-.09 2.65-.12 7.17.06 16.28.63 20.83.85 35.04.36 14.21-.48 45.22 2.46 54.94.83 9.73-1.64 3.88-3.78 2.13-5.3-1.74-1.51 9.2-3.86 6.9-5.5-2.31-1.64-22.24.08-33.34-1.13-3.46-.38-8.15-.51-13.4-.52-1.44 0-2.94-.01-4.46 0m-54.98 11.2c-1.62.22 4.21.82 0 0M27.09 505.1v.42c.673-.15.596-.27 0-.42m228.53.7c-2.79.01-4.98.1 0 0m129.07 26.34c-5.15.01-10.18.22-14.12.67-7.87.9-4.72 2.79-7.46 3.89-2.75 1.11-17.03-.68-12.95.46s11.86 2.04 17.77 3.1c5.92 1.06 9.7.85 19.16 1.46 9.45.61-2.78-1.3 7.04-1.85 9.82-.56 17.45 1.42 24.04.45 6.59-.96 22.36-2.66 19.48-3.8-2.87-1.14-19.65-1.32-27.66-1.79-8.01-.48-1.95-1.54-10.58-2.13-4.32-.3-9.57-.47-14.72-.46m280.8 2.56c-.59 0-1.14.01-1.61.06-3.78.33-3.14 1.2-5.01 1.7-1.87.49-2.39.47-3.69 1-.32.14-.57.22-.69.25.23-.04 1.16-.15 3.12 0 3.59.26 5.3.87 9.89.94s6.01.38 10.01-.03c4.01-.41 14.85-.3 16.55-.88 1.7-.59-5.04-.32-6.26-.82-1.23-.51-.35-1.06-2.7-1.49-2.35-.44-.95-.18-5.04-.13-3.58.05-10.39-.65-14.57-.6m-518.44 21.17c.47.03.95.05 1.41.09 11.31.93.7.16 12.23.49 3.25.09 8.73.16 15.1.21l-.15.09c-1.67.97-.74 1.94.57 2.92-7.68-1.07-18.47-2.83-29.16-3.8m297.2 5.99c1.81.04 3.66.1 5.51.18-1.21.23-2.52.46-4.04.64.3-.41.12-.71-1.47-.82m8.09 8.24c1.81.48-.69.97-4.04 1.4 1.08-.51 2.61-.96 4.04-1.4m95.56 10.07c8.08.53 16.75 1.08 20.81 1.77.15.02.23.03.38.06 1.98 1.06 4.59 1.91 8.46 2.31 2.3.24 4.34.37 6.23.4 1.2.41 2.27.85 2.79 1.3-1.92 1.02-8.35 2.01-1.95 1.8-.03.01-.05.02-.09.03-3.03.75-6.95 1.72-10.7 2.77-.65-.15-1.32-.3-1.98-.46-11.87-2.86-16.61.9-31.56-.33-14.95-1.24-27.94-.19-43.28 1.18-15.35 1.38-10.78 8.28-20.24 11.5-9.45 3.22-2.16 3.6 9.59 6.33 11.76 2.73 18.29 1.64 36.99 2.74 9.9.57 7.9 1.68 6.21 2.76-1.64-.19-3.41-.39-5.37-.57-20.63-1.95-36.93-4.87-57.25-3.65-20.32 1.21-32.4 5.36-46.52 8.15s-15.57-.3-25.27 3.95c-1.78.79-2.42 1.44-2.25 2.01-1.06-1.18-1.46-2.3-.42-3.31 4.64-4.53 41.57-1.88 25.93-5.18s-32.77-.3-58.03-1.85c-15.69-.97-24.88-1.82-34.56-2.16 10.98-2.04 21.86-4.74 30.93-5.17 15.2-.72 53.67 6.41 54.92 2.8 1.24-3.62 6.38-9.99 1.8-12.84-2.87-1.78-5.73-3.54-10.56-5.11.23-.51.58-1.05 3.18-.67 5.48.79 17.21 2.6 25.39 2.13 8.18-.48 2.58 1.3 10.82.88 8.25-.41 11.97-4.55 11.63-6.05a.93.93 0 0 0-.27-.46c18.15.84 39.47 1.99 52.61 1.67 18.61-.44 4.87-.27 21.28-.76 16.41-.48 8.8-.74 16.58-2.73 7.77-1.99 4.66-2.75 4.13-4.69-.05-.18-.16-.37-.36-.55m150.72 1.37c-5.28 1.39-9.31 2.83-7.8 3.83 1.16.77 4.2.91 7.8.89zm-248.35 2.83c.83.18 1.59.33 2.16.49 1.59.44.52.75-1.77.97-.04-.11-.06-.22-.06-.36.01-.38-.1-.76-.33-1.1m-423.18 4.84v33c4.607-.11 10.124-.16 16.216-.21-5.203 2.25-7.83 5.49-14.507 6.21-.616.06-1.145.1-1.709.15v8.12c1.7.47 3.281.92 4.436 1.31 1.864.63 2.161.92 1.919 1.06.836.05 1.981.15 3.657.28 12.328.96 21.605-.42 32.133-.12 10.528.29 11.062-.7 19.933-2.16 8.871-1.47 4.966-1.71 6.954-3.78 1.989-2.06-4.4-1.68-11.87-3.22s-7.092-4.64-18.344-5.57c-4.69-.38-6.033-1.42-6.835-2.4 21.379-.17 44.199-.57 52.969-2.77 15.01-3.76-5.81-3.29-8.94-7.6-3.117-4.32 11.52-14.13-4.821-16.98-16.338-2.84-11.501 1.58-34.262.12-11.538-.73-24.397-3.2-36.929-5.44m6.355 49.64c-3.628-.18-.521.31 0 0m147.24-46.27c-11.54-.01-25.91 1.13-36.63 1.56-.86.03-1.54.03-2.16.06 3.13-.03 6.92.13 2.04 1.15-9.81 2.05-38.96 5.65-35.91 8.79 3.05 3.15 3.1 4.56 12.02 7.3.48.15.86.29 1.2.4.67-.16 2.64-.21 7.16.09 16.28 1.09 20.84 1.5 35.04.67 14.21-.83 45.22 4.21 54.95 1.4s3.87-6.49 2.13-9.1c-1.75-2.6 9.2-6.64 6.89-9.46-2.31-2.81-22.23.13-33.33-1.94-3.47-.65-8.15-.91-13.4-.92m-59.44 19.26c-1.63.38 4.21 1.42 0 0m20.59-17.64c-2.78.02-4.98.18 0 0m498.52 16c-11.01-.16-4.85 7.69-11.4 9.4-6.54 1.7-36.75-2.77-38.78-.22-1.96 2.46 33.04 7.8 43.55 9.68.67-.05 1.63-.08 3-.09 5.99-.05 13.98.06 21.91.03-1.18.31-2.1.64-2.67.97-4.85 2.86 12.09 2.74 21.31 5.02 4.48 1.11 12.56 3.52 21.35 5.72v-18.59c-1.98.67-4.9 1.27-8.37 1.86-1.65-.39-3.06-.78-3.92-1.19-4.96-2.37 6.6-4.78 2.63-7.18-3.96-2.39-10.13-4.07-21.52-4.56-11.38-.49-16.09-.69-27.09-.85m-6.63 18.86c-5.35.37 9.06 1.69 1.17.21-.33-.06-.77-.14-1.17-.21m-362.82 10.4c-5.15.02-10.18.33-14.11 1.1-7.87 1.54-4.72 4.85-7.47 6.75-2.74 1.9-17.03-1.23-12.95.73s11.87 3.53 17.78 5.35 9.7 1.48 19.15 2.53c9.46 1.05-2.77-2.24 7.05-3.2 9.82-.95 17.45 2.43 24.04.77 6.58-1.67 22.35-4.58 19.48-6.55-2.87-1.96-19.66-2.21-27.67-3.04-8.01-.82-1.94-2.63-10.58-3.65-4.32-.51-9.57-.8-14.72-.79m-214.11.31c-3.721-.03-7.707.27-13.608 1.06-11.804 1.58-3.685-1.81-12.38.15-1.102.25-2.365.51-3.717.76v13.33c.7.18 1.691.42 2.248.57 2.469.7.605.97-2.248 1.07v1.22c12.77.54 34.437-.1 46.251.09 14.181.22 7.769-.6 18.675-2.28 4.74-.74 8.726-1.81 11.506-3.02 4.29 2.04 18.28 3.47 25.84 4.78 7.92 1.38-9.99 3.17.15 3.92 10.14.76 35.31-2.79 45.5-3.68 3.46-.29 4.79.14 5.34.8-3.6.92-1.2 1.46.57 2 .15.4.47.67 1.38.67.15.37-.77.8-4.14 1.4-12.55 2.24-13.4 4.36-15.86 7.61-2.45 3.24 13.75-1.44 20.42 1.43 3.04 1.3 3.98 3.98 5.57 6.69-11.79-1.1-33.85.59-44.72-1.31-13.04-2.27-11.61-6.26-26.95-6.21-8.29.04-12.56 1.35-16.57 2.89.04-1.86-.622-3.78-4.889-4.98-7.817-2.21 14.009-6.78 1.379-7.31-12.628-.52-41.002-.25-52.786.92s-4.851 5.46-16.037 6.66c-.205.02-.421.01-.629.03v19.56c0 4.47 3.566 8.06 7.973 8.06h218.55c-.07-.04-.17-.08-.24-.12-1.06-.01-3.04-.16-6.48-.58-12.63-1.52-42.43-4.21-61.71-4.71-.45-2.09 5.46-4.95 8.69-7.49 1.89.96 4.37 1.7 7.73 2.1 15.75 1.87 6.86-1.45 20.56-3.95 13.71-2.5 50.68-4.27 55.91-7.33 5.23-3.07-2.12-2.87 4.82-6.24 6.95-3.37-11.2-6.53-20.62-9.73-.59-.2-1.06-.36-1.44-.52-.84.04-1.88.05-3.2.06-13.4.04-49.36-1.98-67.51-.91.31-1.14.11-2.3.36-3.26.58-2.2 7.74-6.58-1.98-8.18-9.71-1.6-.27 1.52-10.01.79s-19.19-2.54-29.61-1.34c-10.43 1.2-19.99-1.16-30.43 0-4.3.48-8.26 1.41-11.21 2.5-2.94-2.33-18.404-1.43-19.723-3.96-1.354-2.6-8.844-1.93-18.644-3.07-4.9-.57-8.358-.92-12.08-.94zm204.04 18.31c8.33-.38-5.09-2.13 0 0m-7.46 38.45c3.46.03-2.83-1.42 0 0m376.15-55.88c-1.6.02-2.99.1-4.07.3-8.7 1.59-14.54 5.73-17.96 8.37-3.42 2.63-.88 1.42 3.84 4.04 4.72 2.63 4.08 1.47 11.45 3.11 7.37 1.63 10.88 3.07 21.64 3.16 10.6.09 34.71 2.37 42.18.73-.48.26-.58.52-.21.79 1.08.79 6.11 1.3 12.23 1.7v-4.8c-3.6.52-7.14 1.02-9.51 1.55 2.99-1.35-1.87-2.22 5.22-3.71 8.24-1.73-3.08-5.81-3.21-8.46-.04-.95 3.4-1.54 7.5-2.04v-2.83c-9.08.97-20.25 2.76-26.56 2.32-9.08-.63-31.3-4.37-42.54-4.23m-241.17.18c-16.03.1-34.46 2.43-44.16 4.75-10 2.38-21.54 3.41-18.82 6.48 2.72 3.06-.18 10.38 7.88 12.47 4.25 1.1 11.9 1.07 20.15.85-.21.23-.39.46-.6.67-3.94 3.82-9.62 7.65-14.27 11.35 1.68.05 3.71.22 6.11.57 19.7 2.86 34.11 8.44 52.73 11.5 18.62 3.07 22.23-1.48 42.86-3.47 20.64-1.98 27.03 1.01 31.42-2.79 4.39-3.81.15-4.46 2.66-8.31 1.28-1.96 11.06-4.52 18.17-6.94 2.91.39 5.57.81 7.49 1.31 8.43 2.19 28.8 3.86 42.18 5.14.82.08 1.61.16 2.4.25-12.33 1.92-18.64 5.62-24.31 7.94-6.03 2.45 5.73 1.05 7.97 3.95s1.01 5.33 14.03 7.52c3.94.66 4.13 1.59 2.93 2.58h120.14c-1.76-2.68-.72-5.76-8.15-5.08-5.45.5-11.99 1.02-18.25 1.67-.75-1.07-1.95-2.15-2.82-3.22-2.32-2.86-15.5-3.6-22.21-6.72-6.71-3.13-13.38-2.56-29.17-3.2-6.79-.27-12.12-1.72-17.14-3.13 3.09.13 6.37.14 10.1-.03 14.08-.66 17.16-3.32 27.22-4.93s1.66-2.45 3.38-5.57c1.72-3.11-3.35-5.17-10.43-7.21-7.08-2.03-9.57.3-20.47-1.15-10.91-1.46-34.15-1.79-46.97-1.74-12.83.06-15.73 3.2-25.87 4.66-2.9.42-6.73.57-10.73.67-13.56-2.2-33.74-3.21-52.46-4.63.02-.04.01-.1.03-.15 1.25-3.19 24.49-3.93 16.13-6.14-8.37-2.22-2.53-2.85-15.29-4.38-12.75-1.54-35.97-5.5-52.34-5.54zm-49.82 36.57c-3.86-.13-5.93.42-6.84 1.09-1.5-.19-2.95-.38-4.25-.58-8.43-1.28 1.86 2.23-5.85.88-7.7-1.35-25.99-3.13-35.34-2.28-9.35.86-6.03.28-16.04 1.4-10 1.12-20.79 5.94-21.55 8.15-.76 2.22 5.73.53 14.21 2.53s11.29 5.23 19.93 6.51c4.18.62 11.63-.26 19.34-1.4l-.24.06c-2.71.63-1.06 1.68 2.73 2.89h117.35c-.84-.61-1.74-1.22-2.7-1.76-4.92-2.79-2.37 1.07-13.58-.49-11.04-1.53-36.18-7.45-51.11-7.33-3.2-1.89-7.86-3.85-6.65-4.93 1.52-1.36-4.68-2.24-11.45-3.07.65-.55 1.33-1.12 2.04-1.67m213.18-33.59c-.6.01-1.15.05-1.62.12-3.77.57-3.13 2.07-5 2.92-1.88.85-2.39.84-3.69 1.77-.33.23-.58.35-.69.39.23-.06 1.15-.24 3.12 0 3.58.45 5.3 1.52 9.89 1.65 4.59.12 6.01.6 10.01-.1 4-.69 14.85-.49 16.55-1.49 1.69-1-5.05-.56-6.27-1.43-1.22-.86-.35-1.8-2.7-2.55s-.94-.31-5.03-.21c-3.58.08-10.39-1.15-14.57-1.07m142.77 21.14c-1.25.02-2.6.17-4.2.49-7.29 1.46-10.99 3.14-13.54 5.41-2.56 2.28-21.54 3.88-23.92 6.33-2.39 2.46 21.58.38 26.49 2.1 4.92 1.73-5.8 3.61 6.45 3.44 4.04-.06 8.41.08 12.86.27v-17.67c-1.41-.23-2.72-.38-4.14-.37m-661.22 15.27c.476.05.951.09 1.409.16 11.312 1.6.7.26 12.229.82 3.256.16 8.73.3 15.108.39-.053.05-.101.08-.15.12-1.672 1.67-.741 3.34.569 5.02-7.684-1.84-18.476-4.84-29.165-6.51m431.58 8.37c-2.83.02-3.35.29-6.59 1.28-4.72 1.44-17.41 2.18-22.63 3.5-4.79 1.2-2.05 1.9-1.74 3.28h68.73c.99-.25 1.83-.5 2.25-.76 2.49-1.54 12.87-.3 6.26-1.43-6.6-1.13-13.41-1.53-22.45-2.31-9.03-.79-9.37-3.3-18.07-3.47-2.72-.05-4.47-.1-5.76-.09m-137.85 1.82c2.87-.03 5.93.19 8.99.43-2.53.83-5.46 1.53-9.89 1.83-9.56.63-13.5-.18-18.41.18 6.36-1 12.42-2 16.43-2.31.94-.08 1.89-.11 2.88-.13m370.04 2.29c-6.52-.02-20.5 2.81-25.27 3.4-1.94.25-2.97.39-3.72.55h22.6c2.93 0 5.49-1.57 6.87-3.95-.17-.01-.31 0-.48 0" style="opacity:.45;color:#000;fill-rule:evenodd;fill:#fff"/><path d="M674.55 380.9c-13.04 1.07-34.96 3.36-8.23 1.8 9.65-3.69 48.1.46 29.14 9.74-3.01-5.43 15.69 12.22-.25 10.88-25.3 2-50.21-2.02-75.7-1.39 3.84 5.9-22.5 3.51.57 5.36 8.6 1.06 22.9 2.2 4.97-1.16 23.35.09 46.66-2.03 70.03-.98 18.72 5.38-21.79 5.86-28.86 6-4.65.73-31.4 4.25-13.97 4.74-34.37 2.17-69.04 3.58-103.45 1.91-16.79-10.72-45.82-.59-63.82-3.74-15.02 5.43-35.23 3.03-48.46 5.5 25.49 2.59-11.06 8.7-22.9 7.12-35.53-2.82-71.34 4.29-106.54 1.5 6.17-10.51-42.89-1.27-14.22-2.82 5.6-.8-59.98 4.85-21.33 5.8 28.77.47 58.38-2.81 86.66 2.64 27.54 9.31-33.99 5.23-45.85 7.44 34.44-.19 69.93-3.39 104.54 1.95 11.31 1.14 51.43 3.43 18.68.45-32.94-1.07 21.65-2.45 32.88-1.68 11.18-.22 42.44-.66 43.59-1.54-26.99-4.19-54.25.26-81.26-.69-11.41-9.06 22.91-8.49-2.69-7.79-11.02 2.33-56.94-.52-25.8-4.46 15.57-1.71 32.2-.14 45.11 3.36 21.3-2.42 43.99 3.01 64.45-1.96 19.32.71 57.26.54 66.55 6.45-10.27.44-57.67 2.35-23.72 6.43 24.02 6.79 48.76 2.13 73.4 2.72 23.13-2.24 46.04-2.81 69.32-.73 14.21 4.56-23.01 4.94 3.8 7.02-23.67 1.84-55.27-.52-81.45.3-9.89-6.9-47.09-1.6-66.81 1.23-34.03 3.42-68.15-3.2-102.23.13-9.33.64-14.29-3.87-2.08-5.72-23.08 6.33-47.19 10.58-73.57 8.52-31.35-.98-63.86 4.89-93.94-4.61-24.26-6.43 34.9-7.51 5-6.95-19.54-.12-41.89 1.78-59.52-3.54 12.7-3.03 27.62-5.97 5.72-3.72-19.63 6.34-43.23-3.44-64.4-1.24-12.74.71-44.79-2.05-14.08-4.28 28.56-3.58 57.31-3.75 86.05-3.44-19.66-2.63-45.74 3.34-61.29-5.88-14.8.26-38.95 2.95-36.89 4.69-23.26-1.46 32.38 3.63.6 3.15-26.36.66-52.779 4.26-79.078.81 8.568-1.3 22.827-3.3 5.266-3.91 16.114-2.58-49.33-11.09-13.651-8.46 30.278 2.92 61.003-5.63 91.093-1.71 33.51 7.28 68.81-1.77 102.89 2.46 24.68-.83 49.1.72 73.73.09 15.52 3.61 24.17-.03 25.19 3.41 12.23 1.83 49.32-2.03 44.08-2.35-12.71-1.88-59.51.99-31.14-7.73 19.5-1.75 55.8-.03 64.84-3.29-24-.97-48.66-3.3-73.11-3.73-12.57 1.76-33.92-6.09-8.7-6.15 26.49-2.31 53.25-1.13 79.85-1.4-5.37-9.25 31.25-1.99 41-4.45 25.45-.12 50.72 1.28 75.99-1.53 19.48-.51 56.18-1.07 65.05 3.06-8.24 1.2-36.78 3.08-11.58 2.8-30.79 1.48-61.78-.21-92.39-.77-9.76 1.53-17.27-.98-17.82 2.44-13.15.82-54.46-3.34-48.36.44 14.67.25 20.98 5.23 1.78 2.99-27.14 4.21 30.08 2.99 40.12 1.64 13.96-3.03 47.78 1.04 39.24-5.04 24.72-.31 49.57-.59 73.91 2.87 12.4-.42 22.34.24 4.97-1.76 25.26-6.75 51.83-5.46 77.77-7.52-16.49-.45-54.88 2.7-50.08-6.02-3.69-1.64 41.47-3.93 11.95-3.27-17.82.84-56.06 1.16-62.1 1.74 11.08 2.69 45.79 1.31 15.04 4.44-23.22 2.39-46.9 1.63-70.15-.24 5.49-3.53 55.91-4.94 19.97-4.98-12.11-.49-34.63.61-39.96-2.21 39.65-2.57 79.58-.53 119.35-1.18zm-95.24 9.76 1.55.01zm-226.04 7.09c-8.92.3 4.1-1.12 0 0m7.41 14.27c-2.69-.14 2.6-.45 0 0m115.08-31.12c-12.89.43-45.12-.16-16.84 0zm-31.7 0c-14.39.07-44.68 1.8-49.15 0zm-125.42 0c26.02 4.48 52.05 3.59 78.42 2.8 23.79-1.13 47.32-2.97 71.18-.67 9.08-.23 43.72 1.25 16.92 2.72-13.47-.06-33.26 1.45-8.53 3.65-22.93 1.58-54.1-2.36-80.1.55-10.23-6.03-43.07-3.08-62.88-.74-37.68 4.77-75.66-1.77-113.46.87-19.04-.73 13.26-7-8.75-3.58-20.83 8.55-48.16 5.66-72.43 6.15-30.93-.44-63.197 4.41-92.531-6.32 8.501-3.93 33.897-3.32 10.277-3.32-15.955 2.04-25.795-2.5-6.294-2.11 28.689.11 54.988.07 83.818 0 29.6-.97 59.77 2.01 88.69 3.68-11.17-2.85-44.26-1.31-14.31-3.04 36.67.28 73.31-1.01 109.98-.64m24.61 9.97c9.49.08 49.24 4.27 21.33 4.67-22.62 2.4-41.08.1-64.37-.32-25.14-3.18 21.93-1.48 28.41-4.06 4.88-.21 9.75-.3 14.63-.29m-116.75.5c20.61.49 43.9.44 62.61 4.15-8.37 10.37-43.69.82-13.08 9.41-34.94 1.84-69.77 7.41-104.79 3.06-24.78 2.8-43.64-10.98-69.14-5.25-12.118.94-45.213.45-16.309 2.6 33.599 2.47-31.894 4.82-8.473 8.24-12.009-3.28-42.767 7.04-43.696-7.7 21.014-2.85 7.766 2.79 0-4.13 13.89-9.28 45.311-2.69 65.531-3.96 24.757 2.8 49.957-.45 74.637-.46-13.24-1.28-24.11-2.25-4.78-3.71 19.15-.87 38.31-2.23 57.49-2.25m49.53 13.56c29.67 1.55 60.07-3.54 89.33 3.2-27.12 3.46-49.32 2.53-74.55 5.65-13.4.41-20.47 2.39-1.76 2.9-34.43.2-68.89-.02-103.31.98-.5-5.73 29.07-7.58 47.47-8.02 13.61-.08 36.27-2.27 42.82-4.71M64.11 392.5c34.621 4.07-56.394 2.77-14.482.38 4.83-.01 9.65-.39 14.482-.38m515.38 13.47c-11.9-.54-44.81 2.53-15.62 1.19 5.2-.47 10.41-.89 15.62-1.19m-427.27 3.11c11.04-.01 46.91 3.76 16.35 4.68-19.64 2.01-51.74-1.42-64.12-2.51 15.97-.21 31.82-2.06 47.77-2.17m135.28.69c-26.68.63 43.21 1.62 6.2.16l-3.34-.13zm412.08 4.98c4.21 14.77-37.1 6.11-50.2 6.18-11.7-2.26 22.07-2.02-2.8-3.13-13.01-2.02 30.04-2.25 38.09-2.71 4.97-.11 9.94-.32 14.91-.34m-213.8 4.15c18.92.71 44.96-.32 59.61 4.69-26.42 3.83-53.45.77-80.62.09 8.04.08-24.86-2.97-3.37-3.12 8.21.47 16.12-2.39 24.38-1.66m150.69 2.94c17.38 1.49 45.58 3.46 55.87 8.49-35.89 1.5-71.8 1.89-107.75 2.31-7.97-.99 7.52-7.79-10.42-6.29-4.64-5.53 36.67-3.36 54.1-4.43l5.84-.08zm23.92 10.42c16.98.24 54.19-2.35 35.08 9.07-25.72-1.66-51.71 2.88-77.22-.52 8.83-5.17-15.83-8.35 4.27-7.86 12.65.51 25.24-.55 37.87-.69m-573.46 2.4c10.529.57 44.579 5.6 14.949 5.86-15.333 4.63 23.79-1.48 30.84 1.72 13.23 4.35 26.2 5.17 25.8-.48 23.27-3.56 45.96-.99 67.66 2.62 10.39-.72 41.1-.9 13.71 1.74-26.33 3.03-46.68 1.4-65.3 4.43-13.06 1.31-50.93 4.38-18.01 4.55 26.47 3.02 56.46-7.02 80.65 3.31-36.1 6.32-72.51 2.89-108.23 5.55-26.97 4.61-36.494.98-64.377.86-12.971-2.66-24.433-3.53-4.577-3.74 25.445-.81 51.884-7.56 76.664-.29 10.32.33 23.71 3.07 11.54-2.08 6.17-7.28-31.77-.24-42.13-4.59-23.838-4.97-48.641 3.31-72.498-2.34-1.041-13.51 30.466-3.78 41.88-7.74-.368-4.25-37.052 3.21-41.88-6.65 17.836-.57 35.396-3.28 53.309-2.73m123.1 13.83c2.99.48-8.27.48 0 0m360.67 4.62c6.66-.48 38.64 4.49 30.68 4.46-24.18 4.84-42.92.99-66.79 1.5-11.49-.32-24.62-3.64-4.71-3.48 13.78.56 27.06-3.14 40.82-2.48m-116.75.63c20.59.59 44.14.45 62.61 5.01-7.26 12.13-44.22 1.15-13.08 11.28-33.72 1.78-67.29 9.06-101.11 3.82-25.47 4.54-42.19-12.22-67.6-6.76-11.35 1.39-52.69.63-21.53 3.42 33.53 2.98-31.91 5.83-8.47 9.9-22.54.94-58.64-3.66-72.83.14 25.51.95 16.14 10.65-3.68 7.28-13.97.36-23.7-.12-4.97 3.29 15.46.44 17.42 2.61.58 4.28-10.83 6.21-38.75 1.71-56.04 2.01-12.57-.23-15.76-2.03-28.4-6.08 11.14-5.03 49.82-2.1 18.68-3.9-10.72-2.59-39.94 2.89-41.22-5.1 5.77-2.12 18.75-3.28 11.25-4.5 24.7-1.54 48.04.58 72.03-.95 23.17-4.57 47.81-5.67 71.8-6.56 7.52-.24-61.4-1.19-26.28-8.36 34.48-1.37 69.06-2.19 103.43 1.06 12.41-1.51 45.61-.68 47.92-3.02-31.54-2.25 17.99-4.9 28.03-5.28 9.62-.53 19.25-1.01 28.88-.98m49.53 16.29c21.61 1.49 44.59-1.81 67.91.23 11.86-.14 32.6 5.68 7.3 4.75-26.02 4.06-44 2.53-69.8 6.56-18.46 1.44 23.59 3.16-1.88 3-31.29-.97-62.56.1-93.82.77-.59-6.8 28.69-9.12 47.47-9.65 14.16 0 36.15-3.02 42.82-5.66m-211.93-14.96c34.66 4.91-56.42 3.36-14.48.48 4.83-.01 9.65-.49 14.48-.48m392.86.45c17.88-5.35 24.31 12.05 2.48 6.76-15.71-2.02-41.54-.05-12.35 2.68 14.27 3.85-42.17 2.53-11.34 5.31 14.1 3.5 44.01-10.39 37.99 12.19-11.99 7.64-48.43 1.09-53.64 7.03 11.42 2.09 38.09 1.29 14.02 5.36-23.75 1.63-50.31 2.92-72.75-1.95 8.68-4.74 41.1-3.41 33.26-4.89-13.1-2.44-63.02 1.29-33.95-9.47 19.12-2.12 56.63.02 64.84-3.94-22.5-1.15-45.9-3.67-69.03-4.3-12.09 2.04-40.55-6.43-12.78-7.57 26.43-2.75 53.26-1.37 79.85-1.69-14.9-10.23 31.65-2.37 33.4-5.52m-103.7 5.9c-8.9.35 4.12-1.33 0 0m7.42 17.12c-3.57.11 2.68-.7 0 0m-438.5-14.06c11.35 1.54 42.32 7.69 38.99 5.95-24.97.27-46.39 3.53-72.95 2.39-15.811-.04-29.512-5.78-5.81-5.27 13.19-1.82 26.49-2.27 39.77-3.07m228.28 10.53c11.05-.19 49.4 4.42 18.11 5.62-19.68 2.37-51.75-1.66-64.12-3.01 15.4-.29 30.65-2.25 46.01-2.61m137.04.83c-26.69.73 43.21 1.96 6.2.19l-3.34-.16zm-338.27 3.59c-15.36.38-16.49 1.94 0 0m-36.35.8c-13.39.12 7.93.16 0 0m224.05 1.93c23.87 5.29 49.76 5.89 74.76 4.52 23.44-5.88 47.17 5.34 71.01 1.6 5.36-2.45 51.71-2.11 62.15 1.25-22.47 7.39-46.72-.87-69.7 4.2 10.2 1.4 28.33.67 7.58 1.28-33.87.22-68.69 4.99-101.95-2.12-4.56-7.71-36.63 1.38-39.08 2.77-13.87.11-50.37-.75-51.65 1.41 5.16 2.22-27.76 6.19-35.92 3.98-10.76-2.02-62.71-1.19-27.8-4.2-4.7-2.36 28.31-3.46 39.46-3.29 12.09-1.77-44.97-11.17-10.95-7.98 27.29 2.62 54.67-4.03 82.09-3.42m-308.89 1.28c12.562 2.38 56.316-.8 50.736 1.68-13.087.13-21.626 2.74-3.92 2.38 11.01.76-24.726 2.05-31.989 1.75-13.388 2.27-55.715-1.35-21.351-5.76l4.885-.05zm-14.661 5.96h-1.817zm660.36-1.84c1.4 12.44-36.89-2.09-8.66 1.3l3.41-.29zm-646.29 4.27c33.505-.71-15.589 20.55-21.276 10.77-4.416-16.05 10.05-9.46 21.276-10.77m634.25 3.09c22.62-2.04 9.73 17.78-6.36 10.11-16.6.16-46.94-1.91-52.73-6.79 19.65-1.89 40.55 3.03 59.09-3.32m-277.69 1.51c17.47 1.91 45.95 4.52 55.87 10.83-34.11 2.17-68.23 1.86-102.45 3.08-10.19 1.43-10.65-1.86-5.69-6.22-32.5-6.96 19.95-7.18 36.66-7.44 5.2-.08 10.41-.27 15.61-.25m-297.09.12c13.62-1.75 56.84 4.57 21.07 6.71-15.1-.34-53.802 9.02-54.379-3.98-28.4-3.56 20.239-1.72 33.309-2.73m390.03.12c20.22.42 44.47-1.39 51.77 4.67 26.87 3.01-21.07 9.23-29.3 6.67-12.19-1.19-57.85.84-26.32-9.46-6.84-3.35 2.51-1.04 3.85-1.88m-304.45 6.14c15.85 3.65 28.52 6.39 46.58 4.64 18.08 2.5 34.39-1.73 51.41-1.71 15.25.87 50.71 1.45 55.45 7.89-10.65.57-57.76 3.09-23.72 8.2 23.75 8.59 48.65 2.71 73.4 3.49 23.95-3.13 47.55-3.36 71.76-.87 9.4-.65 38.79 2.61 12.77 4.04-13.85-.1-33.07 2.24-8.53 5.56-22.61 2.44-54.15-3.63-80.09.83-9.57-9.02-43.19-4.79-62.89-1.11-36.48 7.64-73.61-3.14-110.4 1.65-9.96.66-14.66-4.99-2.08-7.3-22.64 7.89-46.44 13.55-73.57 10.88-26.66-1.84-55.921 5.7-81.05-2.71-10.716-.12-31.318-10.28-8.016-10.68 27.004-8.12-38.943 11.64-27.352-12.66 4.371-14.23 40.176.87 55.129-5.13 18.129-.19 43.549-.43 55.429 9.41-17.05 4.42-43.43 1.02-55.61 4.81 37.73-3.32 75.76-3.65 113.21 2.71 9.39.24 37.01 3.5 11.91-.42-10.69.1-27.82-1.12-5.68-2.21 27.7-.04 55.41-.2 83.1-1.53-28.27-5.73-57.01-.45-85.34-1.37-12.92-10.32 24.1-11.5-2.7-9.91-11.36 3.25-57.73-1.1-25.79-5.67 7.56-.21 15.1-.95 22.67-.83m422.06 2.67c15.95-.42-22.47 7.57 3.95 6.86 23.33 1.79 46.98.77 70.1 4.3-8.93 5.28-63.14 8.89-26.65 7.12 13.01 1.1 37.76-9.04 31.78 11.57-7.57 7.59-1.82.4 0 9.69 2.82 21.29-30.6 8.41-44.28 9.41-17.54.66-31.24-4.8-40.53 4.82-17.14-.55 41.22 8.95 11.21-.08 23.92 3.28 54.61-6.94 73.6 2.33-7.9 8.76-51.69 3.91-49.28 11.92 14.76 7 51.36-12.35 49.28 9.56-23.49 1.43-48.5 15.15-74.31 7.88-9.89 1.49-39.85-.9-17.88-11.42 5.51-4.62-30.06.94-39.79-.53-20.7 1.68-29.02-15.03-50.8-7.48-14.19-1.29-53.23 2.37-19.34 1.84 25.76-3.73 50.82 3.23 74.51 12.12 20.17 11.95-34.57 7.16-47.1 8.5-16.95-1.19-48.64 8.94-57.07-2.39 12.08-10.83-27.88-4.11-7.14-12.4.82-2.7-68.25 1.66-25.07 5.43 18.48 2.35 7.13.83-2.56 5.81 11.77 1.66 53.57 11.4 18.93 13.57-14.63-2.08-38.79 8.66-10.79 12.17 22.53 14.51 48.09 4.95 73.4 5.98 24.01-5.35 47.03-5.77 71.77-1.46 10.05-1.07 38.73 4.53 12.77 6.94-25.61.04-21.12 4.58-9.73 11.55-27.59-3.26-55.86-3.11-83.01-1.9-5.2-15.46-45.51-5.21-62.82.77-33.14 10.61-67.33-6.25-100.99 1.32-10.98 2.98-24-6.59-7.44-12.38-19.53 2.03-20.84 22.78-44.72 18.09-30.71 1.01-61.55 1.63-92.32 2.07-11.58-1.51-39.45-9.82-34.95-21.95 12.85-3.46 27.25-6.62 5.9-4.72-18.28.08-41.86 2.67-55.94-7.86 11.01-6.04 28.62-13.25 5.71-8.17-13.9 14.09-40.631-6.16-59.454-2.46-12.364 2.44-43.796-5.35-15.853-10.35 14.191-1.3 34.246-6.35 9.705-11.44-32.653-8.86 48.572 7.29 11.681-8.52-10.873.12-46.546-2.23-27.938-12.43 20.986-2.8 2.484.68-4.929-3.37-.622-19.28 34.754-5.29 48.89-9.9 26.528 2.66 52.988 3.18 79.648.99 19.56.51 11.46-2.38-3.13-3.34 16.43-5.39 39.61-4.39 58.64-6.23 24.8-.57 50.11.57 74.26 5.55-1.34 15.68-44.67 2.26-17.07 13.41-3.49 3.71-38.95 5.58-54.88 8.44-24.77-.81-53.48.12-75.87-5.92-18.51-12.91-47.823-.43-70.439-2.51 10.482 1.71 37.559 3.83 14.064 8.63 25.385-3.1 50.605 1.6 75.995-.37 12.75-.45 29.65 2.46 12.67 11.59-20.77 4.61 35.75 4.26 8.39.32 6.41-1.9-4.33-2.66 9.8-2.72 2.08-11.99 36.88-4.81 51.76-9.63 19.6.81 32.21-9.48 46-5.31 24.99-1.28 51.46-4.29 75.46 3.99-9.04 1.27-45.67 5.67-36.82 5.93 8.66 13.45-30.87 4.49-41.96 5.78 10.12 5.64-32.84-3.49-24.8 6.26-4.06 2.07 31.52.21 25.71-.56 17.47-3.25 48.57-.2 57.35 2.53-13.34 4.64-27.88 4.36-11.79 9.44 16.09-3.62 52.76 3.2 56.94-1.57-12.15 2.45-44.15-3.8-14.43-7.16 5-2.2 38.42-1.68 10.07-3.37-15.43-1.74-52.69-.04-24.95-11.35 19.05-2.74 57.1-.01 64.84-5.02-22.22-1.46-45.82-4.71-69.03-5.49-12.65 2.51-40.42-8.21-12.79-9.67 26.33-3.5 53.28-1.73 79.85-2.13-6.07-12.95 30.28-3.74 41-6.8 22.52-1.36 45.14 3.47 67.12-2.01 25.66-1.38 51.73-1.82 76.96 3.2-7.46 3.33-41.17 5.47-14.62 5.41-28.05.6-56.61 2.65-84.37-2.35-10.41 2.06-30.03 1.86-25.84 4.95-13.23 1.27-54.64-5.14-48.36.65 14.64.41 21.21 7.98 1.78 4.59-27.61 6.3 29.73 4.67 40.12 2.5 14.62-4.61 48.09 1.49 39.24-7.74 24.84-.49 49.96-.84 73.91 4.42 12.63-.61 22.12.35 4.98-2.72 24.42-10.21 51.79-8.32 77.76-11.52-12.46-3.77-50.34 7.5-49.42-6.62 10.93-5.57-13.52-.28 3.46-4.36 10-2.91 29.05-3.19 7.83-3.22-17.83 1.24-56.11 1.83-62.1 2.66 10.92 4.16 45.96 1.95 15.04 6.8-23.01 3.66-47.05 2.47-70.15-.35 4.13-5.31 56.46-7.62 19.97-7.66-11.87-.58-40.85.5-39.01-3.51 19.8 2.86-.3-16.39 21.2-12.32 33.4 2.91 66.22-4.2 99.51-4.92m-40.25 30.5 1.54.03zm-226.05 10.89c-8.87.42 4.15-1.67 0 0m7.42 21.84c-3.57.13 2.69-.88 0 0m76.7-58.98c15.18.66 32.45-.04 36.55 2.01 12.91-.05 47.34 4.97 15.97 8.84-31.48.34-63 1.54-94.45 1.28-10.5-1.25 3.07-7.9-8.97-10.53 16.87-1.07 33.94-1.03 50.9-1.6m54.65 10.91-.97.39zm206.71-10.71c.57.98-1.38-.06 0 0m-227.18.69 2.89.04zm-128.31 25.69c7.12-.58 38.3 5.7 30.68 5.69-24.39 6.11-42.71 1.22-66.8 1.91-11.52-.43-24.64-4.63-4.7-4.44 13.98.78 26.86-4.06 40.82-3.16m-279.15 2.49c34.741 6.24-56.465 4.26-14.482.6 4.835-.02 9.646-.61 14.482-.6m515.38 20.65c-12.51-.81-44.81 3.94-15.61 1.82 5.19-.71 10.39-1.35 15.61-1.82m-295.44 5.85c-11.83-1.23-2.31 1.89 0 0m-8.05 8.04c-2.9 1.44 12.05 2.16 0 0m-94.99 9.82c-15.82-.42-56.16 7.29-23.81 9.73 28.39.87 60.4-5.88 86.65 5.77 10.45 7.88 16.63 10.72-1.67 12.45-12.56 4.56-36.3-1.12-42.94 5.37 34.31-4.42 69.68-7.57 103.31 2.75 9.93 1.27 51.04 9.18 21.81 1.18-12.59.33-26.62-2.1-5.68-3.8 27.72-.1 55.44-.37 83.1-2.68-25.69-7.94-52.26-3.89-78.41-1.35-16.33 1.06-9.65-19.65 1.08-19.12-19.71 3.57-41.12 3.3-56.65-3.1-27.56.71-56.13 3.87-83.04-2.1-2.6-.48-7.71-1.76-3.75-5.1m-149.83 1.34c21.458 2.48-5.026 10.16 0 0m246.88 2.76c-7.75.6 1.03 3.22 0 0m420.69 4.71v32.2c-20.78-2.16-12.4 2.4 0 7.43-3.31 18.65-37.12 5.43-52.43 8.54-13.01 1.24-24.23-9.15-4.4-8.53 12.84-5.22 36.75-8.79 9.06-7.96-14.33-.35-59.81-.13-27.37-11.73-10.96-27.76 36.81-8.58 51.8-16.06 7.81-1.1 15.57-2.53 23.34-3.89m-6.32 48.43 1.55.04zm-146.37-45.13c17.59.97 35.15-.16 40.99 3.51 12.26 1.08 47.42 6.54 18.1 15.27-29.72 1.34-59.45.57-89.15 2.93-20.08 1.98-4.46-12.55-16.39-18.92 15.01-2.27 31.08-1 46.45-2.79m59.09 18.78c.76 1.27-4.43.46 0 0m-20.47-17.21 2.89.07zm-495.57 15.61c10.091 15.3 35.991 5.58 49.011 9.97-19.44 7-53.046 8.52-64.535 9.31-7.772-.21-40.75 16.55-42.403 4.71-3.328-13.7 4.331-10.55 13.333-13.45-15.741-13.27 38.336-9.07 44.594-10.54m6.586 18.39c.053 1.26-6.85.89 0 0m360.68 10.15c14.33-3.52 23.3 11.75 34.33 8.37-24.95 12.11-43.06 3.54-67.61 5.31-10.6-1.03-30.14-8.06-7.54-8.28 14.65 1.29 26.25-6.88 40.82-5.4m212.85.3c13.07 1.89 35.14-4.41 29.53 14.92-4.02 6.18-36.64 1.36-53.31 2.85-12.93-5.35-44.83-4.85-47.61 1.66-6.68 6.83-44.61-6.92-52.01.83.93.46 33.7 13.17 8.19 10-20.79.08-13.33 11.3 3.95 6.99 24.5-.8 53.39-5.71 73.12-9.01-12.41-13.96 32.26-4.98 46-6.62 16.06-.23 25.72 8.81 21.67 24.2 0 14.22-17.78 8.52-27.24 9.66-65.74-.08-132.82.16-197.71-.12 18.78-4.66 59.01-.22 64.84-8.64-20.91-2.39-45.39-7.94-69.03-9.42-14.7 3.37-39.88-13.86-12.78-16.6 24.58-5.95 50.95-2.75 76.26-3.83 6.15.6-5.26-17.49 10.87-10.27 23.27-1.48 46.83-2.38 70.04-.27 18.31 2.28 36.04-7.72 55.22-6.33m-202.84 17.86c-8.97.17 4.96-2.36 0 0m7.42 37.5c-3.53.15 2.78-1.46 0 0m-373.93-54.5c16.85-.55 33.52 15.27 6.7 15.42-23.149 6.28-49.282 1.72-71.075 5.92-15.798-5.04 17.704-1.55-3.026-8.12 14.366-8.12-13.56-12.83 9.379-10.12 19.424 3.35 38.583-3.28 58.022-3.1m239.75.17c20.61 1.13 46.23 1.59 62.61 10.95 3.6 22.57-46.12 4.69-16.7 21.99-.54 6.15-34.54 7.99-48.12 13.28-26.69 5.15-54.16-4.17-80.6-4.88-10.04-26.6-47.73-6.84-70.08-8.58-.25 1.76 38.26 7.63 12.56 13.88-10.89 7.64-19.95 8.45-33.4 7.81h-101.6c10.51-9.52 28.753-1.04 41.82-10.35 14.07-7.67 48.74-3.98 50.56-8.75-13.21 1.18-55.97-6.11-25.31-17.4 30.7-.89 62.65-7.16 92.76 1.73 14.5-.94 58.98-.86 58.59-5.96-31.7-4.84 17.29-10.63 28.03-11.56 9.58-1.16 19.21-2.21 28.88-2.16m49.53 35.67c20.93 3.31 44.23-3.97 67.9.5 13.21.33 31.57 11.74 7.31 10.42-19.89 9-34.52 4.58-51.91 7.86h-106.26c20.05-3.66 42.77-6.91 64.09-9.3 3.89-1.7 20.89-9.54 18.87-9.48m-211.93-32.76c35.73 8.89-49.94 9.65-19.49 1.25 6.42-.34 13-.77 19.49-1.25m-141.93 20.62c10.905 3.4 41.256 16.71 38.992 13.02-16.47-5.77-34.043 12.71-43.104.26 1.408-4.14-3.559-14.88 4.112-13.28m657.32 14.9c-14.09-1.49-44.91 6.83-15.62 3.11 5.17-1.21 10.37-2.31 15.62-3.11m-429.03 8.16c10.68.75 47.05 8.14 18.89 7.86-22.34-.64-45.04 1.55-67.05-1.67 16.23-1.36 32.06-4.96 48.16-6.19m137.04 1.78c-26.77 1.69 43.24 4.29 6.2.46l-3.34-.34zm-367.86 2.22c15.481 1.19 39.739 5.01 12.473 3.86-4.285.09-11.606.52-12.473-3.86" style="opacity:.45;color:#000;fill-rule:evenodd;fill:#fff"/><path d="M402.82 402.04s-.49 13.13.48 16.53c.98 3.4.98 5.35.98 5.35l11.38-1.95 3.53-19.93h-16.37z" style="fill-rule:evenodd;stroke:#8d8d8d;stroke-width:1px;fill:#fff"/><path d="M-346.64 823.56a71.761 72.37 0 0 1 72.44-71.62l-.68 72.37z" style="opacity:.49231;color:#000;fill-rule:evenodd;fill:#fff6d5" transform="scale(1.21427 -1.21427)rotate(89.037 300.8 558.591)"/><path d="M479.15 174.51 515.12 386" style="stroke:#000;stroke-linecap:round;stroke-width:3.2;fill:none"/><path d="m480.12 195.42 30.14 177.45s-62.92 7.99-74.38 5.35c-6.32-1.46.48-.98.48-.98l6.32-.97s29.17-162.86 34.04-171.62c4.86-8.75 2.91-9.23 3.4-9.23" style="fill-rule:evenodd;fill:url(#d)"/><path d="M442.68 414.87h104.11v7.972H442.68z" style="fill-rule:evenodd;color:#000;fill:#333" transform="matrix(.99829 -.05848 .03677 .99932 0 0)"/><path d="m416.43 402.04 52.02-5.35s85.57-5.83 89.94-5.83c4.38 0 36.46-.97 36.46-.97l-16.04 25.28-16.53 2.91s-3.4-4.86-5.83-2.43-3.41.97-6.32.97c-2.92 0-6.81 2.44-6.81 2.44s-11.67.97-14.58.97c-2.92 0-4.87-.97-7.78 0-2.92.97-6.81 2.43-9.73.97-2.91-1.46-6.32-1.94-8.75-.97s-2.43 2.91-8.75 1.46c-6.32-1.46-6.32-1.46-12.64-1.46s-6.81.48-11.18 1.94c-4.38 1.46-6.81 1.95-10.7 1.46s-4.37 1.95-10.69 2.43c-6.32.49-4.38 1.95-9.73 1.95-5.34 0-1.94-1.46-9.23-1.46h-14.1c-4.86 0-4.38 2.43-8.75 0-4.38-2.43-.97-2.43-.97-2.43s8.26-1.95 8.75-7.78c.48-5.84 1.94-13.13 1.94-14.1z" style="fill-rule:evenodd;stroke:#7c7c7c;stroke-width:1px;fill:url(#e)"/><path d="m402.82 402.04 1.46-6.32s56.92-5.24 80.21-7.29c50.08-4.38 96.75-3.41 101.61-3.41 4.87 0 10.7-.48 10.7-.48l-2.92 5.35" style="stroke:#6c6c6c;stroke-width:1px;fill:none"/><path d="M449 340.78c19.58 2.44 37.14 2.47 55.43-3.4M458.72 292.17c13.06 2.43 24.76 2.46 36.96-3.41M468.45 240.3c7.04 2.19 13.36 2.22 19.94-3.08" style="stroke:#9d9d9d;stroke-width:.99214px;fill:none"/><path d="m416.3 405.14-.58 5.74c68.68-7.8 165.29-12.37 172.83-11.73l4.24-5.99c-57.9 1.56-115.6 5.45-170.45 11.33-1.99.22-4.07.43-6.04.65" style="fill-rule:evenodd;fill:maroon"/><path d="M398.91 426.48h10.71c2.89 0 6.32-.67 9.45-.67 3.82 0 5.95-2.61 8.82-3.39 2.63-.7 5.65.68 8.83.68h9.45c3.27 0 7.11-.05 9.45-.68 3.8-1.02 6.64-2.03 10.71-2.03 4.23 0 5.48-2.03 10.09-2.03h9.45c3.94 0 5.09-.15 8.19.68 3.26.87 6.68-.54 8.19-1.35 3.36-1.81 7.3 1.06 8.82 2.7 2.09 2.24 10.12-2.03 12.61-2.03 3.82 0 8.45.1 11.34-.67 2.95-.8 7.01 0 10.08 0 1.11 0 6.18-4.74 12.61-4.74 3.45 0 7.35 1.24 10.08 2.71 2.63 1.41 7.32-.55 8.82-1.36 5.16-2.77 3.59 1.51 1.26 3.39-3 2.41-6.33 2.03-10.08 2.03-4.86 0-9.27.67-13.86.67-5 0-8.29 2.03-13.24 2.03-4.43 0-7.77.61-11.97 1.36-4.95.88-10.73 0-15.75 0-4.31 0-8.42-.56-11.98 1.35-3.15 1.69-6.23 2.03-10.08 2.03h-13.86c-3.7 0-5.89-1.35-10.09-1.35-3.22 0-6.25.67-10.08.67-4.43 0-6.6.68-10.71.68-2.5 0-5.92 2.71-9.45 2.71h-9.46c-3.1 0-6.63.67-10.08.67H407.1c-3.89 0-11.6-3.14-11.97-4.73-.31-1.33 2.52.45 3.78.67" style="fill-rule:evenodd;fill:#fff"/><path d="M532.4 120.31c.06-.11.1-.21.1-.23 0-.03-.36-.05-.8-.06-.53-.01-.86-.06-.98-.15-.09-.08-.36-.28-.6-.44-.52-.36-.72-.72-.51-.91.07-.08.59-.21 1.14-.29 1.99-.31 4.68-1.11 5.99-1.8.5-.26.92-.47.94-.47.08 0 .93-.6 1.05-.74.07-.08.22-.19.34-.23.13-.04.21-.16.22-.35.01-.15.04-.38.08-.52.05-.19.02-.26-.17-.33-.33-.14-.33-.34.01-.83.19-.27.27-.46.21-.52-.06-.05-.1-.22-.1-.38s-.06-.35-.14-.44c-.31-.35-1.45-2.74-1.91-4.01-.1-.27-.24-.61-.31-.77s-.16-.42-.2-.58-.16-.35-.26-.42c-.13-.08-.19-.24-.19-.5 0-.28-.05-.4-.2-.48s-.2-.2-.2-.48c0-.26-.05-.41-.17-.47-.11-.06-.17-.23-.18-.49q-.03-.405-.24-.6c-.23-.21-.28-.56-.09-.74.09-.08.07-.12-.05-.17s-.17-.18-.17-.47c0-.26-.06-.46-.16-.54-.12-.1-.14-.23-.09-.55.05-.33.03-.47-.1-.61-.14-.142-.16-.276-.11-.626.08-.491-.09-1.116-.5-1.892-.13-.247-.24-.54-.24-.651s-.16-.401-.35-.644c-.2-.244-.35-.498-.35-.566 0-.209-.71-1.444-.94-1.633-1.89-1.563-2.36-2.125-2.44-2.927l-.06-.541.26.064c.15.035.27.047.27.026 0-.02-.12-.238-.26-.483-.23-.396-.24-.483-.14-.783.06-.185.08-.424.05-.531-.05-.139-.02-.195.09-.195.2 0 .2-.102.01-.343-.19-.246-.19-.309.02-.362.15-.038.15-.046.02-.056-.09-.006-.24-.118-.33-.248-.13-.192-.14-.284-.05-.482.1-.204.09-.277-.06-.438-.16-.174-.17-.194-.02-.194.23 0 .22-.035-.16-.86-.24-.523-.29-.727-.19-.757.08-.028.1-.143.06-.37l-.07-.329.48-1.687 2.58 1.687 4.57 4.416c2.52 2.429 5.18 4.98 5.91 5.669 1.42 1.334 2.37 2.432 3.56 4.149 1.18 1.689 1.35 2.077 1.52 3.457.36 2.97 1.24 5.74 2.46 7.72l.21.34.44-.15c.24-.08.62-.3.84-.5.45-.41 1.1-.84 1.47-.98.14-.05.22-.14.19-.19-.11-.17.15-.37.76-.59.33-.11.59-.25.59-.3 0-.04.25-.19.55-.33.3-.13.7-.39.89-.57s.44-.33.55-.33q.195 0 .27-.27c.03-.14.21-.41.38-.58.18-.18.32-.37.33-.43.01-.07.02-.17.03-.24 0-.06.15-.19.32-.27.28-.14.33-.14.55 0 .26.16.44.13.44-.08 0-.07.12-.18.26-.26.32-.16.38-.11 1.35 1.36.99 1.49 1.2 1.96 1.12 2.46-.07.35-.11.39-.53.53-.26.08-.53.19-.6.25-.08.05-.3.16-.49.23-.2.07-.45.21-.56.3-.11.1-.53.29-.92.42-1.01.33-2.2.94-2.78 1.43l-.49.42 1.66.06c1.49.06 1.76.09 2.54.35.48.16 1.05.41 1.27.56.69.46.8.5 1.73.56 1.12.08 1.67.31 1.91.78.09.19.14.4.11.47-.07.17-.77.25-1.82.18-.84-.05-.97-.03-2.05.31-1.35.41-2.04.76-3.25 1.6-1.49 1.05-1.78 1.19-3.28 1.62-.79.22-2 .58-2.69.79s-1.48.42-1.76.47c-1.33.25-5.32.55-6.65.5-.47-.01-1.31.05-1.89.14-.8.13-1.1.14-1.29.05-.14-.06-.41-.11-.6-.11s-.56-.05-.8-.11c-.58-.14-1.04-.01-1.67.46-.43.32-.54.36-1.6.48-.62.07-1.29.17-1.48.23s-.61.1-.93.1c-.55 0-.58-.01-.48-.18M580.78 130.13c.04-.07.07-.14.07-.15 0-.02-.24-.04-.53-.04-.35-.01-.57-.04-.65-.1-.06-.05-.24-.18-.39-.29-.35-.24-.48-.47-.34-.6.05-.05.39-.14.75-.19 1.31-.2 3.09-.74 3.95-1.19.33-.17.61-.31.62-.31.05 0 .61-.39.69-.48.05-.06.15-.13.23-.16.09-.03.14-.11.14-.23.01-.1.03-.25.06-.34.03-.13.01-.17-.11-.22-.22-.1-.22-.23 0-.55.13-.18.18-.3.14-.34s-.06-.15-.06-.25c0-.11-.04-.24-.09-.29-.21-.24-.96-1.81-1.27-2.65-.06-.17-.15-.4-.2-.51-.05-.1-.11-.28-.14-.38a.5.5 0 0 0-.17-.28q-.12-.075-.12-.33c0-.18-.03-.26-.13-.31s-.13-.14-.13-.32c0-.17-.04-.27-.11-.31-.08-.04-.12-.15-.13-.33q-.015-.255-.15-.39c-.16-.14-.19-.37-.06-.49.05-.05.05-.08-.04-.11-.08-.03-.11-.12-.11-.31 0-.17-.04-.31-.1-.36-.08-.06-.1-.15-.06-.36.03-.22.01-.31-.07-.4-.09-.1-.1-.18-.07-.42.05-.32-.06-.73-.33-1.24-.09-.17-.16-.36-.16-.43 0-.08-.11-.27-.23-.43-.13-.16-.23-.33-.23-.37 0-.14-.47-.96-.62-1.08-1.25-1.03-1.56-1.4-1.62-1.93l-.03-.36.17.04c.1.03.18.03.18.02s-.08-.16-.17-.32c-.15-.26-.17-.32-.1-.51.04-.13.06-.28.04-.36-.03-.09-.02-.12.06-.12.13 0 .13-.07 0-.23-.12-.16-.12-.2.02-.24.1-.02.1-.03.01-.04-.06 0-.16-.07-.22-.16-.08-.13-.09-.19-.03-.32.07-.13.06-.18-.04-.29-.11-.11-.11-.12-.01-.12.14 0 .14-.03-.11-.57-.16-.35-.19-.48-.13-.5s.07-.1.04-.25l-.04-.21.31-1.12 1.71 1.12 3.01 2.91c1.66 1.6 3.42 3.29 3.9 3.74.94.88 1.56 1.61 2.35 2.74.78 1.11.89 1.37 1 2.28.24 1.96.82 3.79 1.63 5.1l.13.22.3-.1c.16-.05.41-.2.55-.33.3-.27.73-.56.97-.65.09-.03.15-.09.13-.12-.08-.12.1-.25.5-.39.22-.08.39-.16.39-.2 0-.03.16-.13.36-.21.2-.09.47-.26.59-.38.13-.12.29-.22.36-.22q.135 0 .18-.18c.02-.09.14-.27.25-.38.12-.12.21-.25.22-.29 0-.04.01-.11.02-.15 0-.05.1-.13.21-.18.19-.09.22-.09.36 0 .17.11.3.08.3-.06 0-.04.07-.12.16-.16.22-.11.25-.08.89.89.66.98.8 1.3.74 1.62-.04.24-.07.27-.35.35-.17.06-.34.13-.39.17s-.2.1-.33.15c-.12.05-.29.14-.36.2-.08.07-.35.19-.61.27-.67.22-1.45.63-1.84.95l-.32.28 1.1.04c.98.04 1.16.06 1.67.23.32.1.69.27.84.37.45.3.53.33 1.14.37.74.05 1.1.2 1.26.51.06.13.1.27.08.31-.05.12-.51.16-1.2.12-.56-.03-.65-.02-1.36.2-.89.28-1.35.51-2.14 1.06-.98.69-1.18.79-2.17 1.07-.52.15-1.32.38-1.77.52-.46.14-.98.28-1.16.31-.88.16-3.51.36-4.4.33-.3-.01-.86.03-1.24.09-.53.09-.72.1-.85.04-.09-.04-.27-.07-.4-.07s-.36-.04-.53-.08c-.38-.09-.68-.01-1.1.3-.28.22-.36.24-1.05.32-.41.05-.85.12-.98.15-.13.04-.4.07-.62.07-.35 0-.37-.01-.31-.12M81.428 242.36a1 1 0 0 0 .068-.15c0-.02-.239-.03-.53-.04-.353 0-.569-.04-.645-.1-.063-.05-.242-.18-.398-.29-.347-.24-.478-.47-.34-.6.052-.05.392-.14.756-.19 1.309-.2 3.086-.73 3.951-1.19.33-.17.608-.31.619-.31.052 0 .613-.39.692-.48.05-.06.151-.13.225-.15q.133-.06.145-.24c.007-.1.031-.25.054-.34.034-.13.012-.17-.11-.22-.219-.09-.217-.22.007-.55.125-.18.174-.3.134-.34-.034-.03-.063-.15-.063-.25s-.04-.23-.089-.29c-.208-.23-.961-1.81-1.266-2.65-.064-.17-.154-.4-.202-.51-.047-.1-.108-.27-.135-.38-.027-.1-.103-.23-.17-.27q-.123-.09-.122-.33c0-.19-.034-.27-.132-.32s-.132-.14-.132-.32c0-.17-.037-.27-.111-.31-.072-.04-.116-.15-.125-.32-.009-.18-.06-.31-.153-.4-.154-.13-.184-.37-.063-.48.059-.06.051-.09-.033-.12-.079-.03-.111-.12-.111-.31 0-.17-.039-.3-.104-.36-.081-.06-.095-.15-.062-.36.034-.22.019-.31-.068-.4s-.102-.18-.066-.41c.05-.33-.06-.74-.335-1.25-.087-.16-.158-.36-.158-.43s-.104-.27-.232-.43c-.127-.16-.231-.32-.231-.37 0-.14-.467-.95-.618-1.08-1.247-1.03-1.556-1.4-1.613-1.93l-.038-.36.175.05c.097.02.176.03.176.01 0-.01-.077-.15-.171-.32-.152-.26-.162-.31-.094-.51.042-.12.057-.28.034-.35-.03-.09-.013-.13.061-.13.13 0 .131-.07.007-.23-.128-.16-.125-.2.014-.24q.146-.03.008-.03c-.06-.01-.156-.08-.215-.17-.086-.12-.092-.18-.03-.32.063-.13.056-.18-.044-.28-.108-.12-.109-.13-.01-.13.147 0 .142-.03-.106-.57-.157-.34-.192-.48-.13-.5.058-.02.071-.09.042-.24l-.042-.22.313-1.11 1.701 1.11 3.018 2.91c1.66 1.61 3.415 3.29 3.9 3.74.939.88 1.561 1.61 2.35 2.74.777 1.12.891 1.38 1.001 2.28.238 1.96.82 3.79 1.625 5.1l.135.22.291-.09c.161-.06.41-.21.555-.34.3-.27.727-.55.972-.64.092-.04.148-.09.124-.13-.072-.11.099-.25.505-.39.214-.07.39-.16.39-.19 0-.04.162-.13.36-.22s.463-.26.589-.38.287-.22.36-.22c.088 0 .146-.06.176-.17.025-.1.139-.27.255-.39.115-.11.212-.24.216-.29.004-.04.012-.11.018-.15s.101-.12.213-.18c.187-.09.217-.09.366 0 .169.11.291.09.291-.05 0-.05.075-.12.167-.17.215-.11.251-.08.89.89.65.99.8 1.3.74 1.63-.04.23-.07.26-.35.35-.17.05-.35.12-.4.16s-.193.11-.32.15c-.127.05-.293.14-.367.21-.075.06-.349.18-.609.27-.664.21-1.449.62-1.833.95l-.326.27 1.099.04c.984.04 1.159.06 1.674.23.315.11.692.27.842.37.45.3.53.33 1.14.37.74.06 1.1.2 1.26.52.06.12.09.26.07.3-.04.12-.5.17-1.2.13-.55-.04-.64-.03-1.35.2-.89.27-1.351.5-2.145 1.06-.982.69-1.178.78-2.169 1.06-.521.15-1.319.38-1.774.52-.454.14-.975.28-1.157.31-.878.17-3.512.36-4.393.34a8 8 0 0 0-1.244.09c-.532.08-.725.09-.852.03-.09-.04-.269-.07-.396-.07-.128 0-.367-.03-.531-.07-.383-.1-.687-.01-1.1.3-.283.21-.359.23-1.053.31-.412.05-.853.12-.98.16-.127.03-.403.06-.614.06-.358 0-.378 0-.314-.12" style="opacity:.28077;fill:teal"/></g></svg>