<svg xmlns="http://www.w3.org/2000/svg" xml:space="preserve" viewBox="0 0 100 100"><path d="M75.594 55.774c-3.103 1.613-4.311 5.294-2.698 8.397a6.334 6.334 0 0 0 8.541 2.699l.897-.466 5.227-2.717 1.13-.587 2.563-1.369-8.92 6.483c0 7.164-5.828 12.441-12.992 12.441S56.35 74.827 56.35 67.663V50.431l-7.144-1.046H59.8a4.926 4.926 0 0 0 0-9.852h-3.45V33.21l-7.771.004s3.947-.279 6.098-.909c5.323-1.558 8.694-7.08 8.694-12.256 0-7.373-5.998-13.371-13.371-13.371S36.628 12.677 36.628 20.05c0 5.09 2.86 9.522 7.055 11.781v7.703H40.2a4.925 4.925 0 1 0 0 9.852h3.483v18.277h-.033c0 7.164-5.828 12.992-12.992 12.992S17.679 75.65 17.679 68.486l-.013-.273-8.563-6.39 2.206 1.264 1.13.587 5.227 2.717.897.466a6.332 6.332 0 0 0 8.541-2.699 6.33 6.33 0 0 0-2.698-8.54L5 45.753v21.91c0 14.148 11.51 25.658 25.658 25.658 7.167 0 13.011-2.715 18-7.249-2.315-4.307-3.018-6.976-3.713-10.172 3.242 9.632 13.411 17.42 24.396 17.42C83.489 93.321 95 81.811 95 67.663V45.996zM49.999 16.531c1.941 0 3.52 1.579 3.52 3.52s-1.579 3.52-3.52 3.52-3.52-1.579-3.52-3.52 1.58-3.52 3.52-3.52"/></svg>