<svg xmlns="http://www.w3.org/2000/svg" xml:space="preserve" viewBox="0 0 2615.151 1262.759"><path fill="#630" stroke="#630" d="M328.652 64.685c54.071-29.541 117.802-39.952 178.657-31.341l-4.581.484c-6.838-.564-13.635-1.72-20.514-1.585-11.217-.564-22.461-.873-33.665-.013-15.583.43-31.046 3.117-46.293 6.153-46.024 9.968-88.919 32.322-125.083 62.266-17.88 14.562-33.974 31.193-48.926 48.711l-.645-.873c28.212-33.721 62.132-63.061 101.05-83.802z"/><path fill="#FFC" stroke="#FFC" d="M402.256 38.381c15.247-3.036 30.71-5.723 46.293-6.153 5.36 2.203 11.19.86 16.792 1.048 5.629-.081 11.486 1.196 16.873-1.034 6.878-.134 13.676 1.021 20.514 1.585 3.076.524 6.153 1.021 9.269 1.33 3.036.564 6.072 1.115 9.162 1.263 45.111 7.442 88.408 23.59 128.67 45.03 49.947 26.451 97.006 57.887 143.393 90.074 30.481 21.185 60.976 42.344 90.759 64.509 10.774 11.016 23.496 19.976 34.162 31.14-12.722 4.097-25.229 8.88-37.467 14.267-.524.228-1.034.47-1.518.712-31.153 13.407-61.218 29.568-88.637 49.598-4.447 3.466-10.371 6.166-12.131 11.943-3.95 11.069-7.214 22.354-10.707 33.558-15.328 12.95-29.165 27.728-40.893 44.023-7.335 10.317-13.85 21.4-17.76 33.517-5.347 15.852-7.187 32.55-9.78 48.993-.94 4.876-1.572 10.21-4.809 14.2-2.7 3.103-6.918.457-9.363-1.625-17.813-15.234-32.859-33.853-43.123-54.958-4.084-7.483-6.153-16.04-11.392-22.838-4.164 6.69-5.884 14.468-8.289 21.884-9.444 31.543-19.949 62.776-31.731 93.527-3.6 9.202-10.519 18.176-20.581 20.527-10.169 2.176-20.124-2.781-27.499-9.457-4.541-3.667-7.362-8.96-11.902-12.601-6.287-12.225-10.855-25.269-17.692-37.212-10.344-18.122-22.636-35.103-36.218-50.941l-.027-.027c-1.303-2.029-2.633-4.178-4.823-5.32l-.578-.363-.269-.914c-.296-1.84-1.908-2.955-3.399-3.788-.175-.161-.524-.47-.699-.618a21.8 21.8 0 0 0-5.709-6.18l-.645-.645c-12.44-14.697-26.908-27.526-40.839-40.758-1.706-1.639-3.587-3.076-5.468-4.487-.175-.148-.551-.457-.725-.618-6.005-6.099-12.534-11.687-19.345-16.859a30 30 0 0 1-.712-.618c-4.218-4.232-8.719-8.262-13.891-11.284l.752.161c-9.081-7.362-17.961-15.006-27.486-21.776a6 6 0 0 0-.363-.282 540 540 0 0 0-27.875-21.226c28.748-15.18 56.651-31.999 83.384-50.498 2.136-1.33 3.856-3.184 5.454-5.105-30.938-8.96-62.172-16.94-93.124-25.9-44.641-12.44-89.429-24.396-134.016-37.077 12.117-21.4 26.223-41.591 41.833-60.573l.161-.175c14.952-17.518 31.046-34.149 48.926-48.711 36.17-29.946 79.064-52.3 125.088-62.268M268.67 164.337c-19.828 4.46-36.271 19.855-43.7 38.528a215.3 215.3 0 0 1 45.621-21.44l-.752.591c-3.184 4.903-3.036 11.352-1.545 16.806 3.264 11.741 16.51 19.573 28.359 16.604 11.54-2.391 20.339-14.106 18.794-25.914-.51-7.147-4.984-13.165-10.317-17.625l-1.29.228c8.584-1.934 17.37-2.781 25.941-4.796 6.314-1.491 12.614-4.232 16.913-9.269 6.086-6.69 7.12-16.51 5.226-25.054-26.532 13.299-54.166 24.973-83.25 31.341z"/><path fill="#FBFBED" stroke="#FBFBED" d="M448.549 32.228c11.204-.86 22.448-.551 33.665.013-5.387 2.23-11.244.954-16.873 1.034-5.601-.187-11.431 1.157-16.792-1.047z"/><path fill="#8E6B39" stroke="#8E6B39" d="m502.728 33.827 4.581-.484c2.727-.013 5.427.658 8.074 1.29-.846.134-2.539.39-3.385.524-3.117-.309-6.193-.806-9.27-1.33z" opacity=".85"/><path fill="#947240" stroke="#947240" d="M511.998 35.157c.846-.134 2.539-.39 3.385-.524 2.646-.094 5.226.591 7.792 1.169l-.497.161-1.518.457c-3.09-.148-6.126-.699-9.162-1.263z" opacity=".87"/><path fill="#630" stroke="#630" d="m521.16 36.42 1.518-.457 1.505-.107c40.758 7.026 80.066 21.131 116.888 39.872 49.987 25.35 96.805 56.382 142.936 88.099 46.105 31.57 91.417 64.308 137.482 95.958 2.821 1.639 5.306 5.038 8.947 3.842-8.208 5.078-17.854 6.945-26.787 10.358-7.039 2.19-13.703 5.468-20.675 7.778-.578-.081-1.719-.242-2.297-.322 12.238-5.387 24.745-10.169 37.467-14.267 2.687-.9 5.4-1.733 8.128-2.566-11.567-8.195-23.375-16.053-34.901-24.315-2.311-1.666-4.85-2.996-7.389-4.259-29.783-22.166-60.278-43.324-90.759-64.509-46.387-32.188-93.446-63.623-143.393-90.074-40.262-21.441-83.559-37.589-128.67-45.031z"/><path fill="#963" stroke="#963" d="M268.67 164.337c29.084-6.368 56.718-18.042 83.25-31.341 1.894 8.544.86 18.364-5.226 25.054-4.299 5.038-10.599 7.778-16.913 9.269-8.571 2.015-17.357 2.861-25.941 4.796-11.244 2.472-22.394 5.454-33.249 9.31a215.3 215.3 0 0 0-45.621 21.44c7.429-18.673 23.872-34.068 43.7-38.528z"/><path fill="#630" stroke="#630" d="M184.843 209.945c12.561-20.984 26.008-41.578 41.873-60.251l1.37-.161c-15.61 18.982-29.716 39.173-41.833 60.573 44.587 12.682 89.376 24.638 134.016 37.077 30.952 8.96 62.185 16.94 93.124 25.9-1.599 1.921-3.318 3.775-5.454 5.105-26.733 18.498-54.636 35.318-83.384 50.498a540 540 0 0 1 27.875 21.226l-2.136-.578c-8.302-6.287-16.631-12.534-24.866-18.875-1.72-1.881-4.218-.349-5.965.564-38.166 19.439-78.4 35.654-120.703 43.351-16.268 3.103-33.209 2.512-49.087 7.63-24.033 7.792-44.963 22.744-63.918 39.119-15.382 13.703-29.622 28.695-42.827 44.493-.605.43-1.827 1.29-2.432 1.72-1.814-3.318-2.405-7.08-3.251-10.693-4.299-18.566-7.187-37.427-8.88-56.395-1.397-22.959-1.706-46.441 4.5-68.795 1.196-3.842 1.894-7.939 4.245-11.298-1.303 6.596-3.856 12.883-5.011 19.519-3.358 17.491-4.245 35.452-2.942 53.212 1.424 24.06 5.387 47.919 11.043 71.334 2.552-4.218 3.13-9.243 5.36-13.609 8.799-18.606 22.864-34.243 38.555-47.341 26.115-21.991 56.301-38.69 87.562-52.137 23.993-11.15 48.98-19.976 74.209-27.875 9.928-3.157 20.379-6.18 28.305-13.313 4.984-4.353 7.926-11.271 6.489-17.88-2.257-10.787-9.86-19.331-17.236-27.096-19.143-18.754-42.021-33.088-65.033-46.562-4.5-2.284-8.651-5.468-13.568-6.784-10.438 4.178-20.352 9.605-30.481 14.509-5.669 2.646-10.868 6.395-16.994 8.007 15.099-9.363 31.582-16.322 47.475-24.194z"/><path stroke="#000" d="M270.591 181.425c10.855-3.856 22.005-6.838 33.249-9.31l1.29-.228c5.333 4.46 9.807 10.478 10.317 17.625 1.545 11.808-7.254 23.523-18.794 25.914-11.849 2.969-25.094-4.863-28.359-16.604-1.491-5.454-1.639-11.902 1.545-16.806z"/><path fill="#963" stroke="#963" d="M154.361 226.133c10.129-4.903 20.043-10.331 30.481-14.509 4.917 1.317 9.068 4.5 13.568 6.784 23.012 13.474 45.89 27.808 65.033 46.562 7.375 7.765 14.979 16.309 17.236 27.096 1.437 6.609-1.505 13.528-6.489 17.88-7.926 7.133-18.378 10.156-28.305 13.313-25.229 7.899-50.216 16.725-74.209 27.875-31.261 13.447-61.447 30.146-87.562 52.137-15.689 13.099-29.754 28.736-38.554 47.342-2.23 4.366-2.808 9.39-5.36 13.609-5.656-23.415-9.619-47.274-11.043-71.334-1.303-17.76-.416-35.721 2.942-53.212 1.155-6.636 3.708-12.923 5.011-19.519 3.923-12.964 13.461-23.026 22.636-32.55 8.262-7.456 16.51-14.965 25.659-21.346 16.604-11.782 33.706-23.106 51.962-32.12 6.126-1.614 11.325-5.362 16.994-8.008z"/><path fill="#CB9764" stroke="#CB9764" d="M883.982 236.034c2.539 1.263 5.078 2.593 7.389 4.259 11.526 8.262 23.335 16.121 34.901 24.315-2.727.833-5.441 1.666-8.128 2.566-10.667-11.164-23.389-20.125-34.162-31.14z"/><path fill="#630" stroke="#630" d="M1043.092 241.73c12.48-1.357 25.068-.618 37.575-1.625 2.203 0 4.393.296 6.623.457 59.754.134 119.037 12.292 175.433 31.596 7.657 2.929 15.637 5.172 22.932 8.974-4.635-.779-9.027-2.432-13.367-4.191-52.54-19.452-107.928-31.502-163.907-34.606-50.283-2.646-101.009 2.029-149.868 14.361-2.929.752-5.951 1.115-8.933 1.451 3.52-1.706 7.415-2.351 11.177-3.291 27.015-6.665 54.581-11.098 82.335-13.126z"/><path fill="#963" stroke="#963" d="M958.513 256.695c48.859-12.332 99.585-17.007 149.868-14.361 55.979 3.103 111.367 15.153 163.907 34.606 4.339 1.76 8.732 3.412 13.367 4.191 36.674 13.931 71.75 31.892 105.362 52.097 15.516 8.799 30.105 19.09 45.192 28.587 16.269 10.358 32.658 20.527 49.383 30.119 5.36 3.399 11.365 5.763 16.483 9.525 9.337 7.402 20.514 12.077 30.925 17.773 46.83 25.551 95.743 47.032 144.992 67.438 20.997 8.289 42.223 15.959 63.3 24.047 1.706.766 3.6.981 5.454.376.363.121 1.088.39 1.451.524l-1.612.551c6.327 3.211 13.367 4.581 20.043 6.918 19.721 6.986 39.683 13.273 59.579 19.775 2.069.846 4.285.793 6.502.497.403.107 1.196.322 1.599.43l-1.961.497c20.043 10.102 40.194 20.231 58.451 33.424 17.585 12.386 34.068 26.948 46.025 45.003 9.82 15.234 15.892 33.665 13.407 51.922-1.195 7.845-2.915 15.865-6.784 22.878-4.635 5.991-11.835 9.323-18.633 12.252-24.503 9.551-50.538 14.065-76.237 19.049-68.311 11.983-137.442 18.243-206.492 24.02-28.762 2.539-57.631 3.923-86.393 6.502 13.044 3.385 26.25 6.314 38.958 10.895 11.567 4.299 23.63 8.383 33.208 16.483 3.909 3.439 7.644 8.181 7.227 13.702-.913 6.314-5.951 10.922-10.814 14.535-10.707 7.617-23.039 12.547-35.304 17.074-14.898 5.266-30.078 10.008-45.769 12.225-33.034 4.93-66.538 5.723-99.881 5.333-39.872-.067-79.676-2.539-119.427-5.199-16.671-.605-33.249-2.445-49.866-3.721-94.266-7.201-188.021-19.587-282.058-29.192-10.72-1.008-21.44-2.391-32.214-2.405-3.641-.107-7.375 1.155-10.935.013-39.133-12.749-76.063-32.564-107.713-58.934l.148 1.894a75 75 0 0 1-2.982-2.835c-1.8-4.944-6.798-7.859-10.546-11.231l-1.867-.107a85 85 0 0 1-4.097-4.138l2.029.175c-18.767-20.527-35.654-43.244-46.71-68.916-2.324-4.769-3.869-9.928-6.811-14.388l-.148 2.23c-.148-.376-.43-1.115-.578-1.478 1.048-4.017-1.639-7.63-2.714-11.325-15.368-42.249-19.439-87.75-18.378-132.391 1.357-8.96.806-18.055 2.136-27.029 3.95-45.487 14.441-90.302 29.89-133.237.699-2.217 2.284-3.99 4.124-5.36 19.425-14.226 39.549-27.701 61.258-38.233 7.778-3.802 15.368-8.02 23.321-11.459 3.56-1.626 7.563-2.835 9.981-6.166.484-.242.994-.484 1.518-.712l2.297.322c6.972-2.311 13.635-5.588 20.675-7.778 8.933-3.412 18.579-5.28 26.787-10.358l.9-.551c6.099-1.585 11.983-4.057 18.243-4.93 2.982-.333 6.005-.696 8.934-1.448z"/><path fill="#630" stroke="#630" d="M790.522 331.75c27.419-20.03 57.484-36.191 88.637-49.598-2.418 3.332-6.421 4.541-9.981 6.166-7.953 3.439-15.543 7.657-23.321 11.459-21.709 10.532-41.833 24.006-61.258 38.233-1.84 1.37-3.426 3.144-4.124 5.36-15.449 42.935-25.941 87.75-29.89 133.237-1.33 8.974-.779 18.069-2.136 27.029-1.061 44.641 3.009 90.141 18.378 132.391 1.075 3.694 3.762 7.308 2.714 11.325-19.909-49.155-25.189-103.132-21.709-155.712 2.122-38.743 9.686-77.003 19.855-114.389 3.493-11.204 6.757-22.488 10.707-33.558 1.757-5.777 7.681-8.477 12.128-11.943z"/><path fill="#592600" stroke="#592600" d="M2157.029 331.28c11.822-2.552 24.168-1.424 36.11-.027 29.501 3.869 57.282 15.785 83.088 30.172 4.997 3.211 10.868 5.4 15.033 9.74-32.255-19.17-67.116-36.271-105.04-39.63-9.712-1.129-19.465-.067-29.191-.255z"/><path fill="#C96" stroke="#C96" d="M2120.247 340.925c11.701-4.93 24.114-8.383 36.782-9.646 9.726.188 19.479-.873 29.192.255 37.924 3.358 72.785 20.46 105.04 39.63 9.901 5.642 18.928 12.682 28.077 19.466 1.679 1.29 3.56 2.472 4.836 4.259 1.182 2.096 3.13 3.533 5.374 4.406.201.107.591.336.793.443 3.17 3.17 6.515 6.193 10.142 8.853.242.228.699.658.927.887 3.291 3.748 7.039 7.08 10.613 10.572 19.64-12.52 40.382-23.657 62.656-30.696 24.114-8.436 51.29-12.373 75.847-3.399 5.803 1.854 11.164 4.836 16.98 6.717 6.166 3.023 12.198 6.596 17.612 10.855 3.614 3.52 7.657 6.596 11.929 9.323 7.241 5.212 13.434 11.822 19.479 18.351 3.291 4.5 6.985 8.745 11.231 12.413l.698.618.215.766c.188 1.84 1.76 2.996 3.237 3.936.242.363.712 1.088.954 1.451.82 2.217 2.149 4.285 4.353 5.387 4.232 3.99 6.771 9.471 10.317 14.092-29.984-6.274-62.024-5.266-90.772 5.817-12.144 4.554-23.093 11.862-35.586 15.516-20.943 6.918-44.292 6.704-64.859-1.464-13.689-5.239-26.089-13.528-36.782-23.482-6.865-6.233-12.211-13.877-18.915-20.245-19.506-19.64-40.691-37.749-63.878-52.916-20.581-13.031-42.518-24.584-66.31-30.414-22.569-5.535-47.126-5.347-68.714 3.882-10.546 4.339-19.815 11.083-28.749 18.042-60.627 45.46-118.111 94.924-175.124 144.79-10.989 10.022-22.717 19.264-33.115 29.917-23.657-5.817-47.126-12.413-70.42-19.519-.403-.107-1.196-.322-1.599-.43-24.503-7.98-47.825-20.164-73.497-24.208-3.856-.618-7.375-2.311-11.016-3.533-.363-.134-1.088-.403-1.451-.524-25.686-9.323-51.17-19.157-76.56-29.232-37.937-15.865-75.619-32.429-112.253-51.156-4.608-2.311-9.35-4.393-13.515-7.442 36.003-3.533 72.328-4.487 108.438-1.867 5.978.081 11.902 1.303 17.907 1.128.376.027 1.128.067 1.505.094 26.384 3.748 52.97 7.362 78.548 15.18 26.236 7.698 51.882 17.988 75.162 32.456 15.462 9.659 32.832 16.416 50.955 18.834 9.941 1.814 20.164 1.626 30.159.134 24.423-3.036 47.569-12.802 68.298-25.833a43 43 0 0 0 3.036-2.62l.484-.443c8.719-5.387 16.792-11.741 25.027-17.813 7.912-4.876 14.361-11.768 21.427-17.786 17.424-16.322 33.88-33.719 49.463-51.801.188-.188.564-.564.752-.739 5.186-4.017 9.753-8.759 15.032-12.668 4.742-3.856 10.183-6.744 14.791-10.787 4.543-3.28 9.755-5.496 14.847-7.807z"/><path fill="#630" stroke="#630" d="M2094.937 354.977c3.385-2.243 6.542-4.957 10.465-6.247-4.608 4.044-10.049 6.932-14.791 10.787-5.28 3.909-9.847 8.651-15.032 12.668 5.172-6.998 12.413-12.117 19.358-17.208z"/><path fill="#592600" stroke="#592600" d="M352.793 350.195c9.525 6.771 18.404 14.415 27.486 21.776-2.875-.39-4.836-2.687-7.012-4.353-6.475-5.185-12.87-10.465-19.452-15.516-.256-.47-.767-1.437-1.022-1.907z"/><path fill="#963" stroke="#963" d="M2141.714 366.557c21.588-9.229 46.145-9.417 68.714-3.882 23.792 5.83 45.729 17.383 66.31 30.414 23.187 15.167 44.372 33.276 63.878 52.916 6.703 6.368 12.05 14.012 18.915 20.245 10.693 9.954 23.093 18.243 36.782 23.482 20.567 8.168 43.915 8.383 64.859 1.464 12.493-3.654 23.442-10.962 35.586-15.516 28.749-11.083 60.788-12.09 90.772-5.817-8.826 7.483-18.136 14.737-28.305 20.164-.564.443-1.679 1.317-2.23 1.76-15.973 10.425-33.155 18.942-50.914 25.874l-1.222.107c-5.333.322-10.156 2.875-15.274 4.097-15.637 4.084-31.959 6.489-48.12 4.769-23.267-2.109-45.635-10.116-66.282-20.809-2.042-1.048-4.205-1.827-6.354-2.458-.349-.121-1.061-.336-1.411-.457l-.631-.564c-3.95-3.775-8.893-6.287-13.877-8.369-3.305-1.545-6.273-3.708-9.135-5.911-3.197-3.52-6.005-7.402-9.793-10.304l-.39-.336-.376-.618c-2.082-3.869-4.998-7.174-8.423-9.874-17.464-17.813-34.955-35.842-55.307-50.417-26.223-19.184-56.718-35.761-90.007-35.976-18.257-.524-36.164 5.494-51.331 15.422-.604.39-1.8 1.155-2.405 1.545-15.543 12.252-31.919 23.536-47.717 35.506-16.362 12.225-32.658 24.544-49.034 36.742-5.508 3.251-10.68 7.093-15.247 11.553-2.472 2.19-5.105 4.232-7.912 5.951-.578.416-1.76 1.236-2.338 1.652-17.316 14.052-35.613 26.948-53.185 40.705-11.378 8.839-22.891 17.518-34.297 26.317-2.23 1.625-4.258 3.735-7.026 4.379a391 391 0 0 0-4.259-1.008c10.398-10.653 22.126-19.896 33.115-29.917 57.013-49.866 114.497-99.33 175.124-144.79 8.932-6.958 18.201-13.702 28.747-18.041z"/><path fill="#654322" stroke="#654322" d="M379.526 371.81c5.172 3.023 9.672 7.053 13.891 11.284-5.347-2.579-10.196-6.757-13.891-11.284z" opacity=".74"/><path fill="#630" stroke="#630" d="M2052.043 396.461c7.872-7.563 14.079-16.846 22.784-23.536-15.583 18.082-32.04 35.479-49.463 51.801-7.066 6.018-13.515 12.91-21.427 17.786 6.636-7.187 14.992-12.708 21.857-19.761 8.973-8.531 17.638-17.397 26.249-26.29z"/><path fill="#C96" stroke="#C96" d="M726.792 421.273c11.728-16.295 25.565-31.073 40.893-44.023-10.169 37.386-17.733 75.646-19.855 114.389-3.479 52.58 1.8 106.557 21.709 155.712.148.363.43 1.102.578 1.478 2.311 5.803 5.038 11.446 7.321 17.276-1.088 13.944.739 27.956-.537 41.9-.981 19.761-4.715 40.53-17.074 56.557-4.165 5.696-10.075 9.632-15.61 13.85-.081.551-.255 1.639-.336 2.19-20.406-6.878-39.442-17.303-57.497-28.91-12.158-7.832-23.845-16.443-34.74-25.941a27.8 27.8 0 0 0-4.89-3.412l-.699-.43-.349-.457c-3.681-4.93-8.732-8.584-13.004-12.964-36.795-36.406-65.839-80.066-88.784-126.319-4.608-9.834-9.941-19.399-13.353-29.729 4.541 3.641 7.362 8.934 11.902 12.601 7.375 6.677 17.33 11.634 27.499 9.457 10.062-2.351 16.98-11.325 20.581-20.527 11.781-30.75 22.287-61.984 31.731-93.527 2.405-7.415 4.124-15.194 8.289-21.884 5.239 6.798 7.308 15.355 11.392 22.838 10.263 21.105 25.309 39.724 43.123 54.958 2.445 2.082 6.663 4.729 9.363 1.625 3.238-3.99 3.869-9.323 4.809-14.2 2.593-16.443 4.433-33.141 9.78-48.993 3.907-12.115 10.423-23.198 17.758-33.515z"/><path fill="#630" stroke="#630" d="M2432.933 382.933c11.62-2.593 23.617-3.976 35.519-2.969 12.413.954 24.329 5.172 35.56 10.358a13.9 13.9 0 0 1 3.493 2.351c-5.817-1.881-11.177-4.863-16.98-6.717-24.557-8.974-51.734-5.038-75.847 3.399-22.274 7.039-43.015 18.176-62.656 30.696-3.573-3.493-7.322-6.824-10.613-10.572 4.447 1.572 7.214 5.991 10.667 9.095 25.026-15.719 51.961-28.911 80.857-35.641zM394.129 383.712c6.811 5.172 13.34 10.761 19.345 16.859-5.145-2.378-8.598-7.053-13.004-10.438-2.23-2.001-5.253-3.439-6.341-6.421z"/><path fill="#512C0B" stroke="#512C0B" d="M2324.173 394.889c2.243-.806 5.951 1.988 5.374 4.406-2.244-.873-4.192-2.31-5.374-4.406z" opacity=".72"/><path fill="#3C1D01" stroke="#3C1D01" d="M2125.741 397.509c.604-.39 1.8-1.155 2.405-1.545l-.054 1.249-1.236.806z" opacity=".56"/><path fill="#4B2808" stroke="#4B2808" d="M2330.339 399.739c4.164 1.572 8.006 4.917 10.142 8.853-3.627-2.66-6.972-5.683-10.142-8.853z" opacity=".64"/><path fill="#630" stroke="#630" d="M414.199 401.19c1.881 1.411 3.761 2.848 5.468 4.487 13.931 13.232 28.399 26.062 40.839 40.758a18 18 0 0 1-3.56-2.687c-12.399-12.722-24.799-25.457-38.152-37.185-1.693-1.639-3.708-3.103-4.595-5.373zM1502.074 401.458c4.514 1.733 8.584 4.393 12.789 6.771 8.759 4.957 17.867 9.256 26.572 14.307 43.19-4.782 86.85-4.971 130.107-.873l-.779.86c-6.005.175-11.929-1.048-17.907-1.128-36.11-2.62-72.435-1.666-108.438 1.867 4.164 3.049 8.907 5.132 13.515 7.442 36.634 18.727 74.316 35.291 112.253 51.156 25.39 10.075 50.874 19.909 76.56 29.232-1.854.605-3.748.39-5.454-.376-21.078-8.087-42.303-15.758-63.3-24.047-49.249-20.406-98.161-41.887-144.992-67.438-10.413-5.696-21.59-10.371-30.926-17.773z"/><path fill="#502B09" stroke="#502B09" d="M2525.117 403.527c4.541 2.002 9.175 5.065 11.929 9.323-4.272-2.727-8.316-5.803-11.929-9.323z" opacity=".69"/><path fill="#630" stroke="#630" d="M1672.268 422.617c13.864-.376 27.486 3.332 41.175 5.159 41.121 7.698 81.476 21.561 117.036 43.875 24.221 14.697 53.601 20.178 81.517 15.664a153.8 153.8 0 0 0 43.324-13.971c7.939-3.761 15.247-8.692 23.106-12.574a43 43 0 0 1-3.036 2.62c-20.729 13.031-43.875 22.797-68.298 25.833-10.048.457-20.124.309-30.159-.134-18.122-2.418-35.492-9.175-50.955-18.834-23.281-14.468-48.926-24.759-75.162-32.456-25.579-7.821-52.164-11.434-78.548-15.182z"/><path fill="#603710" stroke="#603710" d="M2556.525 431.201c4.527 3.17 8.705 7.416 11.231 12.413-4.246-3.668-7.94-7.913-11.231-12.413z" opacity=".76"/><path fill="#522C09" stroke="#522C09" d="M2568.669 444.997c1.894-.819 4.191 2.176 3.237 3.936-1.477-.94-3.049-2.095-3.237-3.936z" opacity=".76"/><path fill="#592600" stroke="#592600" d="M461.15 447.08a21.8 21.8 0 0 1 5.709 6.18c-2.605.725-6.138-3.614-5.709-6.18z"/><path fill="#572F0C" stroke="#572F0C" d="M2572.861 450.384c2.405-.497 5.091 3.13 4.353 5.387-2.204-1.101-3.534-3.17-4.353-5.387z" opacity=".76"/><path fill="#977546" stroke="#977546" d="M467.558 453.877c1.491.833 3.103 1.948 3.399 3.788-1.854.874-4.339-2.028-3.399-3.788z" opacity=".9"/><path fill="#70471F" stroke="#70471F" d="M471.804 458.942c2.19 1.142 3.52 3.291 4.823 5.32-2.513.967-5.334-3.023-4.823-5.32z" opacity=".82"/><path fill="#630" stroke="#630" d="M476.653 464.288c13.582 15.839 25.874 32.819 36.218 50.941 6.838 11.943 11.405 24.987 17.692 37.212 3.412 10.331 8.745 19.896 13.353 29.729 22.945 46.253 51.989 89.913 88.784 126.319 4.272 4.379 9.323 8.033 13.004 12.964-2.23-.887-3.882-2.66-5.521-4.299-48.093-44.278-83.062-100.996-109.54-160.347-5.803-12.588-10.317-25.78-17.061-37.937-10.277-19.063-23.294-36.473-36.943-53.225z"/><path fill="#583009" stroke="#583009" d="M2324.791 466.935c3.426 2.7 6.341 6.005 8.423 9.874-3.493-2.606-6.65-5.857-8.423-9.874z" opacity=".76"/><path fill="#492706" stroke="#492706" d="M2013.743 481.309c4.568-4.46 9.74-8.302 15.247-11.553-4.446 4.5-9.766 8.437-15.247 11.553z" opacity=".65"/><path fill="#5D340C" stroke="#5D340C" d="M2333.979 477.763c3.789 2.902 6.596 6.784 9.793 10.304-4.365-2.069-7.751-6.032-9.793-10.304z" opacity=".78"/><path fill="#3B1D00" stroke="#3B1D00" d="M2003.493 488.913c.578-.416 1.76-1.236 2.338-1.652v1.263l-1.209.846z" opacity=".57"/><path fill="#91612D" stroke="#91612D" d="M1876.932 489.087c10.035.443 20.11.591 30.159.134-9.994 1.492-20.217 1.68-30.159-.134z" opacity=".93"/><path fill="#401F02" stroke="#401F02" d="M2556.995 491.788c.551-.443 1.666-1.317 2.23-1.76l.067 1.249-1.142.9z" opacity=".6"/><path fill="#60350A" stroke="#60350A" d="M2352.908 493.977c4.984 2.082 9.928 4.594 13.877 8.369-4.984-2.082-9.981-4.607-13.877-8.369z" opacity=".8"/><path fill="#630" stroke="#630" d="M2368.827 503.368c2.149.631 4.312 1.411 6.354 2.458 20.648 10.693 43.015 18.7 66.282 20.809 16.161 1.72 32.483-.685 48.12-4.769 5.118-1.222 9.941-3.775 15.274-4.097-14.938 6.3-31.14 9.457-47.274 10.599-26.895.927-53.305-7.107-77.352-18.619-3.841-2.069-8.113-3.48-11.404-6.381z"/><path fill="#592600" stroke="#592600" d="m1746.584 512.167 1.612-.551c3.641 1.222 7.16 2.915 11.016 3.533 25.672 4.044 48.993 16.228 73.497 24.208-2.217.296-4.433.349-6.502-.497-19.896-6.502-39.858-12.789-59.579-19.775-6.678-2.337-13.717-3.708-20.044-6.918z"/><path fill="#630" stroke="#630" d="m1832.345 540.284 1.961-.497c23.294 7.106 46.763 13.703 70.42 19.519 1.397.322 2.821.658 4.259 1.008 14.482 4.406 29.326 7.469 44.023 11.123 30.28 7.416 60.815 13.729 91.471 19.331 43.701 8.369 87.71 15.221 131.947 19.949.255.43.752 1.317 1.008 1.746-3.13 3.855-6.972 6.999-10.639 10.29-27.123 25.807-55.67 50.041-84.042 74.424-38.73 32.335-78.548 63.475-120.125 92.103-32.94 22.448-66.766 43.862-102.877 60.882-7.053 3.748-14.723 6.193-21.655 10.183-13.702 4.594-27.217 9.914-41.403 12.923-13.165 3.587-26.881 3.869-40.248 6.193 3.103 4.111 7.993 7.08 9.377 12.305-3.802-3.99-7.55-8.047-10.935-12.386-126.171 11.728-253.175 7.16-379.359-1.935-5.897 16.027-11.499 32.403-13.084 49.504-1.451 11.567.672 23.281 5.964 33.638-2.015-.981-2.458-3.372-3.372-5.172-6.717-14.979-4.057-32-.443-47.422 2.284-10.586 6.596-20.594 9.619-30.952-67.263-4.715-134.312-12.332-201.038-22.058-43.351-6.677-86.635-13.958-129.543-23.147-2.163 17.988-6.448 35.989-14.213 52.406 1.787-6.569 4.648-12.762 6.542-19.291 3.17-10.922 5.629-22.072 6.744-33.397-25.081-5.306-49.92-11.674-74.518-18.875-46.024-12.776-90.195-33.88-126.937-64.644l-.148-1.894c31.65 26.371 68.58 46.186 107.713 58.934 3.56 1.142 7.295-.121 10.935-.013 10.774.013 21.494 1.397 32.214 2.405 94.037 9.605 187.792 21.991 282.058 29.192 16.618 1.276 33.195 3.117 49.866 3.721 39.751 2.66 79.555 5.132 119.427 5.199 33.343.39 66.847-.403 99.881-5.333 15.691-2.217 30.871-6.959 45.769-12.225 12.265-4.527 24.597-9.457 35.304-17.074 4.863-3.614 9.901-8.222 10.814-14.535.417-5.521-3.318-10.263-7.227-13.702-9.578-8.101-21.642-12.185-33.208-16.483-12.708-4.581-25.914-7.51-38.958-10.895 28.762-2.579 57.631-3.963 86.393-6.502 69.05-5.777 138.181-12.037 206.492-24.02 25.699-4.984 51.734-9.498 76.237-19.049 6.797-2.929 13.998-6.26 18.633-12.252 3.869-7.013 5.589-15.033 6.784-22.878 2.485-18.257-3.587-36.688-13.407-51.922-11.956-18.055-28.439-32.617-46.025-45.003-18.256-13.191-38.407-23.32-58.451-33.422zM770.264 646.599c2.942 4.46 4.487 9.619 6.811 14.388 11.056 25.672 27.943 48.389 46.71 68.916l-2.029-.175c-2.821-2.982-5.387-6.193-8.195-9.162-12.655 25.457-24.96 51.156-34.847 77.836-10.774 28.238-21.373 56.57-30.213 85.493-6.099 21.226-13.273 42.156-18.458 63.636 9.551-9.632 19.17-19.157 28.748-28.762 2.915 14.334 6.609 28.507 9.484 42.854 17.719-.551 35.331-2.929 53.01-4.339 3.385 12.735 6.408 25.565 9.847 38.286 17.585-10.908 34.888-22.3 52.473-33.222 1.128 2.082 2.27 4.191 3.237 6.381a21 21 0 0 0-1.894 3.909c-6.354 21.158-12.185 42.478-18.7 63.582 21.642 6.663 42.975 14.912 62.414 26.639 7.563 4.527 14.038 11.258 16.833 19.761 2.203 5.562 1.787 11.62 1.652 17.491 10.572 5.401 22.341 11.056 28.036 22.112 5.777 10.048 4.769 22.461.833 32.98-7.321 19.99-21.427 36.527-36.151 51.519-2.7 2.485-5.078 5.777-8.88 6.556 4.474-11.943 8.154-24.893 5.562-37.722-1.451-10.761-7.389-20.527-15.301-27.795-4.608 4.796-8.544 10.196-13.461 14.71-2.458 2.122-4.527 5.306-8.034 5.669 2.66-10.304 6.677-20.688 5.454-31.583-22.166-9.847-46.441-13.273-70.273-16.524-28.104-2.982-56.476-5.065-84.701-2.848-12.776 1.021-25.417 6.569-33.88 16.362-13.864 15.059-19.802 35.492-23.308 55.227-2.485 14.374-3.17 28.99-2.955 43.553-5.387-.685-8.007-6.516-11.11-10.344 3.681 2.62 6.515 6.193 9.86 9.229-.228-7.886-1.84-15.677-1.666-23.576.013-20.796-1.034-42.908 9.068-61.85 9.256-19.089 27.754-31.986 47.381-38.797 23.67-8.114 49.087-9.444 73.873-7.604 9.269-36.54 18.069-73.228 26.559-109.956-4.836 2.096-8.611 6.677-14.079 7.066-3.533-12.413-6.354-25.027-9.753-37.48-6.502.497-13.071.873-19.479 2.015-11.405 29.877-21.669 60.184-32.55 90.249-.793 1.37-1.088 4.057-3.197 3.829-19.251-1.438-38.582-.081-57.873-.672-26.948 1.33-54.004 2.996-80.536 8.168-18.028 3.506-36.218 8.222-52.029 17.88-3.17 2.082-6.395 4.111-9.901 5.602 3.641-3.345 7.456-6.502 10.962-9.995 2.942 1.881 5.736-1.303 8.463-2.163 25.081-11.593 52.889-15.382 80.12-18.136 33.034-3.143 66.296-3.573 99.437-2.284 3.117.416 3.211-3.412 4.259-5.414 9.726-29.259 21.064-57.967 31.032-87.146-10.572.47-21.131 3.143-31.691 1.478-2.203-8.369-3.896-16.846-5.682-25.296-2.176 4.299-3.802 8.839-5.347 13.394-5.938 16.443-11.996 32.846-17.706 49.369-.846 2.552-2.136 4.917-3.627 7.147 8.141-24.248 17.168-48.201 25.659-72.328.013-4.554-1.908-8.947-2.432-13.474-8.96 9.054-17.813 18.27-27.123 26.962-.618.121-1.84.349-2.445.47 1.988-9.713 5.172-19.143 7.711-28.708-4.218-14.267-6.717-29.057-10.277-43.526-9.417 9.175-18.203 19.022-28.157 27.607-.349-1.357-.981-2.754-.376-4.138 11.11-40.785 23.738-81.167 38.26-120.865-32.067-13.232-61.729-32.08-87.857-54.85-.269-.47-.806-1.384-1.088-1.854a27.8 27.8 0 0 1 4.89 3.412c10.895 9.498 22.582 18.109 34.74 25.941 18.055 11.607 37.091 22.032 57.497 28.91-.067.457-.188 1.37-.242 1.827a242 242 0 0 0-6.784-2.848c-14.777 40.463-27.902 81.544-38.784 123.229 9.672-9.484 19.076-19.224 28.762-28.681 2.673 12.708 5.777 25.323 8.369 38.045.242 1.719.981 3.318 1.881 4.823 11.567-41.672 26.277-82.363 41.538-122.812 10.29-25.229 21.078-50.35 33.947-74.383-13.407-16.712-25.578-34.485-35.13-53.695-2.284-5.83-5.011-11.473-7.321-17.276z"/><path fill="#963" stroke="#963" d="M777.438 666.105c9.551 19.21 21.723 36.983 35.13 53.695-12.87 24.033-23.657 49.154-33.947 74.383a233 233 0 0 1-3.144-1.491c-.578-2.136-1.397-2.297-2.432-.484-.443-.175-1.317-.524-1.76-.698-.484-2.163-1.29-2.351-2.405-.564-.363-.175-1.102-.497-1.464-.658-.054-2.297-2.834-2.687-3.936-.9-.47-.215-1.437-.658-1.921-.873l.067-.537c-.188.067-.564.215-.752.295-.873-.255-2.593-.766-3.453-1.021l.296-.484c-.228.081-.685.228-.913.296-.739-.188-2.243-.564-2.982-.752 3.358-1.169-1.33-3.573-1.088-.363-.699-.242-2.109-.739-2.808-.981 3.305-1.196-1.357-3.6-1.075-.403a184 184 0 0 1-5.212-2.136c.054-.457.175-1.37.242-1.827.081-.551.255-1.639.336-2.19 5.535-4.218 11.446-8.154 15.61-13.85 12.359-16.027 16.094-36.795 17.074-56.557 1.275-13.944-.552-27.955.537-41.9z"/><path fill="#C96" stroke="#C96" d="M813.561 720.566c2.808 2.969 5.374 6.18 8.195 9.162a85 85 0 0 0 4.097 4.138c4.07 3.842 8.074 7.765 12.413 11.338a76 76 0 0 0 2.982 2.835c36.742 30.764 80.912 51.868 126.937 64.644-4.688 26.223-10.519 52.365-19.788 77.392-6.838 17.76-15.959 34.928-29.111 48.832-9.847 10.452-21.803 19.291-35.68 23.442-17.585 10.922-34.888 22.314-52.473 33.222-3.439-12.722-6.462-25.551-9.847-38.286-17.679 1.411-35.291 3.788-53.01 4.339-2.875-14.347-6.569-28.52-9.484-42.854-9.578 9.605-19.197 19.13-28.748 28.762 5.185-21.481 12.359-42.411 18.458-63.636 8.839-28.923 19.439-57.255 30.213-85.493 9.886-26.681 22.191-52.379 34.846-77.837z"/><path fill="#592600" stroke="#592600" d="m825.853 733.866 1.867.107c3.748 3.372 8.745 6.287 10.546 11.231-4.339-3.573-8.342-7.496-12.413-11.338z"/><path fill="#C96" stroke="#C96" d="M736.854 779.581c2.257.913 4.527 1.854 6.784 2.848 1.706.739 3.452 1.437 5.212 2.136l1.075.403c.699.242 2.109.739 2.808.981l1.088.363c.739.188 2.244.564 2.982.752l.618.188c.86.255 2.579.766 3.453 1.021l.685.242c.484.215 1.451.658 1.921.873.994.215 2.956.672 3.936.9.363.161 1.102.484 1.464.658.605.134 1.8.416 2.405.564.443.175 1.317.524 1.76.698l2.432.484c.779.376 2.351 1.128 3.144 1.491-15.261 40.449-29.971 81.141-41.538 122.812-.9-1.505-1.639-3.103-1.881-4.823-2.593-12.722-5.696-25.336-8.369-38.045-9.686 9.457-19.09 19.197-28.762 28.681 10.881-41.683 24.005-82.764 38.783-123.227z"/><path fill="#6F3C09" stroke="#6F3C09" d="M748.85 784.565c-.282-3.197 4.379-.793 1.075.403z"/><path fill="#6C390B" stroke="#6C390B" d="M752.733 785.949c-.242-3.211 4.447-.806 1.088.363z"/><path fill="#5C2900" stroke="#5C2900" d="M756.803 787.064c.228-.067.685-.215.913-.296l-.296.484z"/><path fill="#572400" stroke="#572400" d="M760.874 788.273c.188-.081.564-.228.752-.295l-.067.537z"/><path fill="#764311" stroke="#764311" d="M763.48 789.388c1.102-1.787 3.882-1.397 3.936.9-.981-.228-2.942-.685-3.936-.9z"/><path fill="#6B3805" stroke="#6B3805" d="M768.88 790.946c1.115-1.787 1.921-1.599 2.405.564-.605-.147-1.8-.429-2.405-.564z"/><path fill="#6D3A07" stroke="#6D3A07" d="M773.045 792.209c1.034-1.814 1.854-1.652 2.432.484z"/><path fill="#963" stroke="#963" d="M968.185 812.682c24.597 7.201 49.437 13.568 74.518 18.875-1.115 11.325-3.573 22.475-6.744 33.397-1.894 6.529-4.756 12.722-6.542 19.291-9.148 21.844-22.126 42.182-37.494 60.143-.416.591-1.249 1.773-1.679 2.364-5.172 6.744-10.989 13.112-17.128 19.063-18.23 18.915-38.313 36.204-60.439 50.417-4.473-6.341-7.469-13.555-11.405-20.205-4.729-9.148-10.277-17.88-14.428-27.298-.967-2.19-2.109-4.299-3.237-6.381 13.877-4.151 25.833-12.991 35.68-23.442 13.152-13.904 22.273-31.073 29.111-48.832 9.268-25.026 15.099-51.169 19.787-77.392zM1796.692 873.269c14.186-3.009 27.701-8.329 41.403-12.923 8.974 7.026 17.41 14.724 26.693 21.373 9.363 7.429 19.237 14.388 28.238 22.193 2.015 3.305 4.661 6.475 8.625 7.416l.685.269c9.86 9.619 20.137 22.045 18.391 36.768-6.529 50.041-25.43 98.108-52.285 140.639-2.848 2.861-4.836 6.394-6.381 10.089-2.096 3.05-3.708 6.905-6.838 8.947-1.437.591-2.203 1.679-2.284 3.278-.9 3.036-3.479 5.212-5.199 7.805-2.002 2.324-3.399 5.656-6.596 6.529-4.715 1.343-9.377 2.955-14.2 3.882-4.971.537-9.766 1.908-14.589 3.13 13.488-23.375 26.384-47.314 34.901-73.026 5.186-14.858 9.74-29.971 12.87-45.406.994-5.629 3.09-11.338 1.531-17.061q.161-1.632.403-3.224c.363.819 1.061 2.432 1.424 3.237.349-4.675.43-9.35.188-14.011-.376.376-1.155 1.128-1.531 1.505-.215-.658-.658-1.961-.873-2.606 1.827-1.088 1.652-1.881-.51-2.391a86 86 0 0 1-.578-1.679c.027-.228.067-.672.094-.9l-.322.322c-.282-.551-.846-1.666-1.128-2.23.027-.161.081-.51.107-.672l-.363.067c-.121-.228-.39-.685-.51-.9.255-3.426-2.499-5.884-4.406-8.342-15.959-18.378-36.836-31.328-55.536-46.615-1.491-1.102-2.929-2.633-4.944-2.297a35 35 0 0 1-.873-.752c-1.33-2.969-3.708-5.682-7.12-5.978a39 39 0 0 1-1.008-.887c-1.048-2.848-3.439-4.823-5.548-6.851-2.042-1.881-4.057-4.151-7.012-4.299-2.163-1.746-4.084-3.735-5.79-5.897-1.384-5.226-6.274-8.195-9.377-12.305 13.367-2.328 27.083-2.61 40.248-6.197z"/><path fill="#C96" stroke="#C96" d="M1375.527 877.447c126.184 9.095 253.188 13.662 379.359 1.935 3.385 4.339 7.133 8.396 10.935 12.386 1.706 2.163 3.627 4.151 5.79 5.897 4.057 3.842 8.195 7.631 12.561 11.15q.464.423 1.008.887c2.27 2.096 4.662 4.07 7.12 5.978.255.228.551.484.873.752 17.585 14.912 37.266 27.298 53.789 43.472 4.245 4.111 7.805 8.866 11.096 13.783.121.215.39.672.51.9l.255.605c.282.564.846 1.679 1.128 2.23l.229.578c.134.417.43 1.263.578 1.679.121.604.376 1.787.51 2.391.215.645.658 1.948.873 2.606.188 3.076.202 6.18-.081 9.269a62 62 0 0 0-.403 3.224c-2.284 16.739-6.744 33.115-12.064 49.128-5.051 7.738-7.711 16.739-12.292 24.772-13.219 24.906-30.669 47.61-51.317 66.833-5.468 4.863-10.653 10.317-17.33 13.541-48.94 22.206-99.317 42.142-152.058 53.265-4.151.752-8.248 1.733-12.292 2.834-15.879 2.203-32.04 3.694-48.039 1.988-14.092-1.061-28.09-3.211-41.873-6.287 9.578-5.978 21.857-8.262 28.896-17.813 2.996-3.533 3.372-8.275 3.023-12.695-9.417 2.351-18.431 6.059-27.23 10.116-8.221 4.044-16.739 8.557-22.152 16.241-11.607-3.318-23.456-6.139-34.552-10.908 9.054-4.769 19.573-7.55 26.585-15.476 3.681-3.842 4.971-9.363 3.977-14.522-16.806 5.347-34.592 11.284-47.193 24.208-11.674-4.232-23.039-9.283-34.162-14.777 9.256-4.42 20.084-7.617 26.156-16.51 2.579-3.453 2.915-7.832 2.552-11.97-9.995 2.123-19.143 6.945-28.654 10.411l-1.531-.672c5.387-9.054 10.572-18.404 17.719-26.223 3.036-2.646 5.75-5.656 7.966-9.028l.819-.927c4.541-3.708 8.759-7.765 12.937-11.875 9.296-8.007 20.164-14.495 31.717-18.633 3.332-.551 6.583-1.599 9.646-3.049.578-.188 1.733-.537 2.311-.712.39-.188 1.142-.564 1.531-.752 2.687-.282 5.32-.954 7.872-1.934.564-.148 1.693-.47 2.27-.618 2.378-.524 4.742-1.209 7.093-1.934.672-.161 1.988-.47 2.66-.631 29.299-7.241 57.981-16.792 86.487-26.653 25.497-9.337 51.586-17.263 76.184-28.883-8.732 1.867-16.766 5.911-25.283 8.423-17.88 6.421-36.151 11.688-54.649 15.973-.564.148-1.706.43-2.284.578-3.963.752-7.912 1.585-11.862 2.378-.336.04-.994.134-1.33.175-1.908.161-3.788.47-5.615.9a135 135 0 0 1-3.735.457 42 42 0 0 0-5.696.792c-1.33.202-2.646.39-3.949.578-3.869.47-7.751.645-11.62.819-5.965.161-11.902.994-17.867.846-5.871.054-11.714-1.061-17.558-.39l-1.209.067c-26.371-2.485-52.553-8.92-76.143-21.212a129 129 0 0 0-8.772-4.299c-.121-.081-.376-.228-.51-.309-3.479-3.117-7.429-5.629-11.593-7.698-.242-.202-.725-.605-.954-.806-.927-1.545-2.271-2.794-4.03-3.17-.323-.228-.981-.672-1.303-.9-.9-1.988-2.512-3.453-4.594-4.003l-.269-.121c-10.022-9.135-19.506-18.915-27.432-29.944-3.372-4.393-5.83-9.417-9.538-13.514l-.524-.605-.591-1.451c-5.293-10.358-7.415-22.072-5.964-33.638 1.582-17.1 7.184-33.476 13.082-49.503z"/><path fill="#630" stroke="#630" d="M1771.611 897.665c2.956.148 4.971 2.418 7.012 4.299 2.109 2.029 4.5 4.003 5.548 6.851-4.365-3.519-8.503-7.308-12.56-11.15z"/><path fill="#6A3B10" stroke="#6A3B10" d="M1893.026 903.912c3.265 1.948 6.099 4.568 8.625 7.416-3.963-.941-6.61-4.111-8.625-7.416z" opacity=".87"/><path fill="#592600" stroke="#592600" d="M1785.179 909.702c3.412.296 5.79 3.009 7.12 5.978-2.458-1.908-4.85-3.883-7.12-5.978z"/><path fill="#630" stroke="#630" d="M1793.172 916.432c2.015-.336 3.452 1.196 4.944 2.297 18.7 15.288 39.576 28.238 55.536 46.615 1.908 2.458 4.662 4.917 4.406 8.342-3.291-4.917-6.851-9.672-11.096-13.783-16.524-16.173-36.205-28.559-53.79-43.471z"/><path fill="#963" stroke="#963" d="M756.212 950.527c1.545-4.554 3.17-9.095 5.347-13.394 1.787 8.45 3.479 16.927 5.682 25.296 10.559 1.666 21.118-1.008 31.691-1.478-9.968 29.178-21.306 57.886-31.032 87.146-1.048 2.002-1.142 5.83-4.259 5.414-33.141-1.29-66.404-.86-99.437 2.284-27.23 2.754-55.039 6.542-80.12 18.136-2.727.86-5.521 4.044-8.463 2.163 2.472-1.733 2.767-4.406 1.894-7.053-7.227-5.024-15.959-.417-22.099 4.138-8.571 5.548-15.113 13.474-22.757 20.084-9.766 6.838-15.731 17.652-24.087 25.995-6.112-15.812-5.992-34.149 1.397-49.517 4.756-10.264 12.494-18.834 21.185-25.954 4.003-3.345 8.638-5.857 12.373-9.538 2.096-2.055 4.944-3.009 7.563-4.232 6.797-2.942 13.635-6.032 20.93-7.536 7.577-.793 14.885-3.049 22.341-4.568 22.126-4.353 44.614-6.408 67.102-7.671 15.261.242 30.481-1.303 45.742-.699 9.336.054 18.66.672 28.01.685l-.269-2.512-.067-.672c1.491-2.23 2.781-4.594 3.627-7.147 5.71-16.524 11.768-32.927 17.706-49.37z"/><path fill="#442201" stroke="#442201" d="M990.243 946.752c.43-.591 1.263-1.773 1.679-2.364l.43 1.155-.86 1.209z" opacity=".66"/><path fill="#963" stroke="#963" d="M800.745 961.033c6.408-1.142 12.977-1.518 19.479-2.015 3.399 12.453 6.22 25.068 9.753 37.48 5.468-.39 9.242-4.97 14.079-7.066-8.49 36.728-17.289 73.416-26.559 109.956-24.786-1.84-50.202-.51-73.873 7.604-19.627 6.811-38.125 19.708-47.381 38.797-10.102 18.942-9.054 41.054-9.068 61.85-.175 7.899 1.437 15.691 1.666 23.576-3.345-3.036-6.18-6.609-9.86-9.229-4.164-3.278-7.335-7.684-10.331-11.956a266 266 0 0 1-1.733-2.297c-6.139-7.241-10.76-15.651-15.059-24.073l-.027-.282c-.39-6.233-2.109-12.373-1.612-18.646.363-7.832 2.875-15.342 3.775-23.106.336-2.284-.551-4.581-2.217-6.139-3.627-1.37-7.644-.242-10.532 2.176-7.362 5.83-11.983 14.267-16.51 22.314-1.787 3.009-2.942 6.314-3.788 9.699-5.212 12.413-10.196 24.96-14.495 37.736h-2.458c-9.135-13.971-16.336-29.931-16.913-46.844.672-9.82 3.332-20.084 9.861-27.66 4.971-4.191 9.498-8.96 13.528-14.052 2.445-2.808-.457-6.274-3.117-7.483-5.091-2.834-10.908-.134-15.556 2.324-9.646 5.682-17.894 13.421-25.78 21.293-2.297 2.27-4.621 4.581-6.26 7.389-1.787 4.165-5.494 6.919-8.329 10.304-3.211 3.99-6.368 8.033-9.646 11.956-.51-.094-1.531-.269-2.042-.363-5.065-10.693-4.93-22.918-3.896-34.444 2.526-13.662 9.592-26.612 19.681-36.097 1.29-.551 2.243-1.451 2.848-2.7 1.599-2.136 4.097-3.466 6.287-4.944 3.506-1.491 6.73-3.52 9.901-5.602 15.812-9.659 34.001-14.374 52.029-17.88 26.532-5.172 53.588-6.838 80.536-8.168 19.291.591 38.622-.766 57.873.672 2.109.228 2.405-2.458 3.197-3.829 10.88-30.068 21.144-60.374 32.549-90.251z"/><path fill="#630" stroke="#630" d="M1369.522 962.645c3.708 4.097 6.166 9.122 9.538 13.514 7.926 11.029 17.41 20.809 27.432 29.944-5.199-2.23-8.799-6.838-12.802-10.64-8.854-10.263-18.432-20.432-24.168-32.818z"/><path fill="#633000" stroke="#633000" d="m1858.568 974.587.363-.067c-.027.161-.08.51-.107.672z"/><path fill="#5F2C00" stroke="#5F2C00" d="m1859.952 977.422.322-.322c-.027.228-.067.672-.094.9z"/><path fill="#630" stroke="#630" d="M1860.758 979.679c2.163.51 2.338 1.303.51 2.391a159 159 0 0 1-.51-2.391z"/><path fill="#633004" stroke="#633004" d="M1862.142 984.676c.376-.376 1.155-1.128 1.531-1.505.242 4.662.161 9.337-.188 14.011-.363-.806-1.061-2.418-1.424-3.237.282-3.089.269-6.192.081-9.269z"/><path fill="#630" stroke="#630" d="M1861.658 997.17c1.558 5.723-.537 11.432-1.531 17.061-3.13 15.436-7.684 30.549-12.87 45.406-8.517 25.712-21.414 49.652-34.901 73.026 4.823-1.223 9.619-2.593 14.589-3.13-5.306 2.499-11.177 3.372-16.725 5.118 1.746-6.059 5.817-10.962 8.732-16.443 12.829-22.703 23.912-46.669 30.643-71.911 5.319-16.013 9.779-32.389 12.063-49.127z"/><path fill="#865626" stroke="#865626" d="M1406.76 1006.224c2.082.551 3.694 2.015 4.594 4.003-2.014.686-5.238-1.907-4.594-4.003z" opacity=".9"/><path fill="#630" stroke="#630" d="M582.082 1019.403c31.261-7.55 63.502-10.237 95.595-10.895 18.391-.457 36.836-.739 55.186.551.524-.336 1.558-1.008 2.082-1.343l.269 2.512c-9.35-.013-18.673-.631-28.01-.685-15.261-.605-30.482.94-45.742.699-22.488 1.263-44.977 3.318-67.102 7.671-7.456 1.518-14.764 3.775-22.341 4.568 3.145-1.614 6.638-2.339 10.063-3.078z"/><path fill="#5F350C" stroke="#5F350C" d="M1412.658 1011.128c1.76.376 3.103 1.625 4.03 3.17-1.746.967-4.943-1.236-4.03-3.17z" opacity=".81"/><path fill="#623914" stroke="#623914" d="M1417.642 1015.104c4.164 2.069 8.114 4.581 11.593 7.698-4.258-1.572-8.92-3.977-11.593-7.698z" opacity=".78"/><path fill="#976431" stroke="#976431" d="M1652.036 1025.448c8.517-2.512 16.551-6.556 25.283-8.423-24.598 11.62-50.686 19.546-76.184 28.883-28.507 9.86-57.188 19.412-86.487 26.653a86 86 0 0 1-1.263-1.76c30.119-8.262 59.821-17.934 89.537-27.539-1.854-.618-3.708-1.236-5.535-1.84 18.498-4.287 36.769-9.553 54.649-15.974z"/><path fill="#630" stroke="#630" d="M1429.746 1023.11a129 129 0 0 1 8.772 4.299c23.59 12.292 49.772 18.727 76.143 21.212-8.195 1.222-16.376-1.061-24.423-2.391-19.345-3.412-37.924-10.425-55.334-19.452-1.827-1.048-4.097-1.72-5.158-3.668zM504.031 1083.912c4.218-21.682 20.299-39.67 39.496-49.665-3.735 3.681-8.369 6.193-12.373 9.538-8.692 7.12-16.43 15.691-21.185 25.954-7.389 15.368-7.51 33.706-1.397 49.517 8.356-8.342 14.32-19.157 24.087-25.995-3.238 4.85-8.007 8.436-11.405 13.179-4.285 4.393-7.456 9.793-12.104 13.81a296 296 0 0 0-1.478-.43c-4.836-11.203-5.857-23.965-3.641-35.908z"/><path fill="#963" stroke="#963" d="M1595.103 1041.999c.578-.148 1.72-.43 2.284-.578 1.827.604 3.681 1.223 5.535 1.84-29.716 9.605-59.418 19.278-89.537 27.539.309.443.94 1.33 1.263 1.76-.672.161-1.988.47-2.66.631-2.096-2.123-5.669-.927-7.604.739.121.296.376.887.51 1.196-.578.148-1.706.47-2.27.618-2.472-2.499-6.448-.819-7.872 1.934-.39.188-1.142.564-1.531.752-1.25-1.773-2.015-1.531-2.311.712-3.063 1.451-6.314 2.499-9.646 3.049 10.022-12.668 21.817-23.832 34.606-33.638 5.844-.672 11.687.443 17.558.39 5.964.148 11.902-.685 17.867-.846 4.729 1.397 9.672 1.182 14.536.725a293 293 0 0 0-2.915-1.545c1.303-.188 2.62-.376 3.949-.578 2.203 1.787 5.253 1.639 7.805.645-.524-.363-1.585-1.075-2.109-1.437a132 132 0 0 0 3.735-.457c1.276 1.558 7.59 2.284 5.615-.9.336-.04.994-.134 1.33-.175 4.527 1.679 9.283-.269 13.81-1.021-.483-.348-1.451-1.02-1.948-1.355z"/><path fill="#774412" stroke="#774412" d="M1583.241 1044.376c3.95-.793 7.899-1.626 11.862-2.378a99 99 0 0 1 1.948 1.357c-4.527.753-9.283 2.701-13.81 1.021z"/><path fill="#6B3808" stroke="#6B3808" d="M1576.296 1045.451a39 39 0 0 1 5.615-.9c1.975 3.184-4.339 2.458-5.615.9z"/><path fill="#6A3708" stroke="#6A3708" d="M1566.865 1046.7a42 42 0 0 1 5.696-.792c.524.363 1.585 1.075 2.109 1.437-2.552.994-5.602 1.142-7.805-.645z"/><path fill="#963" stroke="#963" d="M1837.303 1071.069c4.581-8.033 7.241-17.034 12.292-24.772-6.73 25.242-17.813 49.208-30.643 71.911-2.915 5.481-6.986 10.384-8.732 16.443-1.263 2.928-3.076 5.629-5.078 8.101a28.8 28.8 0 0 0-7.295 10.72c-2.7 4.366-6.072 8.302-9.149 12.413-2.62 1.773-5.374 3.426-8.423 4.339-46.28 13.77-93.271 25.363-140.894 33.45-11.634 1.693-23.268 4.124-35.076 3.869 4.044-1.102 8.141-2.082 12.292-2.834 52.741-11.123 103.118-31.059 152.058-53.265 6.677-3.224 11.862-8.678 17.33-13.541 20.648-19.224 38.099-41.927 51.318-66.834z"/><path fill="#6C390A" stroke="#6C390A" d="M1551.296 1048.098c3.869-.175 7.751-.349 11.62-.819a293 293 0 0 1 2.915 1.545c-4.863.456-9.807.671-14.535-.726z"/><path fill="#703D0D" stroke="#703D0D" d="M1504.384 1073.931c1.935-1.666 5.508-2.861 7.604-.739-2.351.725-4.715 1.411-7.093 1.934-.135-.308-.39-.9-.511-1.195z"/><path fill="#713E0E" stroke="#713E0E" d="M1494.752 1077.679c1.424-2.754 5.401-4.433 7.872-1.934-2.552.98-5.185 1.652-7.872 1.934z"/><path fill="#673402" stroke="#673402" d="M1490.91 1079.143c.296-2.243 1.061-2.485 2.311-.712-.578.175-1.733.524-2.311.712z"/><path fill="#4A2706" stroke="#4A2706" d="M1862.061 1099.092c1.545-3.694 3.533-7.227 6.381-10.089-1.222 3.802-3.573 7.282-6.381 10.089z" opacity=".67"/><path fill="#200E00" stroke="#200E00" d="M555.523 1093.732c-.47-2.364.484-3.278 2.848-2.7-.604 1.249-1.558 2.15-2.848 2.7z" opacity=".35"/><path fill="#46270A" stroke="#46270A" d="M1436.611 1112.701c3.291-4.715 7.509-9.78 12.937-11.875-4.178 4.11-8.397 8.167-12.937 11.875z" opacity=".59"/><path fill="#6A3A0C" stroke="#6A3A0C" d="M1852.94 1111.317c.081-1.599.846-2.687 2.284-3.278.564 2.23-.202 3.319-2.284 3.278z" opacity=".88"/><path fill="#630" stroke="#630" d="M591.795 1113.695c4.648-2.458 10.465-5.159 15.556-2.324 2.66 1.209 5.562 4.675 3.117 7.483-4.03 5.091-8.557 9.861-13.528 14.052 3.009-7.039 12.413-10.183 13.286-18.189-4.46-4.124-13.165-4.85-16.362 1.075-2.351-.9-4.353.806-6.153 2.028a189 189 0 0 0-23.388 20.796c-1.411 1.303-2.123 3.09-2.633 4.903l-1.935-1.142c1.639-2.808 3.963-5.118 6.26-7.389 7.886-7.872 16.134-15.61 25.78-21.293z"/><path fill="#59310C" stroke="#59310C" d="M1427.825 1122.656c1.438-3.788 4.46-7.026 7.966-9.028-2.217 3.372-4.93 6.381-7.966 9.028z" opacity=".76"/><path fill="#963" stroke="#963" d="M587.711 1117.819c1.8-1.222 3.802-2.929 6.153-2.028-8.222 15.234-13.77 31.664-19.775 47.838-1.357-.403-2.391-1.196-3.09-2.378-3.587-5.629-6.623-11.62-9.31-17.733.51-1.813 1.222-3.6 2.633-4.903a189 189 0 0 1 23.389-20.796z"/><path fill="#630" stroke="#630" d="M641.245 1137.661c2.888-2.418 6.905-3.547 10.532-2.176 1.666 1.558 2.552 3.855 2.217 6.139-.9 7.765-3.412 15.274-3.775 23.106-.497 6.274 1.222 12.413 1.612 18.646-3.681-3.976-7.335-8.02-10.613-12.319 2.875 2.096 5.562 4.433 8.114 6.932-1.196-8.235-.981-16.618.981-24.705.846-5.347 3.251-11.096 1.209-16.389-6.314-2.418-11.755 3.238-15.315 7.738-2.378 3.52-6.475 6.851-5.803 11.54l-2.096-.215c-2.566 4.514-4.514 9.363-7.362 13.716.846-3.385 2.002-6.69 3.788-9.699 4.528-8.047 9.149-16.484 16.511-22.314z"/><path fill="#963" stroke="#963" d="M636.207 1144.633c3.56-4.5 9.001-10.156 15.315-7.738 2.042 5.293-.363 11.043-1.209 16.389-1.961 8.087-2.176 16.47-.981 24.705-2.552-2.499-5.239-4.836-8.114-6.932-2.217-2.888-5.494-5.414-6.462-8.987-.094-1.693-.9-2.714-2.432-3.063l-1.021-.228a153 153 0 0 0-.9-2.606c-.671-4.689 3.426-8.02 5.804-11.54z"/><path fill="#630" stroke="#630" d="M1411.637 1149.55c9.511-3.466 18.66-8.289 28.654-10.411.363 4.138.027 8.517-2.552 11.97-6.072 8.893-16.9 12.09-26.156 16.51 11.123 5.495 22.488 10.546 34.162 14.777 12.601-12.923 30.387-18.861 47.193-24.208.994 5.159-.296 10.68-3.977 14.522-7.012 7.926-17.531 10.707-26.585 15.476 11.096 4.769 22.945 7.59 34.552 10.908 5.414-7.684 13.931-12.198 22.152-16.241 8.799-4.057 17.813-7.765 27.23-10.116.349 4.42-.027 9.162-3.023 12.695-7.039 9.552-19.318 11.835-28.896 17.813 13.783 3.076 27.781 5.226 41.873 6.287 16 1.706 32.161.215 48.039-1.988 11.808.255 23.442-2.176 35.076-3.869 47.623-8.087 94.615-19.681 140.894-33.45 3.049-.913 5.803-2.566 8.423-4.339-1.37 1.72-2.566 3.909-4.85 4.5-26.411 8.154-53.171 15.153-80.079 21.481-42.787 9.592-86.057 18.942-130.08 19.573-18.31-.04-36.54-2.378-54.461-5.978-1.988-.309-3.963-1.129-5.951-.779-5.629 4.823-8.275 12.225-8.705 19.479-5.924-6.3-10.667-15.059-8.047-23.912-11.996-3.278-23.818-7.093-35.667-10.841-5.696 5.36-9.377 12.816-9.081 20.755-6.328-6.972-12.279-17.598-6.757-26.733-11.526-4.621-23.012-9.377-34.122-14.911-7.926 4.299-11.781 13.286-12.561 21.924-5.736-6.274-10.398-14.965-7.724-23.657 3.197-6.851 10.075-10.801 16.363-14.441 1.437-.725 2.149-2.27 3.13-3.466z"/><path fill="#582F09" stroke="#582F09" d="M1797.847 1153.473a28.8 28.8 0 0 1 7.295-10.72c-1.841 3.922-4.111 7.737-7.295 10.72z" opacity=".78"/><path fill="#613409" stroke="#613409" d="M632.325 1159.008c1.531.349 2.338 1.37 2.432 3.063-2.056.093-2.875-.928-2.432-3.063z" opacity=".85"/><path fill="#462200" stroke="#462200" d="M666.917 1207.732c.43.578 1.29 1.719 1.733 2.297l-1.249.027-.887-1.169z" opacity=".65"/></svg>