<svg xmlns="http://www.w3.org/2000/svg" viewBox="0 0 420 520"><path d="M361.59 196.59c-7.47.16-11.55 4.52-9.09 10.47 3.13 7.59 20.34 5 20.34-3.06 0-4.14-2.57-6.53-7.84-7.22-1.2-.16-2.34-.21-3.41-.19m1.32-15.75c20.53 0 39.44 22.28 27.97 32.94-4.36 4.05-.77 24.15 5.12 28.69 2.3 1.77 22.37 5.31 44.62 7.87 37.87 4.36 41.12 4.34 50.32-.72 15.63-8.58 21.28-3.09 21.28 20.69 0 22.49-5.41 28.78-18.97 22.03-6.12-3.04-15.51-3.14-43.47-.5-43.14 4.08-51.18 6.65-54.03 17.19-2.69 9.98.71 161.67 4.81 214.22 3.12 39.89 8.28 62.65 16.16 71.34 5.49 6.05 38.37 15.07 54.25 14.88 29.29-.35 64.36-20.12 108.69-61.28 5.4-5.02 9.43-8.64 13.43-12.22-17.26-4.88-42.81-7.59-42.81-7.59l91.44-32.85s-5.74 97.51-8.6 103.22c-3.24 3.51-8.56-24.93-17.43-43.72-1.4 2.59-2.34 4.65-4.07 7.63-43.76 75.6-82.36 106.13-141.43 111.78-31.19 2.98-68.77 10.22-78.81 15.22-3.69 1.83-10.62 9.58-15.41 17.18-4.79 7.61-10.67 13.82-13.06 13.82s-8.27-6.21-13.07-13.82c-4.79-7.6-11.75-15.35-15.43-17.18-10.05-5-47.59-12.24-78.79-15.22-55.92-5.35-93.55-33.5-134.53-100.56-7.61 18.45-12.39 42.06-15.37 38.84-2.86-5.72-8.564-103.22-8.564-103.22l91.404 32.88s-23.81 2.49-41 7.06c43.65 40.26 78.31 59.68 107.28 60.03 15.88.19 48.74-8.83 54.22-14.88 7.89-8.69 13.04-31.45 16.16-71.34 4.1-52.55 7.54-204.24 4.84-214.22-2.84-10.54-10.88-13.11-54.03-17.19-27.96-2.64-37.34-2.54-43.47.5-13.56 6.75-19 .46-19-22.03 0-23.78 5.68-29.27 21.32-20.69 9.19 5.06 12.41 5.08 50.28.72 22.26-2.56 42.35-6.1 44.65-7.87 5.89-4.54 9.49-24.64 5.13-28.69-11.47-10.66 7.43-32.94 27.97-32.94" style="fill:#000" transform="matrix(.73454 0 0 .92625 -61.365 -155.14)"/><path d="M355.16 695.66c-3.17-4.99-9.18-11.16-13.36-13.7-9.78-5.96-45.81-13.43-80.97-16.79-58.91-5.63-94.9-33.99-138.3-108.95l-15.73-27.17 33.01 30.25c46.55 42.68 78.06 59.16 113.6 59.43 23.3.17 54.44-8.01 62.47-16.41 15.03-15.72 19.82-58.24 22.9-203.21 2.38-111.95 3.3-108.35-29.12-113.44-12.66-1.98-37.9-3.82-56.1-4.08l-33.08-.48-.02-11.9c-.01-10.14.84-11.56 5.79-9.63 12.5 4.88 21.14 4.92 62.19.24 47.56-5.43 53.08-8.04 56.49-26.8 2.16-11.85 2.44-12.06 16.54-12.06s14.39.21 16.55 12.06c3.4 18.76 8.93 21.37 56.48 26.8 41.06 4.68 49.7 4.64 62.2-.24 4.95-1.93 5.8-.51 5.79 9.63l-.02 11.9-33.09.48c-18.19.26-43.43 2.1-56.09 4.08-32.43 5.09-31.5 1.49-29.12 113.44 3.07 144.97 7.86 187.49 22.89 203.21 8.03 8.4 39.18 16.58 62.48 16.41 35.54-.27 67.04-17.76 113.6-60.44l42.09-40.35-11.68 26.16c-43.36 74.9-92.43 115.35-151.43 121.14-58.31 5.73-79.97 12.25-92.01 27.71l-9.18 11.78z" style="fill:#1e1e1e" transform="matrix(.73454 0 0 .92625 -61.365 -155.14)"/><path d="m102.99 516.19 5.16 77.93s11.44-32.59 18.28-45.02c8.13-1.82 42.64-8.05 41.65-9.08-38.23-15.2-64.15-20.78-65.09-23.83M635.57 503.26l-4.42 77.98s-11.75-32.48-18.71-44.85c-8.14-1.74-42.71-7.64-41.73-8.69 38.09-15.55 63.96-21.38 64.86-24.44" style="fill-rule:evenodd;fill:#1e1e1e" transform="matrix(.73454 0 0 .92625 -61.365 -155.14)"/></svg>