<svg xmlns="http://www.w3.org/2000/svg" width="297mm" height="210mm" viewBox="0 0 1052.362 744.094"><g style="fill:#666"><g style="fill:#666"><path d="M418.074 605.413H391.09v95.51h-17.418v-95.51H346.69v-6.282h71.384zM640.388 699.598l-4.14 4.568-53.11-42.83v-6.138h20.273q9.994 0 17.56-7.567 7.567-7.71 7.567-17.703 0-9.994-7.566-17.56-7.567-7.567-17.56-7.567h-25.556v95.939h-18.131V598.376h43.686q12.992 0 22.13 9.423 9.279 9.28 9.279 22.129 0 12.992-9.28 22.271-9.137 9.137-22.129 9.137h-10.279zM494.223 605.74H467.24v95.51h-17.418v-95.51H422.84v-6.283h71.384z" style="font-style:normal;font-variant:normal;font-weight:400;font-stretch:normal;font-size:medium;line-height:125%;font-family:FashionVictim;-inkscape-font-specification:&quot;FashionVictim, Normal&quot;;text-align:start;letter-spacing:0;word-spacing:0;writing-mode:lr-tb;text-anchor:start;fill:#666;fill-opacity:1;stroke:none;stroke-width:1px;stroke-linecap:butt;stroke-linejoin:miter;stroke-opacity:1" transform="matrix(1.65963 0 0 1.65963 -126.746 -707.53)"/><path d="m781.64 286.299-73.794.232c-.1 3.667.164 6.726.107 10.194v158.513h20.867v.108h51.928v-10.49H736.86v-68.188h30.776v-10.49h-30.776v-69.453h44.782z" style="font-style:normal;font-variant:normal;font-weight:400;font-stretch:normal;font-size:medium;line-height:125%;font-family:FashionVictim;-inkscape-font-specification:&quot;FashionVictim, Normal&quot;;text-align:start;letter-spacing:0;word-spacing:0;writing-mode:lr-tb;text-anchor:start;fill:#666;fill-opacity:1;stroke:none;stroke-width:1px;stroke-linecap:butt;stroke-linejoin:miter;stroke-opacity:1"/></g><path d="M380.224 602.664c9.143-4.244 20.779-4.863 29.56.599 4.928 4.032 2.949 12.106-1.914 15.218-4.21 3.062-9.311 4.67-13.447 7.802-5.061 7.688-6.323 17.464-12.69 24.405-7.57 8.5-19.997 13.615-22.851 25.617 5.08 3.013 13.481 4.996 13.951 12.106-6.768 6.332-15.337-.208-21.793-3.612-4.685-1.484-4.675-9.261-10.547-7.836-8.52.173-17.242-1.806-25.632.188-.114 3.7 4.477 3.928 6.52 6.184 3.008 1.33 2.479 6.94-1.009 7.149-8.213 2.449-13.056-7.466-21.125-6.348-6.713-.079-13.358-3.018-16.519-9.167-3.572-6.64-12.334-5.299-17.87-2.127-19.724 10.142-41.982 13.209-63.646 16.499-6.798.321-14.684 3.344-20.492-1.524 17.38-7.07 36.491-10.102 52.411-20.497 8.258-5.18 17.163-9.503 24.346-16.217 11.433-10.008 21.526-22.876 36.343-27.972 21.09-6.1 43.67 4.65 64.602-3.18 8.915-3.464 13.842-12.468 21.802-17.287z" style="opacity:1;fill:#666;fill-opacity:1;stroke:#000;stroke-width:.04638084" transform="matrix(1.65963 0 0 1.65963 -259.121 -709.272)"/></g><path d="M315.443 1018.079q-.23.255 0 0z" style="opacity:1;fill:#000;stroke:#000;stroke-width:.03001455" transform="translate(0 -308.268)"/></svg>