<svg xmlns="http://www.w3.org/2000/svg" width="800" height="800"><defs><clipPath id="a" clipPathUnits="userSpaceOnUse"><path d="M0 600h600V0H0Z"/></clipPath></defs><g clip-path="url(#a)" transform="matrix(1.33333 0 0 -1.33333 0 800)"><path d="M0 0c-42.055 6.719-88.972-28.746-97.903-67.952 26.158-6.157 57.275 7.063 75.302 25.84C-11.558-30.611-3.586-16.135 0 0m66.011-35.294a94 94 0 0 1-7.22 8.107C45.226-13.625 27.53-4.192 7.751-.943 3.93-18.78-4.822-34.794-17.01-47.49c-19.956-20.784-53.819-34.8-82.692-28.013-4.459-22.883-.851-43.293 15.745-60.169 5.96-6.06 12.586-10.617 19.83-13.651 32.63-13.659 76.379 3.863 99.355 26.841 23.102 23.1 34.213 55.281 30.783 87.188M9.07 6.724C30.078 3.261 48.915-6.644 63.484-20.894 55.724 10.49 34.012 36.761 4.783 50.424c4.753-13.989 6.204-29.055 4.287-43.7m-114.396-72.332c13.392 46.925 57.869 77.327 106.68 73.3 2.08 15.847-.118 32.067-6.449 46.76-11.096 3.889-23.028 6.005-35.453 6.005-40.52 0-95.809-30.477-97.915-74.103-1.062-22.009 12.674-43.755 33.137-51.962m-77.854 84.963c0 53.317 43.222 96.538 96.535 96.538 37.451 0 71.343-21.591 87.293-55.264C40.047 45.496 68.218 9.756 73.49-32.248c12.908-17.043 20.568-38.281 20.568-61.309l-.207-122.041h-7.778V-87.27a93.3 93.3 0 0 1-11.685 39.476c-.336-30.087-12.158-58.683-33.66-80.187-25.257-25.256-72.256-43.405-107.83-28.511-8.207 3.435-15.684 8.57-22.383 15.384-18.573 18.883-22.896 42.29-17.695 67.888-24.038 9.114-40.269 34.267-39.03 59.937 2.317 48.028 60.953 81.517 105.662 81.517 10.581 0 20.829-1.432 30.562-4.109-15.921 27.204-44.979 43.99-76.659 43.99-49.02 0-88.757-39.736-88.757-88.76v-148.068h-7.778z" style="fill:#ff8c00;fill-opacity:1;fill-rule:evenodd;stroke:none" transform="translate(345.812 479.494)"/><path d="M0 0c-3.588-16.15-11.573-30.982-23.028-42.912-8.691-9.053-19.829-16.353-31.388-21.176-14.148-5.904-30.409-8.693-45.515-5.137l-1.626.383.371 1.628c4.864 21.344 20.247 40.3 37.893 52.688C-47.078-3.145-26.977 4.168-6.977 2.678a66 66 0 0 0 5.601-.653l1.764-.282Zm6.382 1.081C26.087-2.156 44.225-11.52 58.338-25.634a96 96 0 0 0 7.351-8.251l.301-.38.052-.484c3.512-32.664-8.02-65.314-31.266-88.56-11.543-11.541-26.978-20.653-42.311-26.098-17.059-6.061-36.565-8.495-54.075-2.875a60 60 0 0 0-4.807 1.771c-7.731 3.238-14.517 8.06-20.381 14.024-7.339 7.464-12.714 16.145-15.583 26.241-3.291 11.587-2.9 23.701-.615 35.429l.334 1.715 1.702-.399c15.949-3.749 33.101-.913 48.063 5.289 12.193 5.055 23.874 12.715 33.032 22.252C-7.675-33.263.777-17.445 4.465-.227l.336 1.569zm-.62 6.225c1.881 14.385.456 29.2-4.213 42.941L.28 53.984l3.573-1.672c29.711-13.889 51.745-40.585 59.623-72.437l1.419-5.743-4.228 4.138C46.021-7.407 27.377 2.095 7.156 5.427l-1.606.265Zm-113.356-74.111c-5.589 2.241-10.729 5.478-15.233 9.469-5.434 4.819-9.907 10.709-13.147 17.206-4.147 8.32-6.26 17.621-5.81 26.928a55.7 55.7 0 0 0 2.841 15.023c12.166 36.4 60.176 60.683 96.754 60.683 12.267 0 24.429-2.041 36.008-6.101l.698-.243.292-.678C1.24 40.559 3.494 23.942 1.381 7.839l-.209-1.591-1.598.132c-24.116 1.989-48.07-4.545-67.677-18.767-18.1-13.132-31.112-31.819-37.247-53.319l-.512-1.793zm-75.546-59.861h4.413V19.72c0 49.951 40.492 90.442 90.442 90.442 32.205 0 61.85-17.043 78.109-44.824l2.089-3.57-3.987 1.098a113.5 113.5 0 0 1-30.115 4.05c-18.336 0-37.663-5.629-53.86-14.041C-121.155 39.84-144.731 16.852-146.171-13c-.412-8.52 1.161-17.037 4.392-24.921a62 62 0 0 1 14.147-20.931c5.568-5.394 12.148-9.678 19.405-12.432l1.338-.505-.285-1.401c-2.574-12.675-2.973-25.806.605-38.334 3.076-10.772 8.805-20.073 16.641-28.041 6.283-6.39 13.55-11.543 21.833-15.011a64 64 0 0 1 6.322-2.262c33.42-10.019 75.799 6.54 99.668 30.41 21.091 21.09 32.837 49.224 33.168 79.018l.071 6.308 3.08-5.505a95 95 0 0 0 11.895-40.188l.004-.055v-126.701h4.416l.205 120.361c.037 21.845-7.042 42.882-20.227 60.29l-.272.359-.056.447C64.991 9.242 37.272 44.493-1.597 59.422l-.63.242-.288.608c-15.708 33.164-49.059 54.303-85.77 54.303-52.387 0-94.855-42.469-94.855-94.855z" style="fill:#ffa333;fill-opacity:1;fill-rule:evenodd;stroke:none" transform="translate(346.596 479.13)"/><path d="M0 0c4.325-9.773 7.015-23.466 7.015-38.626 0-29.7-10.319-53.776-23.047-53.776S-39.08-68.326-39.08-38.626c0 15.16 2.69 28.853 7.015 38.626 1.263 2.856 1.587 5.646 1.007 8.715a44.6 44.6 0 0 0-.751 8.219c0 .103 0 .21.002.313.03 4.143-1.397 7.716-4.267 10.703a6.79 6.79 0 0 0-1.906 4.717v15.998c0 3.749 3.066 6.816 6.815 6.816H-.899c3.748 0 6.815-3.067 6.815-6.816V32.667A6.8 6.8 0 0 0 4.01 27.95C1.139 24.964-.287 21.39-.259 17.247l.001-.313c0-2.868-.263-5.63-.751-8.219C-1.586 5.646-1.265 2.856 0 0" style="fill:#c30;fill-opacity:1;fill-rule:evenodd;stroke:none" transform="translate(182.553 295.3)"/><path d="M0 0c8.13.752 16.411-16.899 18.498-39.429 2.088-22.526-2.812-41.399-10.944-42.152-8.13-.754-16.412 16.899-18.499 39.429C-13.03-19.625-8.131-.754 0 0" style="fill:#db420f;fill-opacity:1;fill-rule:evenodd;stroke:none" transform="translate(156.422 287.104)"/><path d="M0 0c5.54.513 11.183-11.517 12.605-26.867 1.421-15.35-1.917-28.212-7.459-28.725-5.538-.513-11.183 11.515-12.605 26.868C-8.881-13.374-5.541-.512 0 0" style="fill:#e84b17;fill-opacity:1;fill-rule:evenodd;stroke:none" transform="translate(154.882 266.839)"/><path d="M0 0h21.949a3.51 3.51 0 0 0 3.499-3.499 3.51 3.51 0 0 0-3.499-3.498H0a3.51 3.51 0 0 0-3.498 3.498A3.51 3.51 0 0 0 0 0" style="fill:#ad2b00;fill-opacity:1;fill-rule:evenodd;stroke:none" transform="translate(155.545 326.363)"/><path d="M0 0c4.324-9.775 7.013-23.468 7.013-38.626 0-29.7-10.318-53.776-23.046-53.776S-39.08-68.326-39.08-38.626c0 15.158 2.689 28.851 7.015 38.626 1.262 2.857 1.586 5.646 1.007 8.714a44.6 44.6 0 0 0-.751 8.22v.312c.03 4.143-1.396 7.716-4.266 10.704a6.79 6.79 0 0 0-1.906 4.716v15.999c0 3.749 3.067 6.817 6.815 6.817H-.901c3.748 0 6.815-3.068 6.815-6.817V32.666c0-1.826-.725-3.49-1.905-4.716-2.87-2.988-4.297-6.561-4.268-10.704v-.312c0-2.869-.263-5.63-.751-8.22C-1.588 5.646-1.264 2.857 0 0" style="fill:#c30;fill-opacity:1;fill-rule:evenodd;stroke:none" transform="translate(451.807 208.415)"/><path d="M0 0c8.132.754 16.414-16.898 18.499-39.427 2.086-22.527-2.813-41.399-10.944-42.152S-8.857-64.68-10.943-42.152C-13.028-19.625-8.13-.752 0 0" style="fill:#db420f;fill-opacity:1;fill-rule:evenodd;stroke:none" transform="translate(425.674 200.218)"/><path d="M0 0c5.541.513 11.185-11.517 12.606-26.867 1.422-15.352-1.918-28.213-7.458-28.725S-6.037-44.077-7.457-28.726C-8.879-13.374-5.54-.514 0 0" style="fill:#e84b17;fill-opacity:1;fill-rule:evenodd;stroke:none" transform="translate(424.134 179.954)"/><path d="M0 0h21.949a3.51 3.51 0 0 0 3.498-3.498 3.51 3.51 0 0 0-3.498-3.499H0a3.51 3.51 0 0 0-3.497 3.499A3.51 3.51 0 0 0 0 0" style="fill:#ad2b00;fill-opacity:1;fill-rule:evenodd;stroke:none" transform="translate(424.798 239.477)"/><path d="M0 0c70.834 0 128.606 12.292 128.606 27.363S70.834 54.726 0 54.726c-70.832 0-128.604-12.292-128.604-27.364C-128.604 12.291-70.832 0 0 0" style="fill:#e6e6e6;fill-opacity:1;fill-rule:evenodd;stroke:none" transform="translate(301.147 53.304)"/></g></svg>