<svg xmlns="http://www.w3.org/2000/svg" width="411.628" height="207.27"><path d="M7.52 232.678c-2.635-.481-3.607-1.799-3.512-4.76.059-1.85.417-2.868 1.94-5.518.454-.792 1.19-2.124 1.633-2.96s.925-1.52 1.071-1.52.349-.265.452-.588c.102-.323.58-1.037 1.061-1.585s1.447-1.796 2.145-2.772c.699-.976 1.373-1.775 1.499-1.775.125 0 .329-.324.453-.72.123-.396.32-.792.436-.88.117-.088 1.266-1.564 2.553-3.28s2.44-3.12 2.56-3.12c.122 0 .631-.648 1.132-1.44s1.009-1.44 1.13-1.44c.12 0 .662-.612 1.204-1.36s1.254-1.648 1.584-2c.329-.352 1.019-1.216 1.533-1.92s1.302-1.667 1.75-2.14c2.166-2.283 2.639-2.816 4.383-4.95 1.03-1.26 2.305-2.842 2.833-3.515a36 36 0 0 1 2-2.302c.572-.592 1.04-1.124 1.04-1.18 0-.058 1.044-1.172 2.32-2.478a246 246 0 0 0 4.915-5.224c7.495-8.235 11.006-11.783 13.705-13.852 1.133-.868 2.968-2.442 4.08-3.497a333 333 0 0 1 4.072-3.79 134 134 0 0 0 3.418-3.232c.751-.748 1.508-1.36 1.681-1.36s.364-.12.422-.267c.128-.32 3.438-2.613 3.772-2.613.128 0 .4-.368.605-.818s.493-.744.64-.653c.146.09 1.022-.334 1.946-.942.924-.609 1.76-1.107 1.859-1.107.244 0 3.098-2.328 3.232-2.637.06-.136.261-.152.449-.036s.5.008.693-.24 1.533-1.22 2.978-2.161c1.446-.94 2.795-1.912 3-2.158.204-.246.642-.448.972-.448s.601-.127.601-.281.432-.46.96-.679.96-.493.96-.61.396-.448.88-.737c.816-.488 2.01-1.496 4.4-3.714.528-.49 1.79-1.515 2.803-2.277 2.727-2.049 4.111-3.447 8.237-8.317a92 92 0 0 1 2.24-2.556c.44-.47 1.71-1.94 2.823-3.266 1.865-2.223 2.031-2.546 2.13-4.147.058-.955.255-2.096.436-2.536s.494-1.952.695-3.36c.378-2.645.422-2.872.711-3.68.452-1.264.885-3.198.885-3.957 0-.464.144-.843.32-.843s.32-.496.32-1.101c0-.606.144-1.19.32-1.299s.32-.54.32-.96.144-.851.32-.96.32-.757.32-1.44.153-1.336.339-1.452.308-.52.271-.899.099-1.094.302-1.59c.202-.495.368-1.083.368-1.306 0-.94 1.655-3.695 2.96-4.927.308-.29.56-.685.56-.877s.432-.763.96-1.269.96-1.086.96-1.29.288-.631.64-.95.64-.75.64-.957.396-.747.88-1.198c.484-.452 1.888-1.932 3.12-3.289 4.67-5.144 13.59-13.772 14.794-14.31.311-.14.998-.54 1.526-.892a29 29 0 0 1 2.24-1.298c.704-.362 2-1.077 2.88-1.588.88-.51 1.816-1.027 2.08-1.147s.696-.402.96-.627c.64-.545 5.36-2.397 6.526-2.562.51-.072 1.086-.252 1.28-.401.195-.15 1.074-.463 1.954-.697s1.923-.632 2.317-.885c.817-.523 9.07-.66 13.843-.231 1.496.134 2.972.235 3.28.223s.56.095.56.238c0 .241.775.37 4.96.829.88.096 2.054.32 2.608.498 2.29.733 11.106 2.165 12.128 1.97.433-.084.967-.01 1.186.163.219.172 1.17.336 2.112.364s2.002.205 2.353.393.94.263 1.31.166c.368-.096.842-.032 1.053.143s2.018.372 4.017.437c1.998.066 3.849.2 4.113.297s2.136.267 4.16.376c2.024.11 4.4.251 5.28.314 1.692.122 8.927-.83 12.16-1.598 1.056-.252 3.072-.623 4.48-.826 3.944-.569 5.643-.853 8.16-1.367.44-.09 1.592-.261 2.56-.381s2.048-.282 2.4-.36c.964-.21 10.408-.166 11.41.054.48.105 1.16.038 1.512-.15.362-.194.716-.22.816-.057.274.444 8.587.155 12.502-.435 1.936-.292 3.736-.528 4-.526.852.008 3.018-.707 3.84-1.267.44-.3.913-.551 1.051-.558.333-.016 2.325-.944 7.754-3.613 2.467-1.213 4.726-2.205 5.021-2.205s.625-.144.733-.319c.25-.404 3.543-1.921 4.17-1.921.26 0 .471-.114.471-.254s.649-.427 1.442-.639a22 22 0 0 0 2.8-1 28 28 0 0 1 2.638-1.01 32 32 0 0 0 2.56-.942c.704-.3 2.072-.801 3.04-1.113s1.904-.673 2.08-.803c.287-.211 2.38-.73 3.2-.792.176-.013.491-.131.701-.263.893-.56 15.183-.842 15.85-.313.444.353 2.679.924 5.408 1.382 4.835.811 9.827 2.026 11.161 2.716 1.89.977 2.215 1.111 2.701 1.111.259 0 1.001.36 1.65.8.648.44 1.45.8 1.78.8s1.172.36 1.869.8 1.379.8 1.515.8c.502 0 4.231 2.877 5.703 4.4.382.396.837.72 1.01.72.172 0 1.342.864 2.6 1.92s2.366 1.92 2.462 1.92.774.576 1.507 1.28 1.504 1.28 1.713 1.28.464.216.566.48.337.48.524.48c.914 0 4.436 4.872 4.467 6.178.025 1.103 11.275 11.87 13.613 13.029.88.436 1.687.911 1.793 1.056.106.144.383 1.27.615 2.5.346 1.836.348 2.528.01 3.849-.76 2.966-3.948 8.268-4.971 8.268-.202 0-1.113.36-2.025.8s-1.767.8-1.9.801-1.351.434-2.708.961c-1.356.528-2.94.952-3.52.943-1.295-.021-8.232.29-8.894.4-.44.072-2.121-.235-5.684-1.038-1.732-.39-4.142-.397-4.38-.012-.1.162-.235.745-.299 1.295-.108.928-.882 1.852-1.637 1.952-.862.115-2.594-.108-2.864-.368-.167-.162-.606-.294-.976-.294s-.813-.142-.987-.315c-.173-.174-.778-.366-1.345-.428-.566-.062-1.125-.208-1.242-.325s-.49-.212-.83-.212-.999-.198-1.466-.44-1.786-.68-2.93-.973c-1.144-.294-2.8-.732-3.679-.974-1.81-.498-2.209-.327-2.94 1.267a17 17 0 0 1-1.074 1.92c-.349.528-.721 1.212-.828 1.52s-.304.56-.439.56c-.134 0-.325.252-.422.56-.268.845-1.285 2.447-1.738 2.736-.22.14-.4.445-.4.677 0 .231-.288.787-.64 1.234-.352.448-.64 1.043-.64 1.323s-.12.51-.269.51c-.148 0-.66.72-1.14 1.6s-.989 1.6-1.133 1.6-.342.303-.44.674c-.098.377-.36.608-.596.525-.487-.172-.437-1.865.093-3.18.191-.473.259-1.004.15-1.179-.217-.352-1.785 1.06-1.785 1.608 0 .187-.324.738-.72 1.225-.637.784-1.117 1.518-2.1 3.207-.284.487-.807 1.457-1.535 2.848-.221.423-.52.855-.664.96-.143.106-.482.624-.753 1.152-.27.528-.703.96-.96.96-.491 0-.516-.646-.123-3.28.112-.748.08-1.354-.07-1.348s-.99 1.015-1.863 2.24c-.874 1.226-1.702 2.228-1.84 2.228s-.251.143-.251.318c0 .174-.28.642-.621 1.04-.341.397-.926 1.077-1.298 1.512-.565.658-.727.711-.975.32-.413-.654-.38-1.023.163-1.798.259-.37.565-1.301.68-2.071l.21-1.401-2.04 2.16c-2.499 2.646-4.483 4.887-5.455 6.16-.403.528-.843 1.008-.979 1.067-.135.058-.245.253-.245.431 0 .42-3.1 3.462-3.528 3.462-.38 0-.158-1.08.691-3.36.328-.88.596-1.664.596-1.742s-1.22 1.073-2.713 2.56c-1.492 1.486-2.716 2.877-2.72 3.09-.004.215-.322.558-.707.765-.386.206-2.045 1.723-3.688 3.37-1.642 1.649-3.118 2.997-3.28 2.997-.638 0-.647-.681-.024-1.97.359-.743.653-1.546.653-1.785s-1.692 1.32-3.76 3.463c-7.147 7.407-7.817 8.043-8.14 7.72-.202-.202-.193-.74.025-1.532.186-.67.305-1.252.266-1.29-.04-.039-.72.715-1.512 1.675s-1.764 2.054-2.16 2.43-.72.804-.72.95c0 .285-1.315 1.876-2.48 2.998-.396.382-.72.774-.72.872 0 .342-2.513 2.789-2.864 2.789-.716 0-.668-.903.128-2.4.989-1.86 1.05-2.72.195-2.72-.341 0-.71.144-.819.32s-.448.32-.755.32c-.913 0-2.279.765-2.287 1.28-.004.264-.205.84-.448 1.28-1.274 2.312-2.75 5.374-2.75 5.704 0 .207-.108.378-.24.38s-.507.614-.835 1.36a35 35 0 0 1-.942 1.996c-1.42 2.613-4.374 8.715-4.378 9.04-.002.22-.149.4-.325.4s-.32.216-.32.48.216.48.48.48.48.125.48.279c0 .153 1.027.38 2.282.503 1.256.124 2.516.346 2.8.494.285.148 1.332.432 2.327.632 2.82.567 5.61 2.431 7.262 4.853.766 1.121 1.745 2.471 2.176 2.999.491.6.721 1.2.614 1.6-.095.352-.174 1.036-.176 1.52-.003.555-.177.88-.47.88-.256 0-1.175.877-2.042 1.948-.867 1.072-2.052 2.26-2.634 2.64l-1.878 1.229c-.451.295-1.02.547-1.264.56s-.777.383-1.185.823c-.407.44-1.027.8-1.377.8s-.731.153-.847.34c-.353.571-2.538 1.311-4.148 1.405-.528.03-1.419.164-1.98.297-.845.199-1.562-.018-4.16-1.259-1.727-.824-3.755-1.573-4.507-1.663s-1.444-.29-1.539-.442-.595-.278-1.112-.278-.942-.144-.942-.32-.352-.32-.784-.32c-.431 0-1.5-.154-2.375-.341-1.433-.307-2.026-.638-3.541-1.973a3.9 3.9 0 0 0-.96-.598c-.275-.106-.502-.322-.504-.48-.003-.159-.685-1.008-1.515-1.888s-1.512-1.735-1.515-1.9-.55-.956-1.215-1.76c-.665-.803-1.493-1.874-1.84-2.38-1.727-2.52-2.433-3.657-2.904-4.68-.283-.616-.716-1.235-.961-1.376s-.446-.528-.446-.861-.128-.684-.284-.781c-.482-.298-3.723-6.363-3.593-6.723.067-.187.185-1.203.261-2.259s.266-2.492.42-3.191c.154-.7.23-1.322.168-1.384-.127-.127-4.203 1.142-5.047 1.572-.819.417-1.525.344-1.525-.157 0-.242.659-1.07 1.463-1.84 1.87-1.79 2.561-3.033 2.038-3.663-.587-.708-1.898-.546-3.989.493-1.051.522-2.146.954-2.432.96s-.693.217-.904.471c-.21.254-.565.391-.788.305-.223-.085-.59.067-.815.34-.453.545-1.22.631-1.884.21-.323-.204.065-.755 1.557-2.206 1.093-1.063 1.897-2.08 1.786-2.259-.204-.33-3.88.708-4.496 1.27-.167.154-.505.279-.751.279s-.902.2-1.456.445c-3.2 1.412-5.329 1.872-5.329 1.153 0-.177.384-.645.853-1.04 2.475-2.083 2.987-2.57 2.987-2.839 0-.162-.682.069-1.517.513s-1.843.808-2.24.808-.723.138-.723.307c0 .17-.612.485-1.36.702s-1.659.583-2.025.814-.755.33-.865.22-.432.034-.717.319c-.661.661-1.753.673-1.753.02 0-.275.648-1.138 1.44-1.919.792-.78 1.44-1.56 1.44-1.731 0-.401-.937-.07-1.76.622-.352.296-1.432.927-2.4 1.403-3.273 1.609-6.698 4.312-5.073 4.004.238-.045.88.024 1.426.154.958.227 2.891.429 6.48.676.942.065 2.094.263 2.56.44.466.178 1.567.418 2.447.534 1.394.184 1.795.421 3.11 1.837.83.894 1.737 2.07 2.016 2.612s.924 1.634 1.434 2.426c1.316 2.046 2.138 3.888 2.385 5.346.176 1.043.066 1.484-.639 2.56-.468.716-1.233 1.494-1.699 1.73-.465.235-1.254.755-1.751 1.156-.498.4-1.154.728-1.46.728-.305 0-.864.288-1.242.64s-.816.64-.974.64-1.636.886-3.283 1.97c-1.647 1.083-3.575 2.096-4.285 2.252s-1.458.502-1.66.77c-.257.337-.438.377-.591.128-.122-.197-.602-.28-1.071-.183-.467.096-2.074.247-3.57.336s-3.944.243-5.44.343c-1.915.127-4.016-.013-7.107-.473-3.63-.541-10.105-1.103-12.093-1.05a3.4 3.4 0 0 1-.96-.147c-.264-.087-3.36-.217-6.88-.288-7.218-.144-7.673-.19-9.055-.904-.546-.283-1.324-.517-1.729-.521-1.096-.01-3.456-1.174-3.456-1.703 0-.254-.216-.544-.48-.646s-.48-.37-.48-.597c0-.228-.396-.839-.88-1.359s-1.024-1.193-1.2-1.496c-2.074-3.573-2.614-4.435-3.403-5.438-.504-.641-.917-1.331-.917-1.533s-.279-.667-.62-1.033c-.531-.57-.758-.616-1.6-.323-.539.188-.98.26-.98.16 0-.101-.18-.038-.4.139s-.904.427-1.52.556-1.27.354-1.454.501c-.435.348-5.663 2.04-6.02 1.947-.15-.039-.459.083-.685.271-1.2.996-15.616 5.582-18.564 5.906-.384.042-.84.164-1.015.272-.173.107-.808.281-1.409.387s-1.741.34-2.533.52c-.792.181-1.84.383-2.327.448-.489.066-1.037.212-1.22.325s-.791.272-1.353.354c-2.152.315-2.47.398-3.332.875-.489.27-2.184 1.013-3.768 1.652s-3.024 1.276-3.2 1.415c-.176.14-.778.351-1.338.47-.56.12-1.19.425-1.4.678-.209.252-.648.459-.975.459-.694 0-3.25.964-3.494 1.318-.091.133-.523.395-.96.581-.436.187-1.009.482-1.273.656s-2.352 1.4-4.64 2.722-4.376 2.544-4.64 2.715-.984.557-1.6.859-1.527.881-2.025 1.289c-.497.407-1.024.74-1.17.74-.396 0-2.885 1.676-2.885 1.942 0 .126-.349.316-.775.423s-1.183.535-1.68.95a16 16 0 0 1-1.987 1.36c-1.552.868-1.996 1.148-3.245 2.045-.612.44-1.185.8-1.273.8-.088.001-.678.398-1.31.881-.633.483-1.316.879-1.517.879-.202 0-.547.288-.767.64s-.635.64-.923.64c-.287 0-1.062.494-1.721 1.098a22 22 0 0 1-2.6 1.984c-.771.487-1.402 1-1.402 1.142 0 .14-.196.256-.435.256-.24 0-.923.502-1.52 1.117-.597.614-1.258 1.118-1.47 1.12-.21.002-.498.185-.64.408-.14.222-1.101.978-2.135 1.68-1.034.701-1.95 1.455-2.034 1.675-.085.22-.415.4-.734.4-.318 0-.627.108-.685.24-.059.133-1.259 1.131-2.667 2.22a228 228 0 0 0-3.594 2.825 36 36 0 0 1-2.24 1.66c-.663.447-1.321 1.011-1.462 1.254-.14.243-.465.441-.72.441s-.464.126-.464.281c0 .262-5.88 4.839-6.217 4.839-.085 0-.504.324-.932.72-1.766 1.636-3.793 3.257-5.373 4.297-.923.608-1.831 1.3-2.018 1.54-.363.462-3.29 2.723-3.526 2.723-.078 0-.525.356-.995.792-2.28 2.113-4.9 2.95-7.659 2.446m3.13-4.317c.567-.241 1.388-.826 1.825-1.3s1.251-1.079 1.808-1.343 1.495-.947 2.085-1.517 1.72-1.532 2.512-2.136l1.863-1.422c.233-.178.952-.796 1.598-1.373a28 28 0 0 1 2.456-1.92c.706-.477 1.355-.95 1.443-1.051s1.024-.812 2.08-1.579 1.992-1.492 2.08-1.61.772-.598 1.52-1.066 1.36-.99 1.36-1.16.396-.519.88-.777 1.528-1.054 2.32-1.768 1.613-1.298 1.824-1.299.501-.21.644-.465 1.627-1.476 3.296-2.713c1.67-1.236 3.523-2.647 4.119-3.135s1.459-1.089 1.92-1.335 1.684-1.11 2.72-1.92c3.047-2.382 4.14-3.175 5.157-3.743.528-.295 1.844-1.237 2.925-2.093s2.13-1.556 2.33-1.556.448-.216.55-.48c.1-.264.368-.48.593-.48.226 0 1.143-.504 2.038-1.12.896-.616 1.716-1.12 1.822-1.12s.81-.504 1.561-1.12c.752-.616 1.514-1.12 1.695-1.12.18 0 .496-.203.702-.45.205-.248.835-.69 1.399-.984 1.54-.8 2.207-1.206 3.43-2.086 1.402-1.008 3.241-2.041 5.195-2.917.836-.375 1.52-.786 1.52-.914 0-.127.568-.488 1.261-.8.694-.313 1.337-.767 1.43-1.01.093-.241.353-.442.579-.446s.77-.289 1.21-.633 1.119-.629 1.509-.633.863-.295 1.051-.647.52-.64.736-.64.93-.288 1.588-.64c.656-.352 1.352-.64 1.545-.64.194 0 .734-.257 1.202-.572s1.425-.76 2.129-.99c.704-.231 2.288-.898 3.52-1.483a92 92 0 0 1 4-1.776c.968-.392 2.231-.916 2.807-1.164.576-.249 1.872-.607 2.88-.796s2.376-.54 3.04-.781c.663-.241 1.536-.438 1.939-.438s2.452-.442 4.553-.983 4.109-1.041 4.461-1.112c1.406-.284 3.61-.912 5.28-1.503 7.302-2.588 10.816-3.744 11.4-3.752.375-.005.86-.226 1.08-.49s.705-.48 1.08-.482c.374-.001 1.04-.187 1.48-.412.44-.226 2.274-.894 4.077-1.485 3.422-1.121 4.418-1.821 6.643-4.667a39 39 0 0 1 1.44-1.75c3.574-3.892 5.685-6.353 5.864-6.834.12-.325.507-.666.858-.758.35-.091.638-.344.638-.56 0-.603 2.2-2.733 2.815-2.727.723.006 1.184.346 1.45 1.066.218.588-.346 1.481-2.188 3.469-.438.472-.797.986-.797 1.14 0 .156-.478.705-1.062 1.223-.584.517-1.6 1.644-2.256 2.503a44 44 0 0 1-2.268 2.719c-2.967 3.187-3.71 4.093-3.885 4.742-.25.918 1.386 4.212 3.1 6.244.709.841 1.193 1.684 1.075 1.874-.117.19.09.559.461.819s.675.653.675.873c0 .221.46.873 1.024 1.448.562.576 1.174 1.335 1.36 1.687.556 1.057 7.136 3.094 8.555 2.648 1.028-.324 10.992-.199 13.221.166 1.232.201 3.392.416 4.8.478 1.408.061 2.927.256 3.376.431 1.805.708 6.284.96 10.224.577 1.144-.112 3.952-.336 6.24-.5 5.626-.4 5.422-.337 5.538-1.696.095-1.12.052-1.168-1.92-2.096-1.11-.522-2.342-1.047-2.738-1.166-.396-.12-.72-.351-.72-.516 0-.164-.27-.298-.6-.298-.331 0-1.16-.238-1.84-.529-.682-.29-3.455-.841-6.163-1.224-4.086-.577-5.473-.647-8.16-.414-1.78.155-3.699.425-4.264.6-1.56.485-3.613-.149-3.613-1.116 0-.406.269-.981.597-1.279.507-.458.885-.495 2.48-.243 1.068.168 2.109.177 2.404.02.286-.151.934-.266 1.44-.254.505.011 1.639-.072 2.519-.184 2.261-.29 3.277-.23 8.16.484 4.821.706 5.44.851 5.44 1.28 0 .165.404.299.899.299.494 0 1.178.211 1.52.47.341.258.981.479 1.421.49s1.08.232 1.421.49c.342.259.846.474 1.12.479s1.065.437 1.756.96 1.411.952 1.6.953.715.196 1.17.433c.708.37.983.358 1.92-.083 1.594-.752 1.552-1.566-.156-2.994-.788-.659-1.604-1.198-1.813-1.198-.329 0-1.768-1.116-3.525-2.733-.279-.257-.749-.467-1.044-.467s-.788-.134-1.093-.297c-.718-.383-7.986-1.304-10.476-1.327-1.056-.01-2.754.129-3.772.308-1.02.18-2.07.243-2.336.14-.266-.101-1.354 0-2.418.226-1.635.347-1.978.34-2.22-.04-.156-.247-.286-.563-.29-.7-.008-.437 2.344-1.658 3.35-1.74.531-.043 3.198-.27 5.926-.504s5.176-.317 5.44-.184 1.6.394 2.968.58 3.344.697 4.39 1.137c1.047.44 2.117.801 2.378.801.446 0 1.44.579 3.968 2.311 1.215.833 2.296 1.865 2.296 2.193 0 .123.515.468 1.145.766 1.09.518 1.166.516 1.59-.043.558-.736.575-1.22.065-1.778a8.5 8.5 0 0 1-.72-.93c-1.01-1.563-2.36-3.366-3.2-4.276-.845-.915-1.228-1.068-3.2-1.273-1.232-.128-2.398-.362-2.59-.52-.193-.157-1.692-.36-3.332-.452-1.64-.091-3.139-.29-3.33-.443-.191-.152-1.284-.31-2.428-.352-2.893-.104-3.319-.095-6.43.136-2.845.212-3.128.12-3.582-1.156-.133-.375.352-1.054 1.597-2.24 2.616-2.494 2.686-2.563 4.255-4.293 2.14-2.358 3.839-4.478 3.849-4.803.005-.158.659-1.007 1.454-1.887s1.652-2.032 1.905-2.56a19 19 0 0 1 .76-1.44c.64-1.02 1.632-3.24 1.632-3.65 0-.238.216-.61.48-.83s.48-.732.48-1.14.132-.824.292-.923c.322-.199 1.628-2.776 1.628-3.213 0-.15.189-.5.42-.779.23-.278.688-1.153 1.016-1.945s1.06-2.448 1.626-3.68c1.519-3.3 1.64-3.823 2.708-11.705 1.042-7.687 1.22-10.966.69-12.775-1.299-4.443-1.69-5.589-2.064-6.044-.233-.284-.63-.948-.882-1.476s-1.578-2.424-2.946-4.213-2.488-3.506-2.488-3.815c0-.949.948-1.76 1.63-1.396.513.275 3.538 4.09 4.688 5.913.927 1.47 3.602 7.168 4.126 8.791.919 2.843.791 7.872-.422 16.582-.928 6.669-1.155 7.707-2.132 9.76-.601 1.264-1.286 2.874-1.523 3.578s-.757 1.781-1.158 2.394-.729 1.275-.729 1.471c0 .359-.753 2.12-1.288 3.015-.393.657-2.328 4.621-3.171 6.495-.38.844-.936 1.782-1.236 2.084s-.733.908-.962 1.345l-1.042 1.994c-.343.66-.912 1.378-1.263 1.597s-.638.65-.638.955c0 .486.112.508.88.176a9.6 9.6 0 0 0 1.618-.933c.406-.304 1.39-.869 2.186-1.254.796-.386 1.523-.899 1.616-1.14s.433-.439.755-.439c.323 0 .676-.144.785-.32.11-.177.83-.609 1.6-.96s1.492-.785 1.603-.964c.11-.18.323-.251.472-.16.149.093.691-.185 1.205-.618q.934-.786 1.627-.605c.381.1.693.25.693.333s-.852 1.094-1.893 2.247c-1.057 1.172-1.819 2.29-1.725 2.532.225.589.64.548 1.82-.18.549-.339 1.862-.938 2.918-1.33 1.056-.394 2.457-1.053 3.114-1.465.656-.413 1.278-.75 1.381-.75s.663-.362 1.243-.805c.913-.697 1.108-.742 1.446-.334.449.54.195 1.139-.483 1.139-.254 0-.461.227-.461.505 0 .277-.432.936-.96 1.464-.92.92-1.298 2.191-.65 2.191.327 0 1.226-.369 4.33-1.776 1.75-.794 3.38-1.338 4.64-1.55.264-.044 1.231-.466 2.15-.937 2.917-1.498 3.481-1.007 1.3 1.132-1.41 1.38-1.258 1.936.299 1.096 1.73-.933 3.14-1.54 3.928-1.692.439-.085 1.03-.364 1.314-.621.505-.457 1.569-.322 1.569.199 0 .144-.333.525-.74.846-1.151.907-2.887 2.983-2.673 3.197.106.106.521-.02.923-.28a6.3 6.3 0 0 1 1.61-.69c1.448-.356 1.088.641-.913 2.534-.987.933-1.707 1.835-1.602 2.005.219.354 2.17-.557 3.302-1.541.406-.353.905-.642 1.11-.642.53 0 1.543-.979 1.543-1.49 0-.236.135-.43.3-.43s.82-1.044 1.457-2.32a122 122 0 0 1 1.426-2.8c.149-.264.742-1.459 1.32-2.656.576-1.196 1.167-2.249 1.313-2.338.145-.09.274-.48.287-.865.013-.386.58-1.709 1.26-2.941 2.288-4.144 2.877-5.402 2.877-6.143 0-.405.125-.737.278-.737s.681-1.548 1.173-3.44c.924-3.555 1.453-4.56 2.4-4.56.782 0 1.43.856 1.029 1.36-.176.22-.415 1.065-.533 1.877-.117.812-.419 1.748-.67 2.08s-.466 1.107-.478 1.723-.299 1.696-.639 2.4-.623 1.41-.63 1.57c-.005.16-.37.762-.81 1.338s-.8 1.23-.8 1.45c0 .532-1.257 3.11-1.628 3.34-.16.099-.292.595-.292 1.102s-.159 1.02-.353 1.14-.556.669-.804 1.22c-.458 1.013-.792 1.592-1.803 3.128-.308.468-.56 1.07-.56 1.339s-.185.678-.41.91c-.226.233-.98 1.719-1.676 3.303-1.17 2.664-2.895 5.624-3.414 5.86-.684.311-2.452 4.894-2.654 6.882-.204 2.007-.155 2.283.606 3.433.455.688.828 1.38.828 1.539 0 .158.24.485.532.727.293.241.801 1.015 1.13 1.719.726 1.555 1.056 2.104 2.498 4.15.616.874 1.365 2.134 1.664 2.8.3.665.761 1.21 1.025 1.21.265 0 .722.509 1.018 1.131.295.622.816 1.327 1.158 1.567s.655.664.696.944c.118.803 2.924 3.311 4.513 4.035.795.362 2.633.82 4.085 1.018 1.453.198 2.868.554 3.146.792s.759.433 1.068.433 1.496.432 2.635.959c2.148.994 2.572 1.12 4.809 1.42 1.22.165 1.374.105 1.769-.699.238-.484.385-1.096.326-1.36s-1.837-1.321-3.952-2.35c-2.897-1.408-4.412-1.948-6.143-2.189-1.784-.248-2.458-.496-3.017-1.108-1.375-1.506-.513-2.36 1.749-1.733.666.185 1.643.339 2.171.341s1.73.364 2.672.802c.941.438 1.968.797 2.28.797.314 0 .749.216.968.48.22.264.732.48 1.14.48s.837.153.952.34c.116.187.52.474.9.639.378.165.904.423 1.168.575 1.603.92 2.528 1.275 3.52 1.356 1.227.1 2.565-.468 2.55-1.081-.03-1.281-5.114-4.709-6.983-4.709-.533 0-1.053-.136-1.155-.301-.103-.166-1.166-.398-2.363-.516-1.301-.128-2.479-.444-2.931-.785-.727-.548-.735-.602-.222-1.385.594-.906 1.358-.91 4.593-.025.907.249 2.015.452 2.461.452.447 0 .891.128.988.284s.666.376 1.266.488c.6.113 1.268.417 1.483.676s.568.472.783.472.93.523 1.589 1.162c.904.879 1.542 1.202 2.609 1.322 1.228.138 1.41.08 1.4-.442-.025-1.341-2.507-4.28-4.251-5.033-1.346-.582-4.887-1.387-8.057-1.832-1.408-.198-3.136-.617-3.84-.93s-1.581-.662-1.949-.774c-1.117-.34-1.55-1.516-1.088-2.96.217-.678.52-1.37.676-1.537.154-.167.281-.563.281-.88s.112-.576.25-.576c.137 0 .533-.732.88-1.627.346-.894.81-1.776 1.03-1.959s.4-.585.4-.894.216-.74.48-.96.483-.56.487-.76c.004-.198.289-.72.633-1.16s.629-1.109.633-1.486.196-.758.426-.846c.231-.089.597-.752.813-1.475.217-.722.532-1.313.7-1.313.17 0 .308-.432.308-.96s.14-.96.312-.96.613-.612.98-1.36c.933-1.9 1.456-2.796 1.87-3.211.197-.196.358-.688.358-1.093s.118-.736.263-.736.586-.645.98-1.433c.393-.788.85-1.516 1.016-1.619.165-.102.301-.4.301-.662s.684-1.63 1.52-3.042c.836-1.41 1.788-3.096 2.116-3.745.328-.648.796-1.294 1.04-1.435.244-.14.444-.591.444-1s.216-.925.48-1.144c.264-.22.48-.532.48-.696s.36-.828.8-1.475.8-1.42.8-1.717c0-.296.114-.587.254-.645.515-.217 1.666-2.448 1.666-3.23 0-.445.2-.885.444-.979s.52-.721.613-1.394.329-1.944.524-2.824.41-2.347.475-3.26c.066-.912.213-1.807.325-1.99.113-.182.284-1.81.38-3.617.097-1.808.231-3.375.298-3.484s-.006-.646-.163-1.194-.322-1.612-.367-2.365-.252-1.73-.462-2.17-.565-1.592-.79-2.56c-.223-.968-.555-2.12-.735-2.56s-.35-.872-.377-.96c-.143-.472-2.278-4.704-2.557-5.07-.18-.237-.652-.757-1.048-1.157s-.72-.81-.72-.913c0-.314-1.494-1.82-1.806-1.82-.342 0-1.465-1.227-1.756-1.92-.11-.264.02-.732.29-1.04.864-.985 1.367-.784 4.072 1.625.947.844 2.4 2.736 2.4 3.126 0 .247.113.449.252.449.308 0 2.45 3.694 2.783 4.8.132.44.421 1.016.642 1.28s.517 1.056.658 1.76l.288 1.44c.112.55.91 3.442 1.06 3.84.443 1.171.772 12.088.373 12.335-.163.1-.296 1.237-.296 2.525 0 1.627-.138 2.456-.452 2.717-.249.206-.545 1.124-.658 2.04-.113.914-.323 1.951-.466 2.303-.976 2.4-1.803 4.07-2.163 4.37-.232.191-.421.734-.421 1.205s-.16 1.018-.357 1.214c-.415.415-1.065 1.512-1.57 2.651-.196.44-.652 1.117-1.015 1.504-.37.395-.575.921-.468 1.2.166.435.331.417 1.33-.144.627-.352 1.43-.64 1.786-.64 1.108 0 2.426-.887 2.952-1.986.44-.918 2.782-3.705 2.782-3.31 0 .212 1.517-1.336 1.822-1.858.652-1.116 2.476-2.883 3.016-2.923.75-.055 2.202-1.292 2.202-1.876 0-.24-.504-.972-1.12-1.625s-1.12-1.268-1.12-1.367.48-.847 1.066-1.663c.686-.954 1.142-2.034 1.278-3.025.116-.848.5-1.948.854-2.444 1.058-1.486.843-2.356-.958-3.874-1.167-.984-1.599-1.574-1.596-2.18.007-1.331.356-2.269.843-2.269.25 0 .534-.21.632-.467.099-.256.813-.838 1.587-1.291 1.526-.895 1.515-.866 2.063-4.962.267-1.993.571-2.992 1.138-3.739.633-.834.717-1.168.461-1.84-.254-.669-.523-.821-1.45-.821-1.757 0-1.775-.755-.06-2.505.806-.822 1.672-1.72 1.925-1.994.71-.77.986-3.057.508-4.211-.392-.947-.362-1.035.66-1.888.59-.493 1.19-.823 1.334-.734.436.269 2.616-.517 3.585-1.292.823-.658.869-.795.48-1.422-.366-.59-.359-.739.05-.999.264-.168.81-.307 1.214-.31s1.52-.598 2.48-1.323c1.391-1.051 1.746-1.503 1.746-2.223 0-.497.328-1.285.729-1.75l.729-.848 3.65.537c3.551.523 3.683.52 4.95-.09l2.391-1.148c.6-.286 1.328-.52 1.62-.52.423 0 .527-.31.511-1.52l-.02-1.52 1.94-.094c1.893-.091 4.093.19 6.715.858.712.181 2.152.394 3.2.472 2.355.175 4.328.754 4.807 1.408.285.39.731.452 2.09.293 2.59-.304 3.898.006 4.627 1.097.341.511.868 1.009 1.169 1.106.672.215 5.372 4.74 5.372 5.171 0 .171.5.826 1.111 1.455.855.88 1.538 1.231 2.96 1.522 2.544.52 2.97.771 4.217 2.491 1.886 2.6 4.813 5.181 5.875 5.181 1.018 0 2.191.772 4.021 2.647.924.946 1.528 1.262 2.802 1.463.893.141 1.9.153 2.239.025.338-.127 1.236-.153 1.995-.057 1.266.16 4.1-.275 5.66-.869 1.307-.498 4.178-1.547 4.72-1.725a.87.87 0 0 0 .56-.771c0-.622-1.802-3.273-2.225-3.273-.444 0-1.935-2.524-1.935-3.276 0-.402.288-.91.64-1.13s.64-.586.64-.815.357-.899.794-1.49c.784-1.063.786-1.083.16-1.521-.349-.244-.634-.69-.634-.99 0-.299-.288-.724-.64-.944s-.64-.544-.64-.721c0-.178-1.584-1.883-3.52-3.79s-3.52-3.7-3.52-3.982-.36-1.043-.8-1.691-.8-1.416-.8-1.705c0-.472-4.212-4.247-6.096-5.465-.409-.264-1.344-1.02-2.08-1.68-.734-.66-1.5-1.2-1.7-1.2s-.364-.127-.364-.281-.828-.91-1.84-1.68c-1.012-.768-1.912-1.47-2-1.56s-.736-.589-1.44-1.11c-.704-.52-1.47-1.131-1.703-1.357-.232-.227-.683-.412-1-.412-.319 0-.758-.216-.977-.48-.22-.264-.641-.48-.938-.48s-.82-.211-1.16-.47c-.343-.258-.928-.474-1.303-.48-.374-.005-.86-.226-1.079-.49-.22-.264-.611-.48-.87-.48-.444 0-1.52-.413-3.77-1.45-.528-.242-1.68-.538-2.56-.656s-1.744-.323-1.92-.455-1.184-.344-2.24-.47c-1.056-.127-2.064-.343-2.24-.481s-1.328-.355-2.56-.482c-1.232-.128-2.34-.395-2.464-.593-.377-.605-13.846-.263-16.096.41-.528.157-1.752.592-2.72.967a166 166 0 0 1-3.84 1.413c-3.748 1.321-8.442 3.15-10.48 4.082-1.101.503-2.198.915-2.438.915s-.802.288-1.25.64-.972.64-1.167.64c-.194 0-.604.136-.91.302-.7.38-8.188 3.966-12.35 5.914-2.31 1.08-3.683 1.52-5.12 1.637-3.935.32-5.832.61-7.502 1.148-.581.187-1.445.24-1.92.119-1.356-.347-8.479-.417-9.123-.09-.366.185-.726.174-.972-.03-.215-.178-.89-.312-1.5-.297s-1.828.004-2.708-.024c-2.966-.097-9.699.454-11.04.904-.44.147-1.088.27-1.44.27-.75.003-5.75.844-8.96 1.507-1.232.255-2.981.521-3.887.592-.905.071-1.784.214-1.952.318-.168.103-.939.26-1.713.347s-1.984.268-2.688.402c-1.67.319-5.909.309-9.92-.023-3.506-.29-4.525-.361-9.28-.655-1.76-.109-3.419-.265-3.686-.348s-1.563-.236-2.88-.343c-3.216-.26-3.595-.31-4.154-.53-.857-.339-5.084-.83-5.718-.664-.34.089-.89.016-1.223-.163-.333-.178-1.824-.484-3.312-.678-1.49-.195-2.995-.485-3.347-.644s-3.88-.712-7.84-1.227c-8.302-1.082-14.614-1.19-16.72-.29-.66.282-1.2.46-1.2.393 0-.066-.9.234-2 .665s-2.407.857-2.904.945-1.433.433-2.08.767a88 88 0 0 1-2.704 1.314c-.84.39-1.633.868-1.76 1.065-.351.54-2.828 1.814-3.066 1.576-.115-.114-.532.08-.927.43-.396.351-1.511 1.157-2.479 1.79s-3.283 2.638-5.145 4.456-3.661 3.54-4 3.828c-1.089.924-4.334 4.462-9.538 10.396-.637.725-1.157 1.459-1.157 1.63 0 .172-.288.572-.64.891s-.64.707-.64.863c0 .266-.262.636-1.18 1.665-.775.87-2.66 4.751-2.66 5.48 0 .415-.13.834-.287.932-.158.097-.39 1.197-.515 2.442-.138 1.367-.39 2.327-.639 2.422-.227.088-.507.969-.627 1.977-.247 2.075-.795 4.236-1.186 4.683-.146.167-.266.698-.266 1.18 0 .48-.149 1.266-.331 1.745s-.625 2.9-.985 5.38c-.675 4.66-1.553 7.202-2.582 7.473-.297.078-.898.667-1.336 1.31-.439.642-1.529 1.935-2.422 2.873s-1.624 1.84-1.624 2.007c0 .166-.36.466-.8.666s-.8.5-.8.667c0 .758-5.67 6.718-6.92 7.275-.379.168-4.04 3.323-5.757 4.96-.554.528-1.492 1.237-2.085 1.575s-1.873 1.202-2.844 1.92c-2.09 1.545-2.573 1.853-4.478 2.87-.795.422-2.508 1.59-3.808 2.595s-2.763 2.063-3.251 2.353-1.979 1.283-3.312 2.207a894 894 0 0 1-4.827 3.316c-1.321.9-2.73 2.016-3.132 2.48s-1.445 1.477-2.318 2.251-2.6 2.358-3.837 3.52c-2.168 2.038-3.39 3.07-5.431 4.591-1.164.867-7.52 7.278-7.52 7.585 0 .12-.648.704-1.44 1.297s-1.44 1.236-1.44 1.427-1.008 1.33-2.24 2.528-2.24 2.244-2.24 2.323c0 .14-2.056 2.347-5.36 5.751-.924.952-1.68 1.87-1.68 2.04s-.864 1.207-1.92 2.303-1.92 2.057-1.92 2.135c0 .126-3.05 3.712-4.078 4.796-.221.232-.402.563-.402.735s-.648.97-1.44 1.772c-.791.803-1.62 1.84-1.84 2.305-.222.465-.703.977-1.07 1.139-.367.161-.87.614-1.119 1.007-.557.881-3.213 4.4-3.486 4.619-.11.088-.623.736-1.142 1.44a126 126 0 0 1-1.193 1.6c-.462.591-4.713 6.073-5.211 6.72a145 145 0 0 0-1.836 2.504 315 315 0 0 1-2.383 3.26c-.572.769-1.04 1.55-1.04 1.737 0 .186-.132.339-.294.339C9.102 224 8 226.128 8 227.142c0 .602.218 1.113.56 1.312.737.43.879.423 2.09-.093M379.69 61.078c-1.544-.361-2.593-1.296-3.374-3.008-.487-1.067-.533-1.547-.27-2.779.174-.818.523-1.66.775-1.869.253-.21.459-.275.459-.146s.252-.076.56-.456c.622-.768 2.77-1.387 3.76-1.084.915.28 3.14 2.249 3.287 2.908.304 1.367.08 4.275-.363 4.718-.257.257-.516.577-.575.712-.167.377-2.072 1.37-2.558 1.334-.237-.018-1.002-.166-1.7-.33m1.819-2.918c.281-.22.602-.838.712-1.374.16-.776.041-1.124-.583-1.71-.71-.667-.886-.7-1.865-.346-.97.35-1.086.523-1.132 1.686-.074 1.858 1.5 2.815 2.868 1.744m-40.713-7.825c-.848-.094-1.31-.395-1.881-1.23-.417-.608-.87-1.105-1.006-1.105s-.675-.756-1.197-1.681l-.948-1.681.458-3.519c.416-3.196.545-3.6 1.398-4.394.517-.482.94-1.025.94-1.207s.36-.496.8-.696.8-.453.8-.56.495-.463 1.1-.789c.87-.469 1.42-.541 2.64-.35.847.133 1.95.28 2.45.325s1.068.242 1.263.437.546.355.78.355c.703 0 5.323 2.28 5.952 2.937.644.672.971 2.713.483 3.015-.169.105-.432.518-.585.92-.453 1.192-2.7 2.06-5.219 2.015-1.196-.021-2.249-.157-2.338-.303-.09-.145-.675-.264-1.3-.264-1.12 0-1.134.016-.933 1.089.326 1.74-1.07 2.76-2.12 1.551-.828-.952-.963-2.274-.388-3.781.745-1.95 1.676-2.505 3.42-2.039.745.2 1.526.503 1.735.674s1.155.378 2.101.46c1.44.123 1.817.04 2.313-.507.577-.638.574-.672-.157-1.45-.412-.439-1.003-.797-1.314-.797-.31 0-.654-.144-.763-.32s-.482-.32-.83-.32-.968-.22-1.377-.488-1.665-.568-2.789-.665c-2.033-.176-2.051-.17-3.404 1.09-.772.72-1.36 1.562-1.36 1.946 0 .372-.13.677-.288.677s-.389 1.016-.514 2.257c-.185 1.847-.133 2.36.288 2.825.283.313.514.712.514.887 0 .9 2.362 2.227 3.697 2.076 1.006-.114 1.829.968 1.465 1.926-.312.82-1.224.98-3.886.684m-44.172 80.73c.02-.355 2.663-3.444 5.26-6.144 1.334-1.388 2.056-1.913 2.48-1.802.723.189.726.225.09 1.197-.279.425-.458 1.027-.398 1.338.104.538.131.538.586-.006.263-.315.825-.886 1.25-1.27s1-.963 1.28-1.288c1.456-1.692 4.214-4.37 4.5-4.37.18 0 .328-.154.328-.344 0-.479 4.877-5.73 5.325-5.733.53-.004.178 2.105-.573 3.443-.343.61-.562 1.171-.487 1.246.135.135 6.816-6.406 9.376-9.18a84 84 0 0 1 3.123-3.148c1.445-1.376 1.892-1.643 2.252-1.344.385.32.385.496 0 1.237-.334.645-.352.896-.068.991.21.07.433-.03.497-.222.064-.193.647-.917 1.296-1.609.648-.692 1.9-2.072 2.78-3.067 2.97-3.36 4.889-5.31 5.222-5.31.592 0 .563 1.412-.05 2.48-.328.572-.49 1.04-.361 1.04.379 0 1.514-1.34 2.862-3.38.69-1.044 1.442-2.09 1.67-2.322.23-.233.416-.582.416-.775 0-.513.988-1.523 1.49-1.523q.43 0 .467 1.36c.02.748.103 1.108.184.8.08-.308.263-.56.405-.56s.344-.252.448-.56c.277-.821 1.266-2.451 2.32-3.824a45 45 0 0 0 1.813-2.592c1.11-1.737 2.052-1.766 1.883-.059-.061.614-.255 1.29-.43 1.505-.177.214-.263.56-.194.769.07.209.663-.428 1.318-1.415s1.332-1.882 1.504-1.988.312-.42.312-.7c0-.277.213-.665.474-.86.26-.196.513-.711.56-1.146.083-.758-.025-.807-2.634-1.196a247 247 0 0 1-3.824-.596c-1.742-.3-5.987-4.778-7.487-7.897-1.665-3.461-1.606-6 .139-6 .725 0 1.252.922 1.252 2.189 0 1.789 3.273 7.057 4.4 7.082.22.004.4.152.4.328s.169.32.375.32.602.197.88.436c.506.436 5.24 1.213 8.113 1.33.84.035 1.62.155 1.733.269.113.113.59.205 1.06.205.468 0 .951.1 1.072.22.32.32 2.513 1.05 3.171 1.056.31.002.815.147 1.12.32.537.305 8.278 2.564 8.786 2.564.676 0 .105-1.02-1.104-1.973-.745-.586-1.577-1.287-1.85-1.556-.272-.27-1.175-.978-2.005-1.574-.831-.597-1.51-1.189-1.51-1.316s-.54-.314-1.2-.417c-3.077-.477-3.6-.72-3.6-1.678 0-.421-.145-.766-.32-.766-.466 0-.393-1.141.097-1.548.305-.253 1.1-.18 2.932.266 1.383.337 2.599.73 2.702.87.104.143.8.655 1.548 1.14s1.36 1.023 1.36 1.197c0 .173.21.315.465.315.256 0 1.426.718 2.6 1.595 1.173.877 2.25 1.523 2.392 1.435s.35-.014.46.165.6.325 1.089.325c.488 0 .983.096 1.099.212s.608.251 1.093.3 1.352.186 1.926.305c.872.182 1.012.134.85-.29-.108-.28-.72-.608-1.362-.728-1.219-.229-2.221-1.12-5.412-4.819-.924-1.07-1.68-2.107-1.68-2.303 0-.336-.381-.41-2.72-.536-1.338-.071-3.01-.821-3.206-1.438-.09-.285-.665-1.08-1.279-1.77-.613-.689-1.115-1.43-1.115-1.649 0-.217-.566-.753-1.259-1.19-.692-.437-1.376-.99-1.52-1.228-.143-.238-1.244-1.19-2.446-2.116-1.94-1.494-2.246-1.632-2.72-1.23-.641.543-2.802.714-3.093.244-.47-.76-2.81-1.658-3.827-1.468-.561.106-1.123.09-1.248-.035-.125-.126-.69-.275-1.257-.334s-1.534-.168-2.15-.244a127 127 0 0 0-3.2-.325c-1.144-.103-2.263-.25-2.487-.325-.31-.105-.328.011-.07.491.636 1.19-1.394 3.182-2.723 2.672-.267-.102-.844.05-1.282.337-.44.287-.798.45-.798.36s-.595.148-1.323.527c-1.3.678-1.383.681-4.88.203-1.956-.267-3.737-.42-3.957-.34s-.4.568-.4 1.083c0 1.091-.836 2.514-1.477 2.514-.243 0-.443.13-.443.29 0 .158-.792.814-1.76 1.456-1.047.695-1.76 1.402-1.76 1.744 0 .755-2.86 2.529-4.5 2.79-.693.112-1.272.364-1.286.561-.036.505-.148 2.377-.227 3.812-.052.946-.35 1.49-1.353 2.473l-1.286 1.26 1.126.471c1.061.444 1.483 1.32.91 1.892-.118.119-.256.539-.307.934-.05.394-.157 1.077-.237 1.517s-.159.908-.173 1.04c-.015.132-.233.24-.485.24-.57 0-.683.395-1.163 4.067-.376 2.866-.419 2.97-1.56 3.76-.645.447-1.305.813-1.466.813-.325 0-1.753 1.57-1.753 1.927 0 .51 1.71 1.887 2.583 2.079.516.113.937.327.937.477s-.153 1.398-.341 2.774c-.234 1.719-.523 2.654-.92 2.983-.33.273-.658 1.098-.759 1.91-.097.785-.382 1.578-.632 1.76-.924.676-.91 1.582.033 2.362.83.686.882.86.693 2.338-.17 1.323-.417 1.786-1.438 2.694-.678.603-1.506 1.096-1.84 1.096s-1.28.696-2.102 1.546c-4.258 4.405-5.017 5.27-5.05 5.76-.084 1.283-.533 1.974-1.281 1.974-.42 0-.763.128-.763.283 0 .454-1.192.637-1.586.243-.235-.235-.44-.25-.587-.041-.125.175-1.309.86-2.631 1.523-2.185 1.094-2.472 1.351-3.148 2.824-.843 1.837-.708 2.32.366 1.31.633-.594.888-.644 1.884-.369.634.175 1.34.543 1.567.818.366.44.556.355 1.619-.726.663-.673 1.212-1.357 1.22-1.52zm113.168-55.47c.478-.32 1.977-3.063 2.076-3.8.093-.688-.643-2.355-1.04-2.355-.147 0-.268-.192-.268-.426 0-.406-.762-.898-2.023-1.304-.68-.219-1.817.307-1.817.84 0 .203-.286.673-.635 1.045s-.728 1.138-.84 1.703c-.185.921-.11 1.061.714 1.36.531.192 1.304.936 1.826 1.757.89 1.4 1.309 1.647 2.007 1.18" style="fill:#000" transform="translate(-4.001 -25.55)"/></svg>