<svg xmlns="http://www.w3.org/2000/svg" width="411.628" height="207.27"><path d="M7.52 232.678c-2.635-.481-3.607-1.799-3.512-4.76.059-1.85.417-2.868 1.94-5.518.454-.792 1.19-2.124 1.633-2.96s.925-1.52 1.071-1.52.349-.265.452-.588c.102-.323.58-1.037 1.061-1.585s1.447-1.796 2.145-2.772c.699-.976 1.373-1.775 1.499-1.775.125 0 .329-.324.453-.72.123-.396.32-.792.436-.88.117-.088 1.266-1.564 2.553-3.28s2.44-3.12 2.56-3.12c.122 0 .631-.648 1.132-1.44s1.009-1.44 1.13-1.44c.12 0 .662-.612 1.204-1.36s1.254-1.648 1.584-2c.329-.352 1.019-1.216 1.533-1.92s1.302-1.667 1.75-2.14c2.166-2.283 2.639-2.816 4.383-4.95 1.03-1.26 2.305-2.842 2.833-3.515a36 36 0 0 1 2-2.302c.572-.592 1.04-1.124 1.04-1.18 0-.058 1.044-1.172 2.32-2.478a246 246 0 0 0 4.915-5.224c7.495-8.235 11.006-11.783 13.705-13.852 1.133-.868 2.968-2.442 4.08-3.497a333 333 0 0 1 4.072-3.79 134 134 0 0 0 3.418-3.232c.751-.748 1.508-1.36 1.681-1.36s.364-.12.422-.267c.128-.32 3.438-2.613 3.772-2.613.128 0 .4-.368.605-.818s.493-.744.64-.653c.146.09 1.022-.334 1.946-.942.924-.609 1.76-1.107 1.859-1.107.244 0 3.098-2.328 3.232-2.637.06-.136.261-.152.449-.036s.5.008.693-.24 1.533-1.22 2.978-2.161c1.446-.94 2.795-1.912 3-2.158.204-.246.642-.448.972-.448s.601-.127.601-.281.432-.46.96-.679.96-.493.96-.61.396-.448.88-.737c.816-.488 2.01-1.496 4.4-3.714.528-.49 1.79-1.515 2.803-2.277 2.727-2.049 4.111-3.447 8.237-8.317a92 92 0 0 1 2.24-2.556c.44-.47 1.71-1.94 2.823-3.266 1.865-2.223 2.031-2.546 2.13-4.147.058-.955.255-2.096.436-2.536s.494-1.952.695-3.36c.378-2.645.422-2.872.711-3.68.452-1.264.885-3.198.885-3.957 0-.464.144-.843.32-.843s.32-.496.32-1.101c0-.606.144-1.19.32-1.299s.32-.54.32-.96.144-.851.32-.96.32-.757.32-1.44.153-1.336.339-1.452.308-.52.271-.899.099-1.094.302-1.59c.202-.495.368-1.083.368-1.306 0-.94 1.655-3.695 2.96-4.927.308-.29.56-.685.56-.877s.432-.763.96-1.269.96-1.086.96-1.29.288-.631.64-.95.64-.75.64-.957.396-.747.88-1.198c.484-.452 1.888-1.932 3.12-3.289 4.67-5.144 13.59-13.772 14.794-14.31.311-.14.998-.54 1.526-.892a29 29 0 0 1 2.24-1.298c.704-.362 2-1.077 2.88-1.588.88-.51 1.816-1.027 2.08-1.147s.696-.402.96-.627c.64-.545 5.36-2.397 6.526-2.562.51-.072 1.086-.252 1.28-.401.195-.15 1.074-.463 1.954-.697s1.923-.632 2.317-.885c.817-.523 9.07-.66 13.843-.231 1.496.134 2.972.235 3.28.223s.56.095.56.238c0 .241.775.37 4.96.829.88.096 2.054.32 2.608.498 2.29.733 11.106 2.165 12.128 1.97.433-.084.967-.01 1.186.163.219.172 1.17.336 2.112.364s2.002.205 2.353.393.94.263 1.31.166c.368-.096.842-.032 1.053.143s2.018.372 4.017.437c1.998.066 3.849.2 4.113.297s2.136.267 4.16.376c2.024.11 4.4.251 5.28.314 1.692.122 8.927-.83 12.16-1.598 1.056-.252 3.072-.623 4.48-.826 3.944-.569 5.643-.853 8.16-1.367.44-.09 1.592-.261 2.56-.381s2.048-.282 2.4-.36c.964-.21 10.408-.166 11.41.054.48.105 1.16.038 1.512-.15.362-.194.716-.22.816-.057.274.444 8.587.155 12.502-.435 1.936-.292 3.736-.528 4-.526.852.008 3.018-.707 3.84-1.267.44-.3.913-.551 1.051-.558.333-.016 2.325-.944 7.754-3.613 2.467-1.213 4.726-2.205 5.021-2.205s.625-.144.733-.319c.25-.404 3.543-1.921 4.17-1.921.26 0 .471-.114.471-.254s.649-.427 1.442-.639a22 22 0 0 0 2.8-1 28 28 0 0 1 2.638-1.01 32 32 0 0 0 2.56-.942c.704-.3 2.072-.801 3.04-1.113s1.904-.673 2.08-.803c.287-.211 2.38-.73 3.2-.792.176-.013.491-.131.701-.263.893-.56 15.183-.842 15.85-.313.444.353 2.679.924 5.408 1.382 4.835.811 9.827 2.026 11.161 2.716 1.89.977 2.215 1.111 2.701 1.111.259 0 1.001.36 1.65.8.648.44 1.45.8 1.78.8s1.172.36 1.869.8 1.379.8 1.515.8c.502 0 4.231 2.877 5.703 4.4.382.396.837.72 1.01.72.172 0 1.342.864 2.6 1.92s2.366 1.92 2.462 1.92.774.576 1.507 1.28 1.504 1.28 1.713 1.28.464.216.566.48.337.48.524.48c.914 0 4.436 4.872 4.467 6.178.025 1.103 11.275 11.87 13.613 13.029.88.436 1.687.911 1.793 1.056.106.144.383 1.27.615 2.5.346 1.836.348 2.528.01 3.849-.76 2.966-3.948 8.268-4.971 8.268-.202 0-1.113.36-2.025.8s-1.767.8-1.9.801-1.351.434-2.708.961c-1.356.528-2.94.952-3.52.943-1.295-.021-8.232.29-8.894.4-.44.072-2.121-.235-5.684-1.038-1.732-.39-4.142-.397-4.38-.012-.1.162-.235.745-.299 1.295-.108.928-.882 1.852-1.637 1.952-.862.115-2.594-.108-2.864-.368-.167-.162-.606-.294-.976-.294s-.813-.142-.987-.315c-.173-.174-.778-.366-1.345-.428-.566-.062-1.125-.208-1.242-.325s-.49-.212-.83-.212-.999-.198-1.466-.44-1.786-.68-2.93-.973c-1.144-.294-2.8-.732-3.679-.974-1.81-.498-2.209-.327-2.94 1.267a17 17 0 0 1-1.074 1.92c-.349.528-.721 1.212-.828 1.52s-.304.56-.439.56c-.134 0-.325.252-.422.56-.268.845-1.285 2.447-1.738 2.736-.22.14-.4.445-.4.677 0 .231-.288.787-.64 1.234-.352.448-.64 1.043-.64 1.323s-.12.51-.269.51c-.148 0-.66.72-1.14 1.6s-.989 1.6-1.133 1.6-.342.303-.44.674c-.098.377-.36.608-.596.525-.487-.172-.437-1.865.093-3.18.191-.473.259-1.004.15-1.179-.217-.352-1.785 1.06-1.785 1.608 0 .187-.324.738-.72 1.225-.637.784-1.117 1.518-2.1 3.207-.284.487-.807 1.457-1.535 2.848-.221.423-.52.855-.664.96-.143.106-.482.624-.753 1.152-.27.528-.703.96-.96.96-.491 0-.516-.646-.123-3.28.112-.748.08-1.354-.07-1.348s-.99 1.015-1.863 2.24c-.874 1.226-1.702 2.228-1.84 2.228s-.251.143-.251.318c0 .174-.28.642-.621 1.04-.341.397-.926 1.077-1.298 1.512-.565.658-.727.711-.975.32-.413-.654-.38-1.023.163-1.798.259-.37.565-1.301.68-2.071l.21-1.401-2.04 2.16c-2.499 2.646-4.483 4.887-5.455 6.16-.403.528-.843 1.008-.979 1.067-.135.058-.245.253-.245.431 0 .42-3.1 3.462-3.528 3.462-.38 0-.158-1.08.691-3.36.328-.88.596-1.664.596-1.742s-1.22 1.073-2.713 2.56c-1.492 1.486-2.716 2.877-2.72 3.09-.004.215-.322.558-.707.765-.386.206-2.045 1.723-3.688 3.37-1.642 1.649-3.118 2.997-3.28 2.997-.638 0-.647-.681-.024-1.97.359-.743.653-1.546.653-1.785s-1.692 1.32-3.76 3.463c-7.147 7.407-7.817 8.043-8.14 7.72-.202-.202-.193-.74.025-1.532.186-.67.305-1.252.266-1.29-.04-.039-.72.715-1.512 1.675s-1.764 2.054-2.16 2.43-.72.804-.72.95c0 .285-1.315 1.876-2.48 2.998-.396.382-.72.774-.72.872 0 .342-2.513 2.789-2.864 2.789-.716 0-.668-.903.128-2.4.989-1.86 1.05-2.72.195-2.72-.341 0-.71.144-.819.32s-.448.32-.755.32c-.913 0-2.279.765-2.287 1.28-.004.264-.205.84-.448 1.28-1.274 2.312-2.75 5.374-2.75 5.704 0 .207-.108.378-.24.38s-.507.614-.835 1.36a35 35 0 0 1-.942 1.996c-1.42 2.613-4.374 8.715-4.378 9.04-.002.22-.149.4-.325.4s-.32.216-.32.48.216.48.48.48.48.125.48.279c0 .153 1.027.38 2.282.503 1.256.124 2.516.346 2.8.494.285.148 1.332.432 2.327.632 2.82.567 5.61 2.431 7.262 4.853.766 1.121 1.745 2.471 2.176 2.999.491.6.721 1.2.614 1.6-.095.352-.174 1.036-.176 1.52-.003.555-.177.88-.47.88-.256 0-1.175.877-2.042 1.948-.867 1.072-2.052 2.26-2.634 2.64l-1.878 1.229c-.451.295-1.02.547-1.264.56s-.777.383-1.185.823c-.407.44-1.027.8-1.377.8s-.731.153-.847.34c-.353.571-2.538 1.311-4.148 1.405-.528.03-1.419.164-1.98.297-.845.199-1.562-.018-4.16-1.259-1.727-.824-3.755-1.573-4.507-1.663s-1.444-.29-1.539-.442-.595-.278-1.112-.278-.942-.144-.942-.32-.352-.32-.784-.32c-.431 0-1.5-.154-2.375-.341-1.433-.307-2.026-.638-3.541-1.973a3.9 3.9 0 0 0-.96-.598c-.275-.106-.502-.322-.504-.48-.003-.159-.685-1.008-1.515-1.888s-1.512-1.735-1.515-1.9-.55-.956-1.215-1.76c-.665-.803-1.493-1.874-1.84-2.38-1.727-2.52-2.433-3.657-2.904-4.68-.283-.616-.716-1.235-.961-1.376s-.446-.528-.446-.861-.128-.684-.284-.781c-.482-.298-3.723-6.363-3.593-6.723.067-.187.185-1.203.261-2.259s.266-2.492.42-3.191c.154-.7.23-1.322.168-1.384-.127-.127-4.203 1.142-5.047 1.572-.819.417-1.525.344-1.525-.157 0-.242.659-1.07 1.463-1.84 1.87-1.79 2.561-3.033 2.038-3.663-.587-.708-1.898-.546-3.989.493-1.051.522-2.146.954-2.432.96s-.693.217-.904.471c-.21.254-.565.391-.788.305-.223-.085-.59.067-.815.34-.453.545-1.22.631-1.884.21-.323-.204.065-.755 1.557-2.206 1.093-1.063 1.897-2.08 1.786-2.259-.204-.33-3.88.708-4.496 1.27-.167.154-.505.279-.751.279s-.902.2-1.456.445c-3.2 1.412-5.329 1.872-5.329 1.153 0-.177.384-.645.853-1.04 2.475-2.083 2.987-2.57 2.987-2.839 0-.162-.682.069-1.517.513s-1.843.808-2.24.808-.723.138-.723.307c0 .17-.612.485-1.36.702s-1.659.583-2.025.814-.755.33-.865.22-.432.034-.717.319c-.661.661-1.753.673-1.753.02 0-.275.648-1.138 1.44-1.919.792-.78 1.44-1.56 1.44-1.731 0-.401-.937-.07-1.76.622-.352.296-1.432.927-2.4 1.403-3.273 1.609-6.698 4.312-5.073 4.004.238-.045.88.024 1.426.154.958.227 2.891.429 6.48.676.942.065 2.094.263 2.56.44.466.178 1.567.418 2.447.534 1.394.184 1.795.421 3.11 1.837.83.894 1.737 2.07 2.016 2.612s.924 1.634 1.434 2.426c1.316 2.046 2.138 3.888 2.385 5.346.176 1.043.066 1.484-.639 2.56-.468.716-1.233 1.494-1.699 1.73-.465.235-1.254.755-1.751 1.156-.498.4-1.154.728-1.46.728-.305 0-.864.288-1.242.64s-.816.64-.974.64-1.636.886-3.283 1.97c-1.647 1.083-3.575 2.096-4.285 2.252s-1.458.502-1.66.77c-.257.337-.438.377-.591.128-.122-.197-.602-.28-1.071-.183-.467.096-2.074.247-3.57.336s-3.944.243-5.44.343c-1.915.127-4.016-.013-7.107-.473-3.63-.541-10.105-1.103-12.093-1.05a3.4 3.4 0 0 1-.96-.147c-.264-.087-3.36-.217-6.88-.288-7.218-.144-7.673-.19-9.055-.904-.546-.283-1.324-.517-1.729-.521-1.096-.01-3.456-1.174-3.456-1.703 0-.254-.216-.544-.48-.646s-.48-.37-.48-.597c0-.228-.396-.839-.88-1.359s-1.024-1.193-1.2-1.496c-2.074-3.573-2.614-4.435-3.403-5.438-.504-.641-.917-1.331-.917-1.533s-.279-.667-.62-1.033c-.531-.57-.758-.616-1.6-.323-.539.188-.98.26-.98.16 0-.101-.18-.038-.4.139s-.904.427-1.52.556-1.27.354-1.454.501c-.435.348-5.663 2.04-6.02 1.947-.15-.039-.459.083-.685.271-1.2.996-15.616 5.582-18.564 5.906-.384.042-.84.164-1.015.272-.173.107-.808.281-1.409.387s-1.741.34-2.533.52c-.792.181-1.84.383-2.327.448-.489.066-1.037.212-1.22.325s-.791.272-1.353.354c-2.152.315-2.47.398-3.332.875-.489.27-2.184 1.013-3.768 1.652s-3.024 1.276-3.2 1.415c-.176.14-.778.351-1.338.47-.56.12-1.19.425-1.4.678-.209.252-.648.459-.975.459-.694 0-3.25.964-3.494 1.318-.091.133-.523.395-.96.581-.436.187-1.009.482-1.273.656s-2.352 1.4-4.64 2.722-4.376 2.544-4.64 2.715-.984.557-1.6.859-1.527.881-2.025 1.289c-.497.407-1.024.74-1.17.74-.396 0-2.885 1.676-2.885 1.942 0 .126-.349.316-.775.423s-1.183.535-1.68.95a16 16 0 0 1-1.987 1.36c-1.552.868-1.996 1.148-3.245 2.045-.612.44-1.185.8-1.273.8-.088.001-.678.398-1.31.881-.633.483-1.316.879-1.517.879-.202 0-.547.288-.767.64s-.635.64-.923.64c-.287 0-1.062.494-1.721 1.098a22 22 0 0 1-2.6 1.984c-.771.487-1.402 1-1.402 1.142 0 .14-.196.256-.435.256-.24 0-.923.502-1.52 1.117-.597.614-1.258 1.118-1.47 1.12-.21.002-.498.185-.64.408-.14.222-1.101.978-2.135 1.68-1.034.701-1.95 1.455-2.034 1.675-.085.22-.415.4-.734.4-.318 0-.627.108-.685.24-.059.133-1.259 1.131-2.667 2.22a228 228 0 0 0-3.594 2.825 36 36 0 0 1-2.24 1.66c-.663.447-1.321 1.011-1.462 1.254-.14.243-.465.441-.72.441s-.464.126-.464.281c0 .262-5.88 4.839-6.217 4.839-.085 0-.504.324-.932.72-1.766 1.636-3.793 3.257-5.373 4.297-.923.608-1.831 1.3-2.018 1.54-.363.462-3.29 2.723-3.526 2.723-.078 0-.525.356-.995.792-2.28 2.113-4.9 2.95-7.659 2.446" style="fill:#000" transform="translate(-4.001 -25.55)"/><path d="M349.898 30.007c-4.053-.128-12.051.191-13.738.695-.528.158-1.751.593-2.72.967-.967.374-2.697 1.011-3.84 1.414-3.749 1.321-8.443 3.15-10.481 4.082-1.1.504-2.196.914-2.436.914s-.802.289-1.25.64c-.447.353-.973.642-1.168.642s-.604.134-.91.3c-.701.381-8.188 3.967-12.35 5.914-2.309 1.08-3.683 1.52-5.12 1.637-3.935.32-5.832.611-7.503 1.149-.581.187-1.445.24-1.92.119-1.356-.347-8.478-.417-9.123-.09-.365.185-.724.175-.97-.03-.215-.178-.89-.311-1.5-.296s-1.83.003-2.71-.026c-2.966-.097-9.697.455-11.038.905-.44.147-1.09.27-1.442.271-.75.003-5.748.843-8.959 1.506-1.232.255-2.98.52-3.887.592-.905.07-1.785.214-1.953.318s-.938.259-1.713.346c-.774.087-1.983.268-2.687.402-1.67.319-5.909.31-9.92-.021-3.506-.29-4.525-.363-9.28-.657-1.76-.108-3.418-.265-3.685-.347s-1.564-.237-2.88-.344c-3.217-.26-3.596-.308-4.155-.53-.857-.338-5.085-.83-5.719-.663-.339.088-.889.016-1.222-.162-.334-.179-1.824-.485-3.313-.68s-2.994-.483-3.346-.643-3.88-.713-7.84-1.228c-8.301-1.081-14.614-1.19-16.72-.29-.66.283-1.2.461-1.2.395s-.9.233-2 .664-2.406.857-2.904.946-1.433.432-2.08.765a88 88 0 0 1-2.705 1.315c-.84.39-1.632.868-1.76 1.064-.35.541-2.828 1.816-3.066 1.578-.115-.114-.53.079-.926.43-.395.351-1.51 1.156-2.478 1.789s-3.283 2.637-5.145 4.455-3.661 3.54-4 3.828c-1.089.925-4.335 4.463-9.539 10.397-.636.725-1.156 1.46-1.156 1.63 0 .172-.289.573-.64.891-.353.319-.641.707-.641.863 0 .266-.263.636-1.18 1.665-.776.87-2.66 4.752-2.66 5.48 0 .415-.13.834-.287.932-.158.097-.39 1.197-.516 2.443-.137 1.367-.389 2.327-.637 2.422-.228.087-.508.968-.629 1.976-.247 2.075-.794 4.235-1.185 4.682-.146.167-.266.698-.266 1.18 0 .481-.15 1.267-.332 1.746s-.625 2.9-.984 5.38c-.675 4.66-1.553 7.203-2.582 7.473-.296.078-.898.666-1.336 1.309s-1.529 1.935-2.422 2.873-1.623 1.842-1.623 2.008-.36.465-.8.666c-.44.2-.802.501-.802.668 0 .757-5.67 6.716-6.92 7.273-.378.169-4.038 3.324-5.755 4.961-.554.528-1.493 1.236-2.086 1.574s-1.873 1.203-2.844 1.92c-2.09 1.545-2.573 1.854-4.479 2.87-.794.423-2.506 1.593-3.806 2.597s-2.764 2.062-3.252 2.352-1.98 1.283-3.313 2.207a894 894 0 0 1-4.826 3.316c-1.321.9-2.731 2.017-3.133 2.48-.401.465-1.443 1.477-2.316 2.25a222 222 0 0 0-3.838 3.52c-2.168 2.038-3.39 3.07-5.432 4.592-1.163.867-7.52 7.28-7.52 7.586 0 .12-.647.703-1.439 1.297-.792.593-1.44 1.234-1.44 1.425s-1.007 1.331-2.24 2.53c-1.231 1.198-2.24 2.243-2.24 2.322 0 .141-2.057 2.346-5.36 5.75-.925.952-1.68 1.87-1.68 2.041s-.864 1.207-1.92 2.303-1.92 2.056-1.92 2.135c0 .126-3.05 3.713-4.079 4.796-.22.233-.402.563-.402.735s-.648.968-1.44 1.771-1.618 1.842-1.84 2.307c-.22.465-.703.977-1.07 1.139-.366.161-.868.613-1.117 1.005-.558.882-3.213 4.4-3.486 4.62-.11.088-.624.735-1.143 1.44a130 130 0 0 1-1.193 1.6c-.462.592-4.712 6.072-5.21 6.72-.272.351-1.098 1.478-1.837 2.503a316 316 0 0 1-2.383 3.262c-.572.768-1.04 1.55-1.04 1.736 0 .187-.132.338-.294.338C9.102 224 8 226.13 8 227.142c0 .602.22 1.113.561 1.312.737.43.878.423 2.09-.093.566-.242 1.389-.827 1.826-1.301s1.25-1.078 1.807-1.342 1.496-.947 2.086-1.518c.59-.57 1.72-1.532 2.511-2.136s1.63-1.243 1.864-1.42c.232-.178.951-.796 1.597-1.373a28 28 0 0 1 2.457-1.92c.706-.478 1.354-.952 1.442-1.053s1.024-.81 2.08-1.578c1.056-.767 1.992-1.491 2.08-1.61.088-.117.771-.597 1.52-1.066.747-.468 1.36-.99 1.36-1.16s.396-.52.88-.777c.484-.258 1.528-1.054 2.32-1.768s1.613-1.299 1.824-1.299.502-.209.645-.465c.143-.255 1.625-1.476 3.295-2.712s3.523-2.647 4.119-3.135 1.46-1.09 1.92-1.336c.46-.247 1.685-1.11 2.72-1.92 3.048-2.383 4.14-3.176 5.157-3.744.528-.295 1.844-1.236 2.925-2.092s2.13-1.557 2.33-1.557.448-.214.55-.478c.1-.264.368-.48.593-.48s1.144-.506 2.04-1.122c.895-.616 1.715-1.119 1.821-1.119.107 0 .81-.503 1.56-1.119.753-.616 1.514-1.121 1.694-1.121s.498-.204.703-.451c.206-.248.835-.69 1.399-.983 1.54-.8 2.206-1.206 3.43-2.086 1.4-1.008 3.241-2.042 5.195-2.918.836-.375 1.52-.786 1.52-.914 0-.127.567-.486 1.261-.799.694-.312 1.337-.767 1.43-1.01.093-.241.354-.443.58-.447s.769-.288 1.209-.632 1.12-.63 1.51-.633.862-.295 1.05-.647.52-.64.737-.64.929-.289 1.586-.64c.656-.353 1.353-.64 1.547-.64s.734-.257 1.2-.572c.468-.314 1.426-.76 2.13-.99s2.287-.898 3.52-1.483a92 92 0 0 1 4-1.777 176 176 0 0 0 2.808-1.164c.576-.248 1.87-.606 2.879-.795s2.375-.54 3.039-.781c.663-.24 1.536-.438 1.94-.438.402 0 2.453-.441 4.554-.982s4.109-1.042 4.46-1.113c1.407-.284 3.61-.913 5.28-1.504 7.303-2.588 10.816-3.744 11.4-3.752.375-.005.861-.224 1.08-.488s.704-.482 1.079-.483c.374 0 1.04-.186 1.48-.412s2.276-.894 4.078-1.484c3.423-1.122 4.418-1.822 6.643-4.668a39 39 0 0 1 1.44-1.75c3.573-3.892 5.686-6.353 5.865-6.834.12-.325.506-.666.857-.758s.639-.344.639-.56c0-.603 2.198-2.733 2.814-2.727.722.006 1.185.346 1.451 1.066.218.588-.347 1.482-2.19 3.469-.437.473-.796.986-.796 1.14 0 .155-.478.706-1.063 1.223-.584.517-1.6 1.644-2.255 2.504-.657.86-1.677 2.084-2.268 2.719-2.967 3.187-3.709 4.091-3.885 4.74-.249.918 1.386 4.213 3.1 6.246.709.84 1.194 1.683 1.076 1.873s.09.559.46.819c.372.26.675.652.675.873s.46.873 1.023 1.449 1.175 1.334 1.36 1.685c.556 1.058 7.138 3.095 8.556 2.649 1.028-.324 10.992-.199 13.22.166 1.233.201 3.394.417 4.802.478 1.408.062 2.926.256 3.375.432 1.805.708 6.285.96 10.224.576a318 318 0 0 1 6.24-.5c5.627-.4 5.422-.336 5.538-1.695.095-1.12.052-1.17-1.92-2.098-1.11-.522-2.343-1.047-2.739-1.166s-.718-.351-.718-.515-.271-.297-.602-.297-1.158-.239-1.84-.53c-.681-.29-3.454-.842-6.162-1.224-4.086-.577-5.473-.648-8.16-.414-1.78.154-3.699.424-4.264.6-1.56.484-3.613-.149-3.613-1.116 0-.406.27-.982.598-1.28.506-.457.885-.493 2.48-.241 1.067.168 2.107.176 2.403.02.286-.153.933-.266 1.439-.255s1.64-.073 2.52-.185c2.26-.29 3.277-.228 8.16.486 4.821.705 5.44.85 5.44 1.28 0 .163.405.298.9.298.494 0 1.177.21 1.52.469.34.258.98.479 1.42.49s1.08.232 1.42.49c.342.259.848.476 1.122.48.274.006 1.064.437 1.756.96.691.523 1.41.952 1.6.953.188.001.715.196 1.17.434.708.37.982.357 1.92-.084 1.594-.752 1.551-1.567-.157-2.995-.788-.658-1.603-1.197-1.812-1.197-.329 0-1.769-1.117-3.526-2.734-.279-.257-.75-.465-1.045-.465s-.786-.134-1.092-.297c-.718-.383-7.986-1.305-10.476-1.328-1.056-.01-2.753.129-3.772.309s-2.07.242-2.336.14-1.354-.001-2.418.225c-1.635.347-1.977.341-2.218-.04-.157-.247-.289-.563-.291-.7-.01-.436 2.343-1.658 3.35-1.74.53-.044 3.197-.27 5.925-.505s5.176-.316 5.44-.183 1.6.395 2.968.58c1.369.185 3.344.696 4.39 1.137 1.047.44 2.116.8 2.378.8.446 0 1.438.58 3.967 2.313 1.216.833 2.297 1.864 2.297 2.191 0 .123.516.469 1.146.768 1.09.517 1.165.514 1.588-.045.558-.736.577-1.22.066-1.777a8.5 8.5 0 0 1-.72-.93c-1.01-1.562-2.36-3.366-3.2-4.275-.845-.916-1.23-1.069-3.2-1.274-1.233-.128-2.398-.362-2.59-.52-.193-.157-1.693-.361-3.333-.453-1.64-.091-3.138-.289-3.33-.441-.191-.152-1.283-.312-2.427-.353-2.893-.105-3.318-.095-6.43.136-2.844.212-3.128.12-3.582-1.156-.133-.374.353-1.054 1.597-2.24 2.617-2.494 2.685-2.564 4.254-4.293 2.14-2.358 3.84-4.478 3.85-4.803.005-.158.658-1.007 1.453-1.887s1.654-2.032 1.906-2.56c.253-.528.595-1.176.76-1.44.64-1.02 1.633-3.24 1.633-3.65 0-.237.214-.611.478-.83.264-.22.48-.733.48-1.14 0-.409.133-.823.294-.923.322-.199 1.627-2.776 1.627-3.213 0-.15.189-.501.42-.779s.688-1.153 1.015-1.945a132 132 0 0 1 1.627-3.68c1.519-3.3 1.639-3.823 2.707-11.705 1.043-7.687 1.22-10.966.692-12.775-1.3-4.443-1.691-5.589-2.065-6.043-.233-.284-.63-.949-.882-1.477s-1.577-2.424-2.946-4.213c-1.368-1.789-2.488-3.505-2.488-3.814 0-.95.949-1.762 1.63-1.397.514.275 3.539 4.09 4.688 5.912.927 1.47 3.6 7.169 4.125 8.791.92 2.843.791 7.872-.422 16.582-.928 6.669-1.154 7.707-2.13 9.76-.602 1.264-1.288 2.874-1.524 3.578s-.757 1.782-1.158 2.395-.729 1.275-.729 1.47c0 .359-.754 2.122-1.289 3.016-.393.657-2.327 4.62-3.17 6.494-.38.844-.936 1.782-1.236 2.084s-.732.908-.96 1.346l-1.044 1.994c-.344.66-.912 1.379-1.263 1.598-.352.22-.637.65-.637.955 0 .486.11.508.879.176a9.6 9.6 0 0 0 1.617-.934c.406-.304 1.391-.868 2.187-1.254.797-.385 1.523-.899 1.616-1.14.092-.242.433-.44.755-.44.323 0 .677-.144.786-.32s.829-.608 1.6-.96c.77-.35 1.49-.785 1.6-.964.112-.18.325-.25.473-.158.15.092.692-.187 1.206-.62q.934-.784 1.626-.603c.382.1.694.25.694.332s-.852 1.095-1.893 2.248c-1.057 1.172-1.82 2.288-1.726 2.531.226.59.642.547 1.822-.181.549-.339 1.862-.937 2.918-1.33s2.457-1.05 3.113-1.463 1.278-.75 1.381-.75.662-.364 1.242-.807c.914-.696 1.11-.741 1.448-.334.448.54.193 1.14-.485 1.14-.253 0-.46.227-.46.505 0 .277-.432.937-.96 1.465-.92.92-1.297 2.19-.65 2.19.328 0 1.226-.369 4.33-1.776 1.75-.794 3.381-1.338 4.64-1.55.265-.044 1.23-.465 2.149-.937 2.918-1.497 3.483-1.008 1.3 1.131-1.408 1.381-1.257 1.937.3 1.098 1.73-.933 3.14-1.542 3.927-1.693.439-.085 1.03-.364 1.315-.622.505-.457 1.568-.321 1.568.2 0 .144-.333.525-.74.845-1.151.907-2.886 2.983-2.672 3.198.106.106.522-.02.924-.28a6.3 6.3 0 0 1 1.61-.69c1.447-.356 1.087.641-.915 2.534-.986.933-1.707 1.836-1.601 2.006.218.354 2.17-.558 3.302-1.543.406-.353.905-.64 1.11-.64.529 0 1.543-.98 1.543-1.49 0-.238.135-.43.3-.43.166 0 .822-1.045 1.458-2.32a124 124 0 0 1 1.425-2.802c.149-.264.742-1.457 1.319-2.654s1.169-2.25 1.314-2.34.275-.478.287-.863c.013-.386.58-1.71 1.26-2.942 2.288-4.143 2.877-5.401 2.877-6.142 0-.406.126-.738.28-.738.152 0 .68-1.548 1.171-3.44.924-3.555 1.452-4.56 2.399-4.56.782 0 1.43.857 1.029 1.361-.176.22-.414 1.063-.531 1.875s-.42 1.748-.67 2.08c-.252.332-.467 1.109-.479 1.725s-.298 1.694-.639 2.398c-.34.704-.622 1.411-.628 1.57s-.373.763-.813 1.34-.799 1.23-.799 1.45c0 .531-1.258 3.108-1.629 3.337-.16.1-.29.597-.29 1.104s-.16 1.02-.354 1.14-.556.669-.805 1.22c-.458 1.013-.792 1.592-1.803 3.128-.308.468-.558 1.07-.558 1.338s-.187.678-.412.91c-.226.233-.98 1.72-1.676 3.305-1.17 2.664-2.894 5.623-3.412 5.86-.685.31-2.453 4.894-2.655 6.882-.203 2.007-.155 2.281.606 3.432.455.688.828 1.38.828 1.539 0 .158.239.485.531.726.293.242.802 1.015 1.131 1.72.726 1.554 1.057 2.104 2.498 4.15.616.874 1.365 2.134 1.664 2.8.3.666.761 1.21 1.026 1.21.264 0 .722.508 1.017 1.13s.817 1.329 1.158 1.568c.342.24.655.664.696.944.118.802 2.924 3.31 4.513 4.035.795.362 2.634.82 4.086 1.018 1.453.197 2.867.555 3.145.793.278.237.759.431 1.068.431s1.496.432 2.635.96c2.148.993 2.572 1.12 4.809 1.421 1.22.165 1.374.105 1.77-.7.237-.483.384-1.097.325-1.36-.058-.265-1.838-1.322-3.953-2.35-2.897-1.409-4.411-1.949-6.142-2.19-1.785-.248-2.459-.495-3.018-1.107-1.375-1.506-.511-2.36 1.75-1.732.666.185 1.644.337 2.172.34.528.002 1.728.364 2.67.802.941.438 1.968.797 2.281.797s.75.216.969.48.73.481 1.139.481c.408 0 .837.151.953.338s.52.476.898.64c.379.165.904.423 1.168.575 1.603.92 2.53 1.275 3.522 1.355 1.226.1 2.565-.467 2.55-1.08-.03-1.28-5.115-4.709-6.984-4.709-.533 0-1.054-.135-1.156-.3-.103-.166-1.165-.398-2.362-.516-1.301-.129-2.479-.444-2.931-.785-.727-.548-.736-.602-.223-1.385.594-.907 1.359-.911 4.594-.026.907.249 2.014.452 2.46.452s.893.127.989.283c.097.156.665.377 1.266.49.6.113 1.267.416 1.482.676s.568.47.783.47.932.523 1.59 1.163c.904.878 1.543 1.202 2.61 1.322 1.227.138 1.41.081 1.4-.442-.025-1.34-2.508-4.28-4.252-5.033-1.346-.581-4.887-1.386-8.057-1.832-1.408-.198-3.136-.616-3.84-.93-.704-.313-1.58-.663-1.949-.775-1.117-.34-1.55-1.516-1.088-2.959.217-.678.521-1.37.676-1.537s.281-.564.281-.88c0-.318.113-.577.25-.577.138 0 .533-.73.88-1.625.346-.895.81-1.778 1.03-1.96.22-.184.4-.585.4-.894 0-.308.215-.741.48-.96.263-.22.484-.56.488-.758.004-.199.288-.722.633-1.162.344-.44.628-1.11.632-1.487s.196-.757.426-.845c.23-.089.596-.753.813-1.475s.532-1.313.7-1.313c.17 0 .307-.432.307-.96s.141-.96.313-.96.613-.613.98-1.36c.934-1.9 1.456-2.796 1.872-3.212.196-.196.357-.687.357-1.092 0-.404.117-.736.262-.736.144 0 .585-.645.978-1.433.394-.788.852-1.517 1.018-1.62.165-.102.3-.4.3-.662 0-.261.684-1.63 1.52-3.04.836-1.412 1.79-3.098 2.117-3.747.328-.648.795-1.293 1.04-1.433.243-.141.445-.593.445-1.002s.214-.924.478-1.143.48-.533.48-.697.361-.827.801-1.475c.44-.647.8-1.42.8-1.717 0-.296.114-.585.253-.644.515-.217 1.666-2.448 1.666-3.23 0-.445.201-.885.445-.98.245-.093.52-.72.614-1.394a43 43 0 0 1 .523-2.824c.196-.88.409-2.345.475-3.258s.213-1.808.326-1.99.282-1.812.379-3.619c.096-1.807.231-3.374.299-3.482.067-.11-.007-.646-.164-1.194s-.323-1.614-.368-2.367-.25-1.73-.46-2.17-.565-1.59-.79-2.559c-.224-.968-.555-2.12-.736-2.56s-.35-.873-.377-.961c-.143-.472-2.277-4.702-2.556-5.068-.18-.237-.653-.759-1.05-1.159-.395-.4-.718-.809-.718-.912 0-.314-1.495-1.82-1.807-1.82-.342 0-1.465-1.227-1.756-1.92-.11-.264.02-.733.29-1.04.864-.986 1.367-.783 4.072 1.626.947.844 2.4 2.735 2.4 3.125 0 .247.114.45.252.45.309 0 2.45 3.692 2.783 4.798.133.44.422 1.017.643 1.281.22.264.516 1.056.656 1.76s.271 1.352.29 1.44c.111.55.91 3.442 1.06 3.84.442 1.17.772 12.089.373 12.335-.163.101-.297 1.236-.297 2.524 0 1.627-.137 2.458-.451 2.719-.249.206-.545 1.123-.658 2.039-.114.915-.324 1.95-.467 2.302-.977 2.401-1.804 4.07-2.164 4.37-.232.191-.42.735-.42 1.206 0 .472-.161 1.017-.358 1.213-.415.416-1.064 1.514-1.57 2.653-.195.44-.651 1.117-1.014 1.504-.37.395-.575.92-.468 1.199.167.435.331.416 1.33-.145.627-.352 1.43-.638 1.785-.638 1.108 0 2.427-.888 2.953-1.987.44-.918 2.781-3.706 2.781-3.31 0 .21 1.517-1.335 1.822-1.858.653-1.115 2.477-2.884 3.016-2.923.75-.056 2.203-1.292 2.203-1.875 0-.241-.505-.972-1.12-1.625-.617-.654-1.12-1.27-1.12-1.368s.48-.847 1.066-1.664c.686-.954 1.142-2.034 1.278-3.025.116-.848.5-1.947.853-2.443 1.058-1.486.844-2.355-.957-3.874-1.167-.984-1.599-1.574-1.595-2.18.007-1.331.356-2.269.843-2.269.25 0 .533-.21.631-.467.099-.256.812-.837 1.586-1.29 1.527-.895 1.516-.868 2.065-4.963.267-1.994.57-2.992 1.136-3.739.633-.833.717-1.168.461-1.84-.254-.669-.522-.822-1.449-.822-1.757 0-1.775-.754-.06-2.504.805-.822 1.672-1.72 1.925-1.994.71-.77.986-3.056.508-4.21-.392-.948-.363-1.036.66-1.89.59-.492 1.19-.823 1.334-.734.435.269 2.617-.516 3.586-1.29.823-.659.867-.796.479-1.423-.367-.59-.358-.74.05-1 .264-.168.81-.306 1.213-.308.404-.003 1.52-.6 2.48-1.325 1.392-1.05 1.747-1.502 1.747-2.222 0-.497.327-1.284.728-1.75l.729-.848 3.65.537c3.553.523 3.684.52 4.951-.09.716-.345 1.792-.862 2.391-1.148.6-.286 1.33-.52 1.621-.52.423 0 .526-.308.51-1.52l-.02-1.52 1.94-.094c1.892-.092 4.093.189 6.715.857.712.182 2.151.395 3.199.473 2.355.175 4.33.753 4.809 1.408.284.39.73.452 2.09.293 2.589-.304 3.898.007 4.626 1.098.342.511.867 1.008 1.168 1.105.673.216 5.373 4.74 5.373 5.172 0 .17.5.824 1.112 1.453.855.88 1.536 1.233 2.959 1.523 2.543.52 2.969.77 4.216 2.49 1.886 2.6 4.813 5.182 5.875 5.182 1.019 0 2.192.772 4.022 2.647.924.946 1.529 1.261 2.803 1.463.893.14 1.9.153 2.238.025.338-.127 1.237-.153 1.996-.057 1.266.16 4.099-.275 5.658-.869 1.308-.498 4.18-1.546 4.72-1.724a.87.87 0 0 0 .561-.772c0-.622-1.803-3.273-2.226-3.273-.444 0-1.934-2.523-1.934-3.276 0-.401.289-.91.64-1.13.353-.22.64-.587.64-.815s.358-.898.795-1.49c.783-1.062.785-1.083.16-1.522-.349-.244-.635-.688-.635-.988s-.289-.725-.64-.945c-.353-.22-.64-.544-.64-.72 0-.178-1.585-1.884-3.52-3.792-1.937-1.908-3.52-3.698-3.52-3.98s-.36-1.043-.8-1.692c-.44-.648-.8-1.416-.8-1.705 0-.471-4.212-4.247-6.096-5.465-.408-.264-1.345-1.02-2.08-1.68s-1.499-1.2-1.699-1.2-.365-.127-.365-.282-.828-.909-1.84-1.678-1.912-1.47-2-1.56-.736-.589-1.44-1.11c-.704-.52-1.47-1.133-1.703-1.359-.232-.226-.684-.412-1.002-.412s-.755-.215-.974-.479c-.22-.264-.643-.48-.94-.48s-.818-.212-1.16-.47c-.341-.26-.928-.474-1.303-.48-.374-.005-.859-.225-1.078-.49-.219-.263-.61-.48-.87-.48-.444 0-1.52-.413-3.77-1.45-.528-.242-1.68-.537-2.56-.655s-1.745-.323-1.92-.455c-.177-.133-1.183-.344-2.24-.471-1.055-.127-2.063-.343-2.24-.48-.175-.138-1.328-.355-2.56-.483s-2.341-.394-2.465-.592c-.094-.151-1.006-.244-2.357-.287m-7.14 3.02c.32-.01.684.025 1.142.097.847.133 1.95.28 2.45.324.5.046 1.068.243 1.263.438s.547.353.781.353c.702 0 5.322 2.28 5.951 2.938.644.672.97 2.714.483 3.016-.17.104-.432.516-.584.918-.454 1.192-2.701 2.062-5.22 2.017-1.196-.021-2.25-.16-2.339-.305-.09-.145-.674-.263-1.299-.263-1.12 0-1.135.016-.933 1.088.326 1.74-1.069 2.762-2.12 1.552-.827-.952-.964-2.274-.388-3.78.745-1.951 1.675-2.506 3.42-2.04.745.2 1.527.502 1.736.674.21.171 1.153.378 2.1.459 1.44.123 1.817.042 2.312-.506.578-.638.575-.673-.156-1.451-.412-.438-1.004-.795-1.315-.795s-.653-.144-.761-.32c-.11-.176-.483-.32-.83-.32-.348 0-.968-.22-1.377-.489-.41-.268-1.665-.569-2.79-.666-2.033-.176-2.05-.17-3.404 1.092-.771.72-1.36 1.561-1.36 1.945 0 .372-.13.678-.288.678s-.39 1.014-.514 2.256c-.185 1.847-.133 2.361.287 2.826.283.312.516.711.516.887 0 .9 2.36 2.227 3.695 2.076 1.006-.114 1.83.968 1.465 1.926-.312.82-1.223.98-3.885.683-.848-.094-1.309-.396-1.88-1.23-.417-.608-.87-1.106-1.006-1.106-.137 0-.676-.755-1.198-1.68l-.949-1.681.46-3.52c.415-3.195.544-3.6 1.398-4.394.516-.482.939-1.025.939-1.207s.36-.495.8-.695c.44-.201.8-.453.8-.561s.494-.461 1.1-.787c.544-.293.962-.432 1.497-.447m38.18 18.63c.25-.002.475.022.661.079.915.28 3.141 2.249 3.287 2.908.304 1.368.08 4.276-.363 4.719-.257.256-.515.575-.574.71-.167.377-2.073 1.37-2.559 1.334-.237-.017-1.001-.164-1.7-.328-1.543-.361-2.593-1.298-3.374-3.01-.487-1.067-.534-1.545-.272-2.777.175-.818.525-1.66.778-1.869.252-.21.459-.275.459-.146s.25-.077.558-.457c.506-.624 2.02-1.15 3.1-1.163" style="fill:#784421" transform="translate(-4.001 -25.55)"/><path d="M296.624 131.065c.02-.355 2.663-3.444 5.26-6.144 1.334-1.388 2.056-1.913 2.48-1.802.723.189.726.225.09 1.197-.279.425-.458 1.027-.398 1.338.104.538.131.538.586-.006.263-.315.825-.886 1.25-1.27s1-.963 1.28-1.288c1.456-1.692 4.214-4.37 4.5-4.37.18 0 .328-.154.328-.344 0-.479 4.877-5.73 5.325-5.733.53-.004.178 2.105-.573 3.443-.343.61-.562 1.171-.487 1.246.135.135 6.815-6.406 9.376-9.18a84 84 0 0 1 3.123-3.148c1.445-1.376 1.892-1.643 2.252-1.344.385.32.385.496 0 1.237-.334.645-.352.896-.068.991.21.07.433-.03.497-.222.064-.193.647-.917 1.296-1.609.648-.692 1.9-2.072 2.78-3.067 2.97-3.36 4.889-5.31 5.222-5.31.592 0 .563 1.412-.05 2.48-.328.572-.49 1.04-.361 1.04.379 0 1.514-1.34 2.862-3.38.69-1.044 1.442-2.09 1.67-2.322.23-.233.416-.582.416-.775 0-.513.988-1.523 1.49-1.523q.43 0 .467 1.36c.02.748.103 1.108.184.8.08-.308.263-.56.405-.56s.344-.252.448-.56c.277-.821 1.266-2.451 2.32-3.824a45 45 0 0 0 1.813-2.592c1.11-1.737 2.052-1.766 1.883-.059-.061.614-.255 1.29-.43 1.505-.177.214-.263.56-.194.769.07.209.663-.428 1.318-1.415s1.332-1.882 1.504-1.988.312-.42.312-.7c0-.277.213-.665.474-.86.26-.196.513-.711.56-1.146.083-.758-.025-.807-2.634-1.196a247 247 0 0 1-3.824-.596c-1.742-.3-5.987-4.778-7.487-7.897-1.665-3.461-1.606-6 .139-6 .725 0 1.252.922 1.252 2.189 0 1.789 3.273 7.057 4.4 7.082.22.004.4.152.4.328s.169.32.375.32.602.197.88.436c.506.436 5.24 1.213 8.113 1.33.84.035 1.62.155 1.733.269.113.113.59.205 1.06.205.468 0 .951.1 1.072.22.32.32 2.513 1.05 3.171 1.056.31.002.815.147 1.12.32.537.305 8.278 2.564 8.786 2.564.676 0 .105-1.02-1.104-1.973-.745-.586-1.577-1.287-1.85-1.556-.272-.27-1.175-.978-2.005-1.574-.831-.597-1.51-1.189-1.51-1.316s-.54-.314-1.2-.417c-3.077-.477-3.6-.72-3.6-1.678 0-.421-.145-.766-.32-.766-.466 0-.393-1.141.097-1.548.305-.253 1.1-.18 2.932.266 1.383.337 2.599.73 2.702.87.104.143.8.655 1.548 1.14s1.36 1.023 1.36 1.197c0 .173.21.315.465.315.256 0 1.426.718 2.6 1.595 1.173.877 2.25 1.523 2.392 1.435s.35-.014.46.165.6.325 1.089.325c.488 0 .983.096 1.099.212s.608.251 1.093.3 1.352.186 1.926.305c.872.182 1.012.134.85-.29-.108-.28-.72-.608-1.362-.728-1.219-.229-2.221-1.12-5.412-4.819-.924-1.07-1.68-2.107-1.68-2.303 0-.336-.381-.41-2.72-.536-1.338-.071-3.01-.821-3.206-1.438-.09-.285-.665-1.08-1.279-1.77-.613-.689-1.115-1.43-1.115-1.649 0-.217-.566-.753-1.259-1.19-.692-.437-1.376-.99-1.52-1.228-.143-.238-1.244-1.19-2.446-2.116-1.94-1.494-2.246-1.632-2.72-1.23-.641.543-2.802.714-3.093.244-.47-.76-2.81-1.658-3.827-1.468-.561.106-1.123.09-1.248-.035-.125-.126-.69-.275-1.257-.334s-1.534-.168-2.15-.244a127 127 0 0 0-3.2-.325c-1.144-.103-2.263-.25-2.487-.325-.31-.105-.328.011-.07.491.636 1.19-1.394 3.182-2.723 2.672-.267-.102-.844.05-1.282.337-.44.287-.798.45-.798.36s-.595.148-1.323.527c-1.3.678-1.383.681-4.88.203-1.956-.267-3.737-.42-3.957-.34s-.4.568-.4 1.083c0 1.091-.836 2.514-1.477 2.514-.244 0-.443.13-.443.29 0 .158-.792.814-1.76 1.456-1.047.695-1.76 1.402-1.76 1.744 0 .755-2.86 2.529-4.5 2.79-.693.112-1.272.364-1.286.561-.036.505-.148 2.377-.227 3.812-.052.946-.35 1.49-1.353 2.473l-1.286 1.26 1.126.471c1.061.444 1.483 1.32.91 1.892-.118.119-.256.539-.307.934-.05.394-.157 1.077-.237 1.517s-.159.908-.173 1.04c-.015.132-.233.24-.485.24-.57 0-.683.395-1.163 4.067-.376 2.866-.419 2.97-1.56 3.76-.645.447-1.305.813-1.466.813-.325 0-1.753 1.57-1.753 1.927 0 .51 1.71 1.887 2.583 2.079.516.113.937.327.937.477s-.153 1.398-.341 2.774c-.234 1.719-.523 2.654-.92 2.983-.33.273-.658 1.098-.759 1.91-.097.785-.382 1.578-.632 1.76-.924.676-.91 1.582.033 2.362.83.686.882.86.693 2.338-.17 1.323-.417 1.786-1.438 2.694-.678.603-1.506 1.096-1.84 1.096s-1.28.696-2.102 1.546c-4.258 4.405-5.017 5.27-5.05 5.76-.084 1.283-.533 1.974-1.281 1.974-.42 0-.763.128-.763.283 0 .454-1.192.637-1.586.243-.235-.235-.44-.25-.587-.041-.125.175-1.309.86-2.631 1.523-2.185 1.094-2.472 1.351-3.148 2.824-.843 1.837-.708 2.32.366 1.31.633-.594.888-.644 1.884-.369.634.175 1.34.543 1.567.818.366.44.556.355 1.619-.726.663-.673 1.212-1.357 1.22-1.52z" style="fill:#fca" transform="translate(-4.001 -25.55)"/><path d="M409.792 75.595c.478-.32 1.977-3.063 2.076-3.8.093-.688-.643-2.355-1.04-2.355-.147 0-.268-.192-.268-.426 0-.406-.762-.898-2.023-1.304-.68-.219-1.817.307-1.817.84 0 .203-.286.673-.635 1.045s-.728 1.138-.84 1.703c-.185.921-.11 1.061.714 1.36.531.192 1.304.936 1.826 1.757.89 1.4 1.309 1.647 2.007 1.18" style="fill:#c8b7b7" transform="translate(-4.001 -25.55)"/><path d="M381.509 58.16c.281-.22.602-.838.712-1.374.16-.776.041-1.124-.583-1.71-.71-.667-.886-.7-1.865-.346-.97.35-1.086.523-1.132 1.686-.074 1.858 1.5 2.815 2.868 1.744" style="fill:#f60" transform="translate(-4.001 -25.55)"/></svg>