<svg xmlns="http://www.w3.org/2000/svg" version="1.0" viewBox="0 0 394.02 362.4"><path d="M325.03 11.969c-10.77.347-26.57 5.05-34.97 15.375-11.43 14.052-31.29 10.177-42.28 4.75l-.22-9.875h-.22c-.5-.613-2.03-1.112-3.81-1.188-1.77-.076-3.24.302-3.65.875-.02.017-.03.046-.04.063 0 .005-.02.025-.03.031v.031c0 .006-.03.026-.03.031v.313c.01.024.02.07.03.094.01.006.03.025.03.031.01.006 0 .025 0 .031.01.006.03.026.04.031 0 .006.02.026.03.032h-.16l5.31 256.91c-116.88 14.2-173.72 35.09-230.31 55.34v.07l.031.03c1.24 1.13 7.063 8.95 22.125 23.22.003 0 .029.02.032.03 8.695 8.25 20.479 22.4 36.531 31.31 17.496 9.71 39.811 19.14 68.561 26.78 110.47-.93 207.98-22.38 237.85-32.31 9.14-3.04 19.58-16.64 27.24-27.31l.16-.22c.01-.02.05-.07.06-.1.02-.03.05-.09.07-.12 6.05-8.59 10.34-18.58 14.71-27.53.13-.06.26-.13.38-.19 7.67-15.62 11.91-24.12 11.91-24.12-.85.17-1.69.35-2.53.53.84-.25 1.68-.5 2.53-.75-13.87-4.53-26.74-8.94-39.85-12.97l.47-9.69.13-.03.68-7.97-4.31-1.47-47.72 6.69c-12.67-2.22-26.51-3.97-42.19-5.1-17.33 1.54-33.55 3.17-48.78 4.94l-3.34-162.37c15.71 6.52 25.86-.99 44.03-11.85 19.09-11.404 34.6-7.092 47.91-1.5l-.13-84.902c-.09-.058-.81-.529-6.37-4.25-1.79-1.197-5.19-1.803-9.41-1.719-.17.003-.33-.006-.5 0zM14.5 334.809v.03h.031c.011.01.052.03.063.04v-.07H14.5" style="stroke-linejoin:round;color:#000;stroke:#000;stroke-linecap:round;stroke-width:7;fill:none" transform="rotate(8.628 346.528 216.347)scale(.9233)"/><path d="M369.92 281.43h25.13l-2.4 48.33z" style="stroke-linejoin:round;fill-rule:evenodd;color:#000;stroke:#000;stroke-linecap:round;fill:#4b3c21" transform="rotate(8.628 346.528 216.347)scale(.9233)"/><path d="M246.55 31.455c10.68 5.734 31.65 10.484 43.53-4.109 11.87-14.594 38.5-17.907 44.86-13.653l6.36 4.253.13 84.884c-13.31-5.595-28.82-9.898-47.91 1.51-19.09 11.41-29.31 19.1-46.44 10.73z" style="fill-rule:evenodd;stroke:#000;fill:#1d1d1d" transform="rotate(8.628 346.528 216.347)scale(.9233)"/><g style="stroke:#000;stroke-width:3.2621"><path d="m-72.143-117.64 181.43 130.72c-20.165 18.813 35.14 52.242 25.71-.718 61.48-13.796-1.42-50.627-11.43-18.571l-174.28-130.71c17.155-24.32-40.594-37.07-24.29-2.15-44.29-15.71-21.429 48.575 2.857 21.43z" style="stroke-linejoin:round;fill-rule:evenodd;color:#000;stroke:#000;stroke-linecap:round;stroke-width:3.2621;fill:#bbb" transform="matrix(.29707 -.05113 -.02179 .27342 288.247 69.711)"/><path d="m-67.126 6.133 198.28-103.39c7.76 26.46 62.46-7.943 10.91-23.303 15.28-61.12-45.872-21.47-21.73 1.87l-195.06 97.015C-88.748-47.928-126.076-2.058-87.551-.94c-33.935 32.51 33.773 40.96 20.429 7.071z" style="stroke-linejoin:round;fill-rule:evenodd;color:#000;stroke:#000;stroke-linecap:round;stroke-width:3.2621;fill:#bbb" transform="matrix(.29707 -.05113 -.02179 .27342 288.247 69.711)"/><path d="M31-135.59c-39.088 1.37-70.281 27.17-70.281 58.715 0 22.812 16.313 42.646 40.125 52.375v50.906h66.875V-24.5c23.812-9.729 40.12-29.563 40.12-52.375 0-32.425-32.95-58.715-73.558-58.715-.476 0-.932-.01-1.406 0-.156 0-.313-.01-.47 0-.154 0-.344-.01-.5 0-.153 0-.282-.01-.436 0-.154 0-.316-.01-.47 0z" style="stroke-linejoin:round;fill-rule:evenodd;color:#000;fill-opacity:.71924;stroke:#000;stroke-linecap:round;stroke-width:3.2621;fill:#000" transform="matrix(.29707 -.05113 -.02179 .27342 288.247 69.711)"/><path d="M31.919-135.59c-39.519.99-71.186 26.93-71.186 58.728 0 22.812 16.293 42.628 40.105 52.357v50.921h66.895v-50.921c23.813-9.729 40.107-29.545 40.107-52.357 0-32.428-32.945-58.728-73.554-58.728-.476 0-.946-.01-1.42 0-.156 0-.318-.01-.474 0-.155 0-.318-.01-.473 0zM6.613-118.64c.052 0 .106.01.158 0h.473c13.519 0 24.486 18.28 24.486 40.795 0 22.52-10.967 40.792-24.486 40.792s-24.487-18.272-24.487-40.792c0-22.165 10.627-40.235 23.856-40.795m54.241 0h.474c13.519 0 24.486 18.28 24.486 40.795 0 22.52-10.967 40.792-24.486 40.792S36.842-55.325 36.842-77.845c0-22.255 10.712-40.375 24.012-40.795" style="stroke-linejoin:round;fill-rule:evenodd;color:#000;stroke:#000;stroke-linecap:round;stroke-width:3.2621;fill:#bbb" transform="matrix(.29707 -.05113 -.02179 .27342 288.247 69.711)"/><path d="M1.045-24.147h16.711v51.238H1.045z" style="stroke-linejoin:round;fill-rule:evenodd;color:#000;stroke:#000;stroke-linecap:round;stroke-width:3.2621;fill:#bbb" transform="matrix(.29707 -.05113 -.02179 .27342 288.247 69.711)"/><path d="M17.755-24.147h16.711v51.238H17.755zM34.466-24.147h16.711v51.238H34.466zM51.177-24.147h16.711v51.238H51.177z" style="stroke-linejoin:round;fill-rule:evenodd;color:#000;stroke:#000;stroke-linecap:round;stroke-width:3.2621;fill:#bbb" transform="matrix(.29707 -.05113 -.02179 .27342 288.247 69.711)"/></g><path d="M434.4 304.16c-41.94-13.7-74.75-26.38-132.78-30.55-156.49 13.86-221.88 37.95-286.93 61.23 80.295 51.67 236.52 23.6 419.71-30.68" style="stroke-linejoin:round;fill-rule:evenodd;color:#000;stroke:#000;stroke-linecap:round;fill:#b28f53" transform="rotate(8.628 346.528 216.347)scale(.9233)"/><path d="M417.51 303.15c-38.96-12.72-62.4-21.37-116.31-25.24-133.65 11.66-214.48 35.76-274.26 56.07 97.36 19.53 288.8-10.03 390.57-30.83" style="stroke-linejoin:round;fill-rule:evenodd;color:#000;stroke:#000;stroke-linecap:round;fill:#4b3c21" transform="rotate(8.628 346.528 216.347)scale(.9233)"/><path d="m183.72 312.49 1.69 5.83 52.18 13.49 13.01-1.55" style="stroke-linejoin:round;fill-rule:evenodd;color:#000;stroke:#000;stroke-linecap:round;fill:#67522e" transform="rotate(8.628 346.528 216.347)scale(.9233)"/><path d="m299.4 323.79-58.73-16.88-57.1 5.68 67.1 17.69c15.79-1.77 32.25-4.12 48.73-6.49" style="stroke-linejoin:round;fill-rule:evenodd;color:#000;stroke:#000;stroke-linecap:round;fill:#7d6438" transform="rotate(8.628 346.528 216.347)scale(.9233)"/><path d="m239.76 22.608 7.81-.391 6.1 296.26c-.1 3.21-7.44 3.33-7.81.39l-6.1-296.26z" style="stroke-linejoin:round;fill-rule:evenodd;color:#000;stroke:#000;stroke-linecap:round;fill:#4b3c21" transform="rotate(8.628 346.528 216.347)scale(.9233)"/><path d="M73.469 389.49c4.292.22 325.53-31.48 334-33.27-7.69 10.74-18.32 24.67-27.59 27.76-29.86 9.93-127.39 31.35-237.85 32.29-28.76-7.64-51.065-17.07-68.561-26.78z" style="stroke-linejoin:round;fill-rule:evenodd;stroke:#000;stroke-linecap:round;fill:#7d6438" transform="rotate(8.628 346.528 216.347)scale(.9233)"/><path d="M36.712 358.14c6.656 2.92 383.79-29.51 385.69-30.01-4.54 9.24-8.94 19.66-15.29 28.52-22.36 10.12-275.65 56.79-333.64 32.84-16.142-8.96-28.049-23.12-36.758-31.35z" style="stroke-linejoin:round;fill-rule:evenodd;stroke:#000;stroke-linecap:round;fill:#745c33" transform="rotate(8.628 346.528 216.347)scale(.9233)"/><path d="M14.488 334.85c82.023 19.18 239.07 7.56 419.91-30.47 0 0-4.22 8.51-11.89 24.12-57.71 28.37-357.8 55.53-385.22 29.97-17.404-16.45-22.743-24.41-22.802-23.62z" style="stroke-linejoin:round;fill-rule:evenodd;stroke:#000;stroke-linecap:round;fill:#6e5831" transform="rotate(8.628 346.528 216.347)scale(.9233)"/><path d="M301.53 278s8.68 22.49-1.77 45.56c55.13-7.12 117.32-20.42 117.32-20.42-35.02-12.38-75.95-23.46-115.55-25.14" style="stroke-linejoin:round;fill-rule:evenodd;color:#000;stroke:#000;stroke-linecap:round;fill:#43341d" transform="rotate(8.628 346.528 216.347)scale(.9233)"/><path d="M216.05-185.23a4.135 1.484 0 1 1-8.27 0 4.135 1.484 0 1 1 8.27 0" style="stroke-linejoin:round;fill-rule:evenodd;color:#000;stroke:#000;stroke-linecap:round;stroke-width:1.0589;fill:#4b3c21" transform="matrix(.85115 .16672 -.06466 .88057 63.34 132.472)"/><g style="stroke:#000;stroke-width:.73165;fill:#4b3c21"><path d="M430.43 200.54h45.528v4.902H430.43zM430.43 200.54h45.53l-4.16-1.37-47-.81z" style="stroke-linejoin:round;fill-rule:evenodd;color:#000;stroke:#000;stroke-linecap:round;stroke-width:.75858;fill:#4b3c21" transform="matrix(1.01585 -.01358 -.35602 1.46307 -52.239 -31.981)"/><path d="m430.43 200.54-.02 4.9-4.67-2-.94-5.08z" style="stroke-linejoin:round;fill-rule:evenodd;color:#000;stroke:#000;stroke-linecap:round;stroke-width:.75858;fill:#4b3c21" transform="matrix(1.01585 -.01358 -.35602 1.46307 -52.239 -31.981)"/></g><path d="m249.13 30.106 2.02 92.554" style="stroke:#000;stroke-width:3.9;fill:none" transform="rotate(8.628 346.528 216.347)scale(.9233)"/></svg>