<svg xmlns="http://www.w3.org/2000/svg" viewBox="0 0 207.04 161.49"><defs><linearGradient id="a" x1=".326" x2="188.56" y1="4.025" y2="59.811" gradientTransform="translate(.232)" gradientUnits="userSpaceOnUse"><stop offset="0" stop-color="#515151"/><stop offset="1" stop-color="#202020"/></linearGradient><linearGradient id="b" x1="3.589" x2="173.56" y1="97.654" y2="96.349" gradientUnits="userSpaceOnUse"><stop offset="0" stop-color="#712020"/><stop offset="1" stop-color="#411000"/></linearGradient><linearGradient id="c" x1="84.169" x2="85.147" y1="186.39" y2="276.11" gradientTransform="matrix(.79858 0 0 .54476 20.948 -35.203)" gradientUnits="userSpaceOnUse"><stop offset="0" stop-color="#515151"/><stop offset="1" stop-color="#e3e3e3"/></linearGradient><linearGradient id="d" x1="102.44" x2="102.44" y1="262.79" y2="240.87" gradientTransform="matrix(.98787 0 0 .99653 -17.525 -203.74)" gradientUnits="userSpaceOnUse"><stop offset="0" stop-opacity="0"/><stop offset="1" stop-color="#929292"/></linearGradient><linearGradient id="e" x1="105.05" x2="105.05" y1="226.76" y2="239.91" gradientTransform="matrix(.98611 0 0 .99653 -17.207 -198.48)" gradientUnits="userSpaceOnUse"><stop offset="0" stop-opacity="0"/><stop offset="1" stop-color="#c3c3c3"/></linearGradient></defs><path fill="url(#a)" d="M154.27 23.721c27.453 5.682 27.409 28.762 34.341 51 2.797 8.971 7.458 25.117 18.659 26-.994-8.98-9.411-14.58-12.251-23-4.655-13.801-4.56-31.912-13.129-44-8.411-11.866-18.313-11.568-30.62-16.613l-23-9.238C108.81.05 83.597 7.518 63.274 10.42c-20.385 2.913-33.668-1.705-52-9.336C7.765-.376 1.707-1.095.635 3.83c-3.72 17.092 19.416 17.121 23.761 26.896 3.82 8.59-1.08 12.754-7.014 18.571-2.565 2.515-5.496 6.565-1.787 9.566 5.6 4.532 20.643 2.345 27.678 3.028 29.048 2.822 58.956 4.946 88 .42 7.241-1.127 26.505 1.664 31.396-4.023 5.936-6.903-9.616-12.92-11.755-18.566-1.947-5.141 2.466-10.978 3.36-16z" transform="translate(-.232)"/><path fill="url(#b)" stroke="#511010" stroke-width=".332" d="M81.47 161.16c-18.796-1.37-35.944-7.64-50.353-18.41-3.908-2.92-11.49-10.4-14.238-14.05C6.495 114.92 1.833 99.128 3.532 83.5c.446-4.104 1.75-9.994 3.022-13.645 1.152-3.309 4.055-9.51 5.787-12.361l1.204-1.981 1.286 1.339c.964 1.003 1.846 1.511 3.516 2.027 3.526 1.09 6.017 1.316 14.561 1.323 6.046.005 10.783.247 19.406.992 14.986 1.296 19.188 1.574 30.483 2.02 14.537.572 31.192-.101 42.793-1.73 3.545-.499 7.821-.75 16.255-.958 14.772-.362 17.933-.935 20.593-3.73l1.112-1.169 1.12 1.86c4.291 7.123 7.374 15.718 8.533 23.786.613 4.266.61 12.656-.004 16.98-1.978 13.912-8.601 26.735-19.378 37.515-14.316 14.32-34.764 23.4-56.924 25.274-3.682.311-11.917.375-15.425.118z" transform="translate(-.232)"/><path fill="url(#c)" d="M25.24 66.333c-.886 1.158-1.727 2.345-2.196 3.172-1.015 1.79-2.065 4.683-2.42 6.695-1.357 7.662 2.363 15.396 10.655 22.155 2.195 1.788 8.26 5.463 11.38 6.894 11.506 5.28 25.194 8.352 40.204 9.025 2.802.125 9.388.091 12.328-.062 17.697-.918 34.012-5.373 45.444-12.395 8.607-5.285 13.918-11.565 15.498-18.386.491-2.12.49-6.243 0-8.334-.682-2.915-2.22-5.96-4.342-8.764H95.14c-1.508.01-3.015.007-4.516 0z" opacity=".13" transform="translate(-.232)"/><path fill="#823030" d="M7.974 95.28c3.75 11.409 7.921 22.668 16.543 32.813 1.418 1.669 3.872 5.358 6.64 6.625 1.356.621 2.094-2.14.59-4.197-1.105-1.51-2.876-3.747-3.455-4.428-8.122-9.557-12.486-21.604-16.1-30.813-.53-1.348-4.669-1.37-4.219 0zM16.958 97.322c5.037 11.409 10.475 22.668 20.24 32.813 1.605 1.669 4.476 5.358 7.385 6.625 1.427.621 1.854-2.14.117-4.197-1.274-1.51-3.297-3.747-3.952-4.428-9.199-9.557-14.92-21.604-19.571-30.813-.681-1.348-4.824-1.37-4.219 0z" opacity=".3"/><path fill="url(#d)" d="M26.713 37.907c-.27 3.363-2.24 6.022-4.878 8.782.307.11.643.156.988.156h128.27a2.866 2.866 0 0 0 2.779-2.118c-1.616-1.44-2.937-2.848-3.458-4.235-.318-.847-.446-1.707-.463-2.585H26.711z" opacity=".17" transform="translate(-.232)"/><path fill="url(#e)" d="M25.201 30.921c.106.196.187.387.277.592 1.072 2.437 1.444 4.518 1.295 6.384h123.02c-.045-2.261.742-4.607 1.633-6.914-.161-.028-.324-.062-.493-.062H25.203z" opacity=".17" transform="translate(-.232)"/></svg>