<svg xmlns="http://www.w3.org/2000/svg" viewBox="0 0 64 64"><defs><radialGradient id="b" cx="-78.434" cy="-33.967" r="15.796" gradientTransform="matrix(-1.0049 .04102 -.04454 -1.0912 -50.142 -5.614)" gradientUnits="userSpaceOnUse"><stop offset="0" style="stop-color:#ffff3e"/><stop offset="1" style="stop-color:#ffc022"/></radialGradient><radialGradient id="a" cx="-102.94" cy="-32.988" r="5.719" gradientTransform="rotate(135 -83.137 11.135)scale(1.36179 2.16657)" gradientUnits="userSpaceOnUse"><stop offset="0" style="stop-color:#fc0"/><stop offset="1" style="stop-color:#f60"/></radialGradient></defs><text xml:space="preserve" x="10.485" y="40.066" style="font-size:1.7764px;font-family:Franklin Gothic Book;fill:#555753;line-height:125%" transform="scale(1.2918 .7741)">
      
    </text><path d="m7.825 42.724 1.64 2.48c2.098-1.503 4.7-2.37 7.381-2.675 2.798-.318 5.703-.057 8.595.414 2.987.49 5.963 1.228 8.957 1.953 2.775.674 5.584 1.363 8.452 1.727 5.069.638 10.14.313 15.19.164-5.05-.149-10.142-.124-15.052-1.045-2.775-.518-5.487-1.358-8.22-2.192-2.942-.9-5.901-1.821-8.955-2.511-2.952-.671-6.023-1.122-9.162-.968-3.05.15-6.128.986-8.826 2.653z" style="fill-rule:evenodd;fill:#039"/><path d="m11.398 45.704 1.174 1.776c1.502-1.077 3.364-1.697 5.283-1.916 2.003-.227 4.081-.04 6.152.297 2.138.35 4.267.879 6.41 1.398 1.987.482 3.997.975 6.05 1.235 3.628.457 7.258.224 10.872.118-3.614-.106-7.259-.09-10.773-.748-1.986-.37-3.927-.972-5.884-1.57-2.105-.643-4.223-1.303-6.409-1.796-2.113-.48-4.31-.803-6.557-.693-2.184.108-4.386.706-6.318 1.899z" style="fill-rule:evenodd;fill:#09f"/><path d="m19.27 38.849.162-24.296-6.803 24.782c2.214-1.182 4.427-1.018 6.641-.486" style="stroke-width:0;fill:url(#a)"/><path d="M21.214 39.011c2.033-11.199.317-20.791-.486-30.775 8.98 9.87 14.056 22.083 18.789 34.501-5.505-1.738-10.348-4.028-18.303-3.726" style="stroke-width:0;fill:url(#b)"/></svg>