<svg xmlns="http://www.w3.org/2000/svg" xml:space="preserve" overflow="visible" viewBox="0 0 171.904 278.405"><g fill-rule="evenodd" clip-rule="evenodd"><path fill="#B2AA7E" d="M83.525 26.05c-3.426 2.998-7.003 9.692 0 11.365 2.174-.479 4.892-.412 4.546-3.41 3.961.585 1.667 7.426 2.273 11.365-4.844-.46-11.708 1.1-14.774-1.137 2.965-4.783-3.333-19.204 7.955-18.183M65.342 45.37c.489-2.542 5.601-.46 7.956-1.137-.49 2.541-5.602.461-7.956 1.137M97.163 45.37c2.689-2.614 10.2-.407 14.774-1.137-2.69 2.615-10.2.408-14.777 1.137zM114.21 45.37c.352-1.542 2.846-.943 4.546-1.137-.36 1.543-2.85.943-4.55 1.137zM122.17 45.37c.142-2.51 4.821-.483 6.819-1.137-.15 2.511-4.83.483-6.82 1.137zM46.021 46.506v11.365c-6.367.949-10.764-1.824-14.774 0-.047-3.741-1.918-5.658-1.136-10.228 3.397-2.286 10.722-.643 15.91-1.137M53.977 46.506h59.097c1.918 3.744.674 7.266 0 11.365-16.637-.302-41.987-.681-57.961 0-2.012-2.15-.823-7.506-1.132-11.365zM138.08 55.598c-6.077 2.705-8.951 1.646-14.774 1.137v-9.092c7.04-1.11 14.43-2.349 14.77 7.955zM74.434 159.02c2.181-.186 1.066 6.362 1.137 11.365.066 4.688-.052 10.273 0 13.638-2.181.186-1.066-6.362-1.137-11.365-.066-4.69.052-10.28 0-13.64z"/><path d="M77.843 226.07c.739-3.205 1.319 2.618 1.136 3.409-.526 2.28-2.134.92-1.136-3.41z"/><path d="M157.4 186.29h-2.273c-1.936 36.309-16.501 61.428-42.05 78.418a369 369 0 0 1-12.501 7.955c-11.91 7.218-12.375 7.66-26.14 1.137-15.784-7.48-28.148-15.667-38.641-29.549-10.262-13.577-15.53-29.229-18.184-50.005-6.972.983-4.65 11.26-10.229 13.638-5.193-2.063-6.154-9.149-6.819-13.638-2.378-16.057 3.052-34.302 11.365-46.597 4.786-7.078 9.224-15.446 20.457-15.91-5.199 24.629.048 47.274 10.229 63.643-3.93 5.531-9.917-3.729-14.774-4.546 6.588 26.37 21.501 44.415 42.05 56.825 3.796-58.186.612-117.54 3.41-182.98-15.67-5.544-50.791 8.361-48.869-14.774 6.992-11.95 33.971-3.913 48.869-7.956 1.736-4.527-3.406-4.914-5.683-6.819-4.752-3.977-11.13-9.932-11.365-19.32-.686-27.172 34.87-15.841 34.089 7.986.741 3.426 4.463 3.871 5.683 6.819-.113 4.659-.224 9.315 1.136 12.501 16.636.412 36.449-2.354 45.46 5.682v11.365c-11.001 5.289-29.647 2.932-45.46 3.409-2.002 54.322.238 134.9 1.137 184.11 22.537-8.906 35.356-27.529 43.187-51.143-3.268-1.823-7.26 4.516-11.365 0 11.798-16.614 9.862-46.963 19.32-65.916 7.04 7.021 14.336 18.272 18.185 30.686 3.813 12.304 6.181 28.474 2.272 42.05-4.91-.854-6.146-7.349-9.092-11.365-1.24-1.71-2.8-2.23-3.4-5.69zm-81.83 68.19c-8.245.97-7.517-8.175-13.638-6.818.979 1.4 7.316 3.145 4.546 4.546-5.069-1.266-6.246-7.895-7.956-6.819 1.195.062.894 1.457-1.137 1.137-4.5-5.371-22.937-18.94-15.911-20.457-2.64-1.27-3.042.243-5.683-2.273-6.424-11.618-10.225-27.169-14.774-37.504-2.9 11.561 2.245 22.423 4.546 29.549 3.924 12.154 9.493 23.046 15.911 30.686 1.812 2.157 4.127 5.294 5.683 6.818 4.827 4.731 11.241 7.657 17.047 11.365 6.303 4.024 12.288 9.314 20.457 9.092 4.488-2.411 5.674-2.247 7.955-4.683 1.456-1.488 6.637-4.189 6.819-4.409.459-.554 3.512-1.675 4.546-2.409.741-.527 3.146-1.95 3.409-2.137 2.248-1.592 4.621-2.884 6.819-4.546 10.58-8.003 17.425-14.867 23.866-26.14 5.375-9.406 10.156-20.414 12.501-30.685 1.182-5.175-1.987-12.996 4.546-15.911 4.171 4.163 7.568 9.101 11.365 13.638-2.529-23.988-6.571-46.465-18.184-61.37-2.153 10.242-2.862 21.192-4.546 29.549-.857 4.253-1.352 9.018-2.273 12.501-1.625 6.143-6.659 10.624-5.683 15.911 2.34-2.249 5.881-9.215 9.092-6.819-4.76 35.017-26.284 53.271-51.142 68.189-6.122-3.882-5.221-10.215-5.683-15.911-.55-6.793.073-14.278 0-21.593-.261-26.435.619-48.207 0-70.462-.631-22.742.848-44.028-1.136-65.917-.488-5.385 1.728-13.828-5.683-14.774-1.747 34.796-.795 82.056-1.136 127.29.018 1.877 4.343 19.875-2.273 21.593.327-30.229 1.136-64.654 1.136-88.646 0-16.268 1.318-25.69 0-48.869-.961-16.908-1.074 2.877-1.136 6.819-.782 49.562 1.033 78.315-1.137 123.88-.867 18.215-.479-39.799-2.273-13.638-.803 11.712.599 21.52 0 32.958v4.546c-.085 1.592.254 4.347 1.137 2.272.692-2.717-1.427-8.245 1.136-9.092.748 8.345-1.502 19.687 1.137 26.14.622-1.651-1.328-5.874 1.136-5.683 1.484 3.297.922 6.537-2.273 7.955-2.814-3.18-4.112-1.88-1.15 1.12zM1.699 186.29c.071.793.521 10.593 3.409 7.956-5.17-14.521 4.423-41.054 13.638-52.279 1.664-2.027 9.387-6.753 4.546-5.682-11.361 9.29-23.133 32.86-21.593 50zM65.342 29.46c-3.997-3.958-5.084-10.826-4.546-19.32 6.235-10.496 20.81-.91 22.729 6.819C84.929 8.428 70.794-1.687 60.796 4.458c-4.206 8.378-.878 23.91 4.546 25.002m2.273-21.593c-4.369 6.954-.767 16.675 3.41 21.593 5.579-.861 7.848-5.032 12.501-6.819C80.167 15.772 79.17 6.54 67.615 7.867m7.955 36.367c3.066 2.237 9.931.676 14.774 1.137-.606-3.939 1.688-10.78-2.273-11.365.346 2.998-2.372 2.931-4.546 3.41-7.003-1.672-3.426-8.367 0-11.365-11.288-1.021-4.99 13.4-7.955 18.183m-2.273 0c-2.354.676-7.466-1.405-7.956 1.137 2.355-.676 7.467 1.404 7.956-1.137m38.643 0c-4.574.729-12.085-1.478-14.774 1.137 4.574-.729 12.084 1.478 14.774-1.137m6.82 0c-1.7.194-4.194-.406-4.546 1.137 1.7-.194 4.19.406 4.55-1.137zm10.22 0c-1.998.654-6.678-1.374-6.819 1.137 2-.654 6.68 1.374 6.82-1.137zm-98.869 3.41c-.782 4.57 1.089 6.487 1.136 10.228 4.01-1.824 8.407.949 14.774 0V46.507c-5.188.494-12.513-1.149-15.91 1.137m25.002 10.228c15.974-.681 41.324-.302 57.961 0 .674-4.099 1.918-7.621 0-11.365H53.977c.313 3.859-.876 9.215 1.14 11.365zM123.3 47.644v9.092c5.823.509 8.697 1.568 14.774-1.137-.33-10.304-7.72-9.065-14.77-7.955zm-48.866 125.02c.071 5.003-1.044 11.551 1.137 11.365-.052-3.364.066-8.95 0-13.638-.071-5.003 1.044-11.551-1.137-11.365.052 3.36-.066 8.95 0 13.64z"/><path fill="#B2AA7E" d="M76.707 253.35c3.195-1.418 3.757-4.658 2.273-7.955-2.464-.191-.515 4.031-1.136 5.683-2.639-6.453-.389-17.795-1.137-26.14-2.563.847-.444 6.375-1.136 9.092-.883 2.074-1.222-.681-1.137-2.272v-4.546c.599-11.438-.803-21.246 0-32.958 1.794-26.161 1.406 31.853 2.273 13.638 2.169-45.562.355-74.314 1.137-123.88.062-3.942.175-23.728 1.136-6.819 1.318 23.179 0 32.601 0 48.869 0 23.991-.81 58.416-1.136 88.646 6.616-1.718 2.291-19.716 2.273-21.593.341-45.23-.611-92.49 1.136-127.29 7.411.946 5.195 9.39 5.683 14.774 1.984 21.888.505 43.174 1.136 65.917.619 22.255-.261 44.027 0 70.462.073 7.314-.55 14.8 0 21.593.461 5.696-.439 12.029 5.683 15.911 24.857-14.919 46.382-33.173 51.142-68.189-3.211-2.396-6.752 4.57-9.092 6.819-.977-5.287 4.058-9.769 5.683-15.911.922-3.483 1.416-8.248 2.273-12.501 1.684-8.356 2.393-19.307 4.546-29.549 11.612 14.905 15.654 37.382 18.184 61.37-3.797-4.537-7.194-9.475-11.365-13.638-6.533 2.915-3.364 10.736-4.546 15.911-2.345 10.271-7.126 21.278-12.501 30.685-6.441 11.272-13.286 18.137-23.866 26.14-2.198 1.662-4.571 2.954-6.819 4.546-.264.187-2.668 1.609-3.409 2.137-1.034.734-4.087 1.855-4.546 2.409-.183.22-5.363 2.921-6.819 4.409-2.281 2.436-2.771 1.944-7.955 4.683-8.169.223-14.154-5.067-20.457-9.092-5.806-3.708-12.22-6.634-17.047-11.365-1.556-1.524-3.87-4.661-5.683-6.818-6.417-7.64-11.987-18.531-15.911-30.686-2.301-7.126-7.446-17.988-4.546-29.549 4.549 10.335 8.35 25.886 14.774 37.504 2.641 2.517 3.042 1.004 5.683 2.273-7.026 1.517 11.411 15.086 15.911 20.457 2.031.32 2.332-1.074 1.137-1.137 1.71-1.075 2.887 5.554 7.956 6.819 2.771-1.401-3.566-3.146-4.546-4.546 6.121-1.356 5.393 7.788 13.638 6.818-2.951-3-1.653-4.3 1.148-1.13zm2.272-23.87c.183-.791-.397-6.614-1.136-3.409-.998 4.33.61 5.69 1.136 3.41zM23.292 136.29c4.841-1.071-2.882 3.655-4.546 5.682-9.215 11.23-18.808 37.76-13.638 52.28-2.888 2.637-3.338-7.163-3.409-7.956-1.54-17.14 10.232-40.71 21.593-50zM60.796 4.457c9.999-6.145 24.133 3.97 22.729 12.501-1.92-7.729-16.495-17.315-22.729-6.819-.539 8.494.549 15.362 4.546 19.32-5.424-1.092-8.752-16.624-4.546-25.002"/></g></svg>