<svg xmlns="http://www.w3.org/2000/svg" xmlns:xlink="http://www.w3.org/1999/xlink" viewBox="0 0 283.963 198.78"><defs><radialGradient xlink:href="#b" id="a" cx="-35.903" cy="95.386" r="30.142" gradientTransform="matrix(.79956 .50853 -.32878 .51694 119.19 69.172)" gradientUnits="userSpaceOnUse"/><radialGradient id="c" cx="-529.65" cy="145.12" r="95.093" gradientTransform="matrix(1 0 0 .44815 -33.723 -136.08)" gradientUnits="userSpaceOnUse"><stop offset="0" style="stop-color:#0f0701"/><stop offset="1" style="stop-color:#1c0a02"/></radialGradient><radialGradient id="k" cx="-134.08" cy="169.86" r="19.291" gradientTransform="matrix(7.264 0 0 4.1086 1177 -520.88)" gradientUnits="userSpaceOnUse"><stop offset="0" style="stop-color:#ccc"/><stop offset="1" style="stop-color:#fff"/></radialGradient><radialGradient id="l" cx="-134.08" cy="169.02" r="12.024" gradientTransform="matrix(7.264 0 0 4.377 1177 -559.64)" gradientUnits="userSpaceOnUse"><stop offset="0" style="stop-color:#ccc"/><stop offset="1" style="stop-color:#e6e6e6"/></radialGradient><radialGradient xlink:href="#d" id="w" cx="-65.241" cy="88.089" r="29.491" gradientTransform="matrix(1 0 0 .73762 -79.006 24.357)" gradientUnits="userSpaceOnUse"/><radialGradient xlink:href="#b" id="z" cx="-35.903" cy="95.386" r="30.142" gradientTransform="matrix(.79956 .50853 -.32878 .51694 -56.801 61.322)" gradientUnits="userSpaceOnUse"/><radialGradient xlink:href="#d" id="J" cx="-65.241" cy="88.089" r="29.491" gradientTransform="matrix(1 0 0 .73762 0 25.344)" gradientUnits="userSpaceOnUse"/><radialGradient xlink:href="#b" id="K" cx="-35.903" cy="95.386" r="30.142" gradientTransform="matrix(.79956 .50853 -.32878 .51694 22.205 62.31)" gradientUnits="userSpaceOnUse"/><radialGradient xlink:href="#g" id="U" cx="-577.1" cy="-94.498" r="2.414" gradientTransform="matrix(1.1559 0 0 .30154 122.84 402.76)" gradientUnits="userSpaceOnUse"/><radialGradient xlink:href="#g" id="V" cx="-577.1" cy="-94.498" r="2.414" gradientTransform="matrix(.80234 0 0 .20931 -77.924 397.23)" gradientUnits="userSpaceOnUse"/><radialGradient xlink:href="#g" id="W" cx="-577.1" cy="-94.498" r="2.414" gradientTransform="matrix(.59304 0 0 .15471 -212.72 384.98)" gradientUnits="userSpaceOnUse"/><radialGradient xlink:href="#g" id="X" cx="-577.1" cy="-94.498" r="2.414" gradientTransform="matrix(.44879 0 0 .11708 -233.43 376.82)" gradientUnits="userSpaceOnUse"/><radialGradient xlink:href="#g" id="Y" cx="-577.1" cy="-94.498" r="2.414" gradientTransform="matrix(.58714 0 0 .15317 -168.92 385.81)" gradientUnits="userSpaceOnUse"/><radialGradient xlink:href="#g" id="Z" cx="-577.1" cy="-94.498" r="2.414" gradientTransform="matrix(.80234 0 0 .11708 -85.991 387.39)" gradientUnits="userSpaceOnUse"/><radialGradient xlink:href="#g" id="aa" cx="-577.1" cy="-94.498" r="2.414" gradientTransform="matrix(.56664 0 0 .11708 -210.94 392.24)" gradientUnits="userSpaceOnUse"/><radialGradient xlink:href="#g" id="ab" cx="-577.1" cy="-94.498" r="2.414" gradientTransform="matrix(.80234 0 0 .20931 -69.774 399.89)" gradientUnits="userSpaceOnUse"/><radialGradient xlink:href="#g" id="ac" cx="-577.1" cy="-94.498" r="2.414" gradientTransform="matrix(.67937 0 0 .17723 -124.4 390.38)" gradientUnits="userSpaceOnUse"/><radialGradient xlink:href="#g" id="ad" cx="-577.1" cy="-94.498" r="2.414" gradientTransform="matrix(.44879 0 0 .11708 -267.65 386.51)" gradientUnits="userSpaceOnUse"/><radialGradient xlink:href="#h" id="ae" cx="-556.99" cy="-106.7" r="2.79" gradientTransform="matrix(.24723 -.00167 .00057 .08412 -381.52 372.43)" gradientUnits="userSpaceOnUse"/><radialGradient xlink:href="#h" id="af" cx="-556.99" cy="-106.7" r="2.79" gradientTransform="matrix(.24723 -.00167 .00057 .08412 -349.76 370.07)" gradientUnits="userSpaceOnUse"/><radialGradient id="u" cx="-500.33" cy="469.16" r="60.669" gradientTransform="matrix(.81994 -.1611 .06294 .32034 -119.62 238.26)" gradientUnits="userSpaceOnUse"><stop offset="0" style="stop-color:#000"/><stop offset="1" style="stop-color:#2b1100"/></radialGradient><linearGradient id="f"><stop offset="0" style="stop-color:#320507"/><stop offset="1" style="stop-color:#000;stop-opacity:0"/></linearGradient><linearGradient id="e"><stop offset="0" style="stop-color:#b06524"/><stop offset="1" style="stop-color:#b06524;stop-opacity:0"/></linearGradient><linearGradient id="d"><stop offset="0" style="stop-color:#762a08"/><stop offset="1" style="stop-color:#4b0a03"/></linearGradient><linearGradient id="b"><stop offset="0" style="stop-color:#7a2a10"/><stop offset="1" style="stop-color:#a65601"/></linearGradient><linearGradient id="h"><stop offset="0" style="stop-color:#fff"/><stop offset="1" style="stop-color:#593403"/></linearGradient><linearGradient id="g"><stop offset="0" style="stop-color:#5c3603"/><stop offset="1" style="stop-color:#110701"/></linearGradient><linearGradient id="j" x1="203.26" x2="336.59" y1="282.29" y2="25.101" gradientTransform="translate(-24.869 -28.726)" gradientUnits="userSpaceOnUse"><stop offset="0" style="stop-color:#2a7fff"/><stop offset="1" style="stop-color:#2a0cff;stop-opacity:.96443"/></linearGradient><linearGradient id="n" x1="106.71" x2="117.93" y1="40.694" y2="30.438" gradientTransform="rotate(-67.838 185.973 99.39)" gradientUnits="userSpaceOnUse" spreadMethod="reflect"><stop offset="0" style="stop-color:#cdcac6"/><stop offset="1" style="stop-color:#fff"/></linearGradient><linearGradient id="o" x1="148.25" x2="-.232" y1="154.59" y2="187.27" gradientTransform="translate(-24.869 -28.726)" gradientUnits="userSpaceOnUse"><stop offset="0" style="stop-color:#b3b3b3"/><stop offset="1" style="stop-color:#b3b3b3;stop-opacity:0"/></linearGradient><linearGradient id="p" x1="25.695" x2="53.819" y1="-40.638" y2="-110.43" gradientTransform="matrix(-.62889 .16351 .13589 .75669 -533.7 547.57)" gradientUnits="userSpaceOnUse"><stop offset="0" style="stop-color:#cfcfcf"/><stop offset="1" style="stop-color:#e6e6e6"/></linearGradient><linearGradient id="q" x1="283.24" x2="316.57" y1="100.51" y2="97.947" gradientTransform="matrix(-.62889 .16351 .13589 .75669 -383.88 373.33)" gradientUnits="userSpaceOnUse"><stop offset="0" style="stop-color:#000"/><stop offset="1" style="stop-color:#000;stop-opacity:0"/></linearGradient><linearGradient id="r" x1="23.425" x2="59.672" y1="-39.525" y2="-53.969" gradientTransform="matrix(-.62889 .16351 .13589 .75669 -533.7 547.57)" gradientUnits="userSpaceOnUse"><stop offset="0" style="stop-color:#b3b3b3"/><stop offset="1" style="stop-color:#b3b3b3;stop-opacity:0"/></linearGradient><linearGradient id="s" x1="-432.32" x2="-429" y1="92.683" y2="120.6" gradientTransform="matrix(-5.2197 .85104 .7073 6.2804 -2821.8 230.76)" gradientUnits="userSpaceOnUse"><stop offset="0" style="stop-color:#fff"/><stop offset="1" style="stop-color:#b3b3b3"/></linearGradient><linearGradient id="t" x1="-439.5" x2="-438.3" y1="85.588" y2="94.921" gradientTransform="matrix(-5.2197 .8021 .7073 5.9192 -2860.1 292.05)" gradientUnits="userSpaceOnUse"><stop offset="0" style="stop-color:#ececec"/><stop offset="1" style="stop-color:#ccc"/></linearGradient><linearGradient xlink:href="#e" id="A" x1="-53.761" x2="-44.15" y1="106.66" y2="95.305" gradientTransform="translate(-79.006 -.988)" gradientUnits="userSpaceOnUse"/><linearGradient xlink:href="#e" id="B" x1="-31.125" x2="-36.258" y1="72.776" y2="84.386" gradientTransform="translate(-79.006 -.988)" gradientUnits="userSpaceOnUse"/><linearGradient xlink:href="#f" id="H" x1="-5.369" x2="-54.474" y1="113.17" y2="79.1" gradientTransform="translate(-79.006 -.988)" gradientUnits="userSpaceOnUse"/><linearGradient xlink:href="#e" id="L" x1="-53.761" x2="-44.15" y1="106.66" y2="95.305" gradientUnits="userSpaceOnUse"/><linearGradient xlink:href="#e" id="M" x1="-31.125" x2="-36.258" y1="72.776" y2="84.386" gradientUnits="userSpaceOnUse"/><linearGradient xlink:href="#f" id="N" x1="-5.369" x2="-54.474" y1="113.17" y2="79.1" gradientUnits="userSpaceOnUse"/><filter id="F" width="1.037" height="1.068" x="-.019" y="-.034" style="color-interpolation-filters:sRGB"><feGaussianBlur stdDeviation=".44"/></filter><filter id="E" width="1.038" height="1.065" x="-.019" y="-.033" style="color-interpolation-filters:sRGB"><feGaussianBlur stdDeviation=".465"/></filter><filter id="C" width="1.025" height="1.023" x="-.012" y="-.012" style="color-interpolation-filters:sRGB"><feGaussianBlur stdDeviation=".19"/></filter><filter id="G" width="1.018" height="1.035" x="-.009" y="-.018" style="color-interpolation-filters:sRGB"><feGaussianBlur stdDeviation=".196"/></filter><filter id="x" width="1.016" height="1.046" x="-.008" y="-.023" style="color-interpolation-filters:sRGB"><feGaussianBlur stdDeviation=".202"/></filter><filter id="O" width="1.062" height="1.087" x="-.031" y="-.043" style="color-interpolation-filters:sRGB"><feGaussianBlur stdDeviation=".818"/></filter><filter id="I" width="1.065" height="1.081" x="-.032" y="-.04" style="color-interpolation-filters:sRGB"><feGaussianBlur stdDeviation=".838"/></filter><filter id="v" width="1.042" height="1.056" x="-.021" y="-.028" style="color-interpolation-filters:sRGB"><feGaussianBlur stdDeviation=".877"/></filter><filter id="i" width="1.057" height="1.099" x="-.028" y="-.049" style="color-interpolation-filters:sRGB"><feGaussianBlur stdDeviation=".509"/></filter><filter id="m" width="1.049" height="1.133" x="-.025" y="-.067" style="color-interpolation-filters:sRGB"><feGaussianBlur stdDeviation="1.537"/></filter><filter id="S" width="1.037" height="1.069" x="-.018" y="-.035" style="color-interpolation-filters:sRGB"><feGaussianBlur stdDeviation=".965"/></filter><filter id="T" width="1.037" height="1.07" x="-.018" y="-.035" style="color-interpolation-filters:sRGB"><feGaussianBlur stdDeviation=".908"/></filter><filter id="P" width="1.015" height="1.062" x="-.007" y="-.031" style="color-interpolation-filters:sRGB"><feGaussianBlur stdDeviation=".376"/></filter><clipPath id="D" clipPathUnits="userSpaceOnUse"><path d="M34.455 80.408c-.91.884-2.338 1.455-2.91 2.403-5.912 9.81 5.352 22.513 13.563 28.316 11.684 8.256 36.454 13.504 42.919.424.115-.234.011-.995.11-1.227.038-.09.273-.228.408-.391.135-.164.063-.51.229-.698.165-.187.371-.302.565-.38.34-.136.226-.3.255-.39 3.698-11.392-11.405-21.45-21.184-26.767-9.278-5.044-22.8-9.748-32.118-3.674-.886.577-1.034 1.6-1.836 2.38z" style="fill:url(#a)"/></clipPath><clipPath id="y" clipPathUnits="userSpaceOnUse"><path d="M-65.615 76.319s-2.906 5.967-3.152 9.199c-.32 4.213.282 8.734 2.248 12.474 3.589 6.824 9.512 12.878 16.43 16.28 7.393 3.637 16.323 4.32 24.496 3.287 14.823-1.875 18.342-16.357 18.342-16.357z" style="fill:navy"/></clipPath><clipPath id="R" clipPathUnits="userSpaceOnUse"><path d="M-535.19-113.66c-11.771.026-23.305 1.026-32.893 2.307-34.828 4.65-93.244 19.403-90.281 54.414.09 1.057.234 2.09.422 3.101 19.689 23.103 70.15 28.431 101.75 23.965 29.672-4.193 72.893-21.393 87.889-46.533a31 31 0 0 0-.541-6.742c-4.637-24.279-36.266-30.579-66.348-30.512z" style="fill:url(#c)"/></clipPath><clipPath id="Q" clipPathUnits="userSpaceOnUse"><path d="M-441.22 465.5c1.172 23.65-37.821 34.706-61.155 34.571-23.09-.133-61.374-11.509-60.127-34.907 1.177-22.09 38.139-26.509 59.939-26.552 22.273-.044 60.224 4.314 61.343 26.888" style="fill:#2b1100"/></clipPath></defs><path d="M-134.16 154.73a21.561 12.195 0 0 0-21.561 12.195 21.561 12.195 0 0 0 3.02 6.195 20.943 11.701 0 0 0 .005.006 21.561 12.195 0 0 0 .415.403 20.943 11.701 0 0 0 18.244 5.986 20.943 11.701 0 0 0 20.039-8.314 21.561 12.195 0 0 0 1.398-4.276 21.561 12.195 0 0 0-21.561-12.195z" style="filter:url(#i);fill-rule:evenodd;fill:#000" transform="matrix(5.12749 0 0 5.1305 850.06 -733.503)"/><g transform="translate(18.906 2.158)scale(.71547)"><ellipse cx="203.31" cy="171.41" rx="152.13" ry="84.997" style="fill-rule:evenodd;fill:#ccc"/><ellipse cx="202.41" cy="164.95" rx="156.62" ry="88.584" style="fill-rule:evenodd;fill:#f9f9f9"/><path d="M202.41 78.249A153.28 86.699 0 0 0 49.13 164.95a153.28 86.699 0 0 0 153.28 86.7 153.28 86.699 0 0 0 153.29-86.7 153.28 86.699 0 0 0-153.29-86.701m0 3.016a147.95 83.684 0 0 1 147.96 83.685 147.95 83.684 0 0 1-147.96 83.68 147.95 83.684 0 0 1-147.95-83.68 147.95 83.684 0 0 1 147.95-83.685" style="opacity:.1;fill-rule:evenodd;fill:url(#j)"/><ellipse cx="202.41" cy="164.95" rx="140.13" ry="79.259" style="fill-rule:evenodd;fill:url(#k)"/><ellipse cx="203.05" cy="180.17" rx="87.34" ry="52.628" style="fill-rule:evenodd;fill:url(#l)"/><path d="M203.05 127.54a87.34 52.628 0 0 0-87.352 52.621 87.34 52.628 0 0 0 70.824 51.657 87.34 52.628 0 0 1-66.383-51.018 87.34 52.628 0 0 1 87.338-52.636 87.34 52.628 0 0 1 16.528.979 87.34 52.628 0 0 0-20.955-1.603z" style="fill-rule:evenodd;fill:#ccc"/><path d="M247.86 135.08a87.34 52.628 0 0 1 37.512 43.187 87.34 52.628 0 0 1-87.338 52.636 87.34 52.628 0 0 1-44.804-7.52 87.34 52.628 0 0 0 49.826 9.421 87.34 52.628 0 0 0 87.338-52.636 87.34 52.628 0 0 0-42.534-45.088" style="fill-rule:evenodd;fill:#ccc"/><path d="M202.42 85.689a140.13 79.259 0 0 0-140.13 79.265 140.13 79.259 0 0 0 140.13 79.251 140.13 79.259 0 0 0 3.717-.073 140.13 79.259 0 0 1-137.51-79.18 140.13 79.259 0 0 1 136.41-79.194 140.13 79.259 0 0 0-2.625-.072z" style="fill-rule:evenodd;fill:#ececec"/><path d="M202.42 85.689a140.13 79.259 0 0 0-2.61.058 140.13 79.259 0 0 1 138.3 79.21 140.13 79.259 0 0 1-137.52 79.193 140.13 79.259 0 0 0 1.83.058 140.13 79.259 0 0 0 140.13-79.25A140.13 79.259 0 0 0 202.42 85.69z" style="fill-rule:evenodd;fill:#ccc"/></g><path d="M179.07 146.12s-91.588 21.603-136.43 28.273c-3.593.534-7.536 7.87-7.536 7.87l-1.593 15s8.043 5.218 12.169 4.083c46.352-12.75 137.42-43.44 137.42-43.44z" style="opacity:.3;filter:url(#m);fill:#000" transform="rotate(11.233 290.013 42.8)scale(.82946)"/><path d="M154.2 113.55s-91.588 21.603-136.43 28.273c-3.593.534-7.536 7.87-7.536 7.87l-1.593 15s8.043 5.218 12.169 4.083c46.353-12.75 137.42-43.44 137.42-43.44z" style="fill:url(#n)" transform="matrix(.80375 .2049 -.2049 .80375 33.74 -27.91)"/><path d="m10.238 149.69-.125 1.17-1.27 11.966-.198 1.866s8.043 5.216 12.168 4.081a830 830 0 0 0 9.478-2.679c.824-.238 1.701-.497 2.542-.742 2.753-.8 5.559-1.623 8.47-2.491l.08-.025c46.196-13.778 109.91-35.182 114.84-36.843l1.994-.666-.74-2.172-3.275-9.607s-88.903 20.96-134.39 27.95c-.66.1-1.398.228-2.038.323-3.593.534-7.536 7.87-7.536 7.87zm3.935-1.164s1-1.842 2.44-3.745c44.857-6.678 136.38-28.266 136.38-28.266l2.491 7.306c-6.31 2.123-90.506 30.408-135.13 42.688-.497.136-1.047.177-1.626.155-3.22-1.257-6.145-3.14-6.145-3.14l1.593-15z" style="fill:url(#o)" transform="matrix(.80375 .2049 -.2049 .80375 33.74 -27.91)"/><path d="M-578.54 471.47c5.41-1.013 10.327 2.754 14.415 6.089s7.212 6.82 7.212 6.82l-4.369 5.684s-2.829-3.138-6.454-6.095-8.182-5.155-9.815-4.849c-3.06.573-6.742 5.614-8.016 10.252-2.049 7.457-.832 17.553 2.856 24.073 1.95 3.446 6.126 6.189 9.797 6.63 2.173.262 7.059-1.358 10.976-3.336a73 73 0 0 0 7.012-4.055l3.14 6.758s-3.376 2.272-7.663 4.436c-4.286 2.163-9.337 4.474-14.105 3.9-5.59-.672-11.188-4.164-14.476-9.977-4.96-8.77-6.423-20.755-3.647-30.859 1.873-6.814 6.292-14.189 13.137-15.47z" style="color-rendering:auto;text-decoration-color:currentColor;color:#000;fill:url(#p);shape-rendering:auto;block-progression:tb;text-decoration-line:none;image-rendering:auto;text-indent:0;text-transform:none" transform="translate(661.41 -424.42)"/><path d="M-578.54 471.47c5.41-1.013 10.327 2.754 14.415 6.089s7.212 6.82 7.212 6.82l-4.369 5.684s-2.829-3.138-6.454-6.095-8.182-5.155-9.815-4.849c-3.06.573-6.742 5.614-8.016 10.252-2.049 7.457-.832 17.553 2.856 24.073 1.95 3.446 6.126 6.189 9.797 6.63 2.173.262 7.059-1.358 10.976-3.336a73 73 0 0 0 7.012-4.055l3.14 6.758s-3.376 2.272-7.663 4.436c-4.286 2.163-9.337 4.474-14.105 3.9-5.59-.672-11.188-4.164-14.476-9.977-4.96-8.77-6.423-20.755-3.647-30.859 1.873-6.814 6.292-14.189 13.137-15.47z" style="color-rendering:auto;text-decoration-color:currentColor;color:#000;fill:url(#q);shape-rendering:auto;block-progression:tb;text-decoration-line:none;image-rendering:auto;text-indent:0;text-transform:none" transform="translate(661.41 -424.42)"/><path d="M-585.68 505.34c.65 2.966 1.648 5.762 2.969 8.097 1.949 3.445 6.125 6.188 9.797 6.63 2.172.262 7.058-1.359 10.976-3.336a73 73 0 0 0 7.01-4.055l3.14 6.757s-.212.143-.597.39l-2.051-4.415s-3.095 2.078-7.012 4.055-8.803 3.598-10.976 3.337c-3.671-.442-7.848-3.185-9.797-6.63-1.72-3.042-2.895-6.864-3.459-10.83z" style="color-rendering:auto;text-decoration-color:currentColor;color:#000;fill:url(#r);shape-rendering:auto;block-progression:tb;text-decoration-line:none;image-rendering:auto;text-indent:0;text-transform:none" transform="translate(661.41 -424.42)"/><path d="M-579.8 471.78q.613-.19 1.254-.31c5.41-1.014 10.327 2.753 14.415 6.088s7.212 6.82 7.212 6.82l-.944 1.228a70 70 0 0 0-5.777-5.315c-4.088-3.335-9.005-7.102-14.415-6.09-6.844 1.283-11.264 8.658-13.137 15.472-1.504 5.474-1.755 11.498-.888 17.266-1.417-6.567-1.346-13.653.397-19.998 1.756-6.388 5.75-13.27 11.882-15.16z" style="color-rendering:auto;text-decoration-color:currentColor;color:#000;fill:#fff;shape-rendering:auto;block-progression:tb;text-decoration-line:none;image-rendering:auto;text-indent:0;text-transform:none" transform="translate(661.41 -424.42)"/><path d="M-450.62 551.08c-10.234 16.992-28.057 29.844-45.463 31.158-18.68 1.41-39.911-8.527-51.882-25.84-14.809-21.416-18.082-75.312-18.576-95.721-.126-5.2 1.858-6.932 1.858-6.932l128.52.193s1.829 7.513 1.642 12.874c-.673 19.424-3.64 63.572-16.105 84.269z" style="fill:url(#s)" transform="translate(661.41 -424.42)"/><path d="M-435.17 462.01c1.272 28.666-41.022 42.067-66.332 41.904-25.045-.162-66.569-13.95-65.217-42.311 1.277-26.776 41.367-32.132 65.013-32.184 24.159-.053 65.322 5.229 66.535 32.591z" style="fill:url(#t)" transform="translate(661.41 -424.42)"/><path d="M-566.55 463.27c4.166 25.882 41.571 38.527 64.821 38.686 25.252.173 67.388-13.994 66.318-44.265.062.6.205 1.152.23 1.774 1.273 30.415-41.017 44.628-66.326 44.454-23.828-.164-62.498-13.447-65.042-40.65z" style="fill:#fff" transform="translate(661.41 -424.42)"/><path d="M-439.48 516.17c-2.418 13.383-5.903 26.221-11.133 34.906-10.234 16.992-28.056 29.845-45.462 31.159-18.151 1.37-38.637-8.038-50.77-24.45 13.094 11.582 31.189 17.831 47.62 16.482 18.826-1.545 38.212-14.654 49.428-31.806 4.452-6.809 7.746-16.187 10.318-26.291z" style="fill:#ccc" transform="translate(661.41 -424.42)"/><path d="M-439.69 465.31c1.172 23.65-37.821 34.706-61.155 34.571-23.09-.133-61.374-11.509-60.127-34.907 1.177-22.09 38.139-26.509 59.939-26.552 22.273-.044 60.224 4.314 61.343 26.888" style="fill:url(#u)" transform="translate(661.41 -424.42)"/><path d="M-68.905 63.46q-.075.003-.15.008-.104.004-.207.01-.405.014-.809.046c-.123.01-.246.027-.37.04q-.155.013-.312.03-.06.006-.119.01h.024q-.194.027-.387.055-.212.03-.424.065c-.173.028-.346.063-.52.095-.114.022-.229.041-.343.065q-.073.014-.145.027a24 24 0 0 0-2.619.715l-.062.02c-.078.026-.155.057-.233.084q-.115.04-.23.082-.137.047-.274.095-.247.092-.496.188-.178.07-.355.142-.422.17-.842.352l-.28.121q-.073.035-.148.07-.376.174-.75.358-.293.14-.584.287-.48.246-.957.508-.026.014-.052.027-.358.195-.711.398-.78.448-1.543.93-.24.148-.477.3c-3.286 2.132-6.325 4.69-8.934 7.23l-.013.013v.002c-.232.225-.454.45-.678.674h-.004c-.184.184-.375.371-.555.555a107 107 0 0 0-2.36 2.5c-.03.03-.055.057-.083.088-.128.14-.252.271-.38.414q-.048.052-.094.105-.195.216-.39.436l-.046.054q-.506.57-1.014 1.162c-2.002 2.336-3.977 4.912-5.656 7.592l-.037.057c-.109.174-.224.344-.33.52a41 41 0 0 0-1.014 1.786c-.052.097-.11.193-.162.29-.284.538-.539 1.079-.789 1.62-.065.141-.143.28-.205.42l-.008.016-.022.057-.011.025c-.011.025-.026.05-.037.074-1.028 2.355-1.693 4.723-1.817 7.016l-.004.096c-.005.104-.013.208-.015.312q-.005.092-.008.184c-.001.1.005.199.006.299 0 .11.006.22.01.33q0 .036.002.072c.005.116.002.234.01.35.005.076.015.15.021.226.01.13.03.258.045.387l.016.142c.011.093.017.186.03.278q.013.066.024.133c.027.166.064.33.098.496.026.128.045.257.076.384.052.213.12.422.184.631.039.13.07.26.115.387.062.18.14.356.21.533.06.149.112.299.179.446.059.13.132.257.197.386q.29.58.656 1.145l-.025.021s.089.135.113.174l-.12.102s1.814 3.02 5.35 5.832c.07.84.171 1.635.35 2.271 1.096 3.892 3.093 7.747 6.006 10.56-.1-.086-.204-.169-.303-.255.281.293.564.584.864.856 5.713 5.177 13.355 8.83 21.02 9.65 8.192.877 16.814-1.548 24.136-5.326 2.604-1.344 4.627-2.997 6.207-4.781 2.717-2.307 4.423-4.99 5.503-7.58 3.77.34 7.593.226 11.264-.239C-10.879 117.921-7.36 103.44-7.36 103.44l-.144-.062.058-.2-.03-.013q.154-.546.255-1.088c.04-.213.085-.427.111-.639q.065-.512.082-1.021v-.012q.015-.486-.011-.967v-.002l.002-.004-.002-.03v-.03c-.01-.154-.032-.307-.047-.461-.015-.15-.025-.299-.045-.447q-.01-.084-.022-.168c-.018-.12-.048-.24-.07-.36-.026-.145-.05-.29-.082-.435-.017-.077-.03-.154-.049-.23q-.012-.047-.025-.092-.04-.15-.082-.3c-.029-.103-.055-.208-.086-.312q-.043-.155-.092-.31c-.01-.032-.025-.063-.035-.094q-.054-.157-.111-.315l-.057-.154c-.052-.14-.098-.28-.154-.42q-.037-.082-.073-.164-.051-.12-.105-.242l-.016-.031c-.81-1.84-2.003-3.611-3.45-5.293q-.024-.023-.046-.047-.029-.037-.058-.072l-.012-.012c-.09-.102-.19-.2-.281-.3a34 34 0 0 0-1.291-1.382c-.069-.068-.144-.133-.213-.2a41 41 0 0 0-1.5-1.415c-.153-.136-.314-.266-.469-.4-.099-.086-.202-.167-.3-.252A52 52 0 0 0-17.47 84.1l-.148-.115a66 66 0 0 0-3.694-2.67l-.201-.133a81 81 0 0 0-1.69-1.101c-.161-.103-.321-.199-.482-.299-.277-.172-.553-.347-.828-.514l-.025-.015q-.287-.176-.573-.348l-.084-.05c-.164-.099-.32-.188-.484-.284l-.082-.047a107 107 0 0 0-3.016-1.709c-.225-.122-.463-.243-.693-.365a65 65 0 0 0-7.516-3.406l-.033-.012a54 54 0 0 0-1.695-.61q-.052-.015-.106-.033a49 49 0 0 0-2.154-.666c-.21-.06-.421-.113-.633-.17a42 42 0 0 0-1.703-.421c-.203-.046-.404-.095-.607-.137q-.158-.032-.315-.06a37 37 0 0 0-1.634-.292c-.27-.04-.538-.082-.807-.117q-.087-.013-.174-.025-.15-.018-.303-.033-.388-.045-.775-.079-.294-.027-.588-.048-.213-.014-.426-.026-.17-.008-.341-.013l-.055-.002c-.136-.006-.273-.017-.408-.02h-.1q-.675-.015-1.342.006-.673.02-1.338.08c-.074.007-.148.02-.222.027q-.128.014-.256.03-.295.03-.588.07-.131.017-.262.035l-.1.018c-.126.02-.253.036-.378.058l-.01.002-.031.008q-.204.038-.407.08-.086.016-.171.031c-.431-.543-.78-.953-1.157-1.396-.11-.161-.22-.324-.34-.48q-.002-.004-.005-.006a11.5 11.5 0 0 0-1.457-1.57c-.825-.738-2.36-.863-3.489-1.44-.497-.255-.857-.616-1.219-.95h-.001c-.272-.25-.544-.485-.877-.648h-.002a2 2 0 0 0-.356-.137 16 16 0 0 0-1.168-.285q-.15-.029-.303-.056l-.08-.016-.05-.008c-.075-.013-.149-.03-.223-.043q-.255-.04-.508-.074a17 17 0 0 0-1.049-.11l-.222-.015-.309-.018q-.57-.025-1.143-.013z" style="opacity:.3;filter:url(#v);fill:#000" transform="matrix(.35632 .04714 -.04714 .35632 140.47 120.42)"/><path d="M-144.62 75.331s-2.906 5.967-3.152 9.199c-.32 4.213.282 8.734 2.248 12.474 3.589 6.824 9.512 12.878 16.43 16.28 7.393 3.637 16.322 4.32 24.496 3.287 14.823-1.875 18.342-16.357 18.342-16.357z" style="fill:url(#w)" transform="matrix(-.35441 .0598 .0598 .35441 61.04 123.203)"/><path d="M-66.948 97.154c.164.371.33.742.518 1.1 3.588 6.824 9.51 12.878 16.43 16.28 7.392 3.636 16.323 4.32 24.496 3.286 14.823-1.875 18.342-16.357 18.342-16.357l-1.262-.54c-1.17 3.42-5.628 13.592-17.953 15.15-8.173 1.035-17.103.352-24.496-3.284-6.699-3.295-12.457-9.078-16.074-15.635z" clip-path="url(#y)" style="filter:url(#x);fill:#320507" transform="matrix(-.35441 .0598 .0598 .35441 88.981 118.127)"/><path d="M-141.54 72.559c-.91.884-2.338 1.455-2.91 2.403-5.912 9.81 5.352 22.513 13.563 28.316 11.684 8.256 36.454 13.504 42.919.424.115-.234.011-.995.11-1.227.038-.09.273-.228.408-.391.135-.164.063-.51.229-.698.165-.187.371-.302.565-.38.34-.136.226-.3.255-.39 3.697-11.388-11.405-21.446-21.185-26.763-9.279-5.045-22.8-9.749-32.118-3.674-.886.577-1.034 1.6-1.836 2.38z" style="fill:url(#z)" transform="matrix(-.35441 .0598 .0598 .35441 61.04 123.203)"/><path d="M-133.14 67.641c-2.329.41-4.544 1.22-6.564 2.537-.886.577-1.034 1.6-1.836 2.381-.91.884-2.34 1.455-2.91 2.402-5.913 9.811 5.35 22.514 13.561 28.316 5.151 3.64 12.843 6.682 20.39 7.838l.058.01c.485.074.968.134 1.451.192a43 43 0 0 0 1.918.189c.3.022.598.035.897.05.379.02.758.044 1.132.052.353.008.7-.001 1.047-.004q.823-.006 1.627-.053c.377-.022.753-.044 1.123-.08.287-.028.568-.065.85-.102a26 26 0 0 0 1.893-.314q.56-.118 1.105-.264c.177-.046.363-.078.537-.129l-.105.016c.115-.033.236-.057.35-.092-.335-.032-.68-.013-.907.074-.411.158-.826.128-1.105-.078-.506-.373-2.805-.192-2.858.225-.018.144-.316.225-.662.181-.614-.077-.61-.09.148-.57l.776-.49-.69.082c-.417.05-.674-.053-.648-.26.032-.25-.128-.277-.586-.101-.798.305-2.06-.161-2.81-1.04-.444-.518-.856-.678-1.735-.671-.953.007-1.311-.16-2.057-.961-.803-.865-.847-1.022-.416-1.434.426-.406.423-.448-.025-.342-.4.095-.459-.014-.27-.506.133-.345.12-.54-.029-.433-.15.106-.49-.061-.756-.371s-.597-.478-.734-.371-.013.415.275.687.38.477.205.455-.458-.262-.63-.533c-.46-.722-.611-.668-1.832.67l-1.11 1.215-2.238-.307c-1.231-.169-2.225-.432-2.205-.584.019-.152.541-1.1 1.16-2.105.619-1.006 1.082-1.997 1.03-2.206-.132-.517-2.19-1.819-2.59-1.636-.178.08-.353.006-.387-.168s-.465.18-.957.789c-.632.782-1.213 1.154-1.975 1.265-1.237.181-2.13.113-2.096-.158.014-.102.695-1.106 1.514-2.228s1.345-2.058 1.17-2.08-.335.094-.355.257c-.021.164-.181.278-.356.256-.194-.024-.202-.289-.021-.68.263-.569.236-.602-.245-.296-.352.224-.525.227-.498.01.024-.184-.168-.36-.425-.393-.258-.033-.643-.286-.858-.563-.245-.316-.668-.47-1.138-.414-.458.055-1.012-.135-1.428-.49-.5-.427-.694-.48-.733-.201-.042.306-.09.3-.246-.031-.303-.645-1.404.477-1.584 1.615-.107.68-.313.97-.707.996-.693.045-1.622-.993-1.44-1.61.103-.346-.152-.509-1.046-.663-1.695-.293-2.71-.923-3.004-1.868-.218-.701-.128-1.003.615-2.058.712-1.01.808-1.31.528-1.645-.275-.327-.322-.304-.233.11.063.292-.074.562-.312.62-.316.078-.366-.15-.198-.906.124-.556.105-1.026-.043-1.044-.147-.02-.286.107-.308.28s-.165.215-.319.09c-.153-.123-.178-.35-.054-.503s-.213-.118-.746.078c-1.302.477-1.933.356-2.03-.385-.044-.338-.275-.64-.515-.67s-.359-.216-.264-.412c.179-.369-.456-1.171-.979-1.238-.163-.021-.081.129.184.332s.457.57.426.814c-.105.828-1.334-.702-1.783-2.22-.401-1.356-.946-4.443-1.016-5.61.248-1.26.707-2.495 1.426-3.687.57-.947 1.999-1.518 2.908-2.403.802-.78.951-1.804 1.836-2.38a16.9 16.9 0 0 1 4.467-2.044z" style="fill:url(#A)" transform="matrix(-.35441 .0598 .0598 .35441 61.04 123.203)"/><path d="M-128.55 67.317q-.725-.018-1.441.006c-1.818.058-3.592.324-5.29.83-.092.027-.183.059-.275.088q-.592.186-1.17.416c-.081.032-.167.054-.248.088l.01.008c-.943.389-1.86.854-2.736 1.425-.885.577-1.034 1.601-1.836 2.381-.91.885-2.34 1.455-2.91 2.403a11.3 11.3 0 0 0-1.47 3.931c.268-.96.67-1.902 1.224-2.82.57-.947 1.999-1.518 2.908-2.402.802-.78.95-1.804 1.836-2.381a16.8 16.8 0 0 1 3.894-1.862c.723.462 1.484.776 1.862.594.436-.21.891-.082 1.654.467.58.416 1.399.89 1.82 1.05.884.338 3.534-.032 3.733-.52.073-.182.428-.23.789-.108.548.185.55.205.006.129-.358-.05-.627.084-.6.299a.39.39 0 0 0 .434.34c.21-.027.193.138-.04.365-.232.227-.515.272-.63.101-.116-.17-.285-.149-.375.049s-.817.627-1.614.953c-2.241.918-1.934 1.183.563.486 1.708-.476 2.35-.844 2.662-1.527.44-.96 1.152-1.283 1.244-.564.036.28.543.374 1.428.261 1.819-.23 2.457.108 2.256 1.2-.133.723.047 1.008.916 1.447 1.815.918 1.866.96 1.865 1.564 0 .484.046.49.275.04.178-.35.423-.4.682-.14.292.295.503.185.77-.396.533-1.165 1.575-1.361 2.376-.447.45.513.52.987.237 1.606-.386.843-.372.86.375.468.594-.31.672-.298.338.051-.342.356-.27.485.32.586.443.076.686.284.586.502-.123.268.05.359.613.322 1.045-.067 1.12-.01.992.729-.103.596-.09.6.192.076.28-.52.336-.5.87.34.54.846.588.863.852.297.232-.496.297-.494.368.011.071.514.171.53.623.088.5-.488.527-.463.394.383l-.142.912.425-.783c.393-.723.424-.726.409-.012-.014.63.088.561.537-.37.524-1.088.606-1.121 1.636-.628.73.349.975.63.747.854-.188.184-.18.408.019.498s.263.376.143.639c-.178.389-.024.487.836.533.868.046 2.59.402 3.318.685.947.369 1.23.746.975 1.303-.212.462-.084.735.447.955.709.294.718.282.219-.264-.63-.686-.624-.686 1.613.213 1.45.583 1.803.87 1.933 1.565.088.467.051 1.09-.084 1.385-.514 1.123.22 1.754 2.233 1.918 1.581.128 2.054.305 2.988 1.115 1.056.916 2.762 4.412 2.467 5.056-.077.168-.035.462.094.653.085.126.164.157.24.148.115 1.04.099 2.096-.084 3.166.328-1.201.44-2.386.385-3.553.006-.018.013-.03.02-.05-.131-2.497-1.086-4.901-2.563-7.178a27.007 27.007 0 0 0-2.086-2.758q-.029-.036-.059-.072l-.011-.012a37 37 0 0 0-3.286-3.297c-.152-.136-.313-.266-.468-.4a50 50 0 0 0-1.313-1.106c-.213-.172-.43-.338-.646-.507a59 59 0 0 0-1.215-.932c-.236-.175-.472-.344-.71-.516a69 69 0 0 0-3.241-2.209q-.284-.183-.567-.363-.659-.416-1.31-.812-.342-.211-.682-.415c-.165-.098-.32-.187-.484-.283a107 107 0 0 0-3.098-1.756c-.225-.122-.463-.243-.693-.365h-.01q-.407-.214-.825-.428l-.015-.017c-.116-.06-.24-.115-.356-.174a69 69 0 0 0-3.695-1.729q-.649-.276-1.31-.54c-.434-.176-.864-.352-1.305-.518-.38-.142-.765-.27-1.149-.404-3.787-1.329-7.764-2.268-11.609-2.36zm40.639 36.082c-.09.074-.169.137-.19.186-.037.088-.044.258-.046.441.058-.11.127-.211.183-.324a.9.9 0 0 0 .053-.303" style="fill:url(#B)" transform="matrix(-.35441 .0598 .0598 .35441 61.04 123.203)"/><path d="M-129.99 67.323c-3.475.112-6.797.957-9.709 2.856-.885.576-1.034 1.6-1.836 2.38-.91.885-2.34 1.456-2.91 2.403-5.913 9.81 5.35 22.514 13.562 28.316 1.573 1.112 3.397 2.161 5.369 3.127-1.678-.86-3.232-1.783-4.602-2.75-8.211-5.803-19.475-18.506-13.562-28.316.571-.947 2.001-1.518 2.91-2.403.803-.78.952-1.804 1.836-2.38 8.155-5.316 19.526-2.379 28.457 1.818-5.903-2.867-12.975-5.261-19.516-5.05zm19.516 5.05c.391.185.767.375 1.148.563-.374-.19-.763-.375-1.148-.562" style="filter:url(#C);fill:#fff" transform="matrix(-.35441 .0598 .0598 .35441 61.04 123.203)"/><g clip-path="url(#D)" transform="matrix(-.35441 .0598 .0598 .35441 122.943 109.895)"><path d="m30.396 81.478 3.734-2.987 4.481 1.045 3.36 2.838 3.66 3.51s2.166.448 2.54.523c.373.075 3.808 1.42 3.808 1.42s1.792 0 2.465.671c.672.672 2.09 2.017 2.09 2.017l2.615.821 6.348 3.809s.522.896.97 1.195c.449.299 2.988 1.493 2.988 1.493s3.51 1.046 3.809 1.42c.298.373 2.39 2.24 2.39 2.24l3.883 1.27 1.867 1.792 2.763.97 2.689 2.167 2.464 2.165v2.689s-3.062-1.046-3.584-1.195-4.481-.523-4.481-.523l-2.614-2.09-6.498-3.287s-1.344-1.643-2.09-2.24c-.748-.598-2.69-1.27-2.69-1.27l-3.36-1.344-2.54-2.017s-4.33-2.24-4.779-2.464-4.705-2.614-4.705-2.614l-2.913-1.12-3.36-1.643-2.24-.523-2.316-1.27-1.195-1.27-4.107-3.21-1.569-1.718z" style="filter:url(#E);fill:#4b0a03"/><path d="m32.423 79.924-.422.906 4.412 2.051 1.553 2.381.066.05s.49.382 1.106.778c.615.397 1.304.831 1.998.908.083.01.347.115.642.305s.635.45.973.723.674.558.98.8c.307.243.565.44.854.565.465.199 1.146.347 1.809.469.662.121 1.22.205 1.556.205-.072 0-.018-.001.053.025s.176.07.293.127c.235.114.53.279.826.453.593.348 1.216.757 1.379.879.164.123.423.28.783.494.36.215.797.47 1.22.715.848.49 1.642.94 1.642.94l2.976 1.914 5.276 2.003 3.68 2.524 4.435 2.113 2.965 2.012 5.048 2.209 3.989 3.232 3.94.106L88.34 111l.533-.847-2.117-1.335-3.877-.104-3.828-3.105-5.09-2.227-2.95-2.002-4.435-2.111-3.713-2.547-5.289-2.01-2.924-1.879-.013-.008s-.79-.448-1.633-.935c-.421-.244-.854-.497-1.207-.707-.353-.211-.65-.399-.697-.434-.26-.194-.852-.579-1.473-.943-.31-.183-.62-.355-.895-.489q-.203-.1-.384-.168c-.181-.068-.22-.085-.399-.085-.086 0-.744-.074-1.375-.19-.63-.116-1.323-.287-1.597-.404-.08-.035-.34-.203-.627-.43s-.622-.511-.971-.793-.71-.561-1.06-.787c-.352-.226-.683-.412-1.075-.455-.257-.029-.993-.387-1.566-.756-.54-.347-.923-.645-.973-.684l-1.611-2.47z" style="color-rendering:auto;text-decoration-color:currentColor;color:#000;shape-rendering:auto;text-decoration-line:none;fill:#000;block-progression:tb;opacity:.59;text-indent:0;image-rendering:auto;filter:url(#F);text-transform:none"/></g><path d="M-92.099 84.805c4.483 4.582 7.288 9.908 5.451 15.564-.029.089.087.252-.254.389a1.46 1.46 0 0 0-.564.38c-.166.188-.096.535-.23.698-.135.163-.369.301-.407.39-.099.233.004.994-.111 1.227-6.465 13.08-31.234 7.833-42.918-.424-1.988-1.405-4.154-3.22-6.213-5.295 2.132 2.18 4.391 4.082 6.459 5.543 11.684 8.257 36.455 13.504 42.92.424.115-.233.01-.994.11-1.226.037-.09.273-.23.407-.393.135-.163.064-.51.229-.697.165-.188.37-.302.564-.38.341-.136.228-.301.256-.39 1.87-5.759-1.074-11.173-5.699-15.81z" style="filter:url(#G);fill:#28170b" transform="matrix(-.35441 .0598 .0598 .35441 61.04 123.203)"/><path d="M-141.54 72.559c-.91.884-2.338 1.455-2.91 2.403-5.912 9.81 5.352 22.513 13.563 28.316 11.684 8.256 36.454 13.504 42.919.424.115-.234.011-.995.11-1.227.038-.09.273-.228.408-.391.135-.164.063-.51.229-.698.165-.187.371-.302.565-.38.34-.136.226-.3.255-.39 3.697-11.388-11.405-21.446-21.185-26.763-9.279-5.045-22.8-9.749-32.118-3.674-.886.577-1.034 1.6-1.836 2.38z" style="fill:url(#H)" transform="matrix(-.35441 .0598 .0598 .35441 61.04 123.203)"/><path d="M-54.282 68.281c-3.475.112-6.798.957-9.71 2.856-.886.576-1.035 1.6-1.837 2.38-.909.885-2.337 1.456-2.908 2.403-.488.81-.848 1.64-1.113 2.484-.876 2.03-2.056 5.04-2.211 7.084-.32 4.213.281 8.735 2.248 12.475 3.588 6.824 9.51 12.877 16.43 16.28 7.392 3.635 16.323 4.32 24.496 3.286 13-1.644 17.303-12.975 18.166-15.74a.2.2 0 0 0 .023-.088c.088-.29.155-.529.155-.529l-.032-.014c3.202-11.219-11.639-21.098-21.299-26.35-6.378-3.468-14.762-6.775-22.408-6.529z" style="opacity:.5;filter:url(#I);fill:#000" transform="matrix(.35632 .04714 -.0453 .34242 140.25 122.087)"/><path d="M-65.615 76.319s-2.906 5.967-3.152 9.199c-.32 4.213.282 8.734 2.248 12.474 3.589 6.824 9.512 12.878 16.43 16.28 7.393 3.637 16.323 4.32 24.496 3.287 14.823-1.875 18.342-16.357 18.342-16.357z" style="fill:url(#J)" transform="scale(.35942)rotate(7.536 -2351.919 3132.628)"/><path d="M-66.948 97.154c.164.371.33.742.518 1.1 3.588 6.824 9.51 12.878 16.43 16.28 7.392 3.636 16.323 4.32 24.496 3.286 14.823-1.875 18.342-16.357 18.342-16.357l-1.262-.54c-1.17 3.42-5.628 13.592-17.953 15.15-8.173 1.035-17.103.352-24.496-3.284-6.699-3.295-12.457-9.078-16.074-15.635z" clip-path="url(#y)" style="filter:url(#x);fill:#320507" transform="scale(.35942)rotate(7.536 -2351.919 3132.628)"/><path d="M-62.534 73.547c-.91.884-2.338 1.455-2.91 2.403-5.912 9.81 5.352 22.513 13.563 28.316 11.684 8.256 36.454 13.504 42.919.424.115-.234.011-.995.11-1.227.038-.09.273-.228.408-.391.135-.164.063-.51.229-.698.165-.187.371-.302.565-.38.34-.136.226-.3.254-.39 3.7-11.394-11.404-21.452-21.184-26.77-9.278-5.044-22.799-9.748-32.118-3.673-.885.577-1.033 1.6-1.835 2.38z" style="fill:url(#K)" transform="scale(.35942)rotate(7.536 -2351.919 3132.628)"/><path d="M-54.133 68.629c-2.329.41-4.544 1.22-6.564 2.537-.886.577-1.034 1.6-1.836 2.381-.91.884-2.34 1.455-2.91 2.402-5.913 9.811 5.35 22.514 13.561 28.316 5.151 3.64 12.843 6.682 20.39 7.838l.058.01c.485.074.968.134 1.451.192a43 43 0 0 0 1.918.189c.3.022.598.035.897.05.378.02.757.044 1.132.052.353.008.7-.001 1.047-.004q.822-.006 1.627-.053c.377-.022.753-.044 1.123-.08.287-.028.568-.065.85-.102a26 26 0 0 0 1.893-.314q.56-.119 1.105-.264c.177-.046.363-.078.537-.129l-.105.016c.115-.033.235-.057.35-.092-.335-.032-.68-.013-.907.074-.411.158-.826.128-1.105-.078-.506-.373-2.805-.192-2.858.225-.018.144-.316.225-.662.181-.614-.077-.61-.09.148-.57l.776-.49-.69.082c-.417.05-.674-.053-.648-.26.032-.25-.128-.277-.586-.101-.798.305-2.06-.161-2.81-1.04-.444-.518-.856-.678-1.735-.671-.952.007-1.311-.16-2.056-.961-.804-.865-.848-1.022-.416-1.434.425-.406.422-.448-.026-.342-.4.095-.458-.014-.27-.506.133-.345.12-.54-.029-.433-.149.106-.49-.061-.756-.371s-.597-.478-.734-.371-.013.415.275.687.38.477.206.455-.459-.262-.631-.533c-.46-.722-.61-.668-1.832.67l-1.11 1.215-2.238-.307c-1.231-.169-2.224-.432-2.205-.584s.541-1.1 1.16-2.105c.619-1.006 1.082-1.997 1.03-2.206-.132-.517-2.19-1.819-2.59-1.636-.178.08-.353.006-.387-.168s-.465.18-.957.789c-.632.782-1.213 1.154-1.975 1.265-1.237.181-2.13.113-2.095-.158.013-.102.694-1.106 1.513-2.228.82-1.123 1.345-2.058 1.17-2.08s-.335.094-.355.257c-.021.164-.181.278-.356.256-.194-.024-.202-.289-.021-.68.263-.569.236-.602-.244-.296-.353.224-.526.227-.499.01.024-.184-.168-.36-.425-.393-.258-.033-.643-.286-.858-.563-.245-.316-.668-.47-1.138-.414-.458.055-1.012-.135-1.428-.49-.5-.427-.694-.48-.733-.201-.042.306-.09.3-.246-.031-.303-.645-1.404.477-1.584 1.615-.107.68-.313.97-.707.996-.693.045-1.621-.993-1.44-1.61.103-.346-.152-.509-1.046-.663-1.695-.293-2.71-.923-3.004-1.868-.218-.701-.128-1.003.615-2.058.712-1.01.808-1.31.528-1.645-.275-.327-.321-.304-.233.11.063.292-.073.562-.312.62-.316.078-.365-.15-.198-.906.124-.556.105-1.026-.043-1.044-.147-.02-.286.107-.308.28s-.165.215-.318.09c-.154-.123-.179-.35-.055-.503s-.212-.118-.746.078c-1.302.477-1.933.356-2.03-.385-.044-.338-.275-.64-.515-.67s-.359-.216-.264-.412c.179-.369-.456-1.171-.978-1.238-.164-.021-.082.129.183.332.266.203.457.57.426.814-.105.828-1.334-.702-1.783-2.22-.401-1.356-.946-4.443-1.016-5.61.248-1.26.707-2.495 1.426-3.687.57-.947 2-1.518 2.908-2.403.802-.78.951-1.804 1.836-2.38a16.9 16.9 0 0 1 4.467-2.044z" style="fill:url(#L)" transform="scale(.35942)rotate(7.536 -2351.919 3132.628)"/><path d="M-49.547 68.305q-.725-.018-1.441.006c-1.818.058-3.592.324-5.29.83-.092.027-.183.059-.275.088a18 18 0 0 0-1.17.416c-.082.032-.167.054-.248.088l.01.008c-.943.389-1.86.854-2.736 1.425-.885.577-1.034 1.601-1.836 2.381-.91.885-2.34 1.455-2.91 2.403a11.3 11.3 0 0 0-1.471 3.931c.269-.96.671-1.902 1.224-2.82.571-.947 2-1.518 2.909-2.402.802-.78.95-1.804 1.836-2.381a16.8 16.8 0 0 1 3.894-1.862c.723.462 1.484.776 1.861.594.437-.21.892-.082 1.655.467.579.416 1.398.89 1.82 1.05.884.338 3.534-.032 3.732-.52.074-.182.428-.23.79-.108.548.185.55.205.005.129-.357-.05-.627.084-.6.299a.39.39 0 0 0 .434.34c.211-.027.193.138-.039.365s-.515.272-.63.101c-.116-.17-.285-.149-.376.049-.09.198-.817.627-1.613.953-2.242.918-1.934 1.183.563.486 1.708-.476 2.35-.844 2.662-1.527.44-.96 1.151-1.283 1.244-.564.036.28.543.374 1.427.261 1.82-.23 2.457.108 2.256 1.2-.133.723.048 1.008.916 1.447 1.815.918 1.866.96 1.866 1.564-.001.484.046.49.275.04.178-.35.423-.4.682-.14.291.295.503.185.77-.396.533-1.165 1.574-1.361 2.376-.447.45.513.52.987.236 1.606-.385.843-.37.86.375.468.595-.31.673-.298.338.051-.34.356-.27.485.32.586.444.076.686.284.587.502-.123.268.05.359.613.322 1.045-.067 1.12-.01.992.729-.104.596-.09.6.192.076.28-.52.336-.5.87.34.54.846.587.863.852.297.232-.496.297-.494.367.011.072.514.172.53.623.088.5-.488.528-.463.395.383l-.143.912.426-.783c.393-.723.423-.726.408-.012-.013.63.088.561.537-.37.524-1.088.606-1.121 1.637-.628.729.349.975.63.746.854-.187.184-.178.408.02.498s.262.376.142.639c-.178.389-.024.487.836.533.87.046 2.591.402 3.319.685.947.369 1.23.746.974 1.303-.211.462-.083.735.448.955.708.294.718.282.218-.264-.629-.686-.624-.686 1.614.213 1.45.583 1.803.87 1.933 1.565.088.467.05 1.09-.084 1.385-.514 1.123.219 1.754 2.233 1.918 1.58.128 2.054.305 2.988 1.115 1.056.916 2.762 4.412 2.467 5.056-.077.168-.035.462.093.653.085.126.165.157.24.148.116 1.04.1 2.096-.083 3.166.328-1.201.44-2.386.384-3.553.007-.018.014-.03.02-.05-.13-2.497-1.086-4.901-2.562-7.178q-.378-.579-.8-1.147a27 27 0 0 0-1.286-1.61q-.029-.038-.059-.073l-.012-.012a37 37 0 0 0-3.285-3.297c-.153-.136-.314-.266-.469-.4a50 50 0 0 0-1.312-1.106c-.213-.172-.43-.338-.647-.507a59 59 0 0 0-1.214-.932c-.236-.175-.472-.344-.71-.516a69 69 0 0 0-3.242-2.209q-.283-.183-.566-.363-.659-.417-1.31-.812-.343-.211-.682-.415c-.165-.098-.321-.187-.485-.283a107 107 0 0 0-3.097-1.756c-.225-.122-.464-.243-.694-.365h-.01a72 72 0 0 0-.824-.428l-.015-.017c-.116-.06-.24-.115-.356-.174a69 69 0 0 0-3.695-1.729q-.649-.276-1.31-.54c-.435-.176-.864-.352-1.305-.518-.38-.142-.765-.27-1.149-.404-3.787-1.329-7.764-2.268-11.609-2.36zm40.639 36.082c-.09.074-.169.137-.19.186-.037.088-.044.258-.046.441.058-.11.127-.211.183-.324a.9.9 0 0 0 .053-.303" style="fill:url(#M)" transform="scale(.35942)rotate(7.536 -2351.919 3132.628)"/><path d="M-50.988 68.311c-3.475.112-6.797.957-9.709 2.856-.885.576-1.034 1.6-1.836 2.38-.909.885-2.34 1.456-2.91 2.403-5.913 9.81 5.35 22.514 13.562 28.316 1.573 1.112 3.397 2.161 5.369 3.127-1.678-.86-3.232-1.783-4.602-2.75-8.211-5.803-19.475-18.506-13.562-28.316.571-.947 2.001-1.518 2.91-2.403.803-.78.952-1.804 1.836-2.38 8.155-5.316 19.527-2.379 28.458 1.818-5.904-2.867-12.975-5.261-19.516-5.05zm19.516 5.05c.391.185.767.375 1.148.563-.374-.19-.763-.375-1.148-.562" style="filter:url(#C);fill:#fff" transform="scale(.35942)rotate(7.536 -2351.919 3132.628)"/><g clip-path="url(#D)" transform="scale(.35942)rotate(7.536 -2251.326 2399.686)"><path d="m30.396 81.478 3.734-2.987 4.481 1.045 3.36 2.838 3.66 3.51s2.166.448 2.54.523c.373.075 3.808 1.42 3.808 1.42s1.792 0 2.465.671c.672.672 2.09 2.017 2.09 2.017l2.615.821 6.348 3.809s.522.896.97 1.195c.449.299 2.988 1.493 2.988 1.493s3.51 1.046 3.809 1.42c.298.373 2.39 2.24 2.39 2.24l3.883 1.27 1.867 1.792 2.763.97 2.689 2.167 2.464 2.165v2.689s-3.062-1.046-3.584-1.195-4.481-.523-4.481-.523l-2.614-2.09-6.498-3.287s-1.344-1.643-2.09-2.24c-.748-.598-2.69-1.27-2.69-1.27l-3.36-1.344-2.54-2.017s-4.33-2.24-4.779-2.464-4.705-2.614-4.705-2.614l-2.913-1.12-3.36-1.643-2.24-.523-2.316-1.27-1.195-1.27-4.107-3.21-1.569-1.718z" style="filter:url(#E);fill:#4b0a03"/><path d="m32.423 79.924-.422.906 4.412 2.051 1.553 2.381.066.05s.49.382 1.106.778c.615.397 1.304.831 1.998.908.083.01.347.115.642.305s.635.45.973.723.674.558.98.8c.307.243.565.44.854.565.465.199 1.146.347 1.809.469.662.121 1.22.205 1.556.205-.072 0-.018-.001.053.025s.176.07.293.127c.235.114.53.279.826.453.593.348 1.216.757 1.379.879.164.123.423.28.783.494.36.215.797.47 1.22.715.848.49 1.642.94 1.642.94l2.976 1.914 5.276 2.003 3.68 2.524 4.435 2.113 2.965 2.012 5.048 2.209 3.989 3.232 3.94.106L88.34 111l.533-.847-2.117-1.335-3.877-.104-3.828-3.105-5.09-2.227-2.95-2.002-4.435-2.111-3.713-2.547-5.289-2.01-2.924-1.879-.013-.008s-.79-.448-1.633-.935c-.421-.244-.854-.497-1.207-.707-.353-.211-.65-.399-.697-.434-.26-.194-.852-.579-1.473-.943-.31-.183-.62-.355-.895-.489q-.203-.1-.384-.168c-.181-.068-.22-.085-.399-.085-.086 0-.744-.074-1.375-.19-.63-.116-1.323-.287-1.597-.404-.08-.035-.34-.203-.627-.43s-.622-.511-.971-.793-.71-.561-1.06-.787c-.352-.226-.683-.412-1.075-.455-.257-.029-.993-.387-1.566-.756-.54-.347-.923-.645-.973-.684l-1.611-2.47z" style="color-rendering:auto;text-decoration-color:currentColor;color:#000;shape-rendering:auto;text-decoration-line:none;fill:#000;block-progression:tb;opacity:.59;text-indent:0;image-rendering:auto;filter:url(#F);text-transform:none"/></g><path d="M-13.094 85.793c4.483 4.582 7.288 9.908 5.451 15.564-.029.089.087.252-.254.389a1.46 1.46 0 0 0-.564.38c-.165.188-.096.535-.23.698-.135.163-.369.301-.407.39-.099.233.004.994-.111 1.227-6.465 13.08-31.234 7.833-42.918-.424-1.988-1.405-4.154-3.22-6.213-5.295 2.132 2.18 4.391 4.082 6.459 5.543 11.684 8.257 36.455 13.504 42.92.424.115-.233.01-.994.11-1.226.037-.09.273-.23.407-.393.135-.163.064-.51.229-.697.165-.188.37-.302.564-.38.341-.136.228-.301.256-.39 1.87-5.759-1.074-11.173-5.699-15.81z" style="filter:url(#G);fill:#28170b" transform="scale(.35942)rotate(7.536 -2351.919 3132.628)"/><path d="M-62.534 73.547c-.91.884-2.338 1.455-2.91 2.403-5.912 9.81 5.352 22.513 13.563 28.316 11.684 8.256 36.454 13.504 42.919.424.115-.234.011-.995.11-1.227.038-.09.273-.228.408-.391.135-.164.063-.51.229-.698.165-.187.371-.302.565-.38.34-.136.226-.3.254-.39 3.7-11.394-11.404-21.452-21.184-26.77-9.278-5.044-22.799-9.748-32.118-3.673-.885.577-1.033 1.6-1.835 2.38z" style="fill:url(#N)" transform="scale(.35942)rotate(7.536 -2351.919 3132.628)"/><path d="M-74.947 90.904c-8.07.16-16.27 2.18-20.854 8.303-.633.845-.42 1.857-.906 2.865-.55 1.143-1.696 2.17-1.906 3.256a11.4 11.4 0 0 0-.194 2.73c-.124 2.208-.197 5.429.358 7.397 1.145 4.066 3.263 8.106 6.394 10.943 5.714 5.177 13.355 8.83 21.021 9.65 8.192.877 16.813-1.548 24.135-5.326 11.648-6.01 11.796-18.133 11.656-21.021a.2.2 0 0 0-.008-.088c-.017-.305-.037-.55-.037-.55l-.035-.003c-.844-11.635-18.175-15.816-29.051-17.432-3.264-.485-6.906-.797-10.574-.724z" style="opacity:.5;filter:url(#O);fill:#000" transform="matrix(.35632 .04714 -.0458 .34622 140.376 121.132)"/><path d="M-65.615 76.319s-2.906 5.967-3.152 9.199c-.32 4.213.282 8.734 2.248 12.474 3.589 6.824 9.512 12.878 16.43 16.28 7.393 3.637 16.323 4.32 24.496 3.287 14.823-1.875 18.342-16.357 18.342-16.357z" style="fill:url(#J)" transform="matrix(.35084 -.07808 .07808 .35084 116.686 121.443)"/><path d="M-66.948 97.154c.164.371.33.742.518 1.1 3.588 6.824 9.51 12.878 16.43 16.28 7.392 3.636 16.323 4.32 24.496 3.286 14.823-1.875 18.342-16.357 18.342-16.357l-1.262-.54c-1.17 3.42-5.628 13.592-17.953 15.15-8.173 1.035-17.103.352-24.496-3.284-6.699-3.295-12.457-9.078-16.074-15.635z" clip-path="url(#y)" style="filter:url(#x);fill:#320507" transform="matrix(.35084 -.07808 .07808 .35084 116.686 121.443)"/><path d="M-62.534 73.547c-.91.884-2.338 1.455-2.91 2.403-5.912 9.81 5.352 22.513 13.563 28.316 11.684 8.256 36.454 13.504 42.919.424.115-.234.011-.995.11-1.227.038-.09.273-.228.408-.391.135-.164.063-.51.229-.698.165-.187.371-.302.565-.38.34-.136.226-.3.254-.39 3.7-11.394-11.404-21.452-21.184-26.77-9.278-5.044-22.799-9.748-32.118-3.673-.885.577-1.033 1.6-1.835 2.38z" style="fill:url(#K)" transform="matrix(.35084 -.07808 .07808 .35084 116.686 121.443)"/><path d="M-54.133 68.629c-2.329.41-4.544 1.22-6.564 2.537-.886.577-1.034 1.6-1.836 2.381-.91.884-2.34 1.455-2.91 2.402-5.913 9.811 5.35 22.514 13.561 28.316 5.151 3.64 12.843 6.682 20.39 7.838l.058.01c.485.074.968.134 1.451.192a43 43 0 0 0 1.918.189c.3.022.598.035.897.05.378.02.757.044 1.132.052.353.008.7-.001 1.047-.004q.822-.006 1.627-.053c.377-.022.753-.044 1.123-.08.287-.028.568-.065.85-.102a26 26 0 0 0 1.893-.314q.56-.119 1.105-.264c.177-.046.363-.078.537-.129l-.105.016c.115-.033.235-.057.35-.092-.335-.032-.68-.013-.907.074-.411.158-.826.128-1.105-.078-.506-.373-2.805-.192-2.858.225-.018.144-.316.225-.662.181-.614-.077-.61-.09.148-.57l.776-.49-.69.082c-.417.05-.674-.053-.648-.26.032-.25-.128-.277-.586-.101-.798.305-2.06-.161-2.81-1.04-.444-.518-.856-.678-1.735-.671-.952.007-1.311-.16-2.056-.961-.804-.865-.848-1.022-.416-1.434.425-.406.422-.448-.026-.342-.4.095-.458-.014-.27-.506.133-.345.12-.54-.029-.433-.149.106-.49-.061-.756-.371s-.597-.478-.734-.371-.013.415.275.687.38.477.206.455-.459-.262-.631-.533c-.46-.722-.61-.668-1.832.67l-1.11 1.215-2.238-.307c-1.231-.169-2.224-.432-2.205-.584s.541-1.1 1.16-2.105c.619-1.006 1.082-1.997 1.03-2.206-.132-.517-2.19-1.819-2.59-1.636-.178.08-.353.006-.387-.168s-.465.18-.957.789c-.632.782-1.213 1.154-1.975 1.265-1.237.181-2.13.113-2.095-.158.013-.102.694-1.106 1.513-2.228.82-1.123 1.345-2.058 1.17-2.08s-.335.094-.355.257c-.021.164-.181.278-.356.256-.194-.024-.202-.289-.021-.68.263-.569.236-.602-.244-.296-.353.224-.526.227-.499.01.024-.184-.168-.36-.425-.393-.258-.033-.643-.286-.858-.563-.245-.316-.668-.47-1.138-.414-.458.055-1.012-.135-1.428-.49-.5-.427-.694-.48-.733-.201-.042.306-.09.3-.246-.031-.303-.645-1.404.477-1.584 1.615-.107.68-.313.97-.707.996-.693.045-1.621-.993-1.44-1.61.103-.346-.152-.509-1.046-.663-1.695-.293-2.71-.923-3.004-1.868-.218-.701-.128-1.003.615-2.058.712-1.01.808-1.31.528-1.645-.275-.327-.321-.304-.233.11.063.292-.073.562-.312.62-.316.078-.365-.15-.198-.906.124-.556.105-1.026-.043-1.044-.147-.02-.286.107-.308.28s-.165.215-.318.09c-.154-.123-.179-.35-.055-.503s-.212-.118-.746.078c-1.302.477-1.933.356-2.03-.385-.044-.338-.275-.64-.515-.67s-.359-.216-.264-.412c.179-.369-.456-1.171-.978-1.238-.164-.021-.082.129.183.332.266.203.457.57.426.814-.105.828-1.334-.702-1.783-2.22-.401-1.356-.946-4.443-1.016-5.61.248-1.26.707-2.495 1.426-3.687.57-.947 2-1.518 2.908-2.403.802-.78.951-1.804 1.836-2.38a16.9 16.9 0 0 1 4.467-2.044z" style="fill:url(#L)" transform="matrix(.35084 -.07808 .07808 .35084 116.686 121.443)"/><path d="M-49.547 68.305q-.725-.018-1.441.006c-1.818.058-3.592.324-5.29.83-.092.027-.183.059-.275.088a18 18 0 0 0-1.17.416c-.082.032-.167.054-.248.088l.01.008c-.943.389-1.86.854-2.736 1.425-.885.577-1.034 1.601-1.836 2.381-.91.885-2.34 1.455-2.91 2.403a11.3 11.3 0 0 0-1.471 3.931c.269-.96.671-1.902 1.224-2.82.571-.947 2-1.518 2.909-2.402.802-.78.95-1.804 1.836-2.381a16.8 16.8 0 0 1 3.894-1.862c.723.462 1.484.776 1.861.594.437-.21.892-.082 1.655.467.579.416 1.398.89 1.82 1.05.884.338 3.534-.032 3.732-.52.074-.182.428-.23.79-.108.548.185.55.205.005.129-.357-.05-.627.084-.6.299a.39.39 0 0 0 .434.34c.211-.027.193.138-.039.365s-.515.272-.63.101c-.116-.17-.285-.149-.376.049-.09.198-.817.627-1.613.953-2.242.918-1.934 1.183.563.486 1.708-.476 2.35-.844 2.662-1.527.44-.96 1.151-1.283 1.244-.564.036.28.543.374 1.427.261 1.82-.23 2.457.108 2.256 1.2-.133.723.048 1.008.916 1.447 1.815.918 1.866.96 1.866 1.564-.001.484.046.49.275.04.178-.35.423-.4.682-.14.291.295.503.185.77-.396.533-1.165 1.574-1.361 2.376-.447.45.513.52.987.236 1.606-.385.843-.37.86.375.468.595-.31.673-.298.338.051-.34.356-.27.485.32.586.444.076.686.284.587.502-.123.268.05.359.613.322 1.045-.067 1.12-.01.992.729-.104.596-.09.6.192.076.28-.52.336-.5.87.34.54.846.587.863.852.297.232-.496.297-.494.367.011.072.514.172.53.623.088.5-.488.528-.463.395.383l-.143.912.426-.783c.393-.723.423-.726.408-.012-.013.63.088.561.537-.37.524-1.088.606-1.121 1.637-.628.729.349.975.63.746.854-.187.184-.178.408.02.498s.262.376.142.639c-.178.389-.024.487.836.533.87.046 2.591.402 3.319.685.947.369 1.23.746.974 1.303-.211.462-.083.735.448.955.708.294.718.282.218-.264-.629-.686-.624-.686 1.614.213 1.45.583 1.803.87 1.933 1.565.088.467.05 1.09-.084 1.385-.514 1.123.219 1.754 2.233 1.918 1.58.128 2.054.305 2.988 1.115 1.056.916 2.762 4.412 2.467 5.056-.077.168-.035.462.093.653.085.126.165.157.24.148.116 1.04.1 2.096-.083 3.166.328-1.201.44-2.386.384-3.553.007-.018.014-.03.02-.05-.13-2.497-1.086-4.901-2.562-7.178q-.378-.579-.8-1.147a27 27 0 0 0-1.286-1.61q-.029-.038-.059-.073l-.012-.012a37 37 0 0 0-3.285-3.297c-.153-.136-.314-.266-.469-.4a50 50 0 0 0-1.312-1.106c-.213-.172-.43-.338-.647-.507a59 59 0 0 0-1.214-.932c-.236-.175-.472-.344-.71-.516a69 69 0 0 0-3.242-2.209q-.283-.183-.566-.363-.659-.417-1.31-.812-.343-.211-.682-.415c-.165-.098-.321-.187-.485-.283a107 107 0 0 0-3.097-1.756c-.225-.122-.464-.243-.694-.365h-.01a72 72 0 0 0-.824-.428l-.015-.017c-.116-.06-.24-.115-.356-.174a69 69 0 0 0-3.695-1.729q-.649-.276-1.31-.54c-.435-.176-.864-.352-1.305-.518-.38-.142-.765-.27-1.149-.404-3.787-1.329-7.764-2.268-11.609-2.36zm40.639 36.082c-.09.074-.169.137-.19.186-.037.088-.044.258-.046.441.058-.11.127-.211.183-.324a.9.9 0 0 0 .053-.303" style="fill:url(#M)" transform="matrix(.35084 -.07808 .07808 .35084 116.686 121.443)"/><path d="M-50.988 68.311c-3.475.112-6.797.957-9.709 2.856-.885.576-1.034 1.6-1.836 2.38-.909.885-2.34 1.456-2.91 2.403-5.913 9.81 5.35 22.514 13.562 28.316 1.573 1.112 3.397 2.161 5.369 3.127-1.678-.86-3.232-1.783-4.602-2.75-8.211-5.803-19.475-18.506-13.562-28.316.571-.947 2.001-1.518 2.91-2.403.803-.78.952-1.804 1.836-2.38 8.155-5.316 19.527-2.379 28.458 1.818-5.904-2.867-12.975-5.261-19.516-5.05zm19.516 5.05c.391.185.767.375 1.148.563-.374-.19-.763-.375-1.148-.562" style="filter:url(#C);fill:#fff" transform="matrix(.35084 -.07808 .07808 .35084 116.686 121.443)"/><g clip-path="url(#D)" transform="matrix(.35084 -.07808 .07808 .35084 82.122 126.608)"><path d="m30.396 81.478 3.734-2.987 4.481 1.045 3.36 2.838 3.66 3.51s2.166.448 2.54.523c.373.075 3.808 1.42 3.808 1.42s1.792 0 2.465.671c.672.672 2.09 2.017 2.09 2.017l2.615.821 6.348 3.809s.522.896.97 1.195c.449.299 2.988 1.493 2.988 1.493s3.51 1.046 3.809 1.42c.298.373 2.39 2.24 2.39 2.24l3.883 1.27 1.867 1.792 2.763.97 2.689 2.167 2.464 2.165v2.689s-3.062-1.046-3.584-1.195-4.481-.523-4.481-.523l-2.614-2.09-6.498-3.287s-1.344-1.643-2.09-2.24c-.748-.598-2.69-1.27-2.69-1.27l-3.36-1.344-2.54-2.017s-4.33-2.24-4.779-2.464-4.705-2.614-4.705-2.614l-2.913-1.12-3.36-1.643-2.24-.523-2.316-1.27-1.195-1.27-4.107-3.21-1.569-1.718z" style="filter:url(#E);fill:#4b0a03"/><path d="m32.423 79.924-.422.906 4.412 2.051 1.553 2.381.066.05s.49.382 1.106.778c.615.397 1.304.831 1.998.908.083.01.347.115.642.305s.635.45.973.723.674.558.98.8c.307.243.565.44.854.565.465.199 1.146.347 1.809.469.662.121 1.22.205 1.556.205-.072 0-.018-.001.053.025s.176.07.293.127c.235.114.53.279.826.453.593.348 1.216.757 1.379.879.164.123.423.28.783.494.36.215.797.47 1.22.715.848.49 1.642.94 1.642.94l2.976 1.914 5.276 2.003 3.68 2.524 4.435 2.113 2.965 2.012 5.048 2.209 3.989 3.232 3.94.106L88.34 111l.533-.847-2.117-1.335-3.877-.104-3.828-3.105-5.09-2.227-2.95-2.002-4.435-2.111-3.713-2.547-5.289-2.01-2.924-1.879-.013-.008s-.79-.448-1.633-.935c-.421-.244-.854-.497-1.207-.707-.353-.211-.65-.399-.697-.434-.26-.194-.852-.579-1.473-.943-.31-.183-.62-.355-.895-.489q-.203-.1-.384-.168c-.181-.068-.22-.085-.399-.085-.086 0-.744-.074-1.375-.19-.63-.116-1.323-.287-1.597-.404-.08-.035-.34-.203-.627-.43s-.622-.511-.971-.793-.71-.561-1.06-.787c-.352-.226-.683-.412-1.075-.455-.257-.029-.993-.387-1.566-.756-.54-.347-.923-.645-.973-.684l-1.611-2.47z" style="color-rendering:auto;text-decoration-color:currentColor;color:#000;shape-rendering:auto;text-decoration-line:none;fill:#000;block-progression:tb;opacity:.59;text-indent:0;image-rendering:auto;filter:url(#F);text-transform:none"/></g><path d="M-13.094 85.793c4.483 4.582 7.288 9.908 5.451 15.564-.029.089.087.252-.254.389a1.46 1.46 0 0 0-.564.38c-.165.188-.096.535-.23.698-.135.163-.369.301-.407.39-.099.233.004.994-.111 1.227-6.465 13.08-31.234 7.833-42.918-.424-1.988-1.405-4.154-3.22-6.213-5.295 2.132 2.18 4.391 4.082 6.459 5.543 11.684 8.257 36.455 13.504 42.92.424.115-.233.01-.994.11-1.226.037-.09.273-.23.407-.393.135-.163.064-.51.229-.697.165-.188.37-.302.564-.38.341-.136.228-.301.256-.39 1.87-5.759-1.074-11.173-5.699-15.81z" style="filter:url(#G);fill:#28170b" transform="matrix(.35084 -.07808 .07808 .35084 116.686 121.443)"/><path d="M-62.534 73.547c-.91.884-2.338 1.455-2.91 2.403-5.912 9.81 5.352 22.513 13.563 28.316 11.684 8.256 36.454 13.504 42.919.424.115-.234.011-.995.11-1.227.038-.09.273-.228.408-.391.135-.164.063-.51.229-.698.165-.187.371-.302.565-.38.34-.136.226-.3.254-.39 3.7-11.394-11.404-21.452-21.184-26.77-9.278-5.044-22.799-9.748-32.118-3.673-.885.577-1.033 1.6-1.835 2.38z" style="fill:url(#N)" transform="matrix(.35084 -.07808 .07808 .35084 116.686 121.443)"/><path d="M-501.03 438.43c-21.8.043-58.762 4.46-59.939 26.551q-.056 1.074-.004 2.113l.004-.113c1.177-22.09 38.139-26.508 59.939-26.551 22.266-.044 60.199 4.31 61.342 26.865.03-.65.035-1.309.002-1.978-1.119-22.574-39.07-26.93-61.344-26.887z" style="filter:url(#P);fill:#5b3402" transform="translate(661.41 -424.42)"/><g clip-path="url(#Q)" transform="translate(662.794 -424.568)"><g transform="matrix(.71536 .12247 -.12328 .93528 -102.78 125.63)"><g clip-path="url(#R)" transform="rotate(-4.476 5961.11 -727.423)"><path d="M-534-114.4c-11.771.026-23.305 1.026-32.893 2.307a276 276 0 0 0-20.586 3.552c-3.947 3.787-6.52 8.02-5.678 12.197 2.102 10.432 19.814 9.972 30.45 9.594 12.101-.43 21.802-11.624 33.788-13.348 12.161-1.748 26.776-3.896 36.707 3.338 5.74 4.182 9.4 12.581 8.342 19.604-1.22 8.098-8.91 15.878-12.418 23.278-1.27 2.68-5.524 2.498-6.035 6.233 15.055-7.76 28.21-17.765 35.21-29.502a31 31 0 0 0-.54-6.742c-4.637-24.279-36.266-30.579-66.348-30.512z" style="filter:url(#S);fill:#663d03"/><path d="M-534-114.4c-11.771.026-23.305 1.026-32.893 2.307a278 278 0 0 0-17.256 2.882c-1.483 2.523-2.209 5.134-1.709 7.725 2.102 10.893 15.685 6.283 26.32 5.889 12.102-.45 25.932-8.01 37.918-9.809 12.161-1.825 26.776-4.07 36.707 3.485 5.74 4.366 9.4 13.137 8.342 20.47-1.22 8.456-8.696 14.448-12.203 22.175-1.149 2.53-5.563 3.874-6.08 7.488 11.865-7.065 21.929-15.611 27.742-25.357a31 31 0 0 0-.541-6.743c-4.637-24.279-36.266-30.579-66.348-30.512z" style="filter:url(#T);fill:#a46213"/></g><ellipse cx="-544.22" cy="374.27" rx="2.79" ry=".728" style="fill-rule:evenodd;fill:url(#U)" transform="rotate(-4.476)"/><ellipse cx="-495.47" cy="378.1" rx="1.249" ry=".326" style="fill-rule:evenodd;fill:#110701" transform="rotate(-4.476)"/><ellipse cx="-540.95" cy="377.45" rx="1.937" ry=".505" style="fill-rule:evenodd;fill:url(#V)" transform="rotate(-4.476)"/><ellipse cx="-554.95" cy="370.36" rx="1.431" ry=".373" style="fill-rule:evenodd;fill:url(#W)" transform="rotate(-4.476)"/><ellipse cx="-492.42" cy="365.76" rx="1.083" ry=".283" style="fill-rule:evenodd;fill:url(#X)" transform="rotate(-4.476)"/><ellipse cx="-507.76" cy="371.34" rx="1.417" ry=".37" style="fill-rule:evenodd;fill:url(#Y)" transform="rotate(-4.476)"/><ellipse cx="-549.02" cy="376.33" rx="1.937" ry=".283" style="fill-rule:evenodd;fill:url(#Z)" transform="rotate(-4.476)"/><ellipse cx="-537.94" cy="381.17" rx="1.368" ry=".283" style="fill-rule:evenodd;fill:url(#aa)" transform="rotate(-4.476)"/><ellipse cx="-532.8" cy="380.11" rx="1.937" ry=".505" style="fill-rule:evenodd;fill:url(#ab)" transform="rotate(-4.476)"/><ellipse cx="-516.46" cy="373.63" rx="1.64" ry=".428" style="fill-rule:evenodd;fill:url(#ac)" transform="rotate(-4.476)"/><ellipse cx="-526.64" cy="375.45" rx="1.083" ry=".283" style="fill-rule:evenodd;fill:url(#ad)" transform="rotate(-4.476)"/><ellipse cx="-519.19" cy="364.64" rx="2.79" ry=".728" style="fill-rule:evenodd;fill:url(#ae)" transform="rotate(-4.476)"/><ellipse cx="-487.43" cy="362.28" rx="2.79" ry=".728" style="fill-rule:evenodd;fill:url(#af)" transform="rotate(-4.476)"/></g><g transform="matrix(-.89737 -.12153 .15465 -.92812 -988.37 808.12)"><g clip-path="url(#R)" transform="rotate(-4.476 5961.11 -727.423)"><path d="M-534-114.4c-11.771.026-23.305 1.026-32.893 2.307a276 276 0 0 0-20.586 3.552c-3.947 3.787-6.52 8.02-5.678 12.197 2.102 10.432 19.814 9.972 30.45 9.594 12.101-.43 21.802-11.624 33.788-13.348 12.161-1.748 26.776-3.896 36.707 3.338 5.74 4.182 9.4 12.581 8.342 19.604-1.22 8.098-8.91 15.878-12.418 23.278-1.27 2.68-5.524 2.498-6.035 6.233 15.055-7.76 28.21-17.765 35.21-29.502a31 31 0 0 0-.54-6.742c-4.637-24.279-36.266-30.579-66.348-30.512z" style="filter:url(#S);fill:#663d03"/><path d="M-534-114.4c-11.771.026-23.305 1.026-32.893 2.307a278 278 0 0 0-17.256 2.882c-1.483 2.523-2.209 5.134-1.709 7.725 2.102 10.893 15.685 6.283 26.32 5.889 12.102-.45 25.932-8.01 37.918-9.809 12.161-1.825 26.776-4.07 36.707 3.485 5.74 4.366 9.4 13.137 8.342 20.47-1.22 8.456-8.696 14.448-12.203 22.175-1.149 2.53-5.563 3.874-6.08 7.488 11.865-7.065 21.929-15.611 27.742-25.357a31 31 0 0 0-.541-6.743c-4.637-24.279-36.266-30.579-66.348-30.512z" style="filter:url(#T);fill:#a46213"/></g><ellipse cx="-544.22" cy="374.27" rx="2.79" ry=".728" style="fill:url(#U);fill-rule:evenodd" transform="rotate(-4.476)"/><ellipse cx="-495.47" cy="378.1" rx="1.249" ry=".326" style="fill-rule:evenodd;fill:#110701" transform="rotate(-4.476)"/><ellipse cx="-540.95" cy="377.45" rx="1.937" ry=".505" style="fill:url(#V);fill-rule:evenodd" transform="rotate(-4.476)"/><ellipse cx="-554.95" cy="370.36" rx="1.431" ry=".373" style="fill:url(#W);fill-rule:evenodd" transform="rotate(-4.476)"/><ellipse cx="-492.42" cy="365.76" rx="1.083" ry=".283" style="fill:url(#X);fill-rule:evenodd" transform="rotate(-4.476)"/><ellipse cx="-507.76" cy="371.34" rx="1.417" ry=".37" style="fill:url(#Y);fill-rule:evenodd" transform="rotate(-4.476)"/><ellipse cx="-549.02" cy="376.33" rx="1.937" ry=".283" style="fill:url(#Z);fill-rule:evenodd" transform="rotate(-4.476)"/><ellipse cx="-537.94" cy="381.17" rx="1.368" ry=".283" style="fill:url(#aa);fill-rule:evenodd" transform="rotate(-4.476)"/><ellipse cx="-532.8" cy="380.11" rx="1.937" ry=".505" style="fill:url(#ab);fill-rule:evenodd" transform="rotate(-4.476)"/><ellipse cx="-516.46" cy="373.63" rx="1.64" ry=".428" style="fill:url(#ac);fill-rule:evenodd" transform="rotate(-4.476)"/><ellipse cx="-526.64" cy="375.45" rx="1.083" ry=".283" style="fill:url(#ad);fill-rule:evenodd" transform="rotate(-4.476)"/><ellipse cx="-519.19" cy="364.64" rx="2.79" ry=".728" style="fill:url(#ae);fill-rule:evenodd" transform="rotate(-4.476)"/><ellipse cx="-487.43" cy="362.28" rx="2.79" ry=".728" style="fill:url(#af);fill-rule:evenodd" transform="rotate(-4.476)"/></g></g></svg>