<svg xmlns="http://www.w3.org/2000/svg" viewBox="0 0 1500 1052.4"><defs><linearGradient id="a" x1="517.48" x2="517.19" y1="431.85" y2="519.85" gradientTransform="translate(-163.68 73.755)scale(1.1594)" gradientUnits="userSpaceOnUse"><stop offset="0" stop-color="#fff"/><stop offset=".614" stop-color="#ccc"/><stop offset="1" stop-color="#b3b3b3"/></linearGradient><linearGradient id="b" x1="517.32" x2="515.94" y1="513.98" y2="550.35" gradientTransform="translate(-163.68 73.755)scale(1.1594)" gradientUnits="userSpaceOnUse"><stop offset="0" stop-color="#4d4d4d"/><stop offset="1" stop-color="#4d4d4d" stop-opacity="0"/></linearGradient><linearGradient id="c" x1="337.73" x2="355.33" y1="223.38" y2="223.38" gradientTransform="translate(-163.68 73.755)scale(1.1594)" gradientUnits="userSpaceOnUse"><stop offset="0" stop-color="gray"/><stop offset=".58" stop-color="#fff"/><stop offset="1" stop-color="#e6e6e6"/></linearGradient><linearGradient id="d" x1="309.09" x2="329.52" y1="444.03" y2="450.6" gradientTransform="translate(-163.68 73.755)scale(1.1594)" gradientUnits="userSpaceOnUse"><stop offset="0" stop-color="#b3b3b3"/><stop offset=".5" stop-color="#fff"/><stop offset="1" stop-color="#b3b3b3"/></linearGradient><linearGradient id="e" x1="696.82" x2="718.7" y1="454.98" y2="452.96" gradientTransform="translate(-163.68 73.755)scale(1.1594)" gradientUnits="userSpaceOnUse"><stop offset="0" stop-color="#999"/><stop offset=".546" stop-color="#fff"/><stop offset="1" stop-color="#b3b3b3"/></linearGradient><linearGradient id="g" x1="543.84" x2="564.96" y1="460.91" y2="455.35" gradientTransform="translate(-163.68 73.755)scale(1.1594)" gradientUnits="userSpaceOnUse"><stop offset="0" stop-color="#999"/><stop offset=".5" stop-color="#fff"/><stop offset="1" stop-color="#ccc"/></linearGradient><linearGradient id="i" x1="616.96" x2="662.47" y1="352.93" y2="352.93" gradientTransform="translate(-163.68 73.755)scale(1.1594)" gradientUnits="userSpaceOnUse"><stop offset="0" stop-color="#a0c4e5"/></linearGradient><linearGradient id="j" x1="682.7" x2="728.22" y1="352.93" y2="352.93" gradientTransform="translate(-163.68 73.755)scale(1.1594)" gradientUnits="userSpaceOnUse"><stop offset="0" stop-color="#a0c4e5"/></linearGradient><linearGradient id="k" x1="686.24" x2="614.51" y1="230.89" y2="225.89" gradientTransform="translate(-163.68 73.755)scale(1.1594)" gradientUnits="userSpaceOnUse"><stop offset="0" stop-color="#ff0"/><stop offset=".436" stop-color="#fc0"/><stop offset="1" stop-color="#ff0"/></linearGradient><linearGradient id="l" x1="1090" x2="1142.5" y1="959.69" y2="959.69" gradientUnits="userSpaceOnUse"><stop offset="0" stop-color="#f55"/><stop offset=".495" stop-color="red"/><stop offset="1" stop-color="#a00"/></linearGradient><linearGradient id="m" x1="1203.9" x2="1255.7" y1="541.73" y2="541.73" gradientTransform="translate(-163.68 73.755)scale(1.1594)" gradientUnits="userSpaceOnUse"><stop offset="0" stop-color="#f55"/><stop offset=".497" stop-color="red"/><stop offset="1" stop-color="#a00"/></linearGradient><radialGradient id="f" cx="662.92" cy="364.45" r="83.515" gradientTransform="matrix(5.3338 -.04958 .01976 2.1258 -2938.2 -245.61)" gradientUnits="userSpaceOnUse"><stop offset="0" stop-color="#fff"/><stop offset="1" stop-color="#ececec"/></radialGradient><radialGradient id="h" cx="-719.46" cy="742.23" r="7.5" gradientTransform="matrix(1 0 0 .89286 0 79.525)" gradientUnits="userSpaceOnUse"><stop offset="0" stop-color="#ff2a2a"/><stop offset=".5" stop-color="red"/><stop offset="1" stop-color="#a00"/></radialGradient></defs><path fill="#acf" d="M261.703 385.926h980.149V896.88H261.703z"/><path fill="#ccc" stroke="#fff" stroke-width="3.8473636000000004" d="M407.908 483.094c66.807.642 76.539-3.9 67.711-9.754 55.466 12.916 60.175 8.395 80.817 9.348"/><path fill="#ccc" stroke="#fff" stroke-width="2.3307634000000004" d="M302.848 413.227c40.48.388 46.376-2.363 41.027-5.91 33.608 7.825 36.46 5.086 48.967 5.664"/><path fill="none" stroke="#000" stroke-width="1.2820858000000002" d="M713.628 1030.597z"/><path fill="#ccc" stroke="#fff" stroke-width="1.2820858000000002" d="M668.396 481.225c40.469.393 46.364-2.393 41.016-5.984 33.599 7.923 36.452 5.15 48.955 5.735"/><path fill="#ccc" stroke="#fff" stroke-width="3.8473636000000004" d="M965.742 460.97c66.808.642 76.54-3.9 67.712-9.754 55.466 12.916 60.175 8.395 80.816 9.348"/><g fill="#fff"><path d="M737.726 574.667c-112.278.485-224.045 10.76-335.852 18.38-8.14.897-17.255-1.762-24.215 3.542-11.323 6.84-17.831 18.473-20.457 30.148 5.918 8.586 17.904 12.24 27.831 16.26 46.07 15.56 95.325 21.217 143.948 26.635 106.739 10.188 214.787 11.892 321.806 4.658 49.441-4.114 99.621-8.655 146.637-23.544 7.613-2.73 15.936-5.484 22.158-9.933-5.753-21.81-29.924-33.862-51.357-41.607-49.337-16.827-102.731-20.616-155.157-23.337a1611 1611 0 0 0-75.344-1.204z" opacity=".125"/><path d="M737.726 570.334c-112.35.445-224.215 10.794-336.17 18.38-8.349.831-17.535-1.588-24.924 3.321-12.678 6.915-20.647 19.312-23.648 31.983-2.866 6.913 6.714 11.64 11.913 14.994 29.815 15.058 64.38 20.68 97.568 26.478 95.876 14.67 193.402 18.303 290.619 17.281 72.047-1.547 144.64-4.932 214.957-19.527 19.763-4.743 40.6-9.51 56.868-20.404-3.663-22.46-26.49-36.632-48.217-45.174-48.394-18.252-101.587-22.54-153.546-25.656-28.39-1.407-56.924-1.858-85.408-1.677z" opacity=".125"/><path d="M737.692 565.991c-112.444.446-224.408 10.764-336.453 18.38-8.955.504-18.865-1.233-26.661 3.701-14.12 7.473-22.96 20.962-26.378 34.956-3.484 9.97 8.762 16.806 17.018 21.163 33.091 15.564 70.683 21.328 107.076 27.226 98.988 13.987 199.686 17.367 299.898 15.275 68.136-2.082 136.857-5.891 203.113-20.637 18.999-4.797 38.852-9.95 54.74-21.073-1.842-23.457-24.388-40.066-46.604-49.305-45.88-18.82-97.029-23.66-146.886-27.278-32.884-2.012-65.863-2.602-98.861-2.409z" opacity=".125"/><path d="M737.646 561.659c-112.537.448-224.6 10.734-336.736 18.38-9.556.49-19.516-1.182-28.01 3.922-15.807 7.877-25.704 22.874-29.532 38.31-3.946 11.823 9.229 20.577 19.394 25.687 34.539 16.198 73.572 22.128 111.63 28.156 101.046 14.015 203.577 17.22 305.695 14.705 67.122-2.316 135.088-6.341 200.243-21.476 19.157-5.079 39.348-10.556 54.776-22.587-.826-23.373-20.931-41.852-43.077-51.976-42.038-19.51-89.962-25.086-136.687-29.385-39.138-3.149-78.393-3.936-117.695-3.736z" opacity=".125"/><path d="M737.646 557.296c-113.392.485-226.29 10.962-339.289 18.568-9.891-.624-20.333-.195-28.9 4.841-15.786 8.434-26.488 23.443-30.383 39.29-5.18 11.602 5.047 22.78 15.53 28.566 29.336 16.273 64.147 22.269 97.59 28.489 90.25 14.595 182.272 18.817 273.896 18.972 77.768-.573 156.11-3.55 232.463-17.498 27.337-5.751 56.214-11.618 78.532-27.495 5.496-3.486 1.648-10.52.99-15.563-7.022-25.54-33.536-41.676-59.3-51.152-50.374-18.17-105.466-22.523-159.367-25.5-27.16-1.326-54.502-1.68-81.765-1.518z" opacity=".125"/><path d="M737.612 552.963c-113.497.49-226.495 10.925-339.573 18.578-10.134-.64-20.878-.103-29.785 4.8-17.529 8.795-29.47 25.028-33.787 42.295-5.876 13.206 4.796 26.494 16.992 33.257 28.496 16.187 62.399 22.309 95.038 28.601 91.282 15.276 184.563 19.585 277.356 19.873 78.877-.509 158.333-3.441 235.73-17.603 28.063-5.87 57.618-12.002 80.59-28.38 3.378-2.254 6.14-4.782 4.573-8.826-1.211-25.028-21.623-45.597-45.379-57.058-40.48-19.853-87.118-26.122-132.42-30.803-42.961-3.925-86.168-4.989-129.347-4.734z" opacity=".125"/><path d="M737.578 548.63c-113.974.486-227.437 10.973-340.99 18.648-20.328-2.705-39.898 7.57-51.806 21.718-9.47 10.617-14.832 23.846-16.77 37.14-.15 17.57 17.72 29.096 33.664 36.049 38.725 16.288 81.547 22.588 123.526 28.603 103.897 13.18 209.285 16.072 314.092 12.44 64.176-3.025 129.006-7.282 191.087-22.943 21.586-5.852 43.682-13.32 59.681-28.146.363-20.349-9.521-40.372-26.768-53.684-30.007-23.329-69.852-32.443-107.992-39.037-58.557-9.356-118.33-10.986-177.734-10.787z" opacity=".125"/><path d="M737.578 544.298c-112.951.463-225.463 10.766-337.905 18.443-11.76-.399-24.14-.107-34.673 5.314-20.984 9.82-35.107 28.922-40.275 49.224-6.18 16.466 5.835 33.174 21.175 41.734 29.713 17.022 64.97 23.566 99.048 30.045C535.69 704.27 628.253 708.61 720.5 709.051c81.481-.411 163.507-3.367 243.457-18.221 29.491-6.345 60.657-13.098 84.202-31.16 5.941-3.28 8.292-7.834 6.35-13.917-.999-26.36-20.819-49.208-45.529-62.257-40.343-21.542-87.743-28.557-133.691-33.73-45.69-4.543-91.732-5.742-137.708-5.473z" opacity=".125"/></g><path fill="none" stroke="#4d4d4d" stroke-width="18.829" d="M795.71 1225c0 15.385-7.035 27.857-15.714 27.857s-15.714-12.472-15.714-27.857 7.035-27.857 15.714-27.857 15.714 12.472 15.714 27.857z" transform="matrix(-.2608 -.18648 .21039 -.29425 980.499 1011.902)"/><path fill="url(#a)" stroke="#fff" stroke-width="1.159" d="M154.76 664.47c213.86 32.216 411.53 33.209 589.13-1.944l36.942-116.66c-209.58 28.855-421.04 35.197-635.79 1.944-7 42.983-8.974 83.955 9.722 116.66z" transform="translate(195.13 -100.05)scale(1.1062)"/><path fill="#4a0" stroke="#000" stroke-width="1.2820858000000002" d="m970.698 372.585 15.055-25.81H757.765l12.905 23.658z"/><path fill="url(#b)" stroke="#000" stroke-width="1.159" d="M145.04 650.86c200.49 29.93 402.91 32.827 608.57-9.722l-7.777 25.276c-204.37 30.813-401.6 28.8-593.02 0z" transform="translate(195.13 -100.05)scale(1.1062)"/><path fill="none" stroke="#000" stroke-width="2.2444798" d="m458.472 118.978-80.056 386.495"/><path fill="none" stroke="#806600" stroke-width="5.1294493999999995" d="M463.04 365.35 634.89 94.641"/><path fill="none" stroke="#000" stroke-width="1.9236818000000002" d="M643.185 143.768 464.556 30.769"/><path fill="url(#c)" stroke="#000" stroke-width="1.159" d="m228.44 556.83 8.249-448.2 10.999 2.75-2.75 445.45z" transform="translate(195.13 -100.05)scale(1.1062)"/><path stroke="#000" stroke-width="1.2820858000000002" d="M355.573 501.856c221.782 28.003 374.383 41.805 707.614 1.075l-4.301 8.603c-226.074 34.085-494.804 29.706-706.541-2.15z"/><path fill="none" stroke="#000" stroke-width="1.2820858000000002" d="M348.914 574.555c236.915 42.547 461.905 28.77 690.28-2.799"/><path fill="none" stroke="#000" stroke-width="1.2820858000000002" d="M349.556 538.095c240.576 42.546 469.128 29.742 701.032-1.827"/><path stroke="#000" stroke-width="2.5652778" d="M461.813 74.884 364.179 506.79"/><path fill="none" stroke="#806600" stroke-width="5.1294493999999995" d="m459.999 383.603 208.352-270.71"/><path fill="none" stroke="#000" stroke-width="1.9236818000000002" d="M607.51 135.703 463.04 33.811"/><path fill="url(#d)" d="m192.91 624.16 8.803-60.645c7.058-13.521 13.443-20.317 16.628 4.89l-9.781 60.157c-7.824 13.464-12.978 20.792-15.65-4.402z" transform="translate(195.13 -100.05)scale(1.1062)"/><path fill="#a00" d="m418.107 522.774 18.394 3.787c-.604-12.013-2.829-17.54-6.492-17.312-5.253-2.7-8.656 6.562-11.903 13.525z"/><path fill="maroon" d="m425.728 595.363-18.234-4.494c.14 12.028 2.15 17.635 5.82 17.55 5.144 2.9 8.901-6.223 12.414-13.057z"/><path fill="url(#e)" d="m654.17 631.63-9.99-60.461c2.629-15.024 6.654-23.435 17.33-.378l8.909 60.29c-3.376 15.203-6.067 23.749-16.248.549z" transform="translate(195.13 -100.05)scale(1.1062)"/><path fill="url(#f)" stroke="#fff" stroke-width="1.159" d="m699.17 553.46 1.944-126.19-178.88-1.944-13.61 141.93c63.735-3.86 127.56-5.425 190.54-13.798z" transform="translate(195.13 -100.05)scale(1.1062)"/><path fill="#a0892c" stroke="#ffd42a" stroke-width="3.8473636000000004" d="m905.764 518.57 6.477-.324 1.944 2.591"/><path fill="#a00" d="m907.401 531.303 18.677-1.966c-4.216-11.265-8.01-15.857-11.433-14.531-5.824-.981-6.26 8.876-7.244 16.497z"/><path fill="maroon" d="m936.66 598.183-18.739 1.244c3.778 11.42 7.393 16.155 10.865 14.961 5.78 1.206 6.597-8.628 7.874-16.204z"/><path fill="url(#g)" d="m476.81 638.5-9.99-60.461c2.629-15.024 6.654-23.435 17.33-.378l8.909 60.29c-3.376 15.203-6.067 23.749-16.248.549z" transform="translate(195.13 -100.05)scale(1.1062)"/><path fill="#a00" d="m711.217 538.913 18.677-1.965c-4.216-11.266-8.011-15.858-11.434-14.531-5.824-.981-6.26 8.876-7.244 16.496z"/><path fill="maroon" d="m740.476 605.783-18.74 1.244c3.779 11.419 7.394 16.155 10.865 14.961 5.781 1.205 6.597-8.628 7.874-16.205z"/><path fill="url(#h)" d="M-711.96 742.23c0 3.698-3.358 6.696-7.5 6.696s-7.5-2.998-7.5-6.696 3.358-6.696 7.5-6.696 7.5 2.998 7.5 6.696" transform="matrix(4.31462 .71418 -.98347 5.9414 4366.61 -3346.526)"/><path fill="url(#h)" d="M-711.96 742.23c0 3.698-3.358 6.696-7.5 6.696s-7.5-2.998-7.5-6.696 3.358-6.696 7.5-6.696 7.5 2.998 7.5 6.696" transform="matrix(4.3113 -.73389 1.0106 5.93686 2947.687 -4382.925)"/><path fill="url(#h)" d="M-711.96 742.23c0 3.698-3.358 6.696-7.5 6.696s-7.5-2.998-7.5-6.696 3.358-6.696 7.5-6.696 7.5 2.998 7.5 6.696" transform="matrix(4.36872 .199 -.27404 6.01596 4170.48 -3764.006)"/><path fill="#b3b3b3" stroke="#0a0" stroke-width="2.5652778" d="M915.576 472.254c-41.635-3.426-44.707-68.87 2.411-69.997 47.497 1.048 48.977 69.538-2.411 69.997z"/><path fill="#ccc" stroke="#0a0" stroke-width="1.2820858000000002" d="M831.261 472.254c-41.635-3.426-44.707-68.87 2.412-69.997 47.497 1.048 48.977 69.538-2.412 69.997z"/><text xml:space="preserve" x="642.79" y="683.224" font-family="Arial" font-size="21.776" font-weight="bold" style="word-spacing:0;letter-spacing:0;text-anchor:middle;text-align:center" transform="rotate(-6.318 -808.892 -1817.91)scale(1.1062)">
        <tspan x="642.79" y="683.224">PS2</tspan>
      </text><path fill="#d4aa00" stroke="#000" stroke-width=".6415959999999999" d="m924.149 244.034-.648 97.37 3.887-.385v-97.424z"/><path fill="#00f" stroke="#ff0" stroke-width="1.2820858000000002" d="M758.352 345.948c73.201-11.753 148.728-7.447 226.262.458"/><path fill="#b3b3b3" stroke="#0a0" stroke-width="2.5652778" d="M831.261 472.254c-41.635-3.426-44.707-68.87 2.412-69.997 47.497 1.048 48.977 69.538-2.412 69.997z"/><path fill="url(#i)" stroke="green" stroke-width="1.739" d="M575.69 510.1c-30.535-2.512-32.788-50.509 1.769-51.336 34.834.769 35.92 50.999-1.769 51.336z" transform="translate(195.13 -100.05)scale(1.1062)"/><path fill="red" stroke="red" stroke-width="1.2820858000000002" d="M770.719 383.968c-4.348 51.925-8.475 95.405-12.825 131.45z"/><path fill="url(#j)" stroke="green" stroke-width="1.739" d="M651.62 510.03c-30.535-2.512-32.788-50.509 1.769-51.336 34.834.769 35.92 50.999-1.769 51.336z" transform="translate(195.13 -100.05)scale(1.1062)"/><path fill="#ccc" stroke="#fff" stroke-width="1.2820858000000002" d="M891.14 430.528c30.992.214 28.132-1.3 24.038-3.253 25.731 4.307 20.54 2.8 30.116 3.117"/><path fill="url(#k)" stroke="#000" stroke-width="1.159" d="M659.96 363.02c-38.179 8.718-52.331.712-63.895-9.096-21.176-25.781-37.288-6.591-55.503-6.077 16.907-8.268 26.831-26.097 57.755-15.175 20.674 14.023 41.003 3.663 61.193-16.553z" transform="translate(195.13 -100.05)scale(1.1062)"/><path fill="#ccc" stroke="#fff" stroke-width="3.8473636000000004" d="M359.235 727.365c131.306 1.261 150.432-7.665 133.076-19.171 109.013 25.385 118.263 16.501 158.839 18.373"/><path fill="#ccc" stroke="#fff" stroke-width="1.2820858000000002" d="M672.81 402.42c30.992.213 35.506-1.301 31.41-3.254 25.732 4.307 27.916 2.8 37.492 3.118"/><path fill="none" stroke="#4d4d4d" stroke-width="18.829" d="M795.71 1225c0 15.385-7.035 27.857-15.714 27.857s-15.714-12.472-15.714-27.857 7.035-27.857 15.714-27.857 15.714 12.472 15.714 27.857z" transform="matrix(.24835 -.20278 .22877 .28019 585.917 330.693)"/><path fill="none" stroke="green" stroke-width="1.2820858000000002" d="M831.494 470.65c-39.439-3.253-42.349-65.397 2.284-66.467 44.991.995 46.393 66.03-2.284 66.467z"/><path fill="none" stroke="green" stroke-width="1.2820858000000002" d="M915.687 470.65c-39.439-3.253-42.35-65.397 2.284-66.467 44.991.995 46.393 66.03-2.284 66.467z"/><path fill="#ccc" stroke="#fff" stroke-width="1.2820858000000002" d="M961.76 404.543c30.992.214 35.507-1.3 31.411-3.253 25.732 4.307 27.915 2.8 37.492 3.118M808.695 446.877c34.414 2.718 20.941-.284 33.388-1.61"/><path fill="none" stroke="#4d4d4d" stroke-width="18.829" d="M795.71 1225c0 15.385-7.035 27.857-15.714 27.857s-15.714-12.472-15.714-27.857 7.035-27.857 15.714-27.857 15.714 12.472 15.714 27.857z" transform="matrix(.13531 -.29067 .32793 .15266 540.464 543.238)"/><path fill="none" stroke="#4d4d4d" stroke-width="18.829" d="M795.71 1225c0 15.385-7.035 27.857-15.714 27.857s-15.714-12.472-15.714-27.857 7.035-27.857 15.714-27.857 15.714 12.472 15.714 27.857z" transform="matrix(.24835 -.20278 .22877 .28019 596.172 343.514)"/><path fill="none" stroke="#4d4d4d" stroke-width="18.829" d="M795.71 1225c0 15.385-7.035 27.857-15.714 27.857s-15.714-12.472-15.714-27.857 7.035-27.857 15.714-27.857 15.714 12.472 15.714 27.857z" transform="matrix(.24835 -.20278 .22877 .28019 606.437 356.346)"/><path fill="none" stroke="#4d4d4d" stroke-width="18.829" d="M795.71 1225c0 15.385-7.035 27.857-15.714 27.857s-15.714-12.472-15.714-27.857 7.035-27.857 15.714-27.857 15.714 12.472 15.714 27.857z" transform="matrix(.24835 -.20278 .22877 .28019 616.692 369.167)"/><path fill="none" stroke="#4d4d4d" stroke-width="18.829" d="M795.71 1225c0 15.385-7.035 27.857-15.714 27.857s-15.714-12.472-15.714-27.857 7.035-27.857 15.714-27.857 15.714 12.472 15.714 27.857z" transform="matrix(.24835 -.20278 .22877 .28019 626.957 381.988)"/><path fill="none" stroke="#4d4d4d" stroke-width="18.829" d="M795.71 1225c0 15.385-7.035 27.857-15.714 27.857s-15.714-12.472-15.714-27.857 7.035-27.857 15.714-27.857 15.714 12.472 15.714 27.857z" transform="matrix(.24835 -.20278 .22877 .28019 637.212 394.82)"/><path fill="none" stroke="#4d4d4d" stroke-width="18.829" d="M795.71 1225c0 15.385-7.035 27.857-15.714 27.857s-15.714-12.472-15.714-27.857 7.035-27.857 15.714-27.857 15.714 12.472 15.714 27.857z" transform="matrix(.24835 -.20278 .22877 .28019 647.477 407.64)"/><path fill="none" stroke="#4d4d4d" stroke-width="18.829" d="M795.71 1225c0 15.385-7.035 27.857-15.714 27.857s-15.714-12.472-15.714-27.857 7.035-27.857 15.714-27.857 15.714 12.472 15.714 27.857z" transform="matrix(.24835 -.20278 .22877 .28019 657.732 420.461)"/><path fill="none" stroke="#4d4d4d" stroke-width="18.829" d="M795.71 1225c0 15.385-7.035 27.857-15.714 27.857s-15.714-12.472-15.714-27.857 7.035-27.857 15.714-27.857 15.714 12.472 15.714 27.857z" transform="matrix(.24835 -.20278 .22877 .28019 670.564 433.293)"/><g fill="#fff" stroke="#fff" stroke-width="1.543"><path d="M911.88 1530.2c-3.013.198-8.322.472-9.687 2.781 6.75 3.89 16.186 3.368 23.062-.125-3.877-2.404-8.883-2.733-13.375-2.656z" opacity=".125" transform="matrix(1.05078 .01072 0 .65716 223.18 -354.465)"/><path d="M911.72 1525.9c-4.894.45-12.388.71-14.188 6.313.606 6.526 9.206 7.24 14.281 7.593 6.166-.133 14.694-.269 18.094-6.156.211-5.593-7.578-6.729-11.781-7.469-2.149-.313-4.234-.375-6.406-.281z" opacity=".125" transform="matrix(1.05078 .01072 0 .65716 223.18 -354.465)"/><path d="M911.56 1521.6c-7.124.222-18.121 2.452-18.344 11.344 1.14 9.35 12.595 11.262 20.312 11.219 7.526-.343 18.633-1.677 20.719-10.344.402-8.77-10.386-11.553-17.344-12.063-1.779-.173-3.553-.254-5.344-.156z" opacity=".125" transform="matrix(1.05078 .01072 0 .65716 223.18 -354.465)"/><path d="M911.41 1517.3c-9.38.021-22.459 4.252-22.469 15.531.577 11.606 13.855 15.739 23.625 15.594 9.814-.01 23.41-2.55 25.938-13.781 1.32-14.193-16.443-17.806-27.094-17.344z" opacity=".125" transform="matrix(1.05078 .01072 0 .65716 223.18 -354.465)"/><path d="M911.25 1513.1c-11.479-.078-26.274 5.883-26.594 19.188-.318 12.895 13.219 20.01 24.562 20.344 12.251.82 28.442-1.998 33-15.156 3.67-11.594-7.34-21.6-18.031-23.188a50 50 0 0 0-12.938-1.187z" opacity=".125" transform="matrix(1.05078 .01072 0 .65716 223.18 -354.465)"/><path d="M911.09 1508.8c-13.2-.038-29.224 6.961-30.625 21.719-1.687 14.46 12.164 24.972 25.375 26.031 14.738 1.908 33.794-1.422 40.188-16.687 4.844-12.792-5.401-26.157-17.875-28.969-5.51-1.665-11.312-2.292-17.062-2.094z" opacity=".125" transform="matrix(1.05078 .01072 0 .65716 223.18 -354.465)"/></g><path fill="none" stroke="#4d4d4d" stroke-width="18.829" d="M795.71 1225c0 15.385-7.035 27.857-15.714 27.857s-15.714-12.472-15.714-27.857 7.035-27.857 15.714-27.857 15.714 12.472 15.714 27.857z" transform="matrix(.24835 -.20278 .22877 .28019 683.385 446.114)"/><path fill="none" stroke="#4d4d4d" stroke-width="18.829" d="M795.71 1225c0 15.385-7.035 27.857-15.714 27.857s-15.714-12.472-15.714-27.857 7.035-27.857 15.714-27.857 15.714 12.472 15.714 27.857z" transform="matrix(.24835 -.20278 .22877 .28019 696.205 458.946)"/><path fill="none" stroke="#4d4d4d" stroke-width="5.1294493999999995" d="M1174.858 648.88c-2.268 1.511-4.657 2.914 4.328 14.429l12.505-.962c-9.536-9.874-11.094-13.418-16.832-13.466z"/><path stroke="#000" stroke-width="1.2820858000000002" d="M820.078 520.097c-1.964 3.623 13.826 6.388 13.273 1.048-3.793-9.407-8.086-11.63-13.273-1.048zM576.902 517.707c-.278 4.112 15.23.056 12.505-4.57-7.362-6.975-12.192-7.211-12.505 4.57zM533.716 511.203c-2.72 3.096 12.06 9.302 12.708 3.973-1.606-10.014-5.298-13.137-12.708-3.973z"/><path fill="#ccc" stroke="#fff" stroke-width="3.8473636000000004" d="M613.893 812.83c66.808.642 76.54-3.9 67.712-9.754 55.466 12.916 60.175 8.395 80.816 9.348"/><g fill="#fff"><path d="M1038.175 841.259c-2.631-.143-10.462-.193-6.734 3.446 3.728 3.903 14.33 4.09 16.513-.912-2.556-1.926-6.494-2.303-9.78-2.534" opacity=".2"/><path d="M1025.478 843.216c-2.845-9.049 27.638-7.694 27.574.54-.214 10.02-25.436 11.395-27.574-.54" opacity=".2"/><path d="M1035.353 832.772c-7.962-.48-18.068 5.014-14.468 12.601 4.228 14.162 33.853 14.295 37.073-.371 1.213-9.848-13.77-12.615-22.605-12.23z" opacity=".2"/><path d="M1035.225 828.556c-10.868-.55-23.242 7.294-19.398 17.264 4.477 18.259 40.638 19.499 46.731 1.622 3.737-10.409-9.29-18.327-20.44-18.65-2.283-.304-4.589-.317-6.893-.236z" opacity=".2"/></g><g fill="#fff"><path d="M1112.87 752.858c-10.54.532-23.65.433-32.224 5.17 13.059 9.219 30.727 8.362 46.13 8.353 13.136-.752 26.58-2.097 38.798-7.15-16.813-5.457-34.938-6.357-52.705-6.373z" opacity=".2"/><path d="M1112.741 747.843c-12.881.84-27.982.025-38.676 8.056 2.544 10.48 15.965 12.189 24.913 14.191 23.286 2.783 48.103 2.112 70.034-6.937 1.646-1.09 6.156-2.574 2.685-4.85.225-4.284-7.508-3.953-10.3-5.61-15.888-3.9-32.373-5.034-48.656-4.85z" opacity=".2"/><path d="M1069.007 754.628c8.682-19.832 111.204-11.826 107.92 2.267 15.336 19.488-108.59 33.275-107.92-2.267" opacity=".2"/><path d="M1112.613 737.75c-15.483.971-33.356.383-45.73 11.101-7.275 8.21.788 20.241 9.058 24.368 21.668 10.661 47.097 9.305 70.483 6.452 12.3-2.555 27.402-3.815 35.526-14.587 3.721-7.58-1.755-17.264-9.74-19.438-18.915-6.877-39.641-7.801-59.597-7.896z" opacity=".2"/><path d="M1112.485 732.735c-16.824.915-36.455.634-49.538 12.905-9.778 10.916 0 27.261 11.503 32.544 23.761 11.06 51.334 9.537 76.67 5.811 13.067-2.85 29.926-5.307 36.312-18.796 3.246-10.813-4.517-22.411-15.311-25.01-19.043-6.272-39.64-7.517-59.638-7.454z" opacity=".2"/></g><g fill="#fff"><path d="M969.129 789.132c-10.539.532-23.65.433-32.224 5.17 13.059 9.22 30.727 8.363 46.13 8.353 13.136-.752 26.58-2.096 38.798-7.15-16.813-5.457-34.937-6.357-52.704-6.373z" opacity=".2"/><path d="M969 784.118c-12.881.84-27.982.024-38.675 8.055 2.544 10.481 15.964 12.19 24.913 14.192 23.285 2.783 48.102 2.111 70.033-6.937 1.646-1.091 6.156-2.575 2.686-4.85.224-4.285-7.509-3.953-10.3-5.61-15.889-3.9-32.374-5.035-48.657-4.85z" opacity=".2"/><path d="M925.266 790.902c8.682-19.832 111.204-11.825 107.92 2.267 15.336 19.488-108.59 33.276-107.92-2.267" opacity=".2"/><path d="M968.872 774.024c-15.482.972-33.356.383-45.73 11.102-7.274 8.21.788 20.24 9.058 24.368 21.669 10.66 47.097 9.304 70.483 6.452 12.3-2.555 27.403-3.815 35.526-14.587 3.721-7.58-1.755-17.265-9.74-19.438-18.915-6.878-39.64-7.802-59.597-7.896z" opacity=".2"/><path d="M968.744 769.01c-16.824.915-36.455.633-49.538 12.904-9.778 10.916 0 27.262 11.503 32.544 23.761 11.06 51.335 9.537 76.67 5.812 13.067-2.851 29.926-5.307 36.312-18.797 3.246-10.812-4.517-22.41-15.311-25.01-19.043-6.272-39.64-7.517-59.638-7.454z" opacity=".2"/></g><path fill="url(#l)" d="M1090.8 973c5.53-50.832 57.767-36.78 51.25 3.5-22.309 8.118-46.771 3.043-51.25-3.5" transform="matrix(1.2825 0 0 1.2825 -456.853 -452.41)"/><path stroke="#000" stroke-width="1.28253" d="M971.242 754.552c-1.964 3.623 13.827 6.388 13.274 1.048-3.793-9.407-8.086-11.631-13.274-1.048z"/><path fill="url(#m)" d="M1292.1 716.32c-6.41-58.932-66.972-42.641-59.417 4.058 25.864 9.411 54.224 3.527 59.417-4.058" transform="translate(-275.79 -36.838)scale(1.1062)"/><path stroke="#000" stroke-width="1.2820858000000002" d="M1121.672 715.521c1.964 3.624-13.826 6.388-13.273 1.048 3.792-9.406 8.086-11.63 13.273-1.048z"/><path fill="#d4aa00" d="M986.384 764.006c5.192-3.296-3.135-17.029-8.463-13.565-5.154 3.814 3.605 16.84 8.463 13.565"/><path fill="#d4aa00" d="M993.353 775.08c5.192-3.297-3.135-17.03-8.463-13.565-5.154 3.814 3.605 16.84 8.463 13.564"/><path fill="#d4aa00" d="M1000.211 786.152c5.192-3.296-3.135-17.029-8.463-13.564-5.154 3.814 3.605 16.84 8.463 13.564"/><path fill="#d4aa00" d="M1007.18 797.225c5.192-3.296-3.135-17.029-8.463-13.564-5.154 3.814 3.605 16.84 8.463 13.564"/><path fill="#d4aa00" d="M1014.039 808.298c5.192-3.296-3.135-17.028-8.463-13.564-5.154 3.814 3.605 16.84 8.463 13.564"/><path fill="#d4aa00" d="M1021.782 818.564c5.192-3.296-3.135-17.029-8.463-13.564-5.154 3.814 3.605 16.84 8.463 13.564"/><path fill="#d4aa00" d="M1029.415 828.818c5.192-3.296-3.135-17.028-8.463-13.564-5.154 3.814 3.605 16.84 8.463 13.564"/><path fill="#d4aa00" d="M1036.937 839.427c4.963-3.631-4.25-16.785-9.339-12.978-4.89 4.145 4.707 16.565 9.34 12.978"/><path fill="#d4aa00" d="M1044.46 842.856c-1.379-4.848-6.907-10.394-10.443-7.748-2.306 1.954-1.392 5.748.705 8.836 4.848 5.216 10.697 1.311 9.737-1.088"/><g fill="#fff"><path d="M1095.934 818.595c-2.63-.134-10.461-.158-6.72 3.469 3.74 3.89 14.341 4.042 16.507-.967-2.562-1.917-6.5-2.281-9.787-2.502" opacity=".2"/><path d="M1083.245 820.594c-2.875-9.039 27.61-7.784 27.574.45-.18 10.02-25.397 11.479-27.574-.45" opacity=".2"/><path d="M1093.085 810.118c-7.962-.454-18.05 5.074-14.425 12.65 4.274 14.147 33.898 14.182 37.068-.495 1.18-9.852-13.81-12.569-22.643-12.155z" opacity=".2"/><path d="M1092.943 805.902c-10.868-.514-23.216 7.371-19.34 17.329 4.538 18.243 40.7 19.364 46.733 1.467 3.703-10.421-9.35-18.296-20.5-18.582-2.283-.297-4.59-.302-6.893-.213z" opacity=".2"/></g><path fill="#d4aa00" d="M1111.384 725.356c6.028 1.219 9.535-14.453 3.293-15.647-6.359-.819-9.065 14.643-3.293 15.647"/><path fill="#d4aa00" d="M1108.73 738.121c6.027 1.22 9.534-14.452 3.292-15.646-6.359-.82-9.065 14.643-3.292 15.646"/><path fill="#d4aa00" d="M1106.075 750.898c6.027 1.219 9.534-14.453 3.292-15.646-6.359-.82-9.065 14.642-3.292 15.646"/><path fill="#d4aa00" d="M1103.31 763.663c6.027 1.22 9.534-14.452 3.292-15.646-6.36-.82-9.065 14.643-3.293 15.646"/><path fill="#d4aa00" d="M1100.654 776.44c6.028 1.219 9.535-14.453 3.293-15.646-6.359-.82-9.065 14.643-3.293 15.646"/><path fill="#d4aa00" d="M1099.106 789.172c6.027 1.22 9.534-14.452 3.292-15.646-6.359-.82-9.065 14.643-3.292 15.646"/><path fill="#d4aa00" d="M1097.557 801.905c6.028 1.219 9.535-14.453 3.293-15.647-6.36-.819-9.065 14.643-3.293 15.647"/><path fill="#d4aa00" d="M1095.566 814.736c6.095.82 8.561-15.05 2.254-15.828-6.4-.399-8.08 15.208-2.254 15.828"/><path fill="#d4aa00" d="M1098.663 822.425c2.365-4.452 2.219-12.281-2.164-12.822-3.017-.188-4.986 3.181-5.613 6.86-.116 7.121 6.807 8.356 7.777 5.961z"/><path fill="#ccc" stroke="#fff" stroke-width="2.3307634000000004" d="M519.346 424.289c40.48.388 46.375-2.363 41.027-5.91 33.607 7.825 36.46 5.086 48.967 5.664"/></svg>