<svg xmlns="http://www.w3.org/2000/svg" version="1.0" viewBox="0 0 411.98 102.58"><path d="M-422.28 302.24c-20.9-.71-41.15-1.59-45-1.97-18.24-1.8-42.08-7.26-50.52-11.57-8.3-4.23-13.98-13.26-13.98-22.23 0-10.46 4.18-12.97 22.86-13.72l13.35-.53 2.14-3.7 2.14-3.69-2.95-5.45c-1.81-3.35-3.44-5.26-4.24-4.95-.72.27-1.3 0-1.3-.61s1.01-1.1 2.25-1.1c1.66 0 2.99 1.31 5.04 4.96 1.53 2.73 3.14 5.18 3.58 5.45 1.45.9 28.1-2.37 31.76-3.9 4.51-1.89 5.3-1.92 2.81-.1-1.71 1.26-1.36 1.31 3.06.48 2.75-.51 6.35-.71 8-.43s2.44.25 1.75-.06-1.25-1.71-1.25-3.1c0-2-.36-2.37-1.75-1.82-3.25 1.31-4.76 1.58-2.75.5 1.1-.59 2.51-2.15 3.13-3.47.99-2.11.87-2.46-1-2.82-1.68-.33-1.55-.45.62-.56 1.51-.07 2.76-.7 2.77-1.38.01-.91.25-.87.89.13.68 1.08 1.02.92 1.55-.75.6-1.89 1.42-2.13 7.13-2.13 5.28 0 7.69-.61 13.18-3.3 6.48-3.17 7.05-3.27 15.23-2.67l8.5.63-7.69.17c-4.23.09-7.94.57-8.25 1.06-.3.5-.28 2.25.05 3.9l.6 3.01 7.14-3.04c8.45-3.58 15.94-3.88 31.35-1.26 16.54 2.82 22.03 5.84 39.8 21.93l5 4.52-4.5.07-4.5.06 3.5 1.84c1.92 1.02 6.87 2.56 11 3.42 8.98 1.9 30.62 2.93 33.14 1.58.97-.52 2.07-2.52 2.43-4.45.36-1.92 1.06-3.74 1.54-4.05 1.18-.72 1.14-.38-.57 4.45l-1.45 4.13 3.7.1c2.04.05 18.45.03 36.46-.06 29.35-.14 33.33-.35 38.29-2.06 10.91-3.75 17.51-9.91 29.96-27.98 5.11-7.43 10.47-14.77 11.9-16.31s2.6-3.11 2.61-3.5c.02-1.61 8.99-4.44 15.49-4.89 5.99-.41 7.62-.14 11.35 1.86 2.39 1.29 5.69 4.18 7.31 6.43 2.83 3.9 3.08 5.1 5.36 25.98 1.33 12.16 2.86 22.05 3.44 22.24 1.3.44 1.37 2.19.09 2.19-.53 0-2.05 1.09-3.38 2.42-4.18 4.18-4.84 4.32-88.17 19.05-60.46 10.68-64.88 11.53-65.45 12.44-.3.48-4.6 1.17-9.55 1.55-16.85 1.26-49.97 4.67-60.5 6.21-14.61 2.15-30.54 2.33-74.5.85m60.5-7.52c0-.55-2.36-1.01-5.25-1.02-2.89-.02-8.18-.44-11.75-.96-3.58-.51-13.25-1.61-21.5-2.44-20.21-2.05-28.95-4.43-27.1-7.42.78-1.27 9.48-3.16 14.53-3.16 4.19 0 5.03-1.29 5.06-7.75l.01-3.25-9.75-.06c-5.36-.02-11.82-.15-14.35-.28-4.04-.2-4.54-.01-4.12 1.61.43 1.63-.05 1.81-3.9 1.54-3.19-.23-4.35-.73-4.28-1.85.06-.87-.71-1.54-1.78-1.54-1.75 0-1.86.81-1.6 11.54l.28 11.54 36 2.11c43.07 2.53 49.5 2.71 49.5 1.39m-68-19.3c0-4.73 6.36-6.86 7.2-2.42.7 3.66-.14 4.72-3.78 4.72-2.9 0-3.42-.35-3.42-2.3m6-.7c0-1.34-.67-2-2-2s-2 .66-2 2c0 1.33.67 2 2 2s2-.67 2-2m3.19-.25c.27-2.88.66-3.25 3.31-3.25s3.04.37 3.31 3.25c.3 3.12.18 3.25-3.31 3.25s-3.61-.13-3.31-3.25m5.81.25c0-1.34-.67-2-2-2s-2 .66-2 2c0 1.33.67 2 2 2s2-.67 2-2m66.25 18.33c-.69-.27-1.81-.27-2.5 0-.69.28-.13.51 1.25.51 1.37 0 1.94-.23 1.25-.51m7.48-1.03c-.97-.25-2.32-.23-3 .04s.12.48 1.77.46 2.2-.24 1.23-.5m-108.73-6.16c0-2.67-.28-7.58-.63-10.91l-.64-6.05-4.36-.35-4.37-.35v4.06c0 2.23.54 4.6 1.2 5.26 1.56 1.56 5.04 1.53 6.72-.05 1.07-1.01 1.24-.97.88.25-.56 1.85-6.43 2.55-8.31.99-.75-.63-1.56-2.12-1.79-3.32-.24-1.2-.49 1.5-.56 6-.16 9.13-.27 8.99 7.61 9.21l4.25.12zm112.42 4.19 6.93-.66-7.87-2.34c-4.33-1.28-8.34-2.33-8.92-2.33s-1.15 1.35-1.27 3c-.24 3.41-.27 3.4 11.13 2.33M-463 278.97l-.28-10.75-6.74-.3c-5.48-.24-6.63-.03-6.19 1.12.41 1.06-.09 1.3-2.01.93-1.41-.27-2.56-.04-2.56.5s-1.99 1.54-4.42 2.22l-4.41 1.24-.34 5.85-.33 5.84 9 1.53c20.84 3.55 18.62 4.54 18.28-8.18m107.55 6.33c-3.03-2.62-5.96-3.19-20.83-4.06l-9-.52 9 1.98c4.95 1.09 12.15 3.01 16 4.28 3.85 1.26 7.15 1.95 7.33 1.53s-.95-1.86-2.5-3.21m58.17 1.83c17.5-2.1 79.76-11.36 138.25-20.55 3.99-.63 7.25-1.44 7.25-1.81s-.56-1.44-1.25-2.37c-1.13-1.55-2.27-1.6-12.25-.6-6.05.61-11.54 1.55-12.2 2.09-.66.55-2.17.68-3.36.31-3.56-1.13-50.94 3.75-50.94 5.25 0 1.64-2.98 1.66-3.07.02-.04-.69-.41-.38-.83.68-.68 1.73-1.82 1.95-10.43 2-9.63.06-11.25-.42-7.92-2.35 1.38-.81.92-1-2.25-.92-2.2.06-3.01.3-1.81.53 1.21.24 1.99.96 1.74 1.62-.37.99-11.24 1.35-21.79.74-.47-.03-.6-.73-.28-1.55.43-1.13-.16-1.5-2.39-1.5-1.63 0-2.97.4-2.97.9s1.01.66 2.25.37c1.75-.43 2-.27 1.1.69-.63.68-2.99 1.3-5.25 1.38-4.14.16-5.14-.55-2.85-2.04 1.38-.89-37.96-1.98-53.87-1.49l-10.13.31 1.69 6.69c1.39 5.52 2.11 6.8 4.12 7.37 1.34.38 6.49 2 11.44 3.6s10.57 2.99 12.5 3.09c1.92.1 13.4-1.01 25.5-2.46m-45.5-12.91c0-3.34.17-3.5 3.5-3.5s3.5.16 3.5 3.5c0 3.33-.17 3.5-3.5 3.5s-3.5-.17-3.5-3.5m6 .21c0-1.62-.58-2.29-2-2.29s-2 .67-2 2.29.58 2.29 2 2.29 2-.67 2-2.29m8-.21c0-3.33.18-3.5 3.44-3.5 4.01 0 4.86.94 3.98 4.45-.53 2.1-1.23 2.55-4.03 2.55-3.21 0-3.39-.19-3.39-3.5m6.27 1.25c.72-2.06-.36-3.75-2.38-3.75-1.35 0-1.89.71-1.89 2.5s.54 2.5 1.92 2.5c1.05 0 2.11-.57 2.35-1.25m8.73-1.25c0-3.49.12-3.62 3.25-3.32 2.87.28 3.25.66 3.25 3.32 0 2.65-.38 3.03-3.25 3.31-3.13.3-3.25.17-3.25-3.31m5.83-.34c.27-1.93-.06-2.27-2-2-1.55.23-2.44 1.11-2.66 2.67-.27 1.93.06 2.27 2 2 1.55-.22 2.44-1.11 2.66-2.67m8.84 3.17c-.37-.37-.67-1.94-.67-3.5 0-2.57.32-2.83 3.5-2.83 3.33 0 3.5.16 3.5 3.5 0 3.17-.26 3.5-2.83 3.5-1.56 0-3.14-.3-3.5-.67m5.33-2.83c0-1.84-.53-2.5-2-2.5s-2 .66-2 2.5c0 1.83.53 2.5 2 2.5s2-.67 2-2.5m62.65-2.25c-.98-1.6.85-2.96 4.1-3.04 2.18-.06 3.25.39 3.25 1.35 0 .92-.8 1.29-2.25 1.05-1.24-.2-2.77.05-3.41.56s-1.4.54-1.69.08m8.35-1.68c0-1.37.9-1.63 5-1.45 5.94.28 6.74 2.31 1 2.53-2.78.11-3.79-.2-3.31-1 .38-.64-.07-.54-1 .22-1.46 1.18-1.69 1.14-1.69-.3m39-3.99c0-.87.71-1.58 1.58-1.58s1.41.53 1.19 1.18c-.62 1.86-2.77 2.16-2.77.4m-96 21.51c0-.82-11.93-.32-12.92.54-.23.2 2.59.37 6.25.37 3.67 0 6.67-.41 6.67-.91m-91.5-1.12c1.34-.59.5-.69-2.5-.29-2.48.33-4.69.76-4.92.95-.87.76 5.51.18 7.42-.66m-15-1.02c-8.22-1.06-25.26-2.07-23.85-1.4 2.16 1.02 13.85 2.19 21.85 2.19l8-.01zm35.1-1.68c-.33-.34-.56.25-.52 1.31.05 1.16.28 1.4.6.6.29-.72.26-1.58-.08-1.91m-140.33-8.19c-.14-.22-1.08.34-2.09 1.25-2.47 2.23-3.82 2.1-6.18-.62-1.61-1.86-2.93-2.26-6.99-2.15-5.07.13-5.57-.13-4.24-2.22.76-1.2 6.23-1.36 6.23-.19 0 .94 4.14-.22 6.47-1.81 1.95-1.33 1.13-1.85-2.22-1.42-.69.09-1.25-.53-1.25-1.38 0-1.28-1.6-1.54-9.5-1.54h-9.5v5.52c0 6.44-1.09 5.74 17 10.97l11.5 3.32.51-4.66c.28-2.56.4-4.84.26-5.07m112.23 8.35c-10.04-2.27-27.65-3.72-31.54-2.61-3.12.9-2.73 1.01 4.04 1.17 4.12.1 12 .75 17.5 1.45 13.31 1.68 17.47 1.68 10-.01m-40.31-2.12c-.72-.29-1.59-.25-1.92.08s.26.57 1.31.53c1.17-.05 1.41-.29.61-.61m66.73-5.78c-.69-3.1-1.57-5.82-1.95-6.05-.37-.23.01 2.48.86 6.02.85 3.55 1.72 6.27 1.95 6.05.22-.22-.17-2.93-.86-6.02m-1.92 3.47c0-1.34-.67-2-2-2-1.62 0-2-.67-2-3.5 0-2.06.5-3.5 1.2-3.5.75 0 .85-.35.25-.93-.52-.51-4.4-1.07-8.62-1.25-6.05-.26-7.45-.06-6.63.93.58.68 2.34 1.25 3.92 1.25 2.33 0 2.88.43 2.88 2.28 0 1.51 1.43 3.39 4.18 5.5 4.81 3.7 6.82 4.06 6.82 1.22m-8.24-.67c-1.01-1.01-3.38-1.71-5.96-1.75-4.13-.08-4.29-.2-4.08-3.03.35-4.57-2.09-6.53-7.75-6.21-5.42.31-11.86 4.39-11.61 7.37.09 1.2-.68 1.89-2.36 2.12-5.59.75-3.42 1.66 3.8 1.6 6.37-.06 17.57.51 27.66 1.39 1.84.16 1.86.06.3-1.49m-23.23-2.29c-.33-.52-.3-2.12.06-3.55.55-2.21 1.13-2.56 3.78-2.3 2.72.27 3.17.73 3.44 3.56.3 3.1.16 3.25-3.19 3.25-1.93 0-3.77-.43-4.09-.96m6.04-2.29c.18-1.26-.43-1.75-2.16-1.75-1.77 0-2.41.54-2.41 2.06 0 1.56.54 1.99 2.16 1.75 1.19-.17 2.27-1.1 2.41-2.06m-24.66-7c.05-1.52-.36-2.75-.91-2.75-.59 0-.95 3.16-.87 7.75.13 7.51.16 7.59.92 2.75.42-2.75.81-6.24.86-7.75m5.09 9.14c0-1.04-.68-1.89-1.5-1.89-.93 0-1.5.94-1.5 2.46 0 1.79.42 2.31 1.5 1.9.82-.32 1.5-1.43 1.5-2.47m4.5-1.89c1.76-1.95 1.75-2-.35-2-1.48 0-2.15.61-2.15 2 0 2.48.25 2.48 2.5 0m2 1c.34-.55.17-1-.38-1s-1.28.45-1.62 1-.17 1 .38 1 1.28-.45 1.62-1m26.5.36c0-.75-3.19-3.29-4.19-3.33-.38-.02-.62.87-.54 1.97.11 1.37.87 2 2.44 2 1.26 0 2.29-.29 2.29-.64m10.11-2.65c-.81-.82-1.11-.71-1.11.42 0 1.99 1.34 3.33 1.84 1.84.21-.63-.12-1.65-.73-2.26m-165.26-2.4c.11-2.82-.32-5.03-1.09-5.57-1-.72-1.01-1-.01-1.4.69-.28 1.25-1.82 1.25-3.43 0-2.42-.41-2.91-2.44-2.91-4.45 0-6.84 6.63-4.94 13.7.48 1.8 3.59 3.83 6.47 4.22.32.04.67-2.03.76-4.61m24.75-.04c-1.01-1.02-1.85.51-1.02 1.86.63 1.02.87 1.02 1.21 0 .23-.69.15-1.53-.19-1.86m107.67-1.02c1.49-1.65 1.31-1.75-2.84-1.75-4.82 0-5.74 1.03-2.18 2.46 3.13 1.26 3.25 1.25 5.02-.71m-9.54.05c-.97-.25-2.32-.23-3 .04s.12.48 1.77.46 2.2-.24 1.23-.5m126.27-.92c0-.21-.9-.38-2-.38s-2 .4-2 .9.9.67 2 .38c1.1-.28 2-.69 2-.9m5 .06c0-.25-.45-.44-1-.44s-1 .47-1 1.05c0 .59.45.78 1 .45.55-.34 1-.82 1-1.06m30 .56c0-.55-.48-1-1.06-1s-.78.45-.44 1c.79 1.28 1.5 1.28 1.5 0m-246-2.62c0-.21-.9-.38-2-.38s-2 .4-2 .9.9.67 2 .38c1.1-.28 2-.69 2-.9m33-1.85c0-2.99-3-4.82-6.48-3.95-1.79.45-2.52 1.31-2.52 2.97 0 2.02.57 2.38 4.25 2.71 2.34.21 4.36.46 4.5.56s.25-.93.25-2.29m-7-1.03c0-.94.94-1.5 2.5-1.5s2.5.56 2.5 1.5c0 .93-.94 1.5-2.5 1.5s-2.5-.57-2.5-1.5m100.72-5.76c-1.17-4.81-2.44-8.74-2.82-8.74-.69 0-.25 2.4 2.02 11 1.6 6.12 2.06 7.35 2.53 6.88.22-.22-.56-4.33-1.73-9.14m131.78 7.75c.55-.18-28.03-.27-63.5-.18l-64.5.16 59 .51c54.75.48 66.39.4 69-.49m-239.25-.16c-.69-.27-1.81-.27-2.5 0-.69.28-.13.51 1.25.51 1.37 0 1.94-.23 1.25-.51m18.74-.75c-.65-.65-1.33-.65-1.98 0-.64.65-.31.99.99.99s1.63-.34.99-.99m29.76.73c-.96-.26-2.54-.26-3.5 0-.96.25-.18.45 1.75.45 1.92 0 2.71-.2 1.75-.45m6.44 0c-.72-.29-1.59-.25-1.92.08s.26.57 1.31.53c1.17-.05 1.41-.29.61-.61m20.06-.05c-2.34-.21-6.16-.21-8.5 0s-.43.39 4.25.39c4.67 0 6.59-.18 4.25-.39m10.5.05c-.96-.26-2.54-.26-3.5 0-.96.25-.18.45 1.75.45 1.92 0 2.71-.2 1.75-.45m16.53-.05c-2.32-.21-6.37-.21-9 0s-.73.38 4.22.38 7.1-.17 4.78-.38m224.72-1.39c16.5-2.4 16.61-6.25.22-7.41l-10.11-.72-.39-3.62c-.34-3.17-.41-3.03-.55 1.13-.14 3.9.14 4.76 1.58 4.81 1.34.05 1.22.27-.5.97-2.91 1.16-3.38 7.43-.5 6.58.96-.28 5.57-1.07 10.25-1.74m-354.25.44c-.96-.26-2.54-.26-3.5 0-.96.25-.18.45 1.75.45 1.92 0 2.71-.2 1.75-.45m11.02-.03c-1.5-.23-4.2-.23-6-.01s-.57.41 2.73.42c3.3 0 4.77-.18 3.27-.41m-26.49-2.29c2.49-1.1 7.28-2.29 10.63-2.64 10.96-1.15 6.4-2.35-8.91-2.35h-15v2.91c0 1.61.56 3.15 1.25 3.42 2.76 1.12 7.73.56 12.03-1.34m303.57 1.52c-.67-.67-132.99-.7-133.66-.04-.29.29 29.78.53 66.81.53s67.11-.22 66.85-.49m-265.64-1.26c-4.02-.19-10.32-.19-14 0-3.69.2-.41.35 7.29.35s10.72-.16 6.71-.35m52.54 0c-4.81-.18-12.69-.18-17.5 0s-.88.33 8.75.33c9.62 0 13.56-.15 8.75-.33m26.51.04c-1.23-.24-3.48-.24-5-.01s-.51.42 2.24.43 3.99-.18 2.76-.42m-13.44-9.3c.21-5.2-.06-7.99-.75-7.99-.67 0-1.07 2.99-1.07 8 0 4.4.34 7.99.75 7.99s.89-3.6 1.07-8m117.68 5.01c-.79-1.29-1.5-1.29-1.5 0 0 .55.48 1 1.06 1s.78-.45.44-1m-192.75-.85c5.25-.15 5.25-.15 5.13-3.4-.06-1.79-.32-2.47-.57-1.5-.37 1.43-1.6 1.75-6.86 1.75-6.01 0-6.45-.16-7.04-2.5-.39-1.57-1.33-2.5-2.52-2.5-2.47 0-2.45 2.04.03 2.68 1.42.38 1.82 1.21 1.56 3.26-.31 2.45-.05 2.73 2.34 2.56 1.47-.1 5.04-.26 7.93-.35m255 .11c-2.61-.21-6.89-.21-9.5 0s-.48.37 4.75.37c5.22 0 7.36-.16 4.75-.37m66.75-4.26c-1.39-2.75-2.78-5-3.09-5-.99 0-10.41 8.28-10.41 9.15 0 .47 3.61.85 8.02.85h8.01zm6.95.5c.37-2.48.39-4.95.05-5.5s-2.39-1-4.55-1h-3.93l2.7 5.5c1.48 3.02 3.23 5.5 3.87 5.5.65 0 1.49-2.03 1.86-4.5m-298.45-4.5c0-5.74-.35-8.01-1.25-8.01-4.57 0-23.42 2.45-24.2 3.15-.52.47-2.55.92-4.5 1.01-3.3.13-3.23.19.95.75l4.5.6.3 5.25.3 5.25h23.9zm-10 2c0-2.77.28-3 3.5-3s3.5.23 3.5 3c0 2.76-.28 3-3.5 3s-3.5-.24-3.5-3m14 5c0-.55-.7-1-1.56-1s-1.28.45-.94 1c.8 1.29 2.5 1.29 2.5 0m5 0c0-.55-.68-1-1.5-1-.83 0-1.5.45-1.5 1s.67 1 1.5 1c.82 0 1.5-.45 1.5-1m267.78-9.73c2.81-5.9 4.95-10.88 4.76-11.07-.2-.2-3.11-.92-6.48-1.62l-6.13-1.26-3.42 4.66c-4.61 6.29-12.28 13.33-17.62 16.17l-4.39 2.35 6.5.57c3.57.32 9.92.66 14.09.75l7.59.18zm4.22 5.76 5.5-4.95-4.2-.04c-4.05-.04-4.28.13-6.71 4.96-3.22 6.41-1.7 6.42 5.41.03m-259.81 3.28c-.72-.29-1.59-.25-1.92.08s.26.57 1.31.53c1.17-.05 1.41-.29.61-.61m9.54-.01c-.97-.25-2.32-.23-3 .04s.12.48 1.77.46 2.2-.24 1.23-.5m21.46.01c-.72-.29-1.59-.25-1.92.08s.26.57 1.31.53c1.17-.05 1.41-.29.61-.61m5.06.02c-.69-.27-1.81-.27-2.5 0-.69.28-.13.51 1.25.51 1.37 0 1.94-.23 1.25-.51m7.48-.03c-.97-.25-2.32-.23-3 .04s.12.48 1.77.46 2.2-.24 1.23-.5m4.46.01c-.72-.29-1.59-.25-1.92.08s.26.57 1.31.53c1.17-.05 1.41-.29.61-.61m6.06.02c-.69-.27-1.81-.27-2.5 0-.69.28-.13.51 1.25.51 1.37 0 1.94-.23 1.25-.51m11.51-.02c-.95-.25-2.75-.26-4-.02-1.24.24-.46.44 1.74.45s3.22-.18 2.26-.43m32.44-.06c-5.12-.18-13.22-.18-18 0-4.79.18-.6.33 9.3.33s13.81-.15 8.7-.33m201.8-1.25c0-.6-3.67-1-9-1s-9 .4-9 1c0 .59 3.67 1 9 1s9-.41 9-1m3.51-4.75c-1.53-13.83-3.17-15.52-2.69-2.76.26 6.75.64 8.51 1.83 8.51 1.23 0 1.38-1.03.86-5.75m-321.32 4.06c-.72-.29-1.59-.25-1.92.08s.26.57 1.31.53c1.17-.05 1.41-.29.61-.61m16.09-.05c-2.32-.21-6.37-.21-9 0s-.73.38 4.22.38 7.1-.17 4.78-.38m18.5.01c-2.05-.22-5.65-.22-8-.01-2.36.21-.68.39 3.72.39 4.4.01 6.32-.17 4.28-.38m16.48.02c-1.23-.24-3.48-.24-5-.01s-.51.42 2.24.43 3.99-.18 2.76-.42m18.99-.03c-2.89-.2-7.61-.2-10.5 0s-.53.37 5.25.37c5.77 0 8.14-.17 5.25-.37m12.51.05c-.95-.25-2.75-.26-4-.02-1.24.24-.46.44 1.74.45s3.22-.18 2.26-.43m26.53-.05c-3.41-.2-9.26-.2-13-.01-3.73.2-.94.35 6.21.36 7.15 0 10.21-.16 6.79-.35m-139.29-2.32c0-1.83-.53-2.02-4.74-1.75-3.57.23-4.82.74-5.07 2.06-.29 1.48.44 1.75 4.74 1.75 4.45 0 5.07-.26 5.07-2.06m31.25.39c-.69-.27-1.81-.27-2.5 0-.69.28-.13.51 1.25.51 1.37 0 1.94-.23 1.25-.51m14-.07c-2.34-.21-6.16-.21-8.5 0s-.43.39 4.25.39c4.67 0 6.59-.18 4.25-.39m19.5.01c-2.06-.22-5.44-.22-7.5 0-2.06.21-.38.39 3.75.39 4.12 0 5.81-.18 3.75-.39m15.68-.25c-.61-.6-2.11-.63-3.95-.08-2.95.87-2.93.88.97.97 2.56.05 3.61-.26 2.98-.89m15.32.23c-7.89-.2-12.75-.71-12.75-1.35 0-.66 4.77-.95 13.52-.82 7.43.12 13.81-.08 14.16-.44.36-.35-6.47-.64-15.17-.64-15.76 0-15.81 0-14.01 2 1.65 1.82 2.92 1.98 14.4 1.78l12.6-.22zm16.98.05c-.97-.25-2.32-.23-3 .04s.12.48 1.77.46 2.2-.24 1.23-.5m20.02-.04c-2.61-.21-6.89-.21-9.5 0s-.48.37 4.75.37c5.22 0 7.36-.16 4.75-.37m215.25-.63c0-1.39-6.62-2.61-14.25-2.63-3.09 0-3.75.35-3.75 2 0 1.85.67 2 9 2 6.92 0 9-.32 9-1.37m-358.03-3.13c0-.55-.44-.33-.97.5-.53.82-.97 1.95-.97 2.5s.44.32.97-.5c.53-.83.97-1.95.97-2.5m42.03 1.5c0-.55-.9-1-2-1s-2 .45-2 1 .9 1 2 1 2-.45 2-1m36-.26c0-1.04-33.89-.73-34.53.31-.28.44 7.38.73 17.01.64 9.64-.09 17.52-.52 17.52-.95m10 .26c0-.55-1.01-.97-2.25-.93-2.15.06-2.16.1-.25.93 1.1.47 2.11.89 2.25.92.14.04.25-.37.25-.92m51.75.27c-2.06-.22-5.44-.22-7.5 0-2.06.21-.38.39 3.75.39 4.12 0 5.81-.18 3.75-.39m-98.5-2.94c-.69-.27-1.81-.27-2.5 0-.69.28-.13.51 1.25.51 1.37 0 1.94-.23 1.25-.51m8.51-.02c-.95-.25-2.75-.26-4-.02-1.24.24-.46.44 1.74.45s3.22-.18 2.26-.43m21.99-.06c-3.71-.19-9.79-.19-13.5 0-3.71.2-.68.35 6.75.35 7.42 0 10.46-.15 6.75-.35m42 0c-4.81-.18-12.69-.18-17.5 0s-.88.33 8.75.33c9.62 0 13.56-.15 8.75-.33m243.65-.66c-.72-1.88-3.68-2.56-11.15-2.58-5.59-.01-6.25.2-6.25 1.99 0 1.85.67 2 8.97 2 7.28 0 8.87-.27 8.43-1.41m-358.15-.26c-.69-.27-1.81-.27-2.5 0-.69.28-.13.51 1.25.51 1.37 0 1.94-.23 1.25-.51m331.25-4.05c3.14-2.59 5.33-4.8 4.86-4.92-.47-.11-3.88-.41-7.57-.66l-6.71-.47 2.02 3.96c1.11 2.17 1.86 4.43 1.67 5-.2.58-1.19-.8-2.21-3.07-1.03-2.27-2.16-4.12-2.51-4.12-.36 0-1.3 1.68-2.09 3.75-.8 2.06-1.6 4.08-1.79 4.5-.18.41 1.67.75 4.13.75 3.85 0 5.26-.66 10.2-4.72m6.07 2.29c.33-1.33.45-3.24.25-4.25-.29-1.53-1.09-1.13-4.84 2.4l-4.48 4.23 4.23.02c3.65.02 4.31-.31 4.84-2.4m-277.57.68c0-.87-18.89-.7-19.76.17-.32.32 4 .58 9.59.58s10.17-.34 10.17-.75m17.75.06c-.96-.26-2.54-.26-3.5 0-.96.25-.18.45 1.75.45 1.92 0 2.71-.2 1.75-.45m19.75.09c-4.75-.76-11.5-.86-11.5-.16 0 .41 3.04.69 6.75.62 3.71-.08 5.85-.28 4.75-.46m37.51-3.65c-1.74-2.34-4.37-5.93-5.84-7.98-1.92-2.69-3.42-3.74-5.33-3.75l-2.66-.02 2.66 7.46c2.83 7.94 3.08 8.14 10.5 8.4l3.83.14zm-124.76 2.58c-.69-.27-1.81-.27-2.5 0-.69.28-.13.51 1.25.51 1.37 0 1.94-.23 1.25-.51m72.25-.33c-.79-1.29-1.5-1.29-1.5 0 0 .55.48 1 1.06 1s.78-.45.44-1m39.82-6.25c-1.46-3.99-2.69-7.33-2.73-7.42-.05-.08-1.89-.45-4.09-.81-3.64-.59-3.84-.52-2.17.83 1.33 1.08 1.58 1.98.93 3.31-.49 1.01-.81 2.4-.7 3.09.1.68.25 2.82.31 4.75l.13 3.5h10.96zm-17.13 5.56c-.72-.29-1.59-.25-1.92.08s.26.57 1.31.53c1.17-.05 1.41-.29.61-.61m252.81-1.31c0-1.83-.67-2-7.5-2-5.9 0-7.5.31-7.5 1.45 0 1.11 1.73 1.54 7.25 1.8 3.99.19 7.36.44 7.5.55s.25-.7.25-1.8m-16-1.5c0-1.38-.45-2.5-1-2.5s-1 1.12-1 2.5c0 1.37.45 2.5 1 2.5s1-1.13 1-2.5m-271.68-.45c-3.6-2.2-4.81-6.75-2.32-8.77 1.26-1.03 1.04-1.23-1.37-1.25-2.38-.03-2.77.3-2.34 1.97.29 1.1.11 2-.38 2-.5 0-.91 1.54-.91 3.42 0 3.72.84 4.26 7 4.46l3.5.11zm21.68-4.6v-6.55l3.75.62c2.79.47 3.37.35 2.25-.43-3.24-2.29-5.81-1.13-11.42 5.16l-5.58 6.25 3.25.61c7.85 1.5 7.75 1.57 7.75-5.66m-35 4.65c0-1.09-6.95-2-7.58-.98-.25.4.57.93 1.82 1.17 4.05.78 5.76.72 5.76-.19m3.19-.79c-.72-.29-1.59-.25-1.92.08s.26.57 1.31.53c1.17-.05 1.41-.29.61-.61m24.71-5.2c2.81-3.24 5.1-6.16 5.1-6.5 0-1.7-3.9-.11-11.23 4.59l-8.12 5.21 2.93 1.25c4.83 2.06 6 1.59 11.32-4.55m19.85 5.2c-.96-.26-2.54-.26-3.5 0-.96.25-.18.45 1.75.45 1.92 0 2.71-.2 1.75-.45m250.03-1.04c-2.05-.22-5.65-.22-8-.01-2.36.21-.68.39 3.72.39 4.4.01 6.32-.17 4.28-.38m-307.99-3.41c-.25-.75-.71-.3-1.06 1.05-.43 1.67-.3 2.06.44 1.32.58-.58.86-1.65.62-2.37m10.21 2.35c0-.44-.91-.86-2.02-.94-1.11-.09-1.76.27-1.44.79.7 1.13 3.46 1.25 3.46.15m4-.21c0-.55-.68-1-1.5-1-.83 0-1.5.45-1.5 1s.67 1 1.5 1c.82 0 1.5-.45 1.5-1m16.62-5.68c4.06-2.57 7.38-4.83 7.38-5.01 0-.19-3.6 1.47-8 3.69-4.4 2.21-8 4.46-8 5.01 0 1.59.86 1.23 8.62-3.69m282.73-1.57c-.34-3.44-.99-8.05-1.46-10.25-.8-3.83-.82-3.79-.37.88.27 2.69.48 7.31.48 10.25 0 2.95.44 5.37.98 5.37.61 0 .75-2.4.37-6.25m-302.58 2.75c.19-2.29-.14-2.5-3.78-2.5-3.59 0-3.99.25-3.99 2.5 0 2.22.41 2.5 3.78 2.5 3.31 0 3.81-.32 3.99-2.5m3.23 1.5c0-.55-.48-1-1.06-1s-.78.45-.44 1c.79 1.28 1.5 1.28 1.5 0m282.19.31c-.72-.29-1.59-.25-1.92.08s.26.57 1.31.53c1.17-.05 1.41-.29.61-.61m14.63-1.56c-.3-2.11-.88-2.27-8.67-2.55-6.42-.22-8.25.01-7.92.99.39 1.17 9.12 3.37 14.59 3.68 1.86.1 2.26-.32 2-2.12m-24.82.2c-3.03-.42-7.53-.73-10-.7l-4.5.06 5 .69c2.75.37 7.25.69 10 .7l5 .01zm5-2.95c0-1.16-.67-2-1.58-2-.87 0-1.38-.57-1.13-1.25.25-.69.97-1.14 1.58-1 .76.16 1.13-2.22 1.13-7.25 0-4.34-.42-7.5-1-7.5-.55 0-1-.68-1-1.5 0-.83.45-1.5 1-1.5s1-.74 1-1.63c0-1.26.3-1.37 1.38-.48 1.08.9 1.49.71 1.9-.87.45-1.72.06-2.02-2.62-2-3.41.02-10.98 3.07-12.1 4.87-.46.74.81 1.11 3.88 1.11 2.51 0 4.56.41 4.56.91s-2.06.78-4.57.61c-4.91-.34-4.94-.31-5.8 5.81-.43 3.1-.28 3.62.79 2.73 2.65-2.2 6.22 1.11 4.9 4.54-.46 1.2-1.46 1.47-3.97 1.06-3.25-.52-3.35-.44-3.35 2.85v3.39l5.75.36c3.16.19 6.54.44 7.5.55 1.15.12 1.75-.5 1.75-1.81m-227-.25c0-.42-2.48-.75-5.5-.75-3.03 0-5.5.33-5.5.75 0 .41 2.48.75 5.5.75 3.03 0 5.5-.34 5.5-.75m210.36-1.5c.27-.97.79-4.68 1.14-8.25.35-3.58.88-7.4 1.18-8.5.53-2 .53-2-1.42 0-1.07 1.1-4.5 5.71-7.62 10.25l-5.69 8.25h5.96c4.82 0 6.05-.34 6.45-1.75m-260.36-.25c0-.55-.48-1-1.06-1s-.78.45-.44 1c.79 1.28 1.5 1.28 1.5 0m10 0c-1.97-1.28-7-1.28-7 0 0 .55 1.91.99 4.25.98 3.11-.01 3.85-.28 2.75-.98m286.67-.5c0-1.22-1.65-1.5-8.81-1.5-7.41 0-8.71.23-8.22 1.5.84 2.19 17.03 2.19 17.03 0m-299.67-.5c0-1.28-6.02-1.28-8 0-1.08.7-.19.97 3.25.98 2.61.01 4.75-.43 4.75-.98m67 .12c-3.72-2.22-27.34-4.53-33.5-3.27l-4 .81 4.58.76c4.45.73 17.81 1.81 28.92 2.33 3.59.17 4.98-.05 4-.63m-52-4.23c0-2.57-.3-2.98-1.75-2.39-.96.4-2.54.95-3.5 1.23-2.49.71-2.17 3.05.5 3.56 4.49.86 4.75.73 4.75-2.4m273.42.86c.46-1 .7-1 1.16 0 .32.68 2.33 1.25 4.46 1.25h3.86l-2.31-2.5c-2.87-3.1-5.2-3.18-7.66-.25-1.6 1.9-2.04 2.02-2.86.77-.65-1-.58-1.72.23-2.23.81-.52.63-.77-.55-.78-1.72-.01-2.46 2.94-1.08 4.32 1.11 1.11 4.13.74 4.75-.58m2.08-.75c-.34-.55-.4-1-.14-1s1.13-.26 1.93-.56c.8-.31 1.72.14 2.05 1 .68 1.76-2.78 2.27-3.84.56m-20.19-.64c1.06-1.07-.27-2.32-1.84-1.72-.8.31-1.21.97-.91 1.46.65 1.05 1.84 1.16 2.75.26m28.51-4.19c.3-2.08-.04-2.17-7.75-2.17-6.51 0-8.07.29-8.07 1.5 0 1.2 1.53 1.5 7.75 1.51 5.74.01 7.36.29 6.25 1.08-1.33.94-1.33 1.01 0 .65.82-.22 1.64-1.38 1.82-2.57m1.18-3.97c0-2.23-2.94-3.2-9.7-3.2-6.63 0-7.3.18-7.3 2 0 1.84.67 2 8.5 2 4.67 0 8.5-.36 8.5-.8m-4.5-6.2c-2.56-2.83-10.5-2.83-12.27 0-1.21 1.93-1 2 6.42 2 7.6 0 7.64-.02 5.85-2m-6.42-4.1c-1.6-.64-2.77-.62-3.45.06-.71.71.05 1.02 2.42.97 3.24-.06 3.3-.12 1.03-1.03m-142.45 31.1c.33-2.48.99-5.18 1.47-6 .96-1.67.1 3.86-1.24 8-.54 1.63-.61.95-.23-2m-159.63-12c0-1.1.45-2 1-2s1 .9 1 2-.45 2-1 2-1-.9-1-2m162.64-5.62.58-4.88-5.36.16-5.36.17 5.5-.82c3.02-.45 7.3-.8 9.5-.78l4 .03-3.47.62c-3.19.56-3.54.98-4.23 5-1.03 6.09-1.86 6.44-1.16.5m-161.48.62c0-1.38.22-1.94.5-1.25.28.68.28 1.81 0 2.5-.28.68-.5.12-.5-1.25m53.92-.37c.23-.19 3.79-.61 7.92-.91 4.44-.33 6.48-.22 5 .26-2.44.8-13.74 1.37-12.92.65m23.68-1.34c1.25-.24 3.05-.23 4 .02.96.25-.06.44-2.26.43s-2.98-.21-1.74-.45m7.99-1c1.24-.24 3.26-.24 4.5 0s.22.43-2.25.43c-2.48 0-3.49-.19-2.25-.43m14.52.1c.33-.33 1.2-.37 1.92-.08.8.32.56.56-.61.61-1.05.04-1.64-.2-1.31-.53m-100.27-2.34c0-1.13.45-2.05 1-2.05 1.3 0 1.3 2.69 0 3.5-.55.33-1-.31-1-1.45m107.78 1.21c2.35-.21 5.95-.21 8 .01 2.04.21.12.39-4.28.38-4.4 0-6.08-.18-3.72-.39m20.22-.83c3.43-.76 15.81-.93 15.36-.21-.26.42-4.16.72-8.67.66-4.5-.06-7.52-.27-6.69-.45m49.64-2.66c.26-.43 4.16-.72 8.67-.66 9.39.13 8.49.64-1.98 1.11-3.94.18-6.95-.02-6.69-.45m-176.85-3.77c-.28-1.86 0-3 .71-3s.99 1.14.71 3c-.55 3.77-.87 3.77-1.42 0m203.29 2.63c.23-.19 4.47-.6 9.42-.89 5.04-.3 7.68-.19 6 .24-3 .78-16.2 1.34-15.42.65m31.42-1.68c3.95-.83 15.22-1.29 14.42-.59-.23.19-4.47.6-9.42.89-6.12.37-7.72.27-5-.3m24-1.46c2.33-.82 16.5-1.1 16.5-.33 0 .46-3.94.8-8.75.76-4.81-.05-8.3-.24-7.75-.43" style="fill:#b9b9b9" transform="translate(531.777 -200.689)"/><path d="M-419.04 302.2c-57.38-1.89-76.74-4.47-96.95-12.93-9.13-3.82-15.79-13.43-15.79-22.8 0-11.19 4.4-13.29 28.6-13.64l8.1-.11 1.83-4.06 1.83-4.06-2.66-5.42c-1.91-3.9-3.08-5.26-4.18-4.84-.84.33-1.52.09-1.52-.52s1.12-1.1 2.5-1.1c1.37 0 2.5.42 2.5.93 0 2.02 5.58 10 7 10.01 5.21.04 28.24-3 30.05-3.97 1.7-.91 2.02-.9 1.45.03-.55.88.03 1.05 2.12.64 7.89-1.57 10.38-1.8 10.38-.92 0 .52.67.94 1.5.94.82 0 1.5-.37 1.5-.83s-.45-.83-1-.83-1-1.16-1-2.57c0-2.12-.35-2.46-2.02-1.93-1.76.56-1.69.28.6-2.18l2.62-2.82-2.85-.64-2.85-.63 2.75-.12c1.51-.06 2.79-.68 2.83-1.36.06-.93.21-.92.61.07.38.95.93.74 2-.79 1.25-1.79 2.36-2.07 7.64-1.88 3.39.12 7.18-.33 8.42-1.01 1.85-1 2.25-.96 2.25.21 0 1.56 2.08 2.65 5.08 2.65 1.47 0 1.92-.71 1.92-3 0-3.19-.94-3.64-4.07-1.97-1.06.57-1.93.81-1.93.52 0-.28 1.69-1.31 3.75-2.28 3-1.42 5.35-1.67 11.75-1.23l8 .54-7.5.46-7.5.46-.31 3.75c-.17 2.06-.03 3.75.3 3.75.34 0 3.79-1.35 7.67-3 8.36-3.56 16.9-3.95 31.33-1.43 16.43 2.88 21.34 5.43 36.51 18.95 3.57 3.19 6.64 6.14 6.81 6.57s-1.4.94-3.5 1.13l-3.81.36 3.67 1.69c7.05 3.24 21.28 5.73 32.76 5.73 10.21 0 11.07-.16 12.58-2.25 1.5-2.08 1.6-2.1 1.31-.25-.31 1.96.31 2 33.18 2.26 20.34.16 35.46-.14 38.5-.77 13.69-2.84 22.99-10.63 36.98-30.99 5.1-7.43 10.23-14.36 11.4-15.41 1.16-1.05 2.12-2.51 2.12-3.25s.63-1.34 1.39-1.34c.77 0 3.35-.9 5.75-1.98 8.05-3.66 17.88-2.32 23.63 3.21 5.59 5.37 6.26 7.68 8.7 30.09 1.38 12.74 2.74 21.24 3.41 21.47 1.6.53 1.39 2.21-.27 2.21-.77 0-1.63.6-1.91 1.34-1.39 3.61-10.47 6.07-44.7 12.1-85.38 15.04-110.44 19.65-110.94 20.42-.31.47-4.84 1.17-10.06 1.55-15.58 1.12-48.22 4.52-59.74 6.23-14.95 2.21-24.96 2.33-70.52.84m58.92-5.75c-.28-.68-.49.12-.47 1.77.03 1.65.25 2.2.5 1.23.26-.98.24-2.33-.03-3m-1.66-1.23c0-1.13-1.2-1.51-4.75-1.51-2.61 0-7.45-.45-10.75-1s-13.35-1.7-22.33-2.56c-25.15-2.41-34.92-6.41-22.17-9.09 3.02-.63 7.44-1.2 9.8-1.25l4.31-.09-.26-8.5-.26-8.5-16.05-.19c-8.82-.09-13.9-.34-11.29-.55s4.75-.76 4.75-1.23c0-1.12-8.85-1.66-17-1.03l-6.5.5 4.27 1.29c2.35.71 4.71 1.03 5.25.69.54-.33.98.1.98.96 0 1.06-.95 1.56-3 1.56q-3 0-3 1.5c0 .82.56 1.53 1.25 1.57 1 .07 1 .18 0 .59-.69.27-1.25 2.12-1.25 4.09 0 4.01-2.33 7.25-5.22 7.25-2.9 0-5.78-1.87-5.78-3.76 0-1.36.31-1.25 1.56.53 1.74 2.49 5.6 2.94 7.33.86.66-.79 1.02-4.21.87-8.25l-.26-6.88-3.5-1.2c-2.18-.74-9.53-1.16-19.5-1.12-9.55.05-14.59.38-12.5.82 3.15.66 1.74 1.52-1.75 1.07-.69-.09-1.25.31-1.25.88 0 .6 2.69 1.12 6.25 1.22l6.25.17-6.5.66-6.5.65 7.19.17c6.52.16 7.17.36 7.03 2.18-.08 1.1-.55 2-1.04 2s-.64-.68-.32-1.5c.32-.83.14-1.5-.39-1.5s-.97.59-.97 1.32c0 .91-.95 1.19-2.99.89-1.64-.24-2.75-.83-2.46-1.3s-1.07-.8-3.04-.72c-3.66.13-4.47 2.18-.93 2.36 6.37.34 7.42.55 7.42 1.5 0 .59-.41.81-.91.5-.98-.61-7.11 2.3-8.32 3.95-.41.55-.75.62-.75.17-.01-.45-1.19.1-2.63 1.23-2.03 1.6-3.03 1.82-4.55 1.01-1.08-.58-2.18-1.64-2.46-2.37-.35-.92-2.17-1.25-5.92-1.07-4.71.21-5.29.04-4.5-1.36 1.13-2.03 6.04-2.26 6.04-.29 0 1.13.3 1.17 1.46.21.8-.66 1.92-.92 2.5-.56.57.35 1.04.14 1.04-.47s1.57-1.77 3.5-2.57c4.06-1.7 4.4-2.2 1.25-1.85-1.24.14-2.25.32-2.25.41 0 .08-1.01.34-2.25.57s-2.25.01-2.25-.5 2.59-1.26 5.75-1.67c4.67-.6 5.28-.88 3.25-1.47l-2.5-.73 2.5-.17c2.31-.15 2.35-.23.5-1.02-1.1-.48-3.35-.86-5-.86-2.61 0-2.74.11-1 .92 1.57.73 1.34.82-1.06.39-1.68-.29-4.16-.05-5.5.53l-2.44 1.06 2.72-.38c1.5-.21 2.48.01 2.19.48s-4.44.78-9.22.68-6.67-.34-4.19-.54c2.47-.2 6.03-1.08 7.9-1.94 1.87-.87 6.48-2.06 10.25-2.64s6.85-1.43 6.85-1.88-6.75-.82-15-.82h-15l-.1 6.25c-.07 4.38-.32 5.5-.83 3.75-.41-1.38-.53-4.19-.27-6.25.42-3.39.24-3.75-1.84-3.75-4.02 0-5.96 2.75-5.94 8.4 0 2.8.37 5.66.81 6.36 2.38 3.75 28.73 11.85 49.67 15.27 17.71 2.9 16.35 3.37 16.76-5.78l.34-7.75.2 8.08.2 8.09 20.25 1.26c11.14.69 33.52 2.05 49.75 3.03 16.22.98 29.61 1.83 29.75 1.91.14.07.25-.55.25-1.37m-67.19-18.03c-.29-.29-.31-1.64-.05-3 .37-1.95 1.08-2.47 3.36-2.47 1.58 0 2.88.38 2.88.86 0 .47-1.13.64-2.5.38-2.06-.39-2.5-.09-2.5 1.76 0 1.84.44 2.14 2.5 1.75 1.37-.26 2.5-.09 2.5.38 0 .93-5.32 1.22-6.19.34m8.19-2.39c0-3.16 1.16-3.97 4.71-3.29 1.76.34 2.29 1.11 2.29 3.32 0 2.63-.31 2.89-3.5 2.89-3.2 0-3.5-.25-3.5-2.92m6-.08c0-1.34-.67-2-2-2s-2 .66-2 2c0 1.33.67 2 2 2s2-.67 2-2m-45.94-5.5c-.16-1.65-.24-3.34-.18-3.75.07-.42-1.12-.81-2.63-.87l-2.75-.12 3-.76 3-.77-3.42-.12c-4.4-.15-3.73-.67 1.92-1.49 2.47-.36 3.97-.3 3.31.13-.65.43-1.35 3.02-1.57 5.76-.25 3.29-.48 3.97-.68 1.99m19.94 1.55c-4.28-.68-4.61-2.48-.5-2.75 2.88-.19 2.9-.16.5.65-2.37.8-2.33.85.81.95 2.37.07 3.11-.26 2.6-1.15-.56-1-.43-1 .64 0 1.99 1.84.03 2.95-4.05 2.3m-22-1.34c0-1.28-1.3-1.69-6.25-1.97l-6.25-.36 6.28-.19c4.86-.15 6.42.15 6.87 1.35.33.85.32 1.82-.03 2.16-.34.35-.62-.1-.62-.99m-37.73-4.32c.33-.33 1.2-.37 1.92-.08.8.32.56.56-.61.61-1.05.04-1.64-.2-1.31-.53m42.73-.89c0-.91.93-1.5 2.33-1.5 1.41 0 2.34.59 2.34 1.5 0 .9-.93 1.5-2.34 1.5-1.4 0-2.33-.6-2.33-1.5m-17.25-.21c1.24-.24 3.26-.24 4.5 0s.22.43-2.25.43c-2.48 0-3.49-.19-2.25-.43m-7.75-2.35c0-.52 1.2-.94 2.67-.94 3 0 2.7.85-.53 1.47-1.18.23-2.14-.01-2.14-.53m10.27.45c.33-.33 1.2-.37 1.92-.08.8.32.56.56-.61.61-1.05.04-1.64-.2-1.31-.53m114.92 31.92c-.72-.29-1.59-.25-1.92.08s.26.57 1.31.53c1.17-.05 1.41-.29.61-.61m15.81-1.27 5.5-.76-4.5-.07c-2.48-.04-6.53.29-9 .73-4.12.74-4.21.81-1 .83 1.92.02 5.97-.31 9-.73m11.45-2.98c-.94-.92-14.86-5.06-17.03-5.06-.61 0-1.15 1.35-1.2 3l-.09 3h9.64c5.98 0 9.27-.36 8.68-.94m29.05-2.14c8.8-1.14 18.47-2.28 21.5-2.53 5.77-.49 17.05-2.19 84.97-12.8 27.26-4.26 41.86-6.15 42.63-5.52.7.59 2.1.62 3.53.09 1.3-.49 6.19-1.45 10.87-2.14 4.67-.69 9.52-1.89 10.76-2.67 2.24-1.4 2.24-1.43.32-3.49-1.06-1.15-1.71-2.67-1.43-3.4.3-.79-.42-1.48-1.82-1.75l-2.33-.44 2.28-.14c2.09-.12 2.24-.51 1.83-4.88-.24-2.62-.48-5.54-.53-6.5-.07-1.47-1.18-1.79-6.83-1.95l-6.75-.2 6.75-.35c9.06-.47 8.65-1.8-.5-1.6l-7.25.15.01 3.1c.01 1.71-.52 3.1-1.17 3.1-.72 0-1.17 1.7-1.17 4.45v4.45l5.66.36 5.67.36-5.75.19c-8.69.28-6.89 2.05 2.5 2.46l8.25.36-9-.07-9-.06.31-6.5c.16-3.58.73-6.65 1.25-6.84 1.2-.42 1.23-4.86.04-5.6-.76-.47-1.47 3.39-3.52 19.14-.17 1.35.33 2.37 1.32 2.63 1.34.36 1.32.45-.15.55-1.31.09-1.75.99-1.75 3.62 0 1.92-.45 3.5-1 3.5s-1-.42-1-.92c0-.51-.3-1.71-.67-2.67-.46-1.19-.3-1.51.5-1.02.64.4 1.17.31 1.17-.18 0-.79-4.43-1.51-7.5-1.23-9.95.9-11.83.91-10 .04 1.5-.72.7-.9-3.25-.74-2.89.12-5.25.34-5.25.5 0 .15 1.01.69 2.25 1.18 2.19.88 2.18.91-.42.97-1.46.04-2.83.58-3.04 1.21-.27.8-.97.84-2.34.14-1.19-.62-4.29-.71-7.95-.23-3.3.43-7.58.76-9.5.74-3.25-.03-3.18-.09 1-.87 2.47-.46 7.54-1.12 11.25-1.46s6.75-1.04 6.75-1.54c0-.9-9.32-1.36-25.5-1.25-6.61.04-7.22-.07-3.5-.66 2.47-.39-12.94-.78-34.25-.86-22.78-.09-38.75.22-38.75.76 0 .5-1.24.66-2.75.35-1.51-.3-9.28-.62-17.25-.71l-14.5-.16 13.48.33c7.41.18 13.8.66 14.2 1.05 1.21 1.21-27.19.46-28.66-.75-.93-.78-1.43-.79-1.68-.04-.47 1.4-12.81 1.93-12.92.55-.05-.66-.24-.65-.52.04-.51 1.22-6.14.66-6.97-.69-.3-.49-1.06-.88-1.68-.88s-.26.66.81 1.46c2.3 1.75 1.21 1.91-3.57.52-3.77-1.09-11.99-.32-11.99 1.13 0 .49.79.92 1.75.96 1.05.05 1.25.29.5.59-1.34.54-1.7 3.55-.56 4.69.37.38.75 1.46.84 2.42.09.95.74 4.28 1.45 7.4l1.3 5.67 8.61 2.13c4.74 1.17 10.41 2.94 12.61 3.93 4.39 1.97 3.96 1.98 27-.98m-41.09-11.3c-1.2-3.12.01-5.12 3.1-5.12 2.66 0 2.99.33 2.99 3 0 2.53-.43 3.04-2.76 3.31-1.75.2-2.96-.23-3.33-1.19m5.59-2.12c0-1.84-.53-2.5-2-2.5s-2 .66-2 2.5c0 1.83.53 2.5 2 2.5s2-.67 2-2.5m8.67 2.83c-.37-.37-.67-1.94-.67-3.5 0-2.57.32-2.83 3.5-2.83 1.92 0 3.5.38 3.5.86 0 .47-1.13.64-2.5.38-2.17-.42-2.5-.12-2.5 2.26 0 2.36.33 2.66 2.47 2.26 1.36-.26 2.23-.09 1.94.38-.62 1.01-4.78 1.15-5.74.19m15.04.04c-.39-.39-.71-2.01-.71-3.61 0-2.66.26-2.87 3.25-2.58 2.87.28 3.25.66 3.25 3.32 0 2.46-.45 3.05-2.54 3.29-1.39.16-2.86-.02-3.25-.42m5.11-3.12c.26-1.84-.16-2.25-2.25-2.25s-2.57.47-2.57 2.56c0 2.1.42 2.51 2.25 2.25 1.45-.2 2.36-1.12 2.57-2.56m8.59 2.37c-1.21-3.15.03-5.12 3.42-5.44 3.2-.31 3.3-.21 2.99 3-.27 2.78-.76 3.37-3.08 3.63-1.75.2-2.96-.23-3.33-1.19m5.59-2.12c0-1.84-.53-2.5-2-2.5s-2 .66-2 2.5c0 1.83.53 2.5 2 2.5s2-.67 2-2.5m4-2.32c0-1.35 2.56-3.29 3.33-2.52.35.35 2.01.6 3.67.55 1.79-.05 2.78.33 2.42.92-.34.55-2.05.88-3.79.73s-3.71.07-4.39.49-1.24.34-1.24-.17m35.51-1.12c1.84-1.84 6.49-2.21 6.49-.52 0 .72-1.69 1.41-3.99 1.63-3.53.33-3.82.21-2.5-1.11m-24.51-.01c0-.51.45-1.22 1-1.55.55-.34 1-.16 1 .41 0 .69.83.72 2.5.09 1.82-.7 2.5-.62 2.52.27.01.78.36.68.98-.27.76-1.18.97-1.21.98-.13.02 1.1.31 1.13 1.52.13.82-.69 1.5-.84 1.5-.34 0 1.06 4.06 1.03 5.8-.04.66-.41 1.2-.28 1.2.28 0 .57.67.77 1.5.46.82-.32 1.5-.08 1.5.53 0 .74-3.62 1.11-11 1.11-6.21 0-11-.42-11-.95m32-.05c0-.55.9-1.06 2-1.13s2.75-.18 3.67-.25c.91-.07 1.85.44 2.08 1.13.29.86-.84 1.25-3.67 1.25-2.24 0-4.08-.45-4.08-1m9 .05c0-.51.37-1.17.83-1.45.46-.29.84.14.84.94s-.38 1.46-.84 1.46-.83-.43-.83-.95m7-.63c0-1.98 3.18-1.49 3.74.58.37 1.33.29 1.33-.65 0-.72-1.02-1.06-1.1-1.07-.25-.01.68-.47 1.25-1.02 1.25s-1-.71-1-1.58m5.64.08c.74-1.93 1.36-1.93 1.36 0 0 .82-.44 1.5-.97 1.5s-.71-.68-.39-1.5m2.36.05c0-.85.45-1.55 1-1.55 1.29 0 1.29 1.7 0 2.5-.55.33-1-.09-1-.95m3-.05c0-.83.45-1.5 1-1.5s1 .67 1 1.5c0 .82-.45 1.5-1 1.5s-1-.68-1-1.5m3.5.66c-1.11-1.11-.38-2.03 1.5-1.89 2.3.17 2.76 2.39.5 2.39-.83 0-1.73-.22-2-.5m-18.5-1.62c0-1.64 5.38-2.97 9.12-2.27 1.43.27.69.51-1.87.59-3.05.1-4.25.56-4.25 1.64 0 .82-.68 1.5-1.5 1.5-.83 0-1.5-.66-1.5-1.46m51.64-2.24c-1.13-1.13-.69-2.3.86-2.3.82 0 1.5.42 1.5.94 0 1.26-1.56 2.16-2.36 1.36m-38.64-1.3c0-.55 2.02-1 4.5-1 2.47 0 4.5.45 4.5 1s-2.03 1-4.5 1c-2.48 0-4.5-.45-4.5-1m-92.25-.67c.69-.27 1.81-.27 2.5 0 .69.28.12.51-1.25.51-1.38 0-1.94-.23-1.25-.51m26 0c.69-.27 1.81-.27 2.5 0 .69.28.12.51-1.25.51-1.38 0-1.94-.23-1.25-.51m5.52.06c.33-.33 1.2-.37 1.92-.08.8.32.56.56-.61.61-1.05.04-1.64-.2-1.31-.53m10.94-.13c3.14-.2 8.54-.2 12-.01 3.46.2.89.36-5.71.36-6.6.01-9.43-.15-6.29-.35m19.52.08c.68-.27 2.03-.29 3-.04.97.26.42.48-1.23.5s-2.45-.19-1.77-.46m19.04-.07c1.8-.22 4.5-.22 6 .01s.03.41-3.27.41c-3.3-.01-4.53-.2-2.73-.42m24.98.06c.69-.27 1.81-.27 2.5 0 .69.28.12.51-1.25.51-1.38 0-1.94-.23-1.25-.51m-65-2.07c2.34-.21 6.16-.21 8.5 0s.42.39-4.25.39c-4.68 0-6.59-.18-4.25-.39m30.98.01c1.77-.22 4.92-.22 7 0 2.07.21.62.39-3.23.4-3.85 0-5.55-.18-3.77-.4m15.52-.01c2.61-.21 6.89-.21 9.5 0s.47.37-4.75.37c-5.23 0-7.36-.16-4.75-.37m-118.5-1.01c3.44-.19 9.06-.19 12.5 0 3.44.2.62.36-6.25.36-6.88 0-9.69-.16-6.25-.36m65.9-2.5c.26-.42 15.4-.66 33.66-.55 18.25.12 29.14.34 24.19.49-22.18.7-58.27.74-57.85.06m.95 28.52c-.33-.34-.56.25-.52 1.31.05 1.16.28 1.4.6.6.29-.72.26-1.58-.08-1.91m-74.53-.14c-.55-1.03-.78-2.09-.51-2.36s-.31-1.12-1.29-1.88c-1.61-1.27-1.65-1.24-.4.36 1.7 2.16.4 2.3-1.92.2-1.79-1.62-15.21-3.46-24.45-3.37-4.69.05-4.44.18 4 1.97 4.95 1.06 12.37 3.01 16.5 4.33 9.35 3.01 9.28 3.01 8.07.75m.83-7.76c-1.2-4.88-2.62-9.32-3.15-9.87-.64-.66-.79-.31-.43 1 .3 1.1 1.53 5.73 2.74 10.29 1.2 4.56 2.37 8.11 2.6 7.88s-.56-4.42-1.76-9.3m-14.9 7.72c1.93-.54.1-1.21-8-2.94-14.7-3.14-29.53-4.63-35.55-3.57l-4.95.88 7.5.59 7.5.58-6 .29c-5.63.26-5.78.33-2.5 1.14 5.06 1.24 33.51 3.08 36.75 2.37 2.12-.46 2.41-.35 1.25.47-1.33.95-1.33 1.06 0 .98.82-.05 2.62-.4 4-.79m-11.73-1.7c.33-.33 1.2-.37 1.92-.08.8.32.56.56-.61.61-1.05.04-1.64-.2-1.31-.53m-8.02-1.08c.96-.26 2.54-.26 3.5 0 .96.25.17.45-1.75.45-1.93 0-2.71-.2-1.75-.45m-9.5-1.02c1.24-.24 3.26-.24 4.5 0s.22.43-2.25.43c-2.48 0-3.49-.19-2.25-.43m116.25 3.7c0-.92-13.8-.32-14.92.64-.23.2 3.04.37 7.25.37 4.48 0 7.67-.42 7.67-1.01m6.19-1.68c-.72-.29-1.59-.25-1.92.08s.26.57 1.31.53c1.17-.05 1.41-.29.61-.61m7.06-.98c-.69-.27-1.81-.27-2.5 0-.69.28-.13.51 1.25.51 1.37 0 1.94-.23 1.25-.51m5.94-1.02c-.72-.29-1.59-.25-1.92.08s.26.57 1.31.53c1.17-.05 1.41-.29.61-.61m-159.69-1.31c1.32-.57 1.49-.88.5-.92-.83-.03-2.18.38-3 .92-1.83 1.18-.25 1.18 2.5 0m165.69.31c-.72-.29-1.59-.25-1.92.08s.26.57 1.31.53c1.17-.05 1.41-.29.61-.61m7.06-.98c-.69-.27-1.81-.27-2.5 0-.69.28-.13.51 1.25.51 1.37 0 1.94-.23 1.25-.51m-106.96-2.33c-.29-1.11-1.36-2-2.41-2-1.39 0-1.88-.73-1.88-2.8 0-1.54.53-3.33 1.17-3.97.89-.89.75-1.33-.59-1.84-1.04-.4-1.33-.93-.7-1.32.57-.36.78-1.64.47-2.86-.44-1.65-1.38-2.24-3.72-2.33l-3.13-.12 3-.72 3-.71-3.5-.61c-5.06-.88-39-.53-39 .41 0 .43 3.71.94 8.25 1.12l8.25.34-8.75.2c-8.4.2-8.75.3-8.75 2.51 0 1.26.56 2.9 1.25 3.64 1 1.08 1 1.21 0 .64-.69-.39-1.25-.23-1.25.36 0 .58 1.46 1.02 3.25.98 2.72-.05 2.93-.2 1.25-.92-1.1-.48-1.51-.9-.9-.93.6-.04 2.53.64 4.28 1.52 2.54 1.26 3.54 1.34 4.91.39.94-.67-.01.38-2.11 2.32-3.23 2.98-3.53 3.6-2 3.99 1.02.27.39.52-1.43.59-1.79.06-3.25.57-3.25 1.12 0 .61 5.26 1 13.75 1 7.56.01 16.22.3 19.25.65l5.5.64-2.46-2.02c-1.85-1.53-3.39-1.9-6.25-1.52l-3.79.51-.03-3.88c-.02-3.26-.58-4.29-3.47-6.38-1.89-1.38-3.46-2.9-3.47-3.38-.02-.47 1.91.72 4.27 2.66 2.37 1.94 5.4 3.68 6.74 3.87 1.51.21 2.56 1.11 2.76 2.35.44 2.67 7.16 8.46 9.86 8.48 1.66.01 2.03-.44 1.63-1.98m-31.29-5.5c0-3.23.24-3.5 3-3.5 1.65 0 3 .45 3 1s-1.13 1-2.5 1c-3.68 0-3.46 3.72.25 4.28 2.56.39 2.52.43-.5.57-3.08.14-3.25-.04-3.25-3.35m-2.41-6.13c-.33-.86.16-1.37 1.29-1.37.99 0 2.62-.9 3.62-2 1.03-1.14 1.31-2 .65-2-.63 0-1.15-.4-1.15-.89 0-.98 5.67-.78 6.69.24.35.35.08.65-.62.65-1.42 0-6.21 3.52-5.61 4.12.22.22-.67.9-1.97 1.51-1.87.88-2.48.83-2.9-.26m16.16-6.08c1.24-.24 3.26-.24 4.5 0s.22.43-2.25.43c-2.48 0-3.49-.19-2.25-.43m-32.77 8.96c.01-3.52-.42-6.25-.98-6.25-.58 0-.99 3.23-.98 7.75.01 5.37.31 7.28.98 6.25.53-.83.98-4.32.98-7.75m4.74 7.62c1.4-1.39.55-3.87-1.33-3.87-.82 0-1.39 1.02-1.39 2.5 0 2.69.93 3.16 2.72 1.37m7.2-5.61c.23-.15-.79-.26-2.25-.26-2.07 0-2.67.48-2.67 2.15 0 2.13.03 2.13 2.25.26 1.24-1.04 2.44-2.01 2.67-2.15m26.08 3.1c0-.78-3.2-3.29-4.25-3.33-.41-.02-.75.87-.75 1.97 0 1.46.67 2 2.5 2 1.37 0 2.5-.29 2.5-.64m11-1.31c0-1.06-.45-2.22-1-2.55-.57-.36-1 .48-1 1.94 0 1.4.45 2.56 1 2.56s1-.88 1-1.95m-140.64-2.55c.35-.92 0-1.5-.89-1.5-.81 0-1.47.67-1.47 1.5 0 1.94 1.62 1.94 2.36 0m129.14.5c-.79-1.29-1.5-1.29-1.5 0 0 .55.48 1 1.06 1s.78-.45.44-1m-119-1c1.77-.77 1.69-.87-.75-.93-1.51-.04-2.75.38-2.75.93 0 1.17.77 1.17 3.5 0m131.5-4.54c0-2.55-4.47-17.46-5.23-17.46-.54 0-.77.56-.51 1.25.26.68 1.29 4.73 2.29 9 1 4.26 2.18 7.75 2.63 7.75s.82-.25.82-.54m-49-12.96c0-5-.41-8.5-1-8.5s-1 3.5-1 8.5.41 8.5 1 8.5 1-3.5 1-8.5m-4.2 6.96c-.84-.84-20.8-2.18-20.8-1.4 0 1.43 1.65 1.7 11.26 1.87 5.6.09 9.89-.12 9.54-.47m-65.8-3.21c0-.42 5.62-.62 12.5-.45l12.5.31v-8.62c0-4.74-.35-8.4-.77-8.14s-6.27 1.03-13 1.7c-6.73.68-12.23 1.64-12.23 2.15s-2.81.84-6.25.75c-3.44-.1-7.04-.13-8-.07-2.38.16-2.24 2.12.16 2.12 1.46 0 1.78.51 1.37 2.25-.3 1.23-1.24 2.81-2.1 3.5-1.05.84-1.15 1.25-.3 1.25.8 0 1.03.72.62 2-.6 1.88-.18 2 7.43 2 4.44 0 8.07-.34 8.07-.75m-13.45-5.5c1.25-4.07 2.47-4.77 7.84-4.51l5.15.26-.38 3.25-.38 3.25h-6.46c-6.23 0-6.43-.08-5.77-2.25m11.45-.81c0-1.83-.53-2.02-4.74-1.75-3.57.23-4.82.74-5.07 2.06-.29 1.48.44 1.75 4.74 1.75 4.45 0 5.07-.26 5.07-2.06m17 .06c0-2.67.33-3 3-3s3 .33 3 3c0 2.66-.33 3-3 3s-3-.34-3-3m136.25 6.33c-.69-.27-1.81-.27-2.5 0-.69.28-.13.51 1.25.51 1.37 0 1.94-.23 1.25-.51m154.57-4.83 6.31-5.5h-4.55c-4.45 0-4.6.1-7.06 4.96-4.04 7.97-3.31 8.04 5.3.54m10.49.05-2.67-5.44-4.67 3.91c-8.36 7-8.37 6.98 1.4 6.98h8.61zm7.06 3.2c.33-1.24.61-3.72.62-5.5.01-3.19-.08-3.25-4.46-3.25-4.93 0-4.89-.3-1.06 7.25 2.15 4.24 4.01 4.81 4.9 1.5m26.02-7.95c-.46-5.12-.78-9.87-.72-10.55.14-1.63-1.36-1.63-1.98 0-.74 1.93.47 17.02 1.53 19.08 1.69 3.29 2.02.94 1.17-8.53m-319.89 8.2c-.8-1.3-3.5-1.3-3.5 0 0 .55.93 1 2.06 1s1.78-.45 1.44-1m31.5.04c3.02-.42 4.82-.83 4-.92-1.33-.14-1.33-.27 0-1.19 1.63-1.13-13.32-.74-18 .46-2.1.54-2.18.49-.5-.3 1.46-.7-.14-.97-5.92-1.02-4.35-.04-7.67-.32-7.38-.61.3-.3 7.8-.53 16.67-.52 15.2.01 16.13-.1 16.13-1.89 0-1.05-.79-2.11-1.75-2.37-1.67-.43-1.67-.46 0-.57 3.17-.21 2.01-3.11-1.25-3.11-1.65 0-3 .45-3 1 0 .57-2.99 1-6.97 1-5.78 0-6.87-.26-6.39-1.5.53-1.4-2.75-2.02-9.39-1.77-.69.02-1.25-.36-1.25-.85 0-.48-.9-.88-2-.88-1.11 0-2 .66-2 1.5 0 .82-.5 1.5-1.11 1.5s-.85-.67-.54-1.47c.69-1.81-.64-2.75-2.76-1.93-1.18.45-1.59 1.99-1.59 6 0 4.73.25 5.4 2 5.4 1.1 0 2.01-.57 2.02-1.25.01-.86.3-.8.93.2.5.8.72 1.77.47 2.17-.24.4.35.93 1.32 1.18 1.66.44 1.66.47.01.58-.96.06-1.75.57-1.75 1.12 0 1.17 21.62 1.2 30 .04m-8.27-1.7c.68-.27 2.03-.29 3-.04.97.26.42.48-1.23.5s-2.45-.19-1.77-.46m-22.73-7.34c0-1.1.45-2 1-2s1 .9 1 2-.45 2-1 2-1-.9-1-2m9 1c0-.55.93-1 2.06-1s1.78.45 1.44 1c-.8 1.29-3.5 1.29-3.5 0m19.75-.67c.69-.27 1.81-.27 2.5 0 .69.28.12.51-1.25.51-1.38 0-1.94-.23-1.25-.51m41.66 8.11c2-2 4.28-1.98 2.61.03-1.06 1.27-.51 1.41 4.04 1.01 6.35-.56 7.77-1.47 2.36-1.52-2.16-.01-4.79-.69-5.86-1.5-1.88-1.42-1.86-1.47.5-1.48 1.94-.01 2.13-.21.94-.98-1.24-.8-1.14-.98.55-.99 2.01-.01 4.45-1.73 4.45-3.12 0-.39-4.61-.96-10.25-1.27s-13.85-.94-18.25-1.41-8.17-.72-8.38-.57c-.86.63 10.35 10.36 11.95 10.36.58 0 .8.4.49.9s-1.46.67-2.55.39c-1.09-.29-1.74-.92-1.44-1.41.53-.86-1.04-1.33-3.07-.92-.55.11-.66-.14-.25-.55 1.06-1.06-2.2-4.41-4.29-4.41-.95 0-1.96.87-2.24 1.94-.41 1.57.1 2.02 2.64 2.34l3.14.39-3.5.3-3.5.29 3.5.74 3.5.73-3.31.13c-1.82.08-3.04.56-2.72 1.09.33.53 6.56.95 14.04.95 10.39-.01 13.79-.34 14.9-1.46m-14.7-8.18c2.87-.2 7.82-.2 11-.01 3.19.2.84.37-5.21.37s-8.65-.16-5.79-.36m18.54.05c.96-.26 2.54-.26 3.5 0 .96.25.17.45-1.75.45-1.93 0-2.71-.2-1.75-.45m-25-2c.96-.26 2.54-.26 3.5 0 .96.25.17.45-1.75.45-1.93 0-2.71-.2-1.75-.45m6.02.08c.33-.33 1.2-.37 1.92-.08.8.32.56.56-.61.61-1.05.04-1.64-.2-1.31-.53m216.61.97c2.85-5.86 4.91-10.91 4.59-11.23-.6-.59-12.75-3.28-12.97-2.86-.07.12-1.75 2.48-3.73 5.23-4.87 6.75-9.15 10.69-16.12 14.87l-5.85 3.51 5.35.37c2.94.21 9.45.46 14.45.56l9.11.19zm-156.63 8.89c-5.09-.18-13.41-.18-18.5 0s-.93.33 9.25.33c10.17 0 14.34-.15 9.25-.33m-116-1.92c-.69-.27-1.81-.27-2.5 0-.69.28-.13.51 1.25.51 1.37 0 1.94-.23 1.25-.51m82-.04c-1.24-.24-3.26-.24-4.5 0s-.23.43 2.25.43c2.47 0 3.49-.19 2.25-.43m27-.04c-3.99-.19-10.51-.19-14.5 0s-.73.35 7.25.35c7.97 0 11.24-.16 7.25-.35m-153.25-2.94c0-2-4.25-1.28-4.55.77-.17 1.18.4 1.48 2.16 1.14 1.32-.25 2.39-1.11 2.39-1.91m125.73.99c-.97-.25-2.32-.23-3 .04s.12.48 1.77.46 2.2-.24 1.23-.5m20.49-.04c-2.91-.21-7.41-.2-10 0-2.6.21-.22.37 5.28.37s7.62-.17 4.72-.37m-.22-1.82c-3.69-.8-14-.99-14-.26 0 .45 3.49.76 7.75.7s7.07-.26 6.25-.44m-16-2.44c0-.55-.7-1-1.56-1s-1.28.45-.94 1c.8 1.29 2.5 1.29 2.5 0m-41.81-.69c-.72-.29-1.59-.25-1.92.08s.26.57 1.31.53c1.17-.05 1.41-.29.61-.61m63.54-1.04c-2.08-.22-5.23-.22-7 0-1.78.22-.08.4 3.77.4 3.85-.01 5.3-.19 3.23-.4m187.77-4.27v-4.5l-7.43-.75c-4.08-.4-7.57-.59-7.74-.42-.17.18.61 2.24 1.75 4.59 1.13 2.35 1.87 4.45 1.65 4.68-.23.23-1.23-1.39-2.23-3.59-.99-2.21-2.1-4.01-2.45-4.01-.36 0-1.3 1.68-2.09 3.75-.8 2.06-1.6 4.07-1.78 4.46-.18.4 4.32.62 10 .5l10.32-.21zm-5.5.05c2.47-2.14 4.65-3.74 4.83-3.56.52.53-7.22 7.45-8.33 7.45-.55 0 1.02-1.75 3.5-3.89m-266 2.95c-.83-.54-2.18-.95-3-.92-.99.04-.82.35.5.92 2.75 1.18 4.33 1.18 2.5 0m57.47-5.19c-3.09-9.44-4.11-10.81-8-10.81-1.91 0-3.47.45-3.47 1s.51 1 1.12 1c.7 0 .92 1.05.57 2.79-.31 1.53-.3 4.66 0 6.95l.56 4.16 5.13.3c2.81.16 5.28.21 5.47.11.2-.1-.43-2.58-1.38-5.5m13.83 4.85c-.44-.73-3.02-4.33-5.74-8-4.11-5.54-5.43-6.66-7.84-6.66-1.91 0-2.71.42-2.38 1.25.29.68 1.54 4.28 2.79 8l2.26 6.75h5.86c4.61 0 5.68-.29 5.05-1.34m-127.55-.35c-.96-.26-2.54-.26-3.5 0-.96.25-.18.45 1.75.45 1.92 0 2.71-.2 1.75-.45m74.25-.31c0-.55-.68-1-1.5-1-.83 0-1.5.45-1.5 1s.67 1 1.5 1c.82 0 1.5-.45 1.5-1m24.26-.71c-1.23-.24-3.48-.24-5-.01s-.51.42 2.24.43 3.99-.18 2.76-.42m40.99.04c-.69-.27-1.81-.27-2.5 0-.69.28-.13.51 1.25.51 1.37 0 1.94-.23 1.25-.51m-55.39-1c-1.3-.35-1.64-1.75-1.64-6.76v-6.31l3.39.76c2.6.59 3.39.44 3.39-.63 0-.85-1.07-1.4-2.75-1.41-1.51 0-4.33-.25-6.25-.55-2.99-.46-4.66.21-11.39 4.57-4.61 2.98-7.52 5.48-7 6 1.04 1.03 18.31 4.69 22.39 4.74 1.11.02 1.07-.09-.14-.41m-12.82-2.94c.03-.49 2.32-3.37 5.1-6.39 2.78-3.03 4.67-4.78 4.21-3.9-1.25 2.36-9.36 11.33-9.31 10.29m18.21 2.94c-.69-.27-1.81-.27-2.5 0-.69.28-.13.51 1.25.51 1.37 0 1.94-.23 1.25-.51m-27.85-1.76c-1.71-.75-3.39-2.11-3.75-3.05-.97-2.53-.78-5.52.35-5.52.55 0 1-.45 1-1s-1.35-1-3-1q-3 0-3 1.5c0 .82.56 1.5 1.25 1.51.89.01.92.23.13.75-.62.4-1.44 2.16-1.82 3.9-.78 3.62-.02 4.05 7.44 4.18l4.5.08zm-14.4-.49c0-.51-.56-1.15-1.25-1.42-1-.41-1-.52 0-.59.69-.04 1.25-.55 1.25-1.13 0-.59-.36-.84-.8-.57s-1.45.08-2.25-.43c-1.01-.64-.17-.92 2.8-.93 3.86-.01 4.25-.24 4.25-2.51 0-2.81-1.93-3.49-2.12-.75-.11 1.66-.13 1.66-.57 0-.62-2.38-7.52-2.43-9.44-.06-.75.93-.86 1.38-.23 1.01.65-.39 1.35.16 1.65 1.31.57 2.15-.8 2.78-1.63.74-.28-.69-.54 0-.58 1.53-.06 1.99.56 3.04 2.17 3.68 2.98 1.2 6.75 1.27 6.75.12m4-.64c0-.25-.7-.44-1.56-.44s-1.28.45-.93 1.01c.57.92 2.49.48 2.49-.57m43.75-.13c-.96-.26-2.54-.26-3.5 0-.96.25-.18.45 1.75.45 1.92 0 2.71-.2 1.75-.45m-57.77-3.56c-.01-1.82-.2-1.97-.98-.75-1.25 1.93-1.25 3 0 3 .55 0 .99-1.02.98-2.25m14.02 1.25c0-.55-.68-1-1.5-1-.83 0-1.5.45-1.5 1s.67 1 1.5 1c.82 0 1.5-.45 1.5-1m50.5 0c-.8-1.3-3.5-1.3-3.5 0 0 .55.93 1 2.06 1s1.78-.45 1.44-1m-33.4-5.75c4.32-2.62 7.86-5.09 7.87-5.49.02-.4-3.79 1.17-8.46 3.5s-8.5 4.8-8.5 5.49c-.01 1.87.58 1.64 9.09-3.5m271.15 4.08c-.69-.27-1.81-.27-2.5 0-.69.28-.13.51 1.25.51 1.37 0 1.94-.23 1.25-.51m7.58-5.46c-1.1-.7-1.09-.85.04-.86.87-.01 1.17-.74.84-2.01-.29-1.1-.11-2 .38-2 .5 0 .91 2.47.91 5.5 0 3.02.44 5.5.99 5.5 1.06 0 .26-13.61-1.06-18-.75-2.46-.76-2.45-.96.5-.12 1.65-.13 3.56-.04 4.25.08.68-.24 1.25-.72 1.25-1.65 0-2.19-1.32-1.08-2.66.61-.73.89-2.46.63-3.84-.27-1.38-.1-2.5.38-2.5 1.58 0 .88-1.65-2.27-5.34-2.71-3.18-3.7-3.66-7.5-3.66-3.04 0-4.98.6-6.37 2-2 2-2 2 3.25 2.17 5.02.17 5.06.19 1 .56-3.41.3-4.25.76-4.25 2.32 0 1.68.79 1.97 5.75 2.13l5.75.19-5.75.36c-4.19.27-5.75.76-5.75 1.81 0 .8.56 1.46 1.25 1.47.9.01.86.26-.14.89-.85.54-1.19 1.89-.89 3.49.35 1.83.07 2.61-.93 2.61-1.22 0-1.21.21.05 1.48.81.81 1.27 2.29 1.01 3.27-.4 1.55.71 2.01 7.84 3.27l8.31 1.48.33-2.4c.18-1.31-.27-2.77-1-3.23m-13.16-6.54c-.37-.37-.67-1.13-.67-1.7 0-.63.47-.57 1.18.15.65.65.95 1.41.67 1.7-.28.28-.82.22-1.18-.15m6.5-.21c-1.08-.68-1.03-.97.25-1.45 1-.39 1.58-.07 1.58.86 0 1.7-.06 1.71-1.83.59m-240.41 11.19c-.95-.25-2.75-.26-4-.02-1.24.24-.46.44 1.74.45s3.22-.18 2.26-.43m229.24-.17c0-.96-11.13-2.2-18-2-3.97.11-.81.62 16.75 2.71.69.08 1.25-.24 1.25-.71m4.73.16c-.97-.25-2.32-.23-3 .04s.12.48 1.77.46 2.2-.24 1.23-.5m-296.76-4.8c0-.55-.44-.33-.97.5-.53.82-.97 1.95-.97 2.5s.44.32.97-.5c.53-.83.97-1.95.97-2.5m59.09 1.19c3.37.4 4.94.22 4.94-.56 0-.71-2.05-1.13-5.5-1.13-4.6 0-5.49.28-5.42 1.75.04.96.3 1.21.56.55.34-.82 2.05-1.01 5.42-.61m231.94-9.19c0-6.34-.4-10.5-1-10.5-.55 0-1-.49-1-1.08 0-1.66 2.87-4.13 3.99-3.43.56.34 1.01.41 1.01.15 0-.27.27-1.19.61-2.06.49-1.28-.16-1.58-3.35-1.58-4.9 0-12.48 3.84-12.86 6.53-.15 1.08-.56 3.91-.91 6.29-.6 4.1-.53 4.27 1.37 3.25 1.54-.83 2.36-.71 3.57.5 1.88 1.88 1.95 2.64.37 4.23-1.45 1.45-4.8 1.59-4.8.2 0-.55-.45-1-1-1s-1 1.77-1 3.94v3.95l4.75.37c2.61.21 5.99.46 7.5.55l2.75.19zm-2.5 5.5c-.34-.55-.14-1 .44-1s1.06.45 1.06 1c0 1.28-.71 1.28-1.5 0m-13.98 1.51c.42-1.93 2.48-17.07 2.48-18.21 0-1.55-3.88 3.09-9.13 10.89-3.23 4.8-5.87 8.87-5.87 9.03 0 .17 2.72.31 6.04.31 5.24 0 6.1-.27 6.48-2.02m-263.52-1.07c0-1.2-5.69-2.38-7.89-1.65-2.23.74-1.03 2.09 2.14 2.4 5.51.54 5.75.51 5.75-.75m4 .56c0-.55-.68-1-1.5-1-.83 0-1.5.45-1.5 1s.67 1 1.5 1c.82 0 1.5-.45 1.5-1m10 0c-1.98-1.28-8-1.28-8 0 0 .55 2.14.99 4.75.98 3.44-.01 4.33-.28 3.25-.98m57.5 0c-.34-.55-1.15-1-1.81-.99-.71.01-.59.4.31.99 1.92 1.24 2.27 1.24 1.5 0m-4.61-1.01c-4.88-2.85-30.44-5.05-35.39-3.04-1.69.68-1.42.92 1.77 1.54 4.46.87 20.74 2.17 29.23 2.33 4.17.08 5.51-.17 4.39-.83m204.11-4.94c0-1.29-1.16-1.93-2.53-1.4-.74.28-1.11 1.12-.82 1.86.51 1.34 3.35.95 3.35-.46m18.08-18.15c-1.6-.64-2.77-.62-3.45.06-.71.71.05 1.02 2.42.97 3.24-.06 3.3-.12 1.03-1.03m-301.44 18.6c.74-1.93 1.36-1.93 1.36 0 0 .82-.44 1.5-.97 1.5s-.71-.68-.39-1.5m.44-4.92c-.04-1.06.19-1.65.52-1.31.34.33.37 1.19.08 1.91-.32.8-.55.56-.6-.6m55.17-.27c.96-.26 2.54-.26 3.5 0 .96.25.17.45-1.75.45-1.93 0-2.71-.2-1.75-.45m34.02-1.92c.33-.33 1.2-.37 1.92-.08.8.32.56.56-.61.61-1.05.04-1.64-.2-1.31-.53m-89.27-2.45c0-1.14.43-1.8.96-1.47.52.32.7 1.25.39 2.06-.79 2.06-1.35 1.82-1.35-.59m111.26 1.34c1.52-.23 3.77-.23 5 .01s-.01.43-2.76.42-3.76-.2-2.24-.43m18.49-.99c1.24-.24 3.26-.24 4.5 0s.22.43-2.25.43c-2.48 0-3.49-.19-2.25-.43m32.25-1.24c0-.58.45-1.05 1-1.05 1.28 0 1.28.7 0 1.5-.55.33-1 .14-1-.45m3.75-.72c.69-.27 1.81-.27 2.5 0 .69.28.12.51-1.25.51-1.38 0-1.94-.23-1.25-.51m21-1.04c1.24-.24 3.26-.24 4.5 0s.22.43-2.25.43c-2.48 0-3.49-.19-2.25-.43m20.01-1c1.25-.24 3.05-.23 4 .02.96.25-.06.44-2.26.43s-2.98-.21-1.74-.45m-206-2.79c-.3-1.57-.03-2.5.74-2.5.76 0 1.04.93.74 2.5-.6 3.14-.88 3.14-1.48 0m244.97.84c.68-.27 2.03-.29 3-.04.97.26.42.48-1.23.5s-2.45-.19-1.77-.46m24.54-.95c.33-.33 1.2-.37 1.92-.08.8.32.56.56-.61.61-1.05.04-1.64-.2-1.31-.53" style="fill:#8c8c8c" transform="translate(531.777 -200.689)"/><path d="M-399.28 302.64c-50.33-1.57-71.69-2.83-84.5-5-21.14-3.6-35.71-8.64-40.62-14.08-9.24-10.21-9.67-24.74-.85-28.42 4.01-1.68 8.9-2 6.47-.42-.9.58-1.02.97-.31.98.66.01 1.47-.43 1.81-.98s2.78-1 5.41-1c2.64 0 7.47-.28 10.74-.63 5.58-.58 6.06-.84 7.98-4.35l2.05-3.74-2.88-5.68c-1.58-3.12-3.3-5.41-3.84-5.08-.53.32-.96.12-.96-.47 0-.58.9-1.05 2-1.05s2 .42 2 .93c0 .52 1.24 2.98 2.75 5.47 2.39 3.94 3.2 4.54 6.17 4.56 5.5.05 2.74 1.52-3.67 1.95-1.79.12-1.55 2.09.25 2.09.82 0 1.5.4 1.5.9s-.85.69-1.89.41c-1.84-.48-3.36.92-3.74 3.44-.11.69.84 1.51 2.1 1.83 1.64.41 2.16 1.11 1.81 2.44-.43 1.64.23 1.91 5.37 2.23l5.85.37-5.75.19c-5.68.18-5.75.22-5.75 3.19 0 2.83.22 3 4 3 2.2 0 4 .45 4 1s.67 1 1.5 1c.82 0 1.5.38 1.5.86 0 .47-1.12.64-2.49.38s-2.24-.87-1.94-1.36-1.32-.88-3.59-.88c-2.87 0-4.02.38-3.73 1.25.45 1.34.81 1.43 6.42 1.62 2.01.07 3.36.42 3 .79-.37.36-2.47.59-4.67.51-2.25-.09-4 .3-4 .9 0 .63.87.78 2.13.39 1.34-.43 1.89-.3 1.48.35-.35.57-1.94 1.32-3.54 1.67s-3.15 1.28-3.46 2.08c-.3.79-1.67 1.44-3.04 1.44-3.09 0-5.12-3.23-3.64-5.77.96-1.64 1.01-1.64 1.04.02.03 1.96 1.55 2.33 2.6.63.38-.61.07-1.5-.69-1.98-1.51-.95-.72-1.2 3.12-.96 2.38.14 2.52-.15 2.81-5.9l.31-6.04h-36.89l-1.62 3.4c-1.89 3.99-1.89 4.03-.59 8.71.86 3.12 1.79 3.97 6.74 6.14 17.23 7.57 40.34 12.51 70.74 15.15 3.3.28 22.42 1.43 42.5 2.54 20.07 1.11 39.09 2.27 42.25 2.59 4.77.47 5.75.3 5.75-.99 0-1.14-1.05-1.54-4.01-1.54-2.2 0-8.39-.65-13.75-1.43-5.36-.79-15.37-1.92-22.24-2.53-25.78-2.26-33.28-7.05-14.59-9.31l8.59-1.05v-20.76l-33.91.29c-18.65.16-33.38-.05-32.75-.45.64-.4 6.67-.74 13.41-.75l12.25-.01.18-5.25.19-5.25.37 5.25.36 5.25h39.9v-14h-3.03c-1.77 0-3.27.62-3.61 1.5-.65 1.68-4.36 2.07-4.36.45 0-.65-1.31-.8-3.49-.39-2.7.5-3.63.29-4.11-.96-.46-1.2-1.97-1.6-5.96-1.6-4.23 0-5.87-.5-7.89-2.37-1.4-1.3-2.51-2.99-2.47-3.75.06-1.01.21-1.05.58-.13.8 1.97 2.34 1.45 2.34-.8 0-1.12-.56-1.97-1.25-1.88-3.56.46-4.01-.03-2.34-2.57 1.58-2.42 1.55-2.51-.64-2.62-2.04-.11-2.07-.17-.27-.62 1.1-.27 2.33-1.01 2.73-1.63.53-.81.74-.78.75.12.03 2.06 1.75 1.4 2.35-.9.51-1.97 1-2.09 6.06-1.5 3.45.41 6.47.21 8.07-.52 2.17-.99 2.78-.89 3.86.58.84 1.16 2.28 1.64 4.23 1.42 2.64-.3 2.95-.7 2.95-3.83 0-3.5.4-4.07 2.75-3.93 1 .07 1 .18 0 .59-1.34.54-1.79 8.34-.48 8.34.42 0 4.13-1.42 8.23-3.14 7.17-3.01 7.87-3.12 17.49-2.56 22.35 1.3 32.28 5.17 47 18.29l10 8.91-4.49.5-4.49.5 4 1.74c8.81 3.86 21.19 5.91 34.89 5.78 7.2-.07 28.49-.12 47.31-.12 28.19.01 35.13-.26 39.5-1.56 13.64-4.05 20.68-10.18 33.77-29.39 4.66-6.85 10-14.14 11.86-16.2 1.87-2.07 3-3.77 2.53-3.8-.92-.05 5.07-2.42 10.12-4.01 7.12-2.25 15.4-.31 20.85 4.86 4.3 4.08 5.52 7.19 6.63 16.85 1.68 14.67 2.53 13.35-8.47 13.35h-9.5v3.5c0 1.92-.45 3.5-1 3.5s-1 2.64-1 5.93c0 5.7.11 5.95 2.75 6.35 2.56.39 2.52.43-.5.57l-3.25.15v-7c0-4 .43-7 1-7 .55 0 1-1.35 1-3 0-4.6-1.66-3.57-2.84 1.75l-1.05 4.75.22-4.26c.16-3.09-.19-4.37-1.3-4.69-3.05-.87-15.03-1.77-15.03-1.13 0 .66 3.92 8.72 4.62 9.49.2.22 2.73-1.5 5.62-3.83l5.26-4.24-4.97 4.58-4.98 4.58 2.98.14 2.97.15-2.75.42c-3.1.47-3.15.58-1.69 3.6 1.01 2.11 1 2.12-.5.24-.86-1.06-1.56-2.36-1.56-2.87s-.76-.31-1.69.44c-.96.78-1.39.86-.99.2.44-.74-.14-1.35-1.56-1.62-1.96-.38-1.9-.45.48-.57l2.73-.13-2.18-4.5c-1.2-2.48-2.49-4.5-2.87-4.5-.37 0-1.24 1.46-1.93 3.25-.69 1.78-2.77 6.26-4.62 9.94-1.85 3.69-3.37 6.95-3.37 7.25 0 1.57 2.62.06 7.29-4.19l5.21-4.75-4.5 5.13c-5.1 5.81-6.98 7-8.15 5.15-.45-.71-.83-.81-.83-.23-.01.57.52 1.59 1.18 2.25.93.93.88 1.21-.25 1.27-.8.04-2.24.23-3.2.41-2.27.44-2.27-1.04 0-2.06 5.05-2.27-6.95-2.6-132.25-3.6-15.91-.13-21.3-.41-16-.82l8-.64-8.5-.32c-7.08-.27-7.83-.45-4.5-1.04 2.59-.47-.99-.77-10.16-.86-13.69-.14-14.14-.08-13.63 1.86.42 1.6 1.45 2.03 5.16 2.17l4.63.17-4.34.39c-3.87.35-4.29.63-3.87 2.58 4.03 18.65 5.1 21.74 7.65 22.26 1.41.28 7.51 2.03 13.56 3.89 7.68 2.36 12.21 3.24 15 2.9 2.2-.26 10.52-1.34 18.5-2.39 15.77-2.07 31.91-3.33 26-2.02-7.73 1.72.47.91 16.94-1.66 12.53-1.96 16.76-2.95 15-3.5-1.64-.51-1.08-.61 1.71-.28 2.28.26 6.33.16 9-.22 4.6-.67 4.7-.74 1.85-1.45-1.96-.49-.92-.61 3-.35 3.81.26 5.09.12 3.5-.38-2.14-.67-1.73-.89 2.81-1.55 2.93-.42 5.59-.5 5.92-.17s-.9.61-2.73.61-3.07.26-2.75.58 3.21.23 6.42-.2c5.26-.7 5.54-.84 2.83-1.53-2-.51-.99-.63 3-.36 4.42.3 5.34.17 3.5-.51-1.87-.68-1.11-.81 3-.48 3.5.27 4.59.14 3-.35-2.17-.68-1.87-.87 2.35-1.46 2.67-.38 6.72-.47 9-.21 3.39.4 3.69.31 1.65-.47-1.92-.72-1.22-.84 3-.51 4.19.32 4.9.2 3-.51-1.87-.71-.99-.84 3.5-.52 4.4.32 5.33.18 3.5-.49-1.85-.68-1.08-.79 3-.45 4.07.34 4.98.2 3.5-.53-1.48-.74-.58-.88 3.5-.54 4.19.35 4.91.24 3-.49-2.15-.81-1.98-.89 1.25-.52 2.24.25 3.75-.01 3.75-.64 0-.68.52-.62 1.46.15.8.66 1.82.98 2.26.71.45-.28 5.3-1.25 10.79-2.18 5.5-.92 11.01-2.32 12.27-3.12 2.11-1.35 2.16-1.62.75-3.64-.9-1.28-1.47-4.05-1.39-6.71l.14-4.52.63 5.18c.35 2.86.93 5.49 1.3 5.85 1.89 1.9 2.3-1.36 1.3-10.47-.61-5.54-.81-10.06-.44-10.06s1 4.16 1.39 9.25c.4 5.08 1.18 9.8 1.75 10.49 1.27 1.54-1.95 4.56-7.71 7.22-5.14 2.38-7.75 2.88-84.38 16.44-35.41 6.27-64.66 11.82-65 12.35-.34.52-5.35 1.26-11.12 1.63-15.03.97-47.7 4.35-60 6.2-14.45 2.18-18.65 2.29-49.5 1.34m39.16-6.19c-.28-.68-.49.12-.47 1.77.03 1.65.25 2.2.5 1.23.26-.98.24-2.33-.03-3m15.34-3.19c9.13-1.1 9.72-1.28 4.5-1.34-3.3-.04-9.38.51-13.5 1.23-9.63 1.68-4.56 1.75 9 .11m66.66-5.81c-.28-.68-.49.12-.47 1.77.03 1.65.25 2.2.5 1.23.26-.98.24-2.33-.03-3m-73.7-7.71c-1.29-5.51-2.73-10.02-3.21-10.02-.49 0-.65.78-.36 1.75.29.96 1.5 5.7 2.7 10.53 1.19 4.83 2.4 8.56 2.68 8.27.29-.28-.53-5.02-1.81-10.53m22.49 10.07c-1.09-1.04-15.24-5.09-17.76-5.09-1.21 0-1.69.85-1.69 3v3h10.2c6.1 0 9.82-.37 9.25-.91m-31.84-1.25c-2.63-1.53-20.02-5.45-30.55-6.89-13.07-1.79-26.32-.59-22.13 2 1.92 1.19 14.97 3.03 22.36 3.15 3.42.05 11.38.66 17.71 1.35 15.46 1.69 14.82 1.67 12.61.39m9.39.32c0-.46-.34-1.17-.75-1.58s-.81-1.16-.88-1.67c-.06-.5-.18-1.36-.25-1.9-.06-.55-1.13-1-2.37-1.01-1.24-.02-4.95-.44-8.25-.95-5.93-.92-5.9-.92 2.15-.53 7.56.37 8.11.26 7.65-1.47-.27-1.03-1.34-2.09-2.39-2.37-2.04-.53-2.66-4.53-.96-6.23.59-.6.31-3.09-.75-6.7l-1.7-5.75h-7c-5.8 0-7.49.4-9.88 2.31l-2.87 2.3 3.2 2.69c1.76 1.48 2.83 2.7 2.37 2.7s-2.07-1.15-3.58-2.55l-2.74-2.54-2.74 2.54c-1.51 1.4-3.12 2.55-3.58 2.55s.61-1.22 2.37-2.7l3.2-2.69-2.68-2.31c-2.31-1.99-3.77-2.3-10.63-2.3h-7.94v12.21l3.5-.4c1.92-.23 3.5-.09 3.5.31s.79.93 1.75 1.19c1.08.28.69.5-1 .57-2 .08-2.75.64-2.75 2.03 0 1.06.56 2.15 1.25 2.42.79.32.65.54-.38.59-.9.04-1.87-.82-2.16-1.92-.59-2.27-3.71-2.76-3.71-.59 0 .78-.28 2.16-.63 3.06-.48 1.27-.08 1.59 1.75 1.43 5.78-.52 30.88.17 30.88.85 0 .41-3.71.65-8.25.54l-8.25-.21 9 1.9c4.95 1.04 12.6 3 17 4.35 9.4 2.89 9.5 2.91 9.5 1.83m-12.53-11.21c-.35-.57-1.61-.76-2.8-.43-1.56.44-1.78.34-.79-.35.76-.52 1.07-1.45.69-2.06-1.16-1.88-.04-1.24 2.43 1.39 1.29 1.37 2.07 2.5 1.73 2.5s-.9-.47-1.26-1.05m-21.11-2.86c.11-2.69.6-3.48 2.34-3.74 1.21-.18 2.47.12 2.81.66.34.55-.5.99-1.88.99-1.95 0-2.6.6-2.95 2.75-.36 2.14-.43 1.99-.32-.66m13.31 2.24c-.37-.37-.67-2.09-.67-3.83 0-2.94.2-3.13 3.01-2.72 2.94.44 5.19 2.03 2.73 1.94-4.23-.15-4.97.31-4.5 2.78.52 2.68.46 2.86-.57 1.83m92.33 10.93c0-1.12-1.4-1.25-7.25-.7-14.23 1.34-15.82 2.2-4 2.14 8.91-.04 11.25-.34 11.25-1.44m-139-5.26c1.19-.77.98-.97-1-.97-1.38 0-3.18.43-4 .97-1.19.76-.98.96 1 .96 1.37 0 3.17-.43 4-.96m14-10.45c0-4.09-.45-7.72-1-8.05-.64-.4-1 2.32-1 7.44 0 4.7.42 8.06 1 8.06s1-3.15 1-7.45m-91 3.45c0-.55-.48-1-1.06-1s-.78.45-.44 1c.79 1.28 1.5 1.28 1.5 0m140-.95c0-1.06-.45-2.22-1-2.55-.57-.36-1 .48-1 1.94 0 1.4.45 2.56 1 2.56s1-.88 1-1.95m165.73-1.75c-.97-.25-2.32-.23-3 .04s.12.48 1.77.46 2.2-.24 1.23-.5m-300.73-1.3c0-.55-.48-1-1.06-1s-.78.45-.44 1c.79 1.28 1.5 1.28 1.5 0m136-4.54c0-2.34-4.44-17.46-5.12-17.46-1.17 0-1.19-.17 1.24 9.53 1.17 4.66 2.52 8.47 3 8.47.49 0 .88-.25.88-.54m-49-12.96c0-4.68-.39-8.5-.87-8.5-.9 0-2.23 14.92-1.45 16.25 1.47 2.5 2.32-.33 2.32-7.75m26 6c1.07-1.3.66-1.5-3-1.5s-4.07.2-3 1.5c1.59 1.92 4.41 1.92 6 0m205.85-12.48c2.83-6.03 5.15-11.33 5.15-11.77 0-.74-13.01-3.67-13.48-3.04-.11.16-2.05 2.83-4.32 5.93-4.66 6.4-10.62 11.56-17.2 14.89-2.48 1.26-4 2.45-3.38 2.66.9.31 10.61 1.12 25.98 2.16 1.74.12 3-1.75 7.25-10.83m-200.38 8.17c1.89-1.6 1.92-1.6.64.06-1.26 1.62-.91 1.75 4.76 1.75 5.8 0 6.1-.12 5.7-2.25-.23-1.24-.45-2.54-.5-2.9-.21-1.86-3.61-1.69-5.73.29-1.29 1.21-2.34 1.84-2.34 1.4 0-1.87 4.4-4.55 6.41-3.91 1.75.55 1.88.42.84-.83-.68-.82-1-1.72-.72-2s-3.44-.8-8.26-1.15-13.47-1.08-19.21-1.62c-5.75-.54-10.64-.79-10.88-.55-.39.39 4.52 4.97 7.19 6.71.59.38.84.92.56 1.2-.27.28-1.92-.82-3.66-2.44-1.74-1.63-3.55-2.95-4.02-2.95-.48 0-.93 2.45-1.01 5.46l-.14 5.46 14.19-.02c11.85-.02 14.51-.3 16.18-1.71m-19.07-1.34c-1.89-2.13-1.89-2.13.35-.76 1.24.76 2.25 1.73 2.25 2.15 0 1.2-.56.9-2.6-1.39m49.85-2.59c-2.89-.2-7.61-.2-10.5 0s-.53.37 5.25.37c5.77 0 8.14-.17 5.25-.37m-7.08-3.53c-6.25-1.77-7.47-1.87-8.24-.66-1.67 2.65-.95 2.93 7.32 2.84l8.25-.09zm-10.17-.73c0-.55-.7-1-1.56-1s-1.28.45-.94 1c.8 1.29 2.5 1.29 2.5 0m26-1.17c0-.46-3.38-.83-7.5-.83h-7.5l-4.75-6.16c-2.61-3.39-5.43-7.02-6.26-8.06-1.14-1.44-3.27-2.04-8.75-2.46-4.99-.39-7.24-.21-7.24.56 0 .61.34 1.12.75 1.12.61 0 .72 5.05.28 12.5-.03.55-.45.37-.93-.38-.48-.76-1.4-1.06-2.03-.67-.64.4-5.08.39-9.86-.01-5.86-.49-8.06-.99-6.71-1.52 1.69-.66 1.73-.8.25-.85-2.52-.11-2.15-1.86.5-2.37 2.23-.43 2.23-.43.07-.57-1.83-.11-2.15-.69-2-3.63.16-3.08.5-3.5 2.87-3.5 1.48 0 2.95.42 3.27.93s2.21.67 4.21.34c2.62-.42 3.44-.26 2.93.57-1.08 1.74 2.28 1.42 4.09-.39 1.99-2 1.81-2.11-4.44-2.68-3.45-.32-5.26-.1-5.27.62-.01.77-.24.75-.75-.04-.93-1.46-6.28-2.06-8.14-.91-.95.59-1.17.5-.69-.29.43-.68.08-1.15-.84-1.15-2.58 0-3.03-.15-3.68-1.19-.4-.66-1.25-.65-2.5.03-1.03.57-3.14 1.3-4.67 1.62-1.54.33-2.52 1.03-2.19 1.56.33.54.01 1.04-.71 1.13-.72.08-1.8.2-2.4.26-1.25.13-4.41 3.1-4.41 4.15 0 1.28 5.07 5.43 6.8 5.56.94.07 2.6.28 3.7.46 21.97 3.64 44.69 5.65 45.73 4.04.55-.83.74-.83.75 0 .02.96 8.15 1.86 26.77 2.97.69.04 1.25-.3 1.25-.76m-68.5-12.83c1-1.1 2.03-2 2.31-2 .27 0-.31.9-1.31 2s-2.04 2-2.31 2c-.28 0 .31-.9 1.31-2m-20.5 10.6c0-.21-.68-.65-1.5-.97-.83-.31-1.5-.14-1.5.4 0 .53.67.97 1.5.97.82 0 1.5-.18 1.5-.4m19-.6c0-.55-.93-1-2.06-1s-1.78.45-1.44 1c.8 1.29 3.5 1.29 3.5 0m62.86-3.25c-9.54-8.89-12.29-10.75-15.88-10.75h-2.14l2.28 3.75c1.25 2.06 2.53 3.97 2.85 4.25.32.27 1.34 1.7 2.28 3.18 1.71 2.68 3.63 3.28 11.71 3.65l3.47.17zm-71.86 1.25c0-.55-.61-1-1.37-1-.75 0-2.57-.95-4.04-2.11-2.91-2.29-3.16-5.53-.59-7.61 1.24-1.01.88-1.23-2.11-1.25-3.61-.03-3.61-.03-4.23 5.16-.33 2.85-.37 5.43-.07 5.72.29.3 2.87.83 5.72 1.17 2.86.35 5.53.7 5.94.77.41.08.75-.3.75-.85m-17.88-2.75c.11-1.67.13-1.67.57 0 .25.96 1.03 1.75 1.73 1.75.85 0 1.33-1.81 1.45-5.5.11-3.21-.25-5.5-.84-5.5-.57 0-1.07.78-1.11 1.75-.06 1.39-.19 1.44-.65.25-.31-.83-.9-1.73-1.31-2-.41-.28-.11-1.09.65-1.79.8-.75 1.39-.85 1.39-.25 0 .57.67 1.04 1.5 1.04.82 0 1.5-.42 1.5-.93 0-1.57-11.02-3.46-12.35-2.13-.84.85-.8 1.35.19 1.96 1.06.65 1.01.94-.26 1.42-1.15.45-1.58 1.97-1.58 5.56 0 5.35.54 5.91 5.75 6.04 2.42.05 3.28-.37 3.37-1.67m-1.39-3.91c.68-.27 2.03-.29 3-.04.97.26.42.48-1.23.5s-2.45-.19-1.77-.46m51.61 4.41c.34-.84.53-.88.58-.1.05.67.96.93 2.16.61 1.59-.41 1.77-.75.75-1.39-.99-.63-1.02-.85-.08-.86.69-.01 1.25-.91 1.25-2.01 0-1.71-.67-2-4.5-2-2.48 0-4.5-.41-4.5-.91s-.9-.67-1.99-.39c-1.09.29-1.74.92-1.44 1.41s-.04.92-.76.96c-.72.03-.41.45.69.93 1.84.79 1.85.86.14.92-1.25.05-1.66.58-1.26 1.63.34.89.18 1.29-.39.94-.55-.34-.99-.14-.99.45 0 1.53 9.71 1.35 10.34-.19m-4.34-3.25c0-1.09 1.03-1.47 3.75-1.39 2.06.06 2.96.32 1.99.58-.97.25-1.51.87-1.19 1.38.31.51-.58.93-1.99.93-1.61 0-2.56-.56-2.56-1.5m255.28-4.98.37-4.02.18 4.25c.09 2.33.67 4.25 1.27 4.25.76 0 .9-2.25.45-7.25-.97-10.73-1.57-13.31-2.72-11.64-.68.98-.77.71-.31-.91.83-2.97-1.41-6.39-6.71-10.22-4.46-3.24-7.81-3.87-7.81-1.48 0 .82-.9 2.4-2 3.5s-1.55 2-1 2c1.53 0 1.29 15.71-.25 16.33-1 .41-1 .52 0 .59.69.04 1.25 1.36 1.25 2.93 0 2.65.39 2.94 5.25 3.92l5.25 1.06-5.75-.53c-3.16-.29-5.75-.15-5.75.33s4.03.88 8.95.89l8.96.02zm-19.28 2.48c0-.55-1.69-1.08-3.75-1.17-3.69-.15-3.7-.16-.5-.56l3.25-.4v-7.94c0-4.62.42-7.93 1-7.93.55 0 1-1.16 1-2.56 0-1.46-.43-2.3-1-1.94-1.83 1.13-1.03-2.47 1-4.5 1.1-1.1 2-2.7 2-3.55 0-2.03-5.7-1.13-12 1.89-4.39 2.1-4.52 2.31-5.32 8.09-.85 6.1.47 11.02 2.75 10.25 1.81-.6 1.19-3.21-.68-2.89-.96.16-1.75-.21-1.75-.82 0-2.2 4.49-.54 4.82 1.78.44 3.07-2.35 3.98-4.96 1.62-1.8-1.63-1.98-2.6-1.41-7.62.36-3.21.25-5.75-.25-5.75-.49 0-4.13 4.71-8.1 10.48l-7.2 10.49 11.15-.05c6.14-.03 11.41.2 11.72.51s-3.22.63-7.85.71l-8.42.14 10.5 1.22c14.21 1.64 14 1.63 14 .5m-16.77-8c0-1.93.21-2.72.46-1.75.25.96.25 2.53 0 3.5-.25.96-.46.17-.46-1.75m-224.4 5.49c-.3-.3-1.32-.24-2.27.12-1.36.52-1.44.84-.4 1.48 1.33.82 3.68-.59 2.67-1.6m-51.41-.14c.92-2.39.2-2.58-1.22-.31-.67 1.08-.81 1.96-.32 1.96.5 0 1.19-.74 1.54-1.65m293.24-2.6c-.28-.69-.5-.13-.5 1.25 0 1.37.22 1.93.5 1.25.28-.69.28-1.82 0-2.5m-266.66-.75c0-.55-1.31-1-2.92-1-1.6 0-3.63-.28-4.5-.61-1.04-.4-1.58-.06-1.58 1 0 1.24 1.03 1.61 4.5 1.61 2.47 0 4.5-.45 4.5-1m57 0c-1.94-1.26-3-1.26-3 0 0 .55 1.01.99 2.25.98 1.82-.01 1.96-.2.75-.98m-4.55-.91c-1.45-1.38-22.43-5.1-28.54-5.06-3.08.01-6.22.64-7.28 1.45-1.79 1.35-1.77 1.44.61 2.04 7.2 1.81 36.85 3.13 35.21 1.57m214.26-8.34c-.24-1.24-.44-.23-.44 2.25 0 2.47.2 3.48.44 2.25.23-1.24.23-3.27 0-4.5m-121.98 65.59c.68-.27 2.03-.29 3-.04.97.26.42.48-1.23.5s-2.45-.19-1.77-.46m6-1c.68-.27 2.03-.29 3-.04.97.26.42.48-1.23.5s-2.45-.19-1.77-.46m6.52-1.03c.96-.26 2.54-.26 3.5 0 .96.25.17.45-1.75.45-1.93 0-2.71-.2-1.75-.45m6.48-.97c.68-.27 2.03-.29 3-.04.97.26.42.48-1.23.5s-2.45-.19-1.77-.46m13-2c.68-.27 2.03-.29 3-.04.97.26.42.48-1.23.5s-2.45-.19-1.77-.46m-191.58-4.09c-.14-3.06.04-3.25 3.1-3.11 2.94.14 2.99.19.56.57-2.01.3-2.79 1.08-3.1 3.1-.37 2.42-.42 2.37-.56-.56m9 0c-.14-3.06.04-3.25 3.1-3.11 2.94.14 2.99.19.56.57-2.01.3-2.79 1.08-3.1 3.1-.37 2.42-.42 2.37-.56-.56m77.23 1.3c-1.01-2.63.11-5.05 2.5-5.39 1.29-.18 2.74.06 3.22.54.5.5-.3.86-1.86.83-2.38-.03-2.72.33-2.55 2.72.2 2.98-.42 3.6-1.31 1.3m14 0c-1.22-3.2.06-5.05 3.63-5.23 3.4-.17 3.42-.15.49.51-4.04.92-4.31 4.68-.32 4.63 1.47-.02 2.45.32 2.19.75-.84 1.36-5.41.85-5.99-.66m14.98-2.05c.12-2.6.54-3.02 3.14-3.15 2.73-.13 2.76-.1.31.31-1.98.34-2.81 1.16-3.14 3.15-.42 2.44-.45 2.41-.31-.31m14.79-.25c-.13-2.82.17-3.25 2.29-3.25 1.34 0 2.68.38 2.97.85s-.55.65-1.86.4c-2.01-.38-2.47 0-2.82 2.39-.42 2.78-.43 2.77-.58-.39m-207.9-.35c-2.78-1.04-2.84-1.44-.25-1.63 1.1-.08 2 .33 2 .91 0 .66.56.6 1.5-.18.86-.72 1.5-.82 1.5-.23 0 1.53-2.23 2.06-4.75 1.13m216.75-2.35c0-.24.45-.72 1-1.05.55-.34 1-.15 1 .44 0 .58-.45 1.06-1 1.06s-1-.2-1-.45m3.55-.64c.62-1 5.45-.8 5.45.23 0 .49-1.32.79-2.93.66-1.61-.12-2.75-.52-2.52-.89m8.45.25c0-.39 1.8-.74 4-.78s4 .26 4 .66c0 .39-1.8.74-4 .77s-4-.26-4-.65m9 .02c0-.38 1.35-.78 3-.89 1.65-.12 3 .15 3 .59 0 .45-1.35.85-3 .9-1.65.04-3-.23-3-.6m7-.18c0-.55.45-1 1-1s1 .45 1 1-.45 1-1 1-1-.45-1-1m7.43.11c.83-1.34 6.57-1.95 6.57-.69 0 .59-1.61 1.19-3.56 1.33-1.96.14-3.32-.15-3.01-.64m7.57-.28c0-.46.67-.83 1.5-.83.82 0 1.5.37 1.5.83s-.68.83-1.5.83c-.83 0-1.5-.37-1.5-.83m4.54.23c-.32-.52.3-.88 1.37-.8s1.73.51 1.46.94c-.66 1.08-2.12 1-2.83-.14m14.02-.77c-.54-1.43-.42-1.54.56-.56.69.68.99 1.48.69 1.79-.31.31-.87-.25-1.25-1.23m3.52.29c-.04-1.06.19-1.65.52-1.31.34.33.37 1.19.08 1.91-.32.8-.55.56-.6-.6m1.92-.03c0-.85.45-1.55 1-1.55 1.29 0 1.29 1.7 0 2.5-.55.33-1-.09-1-.95m3-.05c0-.83.44-1.5.97-1.5s.71.67.39 1.5c-.74 1.92-1.36 1.92-1.36 0m4.75.81c-2.38-.63-2.22-1.89.25-1.89 1.1 0 2 .58 2 1.29s-.11 1.23-.25 1.17-1.04-.32-2-.57m-228.75-.71c0-.22 1.8-.57 4-.78s4-.03 4 .4-1.8.78-4 .78-4-.18-4-.4m209-1.1c0-.83.67-1.5 1.5-1.5.82 0 1.5.67 1.5 1.5 0 .82-.68 1.5-1.5 1.5-.83 0-1.5-.68-1.5-1.5m-216-3.3c0-1.54-.56-3.4-1.25-4.13-1.01-1.07-.96-1.24.25-.87 1.57.48 3.3 7.8 1.84 7.8-.46 0-.84-1.26-.84-2.8m267.64 1.1c-1.13-1.13-.69-2.3.86-2.3.82 0 1.5.42 1.5.94 0 1.26-1.56 2.16-2.36 1.36m31.12-2.77c-.26-1.36-.09-2.24.38-1.95.47.3.86-.19.86-1.07 0-.94-.68-1.48-1.65-1.31-.9.16-1.83-.23-2.05-.88-.26-.74.32-.97 1.6-.64 2.14.56 2.68-.63 3.45-7.68.21-1.93.3-.93.21 2.21-.14 4.43.17 5.81 1.38 6.13 1.26.34 1.22.45-.19.54-1.31.09-1.75.99-1.75 3.62 0 4.01-1.53 4.71-2.24 1.03m-305.76-.03c0-.84.89-1.5 2-1.5s2 .66 2 1.5c0 .83-.89 1.5-2 1.5s-2-.67-2-1.5m-3-1.4c0-1.49 3.8-3.31 5.8-2.78 1.26.33 1.13.47-.48.56-1.2.06-2.88.82-3.75 1.69-.86.86-1.57 1.1-1.57.53m12-.1c0-1.29.71-1.29 1.5 0 .34.55.14 1-.44 1s-1.06-.45-1.06-1m18.54-.94c-.31-.51-.12-1.21.44-1.55.56-.35 1.02-.11 1.02.53s.67.91 1.5.59c.82-.31 1.5-.14 1.5.4 0 1.24-3.7 1.27-4.46.03m263.96-2.06-5-.69 5.25-.16c2.94-.09 5.25.29 5.25.85 0 .55-.11.92-.25.84-.14-.09-2.5-.47-5.25-.84m-277.31-5.5c-.02-1.65.19-2.45.47-1.77.27.67.29 2.02.03 3-.25.97-.47.42-.5-1.23m-43.51-.25c-.25-.42-.06-1.77.41-3 .74-1.96 1.56-2.25 6.38-2.25 3.04 0 5.53.33 5.53.75 0 .41-2.47.59-5.5.4-5.09-.31-5.5-.18-5.5 1.85 0 2.02.41 2.15 5.5 1.84 3.03-.19 5.5-.01 5.5.41 0 .97-11.75.97-12.32 0m28.32-2.25c0-2.67.33-3 3-3s3 .33 3 3c0 2.66-.33 3-3 3s-3-.34-3-3m32.5 2c-.35-.57.51-1 2-1s2.35.43 2 1c-.8 1.28-3.2 1.28-4 0m-65.23-.61c.33-.33 1.2-.37 1.92-.08.8.32.56.56-.61.61-1.05.04-1.64-.2-1.31-.53m47.73-4.28c0-.55.45-1.28 1-1.61.55-.34 1-.17 1 .38s-.45 1.28-1 1.62c-.55.33-1 .16-1-.39m9.5-.11c-.34-.55.08-1 .94-1s1.56.45 1.56 1c0 1.29-1.7 1.29-2.5 0m-14.34-4.77c-.14-2.85-.45-3.21-2.41-2.76-1.24.28-6.98.97-12.75 1.53-5.78.56-10.65 1.47-10.83 2.01-.19.54-1.76.93-3.5.87l-3.17-.12 3-.76 3-.77-3.5-.23c-3.13-.21 12.25-2.37 24.08-3.38 2.52-.22 6.01-.71 7.75-1.09 2.03-.44 3.17-.31 3.17.39 0 .59-.87 1.08-1.94 1.08-1.43 0-2.04.84-2.34 3.25l-.4 3.25zm6-1.23c0-1.38.22-1.94.5-1.25.28.68.28 1.81 0 2.5-.28.68-.5.12-.5-1.25m34.11-24.61c.33-.33 1.2-.37 1.92-.08.8.32.56.56-.61.61-1.05.04-1.64-.2-1.31-.53m-31.08-11.89c-.02-1.65.19-2.45.47-1.77.27.67.29 2.02.03 3-.25.97-.47.42-.5-1.23" style="fill:#606060" transform="translate(531.777 -200.689)"/><path d="M-373.51 303.03c-.42-.1-18.77-.67-40.77-1.27s-45.4-1.56-52-2.12c-22.18-1.9-47.54-8.26-55.49-13.92-3.39-2.41-7.55-9.01-8.52-13.5l-.64-3 1.35 2.5c3.27 6.05 38.14 15.83 65.8 18.46 3.57.34 8.07.84 10 1.1 1.92.27 23.28 1.59 47.45 2.94 34.57 1.93 44.12 2.19 44.74 1.23.7-1.11 1.2 5.1.56 7.02-.21.64-10.24 1.09-12.48.56m13.73-4.69v-3.38l13.25-1.2c7.29-.66 14.54-1.79 16.11-2.51l2.86-1.3-4.36-1.54c-2.4-.84-3.69-1.56-2.86-1.59.82-.04 3.52.86 6 1.99 3.68 1.68 5.51 1.92 10 1.32 3.02-.41 13.04-.65 22.25-.53 15.03.18 16.75.03 16.75-1.46 0-1.45-.97-1.59-7.75-1.11-5.92.41-6.69.34-3.25-.31 2.47-.47 6.33-.89 8.58-.93 4.03-.07 4.07-.04 3.62 3.18-.25 1.8-.07 2.88.41 2.42.48-.45.87-1.55.88-2.44.01-1.27 1.78-1.89 8.01-2.8 43.93-6.45 113.56-17.83 115.69-18.91 1.49-.75 3.53-1.15 4.56-.88 2.48.65 19.92-2.42 22.34-3.93 1.05-.66 1.91-1.71 1.91-2.35 0-1.22 2.96-2.74 3.76-1.94.26.26-.82 1.62-2.39 3.02-5.19 4.61-7.46 5.12-82.87 18.45-18.7 3.3-42.26 7.46-52.35 9.23-10.1 1.78-18.95 3.82-19.68 4.55-.77.77-3.58 1.33-6.71 1.33-6.72 0-33.09 2.43-54.47 5.03-21.42 2.6-20.29 2.68-20.29-1.41m-8-5.1c-.83-.2-9.15-1.1-18.5-2.01-19.51-1.88-33.94-3.97-37.91-5.48-2.77-1.05-3.1-3.03-.64-3.85.79-.27 1.05.01.63.69-.46.74.33 1.13 2.3 1.13 3.65 0 5.03-1.69 1.88-2.3-1.54-.29-1.14-.48 1.24-.58 1.92-.08 5.19-.43 7.25-.77l3.75-.62v-10.37c0-9.16-.2-10.38-1.75-10.48-1.67-.11-1.67-.14 0-.57 1.06-.28 1.81-1.52 1.91-3.14.08-1.47.42-.46.75 2.25.32 2.7 1.15 5.1 1.84 5.33.93.31 1.25-1.74 1.25-8.09 0-4.68.27-9.21.61-10.08.43-1.12.02-1.58-1.41-1.58-1.52 0-1.88.48-1.49 2 .29 1.11.03 2-.59 2s-1.01-.57-.87-1.25c.39-1.95-6.12-2.25-6.86-.32-.8 2.07-4.01 2-4.82-.1-.48-1.27-.91-1.39-1.8-.5-1.6 1.6-4.77 1.47-4.77-.19 0-.94-2.02-1.54-6.64-1.98-3.66-.34-6.82-.79-7.03-1-.78-.78-.97-10.77-.22-11.23.43-.27.92 1.89 1.09 4.79l.3 5.28 6.25.29 6.25.3.15-3.05c.58-11.73.64-11.49-3.15-12.16l-3.5-.62 4.17-.13c2.31-.08 4.37-.69 4.62-1.38.36-.97.75-.99 1.72-.07 1.01.95.91 1.54-.5 2.94-1.67 1.68-1.67 1.8.12 2.5 1.55.61 1.59.75.21.8-1.21.06-1.84 1.42-2.35 5.17-.39 2.8-.32 5.45.15 5.9 1.03.96 13.36 2.46 13.36 1.62 0-.32-1.54-1.23-3.42-2.02-4.54-1.89-5.88-4.46-4.11-7.87 1.19-2.3 1.15-2.67-.31-3.05-.91-.24-.2-.5 1.59-.56 4.21-.15 4.21-1.87 0-2.39-3.14-.39-3.12-.41.58-.56 3.78-.16 3.82-.21 3.55-3.91-.15-2.07.14-3.98.64-4.25.51-.28.78 1.6.62 4.25-.18 2.97.12 4.75.81 4.75.61 0 3.78-1.13 7.05-2.5 6.74-2.84 8.25-3.14 5.44-1.09-1.85 1.36-1.8 1.45 1.06 2.09 4.7 1.05 5.19 1.33 2.47 1.42-1.39.04-3.41-.52-4.5-1.24-1.68-1.11-2.75-.99-7.22.84-2.89 1.18-4.95 2.44-4.58 2.81.36.37-.24.67-1.35.67-2.32 0-5.32 2.93-5.32 5.21 0 2.67 4.88 4.92 13.86 6.39 10.47 1.71 36.98 4.33 46.05 4.56 3.62.08 5.13.34 3.34.56-3.5.43-3.75 1.06-2.32 6.03.51 1.79.54 3.25.06 3.25s-1.17-2.03-1.54-4.5c-.45-2.97-1.17-4.5-2.13-4.5-.91 0-1.27.65-.96 1.75.96 3.4 4.91 18.78 5.39 21 .27 1.28 0 2.25-.63 2.25-.62 0-1.18 1.23-1.26 2.75-.12 2.43-.18 2.48-.57.44-.25-1.27 0-2.84.55-3.5.67-.81.5-3-.51-6.7-1.33-4.88-2.21-8.47-3.82-15.6-.51-2.27.77-2.05-26.01-4.32-5.5-.47-10.68-1.01-11.5-1.21-.83-.2-1.5.31-1.5 1.14 0 .82-.29 1.72-.64 2-.35.27-.81 5.78-1.01 12.25l-.37 11.75 4.01.03c3.24.02 3.67.22 2.24 1.06-.98.56-1.51 1.45-1.2 1.96.32.5-.12.66-.97.33s-1.3-1-1-1.49c.31-.49-.26-.89-1.25-.89-1.4 0-1.87.91-2.08 4l-.28 4h7.53c4.13 0 7.52.36 7.52.8s-5.29.64-11.75.45c-11.29-.34-15.22.37-13.88 2.53.75 1.21 12.21 2.78 31.13 4.25 7.7.59 16.47 1.3 19.5 1.57 5.26.47 5.39.43 3-1.02-3.24-1.96-2.44-1.95 3.38.03 5.01 1.71 6.67 1.36 4.71-1-.73-.89-.82-1.67-.22-2.03.53-.33 1.26.75 1.63 2.41l.66 3.01 9.17.16 9.17.16-9.5.71c-5.23.38-12.88.96-17 1.28-4.13.32-8.18.41-9 .21m-37-20.97c0-4.09-.45-7.72-1-8.05-.64-.4-1 2.32-1 7.44 0 4.7.42 8.06 1 8.06s1-3.15 1-7.45m-17.5-28.55c-.8-1.3-2.5-1.3-2.5 0 0 .55.7 1 1.56 1s1.28-.45.94-1m122.25 44.33c.69-.27 1.81-.27 2.5 0 .69.28.12.51-1.25.51-1.38 0-1.94-.23-1.25-.51m-50.18-2.83c-.41-1.65-1.56-6.15-2.54-10-.99-3.85-2.1-8.8-2.47-11s-.92-4.9-1.23-6c-.35-1.28-.21-1.64.39-1 .52.55 1.53 4.15 2.24 8 .72 3.85 2.18 9.84 3.24 13.31 1.05 3.47 1.74 7.07 1.52 8-.27 1.12-.65.68-1.15-1.31m-24.07-.57c-5.07-1.33-5.77-1.68-2.55-1.27 4.66.61 13.66 3.15 11.05 3.12-.83 0-4.65-.84-8.5-1.85m31.77.46c.33-.33 1.2-.37 1.92-.08.8.32.56.56-.61.61-1.05.04-1.64-.2-1.31-.53m-4.52-1.06c.69-.27 1.81-.27 2.5 0 .69.28.12.51-1.25.51-1.38 0-1.94-.23-1.25-.51m-9.25-1.26-3-.68 3.25-.53c2.3-.37 3.25-.13 3.25.81 0 .73-.11 1.27-.25 1.21-.14-.07-1.6-.43-3.25-.81m-29.77-.73c.68-.27 2.03-.29 3-.04.97.26.42.48-1.23.5s-2.45-.19-1.77-.46m19.52-1.03c.96-.26 2.54-.26 3.5 0 .96.25.17.45-1.75.45-1.93 0-2.71-.2-1.75-.45m-16-1.04c2.06-.22 5.44-.22 7.5 0 2.06.21.37.39-3.75.39-4.13 0-5.81-.18-3.75-.39m27.83-1.69c-.04-1.06.19-1.65.52-1.31.34.33.37 1.19.08 1.91-.32.8-.55.56-.6-.6m-144.41-1.25c-.37-.37-.62-2.06-.55-3.75.06-1.7.32-2.3.57-1.33.52 1.98 1.86 2.28 2.88.63.38-.61.07-1.5-.69-1.98-1.04-.66-.87-.88.71-.89 2.59-.02 4.61 3.88 3.25 6.3-.93 1.66-4.88 2.31-6.17 1.02m4.33-1.89c0-.25-.7-.44-1.56-.44s-1.28.45-.93 1.01c.57.92 2.49.48 2.49-.57m66.08 1.14c-.04-1.06.19-1.65.52-1.31.34.33.37 1.19.08 1.91-.32.8-.55.56-.6-.6m29.92.42c0-1.29.71-1.29 1.5 0 .34.55.14 1-.44 1s-1.06-.45-1.06-1m26.16-2c0-1.38.22-1.94.5-1.25.28.68.28 1.81 0 2.5-.28.68-.5.12-.5-1.25m59.2-.5c.12-2.6.54-3.02 3.14-3.15 2.73-.13 2.76-.1.31.31-1.98.34-2.81 1.16-3.14 3.15-.42 2.44-.45 2.41-.31-.31m-42.28.08c-.04-1.06.19-1.65.52-1.31.34.33.37 1.19.08 1.91-.32.8-.55.56-.6-.6m-135.08-.53c0-.58.45-1.05 1-1.05 1.28 0 1.28.7 0 1.5-.55.33-1 .14-1-.45m105.08-.47c-.04-1.06.19-1.65.52-1.31.34.33.37 1.19.08 1.91-.32.8-.55.56-.6-.6m-118.08-.03c0-.24.45-.72 1-1.05.55-.34 1-.15 1 .44 0 .58-.45 1.06-1 1.06s-1-.2-1-.45m75-.73c0-.45 1.35-.82 3-.82 3.86 0 3.86.64 0 1.21-1.65.24-3 .07-3-.39m9 .04c0-.48 1.12-.86 2.5-.86 3.21 0 3.21.63 0 1.24-1.38.26-2.5.09-2.5-.38m78-1c0-.48 1.12-.86 2.5-.86 3.21 0 3.21.63 0 1.24-1.38.26-2.5.09-2.5-.38m43 0c0-.48 1.12-.86 2.5-.86 3.21 0 3.21.63 0 1.24-1.38.26-2.5.09-2.5-.38m107.27.53c.33-.33 1.2-.37 1.92-.08.8.32.56.56-.61.61-1.05.04-1.64-.2-1.31-.53m-135.54-1.05c.68-.27 2.03-.29 3-.04.97.26.42.48-1.23.5s-2.45-.19-1.77-.46m73.27-.34c0-1.29.71-1.29 1.5 0 .34.55.14 1-.44 1s-1.06-.45-1.06-1m-235.75-.72c1.51-.23 3.99-.23 5.5 0s.27.42-2.75.42c-3.03 0-4.26-.19-2.75-.42m255.3-.2c-.32-.52-.16-1.21.36-1.53.53-.32 1.22-.16 1.54.36s.16 1.21-.36 1.53c-.53.32-1.22.16-1.54-.36m-297.1-4.93c.24-2.72 1.22-5.24 2.61-6.72 2.24-2.38 8.61-5.1 9.6-4.1.3.29-1.35 1.09-3.66 1.78-4.63 1.39-6.92 4.13-8.14 9.72-.78 3.58-.79 3.57-.41-.68m42.31 1.14c1.25-.24 3.05-.23 4 .02.96.25-.06.44-2.26.43s-2.98-.21-1.74-.45m305.24-.29c0-.55.45-1 1-1s1 .45 1 1-.45 1-1 1-1-.45-1-1m-274-1.5c0-1.69.18-1.76 2.42-.9 2.23.86 1.96 2.4-.42 2.4-1.11 0-2-.67-2-1.5m305.66-.95c-.37-.97-.23-1.41.35-1.05.55.34 1.04-.43 1.11-1.7.08-1.64.24-1.81.56-.59.25.95.04 2.46-.46 3.36-.85 1.52-.97 1.52-1.56-.02m-26.9-.26c-.23-.44.85-3.04 2.39-5.79 2.62-4.68 4.17-5.83 1.75-1.31-.85 1.58-.79 2.29.25 3.03 1 .71.87.81-.51.36-1.35-.44-1.71-.21-1.31.83.58 1.52-1.85 4.25-2.57 2.88m-250.25-1.28c-.35-.57.05-.74.94-.4 1.73.67 2.05 1.39.61 1.39-.52 0-1.22-.45-1.55-.99m44.95-1.09c-.37-.58-1.63-1.44-2.81-1.9-1.77-.69-1.54-.82 1.35-.77 1.92.04 2.92.27 2.21.51-.99.33-1.02.75-.13 1.83.64.77.91 1.41.6 1.41s-.86-.49-1.22-1.08m-106.46-1.02c0-.5.9-.9 2-.9 2.56 0 2.56.61 0 1.28-1.1.29-2 .12-2-.38m336.46.03c-.36-.59-.45-1.28-.18-1.54.26-.27.74.21 1.06 1.06.68 1.76.1 2.07-.88.48m-298.21-1.62c.96-.26 2.54-.26 3.5 0 .96.25.17.45-1.75.45-1.93 0-2.71-.2-1.75-.45m18 0c.96-.26 2.54-.26 3.5 0 .96.25.17.45-1.75.45-1.93 0-2.71-.2-1.75-.45m6.02.08c.33-.33 1.2-.37 1.92-.08.8.32.56.56-.61.61-1.05.04-1.64-.2-1.31-.53m4.48-.06c.69-.27 1.81-.27 2.5 0 .69.28.12.51-1.25.51-1.38 0-1.94-.23-1.25-.51m6-.04c1.24-.24 3.26-.24 4.5 0s.22.43-2.25.43c-2.48 0-3.49-.19-2.25-.43m22.52.1c.33-.33 1.2-.37 1.92-.08.8.32.56.56-.61.61-1.05.04-1.64-.2-1.31-.53m18.73.22c0-.91 3.9-1.29 5.14-.51.92.59.32.87-1.89.88-1.79.01-3.25-.16-3.25-.37m91.73-.27c.68-.27 2.03-.29 3-.04.97.26.42.48-1.23.5s-2.45-.19-1.77-.46m90.02-.07c1.79-.22 4.71-.22 6.5 0s.32.4-3.25.4c-3.58 0-5.04-.18-3.25-.4m-310.65-1.05c-12.79-.25-14.19-.44-12.5-1.72 1.33-1.01 4.74-1.46 11.4-1.49 5.22-.02 9.97-.38 10.55-.78s2.08-2.43 3.34-4.5l2.29-3.76-3.1-5.49c-1.7-3.02-2.76-5.48-2.34-5.47 1.29.04 7.1 10.74 6.32 11.64-.41.46-1.74 2.51-2.96 4.55l-2.21 3.71 3.17.82c6.54 1.69.51 2.77-13.96 2.49m181.9-.22c4.56-.56 4.9-.73 2-.96-1.93-.16-4.06-.21-4.75-.12s-1.25-.31-1.25-.88c0-.59-2.28-1.05-5.25-1.06-3.76-.01-4.82-.29-3.75-.98 1.11-.72.45-.98-2.5-1-2.54-.02-3.52-.34-2.68-.87 1.3-.83-1.12-2.18-6.32-3.55-1.1-.28 2.2-.34 7.34-.11l9.35.41-3.37-3.19c-10.95-10.4-16.72-14.69-19.72-14.69-1.71 0-3.1.48-3.1 1.07s-.68.39-1.5-.43c-2.13-2.13-1.91-2.36 1.75-1.84 6.04.84 1.85-1.08-7.48-3.44-5.1-1.29-7.25-2.1-4.77-1.8 12.32 1.46 20.6 5.95 34 18.4l7.5 6.97-4.47.03c-4.31.03-4.39.09-2.29 1.57 4.74 3.31 17.37 5.76 33.26 6.44l15.5.66-21.5.02c-12.08.01-19.09-.28-16-.65m77.5.03c31.51-.5 34.37-.69 39.09-2.63 11.55-4.75 17-10.13 31.77-31.4 11.58-16.68 12.47-17.59 19.53-19.97 6.83-2.3 9.93-2.49 15.46-.95 3.93 1.09 12.65 8.76 12.65 11.12 0 .69-1.11-.37-2.47-2.37-4-5.89-13.53-10.46-13.53-6.49 0 .74-.82 2.09-1.83 3-2.59 2.35-3.57 2.06-1.17-.34 2.47-2.47 2.59-5.01.25-5-6.93.02-15.19 4.76-15.37 8.81-.07 1.7-.28 2.04-.57.94-.25-.97-.85-1.75-1.32-1.75-.48 0-4.07 4.61-7.98 10.25-6.97 10.05-7.06 10.25-4.54 10.56 1.41.18 2.34.68 2.08 1.11-.27.44 3.66 1.11 8.73 1.49s11.13.96 13.47 1.28c2.85.38 4.25.2 4.25-.56 0-.62-1.43-1.13-3.17-1.13-3.84 0-3.45-.68.67-1.16 2.22-.25 3.16-.99 3.63-2.84.58-2.3.64-2.25.75.68.09 2.45.63 3.27 2.37 3.61 1.93.37 1.86.45-.5.57-2.24.11-2.75.6-2.75 2.67 0 2.23-.24 2.41-2.01 1.46-3.37-1.81-14.71-2.47-16.52-.97-1.29 1.07-1.53 1.08-1.28.01.28-1.19-7.92-3.87-12.22-3.99-.84-.03-3.76 2.92-6.5 6.55-5.14 6.82-11.12 11.85-17.88 15.05l-3.9 1.86 3.4.61c1.88.34-14.59.59-36.59.54l-40-.08zm-197.31-2.53c-.02-1.65.19-2.45.47-1.77.27.67.29 2.02.03 3-.25.97-.47.42-.5-1.23m297.01-4.25c-.14-4.85.18-7.25.93-7.25.73 0 .95-1.33.63-3.75l-.5-3.75 8.99.2c11.61.25 12.75 1.3 1.42 1.3h-8.67v3.5c0 1.92-.43 3.5-.95 3.5-.53 0-1.12 3.03-1.31 6.75l-.35 6.75zm-333.2 4.36c0-.21 1.12-.6 2.5-.86 1.37-.26 2.5-.09 2.5.38 0 .48-1.13.87-2.5.87-1.38 0-2.5-.18-2.5-.39m21.17-2.23c.26-2.3.88-2.95 3.08-3.2 2.37-.27 2.75.04 2.75 2.25 0 1.41-.34 2.57-.75 2.58s-1.8.29-3.08.64c-2.09.56-2.3.32-2-2.27m4.43-2.11c-.33-.34-.56.25-.52 1.31.05 1.16.28 1.4.6.6.29-.72.26-1.58-.08-1.91m29.4 3.73c-1.28-.83-1.25-.98.25-.99.96-.01 1.75.44 1.75.99 0 1.21-.11 1.21-2 0m275.19-1.5c-.02-1.65.19-2.45.47-1.77.27.67.29 2.02.03 3-.25.97-.47.42-.5-1.23m26.04-.5c0-1.93.21-2.72.46-1.75.25.96.25 2.53 0 3.5-.25.96-.46.17-.46-1.75m-223.48-.67c.69-.27 1.81-.27 2.5 0 .69.28.12.51-1.25.51-1.38 0-1.94-.23-1.25-.51m-132-2c.69-.27 1.81-.27 2.5 0 .69.28.12.51-1.25.51-1.38 0-1.94-.23-1.25-.51m317.52-1.94c.33-.33 1.2-.37 1.92-.08.8.32.56.56-.61.61-1.05.04-1.64-.2-1.31-.53m-326-3c.33-.33 1.2-.37 1.92-.08.8.32.56.56-.61.61-1.05.04-1.64-.2-1.31-.53m44.89-1.39c0-1.38.22-1.94.5-1.25.28.68.28 1.81 0 2.5-.28.68-.5.12-.5-1.25m92.71.25c-1.24-1.59-1.21-1.63.38-.38.96.75 1.75 1.54 1.75 1.75 0 .82-.82.29-2.13-1.37m225.32-.75c-.02-1.65.19-2.45.47-1.77.27.67.29 2.02.03 3-.25.97-.47.42-.5-1.23m-353.44.79c1.24-.24 3.26-.24 4.5 0s.22.43-2.25.43c-2.48 0-3.49-.19-2.25-.43m329.33-.71c-.04-1.06.19-1.65.52-1.31.34.33.37 1.19.08 1.91-.32.8-.55.56-.6-.6m-315.58-.63c2.75-.43 6.57-.76 8.5-.74 3.22.03 3.14.1-1 .84-2.48.44-6.3.77-8.5.74-3.9-.06-3.87-.08 1-.84m77 .05-5-.69 4.5-.09c2.47-.05 5.4.3 6.5.78 2.28.98 1.15.98-6 0m12.5.07c0-.51-.79-1.13-1.75-1.39-1.32-.34-1.19-.48.5-.57 1.38-.07 2.25.46 2.25 1.39 0 .82-.23 1.5-.5 1.5-.28 0-.5-.42-.5-.93m222.5-2.07c1-1.1 2.03-2 2.31-2 .27 0-.31.9-1.31 2s-2.04 2-2.31 2c-.28 0 .31-.9 1.31-2m-299.42.64c1.06-.91 7.92-1.42 7.92-.58 0 .51-1.88.94-4.17.94s-3.98-.17-3.75-.36m58.55-1.43c-.26-.43.38-.79 1.44-.79s1.93.36 1.93.79c0 1.02-2.74 1.02-3.37 0m10.94-2.1c-.3-.49.31-1.11 1.37-1.39 1.34-.35 1.75-.08 1.38.89-.61 1.57-1.94 1.82-2.75.5m-10.32-.78c-2.26-.91-1.31-2.34 1.5-2.26 1.51.05 2.14.33 1.39.63-1.15.45-1.15.67 0 1.4 1.11.71 1.08.85-.14.8-.83-.03-2.06-.29-2.75-.57m266.98-2.33c0-1.93.21-2.72.46-1.75.25.96.25 2.53 0 3.5-.25.96-.46.17-.46-1.75m-318.2-1.25c.02-.69.69-2.13 1.5-3.2 1.23-1.62 1.47-1.67 1.47-.31 0 .9-.5 1.94-1.11 2.32-.77.48-.69.95.25 1.54 1.06.67.97.87-.39.88-.96.01-1.74-.55-1.72-1.23m66.47-.75c-.34-.55.28-1 1.38-1s2.28.45 2.62 1-.28 1-1.38 1-2.28-.45-2.62-1m-7.77-.66c.68-.27 2.03-.29 3-.04.97.26.42.48-1.23.5s-2.45-.19-1.77-.46m221.53-.06c1.52-.23 3.77-.23 5 .01s-.01.43-2.76.42-3.76-.2-2.24-.43m-230.53-.94c.68-.27 2.03-.29 3-.04.97.26.42.48-1.23.5s-2.45-.19-1.77-.46m17.55-2.08c2.63-.21 6.68-.21 9 0s.17.38-4.78.38-6.85-.17-4.22-.38m-13.03-.98c1.51-.23 3.99-.23 5.5 0s.27.42-2.75.42c-3.03 0-4.26-.19-2.75-.42m224.83-.7c-.04-1.06.19-1.65.52-1.31.34.33.37 1.19.08 1.91-.32.8-.55.56-.6-.6m16 0c-.04-1.06.19-1.65.52-1.31.34.33.37 1.19.08 1.91-.32.8-.55.56-.6-.6m-289.83-.58c.23-.85 1.68-1.57 3.33-1.66 2.51-.14 2.57-.09.42.35-1.38.28-2.87 1.02-3.33 1.66-.55.76-.69.65-.42-.35m292.09-7.5c0-4.4.17-6.33.39-4.28.21 2.05.21 5.65 0 8s-.38.68-.39-3.72m19.85 5c-.02-1.65.19-2.45.47-1.77.27.67.29 2.02.03 3-.25.97-.47.42-.5-1.23m-34.7.48c-.38-.61-.42-1.39-.09-1.72s.6-.07.6.57.67 1.17 1.5 1.17c.86 0 1.5-.91 1.5-2.12 0-1.67-.45-2-2.14-1.56-1.54.4-1.84.26-1.07-.51 1.72-1.72 4.39-.11 4.03 2.42-.35 2.43-3.2 3.58-4.33 1.75m-217.76-1.64c.68-.27 2.03-.29 3-.04.97.26.42.48-1.23.5s-2.45-.19-1.77-.46m-15.98-1.01c.69-.27 1.81-.27 2.5 0 .69.28.12.51-1.25.51-1.38 0-1.94-.23-1.25-.51m6.51-.05c1.52-.23 3.77-.23 5 .01s-.01.43-2.76.42-3.76-.2-2.24-.43m224.82-2.7c-.04-1.06.19-1.65.52-1.31.34.33.37 1.19.08 1.91-.32.8-.55.56-.6-.6" style="fill:#333" transform="translate(531.777 -200.689)"/></svg>