<svg xmlns="http://www.w3.org/2000/svg" version="1.0" viewBox="0 0 578.94 100"><path d="M-334.28-265.32c-3.75-2.32-13.69-4.96-18.68-4.96-2.81 0-3.62-.36-3.22-1.4.29-.77.12-1.66-.38-1.97s-10.56-2.35-22.35-4.52c-20.77-3.83-26.87-5.49-26.87-7.31 0-1.09 1.28-1.49 7.25-2.29l4.75-.64v-14.56l-8.22-5.15c-5.15-3.23-8.89-4.95-10-4.6-1.26.4-1.61.15-1.21-.88.35-.91-.67-2.19-2.76-3.47-2.7-1.66-5.69-2.14-16.31-2.61-7.15-.32-34.83-3.04-61.5-6.05-26.68-3.01-63.13-7.07-81-9.04-40.56-4.45-48.71-6.2-45.2-9.71 1.11-1.12 65.64.12 150.95 2.88 19.24.63 19.25.63 19.25-1.53 0-1.18.41-2.15.91-2.15.49 0 .68.84.41 1.86-.44 1.69.33 1.92 7.85 2.38 7.48.46 8.56.3 10.64-1.59 2.88-2.64 9.22-2.84 11.94-.38 2.83 2.56 22.86 2.54 24.97-.02 1.37-1.67 1.42-1.67.89 0-.49 1.57.33 1.75 8.36 1.75 4.9 0 9.17-.42 9.48-.93.32-.51 2.14-1.45 4.06-2.08 2.78-.92 4.06-.86 6.36.29 2.74 1.37 3.19 1.24 9.75-2.78 5.09-3.12 6.8-4.71 6.59-6.11-.24-1.55-.11-1.63.7-.42.85 1.27 1.52 1.16 4.79-.79 2.09-1.25 5.26-3.01 7.05-3.91 1.87-.95 3.25-2.42 3.25-3.46 0-2.56 1.67-2.26 2.37.44.38 1.48 2.79 3.41 7.05 5.66 5.74 3.04 6.67 3.26 8.27 2 1.66-1.3 1.69-1.27.42.36-.77.97-1.22 1.91-1 2.08.21.17 3.48 2.01 7.25 4.09 5.89 3.24 7.2 3.62 9.3 2.67 3.43-1.57 5.34-1.4 9.54.85 3.28 1.76 5.71 1.97 22.83 1.99 18.34.01 19.35-.09 23.32-2.35 3.78-2.15 4.44-2.25 7.32-1.01 1.75.74 3.46 1.81 3.81 2.38.36.58 4.53 1.03 9.58 1.03 7.8 0 8.95-.23 9.06-1.75.1-1.6.15-1.59.58.07.44 1.69 1.51 1.77 15.14 1.21 8.06-.34 36.93-1.27 64.16-2.07 27.22-.79 57.649-1.74 67.609-2.1s19.297-.35 20.75.01c6.472 1.62.469 5.59-11.515 7.6-6.37 1.07-45.924 5.4-120.34 13.17-35.61 3.71-40.27 4.4-42.47 6.26-1.57 1.33-1.99 1.47-1.16.39 1.21-1.59.48-1.66-11.04-1.09-10.07.5-12.91.99-15.48 2.67-2.83 1.85-2.98 2.19-1.5 3.36 1.44 1.13 1.31 1.22-1.01.7-2.07-.47-4.33.46-10.25 4.23l-7.59 4.84v16.4l3.75.62c2.06.33 4.39.69 5.17.79 2.8.36 2.12 2.52-1.12 3.55-1.81.58-12.75 2.69-24.29 4.68-18.99 3.27-22.45 4.3-22.49 6.71-.01.41-1.26.75-2.77.76-3.71.01-11.69 2.2-17.63 4.83-2.68 1.19-4.93 2.12-5 2.07-.06-.04-1.47-.92-3.12-1.95zm4.47-7.71c-.02-.42-1.26-1.62-2.75-2.67l-2.72-1.92 2.42 2.67c2.55 2.8 3.1 3.15 3.05 1.92m18.63-4.98c-.33-.34-.56.25-.52 1.31.05 1.16.28 1.4.6.6.29-.72.26-1.58-.08-1.91m-28.1-2.27c-.34-.55-1.15-1-1.81-.99-.71.01-.59.4.31.99 1.92 1.24 2.27 1.24 1.5 0m27.5.19c0-.45-.56-1.55-1.25-2.46-1.14-1.49-1.43-1.5-3.25-.09-1.97 1.53-1.96 1.55.25.89 1.58-.47 2.44-.2 2.86.9.65 1.68 1.39 2.08 1.39.76m-41-10.81c0-5.42-.36-8.28-1-7.88-.55.33-1 4.44-1 9.11 0 5.42.36 8.28 1 7.89.55-.34 1-4.45 1-9.12m45.9 1.12c0-4.71-.42-8.5-.95-8.5-1.06 0-1.33 15.28-.28 16.33 1.17 1.17 1.23.81 1.23-7.83m-49.61 5.5c-.5-1.9-1.31-2-16.16-1.87-17.06.15-17.07.25-.13 2.28 16.6 1.98 16.91 1.97 16.29-.41m9.9 1.31c-.72-.29-1.59-.25-1.92.08s.26.57 1.31.53c1.17-.05 1.41-.29.61-.61m62.81-1.27c6.81-.7 6.19-.79-6.75-.91-12.3-.12-14.25.08-14.25 1.43 0 1.65-.13 1.65 21-.52m-43.44-2.29c2.36-2.61 2.44-2.81.38-1-1.41 1.23-3.35 2.25-4.31 2.25s-1.47.45-1.13 1c1 1.61 1.95 1.19 5.06-2.25M-341.78-297c0-4.8-1.12-5.28-6.5-2.82-2.68 1.22-2.76 1.38-.75 1.45 2.56.1 2.95 1.83.78 3.47-.8.62-1.77 3.11-2.15 5.55l-.69 4.43 4.65-3.9c4.22-3.52 4.66-4.3 4.66-8.18m9 10.34c0-.21-.79-1-1.75-1.75-1.59-1.25-1.62-1.21-.38.38 1.31 1.66 2.13 2.19 2.13 1.37m21.15-2.41c-.63-.21-1.15-1.24-1.15-2.3 0-1.05-.45-1.91-1-1.91s-1-.9-1-2c0-1.34.67-2 2-2 3.37 0 2.22-1.53-2-2.66l-4-1.07v4.29c0 3.74.48 4.69 3.75 7.38 2.39 1.97 3.89 2.65 4.15 1.87.22-.67-.12-1.39-.75-1.6m-59.15 1.44c0-.49-20.61-13.65-21.37-13.65-.85 0-.81 12.48.04 13.33.66.67 21.33.97 21.33.32m14.5-6.7c0-4.55.53-7.36 1.75-9.21.96-1.47 1.75-2.87 1.75-3.11 0-1.13-7.18-4.5-8.51-3.99-1 .38-1.34.11-1-.78.32-.86-1.67-2.76-5.32-5.11-5.26-3.39-6.49-3.75-12.56-3.75-4.66 0-6.52.33-6.04 1.1.45.73.01.9-1.28.49-1.76-.56-2.1.13-3.23 6.45-.7 3.9-1.11 7.22-.91 7.4.19.17 6.42 4.2 13.85 8.96 11.92 7.64 13.97 8.62 17.5 8.37l4-.27zm-16.75-16.62c.69-.27 1.81-.27 2.5 0 .69.28.12.51-1.25.51-1.38 0-1.94-.23-1.25-.51m5.05-1.58c.48-1.75.7-1.88.97-.57.19.93 1.11 1.89 2.04 2.14 1 .26.61.49-.97.56-2.29.1-2.57-.2-2.04-2.13m-10.77.28c-.81-.51-1.23-1.17-.93-1.47s1.41.11 2.47.91c2.11 1.6.83 2.06-1.54.56m-5.6-3.51c-1.06-.81-1.48-1.47-.93-1.48 1.49-.02 4.03 1.76 3.4 2.39-.3.3-1.41-.11-2.47-.91m68.57 28.1c0-.21-.79-1-1.75-1.75-1.59-1.25-1.62-1.21-.38.38 1.31 1.66 2.13 2.19 2.13 1.37m32.65-8.82c10.17-6.52 14.23-9.65 13.92-10.75-.24-.86-.95-4.14-1.57-7.3l-1.14-5.75h-8.89c-8.63 0-9.06.11-14.35 3.72-3 2.05-5.24 4.08-4.98 4.5.26.43-.24.78-1.12.78s-2.9.96-4.49 2.13c-2.82 2.09-2.85 2.2-1.21 4.71 1.05 1.6 1.73 4.85 1.82 8.61.08 3.33.2 6.61.25 7.3.07.75 1.56 1.25 3.75 1.25 2.89 0 6.63-1.92 18.01-9.2m-13.3-14.53c2.23-.33 2.73-.84 2.34-2.35-.28-1.06-.09-1.92.4-1.92.5 0 .91.87.91 1.93 0 1.34.84 2.06 2.75 2.35 1.51.23.05.42-3.25.42s-4.72-.2-3.15-.43m12.65-2.27c.82-.54 2.17-.97 3-.97 1.33 0 1.33.1 0 .97-.83.53-2.18.96-3 .96-1.33 0-1.33-.1 0-.96m6-3.5c.68-.83 1.69-1.5 2.24-1.5.56 0 .45.66-.24 1.5-.68.82-1.69 1.5-2.24 1.5-.56 0-.45-.67.24-1.5m9 21.99v-7.5l-8.87 5.75c-15.54 10.08-15.3 9.14-2.38 9.2l11.25.06zm-68.5 4.51c-.34-.55-1.15-1-1.81-.99-.71.01-.59.4.31.99 1.92 1.24 2.27 1.24 1.5 0m11.17-5.42c2.65 1.05 5.16 2.07 5.58 2.25.41.18.75-1.52.75-3.78 0-3.46-.39-4.25-2.5-5.05-2.96-1.13-3.39-2.42-.5-1.5 1.44.45 2 .17 2-1 0-3.44-2.01-5.5-5.34-5.5-3.78 0-7.3 2.16-6.25 3.84 1.16 1.89 2.59 1.31 2.59-1.04 0-1.6.3-1.9 1.09-1.11 1.18 1.17-.38 5.31-2 5.31-1.63 0-3.32-3.02-2.8-5 .43-1.66.03-2-2.35-2-1.81 0-3.25.71-3.9 1.93-1.63 3.03-1.3 5.08.71 4.45 1.67-.52 1.67-.48 0 .89-1.14.94-1.75 2.85-1.75 5.5v4.05l4.92-2.08c4.89-2.06 4.95-2.06 9.75-.16m-16.12-8.5c-.25-.4.18-1.93.94-3.41 1.32-2.53 1.27-2.67-.94-2.67-2.13 0-8.19 3.89-6.18 3.96.48.02.29.74-.42 1.59-1.06 1.29-1.04 1.5.13 1.25.78-.17 1.32.23 1.19.89-.17.89.52.93 2.75.15 1.64-.57 2.78-1.37 2.53-1.76m-4.63.67c-1.18-3.88.28-5.12 2.08-1.75.85 1.59.76 2-.46 2-.85 0-1.57-.12-1.62-.25m33.65-.51c-.15-.96-.56-1.63-.92-1.49-.36.13-.93.25-1.27.25s-.12.6.49 1.34.78 1.71.37 2.16-.22.52.42.15c.64-.36 1.05-1.45.91-2.41m-1.22-3.24c.49 0 .33-.68-.35-1.5-.68-.83-2.36-1.5-3.73-1.5-1.98 0-2.33.35-1.75 1.75.41.96.97 2.81 1.25 4.12l.51 2.37 1.59-2.62c.88-1.44 1.99-2.62 2.48-2.62m6.15 4c-.79-1.29-1.5-1.29-1.5 0 0 .55.48 1 1.06 1s.78-.45.44-1m-83.82-9.25c.58-3.44.95-6.38.82-6.54s-5.36-.16-11.62 0l-11.38.29 10 6.2c5.5 3.42 10.25 6.23 10.56 6.25.31.03 1.04-2.77 1.62-6.2m-15.18-4.75c.34-.55 1.07-1 1.62-1s.72.45.38 1-1.07 1-1.62 1-.72-.45-.38-1m152.46 2.39c1.01-.96 1.09-1.39.25-1.39-.66 0-1.21-.48-1.21-1.05 0-.7.57-.73 1.72-.09 1.21.68 2.62.47 4.75-.7l3.03-1.66-4.9-.32c-3.25-.2-5.19.14-5.74 1-.63 1-.83 1.02-.84.07-.02-.87-1.92-1.25-6.15-1.25h-6.12l.65 3.25c.36 1.78.92 4.91 1.25 6.95l.59 3.7 5.63-3.55c3.1-1.96 6.29-4.19 7.09-4.96m-92.9 4.76c2.2-1.79 5.4-9.91 4.09-10.41-.36-.13-6.17-.11-12.91.06-9.85.25-12.02.56-11 1.57 2.22 2.21 15.2 10.63 16.39 10.63.63 0 2.17-.84 3.43-1.85m-8.06-3.18c0-.57.69-1.3 1.54-1.63 2.35-.9 2.62.07.41 1.45-1.23.77-1.95.84-1.95.18m5-3.79c0-1.21 1.9-2.62 2.59-1.93.25.25-.23 1.03-1.07 1.72-.95.79-1.52.87-1.52.21m44.41 6.32c1.48-1.38 2.93-2.5 3.21-2.5.29 0 2.63-1.47 5.2-3.25l4.68-3.25-5.5-.66c-3.03-.35-7.69-.69-10.37-.75-4.26-.08-4.72.1-3.61 1.43.7.84 1.01 1.78.69 2.1-.31.31-1.16-.37-1.88-1.53-1.47-2.35-3.83-2.81-3.83-.74 0 4.72 4.47 11.56 7.6 11.62.61.02 2.32-1.1 3.81-2.47m-2.98-3.93c-1.06-.78-1.7-1.64-1.43-1.91.28-.28 1.37.13 2.43.91 1.06.77 1.7 1.63 1.42 1.9-.27.28-1.36-.13-2.42-.9m-29.89-.41c-2.11-.43-4.54.49-4.54 1.72 0 .54 1.31.45 3.1-.22 2.09-.79 2.56-1.27 1.44-1.5m21.46 1.34c0-1.08-1.06-1.49-3.75-1.45l-3.75.06 3.5 1.32c1.92.73 3.61 1.38 3.75 1.45.14.06.25-.56.25-1.38m-14.44-2.41c-.31-.5-1.46-.67-2.56-.38-2.75.72-2.51 1.29.56 1.29 1.41 0 2.31-.41 2-.91m5.17.21c-.97-.25-2.32-.23-3 .04s.12.48 1.77.46 2.2-.24 1.23-.5m-91.73-4.77c0-.26-1.01-.96-2.25-1.55-2.16-1.05-2.17-1.03-.31.46 2.04 1.63 2.56 1.86 2.56 1.09m81.79-1.58c.7-1.12 1.03-2.44.73-2.92-.3-.49.45-1.21 1.67-1.6 1.38-.43 2.37-.26 2.61.47.29.88.74.89 1.75.05 1.82-1.51 5.51-.28 4.79 1.6-.3.79-.03 1.45.61 1.45s.89-.45.55-1c-.88-1.43.86-1.24 2.36.25 1.01 1 1.14.93.65-.36-2.04-5.35-13.74-5.77-18.11-.66-1.61 1.89-1.63 2.02-.13.86.98-.76 2.02-1.14 2.31-.85s-.68 1.48-2.16 2.64c-2.28 1.8-2.4 2.12-.8 2.12 1.05 0 2.47-.92 3.17-2.05m15.5.51c-1.16-.85-2-.94-2.41-.27-.42.68-.86.65-1.31-.09-1.05-1.69-9.11-1.37-10.59.42-1.13 1.36-.28 1.52 7.4 1.39 7.37-.13 8.41-.35 6.91-1.45m82.14-1.37c-.26-.26-1.25.34-2.2 1.33-1.65 1.72-1.63 1.74.47.47 1.22-.72 1.99-1.53 1.73-1.8m-129.51-2.35c-.23-.14-1.92-1.3-3.75-2.59-3.27-2.29-3.32-2.3-2.19-.19 1.08 2.01 5.01 4.27 5.94 3.42.23-.21.23-.5 0-.64m76 .88c-1.02-.91-6.92-3.63-6.92-3.18 0 .62 5.18 3.46 6.42 3.51.5.03.73-.12.5-.33m-132.92-1.09c0-.26-1.01-1-2.25-1.66-2.04-1.09-2.12-1.05-.88.46 1.28 1.55 3.13 2.26 3.13 1.2m7.69-1.71c1.27-1.2 2.31-1.69 2.31-1.09 0 .59.92.84 2.04.54 2.32-.6 2.1-1.17-.67-1.7-1.04-.2-3.24.71-4.88 2.02-1.64 1.32-2.57 2.4-2.05 2.4.51 0 1.97-.97 3.25-2.17m56.9.02 1.91-2.15-3 1.85c-4.08 2.52-4.02 2.46-2.32 2.46.83 0 2.37-.97 3.41-2.16m73.55.24c1.3-1.05 2.13-2.14 1.86-2.41-.28-.27-1.85.59-3.5 1.91s-2.49 2.41-1.86 2.41 2.2-.86 3.5-1.91m46.42.38c-1.07-.8-2.39-1.46-2.94-1.46s-.13.66.94 1.46c1.07.81 2.39 1.47 2.94 1.47s.13-.66-.94-1.47m9.44-1.04c0-.27-.9-.01-2 .58-1.1.58-2 1.29-2 1.57 0 .27.9.01 2-.57 1.1-.59 2-1.3 2-1.58m-208-.98c0-1.22-1.12-1.52-5.25-1.43-2.89.06-28.43-1.5-56.75-3.48-28.33-1.97-52.85-3.46-54.5-3.31s14.1 1.57 35 3.14c29.78 2.25 68.49 5.39 80.25 6.52.69.06 1.25-.58 1.25-1.44m7 .56c0-1.31-3.7-1.31-4.5 0-.35.56.49 1 1.94 1 1.41 0 2.56-.45 2.56-1m13.55-2.46c1.53-1.53 2.45-3.6 2.45-5.5 0-3.11-2.97-7.07-5.25-7.01-.69.01-.35.54.75 1.16s2.33 1.62 2.73 2.22c1.29 1.89.83 5.86-.89 7.76-1.77 1.96-7.79 2.52-8.84.83-.34-.55-1.15-.99-1.81-.97-2.31.06 3.56 3.97 5.97 3.97 1.34 0 3.54-1.11 4.89-2.46m25.95 1.46c-.81-1.32-14.5-1.32-14.5 0 0 .57 3.19 1 7.56 1 4.78 0 7.33-.37 6.94-1m10.08-.25c.42-.42-1.35-.75-3.91-.75-2.57 0-4.67.36-4.67.81 0 1.01 7.56.96 8.58-.06m6.42-.73c0-.41-1.12-.53-2.49-.27s-2.27.83-2 1.27c.59.94 4.49.07 4.49-1m6.76.41c-1.5-.82-2.95-2.49-3.21-3.71s-.66-3.12-.9-4.22c-.23-1.1-.47-.32-.53 1.75-.13 4.09 2.56 7.78 5.63 7.7 1.25-.02.97-.46-.99-1.52m7.93-.61c2.26-2.13 3.18-7.17 1.49-8.21-.45-.28-.63.74-.41 2.27.32 2.18-.29 3.37-2.76 5.45-1.74 1.47-2.6 2.67-1.9 2.67.69 0 2.3-.98 3.58-2.18m66.09.62c-4.99-2.71-5.9-8.1-1.88-11.16 1.94-1.48 6.75-1.66 7.6-.28.34.55 1.1 1 1.68 1 .67 0 .6-.56-.18-1.5-2.03-2.45-7.72-1.88-10.66 1.06-2.07 2.07-2.44 3.18-1.95 5.75.67 3.45 3.84 6.71 6.47 6.64 1.06-.02.68-.56-1.08-1.51m6.92.05c2.59-1.81 4.01-7.2 2.33-8.84-.89-.88-1.01-.5-.49 1.59.56 2.27.11 3.28-2.54 5.75-3.37 3.16-2.95 4.06.7 1.5m20.3-.05c0-.25-2.14-.38-4.75-.3l-4.75.14 4 .65c3.81.62 5.5.47 5.5-.49m14 .57c0-.56-2.82-.95-6.5-.89-3.58.05-6.5.49-6.5.98s2.92.9 6.5.9c3.61 0 6.5-.44 6.5-.99m7.25.32c-.69-.27-1.81-.27-2.5 0-.69.28-.13.51 1.25.51 1.37 0 1.94-.23 1.25-.51m14.33-1.42 1.89-2.09-3.13 1.79c-2.79 1.61-3.44 1.65-5.99.38-4.51-2.26-5.02-2.27-2.49-.06 3.03 2.65 7.31 2.64 9.72-.02m6.92 1.09c-.8-1.3-2.5-1.3-2.5 0 0 .55.7 1 1.56 1s1.28-.45.94-1m4.5 0c0-.55-.68-1-1.5-1-.83 0-1.5.45-1.5 1s.67 1 1.5 1c.82 0 1.5-.45 1.5-1m-132.25-.69c-.96-.26-2.54-.26-3.5 0-.96.25-.18.45 1.75.45 1.92 0 2.71-.2 1.75-.45m9.5-.02c-1.24-.24-3.26-.24-4.5 0s-.23.43 2.25.43c2.47 0 3.49-.19 2.25-.43m4.94.02c-.72-.29-1.59-.25-1.92.08s.26.57 1.31.53c1.17-.05 1.41-.29.61-.61m19 0c-.72-.29-1.59-.25-1.92.08s.26.57 1.31.53c1.17-.05 1.41-.29.61-.61m9.56-.03c-1.51-.23-3.99-.23-5.5 0s-.28.42 2.75.42c3.02 0 4.26-.19 2.75-.42m8 .03c-.96-.26-2.54-.26-3.5 0-.96.25-.18.45 1.75.45 1.92 0 2.71-.2 1.75-.45m24.25-.31c0-.55-1.13-1-2.5-1-1.38 0-2.5.45-2.5 1s1.12 1 2.5 1c1.37 0 2.5-.45 2.5-1m65 0c0-1.31-5.69-1.31-6.5 0-.37.59.82 1 2.94 1 1.96 0 3.56-.45 3.56-1m41-2.19c17.87-1.27 31.45-2.46 30.16-2.64-2.14-.31-42.57 1.95-61.41 3.43-4.26.33-7.75 1.06-7.75 1.61 0 .58 1.37.77 3.25.45 1.79-.3 17.87-1.59 35.75-2.85m-260.15-.26c-.19-.18-6.09-.64-13.1-1.04-9.8-.55-12.75-.43-12.75.51 0 .87 1.45 1.09 5 .75 2.75-.27 5-.12 5 .33 0 1.07 15.4 1.63 15.85.58.2-.44.2-.95 0-1.13m34.15.45c0-1.32-14.69-1.32-15.5 0-.39.63 2.32 1 7.44 1 4.71 0 8.06-.42 8.06-1m21.92-.61c1.1-1.04-1.24-1.19-10.67-.67-5.64.31-10.25.93-10.25 1.38 0 .77 20.06.09 20.92-.71m41.11-.03c.85-.84-1.82-1.16-10.45-1.25-6.66-.07-11.58.28-11.58.82 0 1.87 20.2 2.27 22.03.43m14.4.66c1.42-.54 2.57-.65 2.57-.25s3.6.73 8 .73c5.73 0 8-.36 8-1.25 0-.94-3.09-1.25-12.12-1.25-10.66 0-11.98.18-10.88 1.5 1.48 1.77 1.22 1.74 4.43.52m52.57-.52c0-1.2-1.5-1.5-7.5-1.5-9.61 0-9.81 1.8-.25 2.25 3.99.19 7.36.44 7.5.55s.25-.48.25-1.3m4 .5c0-.55-.45-1-1-1s-1 .45-1 1 .45 1 1 1 1-.45 1-1m17 0c0-.58-3.17-1-7.5-1s-7.5.42-7.5 1c0 .57 3.17 1 7.5 1s7.5-.43 7.5-1m-217.35-1.69c-.73-.73-52.03-3.75-79.15-4.67-8.8-.29 5.37.92 31.5 2.7 26.12 1.78 47.69 3.1 47.92 2.94s.1-.59-.27-.97m261.09.28c1.23-1.23-.57-1.35-12.49-.84-7.24.31-12.25.93-12.25 1.53 0 1.07 23.64.41 24.74-.69m-255.74-1.09c0-.83-.68-1.5-1.5-1.5-.83 0-1.5.67-1.5 1.5 0 .82.67 1.5 1.5 1.5.82 0 1.5-.68 1.5-1.5m32.03-6.73c1.21-.98 1.83-1.77 1.4-1.77-2.16 0-5.42 4.55-5.33 7.42l.1 3.08.82-3.48c.45-1.91 1.81-4.28 3.01-5.25m183.4 4c.34-1.54 1.78-3.37 3.33-4.21 1.84-1 2.19-1.5 1.06-1.52-2.35-.06-5.84 4.71-5.74 7.84.08 2.77.37 2.32 1.35-2.11m13.57 1.23c0-3.33-3.03-7.01-5.75-7-1.16 0-.66.67 1.5 1.98 2.51 1.53 3.25 2.67 3.25 5 0 1.66.22 3.02.5 3.02.27 0 .5-1.35.5-3m102.26-1.58c28.734-1.84 45.715-3.13 37.74-2.84-7.975.28-30.25 1.4-49.5 2.49s-36.58 1.94-38.5 1.89c-5.81-.16-19.02 1.2-18.58 1.9.53.86 6.94.54 68.84-3.44m-309.26 1.71c0-1.46-1.01-2-4.64-2.5-6.79-.93-7.36-.83-7.36 1.31 0 1.6.84 2.01 4.75 2.32 2.61.21 5.31.46 6 .55.69.1 1.25-.65 1.25-1.68m43.54-.59c.6-1.81.73-1.84 1.14-.29.38 1.41 1.59 1.75 6.39 1.75 5.26 0 5.93-.23 5.93-2 0-1.84-.67-2-7.92-2-5.35 0-8.1.4-8.5 1.25-.46 1-.7 1-1.16 0-.37-.79-2.71-1.25-6.29-1.25-5.03 0-5.7.23-5.7 1.99 0 1.47.48 1.85 1.78 1.44.99-.31 1.79-.08 1.79.52 0 .7 2.16 1.01 5.94.86 4.98-.19 6.04-.56 6.6-2.27m138.46 1.46c0-1.44 2.74-1.24 3.34.25.28.68.54.01.58-1.5.08-2.71-.02-2.75-5.92-2.75-5.26 0-6 .23-6 1.93 0 1.82.92 2.22 6.75 2.92.69.08 1.25-.3 1.25-.85m57 0c0-.55-.68-1-1.5-1-.83 0-1.5.45-1.5 1s.67 1 1.5 1c.82 0 1.5-.45 1.5-1m-252-2c0-1.81-.67-2.01-6.75-2.02-3.71-.01-27.45-.66-52.75-1.45-61.21-1.92-82.52-2.45-79.5-1.99 1.37.22 29.93 1.82 63.46 3.56 44.67 2.32 61.05 2.86 61.33 2.03.56-1.68 5.9-1.38 6.57.37.36.94 1.89 1.5 4.11 1.5 2.86 0 3.53-.38 3.53-2m99.58 0c.78 0 1.42.45 1.42 1s1.77 1 3.93 1c2.9 0 4.04-.46 4.38-1.75.44-1.67.46-1.67.57 0 .18 2.58 6.24 2.39 7.89-.25 1.22-1.96 1-2-9.76-2-10.77 0-11.01.04-10.93 2.25.04 1.23.3 1.68.58 1 .28-.69 1.14-1.25 1.92-1.25m30.84.75c.46-1 .7-1 1.16 0 .74 1.57 6.63 1.63 8.18.09.85-.85 1.51-.87 2.49-.05 1.03.85 1.37.66 1.48-.85.14-1.83-.55-1.94-11.54-1.87-6.43.05-11.13.31-10.44.59.69.27 1.25 1.14 1.25 1.92 0 1.8 6.58 1.95 7.42.17m55.58-.75c0-2.46-1.99-2.7-2.03-.25-.03 1.66-.1 1.66-1.36 0-.96-1.27-2.75-1.75-6.47-1.75-4.47 0-5.14.25-5.14 2 0 1.82.67 2 7.5 2s7.5-.18 7.5-2m52.33-.38c.6-.82.96-.79 1.33.13.61 1.5 7.34 1.69 7.34.2 0-.68 2.48-.82 7.25-.4 3.99.35 20.52-.07 36.75-.93 16.22-.86 43.9-2.28 61.5-3.14s32.9-1.75 34-1.96c2.098-.41-27.438.18-50.5 1.01-22.72.82-67.4 2.36-88.75 3.07-19.21.63-20.25.77-20.25 2.63 0 1.78.46 1.89 5.25 1.24 2.89-.4 5.62-1.23 6.08-1.85m82.4 1.65c-2.08-.22-5.23-.22-7 0-1.78.22-.08.4 3.77.4 3.85-.01 5.3-.19 3.23-.4m14.04-.99c-1.5-.23-4.2-.23-6-.01s-.57.41 2.73.42c3.3 0 4.77-.18 3.27-.41m-448.02-1c-1.51-.23-3.99-.23-5.5 0s-.28.42 2.75.42c3.02 0 4.26-.19 2.75-.42m461 .03c-.96-.26-2.54-.26-3.5 0-.96.25-.18.45 1.75.45 1.92 0 2.71-.2 1.75-.45m-476.02-1.01c-.97-.25-2.32-.23-3 .04s.12.48 1.77.46 2.2-.24 1.23-.5m15.02-1.03c-2.06-.22-5.44-.22-7.5 0-2.06.21-.38.39 3.75.39 4.12 0 5.81-.18 3.75-.39m-17-.99c-1.51-.23-3.99-.23-5.5 0s-.28.42 2.75.42c3.02 0 4.26-.19 2.75-.42m216.26-.51c2.66 1.66 3.5 1.54 1.99-.27-1.83-2.22-10-1.79-10 .52 0 .44 1.36.29 3.02-.34 2.31-.87 3.48-.85 4.99.09m-238.28-.47c-.97-.25-2.32-.23-3 .04s.12.48 1.77.46 2.2-.24 1.23-.5m5.46.01c-.72-.29-1.59-.25-1.92.08s.26.57 1.31.53c1.17-.05 1.41-.29.61-.61m254.38-1.9c-.42-1.67-.28-2.36.39-1.94.57.35 1.04 1.52 1.04 2.58 0 1.59.71 1.95 3.88 1.95 4.59 0 5.09-1.07 5.11-10.91.01-6.01-.1-6.31-1.74-4.9-.96.83-3.67 2.56-6.01 3.84-3.06 1.68-4.11 2.81-3.72 4.02.43 1.36.02 1.58-2.13 1.17-1.81-.35-2.94.01-3.57 1.13-.51.91-1.75 1.65-2.76 1.65-1.02 0-2.09.64-2.39 1.42s-1.59 1.62-2.86 1.86 1.68.5 6.55.58l8.86.14zm23.51 1.34c.06-1 .18-1 .58 0 .65 1.59 16.34 1.77 16.34.19 0-.59-.41-.81-.92-.49-.51.31-1.6-.12-2.43-.95s-2.19-1.5-3.03-1.5-1.98-.79-2.54-1.75c-.56-.97-1.03-1.4-1.05-.97s-.93.3-2.03-.28c-1.58-.85-2-.77-2 .4 0 .81-.53 1.8-1.17 2.2-1.12.69-1.04.27.78-4.12.23-.55-2.36-2.53-5.75-4.4l-6.17-3.39.64 3.9c.36 2.15.65 5.82.66 8.16l.01 4.25h4c2.49 0 4.03-.48 4.08-1.25m253.65.52c-2.075-.22-5.225-.22-7 0s-.078.4 3.772.4c3.85-.01 5.302-.19 3.228-.4m12.522-.94c-.688-.27-1.813-.27-2.5 0-.688.28-.125.51 1.25.51s1.937-.23 1.25-.51m6-2c-.688-.27-1.813-.27-2.5 0-.688.28-.125.51 1.25.51s1.937-.23 1.25-.51m-384.25 33.67c-1.21-.79-1.07-.98.75-.99 1.24-.01 2.25.44 2.25.99 0 1.25-1.06 1.25-3 0m5.75.33c.69-.27 1.81-.27 2.5 0 .69.28.12.51-1.25.51-1.38 0-1.94-.23-1.25-.51m6.25-.33c1.96-1.27 3.28-1.27 2.5 0-.34.55-1.38.99-2.31.98-1.46-.01-1.48-.15-.19-.98m175 0c-1.21-.79-1.07-.98.75-.99 1.24-.01 2.25.44 2.25.99 0 1.25-1.06 1.25-3 0m5 .61c0-.21 1.12-.6 2.5-.86 1.37-.26 2.5-.09 2.5.38 0 .48-1.13.87-2.5.87-1.38 0-2.5-.18-2.5-.39m8-1.61c1.96-1.27 3.28-1.27 2.5 0-.34.55-1.38.99-2.31.98-1.46-.01-1.48-.15-.19-.98m-204.97-.97c-.81-.51-1.23-1.17-.93-1.47s1.41.11 2.47.91c2.11 1.6.83 2.06-1.54.56m208.97.3c0-.76 3.22-3.26 4.25-3.3 1.7-.08.57 1.72-1.75 2.78-1.38.63-2.5.86-2.5.52m-214-3.83c-.69-.84-.8-1.5-.24-1.5.55 0 1.56.67 2.24 1.5.69.83.8 1.5.24 1.5-.55 0-1.56-.68-2.24-1.5m62-26.5c-1.29-.84-1.27-.98.19-.99.93-.01 1.97.44 2.31.99.78 1.26-.54 1.26-2.5 0m96 0c1.96-1.27 3.28-1.27 2.5 0-.34.55-1.38.99-2.31.98-1.46-.01-1.48-.15-.19-.98m20-.5c0-.83.44-1.5.97-1.5s.71.67.39 1.5c-.74 1.92-1.36 1.92-1.36 0m-136.4-2.1c-.36-.93-.42-1.92-.15-2.19.28-.28.79.26 1.15 1.19.36.92.42 1.91.15 2.18-.28.28-.79-.26-1.15-1.18m120.4.67c0-.47.67-1.12 1.5-1.44.82-.31 1.5-.18 1.5.29s-.68 1.12-1.5 1.44c-.83.31-1.5.18-1.5-.29m9.47-1.17c-.46-1.44-1.25-1.93-2.57-1.59-1.04.27-1.9.09-1.9-.41s.5-.9 1.11-.9c.69 0 .87-1.03.48-2.75-.53-2.37-.26-2.19 1.89 1.25 1.38 2.2 2.51 4.56 2.51 5.25.01 1.92-.78 1.48-1.52-.85m-113.97.1c-.34-.55-.17-1 .38-1s1.28.45 1.62 1 .17 1-.38 1-1.28-.45-1.62-1m-40.5-2c0-1.1.45-2 1-2s1 .9 1 2-.45 2-1 2-1-.9-1-2m209.58.35c-.95-2.48.1-2.82 1.37-.44.62 1.15.7 2.09.19 2.09s-1.21-.74-1.56-1.65m-233.58.27c0-.21.69-.95 1.52-1.64 1.28-1.06 1.42-1 .9.37-.54 1.41-2.42 2.39-2.42 1.27m57.9-1.35c1.08-2.1 1.25-2.13 3.09-.55 1.07.92 1.75 1.87 1.5 2.11-.24.25-1.05-.05-1.79-.67-1-.83-1.68-.8-2.65.11-1.06 1-1.08.82-.15-1m128.74.23c.31-.83.96-1.5 1.44-1.5.47 0 .6.67.28 1.5-.32.82-.96 1.5-1.44 1.5-.47 0-.6-.68-.28-1.5m23.36-.34c0-1.19.41-2.16.91-2.16 1.02 0 .87 2.55-.21 3.63-.39.39-.7-.28-.7-1.47m-164.98-2.64c-.79-.95-.86-1.52-.2-1.52 1.21 0 2.62 1.89 1.92 2.59-.25.25-1.02-.23-1.72-1.07m143.98-.28c0-.55.67-1.56 1.5-2.24.84-.7 1.5-.81 1.5-.25 0 .55-.68 1.56-1.5 2.25-.84.69-1.5.8-1.5.24m41.5-1.24c-1-1.1-1.31-2-.69-2s1.6.9 2.19 2c1.36 2.54.81 2.54-1.5 0m-226.5.18c0-1.21 1.9-2.62 2.59-1.93.25.25-.23 1.03-1.07 1.72-.95.79-1.52.87-1.52.21m20-1.18c0-1.1.45-2 1-2s1 .9 1 2-.45 2-1 2-1-.9-1-2m37.51-.01c.99-1.1 2.03-1.79 2.29-1.53.67.68-1.82 3.54-3.08 3.54-.57 0-.21-.91.79-2.01m148.49-.99c0-1.1.41-2 .91-2 .49 0 .67.9.38 2-.67 2.56-1.29 2.56-1.29 0m-169.33-.67c-1.22-1.22-.69-2.28.83-1.7.82.32 1.5.98 1.5 1.47 0 1.05-1.38 1.18-2.33.23m56.35-.81c-.79-.95-.86-1.52-.2-1.52 1.21 0 2.62 1.89 1.92 2.59-.25.25-1.02-.23-1.72-1.07m39.98.59c0-.9 3-2.44 3.6-1.85.17.17-.57.86-1.65 1.53-1.07.67-1.95.82-1.95.32m34-.61c-.69-.84-.8-1.5-.24-1.5.55 0 1.56.67 2.24 1.5.69.83.8 1.5.24 1.5-.55 0-1.56-.68-2.24-1.5m-163-.36c0-1.03 3.03-2.45 3.73-1.75.24.24-.5.95-1.64 1.56-1.15.61-2.09.7-2.09.19m57-.03c0-.9 3-2.44 3.6-1.85.17.17-.57.86-1.65 1.53-1.07.67-1.95.82-1.95.32m129-.61c.68-.83 1.95-1.5 2.81-1.5 1.26 0 1.18.29-.37 1.46-2.54 1.92-4.02 1.94-2.44.04m31.57-.08c-1.06-.77-1.7-1.63-1.42-1.9.27-.28 1.36.13 2.42.9 1.06.78 1.7 1.64 1.43 1.91-.28.28-1.37-.13-2.43-.91m-201.57-2.36c0-1.2-.84-2.09-2.25-2.36-1.45-.28-.97-.48 1.36-.57 3.34-.12 3.58.05 3.13 2.37-.56 2.94-2.24 3.36-2.24.56m11.43.46c-1.06-.81-1.48-1.47-.93-1.48 1.49-.02 4.03 1.76 3.4 2.39-.3.3-1.41-.11-2.47-.91m56.13-.11c-1.07-.78-1.52-1.41-1-1.4 1.38.02 3.96 1.8 3.41 2.35-.26.26-1.35-.17-2.41-.95m51.44-.39c0-.44.9-1.03 2-1.31 1.1-.29 2-.17 2 .26 0 .44-.9 1.03-2 1.31-1.1.29-2 .17-2-.26m22-.02c-1.29-.84-1.27-.98.19-.99.93-.01 1.97.44 2.31.99.78 1.26-.54 1.26-2.5 0m45-.43c0-.79-.79-1.63-1.75-1.89-.96-.25.72-.43 3.75-.41 3.02.03 4.06.22 2.3.44-2.28.29-3.03.82-2.64 1.84.31.8.06 1.45-.55 1.45s-1.11-.65-1.11-1.43m-195-.57c.82-.54 2.17-.97 3-.97 1.33 0 1.33.1 0 .97-.83.53-2.18.96-3 .96-1.33 0-1.33-.1 0-.96m57 0c1.96-1.27 3.28-1.27 2.5 0-.34.55-1.38.99-2.31.98-1.46-.01-1.48-.15-.19-.98m129-.46c1.37-.76 2.71-1.17 2.97-.91.67.67-2.18 2.34-3.97 2.31-.87-.01-.45-.6 1-1.4m18.5.46c-.78-1.27.54-1.27 2.5 0 1.29.83 1.27.97-.19.98-.93.01-1.97-.43-2.31-.98m-191-1c-.79-1.28 1.53-1.28 3.5 0 1.22.78 1.09.97-.69.98-1.21.01-2.47-.43-2.81-.98m49.5-.1c0-.5.9-.9 2-.9 2.56 0 2.56.61 0 1.28-1.1.29-2 .12-2-.38m6.5.1c-.78-1.27.54-1.27 2.5 0 1.29.83 1.27.97-.19.98-.93.01-1.97-.43-2.31-.98m65 0c.34-.55 1.6-.97 2.81-.93 2.11.06 2.12.1.19.93-2.75 1.18-3.73 1.18-3 0m8 0c-1.77-.77-1.69-.87.75-.93 1.51-.04 2.75.38 2.75.93 0 1.17-.77 1.17-3.5 0" style="fill:#b9b9b9" transform="translate(620.71 363.28)"/><path d="M-336.81-266.46c-3.69-1.91-7.76-3.07-12.25-3.49-5.65-.52-6.72-.92-6.72-2.48 0-1.02-.2-1.85-.45-1.85-1.62 0-39.81-7.18-43.05-8.09-8.28-2.32-7.89-4.87.75-4.9l4.75-.01v-15.73l-8.18-5.21c-5.06-3.22-8.89-5.02-10.06-4.71-1.39.36-1.61.17-.86-.73.74-.89-.11-1.8-3.2-3.4-3.44-1.78-6.38-2.25-16.2-2.6-6.6-.24-12.68-.67-13.5-.96-.83-.29-35.48-4.18-77-8.65-91.9-9.9-98.86-10.91-97.75-14.27.64-1.95 7.43-1.99 65.25-.34 29.7.85 65.59 1.85 79.75 2.22l25.75.68.14-2.4c.12-2.19.17-2.22.55-.27.79 4.02 15.06 4.89 19.02 1.17 3.08-2.9 8.34-2.89 12.26.02 2.69 1.98 4.12 2.21 13.52 2.1 8.06-.1 10.51-.44 10.51-1.47 0-.73.5-1.64 1.11-2.02.74-.46.88.01.43 1.44-.65 2.05-.39 2.13 7.76 2.13 7.12 0 8.86-.34 11.17-2.16 2.88-2.26 8.73-2.75 10.95-.91.82.68 3.25-.26 7.88-3.04 3.69-2.2 7.2-3.7 7.8-3.33.78.48.77.06-.02-1.42-.92-1.71-.86-2 .31-1.55 2.18.84 14.61-6.66 14.61-8.81 0-.98.45-1.78 1-1.78s1 .87 1 1.95c0 1.36 1.99 3.06 6.63 5.66 5.88 3.28 6.87 3.55 8.75 2.38 1.94-1.2 2-1.17.73.37-1.67 2.01-2.21 1.49 6.39 6.29 6.51 3.64 7.2 3.82 9.79 2.56 3.12-1.52 7.92-.87 9.74 1.32.93 1.12 5.34 1.41 22.02 1.42 11.66.01 21.1-.39 21.42-.91.31-.5 1.81-1.54 3.33-2.29 3-1.5 6.35-.69 9.86 2.39 2.62 2.3 18.28 1.43 18.46-1.02.09-1.36.19-1.34.57.13.26.99 1.4 1.74 2.63 1.74 4.36-.01 130.64-3.94 146.79-4.57 17.006-.66 20.89-.29 20.89 2.03 0 1.37-5.232 3.83-10.5 4.93-2.671.56-85.95 9.69-143.49 15.73-16.33 1.71-21.85 2.64-23 3.87-.83.88-1.15 1.06-.7.39.62-.94-1.91-1.16-11-.98-10.31.21-12.29.53-15.59 2.54-3.22 1.96-3.59 2.52-2.5 3.86 1.11 1.35 1.03 1.42-.61.51-1.55-.86-3.32-.12-9.75 4.03l-7.86 5.08v17.48l5.17.3c6.27.37 7.25 2.05 2.11 3.62-3.36 1.02-43.04 8.19-45.36 8.19-.51 0-.92.83-.92 1.86 0 1.51-1 1.96-5.39 2.41-2.97.31-8.26 1.75-11.75 3.2-3.5 1.45-6.81 2.77-7.36 2.93s-3.49-1-6.53-2.58m7.03-2.69c0-4.49.29-5.06 3.75-7.45 2.06-1.43 5.52-3.33 7.69-4.23 3.72-1.55 4.02-1.54 5.25.14.72.98 1.34 2.71 1.38 3.85.04 1.13.48 2.96.98 4.06.63 1.39.72.78.29-2-.69-4.58-2.51-8.58-6.01-13.25-1.34-1.79-1.99-3.25-1.44-3.25s1.26.42 1.58.95c.33.52 1.93 1.9 3.56 3.07l2.97 2.11-.07-3.82c-.06-3.06-.24-3.42-.94-1.81-.85 1.94-.89 1.93-1.55-.25-.37-1.24-1.07-2.25-1.56-2.25-1.75 0-.83-2.89 1.12-3.5 3.34-1.07 2.28-2.16-3.75-3.88-6.13-1.74-11.01-4.21-6.07-3.06 2.42.56 2.62.39 2.11-1.72-.32-1.29-1.02-2.91-1.56-3.59-1.23-1.58-8.14-1.73-7.17-.16.5.8.12.8-1.37 0-1.13-.6-3.46-1.09-5.17-1.09-2.56 0-3.37.58-4.53 3.25-.78 1.78-1.43 2.65-1.45 1.93s.43-2.19 1-3.25c1.72-3.22-3.62-2.51-7.07.94-1.59 1.59-3.06 2.7-3.28 2.48s-.97.28-1.67 1.12c-.75.91-.85 1.53-.23 1.53.58 0 1.27-.57 1.55-1.25.28-.69.54-.28.58.9.06 1.65.55 2.03 2.07 1.64 1.09-.29 1.74-.93 1.43-1.42-.31-.5-1.05-.61-1.64-.24-.73.45-.79.2-.2-.73.49-.77.9-1.7.9-2.07.05-1.78 1.39-1.63 3.11.33 1.05 1.2 1.38 1.87.73 1.49s-1.51-.16-1.91.48c-.72 1.18 2.35.9 7.09-.65 1.87-.61 1.89-.56.25.79-1.15.95-1.75 2.86-1.75 5.59 0 2.27.17 4.14.37 4.14.21 0 2.48-.93 5.04-2.07l4.67-2.07 5.95 2.31c3.27 1.27 5.84 2.76 5.71 3.32-.12.56.81 2.47 2.08 4.25 2.29 3.22 2.22 5.26-.19 5.26-.69 0-3.83 1.55-6.99 3.45l-5.75 3.46.31-4.66c.27-4.18.75-5.01 4.63-7.96 2.38-1.81 3.94-3.29 3.48-3.29-.47 0-2.53 1.38-4.58 3.07l-3.73 3.07v-5.07c0-3.1-.44-5.07-1.13-5.07-.75 0-.96 1.66-.65 4.97l.48 4.97-3.38-2.97c-1.87-1.64-3.94-2.97-4.6-2.97-.67.01.07.86 1.64 1.89 4.26 2.81 6.31 6.5 5.84 10.51l-.4 3.46-3.98-2.88c-2.19-1.59-5.55-3.4-7.47-4.03-2.32-.77-3.31-1.62-2.95-2.56.97-2.52-.32-1.46-1.87 1.56-1.89 3.64-1.99 5.05-.18 2.59 1.15-1.58 1.81-1.69 4.49-.75 4.11 1.43 12.12 6.97 12.3 8.5.07.66.05 2.89-.06 4.96-.1 2.07.29 3.75.87 3.75.59 0 1.05-2.13 1.05-4.87m-3.66-36.7c-.34-.86-.21-1.97.28-2.45.51-.51.88.15.88 1.57 0 2.83-.32 3.08-1.16.88m-16.74 27.84c-.33-.34-.56.25-.52 1.31.05 1.16.28 1.4.6.6.29-.72.26-1.58-.08-1.91m-1.91-10.27c.32-5.75-.51-11-1.74-11-.54 0-.94 4.2-.92 9.75.03 7.99.24 9.38 1.22 7.75.65-1.1 1.3-4.03 1.44-6.5m45.31-1c0-6.54-.34-9.01-1.25-9.01-.9 0-1.17 1.87-.97 6.75.56 13.67 2.22 15.35 2.22 2.26m-49 5c0-1.93-.62-2-16.75-1.87l-16.75.14 13 1.74c18.31 2.46 20.5 2.46 20.5-.01m75 .01c5.21-.6 3.37-.78-9.25-.88-13.85-.12-15.75.06-15.75 1.47s1.12 1.52 9.25.88c5.09-.39 12.17-1.06 15.75-1.47m-61-12.64c0-4.89-1.09-5.39-6.5-2.91-2.68 1.22-2.76 1.38-.75 1.45 2.48.09 3.21 3.09.75 3.09-.83 0-1.51.56-1.51 1.25-.01.68-.31 3.02-.66 5.2l-.66 3.95 4.67-3.82c4.26-3.5 4.66-4.21 4.66-8.21m73.17 2.61c.21-5.06-.04-7.87-.67-7.62-.55.21-5.93 3.57-11.96 7.47l-10.96 7.09 9.96.33c5.48.18 10.71.42 11.63.54 1.42.17 1.73-1.01 2-7.81m-102.17 6.6c0-.55-20.47-13.58-21.33-13.58-.37 0-.67 3.15-.67 7v7h11c6.05 0 11-.19 11-.42m15-6.89c0-4.88.49-7.96 1.47-9.25.81-1.07 1.48-2.25 1.5-2.61.05-1.19-6.9-5-7.95-4.35-.56.35-1.02.03-1.02-.71s-2.54-3.02-5.64-5.06c-5.14-3.39-6.25-3.71-12.56-3.71-4.36 0-6.69.37-6.3 1 .34.55.14 1-.44 1s-1.06-.48-1.06-1.06c0-.59-.41-.81-.91-.5-1.01.63-3.57 14.41-2.81 15.17.26.26 6.47 4.28 13.79 8.93 11.4 7.24 13.94 8.46 17.62 8.46h4.31zm-17.25-16.36c.69-.27 1.81-.27 2.5 0 .69.28.12.51-1.25.51-1.38 0-1.94-.23-1.25-.51m5.05-1.58c.48-1.75.7-1.88.97-.57.19.93 1.11 1.89 2.04 2.14 1 .26.61.49-.97.56-2.29.1-2.57-.2-2.04-2.13m-10.8.25c-1.29-.84-1.27-.98.19-.99.93-.01 1.97.44 2.31.99.78 1.26-.54 1.26-2.5 0m-4.97-2.97c-.81-.51-1.21-1.19-.89-1.5.31-.32 1.14.1 1.84.94 1.44 1.74 1.17 1.9-.95.56m99.97 19.38c7.42-4.72 13.81-8.89 14.19-9.25.6-.58.15-3.89-1.75-12.91-.46-2.15-.94-2.25-9.89-2.25-6.32 0-9.84.42-10.73 1.28-.73.71-3.01 2.32-5.07 3.58-2.06 1.27-3.75 2.71-3.75 3.22 0 .5-.49.92-1.1.92-.6 0-2.42.94-4.04 2.1-2.81 2-2.88 2.22-1.41 4.46 1.05 1.61 1.55 4.78 1.55 9.9v7.54l4.25-.01c3.62 0 6.25-1.27 17.75-8.58m-12.25-15.12c1.45-.28 2.3-1.21 2.39-2.61l.13-2.18.43 2.18c.28 1.46 1.32 2.33 3.11 2.6 1.48.23.21.42-2.81.43-3.03.01-4.49-.18-3.25-.42m12.75-2.29c.34-.55 1.07-1 1.62-1s.72.45.38 1-1.07 1-1.62 1-.72-.45-.38-1m5.5-3.5c.68-.83 1.69-1.5 2.24-1.5.56 0 .45.66-.24 1.5-.68.82-1.69 1.5-2.24 1.5-.56 0-.45-.67.24-1.5m-33.35 15.03c-.31-.81-.13-1.74.39-2.06.87-.54 1.39.81 1.08 2.78-.07.41.58.75 1.44.75 1.35 0 1.32-.4-.24-3.04-.99-1.67-1.95-2.58-2.14-2.01-.23.68-1.07.64-2.51-.13-1.96-1.04-2.04-.99-.8.51 1.25 1.52.88 2.1-1.12 1.78-1.58-.25-.66 1.76 1 2.2 3.11.81 3.47.71 2.9-.78m-5.1-2.78c.56-1.24 1.57-2.14 2.24-2 1.63.33 1.52-.3-.36-2.18-.87-.87-2.86-1.57-4.44-1.57-2.81 0-2.84.05-1.44 2.75.79 1.51 1.44 3.31 1.44 4 .01 2 1.45 1.44 2.56-1m-30.09.31c.31-.51.19-1.16-.28-1.45-.46-.29-.85.13-.85.93 0 1.69.32 1.83 1.13.52m-45.59-8.68c.67-3.65 1.09-6.73.93-6.86-.17-.13-5.6-.02-12.08.25l-11.77.48 10.25 6.37c5.64 3.51 10.53 6.38 10.86 6.38s1.14-2.98 1.81-6.62m136.88-1.31c4.54-2.9 8.25-5.43 8.25-5.62 0-.2-5.18-.37-11.5-.38-12.88-.02-12.14-.61-10.36 8.28 1.1 5.46 1.23 5.63 3.25 4.34 1.16-.75 5.82-3.73 10.36-6.62m-89.23-1.5c1.62-5.41 1.55-5.74-1.16-5.56-1.02.07-7.04.46-13.36.87-6.33.41-10.94.83-10.26.93s2.03.86 3 1.68c.97.83 4.67 3.45 8.22 5.84 6.31 4.22 6.53 4.29 9.27 2.75 1.99-1.12 3.24-3.02 4.29-6.51m-11.02 1.43c.34-.55 1.07-1 1.62-1s.72.45.38 1-1.07 1-1.62 1-.72-.45-.38-1m50.5 1.76c0-.6.28-.81.63-.47.62.62 8.53-4.57 10.39-6.81.67-.81-2.02-1.19-9.72-1.36-9.6-.22-10.51-.08-9.33 1.34.72.87 1.06 1.84.74 2.16-.31.31-1.16-.37-1.88-1.53-.72-1.15-2.06-2.09-2.97-2.09-1.52 0-1.54.41-.24 4.72.82 2.75 2.56 5.64 4.14 6.9 2.72 2.17 2.72 2.17 5.48.2 1.52-1.08 2.76-2.46 2.76-3.06m-5-2.76c-.83-.54-1.05-.97-.5-.97s1.67.43 2.5.97c.82.53 1.05.96.5.96s-1.68-.43-2.5-.96m-21.91.04c2.53-.03 6.69.59 9.25 1.36 4 1.2 4.66 1.2 4.66 0 0-.77-.79-1.44-1.75-1.47-.96-.04-3.1-.29-4.75-.56-5.71-.93-16.27-.25-18.61 1.19-2.37 1.47-.46 2.05 2.86.86 2.06-.73 5.82-1.36 8.34-1.38m6.83-6.64c-1.53-1.85-9.32-1.84-10.85.01-1.49 1.79.27 2.22 7.11 1.74 4.07-.29 4.7-.59 3.74-1.75m-93 1.23c-.23-.2-1.55-.95-2.92-1.66-2.29-1.19-2.38-1.16-1.13.36.76.92 2.07 1.67 2.92 1.67s1.36-.17 1.13-.37m80.69-1.38c1.69-2.23 1.76-3.58.14-2.67-.85.48-.93.37-.25-.33.55-.56 2.01-1.34 3.25-1.71 1.75-.53 2.26-.28 2.28 1.14.03 1.68.14 1.67 1.54-.17 1.5-1.99 1.51-1.99 5.15 0 2 1.09 3.84 2.6 4.09 3.36.24.76-.55.38-1.77-.83-2.7-2.7-4.08-1.85-1.55.95 2.16 2.38 4.51 2.62 4.51.46 0-2.18-4.33-6.25-7.5-7.05-3.8-.95-10.03 1.18-12.45 4.25-1.13 1.44-2.05 3-2.05 3.48 0 1.54 3.24.92 4.61-.88m96.95.28c1.07-.81 1.46-1.49.88-1.5-.58-.02-1.93.63-3 1.43-1.07.81-1.46 1.49-.88 1.5.58.02 1.93-.63 3-1.43m-148.9-2.78c-.28-.69-.5-.13-.5 1.25 0 1.37.22 1.93.5 1.25.28-.69.28-1.82 0-2.5m-27.66-3.2c0-.21.29-1.22.63-2.22.58-1.67.51-1.69-.75-.22-.76.89-2.81 2.43-4.56 3.43-3.15 1.79-3.21 1.78-6.54-.77-3.12-2.38-3.38-2.42-3.51-.65-.08 1.06.19 1.71.61 1.45.41-.26 2.06.32 3.65 1.28 2.77 1.68 3.07 1.68 6.68-.07 2.09-1.01 3.79-2.01 3.79-2.23m50.5 3.45c-.79-1.29-1.5-1.29-1.5 0 0 .55.48 1 1.06 1s.78-.45.44-1m73.42-.32c-.23-.18-2.19-1.34-4.36-2.58-2.59-1.49-3.48-1.72-2.62-.67 1.41 1.7 6.29 4.42 6.98 3.89.23-.18.23-.47 0-.64m-151.92-.08c0-.21-.7-.66-1.55-.99-.89-.34-1.29-.17-.94.4.58.95 2.49 1.4 2.49.59m76-.6c0-.55-.47-1-1.05-1-.57 0-2.15-1.11-3.5-2.46s-2.45-2-2.45-1.45c0 1.32 4.62 5.91 5.95 5.91.58 0 1.05-.45 1.05-1m7.59-2.16 1.91-2.15-3 1.85c-4.08 2.52-4.02 2.46-2.32 2.46.83 0 2.37-.97 3.41-2.16m73.55.24c1.3-1.05 2.13-2.14 1.86-2.41-.28-.27-1.85.59-3.5 1.91s-2.49 2.41-1.86 2.41 2.2-.86 3.5-1.91m45.36-.5c-1.65-1.32-3.23-2.18-3.5-1.91-.66.66 3.9 4.33 5.36 4.32.63 0-.21-1.09-1.86-2.41m11.5-.54c.82-.56 1.05-1.01.5-1.01-.55.01-2.13.93-3.5 2.05-2.44 2-.47 1.32 3-1.04m-157.35.49c-.44-1.16.06-1.34 2.39-.88 1.88.38 2.96.18 2.96-.53 0-.67-1.83-1.12-4.5-1.12-2.48 0-4.5.45-4.5 1s.67 1 1.5 1c.82 0 1.5.45 1.5 1s.27 1 .61 1c.33 0 .35-.66.04-1.47m166.61-.97c-.39-2.01-.84-2.3-2.61-1.64-1.18.43-2.71.59-3.4.35s-1.25.1-1.25.76c0 .7.82.98 1.95.69 1.08-.28 2.77.1 3.75.85.99.75 1.85 1.38 1.91 1.39.06.02-.1-1.06-.35-2.4m-218.26-.12c0-1.21-1.16-1.54-5.25-1.52-2.89.02-16.28-.82-29.75-1.87-21.09-1.65-22.48-1.85-10-1.44 7.97.26 15.74.71 17.25 1.01 2.07.4 2.75.14 2.75-1.05 0-1.31-1.57-1.61-9.25-1.78l-9.25-.21 8.99-.33c4.95-.19 9.43-.77 9.95-1.3 1.54-1.53 5.56-1.14 5.56.55 0 1.08 1.11 1.5 4 1.5 3.23 0 4-.36 4-1.87 0-2.15 2.3-2.03-87-4.75-36.47-1.11-54.93-1.31-58-.64-3.69.81-2.43.93 7 .69l11.5-.3-9.25.77c-12.55 1.04-13.06 2.27-.7 1.7 5.51-.25 7.72-.15 4.95.22-3.49.47 16.6 2.37 66.5 6.3 39.32 3.09 72.51 5.68 73.75 5.75 1.42.08 2.25-.45 2.25-1.43m-70.75-6.17c2.06-.22 5.44-.22 7.5 0 2.06.21.37.39-3.75.39-4.13 0-5.81-.18-3.75-.39m-15.5-1c1.79-.22 4.71-.22 6.5 0s.32.4-3.25.4c-3.58 0-5.04-.18-3.25-.4m-15.02-1c1.77-.22 4.92-.22 7 0 2.07.21.62.39-3.23.4-3.85 0-5.55-.18-3.77-.4m45.02-.01c2.34-.21 6.16-.21 8.5 0s.42.39-4.25.39c-4.68 0-6.59-.18-4.25-.39m-60-.99c1.79-.22 4.71-.22 6.5 0s.32.4-3.25.4c-3.58 0-5.04-.18-3.25-.4m40.53-.01c2.63-.21 6.68-.21 9 0s.17.38-4.78.38-6.85-.17-4.22-.38m-54.51-.99c1.8-.22 4.5-.22 6 .01s.03.41-3.27.41c-3.3-.01-4.53-.2-2.73-.42m35.51-.01c2.63-.21 6.68-.21 9 0s.17.38-4.78.38-6.85-.17-4.22-.38m-18-1c2.63-.21 6.68-.21 9 0s.17.38-4.78.38-6.85-.17-4.22-.38m-19-1c2.63-.21 6.68-.21 9 0s.17.38-4.78.38-6.85-.17-4.22-.38m138.72 12.74c0-.55-1.35-1-3-1s-3 .45-3 1 1.35 1 3 1 3-.45 3-1m23.46.06c.31-.51.12-1.21-.44-1.55-.56-.35-1.02-.1-1.02.55 0 .89-.35.89-1.46-.03-1.49-1.24-3.54-.65-3.54 1.02 0 1.22 5.7 1.23 6.46.01m-9.53-2.7c3.55-4.51 1.82-12.36-2.72-12.36-.93 0-.51.76 1.16 2.07 3.19 2.51 3.5 6.83.67 9.39-1.93 1.75-4.9 1.77-9.54.09-1.73-.63-1.69-.44.36 1.36 3.32 2.93 7.51 2.7 10.07-.55m25.57 1.64c-.81-1.32-14.5-1.32-14.5 0 0 .57 3.19 1 7.56 1 4.78 0 7.33-.37 6.94-1m16.5-.57c0-1.05-.73-1.47-2.17-1.25-3.2.47-3.55 2.82-.41 2.82 1.68 0 2.58-.55 2.58-1.57m6.08-1.02c-3.6-3.03-4-6.5-1.08-9.41 3.66-3.66 9.23-1.91 10.54 3.3.55 2.2.09 3.24-2.54 5.69-1.77 1.65-2.63 3.01-1.92 3.01 2.48 0 5.92-4.28 5.92-7.36 0-8.53-12.3-10.45-15.29-2.39-1.31 3.54 2.54 9.75 6.06 9.75.76 0 0-1.17-1.69-2.59m17.92 1.54c0-.52-1.35-.95-3-.95-3.9 0-3.9 1.43 0 1.7 1.65.12 3-.22 3-.75m9.56-.05c.31-.5-1.52-.9-4.06-.9s-4.37.4-4.06.9c.72 1.17 7.4 1.17 8.12 0m4.44.1c1.21-.79 1.07-.98-.75-.99-1.24-.01-2.25.44-2.25.99 0 1.25 1.06 1.25 3 0m19 0c0-.55-.79-1-1.75-.99-1.5.01-1.53.16-.25.99 1.89 1.21 2 1.21 2 0m18-.62c0-.21-1.35-.38-3-.38s-3 .37-3 .82c0 .46 1.35.63 3 .39s3-.62 3-.83m5.25-.37c-2.76-1.69-3.25-2.56-3.25-5.84 0-3.16.46-4.06 2.55-5.01 5.51-2.52 9.45-.38 9.45 5.11 0 2.72-.65 4.04-2.75 5.61-1.51 1.13-2.17 2.07-1.45 2.08 2.17.06 6.2-4.72 6.2-7.36 0-3.9-4.07-7.94-8-7.94s-8 4.04-8 7.94c0 2.89 4.09 7.4 6.7 7.39 1.25 0 .8-.61-1.45-1.98m41.75 1.11c0-.63-3.13-1.03-7.92-1.02-4.35.01-9.52-.29-11.5-.66-2.24-.42-3.58-.28-3.58.37 0 1.37 1.67 1.62 13.25 2.01 6.25.21 9.75-.04 9.75-.7m7.58.13c-1.01-1.02-5.58-1.05-5.58-.05 0 .44 1.42.8 3.17.8 1.74 0 2.83-.34 2.41-.75m13.49-.29c3.41-1.83 2.06-2.99-1.51-1.29-3.19 1.52-3.62 1.52-5.96-.02-3.47-2.27-4.62-2.02-1.74.38a8.265 8.265 0 0 0 9.21.93m23.93-.33c4.12-.23 31.12-2.15 60-4.27 36.55-2.69 50.981-4.07 47.5-4.53-2.93-.4-.45-.53 6-.33 7.119.22 9.941.04 8-.5-2.351-.66-1.378-.86 4.5-.93 8.12-.09 29.874-1.81 31.5-2.5.55-.23-.575-.51-2.5-.63l-3.5-.21 3.5-.76c3.274-.72 3.195-.76-1.238-.62-2.747.08-4.94.67-5.219 1.4-.336.87-2.817 1.19-8.262 1.06l-7.781-.18 7.5-.7c13.103-1.21-96.99 1.71-132.5 3.52-5.5.28-12.81.52-16.25.53-5.67.01-6.25.21-6.25 2.11 0 1.95.4 2.05 5.75 1.51 3.16-.32 7.85-.57 10.41-.55 2.57.02 4.96-.43 5.31-1.01.8-1.29 5.53-1.39 5.53-.11 0 .51 1.01 1.12 2.25 1.36l2.25.43-2.25.14c-1.24.07-2.25.64-2.25 1.26 0 .78 1.79.95 5.75.54 3.16-.33 12.27-.82 20.25-1.08 10.72-.34 7.47.04-12.5 1.5-14.85 1.07-29.14 1.93-31.75 1.89-3.74-.06-4.75.27-4.75 1.54 0 1.08.58 1.44 1.75 1.07.96-.3 5.12-.72 9.25-.95m25-6.64-8.5-.51 9-.56c4.95-.31 9.37-.26 9.82.12 1.42 1.2-1.56 1.47-10.32.95m32.75.28c1.79-.22 4.71-.22 6.5 0s.32.4-3.25.4c-3.58 0-5.04-.18-3.25-.4m15-1c1.79-.22 4.71-.22 6.5 0s.32.4-3.25.4c-3.58 0-5.04-.18-3.25-.4m-35.25-.7c1.46-.63 71.8-3.86 74.073-3.39 1.06.22-9.103.94-22.573 1.61-32.63 1.63-52.72 2.32-51.5 1.78m51.75-.29c1.51-.23 3.99-.23 5.5 0s.27.42-2.75.42c-3.03 0-4.26-.19-2.75-.42m30.526-4.02c2.352-.21 5.952-.21 8 .01 2.048.21.124.39-4.276.38-4.4 0-6.076-.18-3.724-.39m-241.44 10.37c-.37-.66-.07-.62.71.12 1.88 1.73 4.01 1.57 3.31-.25-.81-2.12-5.64-1.88-7.03.34-1.02 1.63-.87 1.79 1.25 1.39 1.42-.28 2.14-.93 1.76-1.6m20.41 1.65c-1.51-.23-3.99-.23-5.5 0s-.28.42 2.75.42c3.02 0 4.26-.19 2.75-.42m32.25-.28c0-.55-1.13-1-2.5-1-1.38 0-2.5.45-2.5 1s1.12 1 2.5 1c1.37 0 2.5-.45 2.5-1m-154-1.72c0-.88-1.81-1.34-5.75-1.45-3.53-.09-4.5-.31-2.5-.56 2.67-.33 3.25-.84 3.25-2.84 0-2.31-.31-2.43-6-2.43-5.26 0-6 .23-6 1.93 0 1.34.84 2.06 2.75 2.35 1.51.23-.51.48-4.5.57-3.99.08-7.25.55-7.25 1.04 0 1.18 7.4 2.04 7.85.91.19-.49.88-.45 1.53.1 1 .82 6.87 1.47 14.87 1.63.96.02 1.75-.54 1.75-1.25m34-.28c0-.59-3.33-1-8-1s-8 .41-8 1c0 .58 3.33 1 8 1s8-.42 8-1m15.25.35c3.71-.31 6.75-.96 6.75-1.46 0-.49-2.81-.97-6.25-1.07-4.93-.14-5.36-.25-2-.56 3.41-.3 4.25-.76 4.25-2.32 0-1.77-.75-1.94-8.42-1.94-5.79 0-8.57.38-8.92 1.25-.4 1-.52 1-.58 0-.05-.86-1.99-1.25-6.08-1.25-5.81 0-6 .08-6 2.62 0 2.27.21 2.45 1.58 1.31 1.19-.99 1.75-1.02 2.3-.12.45.72 3 1.13 6.51 1.05 4.87-.11 5.91-.46 6.63-2.25l.85-2.11.07 2.16c.03 1.19.62 2.4 1.31 2.67.69.28-.44.54-2.5.59-2.06.04-3.75.51-3.75 1.04 0 1.09 4.26 1.2 14.25.39m48.08-.77c.45-1.18-1.52-1.44-11.39-1.51-10.9-.09-13.16.37-11.27 2.26.36.37 5.49.67 11.39.67 8.34 0 10.85-.32 11.27-1.42m15.47.22c.93-.94 1.2-.94 1.2 0 0 .83 2.44 1.2 8 1.2 6.44 0 8-.3 8-1.5 0-1.26-2.01-1.5-12.12-1.5-10.66 0-11.98.18-10.88 1.5 1.5 1.8 4.16 1.94 5.8.3m51.2-.3c0-1.22-1.58-1.5-8.2-1.5-9.21 0-9.79 1.64-.8 2.25 3.02.21 6.29.46 7.25.56.97.1 1.75-.48 1.75-1.31m4.35-.05c-.66-1.7-2.5-1.49-3.12.36-.22.66.52 1.19 1.66 1.19 1.43 0 1.87-.47 1.46-1.55m16.65.55c0-.58-3.17-1-7.5-1s-7.5.42-7.5 1c0 .57 3.17 1 7.5 1s7.5-.43 7.5-1m37.85-.63c12.04-.93 6.67-2.28-6.6-1.66-8.45.4-12.25.95-12.25 1.76 0 1.21 2.18 1.2 18.85-.1m-249.85-1.87c0-.83-.68-1.5-1.5-1.5-.83 0-1.5.67-1.5 1.5 0 .82.67 1.5 1.5 1.5.82 0 1.5-.68 1.5-1.5m29.48-.55c-.76-2.42 1.87-6.95 4.04-6.95.82 0 1.48-.47 1.48-1.03 0-1.51-5.64 1.65-6.38 3.57-.99 2.58-.72 6.46.45 6.46.62 0 .79-.86.41-2.05m189.17-5.89c1.44-1.14 2.03-2.06 1.3-2.06-2.6 0-5.95 4.25-5.86 7.42l.09 3.08.92-3.19c.51-1.75 2.1-4.12 3.55-5.25m10.85 4.08c-.89-3.59-3.37-6.15-5.91-6.11-2.06.03-2.07.04-.09 1.12 2.92 1.6 4.5 3.91 4.5 6.6 0 1.44.42 2.1 1.08 1.69.63-.38.8-1.78.42-3.3m-25.5 1.86c0-1.44 2.74-1.24 3.34.25.28.68.54.01.58-1.5.08-2.7-.03-2.75-5.85-2.75-4.8 0-6.01.33-6.38 1.75-.44 1.66-.46 1.66-.57 0-.14-2.02-1.71-2.35-2.46-.5-.4 1-.52 1-.58 0-.05-.86-1.99-1.25-6.08-1.25-5.29 0-6 .23-6 1.95 0 1.75.84 2 7.75 2.3 4.26.19 9.66.43 12 .54s4.25-.24 4.25-.79m57-.47c0-.9-.59-1.25-1.5-.9-1.94.75-1.94 2.37 0 2.37.82 0 1.5-.67 1.5-1.47m-151.53-.58c.36.57 2.39 1.05 4.52 1.05 2.84 0 3.98-.47 4.32-1.75.44-1.67.46-1.67.57 0 .09 1.36 1.02 1.75 4.18 1.75 2.27 0 3.8-.42 3.48-.94s.21-1.41 1.19-1.97c1.29-.75-1.42-1.04-9.98-1.06-11.32-.03-11.75.04-11.75 2.09 0 1.71.27 1.89 1.41.95.97-.8 1.62-.84 2.06-.12m29.61-.2c.06-1 .18-1 .58 0 .67 1.66 9.03 1.66 9.59 0 .33-.98.79-.95 2.09.12 1.46 1.2 1.66 1.11 1.66-.75 0-2.05-.42-2.12-11.75-2.05-6.46.05-11.19.31-10.5.59.69.27 1.25 1.14 1.25 1.92 0 1.82 6.96 1.99 7.08.17m-15.4-4.63 3.17-.12.33-8.51c.17-4.67.24-8.5.14-8.5s-2.93 1.65-6.3 3.65c-3.61 2.15-5.92 4.16-5.64 4.91.32.84-.34 1.16-1.98.98-1.6-.17-2.83.4-3.49 1.63-.56 1.04-1.55 1.83-2.21 1.75-2.53-.32-3.69.13-3.45 1.34.14.68-.65 1.25-1.75 1.25s-1.89.33-1.75.75c.14.41.25.94.25 1.17 0 .36 7.95.25 22.68-.3m-6.6-2.54c-.04-1.06.19-1.65.52-1.31.34.33.37 1.19.08 1.91-.32.8-.55.56-.6-.6m39.85 1.75c.23-.46-.44-1-1.5-1.2s-2.23-.85-2.6-1.43c-.37-.59-1.45-1.18-2.4-1.32s-2.11-.84-2.56-1.57c-.46-.72-.85-.92-.85-.44-.01.48-.71.3-1.54-.4-1.66-1.37-1.63-1.39-3.41 1.53-1.16 1.89-1.01.85.36-2.53.44-1.1-.98-2.44-5.05-4.78-3.11-1.79-5.84-3.06-6.07-2.84-.23.23-.1 3.84.28 8.03l.69 7.62h3.77c2.09 0 4.01-.56 4.29-1.25.34-.86.53-.78.58.25.06 1.21 1.57 1.46 7.83 1.33 4.26-.08 7.94-.53 8.18-1m-299.68-.04c-1.24-.24-3.26-.24-4.5 0s-.23.43 2.25.43c2.47 0 3.49-.19 2.25-.43m-8.5-.98c-.96-.26-2.54-.26-3.5 0-.96.25-.18.45 1.75.45 1.92 0 2.71-.2 1.75-.45m8.01-1c-.95-.25-2.75-.26-4-.02-1.24.24-.46.44 1.74.45s3.22-.18 2.26-.43m555.97-1.01c-.973-.25-2.323-.23-3 .04s.119.48 1.769.46 2.204-.24 1.231-.5m-284.13-8.03c-.33-.34-.56.25-.52 1.31.05 1.16.28 1.4.6.6.29-.72.26-1.58-.08-1.91m-100.1 41.73c-1.63-.71-1.69-.88-.31-.93.93-.04 1.97.38 2.31.93.71 1.14.68 1.14-2 0m5.25.33c.69-.27 1.81-.27 2.5 0 .69.28.12.51-1.25.51-1.38 0-1.94-.23-1.25-.51m6.98-.46c.68-.68 1.49-.99 1.8-.68.3.31-.25.87-1.24 1.24-1.42.54-1.54.43-.56-.56m180.02.46c.69-.27 1.81-.27 2.5 0 .69.28.12.51-1.25.51-1.38 0-1.94-.23-1.25-.51m-6.48-.94c.33-.33 1.2-.37 1.92-.08.8.32.56.56-.61.61-1.05.04-1.64-.2-1.31-.53m13.73-.39c1.96-1.27 3.28-1.27 2.5 0-.34.55-1.38.99-2.31.98-1.46-.01-1.48-.15-.19-.98m5-2c1.96-1.27 3.28-1.27 2.5 0-.34.55-1.38.99-2.31.98-1.46-.01-1.48-.15-.19-.98m-214.5-2c-.34-.55-.14-1 .44-1s1.06.45 1.06 1c0 1.28-.71 1.28-1.5 0m62.01-26.99c-.35-.57.05-.74.94-.4 1.73.67 2.05 1.39.61 1.39-.52 0-1.22-.45-1.55-.99m96.22-.14c.68-.68 1.49-.99 1.8-.68.3.31-.25.87-1.24 1.24-1.42.54-1.54.43-.56-.56m19.35-.29c-.04-1.06.19-1.65.52-1.31.34.33.37 1.19.08 1.91-.32.8-.55.56-.6-.6m-136.52-2.29c-.54-1.43-.42-1.54.56-.56.69.68.99 1.48.69 1.79-.31.31-.87-.25-1.25-1.23m120.44 1.3c0-.19.67-.91 1.5-1.59.86-.72 1.5-.82 1.5-.23 0 .55-.68 1.27-1.5 1.59-.83.31-1.5.42-1.5.23m-104.49-1.58c-.35-.57.05-.74.94-.4 1.73.67 2.05 1.39.61 1.39-.52 0-1.22-.45-1.55-.99m114.1-.59c-.41-1.08-1.34-1.47-2.68-1.12-1.67.44-1.83.28-.88-.87.65-.78.9-2.11.57-2.97-.34-.91-.18-1.31.4-.95 1.3.8 4.26 6.54 3.68 7.12-.25.25-.74-.29-1.09-1.21m-177.61-1.37c0-.51.44-1.21.99-1.55.57-.35.73.05.39.94-.66 1.74-1.38 2.05-1.38.61m56.93-.83c1.02-1.99 1.35-2.09 2.62-.82 1.81 1.82 1.92 3.23.13 1.74-.97-.8-1.68-.77-2.63.13-1.06 1-1.08.81-.12-1.05m129.07.83c0-.51.44-1.21.99-1.55.57-.35.73.05.39.94-.66 1.74-1.38 2.05-1.38.61m46.56-.76c-.54-1.43-.42-1.54.56-.56.69.68.99 1.48.69 1.79-.31.31-.87-.25-1.25-1.23m-23.48-.71c-.04-1.06.19-1.65.52-1.31.34.33.37 1.19.08 1.91-.32.8-.55.56-.6-.6m-164.41-1.25c-.37-.37-.67-1.13-.67-1.7 0-.63.47-.57 1.18.15.65.65.95 1.41.67 1.7-.28.28-.82.22-1.18-.15m-41.67-2.15c0-1.21 1.9-2.62 2.59-1.93.25.25-.23 1.03-1.07 1.72-.95.79-1.52.87-1.52.21m57-.13c0-.51.44-1.21.99-1.55.57-.35.73.05.39.94-.66 1.74-1.38 2.05-1.38.61m129.02-.58c.7-.84 1.47-1.32 1.72-1.07.7.7-.71 2.6-1.92 2.6-.66 0-.59-.58.2-1.53m40.44.46c-.36-.59-.45-1.28-.18-1.54.26-.27.74.21 1.06 1.06.68 1.76.1 2.07-.88.48m-206.38-1.35c-.04-1.06.19-1.65.52-1.31.34.33.37 1.19.08 1.91-.32.8-.55.56-.6-.6m186.08-.58c0-1.38.22-1.94.5-1.25.28.68.28 1.81 0 2.5-.28.68-.5.12-.5-1.25m-169.29-1.75c-1.24-1.59-1.21-1.63.38-.38 1.67 1.3 2.2 2.13 1.37 2.13-.21 0-.99-.79-1.75-1.75m56.11.22c-1.06-1.27-.99-1.42.38-.89.9.35 1.64 1.03 1.64 1.52 0 1.29-.58 1.11-2.02-.63m40.02 1.15c0-.21.79-1 1.75-1.75 1.59-1.25 1.62-1.21.38.38-1.31 1.66-2.13 2.19-2.13 1.37m33.87-1.37c-1.24-1.59-1.21-1.63.38-.38.96.75 1.75 1.54 1.75 1.75 0 .82-.82.29-2.13-1.37m-161.64-.83c.95-.99 1.94-1.59 2.2-1.33.26.27-.51 1.08-1.73 1.8-2.1 1.27-2.12 1.25-.47-.47m184.77.68c0-.49.74-1.17 1.64-1.52 1.37-.53 1.44-.38.38.89-1.44 1.74-2.02 1.92-2.02.63m-128-1.1c.82-.54 1.95-.97 2.5-.97s.32.43-.5.97c-.83.53-1.95.96-2.5.96s-.33-.43.5-.96m159.51.01c-.35-.57.05-.74.94-.4 1.73.67 2.05 1.39.61 1.39-.52 0-1.22-.45-1.55-.99m-190.51-2.01c-.83-.54-1.05-.97-.5-.97s1.67.43 2.5.97c.82.53 1.05.96.5.96s-1.68-.43-2.5-.96m56 0c-.83-.54-1.05-.97-.5-.97s1.67.43 2.5.97c.82.53 1.05.96.5.96s-1.68-.43-2.5-.96m52 .57c0-.28.9-.99 2-1.57 1.1-.59 2-.85 2-.58 0 .28-.9.99-2 1.58-1.1.58-2 .84-2 .57m22-.57c-.83-.54-1.05-.97-.5-.97s1.67.43 2.5.97c.82.53 1.05.96.5.96s-1.68-.43-2.5-.96m45.12-.18c-.07-.92-.91-1.88-1.87-2.14-.96-.25.72-.43 3.75-.41 3.02.03 4.07.22 2.31.44-1.92.24-3.36 1.08-3.63 2.09-.42 1.57-.46 1.57-.56.02m-195.12-.82c.82-.54 1.95-.97 2.5-.97s.32.43-.5.97c-.83.53-1.95.96-2.5.96s-.33-.43.5-.96m57 0c.82-.54 1.95-.97 2.5-.97s.32.43-.5.97c-.83.53-1.95.96-2.5.96s-.33-.43.5-.96m128.5 0c.34-.55 1.38-1 2.31-.99 1.46.01 1.48.15.19.99-1.96 1.26-3.28 1.26-2.5 0m20.01.01c-.35-.57.05-.74.94-.4 1.73.67 2.05 1.39.61 1.39-.52 0-1.22-.45-1.55-.99m-198.01-1.01c-1.77-.77-1.69-.87.75-.93 1.51-.04 2.75.38 2.75.93 0 1.17-.77 1.17-3.5 0m6.5 0c-.83-.54-1.05-.97-.5-.97s1.67.43 2.5.97c.82.53 1.05.96.5.96s-1.68-.43-2.5-.96m56.27.39c.33-.33 1.2-.37 1.92-.08.8.32.56.56-.61.61-1.05.04-1.64-.2-1.31-.53m73.23-.39c-1.63-.71-1.69-.88-.31-.93.93-.04 1.97.38 2.31.93.71 1.14.68 1.14-2 0m-79.75-.67c.69-.27 1.81-.27 2.5 0 .69.28.12.51-1.25.51-1.38 0-1.94-.23-1.25-.51m72 0c.69-.27 1.81-.27 2.5 0 .69.28.12.51-1.25.51-1.38 0-1.94-.23-1.25-.51" style="fill:#8c8c8c" transform="translate(620.71 363.28)"/><path d="M-332.78-264.78c-1.72-2.08-13.3-5.5-18.61-5.5-3.66 0-4.39-.32-4.39-1.93 0-1.29-.9-2.1-2.75-2.48-1.51-.31-11.44-2.17-22.06-4.13s-20.45-3.99-21.83-4.52c-4-1.52-2.25-3.41 3.47-3.75l5.17-.3v-15.64l-7.99-5.25c-5.66-3.71-8.62-5.08-10.14-4.68-1.59.42-1.86.27-1.04-.56.83-.82.27-1.69-2.11-3.31-2.82-1.91-4.87-2.24-16.22-2.57-7.15-.21-13.23-.66-13.5-.99-.28-.33-28.4-3.63-62.5-7.32-102.29-11.08-108.46-11.88-112.5-14.57-3.08-2.06 1.43-2.97 14-2.86 6.87.07 11.15.4 9.5.74-3.89.8-4.99 5.11-1.31 5.12 3.54.02 154.11 11.76 155.75 12.15.79.19 1.61-.42 1.81-1.34.29-1.31-.49-1.78-3.44-2.09-2.09-.22-.55-.27 3.44-.12 5.77.22 7.25-.02 7.25-1.17 0-.85-.98-1.43-2.44-1.43-2.04 0-2.41-.46-2.25-2.75l.19-2.75-18.5-.67c-10.18-.37-43.93-1.4-75-2.3-31.08-.89-57.63-1.76-59-1.93-6.58-.8 21.25-.44 67 .86 44.62 1.28 67.92 1.8 71.68 1.6.64-.04 1.38-.85 1.63-1.81.34-1.32.49-1.2.57.5.11 2.14.52 2.25 8.29 2.25 6.35 0 8.62-.4 10.18-1.75 1.99-1.73 1.99-1.72.33.72-1.92 2.83-2.25 8.03-.51 8.03.64 0 .86.3.49.66-1.32 1.33 2.69 4.33 5.74 4.3 7.99-.08 10.99-9.78 4.44-14.36-1.26-.88-1.8-1.6-1.2-1.6s2.25.91 3.67 2.03c2.25 1.77 3.92 2.01 12.89 1.89 6.47-.09 10.57-.57 11.03-1.28.53-.83.74-.8.75.11.02.89 2.37 1.25 8.39 1.25 6.85 0 8.82-.37 10.9-2 1.4-1.1 3.15-1.98 3.89-1.94.74.03.35.46-.85.94-5.49 2.21-6.68 10.22-2.01 13.49 3.62 2.54 5.04 1.67 1.78-1.08-4.41-3.71-4.11-7.78.76-10.35 4.19-2.2 9.06 1.15 9.15 6.28 0 .47-1.39 2.16-3.1 3.75-2.08 1.95-2.59 2.91-1.55 2.91.85 0 1.82-.45 2.16-1 .75-1.22 2.5-1.33 2.5-.17 0 .47-1.15 1.37-2.56 2.01-1.4.64-2.26 1.65-1.89 2.23.42.69 1.44.35 2.84-.97 1.64-1.54 2.22-3.36 2.37-7.33.21-6-1.17-8.48-5.41-9.75-2.04-.61-2.28-.87-.85-.92 1.1-.04 2.65.34 3.44.84.93.59 2.43.4 4.22-.53 2.45-1.26 2.72-1.26 2.22.04-.31.82-1.03 1.38-1.6 1.26s-1.24.35-1.49 1.04c-.58 1.58 25.24 1.82 26.22.23.35-.56 1.05-.76 1.56-.44.54.33.86-2.25.77-6.24l-.17-6.8-.67 5.5-.67 5.5-.15-7c-.1-4.84.15-6.54.82-5.5.53.82.98 1.02.98.45.01-.58-.4-1.48-.91-2-.58-.59-.4-1.91.46-3.45 1.32-2.36 1.4-2.38 1.43-.38.02 1.17 1.05 2.85 2.29 3.73 1.47 1.05 1.64 1.4.5 1.02-1.98-.67-2.23 1.96-1.1 11.38l.63 5.25h3.86c2.97 0 3.89-.41 3.98-1.75.11-1.67.13-1.67.57 0 .39 1.49 1.7 1.75 8.82 1.75 8.26 0 11.67-1.2 7.25-2.55-1.24-.38-3.05-1.38-4.01-2.23-.96-.84-1.75-1.17-1.75-.72 0 .44-.79.11-1.75-.73-.96-.85-2.72-1.83-3.91-2.19-1.18-.37-2.45-1.42-2.8-2.34-.36-.93-.33-1.36.07-.97.39.39 1.32.2 2.07-.43 1.06-.88 1.24-.8.8.34-.34.89.34 1.9 1.73 2.6 1.26.63 4.54 2.43 7.29 4.01 4.52 2.59 5.29 2.74 8 1.6 3.45-1.44 7-.86 10.29 1.68 2.01 1.56 4.6 1.77 21.25 1.75 17.4-.03 19.16-.19 21.49-2.03 3.51-2.76 8.73-2.72 12.55.1 2.85 2.11 3.73 2.24 11.01 1.6 4.85-.43 7.92-1.15 7.93-1.85 0-.68.37-.58.89.25.75 1.18 8.56 1.14 53.24-.27 28.79-.91 55.72-1.59 59.85-1.51 5.752.12-104.1 4.44-122.25 4.81-3.02.06-3.75.45-3.75 2.02 0 1.56.84 2.02 4.25 2.32 3.36.31 2.93.42-2 .56-4.81.13-6.25.52-6.25 1.68 0 .82.67 1.5 1.5 1.5.82 0 1.5.37 1.5.83s-1 .76-2.21.67c-2.32-.17-7.77 2.45-7.78 3.75-.01 1.25 1.67.83 2.99-.75 1.48-1.79 9.06-2.04 10.74-.36.86.86 1 .55.54-1.25-.33-1.32-1.09-2.73-1.69-3.13s2.25-.74 6.33-.75 7.11.29 6.74.66c-.38.38-2.93.58-5.67.45-4.09-.18-4.99.08-4.99 1.45 0 1.35.62 1.55 3.21 1.03 1.76-.35 7.05-.83 11.75-1.06 12.67-.64 89.03-6.35 116.04-8.68 12.925-1.12 25.075-2.15 27-2.29 9.733-.71 13.824-3.15 8-4.77-1.396-.39.679-.6 4.696-.47 7.842.24 9.454.95 7.244 3.15-2.595 2.58-12.967 4.39-45.94 7.99-134.98 14.75-156.08 16.57-151.44 13.06 2.26-1.71 1.21-2.02-1.65-.48-1.08.57-1.73 1.43-1.43 1.91.29.48-1.05 1.84-2.98 3.04-1.93 1.19-3.22 2.65-2.85 3.23.38.63.19.78-.48.37-.62-.38-4.74 1.61-9.15 4.44l-8.02 5.15v17.81l4.25.01c5.64.02 7.82 1.34 4.84 2.93-1.53.83-44.82 9.01-47.84 9.05-.14 0-.25.84-.25 1.87 0 1.53-1 1.95-5.76 2.38-3.16.29-8.45 1.66-11.75 3.05l-5.99 2.54-.3-4.42c-.27-3.78.09-4.77 2.5-6.9 2.9-2.56 12.26-6.63 13.51-5.88.39.24 1.01 2.11 1.38 4.15s1.04 4.39 1.51 5.22c1.38 2.45 1.02-1.91-.5-6.18-1.2-3.35-1.15-3.71.55-4.15 1.08-.29 2.26.2 2.82 1.17.68 1.15.98-1.06.99-7.34l.03-9-8.01-2.41c-4.41-1.32-7.82-2.58-7.59-2.81.22-.23 2.79.28 5.69 1.15 6.44 1.91 6.26 1.91 5.56.07-.32-.83-.19-1.5.27-1.5.47 0 1.1.94 1.41 2.1.3 1.15 1.02 1.8 1.61 1.44.72-.45.57-1.61-.46-3.6-1.34-2.6-3.08-3.51-5.79-3.04-.46.08-.51-.37-.13-.99 1.4-2.27-2.32-2.91-16.5-2.83-13.58.07-14.62.22-17.2 2.39-1.51 1.26-2.43 2.62-2.04 3 .38.38.09.54-.64.36s-2.02.68-2.87 1.92c-1.39 2.02-1.39 2.25 0 2.25.86 0 1.76-.79 2.01-1.75.41-1.59.47-1.6.57-.06.11 1.57.5 1.58 5.22.18 2.8-.83 5.22-1.37 5.37-1.19.15.17-.08 1.22-.53 2.32-.62 1.54-.82 1.62-.87.35-.06-1.46-.54-1.51-4.32-.39-2.34.69-4.04 1.66-3.78 2.15.26.48 1.05.75 1.75.59s1.28.4 1.28 1.25-.68 1.55-1.5 1.55c-.87 0-1.53.94-1.57 2.25-.04 1.23-.48 3.15-.99 4.25-.67 1.46-.85.58-.68-3.26.13-2.88-.12-5.25-.57-5.25-.44 0-.53-.44-.19-.99s-.08-1-.94-1c-1.31 0-1.55 1.57-1.53 9.75.03 8.67.19 9.54 1.47 7.85.78-1.04 1.56-2.17 1.71-2.5.16-.34 2.25-2.16 4.66-4.04l4.36-3.42-2.86 4.14c-1.58 2.28-3.55 4.19-4.37 4.26-.83.06-1 .32-.38.57.8.34.75 1.5-.21 4.17-1.53 4.3-1.89 8.68-.51 6.22.46-.83 1.14-3.18 1.51-5.22s1.09-3.97 1.6-4.29c1.48-.92 10.51 3.39 13.28 6.33 1.79 1.9 2.62 4.05 2.87 7.43.19 2.61.29 4.75.22 4.75s-.69-.68-1.38-1.5m-23-19.5c0-1.94-.62-2-17.75-1.86-9.76.09-16.63.33-15.25.55 6.63 1.04 24.97 3.08 28.75 3.18 3.62.11 4.25-.17 4.25-1.87m71 .55 12.5-1.29-16.75-.13c-14.28-.12-16.75.09-16.75 1.37 0 1.84 3.62 1.85 21 .05m16.79-10.8c.17-4.52-.11-7.75-.67-7.75-.53 0-6.02 3.34-12.2 7.42-12.79 8.45-12.98 8.08 4.08 8.08h8.5zm-102.79 6.76c0-.37-14.36-9.98-20.75-13.87-.96-.58-1.25 1.01-1.25 6.8v7.56h11c6.05 0 11-.22 11-.49m15-6.55c0-4.85.51-7.82 1.65-9.55 1.92-2.94 2.5-2.31-9.42-10.29l-9.26-6.2-8.37.16-8.36.17-1.27 7.39c-.69 4.07-.93 7.73-.54 8.13.4.4 6.43 4.4 13.4 8.9 11.17 7.21 13.23 8.18 17.42 8.25l4.75.08zm-11.92-18.21c.05-1.51.27-1.76.65-.75.31.82 1.06 1.83 1.67 2.23.68.45.43.74-.65.75-1.18.01-1.72-.72-1.67-2.23m-16.21-3.5c-1.24-1.59-1.21-1.63.38-.38 1.67 1.3 2.2 2.13 1.37 2.13-.21 0-.99-.79-1.75-1.75m100.34 20.19c7.31-4.7 13.65-8.91 14.08-9.34.69-.68.28-3.61-1.79-12.73-.43-1.92-1.32-2.17-9.24-2.6l-8.76-.49-5.75 4c-3.16 2.2-5.75 4.39-5.75 4.86s-.56.86-1.25.86-2.56 1.06-4.17 2.34c-2.82 2.26-2.86 2.42-1.25 4.72 1.19 1.69 1.67 4.48 1.67 9.66v7.28h4.46c3.89 0 6.14-1.09 17.75-8.56m-9.96-15.13c.96-.26 2.54-.26 3.5 0 .96.25.17.45-1.75.45-1.93 0-2.71-.2-1.75-.45m-98.39-.98c1.87-9.3 2.68-8.69-10.57-7.93-6.44.38-11.81.78-11.92.9-.39.38 19.1 12.51 20.24 12.61.61.04 1.63-2.47 2.25-5.58m138.39-3.09c3.71-2.39 6.75-4.52 6.75-4.75 0-.22-5.18-.41-11.5-.42-13.04-.02-12.44-.54-10.41 8.9l1.09 5.08 3.66-2.24c2.01-1.23 6.7-4.19 10.41-6.57m-90.57-.42c1.64-5.49 1.63-5.82-.15-5.82-.94 0-1.27-.63-.92-1.75.52-1.64.46-1.64-.84-.07-1.08 1.31-3.95 1.85-12.83 2.41-6.29.4-10.77.95-9.94 1.22.82.27 1.73.84 2.02 1.27s3.89 3.03 8 5.76l7.48 4.97 2.94-1.83c1.95-1.21 3.38-3.28 4.24-6.16m-11.68 1.78c0-.21.7-.66 1.55-.99.89-.34 1.29-.17.94.4-.58.95-2.49 1.4-2.49.59m51.26.91c-.32-.56-.22-.69.22-.3.43.4 3.5-1.18 6.82-3.5l6.03-4.21-4.88-.32c-2.68-.17-9.04-.17-14.12 0-8.91.3-9.26.23-9.81-1.97-.32-1.25-2.02-3.16-3.8-4.24-1.77-1.08-2.59-1.97-1.82-1.97 1.08 0 .98-.48-.4-2-2.63-2.92-.14-2.46 2.64.48 2.93 3.08 3.84 3.14 3.92.27l.07-2.25.9 2.25c.76 1.88 1.67 2.25 5.54 2.25 3.72 0 4.53-.3 4.07-1.5-.35-.91-.01-1.5.86-1.5.9 0 1.21.59.83 1.58-.5 1.3.04 1.54 2.96 1.28 2.32-.2 4.23.3 5.47 1.42 1.04.94 2.42 1.72 3.07 1.72.64 0 1.17.45 1.17 1s.45 1 1 1 1-.68 1-1.5c0-.83-.34-1.43-.75-1.34-2.54.54-9.25-4.22-9.25-6.57 0-1.51-1.53-1.67-14.96-1.51-13.39.15-15.14.37-16.71 2.1-1.51 1.67-1.55 2.07-.29 2.86 1.23.78 1.2.93-.2.94-1.9.02-6.84 5.47-6.84 7.56 0 .83.61 1.16 1.5.82 1.59-.61 1.89.44.89 3.05-.33.87-1.46 1.59-2.5 1.59s-1.89.67-1.89 1.5c0 1.83-.06 1.83 4.35 0 4.48-1.88 11.91-1.86 17.15.02 5.15 1.86 5.41 1.84 4.82-.41-.31-1.19-1.13-1.72-2.22-1.43-1.1.29-2.17-.4-2.92-1.87-1.06-2.05-1.13-2.08-.66-.2.45 1.8.16 2.05-1.9 1.65-3.56-.68-4.12-3.97-.75-4.45 3.96-.56 6.12.14 6.2 2.01.06 1.34.23 1.28.85-.31.63-1.63.9-1.29 1.5 1.92.45 2.39 1.9 4.99 3.73 6.7l2.99 2.79 3.34-2.19c1.85-1.21 3.09-2.65 2.78-3.22m-33.26-5.51c0-1.34.67-2 2-2s2 .66 2 2c0 1.33-.67 2-2 2s-2-.67-2-2m5 0c0-1.51.52-2.05 1.75-1.81 2.27.43 2.27 3.18 0 3.61-1.23.24-1.75-.3-1.75-1.8m6.05-4.95c-.8-.51-1.81-.7-2.25-.43s-.8-.43-.8-1.57c0-3.12 3.01-2.29 4.29 1.2.74 2.01.71 2.03-1.24.8m-9.05-1.44c0-.76.9-1.62 2-1.9 1.48-.39 2-.04 2 1.38 0 1.24-.7 1.91-2 1.91-1.1 0-2-.63-2-1.39m3.73-5.27c.68-.27 2.03-.29 3-.04.97.26.42.48-1.23.5s-2.45-.19-1.77-.46m-2.23 17.18c3.31-1.19 3.56-1.44 1.44-1.48-1.41-.03-3.43.62-4.5 1.42-2.44 1.85-1.93 1.86 3.06.06m10.95.55c-.52-.52-2.3-1.21-3.95-1.55l-3-.61 3 1.46c3.55 1.73 5.33 2.04 3.95.7m-96.01-9.54c-2.54-1.92-4.02-1.94-2.44-.03.68.82 1.95 1.5 2.81 1.5 1.26 0 1.18-.3-.37-1.47m16.81-2.68c-.86-.87-1.11-.63-.99.98.11 1.41.5 1.8 1.15 1.15s.6-1.38-.16-2.13m13.76 1.9c.01-.69.3-2.38.65-3.75.91-3.57-.54-1.91-1.62 1.86-.55 1.91-.54 3.14.03 3.14.51 0 .94-.57.94-1.25m-56.01-1.65c0-.49-.65-1.14-1.45-1.45-.97-.37-1.26-.07-.89.9.6 1.58 2.34 1.99 2.34.55m28.5-5.09c.57-1.81 1.5-2.01 9.17-2.01 7.18 0 8.45-.24 7.97-1.5-.35-.91-.01-1.5.86-1.5.92 0 1.21.58.8 1.64-.51 1.35-.13 1.56 2.06 1.14 1.48-.29 2.93-.13 3.22.35.3.48-3.09.87-7.52.87-7.31 0-8.06.18-8.06 1.94 0 1.06.52 2.26 1.15 2.65.69.42.89.28.5-.36-.96-1.54 3.61-2.32 14.15-2.41 7.52-.06 9.18-.35 9.53-1.7.38-1.4.45-1.38.55.13.09 1.25.98 1.75 3.16 1.75 1.67 0 4.33.95 5.91 2.11 1.57 1.17 3.35 1.82 3.95 1.44.61-.37 1.1-.2 1.1.39 0 .58.44 1.06.97 1.06 2.18 0-.35-2.93-3.05-3.52-1.61-.36-3.48-1.45-4.17-2.43s-1.7-1.96-2.24-2.17c-.55-.21-.87-.95-.71-1.63.18-.8-.91-1.28-3.01-1.33-1.81-.05-2.73-.31-2.04-.59.69-.27 1.25-1.36 1.25-2.4 0-1.79-.92-1.9-15-1.87l-15 .02v2.43c0 1.5.47 2.26 1.25 1.99.69-.24 2.82-.05 4.75.43 3.08.76 2.69.87-3.23.96-6.02.09-6.9.37-8.37 2.62-.9 1.38-2.72 2.78-4.02 3.11-1.31.32-2.38.99-2.38 1.48s-.68.9-1.5.9c-.83 0-1.5-.45-1.5-1s-.53-1-1.17-1c-.65 0-2-.75-3-1.66-1.01-.91-1.83-1.23-1.83-.7 0 .52-1.58.77-3.5.54-2.14-.25-3.5.03-3.5.71 0 1.09.46 1.2 6.65 1.55 1.73.1 4.18.86 5.43 1.69 2.05 1.36 2.64 1.34 6.03-.3 2.06-1 4.04-2.72 4.39-3.82m22.58-6.43c-.04-1.06.19-1.65.52-1.31.34.33.37 1.19.08 1.91-.32.8-.55.56-.6-.6m122.42 9.42c-.38-1.19-.91-1.93-1.18-1.66-.28.28-.2 1.47.18 2.66.38 1.18.91 1.92 1.18 1.65.28-.28.2-1.47-.18-2.65m56.5 1.44c0-.25-.7-.44-1.56-.44s-1.28.45-.93 1.01c.57.92 2.49.48 2.49-.57m-44.25-.13c-.96-.26-1.75-.95-1.75-1.55 0-.61-.27-.83-.6-.5-1 1 .6 2.74 2.41 2.62 1.52-.11 1.52-.16-.06-.57m22.25-.31c0-.55-.87-1-1.92-1-1.06 0-3.38-1.23-5.15-2.72-3.03-2.55-3.15-2.57-2-.42 1.64 3.07 9.07 6.46 9.07 4.14m-50.32-2.3c1.49-1.89 2.41-2.18 5.07-1.63 2.51.52 3.25.33 3.25-.81 0-1.09-.81-1.37-3-1.05-1.65.24-3 .01-3-.52s-.93.22-2.07 1.67-2.72 2.64-3.5 2.64c-.79 0-1.43.45-1.43 1 0 1.82 2.83 1.03 4.68-1.3m-122.68-1.17c-.75-1.46-5.26-1.23-5.77.29-.32.96.48 1.23 2.91 1 1.85-.18 3.13-.76 2.86-1.29m57-1.03c0-.83.45-1.5 1-1.5s.89.56.75 1.25c-.16.8 1.25 1.35 4 1.55 3.98.29 5.8-1.01 3-2.14-.69-.28-.25-.54.97-.59 1.58-.05 2.05.36 1.64 1.43-.36.93.01 1.5.97 1.5 2.02 0 3.05-1.69 1.43-2.34-.69-.28-.3-.54.88-.59 1.18-.04 2.4-.75 2.72-1.57.49-1.29-1.15-1.5-11.22-1.5h-11.81v3c0 2.62.36 3 2.84 3 1.85 0 2.83-.52 2.83-1.5m58.68.85c-.35-.36-1.67-1.16-2.91-1.78-1.71-.84-2.34-2.13-2.57-5.21-.27-3.72-.04-4.19 2.75-5.34 4.57-1.9 9.05.16 9.05 4.16 0 3.69-1.62 6.82-3.54 6.82-.8 0-1.46.45-1.46 1 0 1.73 2 1.09 4.55-1.46 1.35-1.35 2.45-3.56 2.45-4.92 0-1.35.56-2.69 1.25-2.96.8-.32.66-.54-.38-.59-.89-.04-2.22-.8-2.96-1.68-4.54-5.48-13.79-2.33-13.88 4.72-.04 3.37 3.51 7.89 6.21 7.89 1.15 0 1.8-.3 1.44-.65m39.79-.41c-.37-.59-2.54-1.01-4.82-.92-6.36.25-9.05.04-8.36-.65 1.03-1.03 14.82-.43 16.58.72 1.46.94 1.44 1-.12.51-.96-.3-1.75-.11-1.75.43 0 .53 1.35.97 3 .97s3-.45 3-1-.51-1-1.12-1c-.78 0-.74-.47.12-1.5 1.08-1.31.42-1.52-5.13-1.58-3.5-.05-5.7-.34-4.87-.65.82-.32 1.8-1.04 2.17-1.61.45-.69 1.21-.6 2.25.27 1.37 1.14 1.58.96 1.58-1.31 0-2.54-.2-2.62-5.93-2.62-4.8 0-6.01.33-6.38 1.75-.44 1.66-.46 1.66-.57 0-.1-1.51-1.19-1.75-7.62-1.75-6.77 0-7.5.19-7.5 1.94 0 1.64.84 2.01 5.25 2.32 4.2.29 3.7.4-2.5.55-4.38.1-7.75.62-7.75 1.19 0 .55 1.76 1 3.91 1 3.28 0 3.83.28 3.43 1.82-.44 1.67.46 1.83 11.66 2.01 8.53.14 11.94-.12 11.47-.89m-14.47-4.94c0-.55.45-1 1-1s1 .45 1 1-.45 1-1 1-1-.45-1-1m36.14 4.03c2.93-2.45 1.06-2.63-3-.3-2.93 1.68-3.13 1.67-5.83-.37-3.66-2.75-3.49-6.96.41-10.11 2.16-1.75 2.39-2.25 1.03-2.25-.96 0-2.65.9-3.75 2-4.42 4.41-.81 13 5.46 13 1.83 0 4.38-.89 5.68-1.97m2.86-5.96c0-2.76-3.88-7.08-6.32-7.04-2.13.03-2.14.05-.18 1.12 2.92 1.6 4.5 3.91 4.5 6.6 0 1.32.44 2.09 1 1.75.55-.34 1-1.44 1-2.43m-120.53-.12c.36.57 2.39 1.05 4.52 1.05 2.84 0 3.98-.47 4.32-1.75.44-1.67.46-1.67.57 0 .09 1.35 1.02 1.75 4.12 1.75 2.67 0 4-.45 4-1.34 0-1.63 4.23-1.49 4.78.16.55 1.68 16.85 1.61 17.64-.07.46-1 .7-1 1.16 0 .91 1.94 2.42 1.47 2.42-.75 0-1.95-.67-2-23.5-2-23.29 0-23.5.01-23.5 2.12 0 1.71.27 1.89 1.41.95.97-.8 1.62-.84 2.06-.12m112.53-.45c-1.57-1.89-2-1.89-2 0 0 .82.73 1.5 1.62 1.5 1.33 0 1.4-.28.38-1.5m-129-.5c0-.55-.48-1-1.06-1s-.78.45-.44 1c.79 1.28 1.5 1.28 1.5 0m74 0c0-.55-.45-1-1-1s-1 .45-1 1 .45 1 1 1 1-.45 1-1m-121.5-1c-.79-1.29-1.5-1.29-1.5 0 0 .55.48 1 1.06 1s.78-.45.44-1m-187-3c.35-.57-.6-1.06-2.19-1.12l-2.81-.12 3-.76 3-.77-3-.11c-1.65-.06-5.48.21-8.5.6l-5.5.72 7 1.16c3.85.64 7.31 1.21 7.69 1.28.38.06.97-.33 1.31-.88m554.5-2.5c1.053-1.27.84-1.5-1.378-1.5-1.664 0-2.622.54-2.622 1.5 0 1.93 2.395 1.93 4 0m-287 66.99c-.83-1.01-4.08-3.01-7.24-4.44l-5.74-2.62 2.49-3.66c1.37-2.02 2.49-4.03 2.49-4.47s2.47-1.81 5.49-3.04l5.5-2.24 5.23 2.06c4.94 1.95 15.63 9.53 15.73 11.17.03.41-.85.75-1.95.75s-2-.42-2-.93c0-1.84-5.22-7.07-7.05-7.07-1.04 0-3.47 1.39-5.42 3.1l-3.53 3.1v-5.66c0-3.52-.38-5.43-1-5.04-.55.33-1 2.69-1 5.23v4.61l-2.25-2.05c-3.12-2.84-6.75-4.63-6.75-3.33 0 .57.59 1.04 1.3 1.04.72 0 2.77 1.51 4.57 3.36 2.82 2.91 3.22 3.95 2.94 7.66-.29 3.99-.42 4.17-1.81 2.47m4-3.06c0-4.04.36-4.68 4.15-7.43 2.28-1.65 4.67-3 5.31-3s2.2 1.4 3.47 3.11c1.86 2.53 2.04 3.29.94 3.99-.75.47-1.89.87-2.52.88s-3.44 1.56-6.25 3.45l-5.1 3.43zm16.75-13.18c-2.65-.61-2.1-2.95.87-3.7 1.44-.36 2.86-.41 3.16-.1.31.3-.17.55-1.05.55-.89 0-1.94.52-2.34 1.16-.48.79-.17.97.95.54.91-.35 1.66-.23 1.66.27 0 1.27-1.2 1.74-3.25 1.28m86.98-21.38c.68-.68 1.49-.99 1.8-.68.3.31-.25.87-1.24 1.24-1.42.54-1.54.43-.56-.56m5.27-3.25c0-.21.79-1 1.75-1.75 1.59-1.25 1.62-1.21.38.38-1.31 1.66-2.13 2.19-2.13 1.37M-449.7-330.7c-.04-1.06.19-1.65.52-1.31.34.33.37 1.19.08 1.91-.32.8-.55.56-.6-.6m21.56-1.09c-2.49-2.49-2.93-5.41-1.2-8.04.88-1.35 2.27-2.45 3.08-2.45.82 0 1.48-.68 1.48-1.5 0-.83.44-1.5.97-1.5s.71.67.39 1.5c-.35.9 0 1.5.88 1.5 2.22 0 4.76 3.34 4.76 6.27 0 4.69-7.03 7.56-10.36 4.22m4.86-5.49c-.79-1.29-1.5-1.29-1.5 0 0 .55.48 1 1.06 1s.78-.45.44-1m-41.08 3.55c-.33-1.34-.3-2.94.07-3.54.7-1.13 4.59-.39 5.53 1.05.28.44 2.53.97 5 1.19l4.48.4-5.17.17c-3.22.11-5.31-.27-5.56-1-.71-2.14-3.66-.11-3.08 2.11.3 1.14.27 2.07-.05 2.07-.33 0-.88-1.1-1.22-2.45m4.31 1.79c.68-.27 2.03-.29 3-.04.97.26.42.48-1.23.5s-2.45-.19-1.77-.46m-18.98-1.05c1.24-.24 3.26-.24 4.5 0s.22.43-2.25.43c-2.48 0-3.49-.19-2.25-.43m274.5.02c2.91-.76 1.96-2.31-1.5-2.45-2.73-.12-2.85-.21-.75-.59 1.37-.24 2.93-.86 3.45-1.36 1.59-1.54 5.3-1.02 6 .84.54 1.4.42 1.5-.59.5-1.87-1.86-3.86-1.52-3.86.65 0 1.51.73 1.9 3.57 1.9 1.96 0 3.83.27 4.16.6s-2.28.54-5.81.48-5.63-.32-4.67-.57m-289-1c.96-.26 2.54-.26 3.5 0 .96.25.17.45-1.75.45-1.93 0-2.71-.2-1.75-.45m309.01-.03c1.52-.23 3.77-.23 5 .01s-.01.43-2.76.42-3.76-.2-2.24-.43m-323.99-.89c.33-.33 1.2-.37 1.92-.08.8.32.56.56-.61.61-1.05.04-1.64-.2-1.31-.53m295.73-.34c0-.58.45-1.05 1-1.05 1.28 0 1.28.7 0 1.5-.55.33-1 .14-1-.45m45.76.24c1.25-.24 3.05-.23 4 .02.96.25-.06.44-2.26.43s-2.98-.21-1.74-.45m-357.01-.96c.69-.27 1.81-.27 2.5 0 .69.28.12.51-1.25.51-1.38 0-1.94-.23-1.25-.51m49-.04c1.24-.24 3.26-.24 4.5 0s.22.43-2.25.43c-2.48 0-3.49-.19-2.25-.43m-63.5-.98c.96-.26 2.54-.26 3.5 0 .96.25.17.45-1.75.45-1.93 0-2.71-.2-1.75-.45m45.48.03c.68-.27 2.03-.29 3-.04.97.26.42.48-1.23.5s-2.45-.19-1.77-.46m306.35.29c1.03-.88 11.92-1.4 11.92-.56 0 .51-2.78.93-6.17.93s-5.98-.17-5.75-.37m-367.33-1.3c.69-.27 1.81-.27 2.5 0 .69.28.12.51-1.25.51-1.38 0-1.94-.23-1.25-.51m42.52.06c.33-.33 1.2-.37 1.92-.08.8.32.56.56-.61.61-1.05.04-1.64-.2-1.31-.53m344.99-.11c1.52-.23 3.77-.23 5 .01s-.01.43-2.76.42-3.76-.2-2.24-.43m-365.5-.99c1.25-.24 3.05-.23 4 .02.96.25-.06.44-2.26.43s-2.98-.21-1.74-.45m383.99-.02c1.79-.22 4.71-.22 6.5 0s.32.4-3.25.4c-3.58 0-5.04-.18-3.25-.4m-403.49-.99c1.52-.23 3.77-.23 5 .01s-.01.43-2.76.42-3.76-.2-2.24-.43m425 0c1.52-.23 3.77-.23 5 .01s-.01.43-2.76.42-3.76-.2-2.24-.43m-443.49-1.01c1.8-.22 4.5-.22 6 .01s.03.41-3.27.41c-3.3-.01-4.53-.2-2.73-.42m463.49.01c1.52-.23 3.77-.23 5 .01s-.01.43-2.76.42-3.76-.2-2.24-.43m-481-1c1.52-.23 3.77-.23 5 .01s-.01.43-2.76.42-3.76-.2-2.24-.43m516.47-.94c.677-.27 2.027-.29 3-.04.973.26.419.48-1.231.5s-2.446-.19-1.769-.46m-3.731-1.34-13.5-.59 13.75-.21c8.637-.13 13.75.17 13.75.8 0 .55-.113.9-.25.79-.138-.11-6.325-.47-13.75-.79m-325.44-1.71c-.54-1.43-.42-1.54.56-.56.69.68.99 1.48.69 1.79-.31.31-.87-.25-1.25-1.23m45.44.1c0-.83 1.94-1.3 2.39-.58.29.47-.13.85-.93.85s-1.46-.12-1.46-.27m-36-3c0-.83 1.94-1.3 2.39-.58.29.47-.13.85-.93.85s-1.46-.12-1.46-.27m42.47-1c1.03-.75 1.43-1.79.98-2.58-.58-1.02-.46-1.05.54-.13.99.92 1.87.83 3.89-.37l2.62-1.55-2.39 1.98c-1.62 1.33-2.12 2.43-1.56 3.37.71 1.18.58 1.18-.86.01-.93-.75-1.69-.94-1.69-.41 0 .52-.73.95-1.63.95-1.46 0-1.45-.13.1-1.27m-54.8-1.06c-.37-.37-.67-1.13-.67-1.7 0-.63.47-.57 1.18.15.65.65.95 1.41.67 1.7-.28.28-.82.22-1.18-.15m81.08-2.91c-3.74-2.03-3.51-2.87.25-.92 1.65.85 3 1.76 3 2.02 0 .64-.11.61-3.25-1.1m-17.75-.87c0-.28 1.35-1.2 3-2.05 1.65-.86 3-1.33 3-1.06 0 .28-1.35 1.2-3 2.06-1.65.85-3 1.32-3 1.05m-68.13-2.3c-1.24-1.59-1.21-1.63.38-.38 1.67 1.3 2.2 2.13 1.37 2.13-.21 0-.99-.79-1.75-1.75m96.13 1.37c0-.21.79-1 1.75-1.75 1.59-1.25 1.62-1.21.38.38-1.31 1.66-2.13 2.19-2.13 1.37m-101.49-4.61c-.35-.57.05-.74.94-.4 1.73.67 2.05 1.39.61 1.39-.52 0-1.22-.45-1.55-.99m56 0c-.35-.57.05-.74.94-.4 1.73.67 2.05 1.39.61 1.39-.52 0-1.22-.45-1.55-.99m52.22-.14c.68-.68 1.49-.99 1.8-.68.3.31-.25.87-1.24 1.24-1.42.54-1.54.43-.56-.56m21.27.13c-.83-.54-1.05-.97-.5-.97s1.67.43 2.5.97c.82.53 1.05.96.5.96s-1.68-.43-2.5-.96m35.77-1.17c.58-.58 1.65-.86 2.37-.62.75.25.29.7-1.06 1.05-1.66.44-2.05.31-1.31-.43m-179.04-1.49c.68-.27 2.03-.29 3-.04.97.26.42.48-1.23.5s-2.45-.19-1.77-.46m192.02-.01c.69-.27 1.81-.27 2.5 0 .69.28.12.51-1.25.51-1.38 0-1.94-.23-1.25-.51" style="fill:#606060" transform="translate(620.71 363.28)"/><path d="M-335.28-266.45c-1.65-1.01-5.59-2.38-8.75-3.04-5.25-1.09-5.75-1.42-5.75-3.85 0-1.45.5-4.08 1.11-5.83 1.22-3.5 2.13-3.51 8.89-.08 5.84 2.96 8.17 6.15 7.81 10.68l-.31 3.96zm5.5-2.27c0-5.07 2.02-7.29 9.98-10.97 6.23-2.88 6.5-2.72 7.89 4.75l.83 4.45-3.6.61c-1.98.34-6.19 1.68-9.35 2.99l-5.75 2.38zm-26-3.5c0-2.39.28-2.31-21-6.02-18.52-3.24-28-5.6-28-6.99 0-1.27 2.71-2.05 7.12-2.05h3.96l-.29-8.17-.29-8.17-11.5-7.41c-6.46-4.16-11.44-8.03-11.36-8.83.08-.78-.4-1.42-1.06-1.42s-2.29-1.02-3.62-2.25c-1.33-1.24-2.77-2.14-3.19-2-.42.13-.77-.13-.77-.59 0-.93-5.05-3.62-6.25-3.34-.41.1-.75-.68-.75-1.72 0-1.86-2.48-3.55-3.91-2.66-.4.25-.53-.88-.3-2.5l.44-2.94h-9.28c-5.11 0-9.01-.28-8.68-.61s5.42-.54 11.31-.47c8.92.1 11.06-.17 12.82-1.65 2.05-1.74 2.06-1.73.5.23-2.59 3.24-2.9 5.24-1.4 8.85 1.53 3.66 3.1 4.65 7.39 4.65 2.7 0 6.48-2.07 6.74-3.67.46-2.8 1.73-5.23 2.48-4.76.49.3.89-.21.89-1.12 0-.92-.56-1.49-1.25-1.27s-2.46-.86-3.94-2.4c-1.47-1.53-2.33-2.78-1.9-2.78s1.59.9 2.59 2c1.7 1.87 3.08 2 22.33 2 14.87 0 20.96-.35 22.14-1.25.9-.69.69-.35-.46.76-1.64 1.59-1.94 2.72-1.42 5.29.37 1.8 1.43 4.11 2.36 5.14 2.21 2.44 5.55 3.32 5.55 1.46 0-.77-.66-1.4-1.48-1.4-2.25 0-4.83-4.62-4.14-7.4.77-3.04 5.06-4.66 8.92-3.35 2.55.86 2.78 1.33 2.5 5.1-.23 3.17-.83 4.38-2.55 5.13-1.24.55-2.25 1.57-2.25 2.28 0 2.49 5.73-1.55 6.88-4.85.89-2.56.78-3.68-.61-6.03-.94-1.59-2.54-3.15-3.56-3.48-1.02-.32-1.6-.85-1.27-1.18.32-.32 1.94.42 3.59 1.64 2.81 2.08 3.96 2.21 18.09 2.08l15.09-.13-.64-3.16c-.35-1.74-.91-5.74-1.25-8.9-.33-3.17-.98-5.75-1.44-5.75s-.32-1.13.3-2.51c.63-1.38 1.32-2.33 1.54-2.11.21.21.6 3.48.86 7.25.26 3.78.71 8.76 1 11.08l.53 4.21 13.2-.21c8.82-.14 13.13-.57 13-1.3-.11-.59.34-1.1 1-1.13.65-.03 2.09-.34 3.19-.7 1.51-.49 1.45-.36-.25.54-2.64 1.39-3.09 3.46-.5 2.32 2.28-1.01 5.2-1.03 8-.08 1.35.46 2.25.37 2.25-.23 0-.55-.93-1.3-2.08-1.66-1.14-.36-1.81-.92-1.48-1.25.32-.32 1.95.43 3.61 1.66 2.61 1.92 4.19 2.22 11.24 2.11 12.39-.2 15.32-.04 14.11.77-.61.4-1.36 1.41-1.67 2.24-.46 1.19-.59 1.14-.65-.25-.07-1.51-1.13-1.75-7.58-1.75-7.19 0-7.5.09-7.5 2.32 0 1.78-.54 2.31-2.25 2.25-1.55-.05-2.21.47-2.11 1.66.07.96-.24 1.51-.7 1.23-.46-.29-1.3.33-1.85 1.37-.56 1.04-2.41 2.47-4.12 3.18-2.65 1.09-3.63 1.04-6.54-.35-1.89-.9-3.43-1.18-3.43-.63 0 .56 1.24 1.55 2.75 2.22 1.51.66 3.03 1.59 3.37 2.07.71 1 5.94-1.48 7.76-3.69.86-1.03 2.31-1.32 4.68-.93 2.87.46 3.46.25 3.56-1.32.1-1.77.14-1.77.58-.07.32 1.25 1.31 1.76 3.14 1.65 7.79-.51 19.22.13 18.66 1.04-.34.55.08 1 .94 1s1.56-.39 1.56-.86c0-1.28 8.84-.71 10.21.66.65.66 2 1.2 2.99 1.2 2.49 0 2.25 1.31-.45 2.54-1.24.57-2.17 1.48-2.07 2.04.1.55-3.5 3.38-8 6.29-31.37 20.29-40.17 26.31-40.08 27.39.07.87-1.98 1.24-7 1.24-6.37 0-7.1.2-7.1 1.94 0 2.25 2.44 2.26 23 .09l12-1.26-9.92-.14c-5.45-.07-9.69-.35-9.43-.62.76-.76 29.13-.73 31.1.02 4.91 1.9.58 3.2-24.75 7.46-22.75 3.82-22.5 3.76-22.5 5.52 0 .82-.79 1.49-1.76 1.49-2.33 0-4.98-9.92-2.99-11.18.9-.57.78-.8-.43-.81-.93-.01-2.66-1.39-3.86-3.07-2.54-3.57-3.88-3.28-1.52.32 1.59 2.43 1.56 2.46-2.96 4.19-2.51.96-5.85 2.83-7.43 4.16l-2.88 2.42-.05-10.52c-.02-5.78.15-10.51.4-10.51 1.23 0 8.48 3.3 8.45 3.85-.01.36-1.81 1.75-4 3.1-2.18 1.34-3.97 2.83-3.97 3.31 0 .91 1.04.41 5-2.43 1.37-.98 3.69-1.69 5.15-1.56 2.59.22 8.1 4.56 10.59 8.34 1.03 1.55 1.21-.22 1-9.96-.23-11.32-.35-11.92-2.74-13.73-1.38-1.05-3.18-2.55-4-3.33-.83-.79-2.86-1.58-4.5-1.77-2.68-.31-9.19-3.82-7.09-3.82 2.51 0 9.48 2.68 12.16 4.67l3.08 2.29 4.42-3.1 4.43-3.11-3.92 3.46c-3.84 3.37-3.89 3.51-2.25 5.84 1.19 1.7 1.67 4.48 1.67 9.67v7.28h4.65c4.12 0 6.22-1 18.51-8.75l13.86-8.75-.47-4.5c-.46-4.46-.46-4.47.58-1 .58 1.92 1.19 3.64 1.37 3.82.4.41 20.5-12.58 20.5-13.25 0-.26-5.32-.49-11.82-.5l-11.83-.03.19 2.73c.11 1.5 0 1.83-.24.73-.77-3.48-3.31-4.5-11.2-4.5-7.14 0-7.81.2-13.56 4.08-5.73 3.88-5.2 2.98 1.07-1.78l2.89-2.19-14.25-.06c-10.81-.04-14.25-.36-14.25-1.32 0-2.06-9-11.73-10.91-11.73-2.89 0-11 9.97-11.17 13.73-.05 1.05-.28 1.26-.58.52-.28-.69-1.13-1.25-1.89-1.25-.86 0-1.18-.67-.84-1.75.52-1.64.46-1.65-.85-.06-1.1 1.33-3.34 1.74-10.33 1.92-7.27.17-16.19 1.39-13.18 1.79.41.05.96-.02 1.21-.15.25-.14 1.04.48 1.75 1.38.71.89 4.4 3.68 8.21 6.2 6.91 4.57 6.93 4.57 9.89 2.87 1.63-.94 3.19-2.53 3.47-3.54.31-1.15.75-1.42 1.18-.73.48.78 1.93.66 4.99-.42 2.36-.83 6.16-1.45 8.43-1.37 3.87.13 3.8.18-1.24.78-2.95.36-5.87 1.31-6.5 2.11-.63.81-2.04 1.44-3.14 1.4-2.58-.08-7.19 2.16-7.79 3.79-.36 1-1.1.93-3.34-.3-5.51-3.02-7.87-4.43-8.37-5.01-.28-.32-3.14-2.26-6.37-4.31-5.54-3.53-6.27-3.72-13.26-3.51-4.07.12-7.64-.04-7.95-.34-.3-.3-.24-2.17.13-4.15.54-2.91 1.12-3.6 2.99-3.6 1.36 0 2.5-.72 2.77-1.75.44-1.67.46-1.67.57 0 .09 1.25.98 1.75 3.16 1.75 1.67 0 4.33.95 5.91 2.11 1.67 1.24 3.38 1.8 4.11 1.35.81-.5 1-.37.54.38-1.26 2.03 1.97 1.26 5.91-1.41 3.17-2.15 4.9-2.57 10.65-2.55 3.78.01 7.32.29 7.86.63.54.33 1.03-.44 1.1-1.71.08-1.69.23-1.84.57-.55.25.96.99 1.75 1.64 1.75 1.37 0 7.67-6.6 7.67-8.04 0-1.7 4.04-1.03 4.69.79.35.96 1.79 2.97 3.22 4.47 2.31 2.42 3.32 2.72 9.27 2.75 5.53.02 6.75-.27 7.13-1.72.44-1.67.46-1.67.57 0 .09 1.22.97 1.75 2.95 1.75 3.7 0 4.17-.6 2.8-3.55-.97-2.1-1.81-2.44-6.07-2.45-4.53 0-4.78-.13-3-1.44 1.07-.78 2.09-1.01 2.27-.5.62 1.72 2.17.96 2.17-1.06 0-1.95-.67-2-23.5-2h-23.5v2.5c0 2-.5 2.5-2.5 2.5-1.71 0-2.5.55-2.51 1.75 0 1.94-5.69 6.25-8.25 6.25-2.91 0-6.26-2.05-8.27-5.06-1.09-1.62-2.76-2.94-3.72-2.94-1.2 0-1.75-.79-1.75-2.5v-2.5h-30v2.56c0 2.11.35 2.46 2 1.94 1.15-.37 2-.18 2 .43 0 .58-1.72 1.07-3.81 1.07-2.93 0-4.48.69-6.69 3-1.58 1.65-3.47 3-4.19 3s-1.31.37-1.31.83c0 1.78 1.43 2.11 3.46.79 2.23-1.47 11.68-2.66 10.89-1.37-.26.41-.25.75.01.75s1.3.26 2.31.59c1.52.49 1.58.41.33-.49-1.22-.87-.98-1.08 1.25-1.09 1.51-.01 2.75.44 2.75.99s.45 1 1 1 1-.6 1-1.33c0-.92 1.69-1.4 5.41-1.55l5.4-.22-.78 3.47c-.43 1.9-.68 4.51-.54 5.79.13 1.29.04 1.55-.2.59-.38-1.55-1.83-1.75-12.36-1.75-6.56 0-11.93.33-11.93.75 0 .41 11.14 7.82 24.75 16.48 22.95 14.58 25.1 15.73 29.5 15.75l4.75.02v-6.55c0-5.97 2.27-13.52 3.65-12.13.28.27-.16 1.55-.97 2.84-1.05 1.65-1.51 5.43-1.59 12.84-.09 9.45.05 10.3 1.36 8.5 1.76-2.4 2.08-2.72 6.51-6.25l3.45-2.75-2.33 3.16c-1.28 1.74-3.29 3.48-4.46 3.86-1.76.57-1.84.76-.45 1.14 1.51.41 1.54.79.25 3.86-.78 1.88-1.42 4.55-1.42 5.94 0 1.87-.53 2.54-2 2.54-1.31 0-2-.67-2-1.94m0-12.12c0-1.86-.8-1.94-18.25-1.81-10.04.08-17.13.35-15.75.6 5.37 1.01 32.54 3.89 33.25 3.53.41-.21.75-1.26.75-2.32m-21.51-8.25c-4.39-2.92-9.68-6.33-11.74-7.58l-3.75-2.28v15.17h23.48zm-24.59-30.08c.89-1.06.81-1.51-.31-1.94-.99-.38-1.41.06-1.31 1.38.17 2.32.17 2.32 1.62.56m144.08-2.83c.01-.4-.66-.46-1.48-.15-.85.33-1.5.03-1.5-.69 0-.71-.26-1.02-.58-.7s-.05 1.58.61 2.8c.94 1.77 1.36 1.94 2.06.84.48-.76.89-1.71.89-2.1m-56.98 1.84c0-.21-.69-.95-1.52-1.64-1.28-1.06-1.42-1-.9.37.54 1.41 2.42 2.39 2.42 1.27m43.09-3.93c-.79-.79-1.09-.53-1.09.94 0 2.64 1.4 4.05 1.84 1.85.19-.93-.14-2.19-.75-2.79m-23.59-2.19c-4.03-2.89-4.62-3.76-4.35-6.36.15-1.45-.16-2.87-.69-3.14-.53-.28-1.1 1.01-1.28 2.85-.38 3.92 2.89 8.16 6.24 8.11 2.07-.03 2.07-.04.08-1.46m7.19-.68c1.38-1.3 2.31-3.34 2.31-5.06 0-1.67.42-2.62 1-2.26.55.33 1 .14 1-.45 0-.97-2-1.41-3.71-.8-.4.13-.59 1.43-.44 2.87.19 1.84-.49 3.24-2.29 4.65-1.41 1.11-2.56 2.29-2.56 2.62 0 1.32 2.5.49 4.69-1.57m-79.09-7.55c-1.01-1.02-1.85.51-1.02 1.86.63 1.02.87 1.02 1.21 0 .23-.69.15-1.53-.19-1.86m74.4.73c0-.55-.45-1-1-1s-1 .45-1 1 .45 1 1 1 1-.45 1-1m-42.94 58.92c-1.89-1.59-5.18-3.47-7.32-4.18l-3.88-1.29 2.91-3.66 2.91-3.67 3.11 1.89c4.33 2.63 6.4 6.18 6.02 10.31l-.31 3.48zm-.33-11.41-3.78-3.27 3.61-1.71c1.98-.94 3.82-1.49 4.08-1.23s.34 2.51.17 4.98l-.31 4.5zm-15.01-2.85c-1.07-2.71-.88-3.66.7-3.66.78 0 1.61-.57 1.86-1.25.25-.69.75-.97 1.13-.62.38.34.04 1.27-.75 2.07-.8.79-1.62 2.3-1.83 3.37-.37 1.83-.42 1.83-1.11.09m39.84-.96c.38-.98.94-1.54 1.25-1.23.3.31 0 1.11-.69 1.79-.98.98-1.1.87-.56-.56m-3.56-1.15c0-1.75.6-2.01 1.46-.62.31.51.12 1.21-.44 1.55-.56.35-1.02-.07-1.02-.93m-37.36-4.05c.72-1.88 1-1.88 1.72 0 .35.9.01 1.5-.86 1.5s-1.21-.6-.86-1.5m40.86-.5c-1.63-.71-1.69-.88-.31-.93.93-.04 1.97.38 2.31.93.71 1.14.68 1.14-2 0m-81.42-8.42c-.04-1.06.19-1.65.52-1.31.34.33.37 1.19.08 1.91-.32.8-.55.56-.6-.6m56.51-4.27c2.28-1.67 8.5-1.7 10.75-.05 1.45 1.05.58 1.26-5.41 1.31-6.13.04-6.89-.13-5.34-1.26m-55.51-.73c-.04-1.06.19-1.65.52-1.31.34.33.37 1.19.08 1.91-.32.8-.55.56-.6-.6m74-2c-.04-1.06.19-1.65.52-1.31.34.33.37 1.19.08 1.91-.32.8-.55.56-.6-.6m-26-2c-.04-1.06.19-1.65.52-1.31.34.33.37 1.19.08 1.91-.32.8-.55.56-.6-.6m1.94.17c.02-1.84 1.77-4.3 2.52-3.55.87.87-.44 4.8-1.61 4.8-.51 0-.92-.57-.91-1.25m19.98.33c0-.51-.3-1.69-.66-2.64-.45-1.16-.24-1.58.66-1.28 2.02.68 3.29 4.84 1.47 4.84-.81 0-1.47-.42-1.47-.92m-15.81-1.82c.5-2.61 3.81-2.9 3.81-.34 0 1.43-.64 2.08-2.07 2.08s-1.97-.54-1.74-1.74m9.81-.26c0-1.34.67-2 2-2s2 .66 2 2c0 1.33-.67 2-2 2s-2-.67-2-2m-4.77-.19c.62-1.86 2.77-2.16 2.77-.4 0 .87-.71 1.59-1.58 1.59s-1.41-.54-1.19-1.19m-101.31-1.2c-.23-.22-3.12-.65-6.42-.96-17.56-1.65-154.59-16.87-163.79-18.19-5.94-.85-11.94-1.98-13.33-2.51-2.85-1.09-2.73-3.33.2-3.69 1.06-.13 1.36.02.67.34-.69.31-1.25.91-1.25 1.33 0 1.41 17.28 3.97 37.5 5.55 37.01 2.89 136.92 10.52 137.77 10.52.47 0 .53.51.13 1.15-.45.74-.27.88.52.4.67-.42 1.61-1.73 2.09-2.91.68-1.68.88-1.77.93-.41.06 1.8 4.19 3.42 5.94 2.34.63-.39.79.68.43 2.9-.37 2.29-.18 3.53.56 3.53.62 0 1.13-1.56 1.13-3.48v-3.48l2.81 1.73c1.55.95 4.36 2.74 6.25 3.97l3.44 2.25h-7.58c-4.17 0-7.77-.17-8-.38m-10.48-4.51c.3-.49-.19-1.18-1.09-1.52-1.95-.75-2.81-.13-1.89 1.35.8 1.3 2.23 1.38 2.98.17m207.41.31c5.11-3.44 6.61-5.8 2.18-3.43-2.71 1.45-7.3.48-9.56-2.02-.96-1.05-2.2-1.63-2.77-1.28-.64.4-.79 0-.4-1.02.51-1.34.01-1.67-2.58-1.68-3.67-.02-6.58-1.49-5.3-2.68.47-.44 1.05-.24 1.3.45.25.68 1.08 1.25 1.86 1.25 1.77 0 1.91-4.64.17-5.34-.69-.28.25-.54 2.09-.59 1.84-.04 4.49-.97 5.89-2.07s3.04-1.99 3.65-1.96c.62.02-.12.71-1.63 1.53s-2.75 1.92-2.75 2.46c0 .53-.79.97-1.75.98-1.38.01-1.46.2-.37.89.76.48 1.1 1.32.76 1.86-.33.55.07 2.36.91 4.03 2.44 4.89 9.43 6.1 12.93 2.22 1.66-1.83 3.94-9.29 2.66-8.71-.35.16-1.85-.97-3.33-2.51-3.02-3.15-1.91-3.9 1.19-.79 1.59 1.58 3.49 2.03 9.25 2.18 5.53.13 6.12.26 2.5.55-3.84.3-4.75.73-4.75 2.25 0 1.03.79 2.07 1.75 2.33.96.25.09.51-1.94.57-4.36.14-6.04 1.97-2.66 2.89 2.24.62 2.21.67-.65 1.2-4.51.82-3.61 2.53 1.15 2.19 2.28-.17 4.44.18 4.81.77.36.58 1.14 1.07 1.72 1.07.68 0 .61-.55-.17-1.49-2.33-2.81-.46-4.53 4.71-4.33l4.78.18-4.75.37c-3.3.26-4.75.81-4.75 1.82 0 .86.98 1.45 2.42 1.45 1.33 0 3.2.3 4.16.66 1.02.39 1.5.27 1.15-.29-.36-.59 14.1-2.02 37.59-3.71 21-1.51 43.58-3.17 50.18-3.7s24.15-1.87 39-2.98c28.845-2.17 37.946-3.47 40.774-5.85 1.281-1.07 2.076-1.18 2.864-.4 1.431 1.43-2.765 3.54-10.138 5.09-5.155 1.09-60.28 7.25-126.5 14.13-15.95 1.66-30.95 3.28-33.32 3.61-4.14.55-4.28.49-3.22-1.49.97-1.82.83-2.07-1.17-2.06-1.44.01-1.84.3-1.09.78 2.25 1.43-.35 3.26-5.53 3.87l-5.17.61v-3.14c0-1.72-.5-3.13-1.11-3.13-.67 0-.94 1.19-.68 3l.44 3h-12.12zm-98.85-.91c0-.84.89-1.5 2-1.5 2.38 0 2.65 1.53.42 2.39-2.24.86-2.42.79-2.42-.89m7.75.81c-.96-.26-1.75-1.06-1.75-1.79 0-.85.74-1.14 2-.81 1.1.28 2 1.14 2 1.9s-.11 1.33-.25 1.27-1.04-.32-2-.57m-85.75-6.31c-.83-.54-1.05-.97-.5-.97s1.67.43 2.5.97c.82.53 1.05.96.5.96s-1.68-.43-2.5-.96m-14.35-1.83c-3.69-4.08-1.05-10.17 4.4-10.17 5.33 0 7.74 7.48 3.43 10.64-2.59 1.89-5.87 1.69-7.83-.47m5.79-5.28c-.88-1.41-2.44-1.04-2.44.57 0 .9.59 1.25 1.49.9.83-.32 1.25-.98.95-1.47m23.72 5.11c0-1.38.22-1.94.5-1.25.28.68.28 1.81 0 2.5-.28.68-.5.12-.5-1.25m155.81-.05c-1.76-3.3-.78-7.22 2.23-8.9 2.5-1.4 2.92-1.35 5.5.57 3.39 2.51 4.07 5.87 1.73 8.46-2.41 2.65-8.01 2.57-9.46-.13m5.8-4.14c-.62-1.86-2.77-2.16-2.77-.4 0 .87.71 1.59 1.58 1.59s1.41-.54 1.19-1.19m34.4 2.44c-1.28-2.49-.36-4.27 2.16-4.19 2.17.06 2.17.06-.08.97-2.67 1.07-2.73 1.34-.68 3.39.87.87 1.11 1.58.54 1.58s-1.44-.79-1.94-1.75m-262.17-1.2c0-.51.44-1.21.99-1.55.57-.35.73.05.39.94-.66 1.74-1.38 2.05-1.38.61m112.17-.05c.5-1.52 2.11-1.67 2.58-.25.23.68-.33 1.25-1.25 1.25s-1.52-.45-1.33-1m10.99-1c0-1.38.22-1.94.5-1.25.28.68.28 1.81 0 2.5-.28.68-.5.12-.5-1.25m163.84-.45c0-1.05 1.92-1.49 2.49-.57.35.56-.07 1.02-.93 1.02s-1.56-.2-1.56-.45m-304.5-3.76c-13.75-.4-28.83-.89-33.5-1.1-4.68-.21 6.57-.17 25 .08 30.31.42 35.26.63 33.92 1.49-.23.15-11.67-.06-25.42-.47m274.8-.54c4.28-.19 11.03-.19 15 0 3.96.19.45.35-7.8.35-8.25-.01-11.49-.16-7.2-.35m30.91-1c3.68-.19 9.98-.19 14 0 4.01.19.99.35-6.71.35s-10.98-.15-7.29-.35m-374-1c3.68-.19 9.98-.19 14 0 4.01.19.99.35-6.71.35s-10.98-.15-7.29-.35m405.04.01c3.16-.2 8.34-.2 11.5 0 3.16.19.57.36-5.75.36-6.33 0-8.91-.17-5.75-.36m-436.03-1c2.59-.2 7.09-.21 10 0 2.9.2.78.37-4.72.37s-7.88-.16-5.28-.37m469.53 0c2.89-.2 7.61-.2 10.5 0 2.887.2.52.37-5.25.37-5.78 0-8.14-.17-5.25-.37m-500.99-.97c1.25-.24 3.05-.23 4 .02.96.25-.06.44-2.26.43s-2.98-.21-1.74-.45m8.51.1c.33-.33 1.2-.37 1.92-.08.8.32.56.56-.61.61-1.05.04-1.64-.2-1.31-.53m522.98-.13c2.612-.21 6.887-.21 9.5 0 2.612.21.475.37-4.75.37s-7.363-.16-4.75-.37m-229.25-2.23c0-.54.67-.71 1.5-.4 1.92.74 1.92 1.37 0 1.37-.83 0-1.5-.44-1.5-.97m-35.13-2.78c-1.24-1.59-1.21-1.63.38-.38.96.75 1.75 1.54 1.75 1.75 0 .82-.82.29-2.13-1.37m30.7.85c-1.07-.42-1.51-1.02-.99-1.34s1.81.05 2.87.82c2.07 1.52 1.25 1.74-1.88.52" style="fill:#333" transform="translate(620.71 363.28)"/></svg>