<svg xmlns="http://www.w3.org/2000/svg" xmlns:xlink="http://www.w3.org/1999/xlink" viewBox="0 0 586.39 593.71"><defs><filter id="i" color-interpolation-filters="sRGB"><feGaussianBlur stdDeviation=".397"/></filter><filter id="k" color-interpolation-filters="sRGB"><feGaussianBlur stdDeviation=".293"/></filter><filter id="m" width="1.219" height="1.262" x="-.109" y="-.131" color-interpolation-filters="sRGB"><feGaussianBlur stdDeviation=".348"/></filter><filter id="o" color-interpolation-filters="sRGB"><feGaussianBlur stdDeviation=".168"/></filter><filter id="c" color-interpolation-filters="sRGB"><feGaussianBlur stdDeviation=".397"/></filter><filter id="d" color-interpolation-filters="sRGB"><feGaussianBlur stdDeviation=".293"/></filter><filter id="e" width="1.219" height="1.262" x="-.109" y="-.131" color-interpolation-filters="sRGB"><feGaussianBlur stdDeviation=".348"/></filter><filter id="f" color-interpolation-filters="sRGB"><feGaussianBlur stdDeviation=".168"/></filter><filter id="b" color-interpolation-filters="sRGB"><feGaussianBlur stdDeviation="1.52"/></filter><linearGradient id="a"><stop offset="0" style="stop-color:#fbc423"/><stop offset="1" style="stop-color:#462611"/></linearGradient><linearGradient id="h" x1="335.78" x2="335.78" y1="251.47" y2="244.65" gradientTransform="matrix(1 0 0 .95161 140.33 12.498)" gradientUnits="userSpaceOnUse"><stop offset="0" style="stop-color:#ffc100"/><stop offset=".5" style="stop-color:#f1dc1d"/><stop offset="1" style="stop-color:#c66700"/></linearGradient><linearGradient xlink:href="#a" id="j" x1="321.21" x2="303.33" y1="238.29" y2="330.58" gradientTransform="translate(140.44 .44)" gradientUnits="userSpaceOnUse"/><linearGradient xlink:href="#a" id="l" x1="361.19" x2="372.21" y1="238.3" y2="318.65" gradientUnits="userSpaceOnUse"/><linearGradient id="p" x1="335.78" x2="335.78" y1="268.97" y2="294.88" gradientTransform="matrix(1 0 0 1.0322 0 -8.607)" gradientUnits="userSpaceOnUse"><stop offset="0" style="stop-color:#ffda00"/><stop offset="1" style="stop-color:#a15a00"/></linearGradient><radialGradient id="g" cx="335.34" cy="262.9" r="52.172" gradientTransform="matrix(.03895 .8199 -1.3068 .06208 806.29 -27.923)" gradientUnits="userSpaceOnUse"><stop offset="0" style="stop-color:#ffc100"/><stop offset=".5" style="stop-color:#f1dc1d"/><stop offset="1" style="stop-color:#c66700"/></radialGradient><radialGradient id="n" cx="475.56" cy="301.04" r="3.811" gradientTransform="matrix(1 0 0 .83673 0 49.149)" gradientUnits="userSpaceOnUse"><stop offset="0" style="stop-color:#ffca03"/><stop offset="1" style="stop-color:#f6ebd9;stop-opacity:0"/></radialGradient></defs><g style="opacity:.8563;filter:url(#b);fill:#000" transform="matrix(4.5334 0 0 5.41231 -1862.818 -1127.1)"><path d="M476.53 219.81c-4.294 0-7.75 3.572-7.75 8 0 3.747 2.474 6.901 5.844 7.781h-.969c-.073 4.05-.262 7.388-.562 9.656l-.344 6.313c-.832 8.547-.598 17.879-2.531 25.594-4.004 16.833-18.356 13.695-32.781 8.5l1.312-2.531c-7.992-2.866-9.209-6.487-15.156-14.938.008 5.63-.418 11.202 7.156 20.438 10.468 10.593 38.125 13.312 44.812 18.25 6.39-4.533 34.692-9.262 45.75-16.438 3.862-3.508 7.182-12.317 6.563-18.22-1.303.198-3.114 10.213-15.25 13 .147.6.203.639.562 2.345-5.271.338-28.208 9.434-31.156-10.156-.262-1.984-1.55-16.951-2.094-25.72l-.468-6.437c-.432-2.68-.288-6.292-.313-9.625h-.781c3.413-.849 5.937-4.034 5.937-7.812 0-4.429-3.487-8-7.78-8zm.063 2.938c2.762 0 5 2.268 5 5.03s-2.238 5-5 5-5-2.237-5-5 2.237-5.03 5-5.03" style="fill-rule:evenodd;fill:#000"/><path d="M456.86 245.31h38.494c.61 2.04.848 4.156 0 6.489H456.86c-.848-1.993-.61-4.204 0-6.489" style="fill:#000"/><path d="M473.05 250.21c10.019 12.958 1.518 63.078-36.407 36.62l-4.293-.808c-6.053-5.062-6.672-10.529-8.644-17.624 3.074 4.696 7.544 12.274 15.104 14.738l-1.407 2.527c8.617 2.868 21.414 6.691 28.105.31 7.616-8.22 6.55-30.279 7.542-35.763z" style="filter:url(#c);fill-rule:evenodd;fill:#000"/><path d="M339.47 250.2c-10.57 20.174-3.14 57.121 35.757 38.288l4.794-.682c4.925-5.188 5.107-9.21 7.26-15.943-4.486 8.327-8.157 11.227-14.996 12.968l.456 2.125c-8.034 1.945-20.265 4.858-26.922-1.001-5.686-7.357-3.76-10.737-6.349-35.755z" style="fill-rule:evenodd;filter:url(#d);stroke-width:0;fill:#000" transform="matrix(1 0 0 1.0078 140.44 -1.84)"/><path d="M479.37 301.04c0 1.761-1.706 3.189-3.81 3.189s-3.811-1.428-3.811-3.189 1.706-3.188 3.81-3.188 3.811 1.427 3.811 3.188" style="opacity:.95041;filter:url(#e);fill:#000" transform="matrix(2.7959 0 0 1.9268 -854.22 -279.47)"/><path d="M327.07 289.95c2.798 1.24 5.972 6.072 8.46 9.573 2.57-2.984 4.61-6.667 8.96-9.342-8.802-5.058-6.304-46.333-6.45-54.459-1.56.655-2.255.842-4.018-.154.506 9.67 2.204 46.78-6.952 54.382z" style="filter:url(#f);fill-rule:evenodd;fill:#000" transform="matrix(1.0756 0 0 1.0122 114.87 -3.047)"/></g><path d="M476.53 219.81c-4.294 0-7.75 3.572-7.75 8 0 3.747 2.474 6.901 5.844 7.781h-.969c-.073 4.05-.262 7.388-.562 9.656l-.344 6.313c-.832 8.547-.598 17.879-2.531 25.594-4.004 16.833-18.356 13.695-32.781 8.5l1.312-2.531c-7.992-2.866-9.209-6.487-15.156-14.938.008 5.63-.418 11.202 7.156 20.438 10.468 10.593 38.125 13.312 44.812 18.25 6.39-4.533 34.692-9.262 45.75-16.438 3.862-3.508 7.182-12.317 6.563-18.22-1.303.198-3.114 10.213-15.25 13 .147.6.203.639.562 2.345-5.271.338-28.208 9.434-31.156-10.156-.262-1.984-1.55-16.951-2.094-25.72l-.468-6.437c-.432-2.68-.288-6.292-.313-9.625h-.781c3.413-.849 5.937-4.034 5.937-7.812 0-4.429-3.487-8-7.78-8zm.063 2.938c2.762 0 5 2.268 5 5.03s-2.238 5-5 5-5-2.237-5-5 2.237-5.03 5-5.03" style="fill-rule:evenodd;fill:url(#g)" transform="matrix(4.5334 0 0 5.41231 -1870.329 -1135.834)"/><path d="M456.86 245.31h38.494c.61 2.04.848 4.156 0 6.489H456.86c-.848-1.993-.61-4.204 0-6.489" style="fill:url(#h)" transform="matrix(4.5334 0 0 5.41231 -1870.329 -1135.834)"/><path d="M473.05 250.21c10.019 12.958 1.518 63.078-36.407 36.62l-4.293-.808c-6.053-5.062-6.672-10.529-8.644-17.624 3.074 4.696 7.544 12.274 15.104 14.738l-1.407 2.527c8.617 2.868 21.414 6.691 28.105.31 7.616-8.22 6.55-30.279 7.542-35.763z" style="filter:url(#i);fill-rule:evenodd;fill:url(#j)" transform="matrix(4.5334 0 0 5.41231 -1870.329 -1135.834)"/><path d="M339.47 250.2c-10.57 20.174-3.14 57.121 35.757 38.288l4.794-.682c4.925-5.188 5.107-9.21 7.26-15.943-4.486 8.327-8.157 11.227-14.996 12.968l.456 2.125c-8.034 1.945-20.265 4.858-26.922-1.001-5.686-7.357-3.76-10.737-6.349-35.755z" style="fill-rule:evenodd;filter:url(#k);stroke-width:0;fill:url(#l)" transform="matrix(4.5334 0 0 5.45453 -1233.657 -1145.795)"/><path d="M479.37 301.04c0 1.761-1.706 3.189-3.81 3.189s-3.811-1.428-3.811-3.189 1.706-3.188 3.81-3.188 3.811 1.427 3.811 3.188" style="opacity:.95041;filter:url(#m);fill:url(#n)" transform="matrix(12.67494 0 0 10.42845 -5742.853 -2648.413)"/><path d="M327.07 289.95c2.798 1.24 5.972 6.072 8.46 9.573 2.57-2.984 4.61-6.667 8.96-9.342-8.802-5.058-6.304-46.333-6.45-54.459-1.56.655-2.255.842-4.018-.154.506 9.67 2.204 46.78-6.952 54.382z" style="filter:url(#o);fill-rule:evenodd;fill:url(#p)" transform="matrix(4.87613 0 0 5.47834 -1349.577 -1152.323)"/></svg>