<svg xmlns="http://www.w3.org/2000/svg" version="1.0" viewBox="0 0 3055.6 1091.6"><path d="M259.54-71.803c-17.44 1.623-31.4 1.914-51.34 3.219-19.39.765-41.06.854-69.89 6.625-20.04 4.011-34.8 8.421-41.08 8.062 6.79-3.699-29.199-14.699-50.486-16.072-15.226-.983-46.666.885-79.269 7.416-53.152 10.639-115.1 1.282-168.44-4.612-67.07-8.156-88.51-1.606-105.64 13.893-6.28.359-21.04-4.051-41.08-8.062-28.84-5.771-50.5-5.86-69.89-6.625-19.94-1.305-33.9-1.596-51.34-3.219-10.53-.058-21.17 1.773-27.88 5.844-16.67 9.233-13.43 22.875 6.66 27.969 9.69 2.458 37.63 4.468 62.06 4.468 46.81 0 66.96 8.717 52.51 24-16.6 17.558-138.91 22.61-250.42 12.875-27.55-2.405-84.11-6.601-125.68-9.344-81.85-5.399-106.78-8.979-268.34-25.938-154.4-16.209-208.5-19.403-266.3-23.624s-67.8-2.775-114.6-.687c-46.7 2.087-75 5.932-99.6 13.562-40.4 12.535-77.5 37.521-85.5 44.281-37.8 32.055-58 92.467-34.8 107.9 25.5 17.05 60.5-3.55 96-45.244 33.8-39.567 52.4-48.085 79.3-36.314 39.4 17.232 38.9 43.986-3.6 170.85-19.8 65.22-36.5 130.1-61.1 194.59-8.2 23.75-5.3 38.08-18.6 2.19-1.9-5.21-7.4-24.15-15.4-41.78-15.7-34.26-18.9-72.17-7.9-91.5 3.7-6.52 20.7-20.91 37.8-31.97 32.3-21.97 43.6-48.9-13.2-62.19-49.9 0-79.5 26.94-79.5 72.44 0 36.93 9.2 61.84 56.2 137.47 24.1 38.59 26.7 42.32 23.3 56.43-8.4 30.41-13.4 67.4-31.6 95.72-2.5 0-8.1-8-12.4-17.78-6.8-15.1-5.9-22.4 6.2-48.47 13.2-29.12 6.9-70.41-47.8-48.72-8.4 4.36-11 14.31-12.8 26.91-3.9 27.5 10.6 59.83 40.6 90.03 22.7 22.84 22.6 20.91 3.6 80.53-43.1 134.92-50.5 225.95-50.8 272.56 0 161.22 337.1 55.12 523.2 101.85 29.3 7.36 74 6.18 101.6 8.22 29.72 2.19 125.8 1.27 327.52-2.88 316.04-6.5 374.73-17.17 390.35 4.72 36.66 25.11 96.22 27.21 144.6 13.71 18.07-6.7 31.74-10.4 42.35-12.18 10.053 1.98 22.645 5.68 38.736 11.58 48.382 13.5 107.98 11.4 144.65-13.77 15.62-21.89 74.264-11.18 390.29-4.68 201.73 4.14 297.8 5.06 327.48 2.87 27.65-2.04 72.35-.86 101.65-8.22 186.07-46.73 523.17 59.4 523.17-101.87-.3-46.62-7.7-137.61-50.8-272.53-19-59.63-19.1-57.69 3.6-80.53 30-30.21 44.6-62.54 40.6-90.04-1.8-12.59-4.4-22.55-12.8-26.9-54.7-21.7-60.9 19.6-47.8 48.72 12.1 26.06 13.1 33.36 6.3 48.47-4.4 9.78-10 17.78-12.4 17.78-18.3-28.33-23.3-65.31-31.7-95.72-3.4-14.12-.8-17.84 23.3-56.44 47.1-75.63 56.2-100.53 56.2-137.47 0-45.5-29.6-72.44-79.5-72.44-56.7 13.29-45.4 40.23-13.2 62.19 17.1 11.07 34.1 25.45 37.8 31.97 11.1 19.33 7.8 57.25-7.8 91.5-8.1 17.64-13.6 36.58-15.5 41.78-13.3 35.89-10.4 21.56-18.6-2.19-24.6-64.49-41.3-129.36-61.1-194.59-42.4-126.86-43-153.61-3.6-170.84 27-11.774 45.5-3.256 79.3 36.31 35.5 41.69 70.5 62.3 96.1 45.25 23.1-15.44 2.9-75.851-34.9-107.91-8-6.756-45-31.742-85.5-44.277-24.6-7.63-52.8-11.475-99.6-13.562-46.8-2.088-56.8-3.534-114.6.687-57.7 4.22-111.89 7.415-266.3 23.625C649.061-14.97 624.121-11.39 542.271-5.99c-41.56 2.741-98.13 6.938-125.67 9.343-111.51 9.735-233.83 4.683-250.43-12.875-14.45-15.283 5.71-24 52.51-24 24.44 0 52.38-2.01 62.07-4.468 20.08-5.094 23.33-18.736 6.65-27.97-6.7-4.07-17.35-5.901-27.87-5.843zm891.96 2.219c-76 .162-228.6 9.159-396.27 24.219-128.5 11.542-242 20.904-364.58 30.093-79.56 5.965-172.65 6.017-178.14.094-2.55-2.75 6.24-4.594 21.97-4.594 33.09 0 70.58-6.52 78.79-14.812 28.38-28.669-1.18-10.833-8.53-5.5-9.3 6.756-27.67 9.096-61.59 10.375-59.28 2.234-75.33 11.154-38.56 21.406C233.2-.329 354.43 1.102 427.61-5.678c25.29-2.343 79.95-6.673 121.51-9.594 41.57-2.92 92.58-7.239 113.36-9.625 20.79-2.386 59.4-6.435 85.87-8.75 101.08-8.838 72.11-6.806 92.75-9.031 93.1-10.042 212.1-21.422 248.5-20.937 36.3.484 48.9-1.986 66.9-2 19.9-.015 37.6.837 42.4 2.562 7.3 2.62 10 2.056.3-3-3.9-2.03-18-3.595-47.7-3.531m-2512.4.625c-29.7-.064-43.7 1.501-47.6 3.531-9.8 5.056-7.1 5.62.2 3 4.8-1.725 22.5-2.577 42.4-2.562 18 .014 30.6 2.484 67 2 36.3-.485 155.3 10.895 248.4 20.937 20.7 2.225-8.3.193 92.78 9.031 26.47 2.315 65.08 6.364 85.86 8.75 20.79 2.386 71.8 6.705 113.36 9.625 41.57 2.921 96.23 7.251 121.51 9.594 73.18 6.78 194.41 5.35 223.02-2.625 36.78-10.252 20.73-19.172-38.55-21.406-33.92-1.279-52.3-3.619-61.6-10.375-7.34-5.333-36.91-23.169-8.52 5.5 8.21 8.292 45.7 14.812 78.79 14.812 15.72 0 24.51 1.844 21.97 4.594-5.49 5.924-98.58 5.872-178.15-.094C-722.6-23.836-836.1-33.198-964.61-44.74-1132.3-59.8-1284.9-68.797-1360.9-68.959M46.3-65.294c20.741 1.322 40.843 8.122 40.091 10.835-2.57 9.269-13.935 11.303-28.48 14.562C32.588-32.354 9.908-24.818 6.149-15.459-1.106 2.605 32.794 3.58 53.976 1.853c50.076-7.33-35.116 14.735-51.293-7.187-4.126-5.401-6.79-15.086 10.68-23.031 23.282-10.59 51.919-20.432 55.228-25.625 2.189-3.436-5.371-6.326-15.833-5.032L5.915-53.24c-12.983 1.605-71.145 19.694-111.37 19.608-40.1-.085-90.57-17.422-109.87-18.952-15.93-1.264-26.66-3.54-49.87-4.803-10.46-1.293-17.26.586-15.07 4.022 3.31 5.193 34.21 15.067 57.5 25.656 17.47 7.945 14.8 17.599 10.68 23-16.18 21.922-101.37-.143-51.3 7.187 21.19 1.727 55.09.752 47.83-17.312-3.76-9.359-26.44-16.895-51.76-24.438-14.55-3.259-35.23-7.949-26.34-15.277 4.17-3.44 19.23-11.192 33.2-10.915 44.15.88 69.94 13.634 112.8 18.843 22.31 3.635 40.06 5.237 80.792-.318 20.81-3.31 100.97-18.654 113.17-18.355zm186.8-.759c9.72.012 26.82.842 30.92 1.25 11.77 1.174 17.14 4.34 17.14 10.594 0 5.563-47.47 14.067-55.74 15.375s-36.53 3-49.28 3.469c-30.5 1.12-55.5 15.016-36.54 30.468 21.21 17.282 43.72 23.437 134.72 24.407C386.07 20.7 454.03 6.648 591.54-2.397c63.54-4.179 116.53-12.592 175.24-18.968 135.51-16.884 212.05-19.132 7.97 8.843-10.38.236-146.84 16.3-160.07 18.125-13.22 1.825-34.45 3.176-76.26 6.125-41.8 2.949-113.74 9.458-166.8 10.344l-96.45 1.625C179.97 20.905 151.65 11.62 132.62.135c-23.73-14.321-11.08-29.851-1.4-32.907 11.73-3.706 31.01-5.849 40.14-5.781 9.14.068 42.21-3.027 54.01-4.531 19.99-2.548 64.58-10.493 36.31-16.844-7.66-1.719-12.69-.984-18.04-1.437-25.31-2.144-20.26-4.7-10.54-4.688m-675.61.625c9.72-.012 14.77 2.575-10.54 4.719-5.36.453-10.39-.313-18.04 1.406-28.27 6.351 16.32 14.327 36.3 16.875 11.8 1.504 44.88 4.568 54.01 4.5 9.14-.068 28.41 2.075 40.15 5.781 9.68 3.056 22.32 18.586-1.41 32.906-19.03 11.486-47.34 20.771-142.54 23.563l-96.45-1.625c-53.06-.886-125-7.395-166.81-10.344-41.8-2.949-63.03-4.3-76.26-6.125-13.22-1.825-149.68-17.889-160.06-18.125-204.06-27.975-127.56-25.727 7.96-8.843 58.71 6.376 111.7 14.79 175.24 18.968 137.52 9.045 205.48 23.097 317.22 21.907 91-.97 113.52-7.093 134.72-24.376 18.97-15.45-6.03-29.379-36.53-30.499-12.76-.469-41.01-2.162-49.28-3.469-8.27-1.308-55.75-9.812-55.75-15.375 0-6.254 5.38-9.42 17.15-10.594 4.09-.408 21.19-1.238 30.92-1.25zm639.17 3.75c24.18-.154 50.17 2.673 50.17 7.344 0 2.408-12.34 6.066-27.45 8.125-22.63 2.777-45.94 3.444-68.91 4.031-18.99.485-46.13 4.536-57.101 15.188-2.748 2.666-3.354 8.716-1.031 13.343C98.426-1.52 100.92-5.384 56.972-.991c-12.58.41-38.342-1.986-41.222-9.156 0-5.014 1.589-12.17 35.975-21.812 12.949-3.631 28.739-6.443 41.129-11.063 29.636-8.669 70.716-17.941 103.81-18.656zm-607.27.625c1.51-.013 3.03-.01 4.54 0 33.09.715 74.17 9.987 103.8 18.656 12.39 4.62 28.18 7.432 41.13 11.063 34.39 9.642 35.98 16.829 35.98 21.844-2.88 7.169-28.65 9.566-41.22 9.156-43.95-4.394-41.46-.53-35.37-12.656 2.32-4.628 1.72-10.677-1.03-13.344-10.98-10.651-38.11-14.734-57.1-15.22-22.98-.586-46.28-1.253-68.91-4.03-15.11-2.06-27.45-5.717-27.45-8.125 0-4.38 22.85-7.143 45.63-7.344zm460.65 8.219c7.803.012 9.707 1.019 4.122 2.219-55.208 18.604-100.12 40.403-161.81 39.651-56.99-.694-106.06-20.952-158.2-38.521-13.52-6.217 34.54-3.008 105.38 17.754 58.48 13.517 56.49 10.752 112.28-.625C-.926-45.21 35.145-52.858 50.041-52.834zm1117.9 1.437c29.6-.104 52.8 2.078 75 6.563 66.4 13.38 129 51.047 138 82.937 12.6 44.798-35.4 40.708-73.7-4.187-11.1-13.075-20.5-19.425-31-32.594-17.1-16.043-51.3-19.691-74.2-15.625-21 3.517-38.1 26.411-38 47.938.1 15.264 4.2 30.102 24.3 88.065 6.1 19.1 17.9 44.63 24.2 59 38.5 99.28 64.2 153.36 87.3 231.4 5.7 19.4 6.8 14.04-12.1 41.41-6.8 9.85-60.3 69.88-93.5 113.16-30.1 39.27-52 126.82-51.1 156.25v.03c-.1.32-.2.66-.2 1.03-.3 3.07-1.5 18.07-7.6-5.85-3.8-14.94-2.5-75.84 10.7-107.71 5.2-12.61 19.3-40.45 31.3-61.88 55.3-98.97 62.2-115.07 62.2-144.94 0-34.63-12.3-53.58-41-63.5-22.9-7.89-50.4-3.56-57.7 9.1-10.4 18.08-4.8 21.29 27.3 46 30.2 38.1 23.1 37.45 28.6 54.4-2.3 27.22-10.6 51.69-31.1 92.07-39 76.85-45 98.69-41.9 154.34 2.4 43.33-1.7 62.08 17.7 77.91 27.7 22.32 57.5 20.86 91.2 2.53 30.8-17.43-9.8-58.19-37.2-37.44-2.4 6.15-8.9 7.47-13.2-.06-13.5-23.28 37.6-46.92 81.7-37.88 36.6 7.48 53.1 32.73 49.9 75.81-5.5 82.03-92.1 127.26-192.1 166.79-50.2 17.31-40 17-289.84 8.78-86.27-2.84-209.91-5.13-274.78-5.1-117.73.06-330.79 9.97-389.31 18.13-17 2.37-64.59 14.69-74.013 8.5-15.491-10.17-1.106-7.62 48.953-12.88 48.91-5.14 92.95-8.45 143.29-14.53 37.85-5.32 67.22-19.2 67.22-31.72 0-5.9-5.33-8.74-13.58-8.68-9.36.06-22.44 3.85-35.56 11.21-18.92 10.63-81.9 23.49-104.55 28.91-22.86 5.47-41.17 7.45-65.53 9.97-20.71 3.68-41.925 4.69-46.239 4.72-9.952.07-18.049-20.89-12.554-32.44 4.252-8.94 25.953-9.13 30.733-1.41 2.65 4.29 11.47 6.61 17.52 5.1 14.57-3.66 13.43-13.36 4.73-17.91-29.533-15.41-84.199 8.87-84.086 38.6 2.445 11.43 5.069 13.28.234 14.81-38.039 13.62-97.702 16.3-123.85 5.84-17.948-6.03-2.378-22.91 5.685-27.43 4.469-.77 11.921-1.6 16.656-1.22 13.831 1.1 19.226-1.37 21.876-7.94 3.915-9.71-17.159-17.89-27.825-21.78-10.211-3.73-19.246-16.35-29.042-26.63l-12.368-10.84-20.61 17.72c-10.9 8.32-14.62 18.22-21.13 20.37-14.15 4.68-27.91 10.25-28.01 21.78 2.65 6.58 8.09 9.05 21.92 7.94 5.99-.48 12.03.23 17.43 1.44 7.79 5.78 18.12 20.95 4.87 27.22-26.15 10.45-85.81 7.78-123.85-5.85-4.84-1.52-2.21-3.38.23-14.81.12-29.72-54.55-53.98-84.08-38.56-8.7 4.54-9.85 14.25 4.73 17.9 6.04 1.52 14.87-.83 17.52-5.12 4.77-7.73 26.48-7.53 30.73 1.41 5.5 11.55-2.6 32.5-12.55 32.43-4.32-.03-25.53-1.04-46.24-4.72-24.36-2.52-42.67-4.46-65.53-9.93-22.66-5.43-85.63-18.32-104.56-28.94-13.11-7.36-26.2-11.16-35.55-11.22-8.25-.05-13.58 2.78-13.58 8.69 0 12.52 29.37 26.4 67.22 31.72 50.34 6.08 94.38 9.39 143.29 14.53 50.06 5.26 64.44 2.73 48.95 12.9-9.43 6.19-57.01-6.16-74.01-8.53-58.52-8.15-271.58-18.06-389.31-18.12-64.87-.04-188.51 2.25-274.75 5.09-249.9 8.23-239.7 8.53-289.9-8.78-100-39.52-186.6-84.75-192.1-166.78-3.2-43.09 13.4-68.33 49.9-75.81 44.2-9.05 95.2 14.59 81.8 37.87-4.4 7.53-10.9 6.22-13.2.06-27.5-20.75-68 20.01-37.3 37.44 33.7 18.33 63.5 19.79 91.2-2.53 19.4-15.83 15.3-34.57 17.7-77.91 3.1-55.64-2.8-77.48-41.9-154.34-20.5-40.38-28.8-64.85-31.1-92.06 5.5-16.95-1.5-16.31 28.6-54.41 32.1-24.71 37.7-27.91 27.3-46-7.2-12.65-34.8-16.99-57.7-9.09-28.7 9.91-41 28.87-41 63.5 0 29.86 7 45.96 62.2 144.94 12 21.42 26.1 49.27 31.3 61.87 13.3 31.87 14.5 92.77 10.7 107.72-6.1 23.92-7.3 8.92-7.5 5.84-.1-.37-.2-.71-.3-1.03v-.03c.9-29.43-20.9-116.97-51.1-156.25-33.2-43.27-86.7-103.3-93.5-113.16-18.9-27.36-17.8-22-12-41.4 23-78.05 48.8-132.13 87.3-231.41 6.2-14.37 18-39.9 24.1-59 20.1-57.958 24.2-72.796 24.3-88.06.1-21.527-17-44.421-38-47.938-22.9-4.066-57.1-.418-74.2 15.625-10.5 13.169-19.9 19.519-31 32.594-38.2 44.895-86.3 48.985-73.7 4.187 9-31.89 71.6-69.557 138-82.937 44.5-8.97 92.5-8.79 189.4.656 45.3 3.555 80.7 1.527 141.6 15.781 24.1 7.646 30.6 6.224 93.2 16.938 315.35 37.685 366.8 43.624 520.45 44.656 106.63.716 157.74-9.95 188.73-23.938 17.98-6.691 15.42-10.394 36.07-7.062 15.41 4.318 28.01 6.667 55.7 3.969 12.21-1.19 26.22-8.719 26-18.406 15.32 4.813 34.3 14.094 56.76 18.232 23.97 5.89 62.831 5.915 82.099 1.191C-39.641 3.85-23.542-7.445-8.18-12.272-8.405-2.586 5.604 4.942 17.818 6.132c27.686 2.7 40.288.382 55.696-3.937 20.657-3.332 18.091.371 36.066 7.063 31 13.988 82.1 24.654 188.73 23.938 153.65-1.033 205.11-6.972 520.48-44.657 62.6-10.714 69.05-9.292 93.17-16.938 60.87-14.254 96.38-12.226 141.58-15.781 48.5-4.723 84.7-7.114 114.4-7.22zm31.7 9.313c-8.4-.016-17.6.058-28.3.094-25.5.086-51.1 1.283-68.2 3.812-39.9 5.889-63.4 10.112-152.16 27.469-111.54 21.817-125.81 26.89-122.26 43.406 4.41 20.57 51.29 14.361 190.92-25.25 155.9-44.218 199.6-49.63 240-29.75 38.5 17.838 48.2 40.969 69.7 65.031 19.4 20.885 46.7 21.999 46.7 1.219 0-16.854-38.1-46.613-76.7-64.312-21-8.204-16.2-6.679-40.7-15.407-17.5-5.368-34-6.265-59-6.312m-2608.8.625c-25 .047-41.4.944-59 6.312-24.5 8.728-19.6 7.203-40.6 15.407-38.7 17.699-76.8 47.458-76.8 64.312 0 20.78 27.3 19.666 46.7-1.219 21.6-24.062 31.2-47.193 69.7-65.031 40.4-19.88 84.1-14.468 240 29.75 139.7 39.611 186.5 45.82 191 25.25 3.5-16.516-10.8-21.589-122.3-43.406-88.7-17.357-112.2-21.58-152.2-27.469-17.1-2.529-42.7-3.726-68.2-3.812-10.6-.036-19.9-.11-28.3-.094m2573.6 5.375c8.7.119 5.4 2.114-23.6 6-6.9.924-47 9.716-69.7 14.531-22.6 4.815-76.22 17.171-119.04 27.469-42.82 10.297-81.31 18.75-85.53 18.75-21.05 0 16-10.144 125.63-34.344 101.14-22.329 122.54-27.333 136.34-29.312 15-2.148 29.1-3.187 35.9-3.094m-2538.3.625c6.8-.093 20.8.946 35.8 3.094 13.8 1.979 35.2 6.983 136.4 29.312 109.6 24.2 146.6 34.344 125.6 34.344-4.2 0-42.7-8.453-85.5-18.75-42.9-10.298-96.4-22.654-119.1-27.469s-62.8-13.607-69.7-14.531c-28.9-3.886-32.3-5.881-23.5-6m2643.3 8.062c3.8.03 19.1 5.889 29.1 12.594 33.8 22.52 58.4 47.895 57.8 54.656-1.3 12.321-15.2-5.253-30.6-20.343-13-16.317-33.7-27.474-50.6-41.438-6.6-3.899-7.7-5.484-5.7-5.469M.64-27.365c2.181-.108-4.574 5.399-19.3 13.343-37.891 20.443-119.96 23.667-172.15.625-27.92-12.325-29.35-18.827 5.01-3.437C-135.07.999-73.88 2.385-23.68-17.459-8.643-24.192-1.06-27.282.637-27.365zm-1479.5.593c2-.015.8 1.57-5.8 5.469-16.9 13.964-37.6 25.121-50.6 41.438-15.4 15.09-29.3 32.664-30.5 20.343-.7-6.761 24-32.136 57.7-54.656 10.1-6.705 25.3-12.564 29.2-12.594m2713.1 23.25c12.2.006 22.2 2.101 32 8.625 21.5 15.738 18.7 19.408-3.1 6.969-27.2-11.95-40.5-11.203-57.5 3.156-18.4 15.65-18.6 49.77-.5 102.5 15.2 44.34 17.1 61.55 3.7 34.37-8.2-14.6-11.1-30.27-16.6-45.43-12.2-32.467-11.2-83.262 2-96.692 7.9-8.044 24.3-13.507 40-13.5zm-2678 .625c15.7-.007 32.1 5.456 40 13.5 13.2 13.43 14.3 64.225 2 96.687-5.5 15.17-8.4 30.83-16.5 45.44-13.5 27.17-11.6 9.96 3.6-34.38 18.1-52.726 18-86.847-.5-102.5-16.9-14.356-30.3-15.102-57.5-3.153-21.8 12.439-24.5 8.769-3.1-6.969 9.9-6.524 19.8-8.619 32-8.625zm2841.1 46.688c1.6-.177 4.4 3.753 8.4 13.719 5.8 13.454 2.8 34.223-12.1 38.312-25.5 5.708-53.9-10.601-64.8-25.062-10.2-11.83.6-6.434 16.5 5.312 9.1 6.768 27.4 12.763 37.2 11.844 13.1-1.239 12.2-8 15.1-22.906-2.3-11.914-2.5-20.961-.3-21.219m-3004.6.625c.2-.022.3-.011.4 0 2.3.258 2 9.305-.3 21.219 2.9 14.906 2.1 21.667 15.2 22.906 9.7.919 28-5.076 37.2-11.844 15.9-11.746 26.6-17.142 16.5-5.312-11 14.461-39.4 30.765-64.8 25.062-15-4.089-17.9-24.858-12.2-38.312 3.8-9.343 6.4-13.397 8-13.719m2931.4 151.21c16.3 0 36.8 20.62 46 46.13 4.6 12.71 6.8 24.12 5 25.34s-6.9-7.09-11.1-18.47c-4.3-11.37-17.4-27.95-29.1-36.84-15-11.39-18.2-16.16-10.8-16.16m-2857.8.63c7.4 0 4.2 4.77-10.8 16.16-11.7 8.88-24.7 25.46-29 36.84-4.3 11.37-9.3 19.69-11.2 18.47-1.8-1.22.5-12.64 5-25.35 9.2-25.51 29.7-46.12 46-46.12m2702.2 161.87c3.3-.1 8.6.64 16.4 2.63 24.4 8.72 40.8 32.12 40.1 57.16-.3 12.6-3.3 28.07-6.6 34.37-4.4 8.31-5.1 5.54-2.4-10.09 5.2-31.11-4.5-59.24-33.1-68.16-13.8-4.32-26.4-15.54-14.4-15.91m-2547.9.63c.5-.01.9-.01 1.4 0 12 .37-.7 11.58-14.5 15.91-28.6 8.92-38.3 37.05-33 68.15 2.6 15.64 1.9 18.41-2.4 10.1-3.3-6.31-6.3-21.78-6.7-34.38-.7-25.03 15.7-48.43 40.2-57.16 6.7-1.74 11.6-2.52 15-2.62m2766.3 66.66c15.7-.35 5.9 53.86-3.4 78.78-4.5 12.09-9.8 18.47-13.1 19.83s-1.9-1.27 4.1-10.8c7.8-12.5 9.9-26.63 7.6-50.6-1.7-18.28-5.2-28.24-2.4-34.31 2.7-1.87 5.1-2.8 7.2-2.9m-2983.4.62c1-1.31 5.3-2.44 7.2 2.91 2.8 6.03 4.3 10.73.6 35.32-3.5 23.9-3.2 37.09 4.6 49.58 6 9.54 8.2 16.2 4.9 14.85-3.3-1.36-7.9-12.09-13.9-23.88-9.6-24.99-20.7-55.89-3.4-78.78m2905.3 14.16c1.6-.38.9 5.57 2.1 8.84 13.6 36.86 5.5 26.66 18 75.78 6.9 27.06 13.2 19.48-65.8 78.53-63.3 47.36-86.9 73.73-96 102.6-5.3 16.7-16.4 39.31-13.3 15.09 5.5-57.97 25.6-115.87 65.4-167.06 50.1-64.58 76.4-94.2 87-110.97 1.2-1.86 2-2.69 2.6-2.81m-2827.3.62c.5-.05 1.4.75 2.7 2.85 10.6 16.77 36.9 46.36 87.1 110.93 39.8 51.2 59.8 109.09 65.4 167.07 3 24.22-8.1 1.6-13.3-15.1-9.2-28.87-32.8-55.23-96.1-102.59-79-59.05-72.7-51.48-65.8-78.53 12.5-49.13 4.5-38.93 18-75.78 1.2-3.14.6-8.72 2-8.85m2857.3 120 5.4 15.63c19.2 55.81 34 124.39 37.4 173.75 3.4 49.66 2 62.06-10.8 93.06-9.1 22.23-21.5 41.71-36.8 58.12-22.2 23.96-50.5 41.37-83.7 51.1-26.7 7.82-51 10.6-103.6 11.75l-68.7 1.5c-39.4 2.21 26.3-8.94 39.5-13.41 4.6-1.58 9.3-3.23 14-4.97 0-.01 0-.02.1-.03 70.6-26.2 141.4-68.76 166.1-100.62 38-54.11 53.9-148.64-53-156.07-25 0-57.3 13.14-64.3 24.25-11.2 17.82-21.3 24.4-12.1 6.69 3.5-6.63 19.4-39.07 47.4-65.31 16.2-15.12 50.5-42.79 76.3-61.47zm-2887.2.63 46.9 33.97c25.7 18.68 60 46.34 76.2 61.46 28.1 26.24 43.9 58.68 47.4 65.32 9.3 17.7-.9 11.12-12.1-6.69-7-11.12-39.3-24.25-64.3-24.25-106.9 7.43-91 101.95-52.9 156.06 24.7 31.87 95.4 74.43 166.1 100.63 0 .01 0 .02.1.03 4.6 1.73 9.3 3.38 14 4.97 13.1 4.47 78.9 15.62 39.4 13.4l-68.7-1.5c-52.5-1.14-76.9-3.92-103.6-11.75-33.2-9.73-61.4-27.13-83.7-51.09-15.2-16.41-27.7-35.9-36.8-58.13-12.8-31-14.2-43.39-10.8-93.06 3.4-49.36 18.2-117.94 37.4-173.75zm2951 245.12c.7-.09 1.5.71 2.5 2.63 3.8 28.01 2 54.69-4.2 72.18-12.1 33.54-17.9 48.72-51.1 63.91-36.7 16.79-98.4 28.18-161.9 26.22-137-4.22 1.1-3.06 54.9-7.69 17.3-1.48 58.2-10.64 82.6-22.84 25.3-13.84 35.5-28 46.3-48.13 9.9-18.51 21-43.56 27.2-66.65 1.2-11.01 1.7-19.36 3.7-19.63m-3015 .63c2.2-.44 2.7 8.16 3.9 19.62 6.2 23.1 17.3 48.15 27.2 66.66 10.9 20.12 21.1 34.32 46.3 48.15 24.4 12.2 65.3 21.36 82.6 22.85 53.8 4.62 191.9 3.46 54.9 7.69-63.5 1.95-125.2-9.47-161.9-26.25-33.2-15.2-39-30.37-51-63.91-6.3-17.5-8.1-44.18-4.3-72.19.9-1.67 1.7-2.5 2.3-2.62m1507.8 87.25c7.534 3.1 12.573 11.88 17.18 16.66 11.943 12.39 13.374 10.52 26.213 13.47 13.828 3.17 24.227 17.44 2.561 12.73-4.674-1.02-15.688-.22-27.302 3.65-10.11 3.36-14.382 6.45-19.842 6.2-6.01.52-11.55-3.37-17.42-5.33-9.19-4.25-17.83-6.39-26.92-4.4-24.08 5.25-9.01-12.41 7.58-13.46 12.74-.81 15.68-9.31 19.68-14.51 5.53-7.19 14.98-15.01 18.27-15.01m437.98 21.06c4.17-.05 6.14 1.47 6.14 4.53 0 2.66-13.25 8.74-29.47 13.53s-43.36 9.52-60.15 11.13c-31.8 3.04-48.32 4.85-3.13-2.78 15.22-2.58 39.02-10.06 53.12-15.97 16.54-6.95 27.39-10.37 33.49-10.44m-876.29.62c6.1.08 16.95 3.5 33.49 10.44 14.1 5.92 37.89 13.4 53.12 15.97 45.18 7.64 28.67 5.83-3.14 2.78-16.78-1.61-43.92-6.34-60.14-11.12-16.22-4.79-29.47-10.87-29.47-13.53 0-3.07 1.96-4.58 6.14-4.54m606.71 18.13c1.977-.2 2.824 2.95.749 11.78-2.368 10.08.112 16.77 7.964 27.16 11.396 15.07 4.42 18.86-4.825 23.34-28.099 13.66-57.939 23.86-7.823-7.47 11.294-7.06-7.092-28.03-7.354-33.72-.378-8.2 7.513-20.71 11.289-21.09m-337.51.66c.12-.02.26-.02.38 0 3.77.38 11.71 12.89 11.34 21.09-.27 5.69-19.17 27-7.41 33.72 49.62 28.37 19.13 20.67-7.82 7.44-9.21-4.51-16.22-8.27-4.82-23.35 7.85-10.39 10.33-17.08 7.96-27.15-1.95-8.28-1.34-11.54.37-11.75m768.32 22c119.44-.04 353.17.03 360.18.03 9.34 0 18.68.25 25.76.75 14.17.99 2.49.35-25.76 1.78-32.52 1.65-935.38 8.06-428.9-2.5 1.78-.04 28.91-.05 68.72-.06m-1421 .62c74.24-.01 162.56-.01 222.27 0 39.82.01 66.94.03 68.72.06 506.49 10.57-396.35 4.15-428.85 2.5-28.3-1.43-40-.79-25.8-1.78 7.1-.49 16.4-.75 25.8-.75 3.5 0 63.6-.02 137.86-.03m1941.9 3.84c34 .03 73 .72-25.78 6.5-16.18.95 4.23 8.35-326.31 6.07-168.7-.43-359.27.52-423.5 2.12-134.25 4.44-147.27 4.71-67.5-2.84 35.82-3.39 151.57-5.69 418.54-5.53 123.89 5.71 271.14-4.13 373.71-6.1 7.95-.09 15.9-.21 23.84-.18 4.91.02 15.7-.04 27-.04m-2240.6.63c11.4-.01 22.1.05 27 .03 8-.02 15.9.1 23.9.19 102.5 1.96 249.79 11.81 373.68 6.09 266.97-.15 382.72 2.14 418.54 5.53 79.77 7.56 66.75 7.28-67.5 2.85-64.23-1.6-254.8-2.55-423.51-2.13-330.51 2.28-310.11-5.11-326.31-6.06-98.8-5.78-59.7-6.48-25.8-6.5m1274.9 10.47c7.509-.03-19.29 14.86-68.532 19.09-22.59.83-36.848.09-55.274-3.03-7.358-2.19-13.22-4.83-17.613-7.72-8.402-6.66 2.764-1.69 8.33-.21 30.927 13.91 97.598 5.44 113.7-2.19 10.568-4.28 16.885-5.93 19.389-5.94m-309.21.62c2.5.01 8.82 1.7 19.39 5.97 14.4 6.83 68.73 13.53 102.17 4.91 6.23-.13 38.205-12.26 16.08.12-3.35 1.87-10.13 4.43-13.84 5.07-18.42 3.11-32.68 3.86-55.27 3.03-49.24-4.23-76.04-19.13-68.53-19.1m812.72 6.63c17.02-.03 319.45.99 320.97.97 89.42-1.18-55.84 9.94-253 8.75-167.57-1.02-351.87-5.46-353.38-7.1-1.63-1.76 212.6-1.36 249.02-2.15 13.65-.3 26.18-.45 36.39-.47m-1316.2.62c10.22.02 22.75.17 36.4.47 36.41.8 250.65.4 249.02 2.16-1.51 1.63-185.81 6.11-353.39 7.12-197.12 1.2-342.42-9.92-253.02-8.75 1.6.02 303.97-1.03 320.99-1m659.26 3.19c3.38 1.64 8.584 3.56 13.924 5.66 21.727 8.55 33.023 13.6 81.038 7.18 54.553-7.29 71.138-15.82 42.861.94-17.226 10.18-67.83 12.78-111.05 2.88-13.616-3.16-18.878-6.24-26.783-9.82-9.72 4.09-11.75 6.8-29.03 10.32-42.52 8.5-94.55 7-111.06-2.75-28.27-16.77-11.69-8.23 42.87-.94 48.01 6.39 59.31 1.36 81.03-7.19 5-2.3 10.08-4.5 16.2-6.28" style="fill:#194a70" transform="translate(1632.5 71.804)"/><path d="M48.032 622.32c-5.383 3.46-9.225 5.9-12.636 7.79-53.623 21.45-70.092 61.17-77.997 105.09-.149 114.79 91.707 134.08 146.46 126.65 55.24-13.87 78.53-48.01 92.3-88.18 5.64-18.99 3.19-33.86 3.64-50.2 2.72-8.31.67-9.37-.33-12.02 11.4-4.86 21.42-12.1 31.05-20.03 17.28-19.39 14.52-32.18 12.97-44.78-6.34-51.53-129.23-100.04-149.06-93.3-9.946 3.38-22.978 12.48-31.422 26.58-5.011 12.56-5.39 25.67-7.123 38.61-4.758-.14-6.357 1.79-7.853 3.79zm46.524-37.05c-1.881 2.46-4.419 4.49-5.09 7.75-3.643 8.14-4.099 14.43-4.753 20.84 8.326 3.23 12.657 6.3 16.397 9.35 44.05 9.2 61.44 30.66 78.8 52.13 3.31 2.42 6.81 5.79 10.34 9.3 3.63-1.74 7.85-3.89 14.96-8.06 3.51-4.38 6.83-8.02 11.58-17.08-2.8-11.6-6.08-23.31-35.52-41.22-12.94-7.95-23.85-15.66-41.71-24.19-15.07-4.62-30.42-16.57-45.004-8.82" style="fill-rule:evenodd;fill:#194a70" transform="translate(1632.5 71.804)"/><path d="M-359.96 639.97c62.56 27.89 124.82 56 190.48 81.62 31.31-28.48 63.76-53.62 116.73-18.75 50.408 42.37 40.685 79.81 30.917 117.24-23.891 43.15-55.534 48.14-88.077 48.72-61.83.34-80.17-58.74-79.13-86.93-3.3-5.3-4.02-10.33-2.8-15.14-62.43-25.51-125.05-52.66-187.75-80.62-18.82 34.22-56.99 42.83-68.37 38.33-71.47-8.81-79.23-51.06-78.85-87.7 14.83-67.48 61.28-95.61 106.02-78.28 56.66 17.66 54.82 57.22 60.83 81.51M-986.13 201.19c0-6.14-3.6-11.2-10.8-15.2-7.17-4.27-15.77-7.6-25.57-10-9.6-2.4-19.5-4.14-29.6-5.2-10.2-1.07-18-1.6-23.6-1.6q-38.4 0-67.2 14.4c-19.2 9.33-35.2 21.6-48 36.8-12.6 14.93-22 31.6-28.4 50-6.2 18.4-9.2 36.53-9.2 54.4 0 15.73 2.4 31.46 7.2 47.2 4.8 15.46 11.7 29.46 20.8 42 9.3 12.26 20.4 22.26 33.2 30 13 7.46 27.8 11.2 44.4 11.2 8 0 14.6-.27 20-.8q7.95-.405 14.4-1.2c4.5-.54 8.9-1.07 13.2-1.6 4.5-.27 9.8-.4 16-.4 8.5 0 16.5.66 24 2 7.4 1.33 14.8 2 22 2q6 0 12-1.2c4.24-.8 7.97-2 11.17-3.6s5.74-3.47 7.6-5.6c2.14-2.14 3.2-4.54 3.2-7.2 0-6.4-5.86-12.67-17.6-18.8v-69.6c0-4 1.34-8.14 4-12.4 2.94-4.27 6.67-8.4 11.2-12.4 3.74-2.94 6.67-6 8.8-9.2q3.6-5.205 3.6-8.4c0-1.87-1.33-3.34-4-4.4-2.66-1.07-7.06-1.6-13.2-1.6q-6 0-10.8 1.2c-3.17.53-6.27 1.2-9.17 2-3 .8-6 1.6-9.2 2.4-3 .53-6.3.8-10 .8-7.8 0-14.6-1.07-20.4-3.2-5.6-2.14-12.2-3.2-19.6-3.2-6.2 0-10.6.53-13.2 1.6-2.4.8-3.6 2.13-3.6 4 0 2.13 1.4 4.93 4.4 8.4 2.9 3.46 6.6 6.93 11.2 10.4 4 2.93 7.4 6.53 10.4 10.8 2.9 4 4.4 7.6 4.4 10.8v46.8q-6.9 3.6-16.8 6c-6.4 1.6-13.8 2.4-22 2.4-14.2 0-27.1-2.54-38.8-7.6-11.8-5.07-21.9-12.27-30.4-21.6-8.3-9.34-14.7-20.67-19.2-34-4.6-13.34-6.8-28.27-6.8-44.8q0-22.005 7.2-40.8 7.2-18.81 20.4-32.4c9-9.07 19.8-16.14 32.4-21.2 12.5-5.07 26.5-7.6 42-7.6 16.5 0 28.4 2.13 35.6 6.4 7.4 4.26 11.2 8.13 11.2 11.6 0 7.2-9.4 16.66-28 28.4-9.6 6.13-20.4 12.66-32.4 19.6-11.8 6.93-25.2 16-40.4 27.2-4.6 3.2-7.8 6.66-9.6 10.4-1.6 3.73-2.4 8-2.4 12.8 0 3.73.6 7.2 2 10.4 1.3 2.93 3 5.46 5.2 7.6 2.1 2.13 4.4 3.86 6.8 5.2 2.6 1.33 5.2 2 7.6 2 5 0 8.6-1.34 10.8-4 2.1-2.94 3.2-6.27 3.2-10 0-2.94-.7-5.34-2-7.2-1.4-2.14-3-4-4.8-5.6-1.6-1.34-3.2-2.67-4.8-4-1.4-1.34-2-2.8-2-4.4 0-2.4 2.2-5.07 6.8-8 12-8 22.2-14.14 30.8-18.4 8.5-4.27 16.6-8 24.4-11.2 7.7-3.2 15.7-6.67 24-10.4 8.2-3.74 18-8.94 29.2-15.6 9.3-5.6 16.11-11.07 20.37-16.4 4.27-5.34 6.4-11.07 6.4-17.2m30.03 72.4q0 3.6 4.8 7.2c3.74 2.93 7.74 5.86 12 8.8 4.27 2.66 7.74 6.66 10.4 12 12.8 26.66 25.07 51.06 36.8 73.2 12 21.86 23.2 42.8 33.6 62.8v46.8c-2.93-2.4-6.53-5.07-10.8-8-4.26-2.94-9.6-4.4-16-4.4-9.86 0-17.6 2.66-23.2 8q-8.4 8.4-8.4 18c0 .53.14.8.4.8.54 0 1.2-.4 2-1.2 2.67-2.67 6.67-4 12-4 5.34 0 9.6.66 12.8 2 3.2 1.33 5.87 2.93 8 4.8 2.14 2.13 3.87 4.4 5.2 6.8 1.6 2.66 3.2 5.2 4.8 7.6 2.94 5.06 6.67 9.6 11.2 13.6 4.54 4 11.47 6 20.8 6 8.54 0 15.47-2.67 20.8-8 5.6-5.34 8.4-12.27 8.4-20.8v-68.8c15.2-22.67 26.94-42 35.2-58 8.54-16 14.94-29.34 19.2-40 4.27-10.94 6.8-19.6 7.6-26 1.07-6.67 1.6-12 1.6-16 0-7.74-1.6-14.27-4.8-19.6-2.93-5.6-7.86-8.4-14.8-8.4h-64.8q-7.59 0-12 4.8c-2.66 3.2-4 6.93-4 11.2 0 2.93.8 6 2.4 9.2 1.6 2.93 4.27 5.46 8 7.6 2.14 1.33 4 3.2 5.6 5.6 1.87 2.4 2.8 4.8 2.8 7.2q0 2.4-1.2 3.6c-.53.53-.8.93-.8 1.2 0 .53.54.8 1.6.8 4 0 7.2-1.74 9.6-5.2 2.4-3.74 3.6-7.47 3.6-11.2 0-2.4-.93-5.2-2.8-8.4-.53-1.07-1.06-2-1.6-2.8-.53-.8-.8-1.74-.8-2.8 0-2.14 1.34-3.2 4-3.2h30.4c4.54 0 7.6 2 9.2 6s2.4 8.66 2.4 14c0 5.33-.8 12-2.4 20s-4 16.8-7.2 26.4c-3.2 9.33-7.33 18.93-12.4 28.8-4.8 9.86-10.4 19.2-16.8 28-.8 1.33-2.13 2-4 2-1.86 0-3.46-.67-4.8-2q-8.79-10.41-16.8-22.8-7.59-12.405-14.4-25.2c-4.26-8.8-8.26-17.47-12-26-3.73-8.54-7.06-16.4-10-23.6-1.33-3.2-2.4-5.87-3.2-8-.53-2.14-.8-3.6-.8-4.4 0-3.74 1.47-7.07 4.4-10q4.8-4.41 12-9.6c2.67-1.87 4-4 4-6.4 0-3.2-2.66-4.8-8-4.8h-81.6q-7.2 0-7.2 4.8m424.59 135.2v-86c8.8-8.27 17.33-14 25.6-17.2 8.53-3.2 15.86-4.8 22-4.8 5.33 0 9.6 1.2 12.8 3.6 3.46 2.4 5.2 5.73 5.2 10v95.2c0 4.53-.67 8-2 10.4-1.07 2.13-2.54 4-4.4 5.6-1.87 1.6-3.87 3.06-6 4.4-2.14 1.33-4.14 3.06-6 5.2-4.27 4.53-6.4 8.66-6.4 12.4 0 2.93 1.46 4.93 4.4 6 2.93 1.06 7.06 1.6 12.4 1.6 3.46 0 6.26-.27 8.4-.8 2.13-.27 4.4-.67 6.8-1.2 2.4-.54 5.06-1.07 8-1.6 2.93-.27 6.93-.4 12-.4 5.6 0 10 .13 13.2.4 3.2.53 6 1.06 8.4 1.6 2.4.53 4.66.93 6.8 1.2 2.4.53 5.46.8 9.2.8 9.86 0 14.79-2.27 14.8-6.8-.01-4-3.07-8.94-9.2-14.8-2.14-1.87-4.27-3.34-6.4-4.4-2.14-1.34-4.14-2.8-6-4.4-1.6-1.6-3.07-3.6-4.4-6-1.07-2.4-1.6-5.74-1.6-10v-90.8c0-5.87-1.2-11.74-3.6-17.6-2.14-5.87-5.74-11.2-10.8-16-5.07-4.8-11.47-8.67-19.2-11.6q-11.61-4.8-27.6-4.8c-6.94 0-13.34 1.06-19.2 3.2-5.87 2.13-11.2 5.06-16 8.8-4.8 3.46-9.07 7.46-12.8 12-3.74 4.53-6.94 9.06-9.6 13.6-1.6-3.74-3.47-7.74-5.6-12-2.14-4.54-5.34-8.67-9.6-12.4-4-3.74-9.6-6.8-16.8-9.2-7.2-2.67-16.54-4-28-4-6.4 0-12.54 1.33-18.4 4-5.87 2.66-11.34 5.86-16.4 9.6-4.8 3.73-9.07 7.86-12.8 12.4-3.74 4.26-6.8 8-9.2 11.2v-6.8c0-4 .26-7.07.8-9.2.8-2.4 1.73-4.27 2.8-5.6 1.33-1.6 2.93-2.94 4.8-4 1.86-1.07 4.13-2.27 6.8-3.6 4.8-2.4 7.2-4.67 7.2-6.8 0-2.4-4.14-3.6-12.4-3.6-3.2 0-6.14.26-8.8.8-2.67.26-5.34.66-8 1.2-2.67.53-5.6 1.06-8.8 1.6-3.2.26-7.07.4-11.6.4-4 0-7.47-.14-10.4-.4-2.94-.54-5.6-1.07-8-1.6-2.4-.54-4.94-.94-7.6-1.2-2.67-.54-5.74-.8-9.2-.8-3.47 0-6.4.53-8.8 1.6-2.14.8-3.2 2.13-3.2 4 0 2.13 2.13 4.53 6.4 7.2 2.93 1.86 5.46 3.46 7.6 4.8q3.195 1.995 4.8 4.8c1.33 1.86 2.26 4.13 2.8 6.8.53 2.4.8 5.73.8 10v104.8c0 4.53-.54 8-1.6 10.4-1.07 2.4-2.4 4.4-4 6s-3.6 3.06-6 4.4c-2.14 1.33-4.4 2.93-6.8 4.8-5.07 4.26-7.6 8.26-7.6 12 0 2.93 1.33 4.93 4 6 2.66 1.33 6.26 2 10.8 2 4 0 7.33-.27 10-.8 2.66-.27 5.2-.67 7.6-1.2 2.66-.54 5.33-1.07 8-1.6 2.93-.27 6.53-.4 10.8-.4 5.33 0 9.46.13 12.4.4 3.2.53 5.86 1.06 8 1.6 2.4.53 4.53.93 6.4 1.2 2.13.53 4.8.8 8 .8 6.13 0 10.93-.67 14.4-2 3.73-1.34 5.6-3.47 5.6-6.4q0-5.205-9.6-13.2c-2.4-1.87-4.8-3.34-7.2-4.4-2.14-1.34-4-2.67-5.6-4-1.6-1.34-2.94-3.2-4-5.6-1.07-2.4-1.6-5.74-1.6-10v-88c8.26-7.2 16.53-12.4 24.8-15.6q12.39-4.8 21.6-4.8 9.195 0 14.4 3.6c3.46 2.13 5.2 5.33 5.2 9.6v95.2c0 4.53-.54 8-1.6 10.4-1.07 2.13-2.54 4-4.4 5.6-1.6 1.6-3.47 3.06-5.6 4.4-2.14 1.33-4.4 3.06-6.8 5.2-5.07 4.8-7.6 8.93-7.6 12.4 0 5.06 5.33 7.6 16 7.6 3.46 0 6.4-.27 8.8-.8q3.6-.405 7.2-1.2c2.4-.54 5.06-1.07 8-1.6 2.93-.27 6.8-.4 11.6-.4 4.53 0 8.26.13 11.2.4 3.2.53 6.13 1.06 8.8 1.6 2.93.53 5.86.93 8.8 1.2 2.93.53 6.53.8 10.8.8 4.53 0 8.13-.67 10.8-2 2.93-1.07 4.4-2.94 4.4-5.6 0-3.74-3.34-8.4-10-14-2.4-1.87-4.8-3.34-7.2-4.4-2.14-1.34-4-2.8-5.6-4.4s-2.94-3.6-4-6c-1.07-2.4-1.6-5.74-1.6-10m380.9 24.8c-2.14-1.6-4.14-2.94-6-4q-2.805-1.605-4.8-3.6c-1.34-1.6-2.4-3.6-3.2-6-.8-2.67-1.2-6.14-1.2-10.4v-91.6c0-6.4-1.2-12.54-3.6-18.4-2.4-6.14-5.87-11.47-10.4-16-4.27-4.8-9.47-8.54-15.6-11.2-6.14-2.67-13.07-4-20.8-4-5.87 0-11.47 1.73-16.8 5.2l-50.8 31.6v-9.2c0-6.14.93-10.14 2.8-12 1.86-2.14 4.66-3.87 8.4-5.2 5.06-1.6 7.6-4 7.6-7.2 0-1.6-1.2-2.94-3.6-4-2.14-1.34-5.6-2-10.4-2-2.94 0-5.74.26-8.4.8-2.4.26-4.94.66-7.6 1.2-2.4.53-5.07 1.06-8 1.6-2.94.26-6.14.4-9.6.4-3.74 0-6.94-.14-9.6-.4-2.4-.54-4.8-1.07-7.2-1.6-2.4-.54-4.94-.94-7.6-1.2-2.67-.54-5.87-.8-9.6-.8-8.27 0-12.4 2.13-12.4 6.4q0 3.6 4.8 7.2c3.2 2.13 5.86 4.13 8 6 2.4 1.6 4.4 3.33 6 5.2 1.6 1.6 2.66 3.6 3.2 6q1.2 3.195 1.2 8.4v104.8c0 4.53-.27 8-.8 10.4q-.81 3.6-2.4 6c-1.07 1.6-2.54 3.06-4.4 4.4-1.87 1.33-4 2.93-6.4 4.8-5.87 4.26-8.8 8.4-8.8 12.4 0 2.66 1.2 4.53 3.6 5.6 2.66 1.33 6 2 10 2 6.13 0 11.6-.67 16.4-2 4.8-1.34 11.06-2 18.8-2 4 0 7.46.13 10.4.4 2.93.53 5.6 1.06 8 1.6 2.66.53 5.33.93 8 1.2 2.66.53 5.73.8 9.2.8 10.66 0 16-2.67 16-8 0-4.27-3.6-8.8-10.8-13.6-2.4-1.6-4.54-2.94-6.4-4-1.87-1.07-3.47-2.4-4.8-4-1.07-1.6-2-3.6-2.8-6-.54-2.4-.8-5.74-.8-10v-88c7.73-6.67 15.46-11.74 23.2-15.2 7.73-3.47 15.06-5.2 22-5.2 6.13 0 11.06 1.46 14.8 4.4 4 2.93 6 7.46 6 13.6v90.4q0 6.795-1.2 10.8c-.54 2.4-1.47 4.53-2.8 6.4-1.07 1.6-2.4 3.06-4 4.4-1.6 1.06-3.47 2.4-5.6 4-4.54 3.2-6.8 6.93-6.8 11.2 0 2.66 1.2 4.8 3.6 6.4q3.99 2.4 13.2 2.4c2.93 0 5.46-.27 7.6-.8 2.4-.27 4.66-.67 6.8-1.2 2.4-.54 4.93-1.07 7.6-1.6 2.66-.27 6-.4 10-.4 3.46 0 6.4.13 8.8.4 2.4.53 4.66 1.06 6.8 1.6 2.13.53 4.4.93 6.8 1.2 2.4.53 5.46.8 9.2.8q16.8 0 16.8-8.4 0-6.405-9.6-13.2m186.53 21.6q13.199 0 20.8-1.2c5.066-.8 8.933-1.87 11.6-3.2 2.666-1.34 4.399-2.8 5.2-4.4.799-1.6 1.199-3.34 1.2-5.2-.001-3.2-2.534-6.94-7.6-11.2-5.067-4.27-10.667-8.54-16.8-12.8v-118.8q-.001-16.8-10-25.2t-26.4-8.4c-4.534 0-8.534.26-12 .8-3.467.53-6.934 1.06-10.4 1.6-3.201.53-6.667 1.06-10.4 1.6-3.467.53-7.601.8-12.4.8-5.867 0-11.067-.27-15.6-.8-4.534-.54-8.8-1.07-12.8-1.6-3.734-.54-7.334-1.07-10.8-1.6-3.2-.54-6.667-.8-10.4-.8-9.067 0-15.867 2.93-20.397 8.8-4.27 5.6-6.4 11.86-6.4 18.8 0 3.2.4 6.53 1.2 10 1.06 3.2 2.8 6.26 5.2 9.2 2.663 2.66 6.13 4.93 10.397 6.8q6.399 2.4 16.8 2.4 8 0 16.4-1.2 8.8-1.2 13.6-1.2c2.4 0 3.6 1.06 3.6 3.2 0 1.33-.667 2.4-2 3.2q-10.401 5.595-22.8 12-12.4 6-23.2 14.4-10.799 7.995-17.997 19.2c-4.8 7.2-7.2 15.73-7.2 25.6 0 8 1.33 15.6 4 22.8 2.93 6.93 6.93 13.2 11.997 18.8 5.066 5.33 11.066 9.6 18 12.8q10.4 4.8 22.8 4.8c5.333 0 9.733-.27 13.2-.8q5.6-.405 10-1.2c3.2-.54 6.133-1.07 8.8-1.6 2.933-.27 6.133-.4 9.6-.4 12.266 0 22.4.66 30.4 2 8.266 1.33 15.199 2 20.8 2m-40-156v101.6c0 3.73-2.8 6.8-8.4 9.2q-8 3.6-17.2 3.6c-4.534 0-9.067-.67-13.6-2-4.267-1.34-8.134-3.2-11.6-5.6q-5.2-4.005-8.4-9.6c-1.867-3.74-2.8-8-2.8-12.8 0-7.2 1.466-13.34 4.4-18.4 3.2-5.34 6.933-9.87 11.2-13.6 4.533-4 9.066-7.47 13.6-10.4q6.8-4.41 11.2-8.4c3.466-2.94 5.866-5.87 7.2-8.8 1.333-3.2 2-6.27 2-9.2q0-5.205-2.8-8.4c-1.6-2.14-3.867-3.2-6.8-3.2q-4.8 0-8.4 1.2-4 1.59-7.6 2.4c-2.134.26-5.067.4-8.8.4-8 0-13.2-1.47-15.6-4.4-2.134-3.2-3.2-5.87-3.2-8q0-4.8 4-8.4c2.933-2.67 7.2-4 12.8-4h33.6c4.533 0 8.133 1.73 10.8 5.2 2.933 3.2 4.4 7.06 4.4 11.6m258.86 23.2c0-.8-.13-1.34-.4-1.6l-1.2-1.2c-.53-.54-1.2-1.34-2-2.4-.8-1.07-1.2-2.4-1.2-4 0-4.27 3.73-7.87 11.2-10.8 6.13-2.67 9.2-7.07 9.2-13.2 0-4.8-2.53-9.34-7.6-13.6-5.07-4.54-12.8-6.8-23.2-6.8h-92.8c-13.33 0-23.2 2.8-29.6 8.4-6.4 5.33-9.6 11.86-9.6 19.6 0 6.66 2.27 13.46 6.8 20.4 4.53 6.93 11.07 13.2 19.6 18.8 5.07 3.2 10.67 6.53 16.8 10 6.4 3.46 12.67 6.93 18.8 10.4 6.13 3.46 12.13 6.93 18 10.4 5.87 3.46 11.2 6.8 16 10 11.73 8.53 17.6 16.13 17.6 22.8q0 7.2-9.6 12c-6.13 2.93-15.2 4.4-27.2 4.4-11.73 0-20.53-1.74-26.4-5.2-5.87-3.74-10.93-10.27-15.2-19.6-2.4-5.34-6.4-9.47-12-12.4-5.6-2.94-11.2-4.4-16.8-4.4-2.67 0-5.2.4-7.6 1.2-2.13.8-3.2 1.46-3.2 2 0 .26.27.66.8 1.2 2.13 1.33 3.47 2.93 4 4.8q1.2 2.79 1.2 6c0 2.13-.4 4.4-1.2 6.8s-1.87 4.93-3.2 7.6c-1.33 2.93-2.67 6-4 9.2q-2.001 4.8-2.001 9.6c0 1.33.267 3.06.8 5.2 2.401 8.53 7.601 15.2 15.601 20q12.405 7.2 27.6 7.2c5.07 0 9.33-.27 12.8-.8q5.595-.405 10.8-1.2c3.47-.54 7.07-1.07 10.8-1.6 4-.27 8.93-.4 14.8-.4 5.07 0 9.33.13 12.8.4 3.47.53 6.53 1.06 9.2 1.6q4.395.795 8.4 1.2c2.67.53 5.87.8 9.6.8 8.27 0 15.6-1.2 22-3.6 6.4-2.14 11.6-5.2 15.6-9.2 4.27-4 7.47-8.67 9.6-14 2.13-5.34 3.2-10.94 3.2-16.8 0-10.14-2.93-20.27-8.8-30.4-5.87-10.4-14.8-19.07-26.8-26-9.07-5.34-19.33-11.07-30.8-17.2-11.2-6.14-21.47-11.6-30.8-16.4q-15.195-8.01-21.6-14.4-6-6.81-6-12c0-3.47 1.73-6.14 5.2-8 3.73-2.14 8.53-3.2 14.4-3.2h40.8c3.47 0 6.13.93 8 2.8 2.13 1.6 3.2 3.73 3.2 6.4 0 1.86-.27 3.33-.8 4.4-.8 2.13-1.2 4.26-1.2 6.4 0 5.33 2.67 10 8 14 5.6 4 11.33 6 17.2 6 1.6 0 2.4-.54 2.4-1.6m65.66-33.6c4.53 3.2 8 6.26 10.4 9.2 2.4 2.93 3.6 8.4 3.6 16.4v94.8c0 4-.27 7.33-.8 10-.53 2.66-1.47 4.93-2.8 6.8-1.07 1.86-2.53 3.46-4.4 4.8-1.6 1.06-3.6 2.4-6 4-2.93 2.13-5.07 4.4-6.4 6.8-1.07 2.4-1.6 4.53-1.6 6.4q0 7.2 18 7.2c5.87 0 10.93-.67 15.2-2 4.27-1.34 9.33-2 15.2-2 6.13 0 11.2.66 15.2 2 4 1.33 9.07 2 15.2 2 13.07 0 19.6-2.4 19.6-7.2 0-2.14-.67-4.4-2-6.8-1.33-2.67-3.87-5.34-7.6-8-2.4-1.6-4.53-3.07-6.4-4.4-1.6-1.34-3.07-2.8-4.4-4.4s-2.4-3.47-3.2-5.6c-.53-2.4-.8-5.6-.8-9.6v-94.8q0-12 3.6-16.8c3.6-4.8 6.13-6 11.2-8.4 4.27-2.14 6.93-4.27 8-6.4 1.07-2.14 1.6-4.14 1.6-6 0-5.87-6.13-8.8-18.4-8.8-5.07 0-10 .66-14.8 2-4.8 1.06-10.67 1.6-17.6 1.6s-12.53-.54-16.8-1.6c-4-1.34-8.53-2-13.6-2-6.4 0-11.07.8-14 2.4-2.67 1.6-4 3.73-4 6.4 0 4 2.93 8 8.8 12m6.8-70.4c0 4 .93 7.46 2.8 10.4 2.13 2.66 4.67 4.93 7.6 6.8 3.2 1.86 6.67 3.33 10.4 4.4q6 1.2 12 1.2c6 0 7.87-.4 11.6-1.2 4-1.07 7.47-2.54 10.4-4.4 3.2-1.87 5.73-4.14 7.6-6.8 2.13-2.94 3.2-6.4 3.2-10.4s-1.07-7.34-3.2-10c-1.87-2.94-4.4-5.34-7.6-7.2-2.93-1.87-6.4-3.2-10.4-4-3.73-1.07-7.6-1.6-11.6-1.6s-8 .53-12 1.6c-3.73.8-7.2 2.13-10.4 4-2.93 1.86-5.47 4.26-7.6 7.2-1.87 2.66-2.8 6-2.8 10m133.38 184.8c0 16.8 5.2 29.33 15.6 37.6q16.005 12 45.6 12c6.4 0 12.14-.67 17.2-2 5.34-1.6 10.27-3.6 14.8-6 4.54-2.67 8.8-5.6 12.8-8.8q6-5.205 12-10.8v2.4c0 2.4-.26 5.06-.8 8-.53 2.66-1.86 4.53-4 5.6-5.86 2.66-8.8 5.46-8.8 8.4 0 1.33.94 2.53 2.8 3.6 2.14 1.33 5.47 2 10 2 5.07 0 9.87-.67 14.4-2 4.8-1.34 10.94-2 18.4-2 6.67 0 12.14.66 16.4 2 4.54 1.33 9.74 2 15.6 2 4 0 7.34-.8 10-2.4 2.94-1.6 4.4-3.6 4.4-6 0-3.2-2.66-6.94-8-11.2-4.53-3.47-8.8-6.8-12.8-10-3.73-3.2-5.6-8.27-5.6-15.2v-96c0-4.27.4-7.74 1.2-10.4.8-2.67 2-4.8 3.6-6.4 1.6-1.87 3.47-3.34 5.6-4.4 2.4-1.34 5.07-2.8 8-4.4 2.67-1.34 4.54-2.8 5.6-4.4 1.07-1.87 1.6-3.87 1.6-6q0-4.005-3.6-7.2c-2.13-2.14-5.46-3.2-10-3.2-4 0-7.46.26-10.4.8q-3.99.39-8.4 1.2c-2.66.26-5.6.66-8.8 1.2-2.93.26-6.66.4-11.2.4-4.26 0-8-.14-11.2-.4q-4.395-.81-8.4-1.2c-2.66-.54-5.33-.94-8-1.2-2.66-.54-5.73-.8-9.2-.8-5.33 0-9.33 1.06-12 3.2-2.66 1.86-4 4.26-4 7.2 0 5.06 3.07 9.06 9.2 12 2.4 1.33 4.67 2.53 6.8 3.6 2.4 1.06 4.4 2.53 6 4.4 1.87 1.6 3.2 3.73 4 6.4 1.07 2.66 1.6 6.13 1.6 10.4v78.4c-6.66 6.93-14.13 12.13-22.4 15.6-8.26 3.2-15.73 4.8-22.4 4.8-6.13 0-11.2-1.6-15.2-4.8q-6-5.205-6-15.6v-101.2c0-7.74-.93-13.47-2.8-17.2-1.6-4-5.33-6-11.2-6h-42.8q-10.8 0-16.8 2.4c-6 2.4-6 3.86-6 6.8 0 3.46 3.47 7.06 10.4 10.8 5.34 2.93 9.47 6.26 12.4 10 3.2 3.73 4.8 9.46 4.8 17.2zm413.33 5.6v-86c8.8-8.27 17.34-14 25.6-17.2 8.54-3.2 15.87-4.8 22-4.8 5.34 0 9.6 1.2 12.8 3.6 3.47 2.4 5.2 5.73 5.2 10v95.2c0 4.53-.66 8-2 10.4-1.06 2.13-2.53 4-4.4 5.6-1.86 1.6-3.86 3.06-6 4.4-2.13 1.33-4.13 3.06-6 5.2-4.26 4.53-6.4 8.66-6.4 12.4 0 2.93 1.47 4.93 4.4 6 2.94 1.06 7.07 1.6 12.4 1.6 3.47 0 6.27-.27 8.4-.8 2.14-.27 4.4-.67 6.8-1.2 2.4-.54 5.07-1.07 8-1.6 2.94-.27 6.94-.4 12-.4 5.6 0 10 .13 13.2.4 3.2.53 6 1.06 8.4 1.6 2.4.53 4.67.93 6.8 1.2 2.4.53 5.45.8 9.25.8 9.8 0 14.8-2.27 14.8-6.8 0-4-3.1-8.94-9.2-14.8-2.2-1.87-4.3-3.34-6.4-4.4-2.2-1.34-4.18-2.8-6.05-4.4-1.6-1.6-3.06-3.6-4.4-6-1.06-2.4-1.6-5.74-1.6-10v-90.8c0-5.87-1.2-11.74-3.6-17.6-2.13-5.87-5.73-11.2-10.8-16-5.06-4.8-11.46-8.67-19.2-11.6q-11.595-4.8-27.6-4.8c-6.93 0-13.33 1.06-19.2 3.2-5.86 2.13-11.2 5.06-16 8.8a68 68 0 0 0-12.8 12c-3.73 4.53-6.93 9.06-9.6 13.6-1.6-3.74-3.46-7.74-5.6-12-2.13-4.54-5.33-8.67-9.6-12.4-4-3.74-9.6-6.8-16.8-9.2-7.2-2.67-16.53-4-28-4-6.4 0-12.53 1.33-18.4 4a90.7 90.7 0 0 0-16.4 9.6c-4.8 3.73-9.06 7.86-12.8 12.4-3.73 4.26-6.8 8-9.2 11.2v-6.8c0-4 .27-7.07.8-9.2.8-2.4 1.74-4.27 2.8-5.6 1.34-1.6 2.94-2.94 4.8-4 1.87-1.07 4.14-2.27 6.8-3.6 4.8-2.4 7.2-4.67 7.2-6.8 0-2.4-4.13-3.6-12.4-3.6-3.2 0-6.13.26-8.8.8-2.66.26-5.33.66-8 1.2-2.66.53-5.6 1.06-8.8 1.6-3.2.26-7.06.4-11.6.4-4 0-7.46-.14-10.4-.4-2.93-.54-5.6-1.07-8-1.6-2.4-.54-4.93-.94-7.6-1.2-2.66-.54-5.73-.8-9.2-.8-3.46 0-6.4.53-8.8 1.6-2.13.8-3.2 2.13-3.2 4 0 2.13 2.14 4.53 6.4 7.2 2.94 1.86 5.47 3.46 7.6 4.8q3.21 1.995 4.8 4.8c1.34 1.86 2.27 4.13 2.8 6.8.54 2.4.8 5.73.8 10v104.8c0 4.53-.53 8-1.6 10.4-1.06 2.4-2.4 4.4-4 6s-3.6 3.06-6 4.4c-2.13 1.33-4.4 2.93-6.8 4.8-5.06 4.26-7.6 8.26-7.6 12 0 2.93 1.34 4.93 4 6 2.67 1.33 6.27 2 10.8 2 4 0 7.34-.27 10-.8 2.67-.27 5.2-.67 7.6-1.2 2.67-.54 5.34-1.07 8-1.6 2.94-.27 6.54-.4 10.8-.4 5.34 0 9.47.13 12.4.4 3.2.53 5.87 1.06 8 1.6 2.4.53 4.54.93 6.4 1.2 2.14.53 4.8.8 8 .8 6.14 0 10.94-.67 14.4-2 3.74-1.34 5.6-3.47 5.6-6.4q0-5.205-9.6-13.2c-2.4-1.87-4.8-3.34-7.2-4.4-2.13-1.34-4-2.67-5.6-4-1.6-1.34-2.93-3.2-4-5.6-1.06-2.4-1.6-5.74-1.6-10v-88c8.27-7.2 16.54-12.4 24.8-15.6q12.405-4.8 21.6-4.8 9.21 0 14.4 3.6c3.47 2.13 5.2 5.33 5.2 9.6v95.2c0 4.53-.53 8-1.6 10.4-1.06 2.13-2.53 4-4.4 5.6-1.6 1.6-3.46 3.06-5.6 4.4-2.13 1.33-4.4 3.06-6.8 5.2-5.06 4.8-7.6 8.93-7.6 12.4 0 5.06 5.34 7.6 16 7.6 3.47 0 6.4-.27 8.8-.8q3.6-.405 7.2-1.2c2.4-.54 5.07-1.07 8-1.6 2.94-.27 6.8-.4 11.6-.4 4.54 0 8.27.13 11.2.4 3.2.53 6.14 1.06 8.8 1.6 2.94.53 5.87.93 8.8 1.2 2.94.53 6.54.8 10.8.8 4.54 0 8.14-.67 10.8-2 2.94-1.07 4.4-2.94 4.4-5.6 0-3.74-3.33-8.4-10-14-2.4-1.87-4.8-3.34-7.2-4.4-2.13-1.34-4-2.8-5.6-4.4s-2.93-3.6-4-6c-1.06-2.4-1.6-5.74-1.6-10" style="fill:#194a70" transform="translate(1632.5 71.804)"/></svg>