<svg xmlns="http://www.w3.org/2000/svg" version="1.0" viewBox="0 0 350 405.45"><defs><linearGradient id="a" x1="537.42" x2="537.42" y1="580.17" y2="508.72" gradientTransform="translate(-91.905 -27.434)" gradientUnits="userSpaceOnUse"><stop offset="0" stop-opacity=".678"/><stop offset=".57" stop-opacity=".329"/><stop offset="1" stop-opacity="0"/></linearGradient><linearGradient id="b" x1="274.7" x2="508.42" y1="620.6" y2="571.56" gradientTransform="matrix(.93592 .03593 0 .93592 -59.411 -9.066)" gradientUnits="userSpaceOnUse"><stop offset="0" stop-color="#fff"/><stop offset="1" stop-color="#fff" stop-opacity="0"/></linearGradient><linearGradient id="c" x1="661.36" x2="566.57" y1="663.62" y2="568.83" gradientTransform="matrix(.95436 -.0076 0 .95436 -65.819 2.656)" gradientUnits="userSpaceOnUse"><stop offset="0" stop-color="#fff"/><stop offset="1" stop-color="#fff" stop-opacity="0"/></linearGradient><linearGradient id="e" x1="157.41" x2="477.9" y1="850.19" y2="788.82" gradientUnits="userSpaceOnUse"><stop offset="0" stop-color="#b0d6c4"/><stop offset="1" stop-color="#4f8e6f"/></linearGradient><linearGradient id="j" x1="230.26" x2="271.06" y1="342.92" y2="235.18" gradientTransform="matrix(.06879 0 0 .06879 1099.5 370.55)" gradientUnits="userSpaceOnUse"><stop offset="0" stop-color="#8ec09b"/><stop offset="1" stop-color="#dbecd1" stop-opacity=".557"/></linearGradient><linearGradient id="k" x1="230.26" x2="271.06" y1="342.92" y2="235.18" gradientTransform="matrix(.05768 0 0 .04284 1102.6 379.33)" gradientUnits="userSpaceOnUse"><stop offset="0" stop-color="#4a2600"/><stop offset="1" stop-color="#673100"/></linearGradient><linearGradient id="l" x1="266.85" x2="189.25" y1="330.36" y2="237.22" gradientTransform="matrix(-.05768 0 .02897 .0474 1130.3 377.75)" gradientUnits="userSpaceOnUse"><stop offset="0" stop-color="#985f36"/><stop offset="1" stop-color="#673100"/></linearGradient><filter id="d" width="1.351" height="2.495" x="-.175" y="-.747"><feGaussianBlur stdDeviation="45.867"/></filter><filter id="g"><feGaussianBlur stdDeviation="2.88"/></filter><filter id="i"><feGaussianBlur stdDeviation="6.667"/></filter><radialGradient id="f" cx="106.71" cy="309.01" r="71.787" gradientTransform="matrix(.06672 .01918 -.03272 .12005 1109.4 352.7)" gradientUnits="userSpaceOnUse"><stop offset="0" stop-color="#8ec8a2"/><stop offset=".5" stop-color="#b0d3be"/><stop offset="1" stop-color="#41ae8b"/></radialGradient><radialGradient id="h" cx="245.71" cy="400.65" r="240" fx="291.43" fy="224.85" gradientTransform="matrix(.06879 0 0 .05143 1099.5 377.92)" gradientUnits="userSpaceOnUse" spreadMethod="reflect"><stop offset="0" stop-color="#8ec8a2"/><stop offset=".5" stop-color="#aed3be"/><stop offset="1" stop-color="#4fae8b"/></radialGradient></defs><text xml:space="preserve" x="849.805" y="8.933" font-family="Bitstream Vera Sans" font-size="12" transform="rotate(50 -459.157 -303.081)">
      
    </text><path d="M248.055.03c-.33.057-.659.085-.988.199h-.041c-.042 0-.151.085-.179.085-.014 0-.11.085-.123.085-30.131 10.457-82.434 27.264-114.486 51.014-3.334 2.522-5.845 8.445-6.6 15.672-.15 1.417-.082 2.126-.082 3.174h-.04c-.015.227 0 .426 0 .624 0 .709-.07 1.87-.056 2.324h.137c-.027 5.186.673 10.515 2.443 14.596 9.357 21.652 15.45 49.257 18.825 74.934 3.361 25.592 3.841 50.22 3.087 60.565-.7 9.522-4.926 32.167-7.34 53.168-1.18 10.344-2.182 21.68-.975 33.726 1.386 13.83 6.586 26.13 14.146 29.673l.123.085c.22.085.426.113.645.17 29.953 10.401 36.36 14.567 66.463 36.843h.041c2.278 1.672 4.707 1.304 6.86-.255l.042.17c.343-.198.48-.34.727-.538.357-.227.796-.454 1.03-.595.095-.057.178-.114.26-.199 29.033-21.256 58.176-37.75 86.948-47.726.082-.029.15-.057.22-.085.288-.114.617-.284.905-.454 7.423-4.053 11.621-17.033 12.733-30.098.96-11.422.164-22.191-.865-32.422-2.071-20.746-5.817-43.079-6.6-53.763-.754-10.288-.246-34.945 3.13-60.565 3.374-25.678 9.466-53.282 18.824-74.934 1.687-3.911 2.442-9.07 2.442-14.341h.178c.028-.624-.096-1.247-.096-1.87 0-.312.07-.596.055-.88.234 3.685.261 3.544 0-.283h-.096c-.027-1.502 0-3.032-.206-4.59-.933-7.03-3.58-12.64-6.942-14.795C312.089 19.36 281.176 8.476 250.113.23c-.714-.256-1.29-.284-2.017-.199z"/><path fill="#bb7637" d="M249.876 10.049c-.14.028-.264.056-.403.085-.32.113-.388.17-.166.085-1.11.397-2.083 1.672-2.721 3.57-.639 1.871-.875 4.195-.666 6.463 5.635 58.722-.583 115.801-2.25 148.082-.513 9.863-2.081 22.9-3.428 36.22-1.36 13.32-2.526 26.896-1.874 39.224.167 2.948 1.083 5.498 2.388 6.745v1.049c.458-.028 1.04-.057 1.735-.17v-.085h.444c12.785-2.693 24.93-20.35 40.547-51.553 15.63-31.203 34.925-76.634 61.646-137.71.958-2.153 1.305-5.157.916-7.963-.374-2.806-1.43-5.017-2.776-5.867-30.344-19.045-61.285-29.871-92.532-38.09-.291-.085-.583-.114-.86-.085"/><path fill="peru" d="M249.529 10.134c-.084.028-.153.056-.222.085-30.539 10.486-83.565 27.604-114.825 50.504-1.347.992-2.346 3.344-2.638 6.206-.305 2.863.14 5.839 1.166 7.88 29.512 58.694 49.917 103.416 66.366 133.373 16.45 29.928 29.456 46.082 43.56 43.135 1.096-.227 2.123-1.36 2.817-3.118s1.027-4.024.902-6.291c-.444-8.531.43-21.03 1.735-33.896s2.943-26.103 3.568-37.92c1.54-29.76 8.204-90.069 2.165-153.128-.416-4.393-2.429-7.369-4.594-6.83"/><path fill="url(#a)" d="m455.35 467.47-.25.03h-.04c-.23.04-.28.06-.12.03-22 3.7-60.2 9.74-82.72 17.82-.97.35-1.69 1.18-1.91 2.18-.21 1.01.11 2.07.85 2.79 21.26 20.71 35.96 36.49 47.81 47.06 11.24 10.02 20.24 15.65 29.81 15.31.15 0 .38-.02.57-.03.22-.01.45-.01.68-.03l.32-.03c9.21-.95 17.96-7.18 29.21-18.19 11.26-11.01 25.16-27.04 44.41-48.59.69-.76.93-1.83.66-2.82a3.02 3.02 0 0 0-2-2.06c-21.86-6.72-44.15-10.54-66.66-13.44-.09-.01-.19.01-.28 0-.12 0-.23-.03-.34-.03" transform="matrix(1.38812 0 0 2.83411 -382.202 -1314.814)"/><path fill="#b16c31" d="M135.648 62.055c-1.597.17-2.999 2.21-3.61 5.243-.61 3.004-.319 6.49.75 8.927 10.328 23.608 16.852 53.027 20.475 80.234 3.623 27.18 4.248 52.374 3.262 65.893-.972 13.009-5.247 34.69-7.51 54.188-1.138 9.778-1.86 19.159-.958 28.086s4.4 17.317 9.454 19.67c.097.028.18.056.263.084 30.442 10.43 38.035 15.134 68.545 37.467 1.208.85 2.555.539 3.637-.907 19.67-25.96 32.746-41.406 41.56-55.152 8.815-13.773 13.618-27.434 14.576-45.799.597-11.45-1.958-22.786-5.636-35.426-3.692-12.64-8.8-26.442-14.534-40.641-11.48-28.427-25.472-58.355-35.05-81.056-.694-1.644-1.68-2.692-2.734-2.92-32.732-6.49-60.744-15.332-90.838-37.381-.528-.397-1.083-.567-1.652-.51"/><path fill="url(#b)" d="M375.76 488c-1.08.02-2.02.66-2.44 1.64-.41.98-.21 2.13.51 2.96 6.97 8.07 11.37 17.96 13.81 27.03 2.44 9.08 2.86 17.41 2.19 21.85-.65 4.27-3.53 11.32-5.06 17.7-.76 3.2-1.25 6.28-.64 9.25s2.96 5.83 6.37 6.74l.18.03c20.52 4.24 25.64 5.98 46.21 14.15.82.32 1.73.24 2.46-.2 13.25-8.07 22.07-12.83 28.01-17.15 5.95-4.31 9.19-8.7 9.83-14.74.4-3.76-1.32-7.57-3.8-11.84s-5.93-8.97-9.8-13.8c-7.74-9.68-17.17-19.93-23.63-27.67-.47-.57-1.13-.94-1.84-1.04-22.07-2.99-40.95-6.64-61.25-14.69-.35-.15-.73-.22-1.11-.22" transform="matrix(1.38812 0 0 2.83411 -382.202 -1314.814)"/><path fill="peru" d="M342.005 49.726c-.57 0-1.124.255-1.652.709C311.911 75.8 259.246 95.95 227.361 99.862c-1.902.255-3.47 3.089-3.818 6.915-6.066 63.116.583 123.426 2.124 153.212.902 17.6 3.484 38.998 5.067 56.144 1.068 11.45 3.276 45.884-4.415 45.714 1.86.992 3.096-.397 4.762-1.417 29.664-21.482 59.508-38.232 89.061-48.378a1 1 0 0 0 .347-.17c4.706-2.523 7.718-11.195 8.454-19.839.75-8.616.125-17.827-.86-27.548-1.972-19.385-5.734-41.038-6.72-54.471-.999-13.49-.332-38.686 3.29-65.893 3.623-27.18 10.148-56.598 20.475-80.234 1.097-2.494 1.374-6.065.694-9.126s-2.165-5.045-3.817-5.045"/><path fill="url(#c)" d="M519.8 483.67c-.39 0-.78.09-1.13.25-19.56 8.69-55.77 15.77-77.69 17.26a2.88 2.88 0 0 0-2.63 2.34c-4.17 21.29.4 41.56 1.46 51.59.63 5.92 2.4 13.11 3.49 18.88.73 3.85 2.25 15.43-3.04 15.41 1.29.33 2.13-.14 3.28-.5 20.4-7.4 40.91-13.2 61.23-16.77.08-.02.16-.04.24-.07 3.23-.88 5.3-3.81 5.81-6.72s.08-6.01-.59-9.27c-1.36-6.53-3.94-13.79-4.63-18.31-.68-4.54-.22-13.03 2.27-22.2 2.49-9.18 6.98-19.13 14.08-27.14.75-.85.94-2.05.47-3.07a2.83 2.83 0 0 0-2.62-1.68" transform="matrix(1.38812 0 0 2.83411 -382.202 -1314.814)"/><path d="M221.017 164.253c-1.083 43.277 1.499 80.829 2.04 102.708.458 18.507 2.499 40.981 3.651 59.006.555 8.786 1.388 30.495-1.208 41.463l5.58-.935c-1.665 1.077-2.9 2.523-4.76 1.474 7.69.198 5.482-35.313 4.414-47.131-1.583-17.685-4.165-39.735-5.067-57.873-1.069-21.114-4.553-57.136-4.65-98.712"/><path fill="#734700" fill-rule="evenodd" d="M133.422 61.141c92.131-38.924 107.719-69.81 204.38-10.014-32.505 19.037-61.526 42.596-113.548 50.076-57.66-10.521-71.284-25.599-90.832-40.062"/><path fill="#6a3500" d="M196.27 31.316a12.665 19.447-47.414 1 1-14.346 20.713 12.665 19.447-47.414 1 1 14.345-20.713"/><path fill="#472e00" d="M191.243 39.826a2.75 17.248-50.656 1 1-3.007 4.343 2.75 17.248-50.656 1 1 3.007-4.343"/><path fill="#6a3500" d="M239.425 26.858A12.27 20.074-24.831 1 1 218.587 39.5a12.27 20.074-24.831 1 1 20.838-12.642"/><path fill="#472e00" d="M231.657 32.433a2.662 17.818-27.144 1 1-4.369 2.65 2.662 17.818-27.144 1 1 4.37-2.65"/><path fill="#6a3500" d="M273.727 70.079a12.297 20.029 26.608 1 1-20.42-13.422 12.297 20.029 26.608 1 1 20.42 13.422"/><path fill="#472e00" d="M265.475 65.505a2.668 17.776 29.05 1 1-4.281-2.815 2.668 17.776 29.05 1 1 4.281 2.815"/><path fill="#6a3500" d="M288.189 52.77a12.25 20.106-23.492 1 1-21.138 12.039 12.25 20.106-23.492 1 1 21.138-12.039"/><path fill="#472e00" d="M280.274 58.08a2.657 17.849-25.702 1 1-4.432 2.523 2.657 17.849-25.702 1 1 4.432-2.524"/><path fill="#6a3500" d="M224.951 71.634a12.177 20.225-18.094 1 1-22.212 9.49 12.177 20.225-18.094 1 1 22.212-9.49"/><path fill="#472e00" d="M216.542 76.022a2.64 17.963-19.854 1 1-4.658 1.99 2.64 17.963-19.854 1 1 4.658-1.99"/><path fill="#6a3500" d="M311.857 55.478a12.2 20.188 19.917 1 1-21.875-10.371 12.2 20.188 19.917 1 1 21.875 10.37"/><path fill="#472e00" d="M303.09 52.136a2.646 17.926 21.835 1 1-4.588-2.174 2.646 17.926 21.835 1 1 4.587 2.174"/><path fill="#6a3500" d="M284.35 48.004a12.077 20.394 5.963 1 1-23.685-3.226 12.077 20.394 5.963 1 1 23.685 3.226"/><path fill="#472e00" d="M275.054 47.5a2.617 18.126 6.567 1 1-4.966-.677 2.617 18.126 6.567 1 1 4.966.676"/><path fill="#6a3500" d="M236.091 58.77a12.09 20.37-8.637 1 1-23.482 4.654 12.09 20.37-8.637 1 1 23.482-4.653"/><path fill="#472e00" d="M227.151 61.288a2.62 18.103-9.508 1 1-4.924.975 2.62 18.103-9.508 1 1 4.924-.975"/><path fill="#6a3500" d="M301.177 36.403a12.113 20.334 11.7 1 1-23.163-6.262 12.113 20.334 11.7 1 1 23.163 6.262"/><path fill="#472e00" d="M292 34.698a2.625 18.067 12.87 1 1-4.858-1.313A2.625 18.067 12.87 1 1 292 34.698"/><path fill="#6a3500" d="M199.535 63.324a12.064 20.416 0 1 1-23.87 0 12.064 20.416 0 1 1 23.87 0"/><path fill="#472e00" d="M190.25 64.077a2.614 18.147 0 1 1-5.006 0 2.614 18.147 0 1 1 5.005 0"/><path fill="#6a3500" d="M250.08 83.677a12.296 20.03 26.574 1 1-20.428-13.406 12.296 20.03 26.574 1 1 20.428 13.406"/><path fill="#472e00" d="M241.775 79.107a2.668 17.776 29.014 1 1-4.283-2.811 2.668 17.776 29.014 1 1 4.283 2.81"/><path fill="#6a3500" d="M259.097 47.927a12.064 20.416 0 1 1-23.87 0 12.064 20.416 0 1 1 23.87 0"/><path fill="#472e00" d="M249.811 48.68a2.614 18.147 0 1 1-5.005 0 2.614 18.147 0 1 1 5.005 0"/><path fill="#6a3500" d="M241.092 41.688a12.113 20.333-11.772 1 1-23.155 6.3 12.113 20.333-11.772 1 1 23.155-6.3"/><path fill="#472e00" d="M232.253 44.87a2.626 18.066-12.948 1 1-4.855 1.32 2.626 18.066-12.948 1 1 4.855-1.32"/><path fill="#6a3500" d="M217.35 60.184a12.505 19.696 38.598 1 1-17.127-18.051 12.505 19.696 38.598 1 1 17.128 18.05"/><path fill="#472e00" d="M210.205 53.703a2.715 17.468 41.685 1 1-3.591-3.785 2.715 17.468 41.685 1 1 3.59 3.785"/><path fill="#6a3500" d="M214.256 89.292a13.095 18.808 86.994 1 1-1.01-25.892 13.095 18.808 86.994 1 1 1.01 25.892"/><path fill="#472e00" d="M213.17 79.252a2.837 16.718 87.357 1 1-.211-5.43 2.837 16.718 87.357 1 1 .211 5.43"/><path fill="#6a3500" d="M259.928 41.509a12.93 19.05 64.413 1 1-8.641-24.158 12.93 19.05 64.413 1 1 8.64 24.158"/><path fill="#472e00" d="M255.92 32.384a2.805 16.91 67.051 1 1-1.812-5.065 2.805 16.91 67.051 1 1 1.812 5.065"/><path fill="#6a3500" d="M177.699 54.22a12.238 20.124-22.725 1 1-21.305 11.69 12.238 20.124-22.725 1 1 21.305-11.69"/><path fill="#472e00" d="M169.724 59.44a2.655 17.866-24.875 1 1-4.467 2.45 2.655 17.866-24.875 1 1 4.467-2.45"/><path fill="url(#e)" d="M655.24 788.82a261.74 61.373 0 1 1-523.47 0 261.74 61.373 0 1 1 523.47 0" filter="url(#d)" transform="matrix(.45607 0 0 .33576 -54.594 120.007)"/><path fill="url(#f)" fill-rule="evenodd" d="M1112.1 387.37c-.9-3.44-3.7-2.52-6.3-2.28-4 .15-5.1 11.05.9 15.52-2.2-12.28-.7-18.45 2.5-12.32 1.2 1.14 2.4-.45 2.9-.92" transform="matrix(6.7942 0 0 7.3762 -7490.851 -2640.39)"/><path fill="none" stroke="#fff" stroke-width="3.8" d="M150.44 242.37c-68.755-80.49-143.7 52.99-41.49 172.13" filter="url(#g)" transform="matrix(.47373 0 0 .52825 -24.7 89.322)"/><path fill="url(#h)" d="M1137.8 394.12c0 8.78-7.4 16.74-16.5 16.74s-16.5-7.96-16.5-16.74c0-6.31 7.2-7.94 16.5-7.94s16.5 1.28 16.5 7.94" transform="matrix(6.7942 0 0 7.3762 -7490.851 -2640.39)"/><path fill="#f9f9f9" d="M531.57 287.39c0 37.85-94.72 75.11-211.43 75.11s-211.43-37.26-211.43-75.11 94.72-62.03 211.43-62.03 211.43 24.18 211.43 62.03" filter="url(#i)" transform="matrix(.46735 0 0 .50738 -20.623 95.887)"/><path fill="url(#j)" stroke="#fefcfc" stroke-width=".124" d="M1135.3 390.7c0 2.38-6.3 4.73-14 4.73s-13.9-2.35-13.9-4.73c0-2.39 6.2-3.91 13.9-3.91s14 1.52 14 3.91z" transform="matrix(6.7942 0 0 7.3762 -7490.851 -2640.39)"/><path fill="url(#k)" d="M1133.8 392.33c-1 1.68-6.2 2.78-12.7 2.78s-11.1-1.23-12.2-2.65c-1-3.26 25.7-3.13 24.9-.13" transform="matrix(6.7942 0 0 7.3762 -7490.851 -2640.39)"/><path fill="url(#l)" d="M1119.3 390.51c-3.3.32-7 3.23-1 4.02 6.6.87 16.6-.9 14.7-2.33-2.3-1.84-11.4-2.23-13.7-1.69" opacity=".91" transform="matrix(6.7942 0 0 7.3762 -7490.851 -2640.39)"/></svg>