<svg xmlns="http://www.w3.org/2000/svg" xmlns:xlink="http://www.w3.org/1999/xlink" version="1.0" viewBox="0 0 350 405.44"><defs><linearGradient id="a"><stop offset="0" stop-color="#c8c8d8"/><stop offset=".5" stop-color="#d8d3e8"/><stop offset="1" stop-color="#c8aef2"/></linearGradient><linearGradient id="b" x1="537.42" x2="537.42" y1="580.17" y2="508.72" gradientTransform="translate(-91.905 -27.434)" gradientUnits="userSpaceOnUse"><stop offset="0" stop-opacity=".678"/><stop offset=".57" stop-opacity=".329"/><stop offset="1" stop-opacity="0"/></linearGradient><linearGradient id="c" x1="274.7" x2="508.42" y1="620.6" y2="571.56" gradientTransform="matrix(.93592 .03593 0 .93592 -59.411 -9.066)" gradientUnits="userSpaceOnUse"><stop offset="0" stop-color="#fff"/><stop offset="1" stop-color="#fff" stop-opacity="0"/></linearGradient><linearGradient id="d" x1="661.36" x2="566.57" y1="663.62" y2="568.83" gradientTransform="matrix(.95436 -.0076 0 .95436 -65.819 2.656)" gradientUnits="userSpaceOnUse"><stop offset="0" stop-color="#fff"/><stop offset="1" stop-color="#fff" stop-opacity="0"/></linearGradient><linearGradient id="f" x1="157.41" x2="477.9" y1="850.19" y2="788.82" gradientUnits="userSpaceOnUse"><stop offset="0" stop-color="#f3d6ed"/><stop offset="1" stop-color="#c78ee2"/></linearGradient><linearGradient id="k" x1="230.26" x2="271.06" y1="342.92" y2="235.18" gradientTransform="translate(52.739 65.076)scale(.82733)" gradientUnits="userSpaceOnUse"><stop offset="0" stop-color="#d9c0d8"/><stop offset="1" stop-color="#f8ecf5" stop-opacity=".557"/></linearGradient><linearGradient id="l" x1="230.26" x2="271.06" y1="342.92" y2="235.18" gradientTransform="matrix(.6937 0 0 .5153 90.156 170.71)" gradientUnits="userSpaceOnUse"><stop offset="0" stop-color="#4a2600"/><stop offset="1" stop-color="#673100"/></linearGradient><linearGradient id="m" x1="266.85" x2="189.25" y1="330.36" y2="237.22" gradientTransform="matrix(-.6937 0 .34846 .57012 422.94 151.7)" gradientUnits="userSpaceOnUse"><stop offset="0" stop-color="#985f36"/><stop offset="1" stop-color="#673100"/></linearGradient><filter id="e" width="1.351" height="2.495" x="-.175" y="-.747"><feGaussianBlur stdDeviation="45.867"/></filter><filter id="h"><feGaussianBlur stdDeviation="2.88"/></filter><filter id="j"><feGaussianBlur stdDeviation="6.667"/></filter><radialGradient xlink:href="#a" id="g" cx="106.71" cy="309.01" r="71.787" gradientTransform="matrix(.80244 .23073 -.39355 1.444 172.24 -149.54)" gradientUnits="userSpaceOnUse"/><radialGradient xlink:href="#a" id="i" cx="245.71" cy="400.65" r="240" fx="291.43" fy="224.85" gradientTransform="matrix(.82733 0 0 .61853 52.739 153.7)" gradientUnits="userSpaceOnUse" spreadMethod="reflect"/></defs><path d="M248.027.008c-.33.057-.658.085-.988.199H247c-.042 0-.152.085-.18.085-.013 0-.109.085-.123.085-30.13 10.457-82.433 27.264-114.484 51.013-3.334 2.523-5.845 8.446-6.6 15.673-.15 1.417-.082 2.126-.082 3.174h-.04c-.015.227 0 .425 0 .624 0 .708-.07 1.87-.056 2.324h.137c-.027 5.186.673 10.514 2.443 14.595 9.357 21.653 15.449 49.257 18.824 74.934 3.362 25.592 3.842 50.22 3.087 60.565-.7 9.522-4.925 32.167-7.34 53.167-1.18 10.345-2.182 21.681-.974 33.726 1.385 13.83 6.586 26.13 14.146 29.673l.123.085c.22.085.425.114.645.17 29.952 10.401 36.36 14.567 66.462 36.843h.041c2.278 1.673 4.707 1.304 6.86-.255l.042.17c.343-.198.48-.34.727-.538.357-.227.796-.453 1.029-.595.096-.057.178-.114.26-.199 29.033-21.255 58.176-37.75 86.948-47.726a6.753 6.753 0 0 0 1.125-.538c7.423-4.053 11.621-17.033 12.732-30.098.96-11.422.165-22.191-.864-32.423-2.072-20.745-5.817-43.078-6.6-53.762-.754-10.288-.246-34.945 3.129-60.565 3.375-25.677 9.467-53.281 18.824-74.934 1.688-3.91 2.443-9.069 2.443-14.34h.178c.027-.624-.096-1.247-.096-1.87 0-.313.069-.596.055-.88.233 3.685.26 3.543 0-.283h-.096c-.028-1.502 0-3.032-.206-4.591-.933-7.029-3.581-12.64-6.943-14.794C312.061 19.337 281.15 8.454 250.085.207c-.713-.255-1.29-.284-2.017-.199z"/><path fill="#bb7637" d="M249.848 10.027c-.138.028-.263.056-.402.085-.32.113-.389.17-.167.085-1.11.397-2.082 1.672-2.72 3.57-.639 1.871-.875 4.195-.667 6.462 5.636 58.723-.583 115.802-2.248 148.082-.514 9.863-2.083 22.9-3.43 36.22-1.36 13.32-2.525 26.896-1.873 39.224.167 2.947 1.083 5.498 2.388 6.745v1.049c.458-.029 1.04-.057 1.735-.17v-.085h.444c12.784-2.693 24.93-20.35 40.546-51.553 15.63-31.203 34.925-76.634 61.646-137.709.958-2.153 1.305-5.158.916-7.963-.375-2.806-1.43-5.017-2.776-5.867-30.344-19.045-61.285-29.871-92.531-38.09-.292-.085-.583-.114-.86-.085"/><path fill="peru" d="M249.501 10.112c-.083.028-.152.056-.222.085C218.741 20.683 165.716 37.8 134.456 60.7c-1.347.992-2.346 3.345-2.638 6.207-.305 2.863.139 5.838 1.166 7.879 29.511 58.694 49.916 103.416 66.365 133.373 16.45 29.928 29.456 46.082 43.559 43.135 1.096-.227 2.124-1.36 2.818-3.118s1.027-4.024.902-6.292c-.444-8.53.43-21.029 1.735-33.895s2.943-26.102 3.567-37.92c1.541-29.759 8.204-90.068 2.166-153.127-.417-4.393-2.43-7.369-4.595-6.83"/><path fill="url(#b)" d="m455.35 467.47-.25.03h-.04c-.23.04-.28.06-.12.03-22 3.7-60.2 9.74-82.72 17.82-.97.35-1.69 1.18-1.91 2.18-.21 1.01.11 2.07.85 2.79 21.26 20.71 35.96 36.49 47.81 47.06 11.24 10.02 20.24 15.65 29.81 15.31.15 0 .38-.02.57-.03.22-.01.45-.01.68-.03l.32-.03c9.21-.95 17.96-7.18 29.21-18.19 11.26-11.01 25.16-27.04 44.41-48.59.69-.76.93-1.83.66-2.82a3.02 3.02 0 0 0-2-2.06c-21.86-6.72-44.15-10.54-66.66-13.44-.09-.01-.19.01-.28 0-.12 0-.23-.03-.34-.03" transform="matrix(1.3881 0 0 2.8341 -382.223 -1314.83)"/><path fill="#b16c31" d="M135.622 62.032c-1.597.17-2.999 2.211-3.61 5.244-.61 3.004-.319 6.49.75 8.927 10.328 23.608 16.852 53.026 20.475 80.233 3.623 27.18 4.247 52.375 3.262 65.893-.972 13.009-5.247 34.69-7.51 54.188-1.138 9.778-1.86 19.159-.958 28.086s4.4 17.316 9.453 19.669c.097.028.18.056.264.085 30.44 10.43 38.034 15.134 68.544 37.467 1.208.85 2.554.538 3.637-.907 19.67-25.96 32.745-41.407 41.56-55.152 8.814-13.774 13.617-27.434 14.575-45.799.597-11.45-1.957-22.786-5.636-35.426-3.692-12.64-8.8-26.442-14.533-40.641-11.48-28.426-25.472-58.354-35.05-81.055-.694-1.644-1.68-2.693-2.734-2.92-32.732-6.49-60.744-15.332-90.838-37.381-.527-.397-1.082-.567-1.651-.51"/><path fill="url(#c)" d="M375.76 488c-1.08.02-2.02.66-2.44 1.64-.41.98-.21 2.13.51 2.96 6.97 8.07 11.37 17.96 13.81 27.03 2.44 9.08 2.86 17.41 2.19 21.85-.65 4.27-3.53 11.32-5.06 17.7-.76 3.2-1.25 6.28-.64 9.25s2.96 5.83 6.37 6.74l.18.03c20.52 4.24 25.64 5.98 46.21 14.15.82.32 1.73.24 2.46-.2 13.25-8.07 22.07-12.83 28.01-17.15 5.95-4.31 9.19-8.7 9.83-14.74.4-3.76-1.32-7.57-3.8-11.84s-5.93-8.97-9.8-13.8c-7.74-9.68-17.17-19.93-23.63-27.67-.47-.57-1.13-.94-1.84-1.04-22.07-2.99-40.95-6.64-61.25-14.69-.35-.15-.73-.22-1.11-.22" transform="matrix(1.3881 0 0 2.8341 -382.223 -1314.83)"/><path fill="peru" d="M341.977 49.704c-.57 0-1.125.255-1.652.709-28.442 25.365-81.107 45.515-112.992 49.426-1.901.255-3.47 3.09-3.817 6.916-6.066 63.115.583 123.425 2.124 153.211.902 17.6 3.484 38.997 5.066 56.144 1.07 11.45 3.276 45.884-4.414 45.714 1.86.991 3.096-.397 4.761-1.417 29.664-21.483 59.508-38.232 89.061-48.379a1 1 0 0 0 .347-.17c4.706-2.522 7.718-11.194 8.454-19.838.75-8.616.124-17.827-.861-27.548-1.971-19.385-5.733-41.038-6.719-54.471-.999-13.49-.333-38.686 3.29-65.893 3.623-27.179 10.147-56.597 20.475-80.233 1.096-2.494 1.374-6.065.694-9.126s-2.166-5.045-3.817-5.045"/><path fill="url(#d)" d="M519.8 483.67c-.39 0-.78.09-1.13.25-19.56 8.69-55.77 15.77-77.69 17.26a2.88 2.88 0 0 0-2.63 2.34c-4.17 21.29.4 41.56 1.46 51.59.63 5.92 2.4 13.11 3.49 18.88.73 3.85 2.25 15.43-3.04 15.41 1.29.33 2.13-.14 3.28-.5 20.4-7.4 40.91-13.2 61.23-16.77.08-.02.16-.04.24-.07 3.23-.88 5.3-3.81 5.81-6.72s.08-6.01-.59-9.27c-1.36-6.53-3.94-13.79-4.63-18.31-.68-4.54-.22-13.03 2.27-22.2 2.49-9.18 6.98-19.13 14.08-27.14.75-.85.94-2.05.47-3.07a2.83 2.83 0 0 0-2.62-1.68" transform="matrix(1.3881 0 0 2.8341 -382.223 -1314.83)"/><path d="M220.99 164.23c-1.083 43.277 1.499 80.829 2.04 102.708.458 18.507 2.499 40.981 3.65 59.006.556 8.786 1.389 30.495-1.207 41.463l5.58-.936c-1.665 1.077-2.9 2.523-4.76 1.474 7.69.199 5.482-35.313 4.413-47.13-1.582-17.686-4.164-39.735-5.066-57.873-1.069-21.114-4.553-57.136-4.65-98.712"/><path fill="#734700" fill-rule="evenodd" d="M133.41 61.15c92.13-38.93 107.73-69.81 204.36-10.02-32.5 19.04-61.51 42.6-113.53 50.08-57.67-10.52-71.29-25.6-90.83-40.06"/><path fill="#6a3500" d="M196.112 31.34a12.664 19.447-47.417 1 1-14.346 20.713 12.664 19.447-47.417 1 1 14.346-20.713"/><path fill="#472e00" d="M191.086 39.85a2.75 17.247-50.657 1 1-3.008 4.343 2.75 17.247-50.657 1 1 3.008-4.343"/><path fill="#6a3500" d="M239.166 26.988a12.27 20.073-24.83 1 1-20.837 12.64 12.27 20.073-24.83 1 1 20.837-12.64"/><path fill="#472e00" d="M231.4 32.562a2.662 17.818-27.143 1 1-4.37 2.651 2.662 17.818-27.143 1 1 4.37-2.65"/><path fill="#6a3500" d="M273.621 70.017a12.297 20.028 26.608 1 1-20.419-13.421 12.297 20.028 26.608 1 1 20.42 13.421"/><path fill="#472e00" d="M265.37 65.443a2.668 17.775 29.05 1 1-4.282-2.814 2.668 17.775 29.05 1 1 4.282 2.814"/><path fill="#6a3500" d="M288.223 52.706a12.25 20.106-23.492 1 1-21.138 12.038 12.25 20.106-23.492 1 1 21.138-12.038"/><path fill="#472e00" d="M280.308 58.015a2.657 17.848-25.702 1 1-4.432 2.524 2.657 17.848-25.702 1 1 4.432-2.524"/><path fill="#6a3500" d="M224.857 71.598a12.177 20.225-18.094 1 1-22.211 9.49 12.177 20.225-18.094 1 1 22.211-9.49"/><path fill="#472e00" d="M216.448 75.986a2.64 17.962-19.855 1 1-4.657 1.99 2.64 17.962-19.855 1 1 4.657-1.99"/><path fill="#6a3500" d="M311.936 55.478a12.2 20.187 19.917 1 1-21.875-10.371 12.2 20.187 19.917 1 1 21.875 10.37"/><path fill="#472e00" d="M303.168 52.136a2.646 17.926 21.835 1 1-4.587-2.174 2.646 17.926 21.835 1 1 4.587 2.174"/><path fill="#6a3500" d="M284.512 48.029a12.076 20.393 5.963 1 1-23.684-3.226 12.076 20.393 5.963 1 1 23.684 3.226"/><path fill="#472e00" d="M275.217 47.524a2.617 18.125 6.567 1 1-4.966-.676 2.617 18.125 6.567 1 1 4.966.676"/><path fill="#6a3500" d="M236.103 58.78a12.09 20.37-8.637 1 1-23.482 4.653 12.09 20.37-8.637 1 1 23.482-4.653"/><path fill="#472e00" d="M227.163 61.296a2.62 18.103-9.508 1 1-4.923.976 2.62 18.103-9.508 1 1 4.923-.976"/><path fill="#6a3500" d="M301.217 36.357a12.112 20.333 11.7 1 1-23.163-6.26 12.112 20.333 11.7 1 1 23.163 6.26"/><path fill="#472e00" d="M292.04 34.653a2.625 18.067 12.87 1 1-4.857-1.313 2.625 18.067 12.87 1 1 4.856 1.313"/><path fill="#6a3500" d="M199.46 63.349a12.064 20.415 0 1 1-23.87 0 12.064 20.415 0 1 1 23.87 0"/><path fill="#472e00" d="M190.175 64.102a2.614 18.147 0 1 1-5.005 0 2.614 18.147 0 1 1 5.005 0"/><path fill="#6a3500" d="M250.254 83.917a12.296 20.03 26.574 1 1-20.428-13.407 12.296 20.03 26.574 1 1 20.428 13.407"/><path fill="#472e00" d="M241.949 79.346a2.668 17.776 29.014 1 1-4.283-2.81 2.668 17.776 29.014 1 1 4.283 2.81"/><path fill="#6a3500" d="M259.06 47.949a12.064 20.415 0 1 1-23.87 0 12.064 20.415 0 1 1 23.87 0"/><path fill="#472e00" d="M249.775 48.702a2.614 18.147 0 1 1-5.005 0 2.614 18.147 0 1 1 5.005 0"/><path fill="#6a3500" d="M241.024 41.71a12.113 20.332-11.772 1 1-23.154 6.3 12.113 20.332-11.772 1 1 23.154-6.3"/><path fill="#472e00" d="M232.186 44.891a2.625 18.066-12.949 1 1-4.855 1.321 2.625 18.066-12.949 1 1 4.855-1.32"/><path fill="#6a3500" d="M217.383 60.055a12.504 19.696 38.6 1 1-17.127-18.051 12.504 19.696 38.6 1 1 17.127 18.05"/><path fill="#472e00" d="M210.238 53.574a2.715 17.468 41.686 1 1-3.591-3.785 2.715 17.468 41.686 1 1 3.59 3.785"/><path fill="#6a3500" d="M214.32 89.301a13.094 18.808 86.994 1 1-1.01-25.891 13.094 18.808 86.994 1 1 1.01 25.891"/><path fill="#472e00" d="M213.234 79.262a2.837 16.718 87.357 1 1-.212-5.43 2.837 16.718 87.357 1 1 .212 5.43"/><path fill="#6a3500" d="M259.919 41.564a12.93 19.049 64.412 1 1-8.64-24.158 12.93 19.049 64.412 1 1 8.64 24.158"/><path fill="#472e00" d="M255.91 32.44a2.805 16.91 67.05 1 1-1.81-5.066 2.805 16.91 67.05 1 1 1.81 5.065"/><path fill="#6a3500" d="M177.524 54.319a12.238 20.124-22.725 1 1-21.305 11.688 12.238 20.124-22.725 1 1 21.305-11.688"/><path fill="#472e00" d="M169.55 59.538a2.655 17.866-24.875 1 1-4.468 2.45 2.655 17.866-24.875 1 1 4.467-2.45"/><path fill="url(#f)" d="M655.24 788.82a261.74 61.373 0 1 1-523.47 0 261.74 61.373 0 1 1 523.47 0" filter="url(#e)" transform="matrix(.45605 0 0 .33576 -54.547 119.99)"/><path fill="url(#g)" fill-rule="evenodd" d="M204.49 267.41c-10.8-41.42-44.51-30.32-75.81-27.39-47.87 1.74-60.923 132.85 10.68 186.63-26.21-147.7-8.45-221.87 29.88-148.17 15.04 13.66 28.69-5.37 35.25-11.07" transform="matrix(.56487 0 0 .61326 -50.394 52.942)"/><path fill="none" stroke="#fff" stroke-width="3.8" d="M150.44 242.37c-68.755-80.49-143.7 52.99-41.49 172.13" filter="url(#h)" transform="matrix(.47372 0 0 .52824 -24.451 89.333)"/><path fill="url(#i)" d="M513.68 348.56c0 105.69-88.95 201.4-198.56 201.4-109.6 0-198.56-95.71-198.56-201.4 0-75.91 86.46-95.5 198.56-95.5s198.56 15.45 198.56 95.5" transform="matrix(.56487 0 0 .61326 -50.394 52.942)"/><path fill="#f9f9f9" d="M531.57 287.39c0 37.85-94.72 75.11-211.43 75.11s-211.43-37.26-211.43-75.11 94.72-62.03 211.43-62.03 211.43 24.18 211.43 62.03" filter="url(#j)" transform="matrix(.46733 0 0 .50737 -20.603 95.895)"/><path fill="url(#k)" stroke="#fefcfc" stroke-width="1.489" d="M482.95 307.43c0 28.71-75.19 56.97-167.83 56.97s-167.83-28.26-167.83-56.97 75.19-47.04 167.83-47.04 167.83 18.33 167.83 47.04z" transform="matrix(.56487 0 0 .61326 -50.394 52.942)"/><path fill="url(#l)" d="M464.94 327.06c-11.58 20.2-74.62 33.39-152.3 33.39s-133.28-14.74-146.51-31.85c-12.03-39.2 308.86-37.64 298.81-1.54" transform="matrix(.56487 0 0 .61326 -50.394 52.942)"/><path fill="url(#m)" d="M291.44 305.21c-40.23 3.81-84.54 38.79-12.29 48.28 79.59 10.45 199.46-10.77 176.54-27.96-27.17-22.2-136.91-26.81-164.25-20.32" opacity=".91" transform="matrix(.56487 0 0 .61326 -50.394 52.942)"/><text xml:space="preserve" x="849.805" y="8.933" font-family="Bitstream Vera Sans" font-size="12" transform="rotate(50 -2.272 -384.283)">
      
    </text></svg>