<svg xmlns="http://www.w3.org/2000/svg" version="1.0" viewBox="0 0 350 405.45"><defs><linearGradient id="e" x1="157.41" x2="477.9" y1="850.19" y2="788.82" gradientUnits="userSpaceOnUse"><stop offset="0" stop-color="#f393c4"/><stop offset="1" stop-color="#c7446f"/></linearGradient><linearGradient id="j" x1="230.26" x2="271.06" y1="342.92" y2="235.18" gradientTransform="matrix(.06879 0 0 .06879 1092.7 331.58)" gradientUnits="userSpaceOnUse"><stop offset="0" stop-color="#d99b9b"/><stop offset="1" stop-color="#f8b6d1" stop-opacity=".557"/></linearGradient><linearGradient id="k" x1="230.26" x2="271.06" y1="342.92" y2="235.18" gradientTransform="matrix(.05768 0 0 .04284 1095.8 340.36)" gradientUnits="userSpaceOnUse"><stop offset="0" stop-color="#4a2600"/><stop offset="1" stop-color="#673100"/></linearGradient><linearGradient id="l" x1="266.85" x2="189.25" y1="330.36" y2="237.22" gradientTransform="matrix(-.05768 0 .02897 .0474 1123.5 338.78)" gradientUnits="userSpaceOnUse"><stop offset="0" stop-color="#985f36"/><stop offset="1" stop-color="#673100"/></linearGradient><linearGradient id="a" x1="537.42" x2="537.42" y1="580.17" y2="508.72" gradientTransform="matrix(.43814 0 0 .89455 6.278 -350.54)" gradientUnits="userSpaceOnUse"><stop offset="0" stop-opacity=".678"/><stop offset=".57" stop-opacity=".329"/><stop offset="1" stop-opacity="0"/></linearGradient><linearGradient id="b" x1="274.7" x2="508.42" y1="620.6" y2="571.56" gradientTransform="matrix(.41006 .03214 0 .83723 20.515 -334.11)" gradientUnits="userSpaceOnUse"><stop offset="0" stop-color="#fff"/><stop offset="1" stop-color="#fff" stop-opacity="0"/></linearGradient><linearGradient id="c" x1="661.36" x2="566.57" y1="663.62" y2="568.83" gradientTransform="matrix(.41814 -.0068 0 .85373 17.707 -323.63)" gradientUnits="userSpaceOnUse"><stop offset="0" stop-color="#fff"/><stop offset="1" stop-color="#fff" stop-opacity="0"/></linearGradient><filter id="d" width="1.351" height="2.495" x="-.175" y="-.747"><feGaussianBlur stdDeviation="45.867"/></filter><filter id="g"><feGaussianBlur stdDeviation="2.88"/></filter><filter id="i"><feGaussianBlur stdDeviation="6.667"/></filter><radialGradient id="f" cx="106.71" cy="309.01" r="71.787" gradientTransform="matrix(.06672 .01918 -.03272 .12005 1102.6 313.74)" gradientUnits="userSpaceOnUse"><stop offset="0" stop-color="#c88ea2"/><stop offset=".5" stop-color="#d89bbe"/><stop offset="1" stop-color="#c8418b"/></radialGradient><radialGradient id="h" cx="245.71" cy="400.65" r="240" fx="291.43" fy="224.85" gradientTransform="matrix(.06879 0 0 .05143 1092.7 338.95)" gradientUnits="userSpaceOnUse" spreadMethod="reflect"><stop offset="0" stop-color="#c88ea2"/><stop offset=".5" stop-color="#d89bbe"/><stop offset="1" stop-color="#c8418b"/></radialGradient></defs><text xml:space="preserve" x="849.805" y="8.933" font-family="Bitstream Vera Sans" font-size="12" transform="rotate(50 -285.683 -85.035)">
      
    </text><path d="M248.023.033c-.33.057-.659.085-.988.198h-.041c-.042 0-.151.085-.179.085-.014 0-.11.085-.123.085-30.13 10.458-82.433 27.265-114.484 51.015-3.334 2.522-5.845 8.445-6.6 15.672-.15 1.417-.082 2.126-.082 3.174h-.041c-.014.227 0 .425 0 .624 0 .708-.069 1.87-.055 2.324h.137c-.027 5.186.672 10.514 2.442 14.596 9.358 21.652 15.45 49.256 18.825 74.933 3.361 25.593 3.842 50.221 3.087 60.565-.7 9.523-4.926 32.168-7.34 53.168-1.18 10.345-2.182 21.681-.975 33.726 1.386 13.83 6.586 26.13 14.146 29.674l.124.085c.22.085.425.113.644.17 29.952 10.4 36.36 14.567 66.463 36.843h.04c2.278 1.672 4.707 1.304 6.861-.255l.041.17c.343-.198.48-.34.727-.538.357-.227.796-.454 1.03-.596.096-.056.178-.113.26-.198 29.033-21.256 58.175-37.75 86.947-47.726.082-.029.151-.057.22-.085.288-.114.617-.284.905-.454 7.423-4.053 11.621-17.033 12.733-30.098.96-11.422.165-22.191-.865-32.422-2.071-20.746-5.817-43.079-6.6-53.764-.754-10.287-.246-34.944 3.13-60.565 3.374-25.677 9.466-53.28 18.824-74.934 1.687-3.91 2.442-9.069 2.442-14.34h.178c.028-.624-.096-1.247-.096-1.87 0-.312.069-.596.055-.88.233 3.685.26 3.543 0-.283h-.096c-.027-1.502 0-3.032-.206-4.59-.933-7.03-3.58-12.641-6.942-14.795C312.056 19.362 281.144 8.479 250.08.231c-.714-.255-1.29-.283-2.017-.198z"/><path fill="#bb7637" d="M249.846 10.055a2 2 0 0 0-.38.089c-.35.114-.412.165-.19.089-1.11.386-2.092 1.666-2.725 3.551-.634 1.882-.856 4.21-.666 6.457 5.64 58.732-.57 115.823-2.25 148.075-.506 9.885-2.058 22.906-3.42 36.244-1.363 13.307-2.504 26.867-1.87 39.223.19 2.946 1.077 5.48 2.408 6.716v1.078c.443-.032 1.014-.064 1.71-.19v-.064h.444c12.8-2.693 24.934-20.371 40.553-51.547 15.62-31.206 34.914-76.638 61.653-137.721.95-2.155 1.3-5.164.92-7.952-.381-2.82-1.427-5.006-2.789-5.862-30.351-19.063-61.273-29.898-92.543-38.097a2 2 0 0 0-.855-.089"/><path fill="peru" d="M249.497 10.144c-.063.025-.127.054-.222.089-30.541 10.47-83.545 27.585-114.815 50.491-1.33.982-2.345 3.327-2.63 6.21-.317 2.851.127 5.83 1.14 7.857 29.528 58.707 49.932 103.442 66.375 133.381s29.464 46.098 43.562 43.151c1.11-.222 2.123-1.362 2.82-3.105.697-1.774 1.045-4.023.919-6.304-.476-8.555.412-21.037 1.742-33.9 1.3-12.895 2.915-26.106 3.549-37.924 1.52-29.78 8.205-90.071 2.154-153.125-.412-4.388-2.408-7.37-4.594-6.821"/><path fill="url(#a)" d="M246.05 92.177c-.04.005-.07.017-.11.028h-.01c-.11.036-.13.052-.06.028-9.64 3.305-26.37 8.707-36.24 15.937-.42.31-.74 1.05-.83 1.95-.1.91.04 1.85.36 2.49 9.32 18.53 15.76 32.65 20.95 42.1 4.93 8.97 8.87 14 13.07 13.7.06 0 .16-.02.24-.03.1-.01.2-.01.3-.03.05 0 .09-.01.14-.02 4.04-.85 7.87-6.43 12.8-16.27 4.93-9.85 11.02-24.19 19.46-43.47.3-.68.41-1.64.29-2.52s-.45-1.57-.88-1.84c-9.58-6.017-19.34-9.437-29.21-12.025-.04-.013-.08.005-.12 0-.05-.006-.1-.034-.15-.028" transform="translate(-529.69 -281.98)scale(3.1682)"/><path fill="#b16c31" d="M135.632 62.055c-1.584.19-3.01 2.218-3.612 5.227-.602 3.042-.317 6.495.76 8.935 10.329 23.634 16.855 53.035 20.467 80.25 3.612 27.183 4.246 52.37 3.263 65.867-.982 13.021-5.259 34.692-7.508 54.208-1.14 9.758-1.87 19.168-.95 28.07.886 8.935 4.371 17.33 9.44 19.675.096.031.19.063.254.095 30.446 10.423 38.05 15.144 68.56 37.448 1.204.887 2.534.57 3.643-.887 19.643-25.948 32.728-41.409 41.535-55.159s13.624-27.436 14.574-45.78c.602-11.469-1.932-22.811-5.64-35.452-3.674-12.641-8.775-26.455-14.51-40.648-11.5-28.387-25.472-58.327-35.072-81.043-.697-1.647-1.647-2.693-2.724-2.914-32.728-6.495-60.735-15.335-90.833-37.385-.538-.38-1.077-.57-1.647-.507"/><path fill="url(#b)" d="M211.18 110.54c-.47.02-.89.59-1.07 1.47-.18.87-.09 1.91.23 2.65 3.05 7.22 4.98 16.06 6.04 24.18 1.07 8.12 1.26 15.57.97 19.54-.29 3.82-1.55 10.12-2.22 15.84-.34 2.85-.55 5.61-.28 8.27.26 2.66 1.29 5.22 2.79 6.03.03.01.05.02.08.03 8.99 3.79 11.23 5.35 20.24 12.65.36.29.76.22 1.08-.18 5.81-7.21 9.67-11.47 12.28-15.33 2.6-3.86 4.02-7.79 4.3-13.19.18-3.37-.58-6.78-1.66-10.6-1.09-3.82-2.6-8.02-4.3-12.34-3.39-8.66-7.52-17.83-10.35-24.75-.21-.51-.49-.84-.81-.93-9.66-2.68-17.94-5.94-26.83-13.15a.76.76 0 0 0-.49-.19" transform="translate(-529.69 -281.98)scale(3.1682)"/><path fill="peru" d="M341.977 49.73c-.57 0-1.109.254-1.648.698-28.45 25.377-81.106 45.527-113.01 49.423-1.869.254-3.453 3.105-3.801 6.907-6.051 63.142.57 123.433 2.123 153.246.918 17.583 3.485 38.969 5.069 56.14 1.077 11.438 3.263 45.876-4.404 45.686 1.87 1.014 3.073-.349 4.752-1.394 29.686-21.512 59.499-38.24 89.058-48.378.127-.032.254-.096.349-.159 4.689-2.534 7.73-11.215 8.459-19.833.76-8.649.127-17.868-.856-27.563-1.964-19.39-5.734-41.028-6.716-54.462-1.014-13.496-.349-38.715 3.295-65.898 3.612-27.183 10.138-56.616 20.466-80.25 1.078-2.503 1.363-6.052.697-9.125-.697-3.041-2.186-5.037-3.833-5.037"/><path fill="url(#c)" d="M274.29 106.67c-.17 0-.34.07-.5.22-8.56 7.78-24.43 14.11-34.03 15.44-.58.08-1.05.95-1.15 2.1-1.83 19.04.17 37.17.64 46.14.27 5.3 1.04 11.73 1.52 16.89.32 3.44.99 13.81-1.33 13.79.57.3.93-.13 1.44-.45 8.93-6.62 17.92-11.81 26.83-15 .03-.02.07-.04.1-.06 1.42-.79 2.32-3.41 2.55-6.02.22-2.6.03-5.37-.26-8.29-.6-5.83-1.73-12.33-2.03-16.37-.3-4.07-.1-11.66.99-19.87s3.06-17.11 6.17-24.27c.33-.76.41-1.83.21-2.75s-.65-1.52-1.15-1.5" transform="translate(-529.69 -281.98)scale(3.1682)"/><path d="M221.015 164.261c-1.109 43.246 1.489 80.852 2.028 102.713.443 18.502 2.503 40.965 3.643 58.992.57 8.776 1.394 30.51-1.204 41.472l5.576-.92c-1.679 1.046-2.883 2.504-4.752 1.458 7.667.19 5.48-35.325 4.404-47.11-1.584-17.711-4.15-39.762-5.07-57.916-1.045-21.1-4.53-57.122-4.625-98.689"/><path fill="#734700" fill-rule="evenodd" d="M133.414 61.136c92.132-38.918 107.72-69.805 204.38-10.011-32.505 19.04-61.526 42.612-113.547 50.089-57.662-10.519-71.285-25.6-90.833-40.078"/><path fill="#6a3500" d="M196.09 31.24a12.665 19.447-47.415 1 1-14.346 20.713 12.665 19.447-47.415 1 1 14.345-20.714"/><path fill="#472e00" d="M191.067 39.977a2.75 17.247-50.656 1 1-3.007 4.343 2.75 17.247-50.656 1 1 3.007-4.343"/><path fill="#6a3500" d="M238.913 26.92a12.269 20.073-24.831 1 1-20.837 12.641 12.269 20.073-24.831 1 1 20.837-12.641"/><path fill="#472e00" d="M231.132 32.501a2.662 17.817-27.144 1 1-4.369 2.65 2.662 17.817-27.144 1 1 4.37-2.65"/><path fill="#6a3500" d="M273.507 69.998a12.297 20.028 26.61 1 1-20.418-13.421 12.297 20.028 26.61 1 1 20.418 13.421"/><path fill="#472e00" d="M265.22 65.422a2.668 17.775 29.052 1 1-4.282-2.814 2.668 17.775 29.052 1 1 4.282 2.814"/><path fill="#6a3500" d="M288.08 52.664a12.25 20.106-23.492 1 1-21.138 12.039 12.25 20.106-23.492 1 1 21.138-12.039"/><path fill="#472e00" d="M280.166 58.016a2.657 17.849-25.702 1 1-4.433 2.524 2.657 17.849-25.702 1 1 4.433-2.524"/><path fill="#6a3500" d="M225.01 71.714a12.177 20.226-18.093 1 1-22.212 9.49 12.177 20.226-18.093 1 1 22.212-9.49"/><path fill="#472e00" d="M216.601 76.091a2.64 17.963-19.854 1 1-4.657 1.99 2.64 17.963-19.854 1 1 4.657-1.99"/><path fill="#6a3500" d="M312.12 55.455a12.2 20.188 19.916 1 1-21.876-10.37 12.2 20.188 19.916 1 1 21.876 10.37"/><path fill="#472e00" d="M303.324 52.101a2.646 17.927 21.834 1 1-4.586-2.174 2.646 17.927 21.834 1 1 4.586 2.174"/><path fill="#6a3500" d="M284.469 47.973a12.077 20.393 5.963 1 1-23.686-3.226 12.077 20.393 5.963 1 1 23.686 3.226"/><path fill="#472e00" d="M275.287 47.471a2.617 18.126 6.567 1 1-4.967-.676 2.617 18.126 6.567 1 1 4.967.676"/><path fill="#6a3500" d="M236.167 58.69a12.09 20.37-8.638 1 1-23.483 4.653 12.09 20.37-8.638 1 1 23.483-4.654"/><path fill="#472e00" d="M227.409 61.236a2.62 18.103-9.509 1 1-4.924.975 2.62 18.103-9.509 1 1 4.924-.975"/><path fill="#6a3500" d="M301.234 36.392a12.112 20.333 11.7 1 1-23.163-6.261 12.112 20.333 11.7 1 1 23.163 6.261"/><path fill="#472e00" d="M292.039 34.691a2.625 18.066 12.87 1 1-4.857-1.313 2.625 18.066 12.87 1 1 4.857 1.313"/><path fill="#6a3500" d="M199.269 63.35a12.064 20.416 0 1 1-23.87 0 12.064 20.416 0 1 1 23.87 0"/><path fill="#472e00" d="M190.165 64.098a2.614 18.147 0 1 1-5.005 0 2.614 18.147 0 1 1 5.005 0"/><path fill="#6a3500" d="M250.343 83.904a12.297 20.03 26.574 1 1-20.429-13.406 12.297 20.03 26.574 1 1 20.429 13.406"/><path fill="#472e00" d="M242.052 79.334a2.668 17.776 29.013 1 1-4.283-2.811 2.668 17.776 29.013 1 1 4.283 2.81"/><path fill="#6a3500" d="M258.831 47.953a12.064 20.416 0 1 1-23.87 0 12.064 20.416 0 1 1 23.87 0"/><path fill="#472e00" d="M249.727 48.7a2.614 18.147 0 1 1-5.004 0 2.614 18.147 0 1 1 5.004 0"/><path fill="#6a3500" d="M240.916 41.685a12.113 20.332-11.772 1 1-23.155 6.298 12.113 20.332-11.772 1 1 23.155-6.298"/><path fill="#472e00" d="M232.347 44.858a2.626 18.066-12.949 1 1-4.855 1.32 2.626 18.066-12.949 1 1 4.855-1.32"/><path fill="#6a3500" d="M217.338 60.103a12.504 19.696 38.597 1 1-17.127-18.05 12.504 19.696 38.597 1 1 17.127 18.05"/><path fill="#472e00" d="M210.202 53.648a2.715 17.47 41.684 1 1-3.59-3.785 2.715 17.47 41.684 1 1 3.59 3.785"/><path fill="#6a3500" d="M214.279 89.138a13.094 18.808 86.994 1 1-1.01-25.892 13.094 18.808 86.994 1 1 1.01 25.892"/><path fill="#472e00" d="M213.21 79.37a2.837 16.718 87.357 1 1-.212-5.429 2.837 16.718 87.357 1 1 .211 5.429"/><path fill="#6a3500" d="M259.963 41.465a12.929 19.048 64.412 1 1-8.64-24.157 12.929 19.048 64.412 1 1 8.64 24.157"/><path fill="#472e00" d="M255.959 32.397a2.805 16.91 67.05 1 1-1.812-5.065 2.805 16.91 67.05 1 1 1.812 5.065"/><path fill="#6a3500" d="M177.483 54.385a12.238 20.124-22.726 1 1-21.305 11.689 12.238 20.124-22.726 1 1 21.305-11.689"/><path fill="#472e00" d="M169.494 59.59a2.655 17.866-24.875 1 1-4.467 2.45 2.655 17.866-24.875 1 1 4.467-2.45"/><path fill="url(#e)" d="M655.24 788.82a261.74 61.373 0 1 1-523.47 0 261.74 61.373 0 1 1 523.47 0" filter="url(#d)" transform="matrix(.45607 0 0 .33576 -54.439 119.981)"/><path fill="url(#f)" fill-rule="evenodd" d="M1105.3 348.4c-.9-3.44-3.7-2.52-6.3-2.27-4 .14-5.1 11.04.9 15.51-2.2-12.28-.7-18.44 2.5-12.32 1.2 1.14 2.4-.44 2.9-.92" transform="matrix(6.7942 0 0 7.3761 -7444.49 -2352.93)"/><path fill="none" stroke="#fff" stroke-width="3.8" d="M150.44 242.37c-68.755-80.49-143.7 52.99-41.49 172.13" filter="url(#g)" transform="matrix(.47373 0 0 .52825 -24.544 89.297)"/><path fill="url(#h)" d="M1131 355.15c0 8.79-7.4 16.74-16.5 16.74s-16.5-7.95-16.5-16.74c0-6.31 7.2-7.94 16.5-7.94s16.5 1.28 16.5 7.94" transform="matrix(6.7942 0 0 7.3761 -7444.49 -2352.93)"/><path fill="#f9f9f9" d="M531.57 287.39c0 37.85-94.72 75.11-211.43 75.11s-211.43-37.26-211.43-75.11 94.72-62.03 211.43-62.03 211.43 24.18 211.43 62.03" filter="url(#i)" transform="matrix(.46735 0 0 .50737 -20.468 95.861)"/><path fill="url(#j)" stroke="#fefcfc" stroke-width=".124" d="M1128.5 351.73c0 2.39-6.3 4.74-14 4.74s-14-2.35-14-4.74 6.3-3.91 14-3.91 14 1.52 14 3.91z" transform="matrix(6.7942 0 0 7.3761 -7444.49 -2352.93)"/><path fill="url(#k)" d="M1127 353.36c-1 1.68-6.2 2.78-12.7 2.78s-11.1-1.23-12.2-2.65c-1-3.26 25.7-3.13 24.9-.13" transform="matrix(6.7942 0 0 7.3761 -7444.49 -2352.93)"/><path fill="url(#l)" d="M1112.5 351.55c-3.3.31-7 3.22-1 4.01 6.6.87 16.6-.9 14.7-2.33-2.3-1.84-11.4-2.22-13.7-1.68" opacity=".91" transform="matrix(6.7942 0 0 7.3761 -7444.49 -2352.93)"/></svg>