<svg xmlns="http://www.w3.org/2000/svg" version="1.0" viewBox="0 0 350 405.45"><defs><linearGradient id="a" x1="537.42" x2="537.42" y1="580.17" y2="508.72" gradientTransform="translate(-91.905 -27.434)" gradientUnits="userSpaceOnUse"><stop offset="0" stop-opacity=".678"/><stop offset=".57" stop-opacity=".329"/><stop offset="1" stop-opacity="0"/></linearGradient><linearGradient id="b" x1="274.7" x2="508.42" y1="620.6" y2="571.56" gradientTransform="matrix(.93592 .03593 0 .93592 -59.411 -9.066)" gradientUnits="userSpaceOnUse"><stop offset="0" stop-color="#fff"/><stop offset="1" stop-color="#fff" stop-opacity="0"/></linearGradient><linearGradient id="c" x1="661.36" x2="566.57" y1="663.62" y2="568.83" gradientTransform="matrix(.95436 -.0076 0 .95436 -65.819 2.656)" gradientUnits="userSpaceOnUse"><stop offset="0" stop-color="#fff"/><stop offset="1" stop-color="#fff" stop-opacity="0"/></linearGradient><linearGradient id="e" x1="157.41" x2="477.9" y1="850.19" y2="788.82" gradientUnits="userSpaceOnUse"><stop offset="0" stop-color="#f35f5f"/><stop offset="1" stop-color="#bf2222"/></linearGradient><linearGradient id="j" x1="230.26" x2="271.06" y1="342.92" y2="235.18" gradientTransform="matrix(.06879 0 0 .06879 1107 361.05)" gradientUnits="userSpaceOnUse"><stop offset="0" stop-color="#d94141"/><stop offset="1" stop-color="#f8b0ae" stop-opacity=".557"/></linearGradient><linearGradient id="k" x1="230.26" x2="271.06" y1="342.92" y2="235.18" gradientTransform="matrix(.05768 0 0 .04284 1110.1 369.83)" gradientUnits="userSpaceOnUse"><stop offset="0" stop-color="#4a2600"/><stop offset="1" stop-color="#673100"/></linearGradient><linearGradient id="l" x1="266.85" x2="189.25" y1="330.36" y2="237.22" gradientTransform="matrix(-.05768 0 .02897 .0474 1137.8 368.25)" gradientUnits="userSpaceOnUse"><stop offset="0" stop-color="#985f36"/><stop offset="1" stop-color="#673100"/></linearGradient><filter id="d" width="1.351" height="2.495" x="-.175" y="-.747"><feGaussianBlur stdDeviation="45.867"/></filter><filter id="g"><feGaussianBlur stdDeviation="2.88"/></filter><filter id="i"><feGaussianBlur stdDeviation="6.667"/></filter><radialGradient id="f" cx="106.71" cy="309.01" r="71.787" gradientTransform="matrix(.06672 .01918 -.03272 .12005 1116.9 343.2)" gradientUnits="userSpaceOnUse"><stop offset="0" stop-color="#c84141"/><stop offset=".5" stop-color="#d86161"/><stop offset="1" stop-color="#c80f0f"/></radialGradient><radialGradient id="h" cx="245.71" cy="400.65" r="240" fx="291.43" fy="224.85" gradientTransform="matrix(.06879 0 0 .05143 1107 368.42)" gradientUnits="userSpaceOnUse" spreadMethod="reflect"><stop offset="0" stop-color="#c84141"/><stop offset=".5" stop-color="#d85757"/><stop offset="1" stop-color="#c80d0d"/></radialGradient></defs><path d="M248.058.038c-.329.056-.658.085-.988.198h-.04c-.042 0-.152.085-.179.085-.014 0-.11.085-.124.085-30.13 10.458-82.433 27.264-114.485 51.014-3.334 2.523-5.845 8.446-6.6 15.673-.15 1.417-.082 2.125-.082 3.174h-.041c-.014.227 0 .425 0 .624 0 .708-.069 1.87-.055 2.324h.137c-.027 5.186.673 10.514 2.443 14.595 9.357 21.653 15.449 49.257 18.824 74.934 3.362 25.592 3.842 50.22 3.087 60.565-.7 9.523-4.925 32.167-7.34 53.168-1.18 10.345-2.182 21.681-.974 33.726 1.386 13.83 6.586 26.13 14.146 29.673q.06.043.123.085c.22.085.426.114.645.17 29.952 10.402 36.36 14.568 66.463 36.844h.041c2.278 1.672 4.706 1.304 6.86-.255l.042.17c.343-.199.48-.34.727-.539.357-.226.796-.453 1.029-.595.096-.057.178-.113.26-.198 29.034-21.256 58.176-37.75 86.949-47.727a6.753 6.753 0 0 0 1.125-.538c7.423-4.053 11.621-17.033 12.733-30.098.96-11.422.164-22.192-.865-32.423-2.072-20.745-5.817-43.078-6.6-53.763-.754-10.288-.246-34.944 3.129-60.565 3.375-25.677 9.467-53.281 18.825-74.934 1.687-3.91 2.442-9.069 2.442-14.34h.178c.028-.624-.096-1.247-.096-1.87 0-.313.069-.596.055-.88.233 3.685.26 3.543 0-.283h-.096c-.027-1.502 0-3.032-.206-4.591-.933-7.029-3.58-12.64-6.942-14.794C312.093 19.366 281.18 8.483 250.116.236c-.713-.255-1.29-.283-2.016-.198z"/><path fill="#bb7637" d="M249.88 10.056c-.14.029-.264.057-.403.085-.32.114-.389.17-.167.085-1.11.397-2.082 1.673-2.72 3.571-.639 1.87-.875 4.195-.667 6.462 5.636 58.723-.583 115.802-2.248 148.083-.514 9.862-2.083 22.9-3.429 36.22-1.36 13.32-2.526 26.895-1.874 39.224.167 2.947 1.083 5.498 2.388 6.745v1.048c.458-.028 1.04-.056 1.735-.17v-.085h.444c12.785-2.692 24.93-20.349 40.547-51.552 15.63-31.204 34.925-76.635 61.646-137.71.958-2.154 1.305-5.158.916-7.964-.375-2.805-1.43-5.016-2.776-5.866-30.344-19.045-61.285-29.872-92.532-38.09-.291-.086-.583-.114-.86-.086"/><path fill="peru" d="M249.533 10.141c-.084.029-.153.057-.223.085-30.538 10.487-83.564 27.605-114.824 50.504-1.347.992-2.346 3.345-2.638 6.207-.305 2.862.139 5.838 1.166 7.879 29.511 58.694 49.917 103.417 66.366 133.373 16.45 29.928 29.456 46.083 43.559 43.135 1.097-.226 2.124-1.36 2.818-3.117s1.027-4.025.902-6.292c-.444-8.53.43-21.029 1.735-33.896s2.943-26.102 3.568-37.92c1.54-29.758 8.203-90.068 2.165-153.127-.416-4.393-2.429-7.37-4.594-6.83"/><path fill="url(#a)" d="m455.35 467.47-.25.03h-.04c-.23.04-.28.06-.12.03-22 3.7-60.2 9.74-82.72 17.82-.97.35-1.69 1.18-1.91 2.18-.21 1.01.11 2.07.85 2.79 21.26 20.71 35.96 36.49 47.81 47.06 11.24 10.02 20.24 15.65 29.81 15.31.15 0 .38-.02.57-.03.22-.01.45-.01.68-.03l.32-.03c9.21-.95 17.96-7.18 29.21-18.19 11.26-11.01 25.16-27.04 44.41-48.59.69-.76.93-1.83.66-2.82a3.02 3.02 0 0 0-2-2.06c-21.86-6.72-44.15-10.54-66.66-13.44-.09-.01-.19.01-.28 0-.12 0-.23-.03-.34-.03" transform="matrix(1.38812 0 0 2.83411 -382.199 -1314.807)"/><path fill="#b16c31" d="M135.652 62.062c-1.597.17-2.999 2.21-3.61 5.243-.61 3.005-.319 6.49.75 8.928 10.328 23.608 16.852 53.026 20.475 80.234 3.623 27.179 4.247 52.374 3.262 65.893-.972 13.008-5.247 34.69-7.51 54.188-1.138 9.778-1.86 19.159-.958 28.086s4.4 17.317 9.453 19.669c.098.028.18.057.264.085 30.441 10.43 38.034 15.134 68.545 37.467 1.208.85 2.554.538 3.637-.907 19.67-25.96 32.746-41.406 41.56-55.152 8.815-13.774 13.618-27.434 14.575-45.8.597-11.449-1.957-22.785-5.635-35.426-3.693-12.64-8.8-26.442-14.534-40.64-11.48-28.427-25.472-58.355-35.05-81.056-.694-1.644-1.68-2.693-2.734-2.92-32.732-6.49-60.744-15.332-90.839-37.382-.527-.396-1.082-.566-1.651-.51"/><path fill="url(#b)" d="M375.76 488c-1.08.02-2.02.66-2.44 1.64-.41.98-.21 2.13.51 2.96 6.97 8.07 11.37 17.96 13.81 27.03 2.44 9.08 2.86 17.41 2.19 21.85-.65 4.27-3.53 11.32-5.06 17.7-.76 3.2-1.25 6.28-.64 9.25s2.96 5.83 6.37 6.74l.18.03c20.52 4.24 25.64 5.98 46.21 14.15.82.32 1.73.24 2.46-.2 13.25-8.07 22.07-12.83 28.01-17.15 5.95-4.31 9.19-8.7 9.83-14.74.4-3.76-1.32-7.57-3.8-11.84s-5.93-8.97-9.8-13.8c-7.74-9.68-17.17-19.93-23.63-27.67-.47-.57-1.13-.94-1.84-1.04-22.07-2.99-40.95-6.64-61.25-14.69-.35-.15-.73-.22-1.11-.22" transform="matrix(1.38812 0 0 2.83411 -382.199 -1314.807)"/><path fill="peru" d="M342.009 49.734c-.57 0-1.125.255-1.652.708-28.443 25.366-81.108 45.516-112.993 49.427-1.901.255-3.47 3.09-3.817 6.916-6.066 63.115.583 123.425 2.124 153.212.902 17.6 3.484 38.997 5.066 56.144 1.07 11.45 3.276 45.884-4.414 45.714 1.86.992 3.096-.397 4.761-1.417 29.664-21.483 59.509-38.232 89.062-48.379a1 1 0 0 0 .347-.17c4.706-2.522 7.718-11.194 8.454-19.838.75-8.616.125-17.827-.861-27.548-1.971-19.385-5.733-41.038-6.719-54.472-.999-13.49-.333-38.685 3.29-65.893 3.623-27.179 10.147-56.597 20.475-80.233 1.097-2.495 1.374-6.066.694-9.126s-2.165-5.045-3.817-5.045"/><path fill="url(#c)" d="M519.8 483.67c-.39 0-.78.09-1.13.25-19.56 8.69-55.77 15.77-77.69 17.26a2.88 2.88 0 0 0-2.63 2.34c-4.17 21.29.4 41.56 1.46 51.59.63 5.92 2.4 13.11 3.49 18.88.73 3.85 2.25 15.43-3.04 15.41 1.29.33 2.13-.14 3.28-.5 20.4-7.4 40.91-13.2 61.23-16.77.08-.02.16-.04.24-.07 3.23-.88 5.3-3.81 5.81-6.72s.08-6.01-.59-9.27c-1.36-6.53-3.94-13.79-4.63-18.31-.68-4.54-.22-13.03 2.27-22.2 2.49-9.18 6.98-19.13 14.08-27.14.75-.85.94-2.05.47-3.07a2.83 2.83 0 0 0-2.62-1.68" transform="matrix(1.38812 0 0 2.83411 -382.199 -1314.807)"/><path d="M221.02 164.26c-1.082 43.277 1.5 80.83 2.041 102.709.458 18.506 2.499 40.981 3.65 59.006.556 8.786 1.389 30.495-1.207 41.463l5.58-.935c-1.665 1.077-2.9 2.522-4.76 1.474 7.69.198 5.482-35.314 4.413-47.132-1.582-17.685-4.164-39.734-5.066-57.872-1.069-21.115-4.553-57.136-4.65-98.713"/><path fill="#734700" fill-rule="evenodd" d="M133.426 61.149c92.131-38.925 107.719-69.811 204.38-10.015-32.505 19.038-61.526 42.597-113.548 50.077-57.661-10.522-71.284-25.6-90.832-40.062"/><path fill="#6a3500" d="M196.273 31.323a12.665 19.447-47.414 1 1-14.346 20.714 12.665 19.447-47.414 1 1 14.346-20.714"/><path fill="#472e00" d="M191.247 39.834a2.75 17.248-50.656 1 1-3.008 4.343 2.75 17.248-50.656 1 1 3.008-4.343"/><path fill="#6a3500" d="M239.429 26.866a12.27 20.074-24.831 1 1-20.839 12.641 12.27 20.074-24.831 1 1 20.839-12.641"/><path fill="#472e00" d="M231.661 32.44a2.662 17.818-27.144 1 1-4.37 2.651 2.662 17.818-27.144 1 1 4.37-2.65"/><path fill="#6a3500" d="M273.73 70.087a12.297 20.029 26.608 1 1-20.418-13.423 12.297 20.029 26.608 1 1 20.419 13.423"/><path fill="#472e00" d="M265.479 65.512a2.668 17.776 29.05 1 1-4.282-2.814 2.668 17.776 29.05 1 1 4.282 2.814"/><path fill="#6a3500" d="M288.193 52.778a12.25 20.106-23.492 1 1-21.138 12.038 12.25 20.106-23.492 1 1 21.138-12.038"/><path fill="#472e00" d="M280.278 58.087a2.657 17.849-25.702 1 1-4.432 2.524 2.657 17.849-25.702 1 1 4.432-2.524"/><path fill="#6a3500" d="M224.955 71.641a12.177 20.225-18.094 1 1-22.212 9.49 12.177 20.225-18.094 1 1 22.212-9.49"/><path fill="#472e00" d="M216.546 76.03a2.64 17.963-19.854 1 1-4.658 1.99 2.64 17.963-19.854 1 1 4.658-1.99"/><path fill="#6a3500" d="M311.861 55.485a12.2 20.188 19.917 1 1-21.875-10.37 12.2 20.188 19.917 1 1 21.875 10.37"/><path fill="#472e00" d="M303.093 52.144a2.646 17.926 21.835 1 1-4.587-2.175 2.646 17.926 21.835 1 1 4.587 2.175"/><path fill="#6a3500" d="M284.354 48.011a12.077 20.394 5.963 1 1-23.685-3.226 12.077 20.394 5.963 1 1 23.685 3.226"/><path fill="#472e00" d="M275.058 47.507a2.617 18.126 6.567 1 1-4.966-.677 2.617 18.126 6.567 1 1 4.966.677"/><path fill="#6a3500" d="M236.095 58.778a12.09 20.37-8.637 1 1-23.482 4.654 12.09 20.37-8.637 1 1 23.482-4.654"/><path fill="#472e00" d="M227.155 61.295a2.62 18.103-9.508 1 1-4.924.976 2.62 18.103-9.508 1 1 4.924-.976"/><path fill="#6a3500" d="M301.18 36.41a12.113 20.334 11.7 1 1-23.162-6.261 12.113 20.334 11.7 1 1 23.163 6.261"/><path fill="#472e00" d="M292.003 34.705a2.625 18.067 12.87 1 1-4.857-1.312 2.625 18.067 12.87 1 1 4.857 1.312"/><path fill="#6a3500" d="M199.539 63.332a12.064 20.416 0 1 1-23.87 0 12.064 20.416 0 1 1 23.87 0"/><path fill="#472e00" d="M190.253 64.085a2.614 18.147 0 1 1-5.005 0 2.614 18.147 0 1 1 5.005 0"/><path fill="#6a3500" d="M250.084 83.685a12.296 20.03 26.574 1 1-20.428-13.406 12.296 20.03 26.574 1 1 20.428 13.406"/><path fill="#472e00" d="M241.779 79.114a2.668 17.776 29.014 1 1-4.284-2.81 2.668 17.776 29.014 1 1 4.284 2.81"/><path fill="#6a3500" d="M259.1 47.934a12.064 20.416 0 1 1-23.87 0 12.064 20.416 0 1 1 23.87 0"/><path fill="#472e00" d="M249.815 48.688a2.614 18.147 0 1 1-5.005 0 2.614 18.147 0 1 1 5.005 0"/><path fill="#6a3500" d="M241.095 41.696a12.113 20.333-11.772 1 1-23.154 6.299 12.113 20.333-11.772 1 1 23.154-6.3"/><path fill="#472e00" d="M232.257 44.877a2.626 18.066-12.948 1 1-4.855 1.32 2.626 18.066-12.948 1 1 4.855-1.32"/><path fill="#6a3500" d="M217.354 60.192a12.505 19.696 38.598 1 1-17.127-18.052 12.505 19.696 38.598 1 1 17.127 18.052"/><path fill="#472e00" d="M210.209 53.71a2.715 17.468 41.685 1 1-3.592-3.785 2.715 17.468 41.685 1 1 3.592 3.785"/><path fill="#6a3500" d="M214.26 89.3a13.095 18.808 86.994 1 1-1.01-25.893 13.095 18.808 86.994 1 1 1.01 25.892"/><path fill="#472e00" d="M213.174 79.26a2.837 16.718 87.357 1 1-.211-5.43 2.837 16.718 87.357 1 1 .211 5.43"/><path fill="#6a3500" d="M259.931 41.516a12.93 19.05 64.413 1 1-8.64-24.157 12.93 19.05 64.413 1 1 8.64 24.157"/><path fill="#472e00" d="M255.923 32.392a2.805 16.91 67.051 1 1-1.811-5.066 2.805 16.91 67.051 1 1 1.811 5.066"/><path fill="#6a3500" d="M177.703 54.228a12.238 20.124-22.725 1 1-21.305 11.689 12.238 20.124-22.725 1 1 21.305-11.689"/><path fill="#472e00" d="M169.728 59.447a2.655 17.866-24.875 1 1-4.467 2.451 2.655 17.866-24.875 1 1 4.467-2.45"/><path fill="url(#e)" d="M655.24 788.82a261.74 61.373 0 1 1-523.47 0 261.74 61.373 0 1 1 523.47 0" filter="url(#d)" transform="matrix(.45607 0 0 .33576 -54.642 120.022)"/><path fill="url(#f)" fill-rule="evenodd" d="M1119.6 377.87c-.9-3.44-3.7-2.52-6.3-2.28-4 .15-5.1 11.05.9 15.52-2.2-12.28-.7-18.45 2.5-12.32 1.2 1.14 2.4-.45 2.9-.92" transform="matrix(6.7942 0 0 7.3762 -7541.855 -2570.3)"/><path fill="none" stroke="#fff" stroke-width="3.8" d="M150.44 242.37c-68.755-80.49-143.7 52.99-41.49 172.13" filter="url(#g)" transform="matrix(.47373 0 0 .52825 -24.747 89.337)"/><path fill="url(#h)" d="M1145.3 384.62c0 8.78-7.4 16.74-16.5 16.74s-16.5-7.96-16.5-16.74c0-6.31 7.2-7.94 16.5-7.94s16.5 1.28 16.5 7.94" transform="matrix(6.7942 0 0 7.3762 -7541.855 -2570.3)"/><path fill="#f9f9f9" d="M531.57 287.39c0 37.85-94.72 75.11-211.43 75.11s-211.43-37.26-211.43-75.11 94.72-62.03 211.43-62.03 211.43 24.18 211.43 62.03" filter="url(#i)" transform="matrix(.46735 0 0 .50738 -20.67 95.902)"/><path fill="url(#j)" stroke="#fefcfc" stroke-width=".124" d="M1142.8 381.2c0 2.38-6.3 4.73-14 4.73s-13.9-2.35-13.9-4.73c0-2.39 6.2-3.91 13.9-3.91s14 1.52 14 3.91z" transform="matrix(6.7942 0 0 7.3762 -7541.855 -2570.3)"/><path fill="url(#k)" d="M1141.3 382.83c-1 1.68-6.2 2.78-12.7 2.78s-11.1-1.23-12.2-2.65c-1-3.26 25.7-3.13 24.9-.13" transform="matrix(6.7942 0 0 7.3762 -7541.855 -2570.3)"/><path fill="url(#l)" d="M1126.8 381.01c-3.3.32-7 3.23-1 4.02 6.6.87 16.6-.9 14.7-2.33-2.3-1.84-11.4-2.23-13.7-1.69" opacity=".91" transform="matrix(6.7942 0 0 7.3762 -7541.855 -2570.3)"/><text xml:space="preserve" x="849.805" y="8.933" font-family="Bitstream Vera Sans" font-size="12" transform="rotate(50 -394.356 -214.506)">
      
    </text></svg>