<svg xmlns="http://www.w3.org/2000/svg" xml:space="preserve" viewBox="0 0 1920 1422"><g stroke-width=".3"><path fill="#61A6B6" stroke="#61A6B6" d="M0 0h1216.89c-1.08 10.33.42 20.7.52 31.05.79 27.66 1.85 55.3 2.9 82.96-.03 13.01 1.43 25.97 1.4 38.99 1.01 25.35 1.8 50.69 2.8 76.04-.1 9.99 1.1 19.93 1.1 29.92.03 9.25.57 18.48.94 27.72 19.62-3.92 38.9-9.35 58.42-13.75 211.67-51.01 423.35-101.97 635.03-152.95v399.03l-.93.6c-9.91 2.71-19.48 6.49-29.26 9.58-8.52 1.96-16.67 5.17-24.93 7.97-12.23 5.06-25.2 7.9-37.63 12.36-9.91 3.01-19.37 7.27-29.29 10.24-13.97 3.94-27.68 8.71-41.44 13.28-4.29 1.94-8.86 3.03-13.37 4.28-16.76 5.67-33.57 11.18-50.39 16.64-7.55 3.26-15.65 4.82-23.31 7.73-9.2 2.74-18.02 6.55-27.22 9.24-10.57 3.07-20.77 7.3-31.35 10.33-9.51 2.36-18.62 6.04-28 8.82-10.38 3.55-20.98 6.47-31.18 10.5-9.67 2.75-18.98 6.58-28.67 9.29-10.62 2.76-20.72 7.14-31.27 10.1-7.7 2.13-14.9 6.04-22.93 6.88-9.46-12.92-20.6-24.9-34.24-33.46-7.98-4.89-17.12-8.74-26.65-8.25-8.11.23-16.02 4.43-20.68 11.07-4 5.51-5.85 12.25-6.63 18.93-1.32 13.38 1.17 26.84 5.24 39.56-5.55 1.77-10.9 4.41-16.76 5.01-3.59-33.73-7.38-67.43-11.07-101.14 9.98-2.44 19.67-5.94 29.4-9.22 20.12-5.95 39.89-12.94 59.96-19.06 67.09-21.33 134.06-42.98 200.95-64.91 38.22-12.83 76.62-25.03 114.62-38.5 8.93-3.49 18.29-5.9 26.94-10.09 1.22-.47 1.68-1.76 2.51-2.67-12.16.46-24 3.52-35.99 5.29-9.59 1.42-18.97 3.92-28.49 5.67-75.83 15.55-151.26 33.02-226.76 50.11-20.71 5.15-41.65 9.33-62.37 14.47-11.52 2.44-22.85 5.7-34.44 7.82-9.92 2.29-19.77 4.87-29.71 7.04-7.39 1.41-14.56 3.9-22.07 4.55-.77-5.68-.83-11.5-2.46-17.03-4.96-16.13-9.84-32.28-14.77-48.42-23.1-7.05-46.33-13.7-69.44-20.71-.14-.87-.26-1.74-.36-2.6 9.81-3.06 19.2-7.21 28.73-11.01 30.34-11.49 60.28-24.03 90.68-35.38 16.56-7 33.45-13.2 50.17-19.82 38.27-15.24 76.79-29.82 115.14-44.84 39.57-15.25 79.2-30.36 119.02-44.93 3.61-1.27 7.23-2.54 10.76-4.08-4.58.01-8.99 1.28-13.4 2.29-44.42 8.36-88.9 16.34-133.47 23.84-111.3 19.49-222.85 37.55-334.29 56.27-13.33 1.97-26.65 4.03-39.9 6.5-9.33 1.83-18.83 2.7-28.13 4.68-10.74 2.2-21.94 2.45-32.36 6.03-17.2-3.48-35.63-2.33-51.72 4.95-4.55 2-8.21 5.55-12.75 7.54-3.56.36-7.21-.33-10.44-1.85-11.82-5.51-23.76-10.76-35.59-16.24 20.82-5.69 41.87-10.54 62.78-15.9-2.49-28.31-5.44-56.59-7.76-84.91 3.31.13 6.91.34 9.79-1.62 2.44-1.53 4.02-4.01 5.75-6.24 4.95-.62 9.92-1.12 14.87-1.84 3.24-25.48 6.63-50.94 9.95-76.41-10.8 2.98-21.49 6.35-32.26 9.39.94-5.19 2.37-10.49 1.38-15.8-2.22-12.31-8.36-23.38-12.59-35.04-1.47-3.08.97-5.98 2.62-8.4 7.69-10.03 16.9-19.39 21.16-31.55 2.61-7.06 2.22-15.32-1.97-21.69-5.7-9.18-16.07-13.96-26.11-16.79-17.75-4.79-36.33-4.88-54.58-4.83-30.86.78-61.06-6.75-91.73-8.77-2.08-.42-4.13-.95-6.17-1.45 43.61-13.47 87.25-26.86 130.84-40.43 7.08-2.24 14.38-3.86 21.23-6.78-8.74-.61-17.5-.18-26.24-.02-12.31 1.22-24.69.56-37.03.95-14.92 1.5-29.95.41-44.9 1.17-13.95 1.46-28.02-.08-41.97 1.45-13.04.64-26.13-.34-39.15.93-8.63.6-17.29.03-25.92.51-14.3 1.4-28.69.29-43.01 1.1-12.96 1.42-26.05-.06-39.01 1.35-12 .77-24.07-.3-36.05 1-12.03.68-24.13-.25-36.15.93-15.24.86-30.56-.2-45.77 1.23-10.6.41-21.22-.12-31.8.57-8.05.9-16.14.48-24.21.63-8.35-.19-16.62 1.25-24.96.91-9.38.3-18.79-.25-28.14.67-10.6.85-21.26-.17-31.86.72-12 1.17-24.08.2-36.1.93-15.28 1.46-30.68-.01-45.95 1.5-9.99.5-20.01-.08-30 .47-12.27 1.37-24.64.29-36.93 1.12-14.97 1.34-30.05-.13-45.01 1.44-12.01.53-24.08-.32-36.06.87-9.32.67-18.67.06-27.99.46-15.29 1.5-30.68.41-46 1.22-12.17 1.27-24.44.08-36.62 1.13-11.81 1.16-23.72-.19-35.53 1.13-8.6.62-17.23.18-25.85.43-8.69-.3-17.3 1.22-25.99.92-8.31.18-16.63-.14-24.93.4-8.66.95-17.38.47-26.08.69z"/><path fill="#95B7C3" stroke="#95B7C3" d="M1216.89 0h29.23c3.09 84.69 5.88 169.38 9.19 254.06 44.97-10.48 89.79-21.59 134.7-32.3 172.62-41.57 345.24-83.14 517.86-124.72 4.04-.99 8.13-1.83 12.13-3.03v25.97c-211.68 50.98-423.36 101.94-635.03 152.95-19.52 4.4-38.8 9.83-58.42 13.75-.37-9.24-.91-18.47-.94-27.72 0-9.99-1.2-19.93-1.1-29.92-1-25.35-1.79-50.69-2.8-76.04.03-13.02-1.43-25.98-1.4-38.99-1.05-27.66-2.11-55.3-2.9-82.96-.1-10.35-1.6-20.72-.52-31.05z"/><path fill="#FFF" stroke="#FFF" d="M1246.12 0H1920v94.01c-4 1.2-8.09 2.04-12.13 3.03-172.62 41.58-345.24 83.15-517.86 124.72-44.91 10.71-89.73 21.82-134.7 32.3-3.31-84.68-6.1-169.37-9.19-254.06z"/><path fill="#5C99AB" stroke="#5C99AB" d="M971.94 26.13c12.34-.39 24.72.27 37.03-.95 8.74-.16 17.5-.59 26.24.02-6.85 2.92-14.15 4.54-21.23 6.78-43.59 13.57-87.23 26.96-130.84 40.43 2.04.5 4.09 1.03 6.17 1.45-8.94-.34-17.94-.26-26.82.86-7.42.87-13.62 5.54-18.85 10.55-5.02.51-9.66 2.55-14.46 3.92-32.68 9.86-65.26 20.08-97.86 30.21-38.79 11.71-77.42 23.89-116.13 35.83-28.46 9.05-57.18 17.22-85.57 26.5-33.71 10.14-67.25 20.85-100.98 30.94-18.85 6.44-38.15 11.48-56.99 17.97-6.94 2.01-13.97 3.71-20.73 6.26-47.44 14.53-94.83 29.23-142.24 43.84-23.19 7.56-46.69 14.08-69.83 21.78 7.06 1.25 14.11-.42 21.18-.53 8.01.01 15.95-1.45 23.97-1.06 10.65-.59 21.31-1.21 31.96-1.91 9.7.24 19.31-1.37 29.01-1.17 9.99-1.04 20.05-.75 30.04-1.82 9.35.26 18.61-1.29 27.96-1.12 7.72-.55 15.45-1.18 23.2-1.27-.87 8.83-.06 17.72 1.18 26.47 3.27 21.32 10.97 41.92 22.26 60.29 6.64 10.64 14.57 20.65 24.46 28.45 7.13 5.54 15.69 10.02 24.92 10.02 8.27.15 16.43-3.88 21.44-10.45 6.07-7.79 8.47-17.75 9.47-27.4 1.3-13.94-.29-28.09-4.68-41.38 3-1.19 6.01-2.36 9.04-3.5 3.13 4.72 6.08 9.56 9.26 14.26 1.32 1.99 2.75 4.07 2.89 6.54 3.62 39.6 7.33 79.2 10.98 118.8-2.89.46-5.75 1.11-8.48 2.16-32.37 10.86-64.67 21.95-96.95 33.1-10.45 2.92-20.4 7.32-30.83 10.32-5.76 2.13-11.71 3.76-17.26 6.42 24.79-3.38 49.42-7.87 74.17-11.6 27.26-4.62 54.6-8.77 81.86-13.36 2.3 24.75 4.58 49.5 6.87 74.24-.09 1.98 1.37 3.36 2.69 4.61 14.5 13.68 28.95 27.41 43.38 41.17 66.45-14.86 132.85-29.89 199.29-44.81-.11 2.37-.1 4.8.95 6.99 1.73 3.98.92 8.74 3.54 12.39 3.85 5.98 11.07 10.83 18.44 8.96 3.01-.8 6.05-.19 9.03.49 3.28.86 6.57-.29 9.69-1.22 6.24 16.82 12.68 33.57 18.99 50.37-14.88 6.7-30.27 12.19-45.33 18.45-32.28 12.52-64.27 25.77-96.53 38.38-9.67 3.43-18.95 7.85-28.57 11.42-6.04 2.76-12.47 4.58-18.4 7.58 9.37-1.39 18.57-3.78 27.71-6.26 37.83-8.52 75.39-18.25 113.23-26.81 13.29-3.56 26.76-6.38 40.09-9.79 8.52-2.25 17.37-3.34 25.59-6.66 24.31 9.39 48.54 18.96 72.85 28.36 1.39.51 2.94 1.19 3.17 2.88 3.65 12.46 7.28 24.94 10.93 37.42-100.75 31.88-201.62 63.35-302.37 95.16-8.61 2.9-17.5 4.86-26.01 8.06C366.2 911.69 183.08 968.79 0 1025.92V52.01c8.7-.22 17.42.26 26.08-.69 8.3-.54 16.62-.22 24.93-.4 8.69.3 17.3-1.22 25.99-.92 8.62-.25 17.25.19 25.85-.43 11.81-1.32 23.72.03 35.53-1.13 12.18-1.05 24.45.14 36.62-1.13 15.32-.81 30.71.28 46-1.22 9.32-.4 18.67.21 27.99-.46 11.98-1.19 24.05-.34 36.06-.87 14.96-1.57 30.04-.1 45.01-1.44 12.29-.83 24.66.25 36.93-1.12 9.99-.55 20.01.03 30-.47 15.27-1.51 30.67-.04 45.95-1.5 12.02-.73 24.1.24 36.1-.93 10.6-.89 21.26.13 31.86-.72 9.35-.92 18.76-.37 28.14-.67 8.34.34 16.61-1.1 24.96-.91 8.07-.15 16.16.27 24.21-.63 10.58-.69 21.2-.16 31.8-.57 15.21-1.43 30.53-.37 45.77-1.23 12.02-1.18 24.12-.25 36.15-.93 11.98-1.3 24.05-.23 36.05-1 12.96-1.41 26.05.07 39.01-1.35 14.32-.81 28.71.3 43.01-1.1 8.63-.48 17.29.09 25.92-.51 13.02-1.27 26.11-.29 39.15-.93 13.95-1.53 28.02.01 41.97-1.45 14.95-.76 29.98.33 44.9-1.17z"/><path fill="#FEFEFE" stroke="#FEFEFE" d="M862.49 74.72c8.88-1.12 17.88-1.2 26.82-.86 30.67 2.02 60.87 9.55 91.73 8.77 18.25-.05 36.83.04 54.58 4.83 10.04 2.83 20.41 7.61 26.11 16.79 4.19 6.37 4.58 14.63 1.97 21.69-4.26 12.16-13.47 21.52-21.16 31.55-1.65 2.42-4.09 5.32-2.62 8.4 4.23 11.66 10.37 22.73 12.59 35.04.99 5.31-.44 10.61-1.38 15.8 10.77-3.04 21.46-6.41 32.26-9.39-3.32 25.47-6.71 50.93-9.95 76.41-4.95.72-9.92 1.22-14.87 1.84-1.73 2.23-3.31 4.71-5.75 6.24-2.88 1.96-6.48 1.75-9.79 1.62 2.32 28.32 5.27 56.6 7.76 84.91-20.91 5.36-41.96 10.21-62.78 15.9 11.83 5.48 23.77 10.73 35.59 16.24 3.23 1.52 6.88 2.21 10.44 1.85 4.54-1.99 8.2-5.54 12.75-7.54 16.09-7.28 34.52-8.43 51.72-4.95 17.65 3.65 34.44 12.7 45.92 26.77 6.38 2.63 13.27 3.95 19.82 6.15 33.89 10.03 67.76 20.15 101.67 30.13 23.11 7.01 46.34 13.66 69.44 20.71 4.93 16.14 9.81 32.29 14.77 48.42 1.63 5.53 1.69 11.35 2.46 17.03 1.88 16.49 3.61 33.01 5.45 49.5 3.69 33.71 7.48 67.41 11.07 101.14.11 6.55 5.74 10.88 8.77 16.22 4.6-2.68 9.22-5.34 13.82-8.01-1.97-4.4-4.18-8.69-5.83-13.22-4.07-12.72-6.56-26.18-5.24-39.56.78-6.68 2.63-13.42 6.63-18.93 4.66-6.64 12.57-10.84 20.68-11.07 9.53-.49 18.67 3.36 26.65 8.25 13.64 8.56 24.78 20.54 34.24 33.46 14.07 19.88 24.62 42.8 27.74 67.11 1.26 11.32.93 23.58-5.02 33.64-4.77 8.16-14.03 13.41-23.5 13.17-12.82-.13-24.39-6.97-34.21-14.64-8.51-6.71-16.02-14.65-21.94-23.74-3.72 2.1-7.4 4.25-11.05 6.45 7.13 10.28 14.36 20.48 21.43 30.81-34.45 6.59-68.91 13.16-103.37 19.67-.29-.56-.87-1.7-1.15-2.27-6.83 3.96-13.64 7.92-20.45 11.91 4.14 8.49 7.72 17.29 9.37 26.64 2.87 14.79 3.91 31.54-4.6 44.75-6.48 9.52-18.97 13.31-29.92 10.57-13.81-3.15-25.51-11.91-35.55-21.54-13.84-13.77-24.94-30.22-32.96-48-6-13.37-10.44-27.62-11.58-42.28-.59-7.18-.18-14.49 1.74-21.45 2.58-9.42 9.68-17.85 19.29-20.49 10.2-2.79 20.92.47 29.91 5.43 13.61 7.79 25.45 18.75 34.05 31.88.96-.55 1.93-1.08 2.92-1.61-2.78-3.4-5.67-6.7-8.54-10.01 8.61-11.6 17.39-23.07 25.96-34.7-.48-1.25-.93-2.5-1.37-3.73-11.39-31.52-22.76-63.05-34.15-94.57-3.25-8.96-6.45-17.94-9.72-26.89 4.16-10.93 8.4-21.83 12.59-32.75 2.03-5.22 4.04-10.44 6.02-15.67-48.49-7.48-96.98-14.94-145.48-22.36-.89 2.83-1.14 6.51-4.11 8.04-5.52 3.15-11.05 6.31-16.52 9.53-2.02 1.58-4.88.24-6.89 1.6-.51 19.54-.72 39.12-1.14 58.68-.3 11.02-.18 22.05-.65 33.06-16.09 5.62-32.2 11.16-48.27 16.81-2.52 13.33-4.82 26.7-7.25 40.05-4.26 23.72-8.49 47.45-12.76 71.18 6.98 11.18 14.08 22.33 21.93 32.96 20.64 29.19 42.43 57.54 63.59 86.35-8.47 1.82-16.98 3.49-25.43 5.38 9.04 17.82 18.09 35.64 26.81 53.62 1.77 3.79 3.45 7.65 5.94 11.05 2.52 3.81 5.69 7.26 7.46 11.52 2 5.41 2.77 11.21 2.77 16.96-.33 7.26-1.37 15.03-5.94 20.95-2.22 3.36-5.45 6.33-6.06 10.49-3.53 22.12-7.32 44.19-11.02 66.29-1.45 8.21-2.68 16.46-4.19 24.67-1.66 5.43-1.47 11.19-2.78 16.72-2.12 13.62-4.89 27.17-6.56 40.85 1.65 4.21 5.12 7.51 7.5 11.37 3.17 4.45 6.29 8.93 9.44 13.41 3.05 4.26 6.05 8.55 9.12 12.8 2.54 3 3.9 7.58 7.96 8.89 17.88 4.85 35.73 9.83 53.57 14.84-.81 6.91-1.98 13.78-2.46 20.72-.15 4.31-2.56 8.01-3.96 11.97-1.03 2.66-2.03 5.33-3.05 8.01-.64 1.6-1.26 3.21-1.84 4.85-.56-.1-1.69-.28-2.26-.38-3.57 3.67-7.18 7.3-10.87 10.85.15 1.2.32 2.41.5 3.64-7.01 4.08-13.99 8.23-21.04 12.25-.3.88-.58 1.77-.85 2.68-12.3.01-24.6.05-36.89-.04-1.25-6.42-2.58-12.82-3.8-19.23-6.23-2.18-12.57-3.99-18.83-6.06-1.75-3.88-3.49-7.75-5.22-11.62-3.76-7.99-6.9-16.3-11.03-24.08-4.99-5.31-10.02-10.67-15.6-15.35-5.64-2.23-11.32-4.33-16.95-6.57-7.25-2.92-14.59-5.6-21.82-8.58-.11-4.94-.33-9.86-.54-14.78-.64-11.9-.87-23.82-1.6-35.71 9.44-5.27 18.89-10.5 28.34-15.75-.44-18.69-1.01-37.37-1.46-56.06-.07-2.63-.14-5.26-.19-7.87-.54-20.6-1.09-41.19-1.56-61.78.18-3.66-1.03-7.61.38-11.05 7.31-10.39 15.23-20.36 22.46-30.79-.75-2.42-2.74-4.25-4.13-6.32-14.52-19.86-28.99-39.77-43.5-59.64-2.78.57-5.55 1.17-8.3 1.8-12.61-10.48-24.98-21.24-37.62-31.69-10.67 17.41-21.41 34.78-32.18 52.13-4.19-.88-8.38-1.74-12.57-2.62-13.54 18.56-27.17 37.06-40.57 55.73 6.56 8.86 13.02 17.8 19.65 26.61 1.71 2.38 4.09 4.73 3.78 7.93-1.39 44.31-2.25 88.65-3.63 132.96 9.3 5.49 18.83 10.6 28.29 15.83-.26 8.56-.62 17.13-1.03 25.69-.55 8.33-.62 16.7-1.08 25.04-6.44 2.5-12.87 5.02-19.3 7.52-5.03 1.95-10.03 3.97-15.08 5.85-7.22 2-11.1 8.94-16.54 13.51-4.6 3.61-6.09 9.4-8.48 14.45-3.24 7.25-6.58 14.46-9.69 21.77-.74 1.43-1.41 3.22-3.21 3.55-5.64 1.92-11.39 3.52-17.02 5.49-1.34 6.46-2.43 12.98-3.99 19.4-12.13-.16-24.27.08-36.4-.12-1.11-3.13-4.17-4.47-6.84-5.97-5.06-2.89-10.07-5.86-15.14-8.74.08-1.27.16-2.52.26-3.75-3.57-3.61-7.19-7.15-10.72-10.79-.61.07-1.84.22-2.45.29-1.46-4.27-3.11-8.46-4.72-12.66-1.42-3.88-3.82-7.51-4.03-11.74-.49-7.12-1.66-14.15-2.53-21.22 12.66-3.62 25.37-7.06 38.05-10.61 5.86-1.87 12.03-2.88 17.72-5.22 10.98-14.77 21.29-30.07 32.06-45.01-1.35-8.72-2.78-17.43-4.24-26.13-2.88-16.95-5.68-33.92-8.57-50.87-.9-5.21-1.74-10.42-2.62-15.62-2.87-17.2-5.82-34.38-8.59-51.59-.33-1.64-.66-3.42-2.16-4.38-9.96-7.41-14.28-20.36-14.39-32.4-.05-12.8 4.75-26.74 15.85-34.03 2.23-1.5 3.72-3.77 4.77-6.2 6.22-13.28 13.13-26.24 19.51-39.45 4.25-16.56 10.98-32.35 18.32-47.76 8.64-17.95 18.12-35.52 28.45-52.56 3.66-5.92 7.23-11.92 11.5-17.44 1-1.51 2.72-3.09 1.92-5.08-4.25-14.86-8.68-29.67-12.97-44.52-3.65-12.48-7.28-24.96-10.93-37.42-.23-1.69-1.78-2.37-3.17-2.88-24.31-9.4-48.54-18.97-72.85-28.36-3.06-1.21-6.12-2.41-9.17-3.59-2.98-7.53-5.74-15.15-8.62-22.72-6.31-16.8-12.75-33.55-18.99-50.37-3.12.93-6.41 2.08-9.69 1.22-2.98-.68-6.02-1.29-9.03-.49-7.37 1.87-14.59-2.98-18.44-8.96-2.62-3.65-1.81-8.41-3.54-12.39-1.05-2.19-1.06-4.62-.95-6.99-66.44 14.92-132.84 29.95-199.29 44.81-14.43-13.76-28.88-27.49-43.38-41.17-1.32-1.25-2.78-2.63-2.69-4.61-2.29-24.74-4.57-49.49-6.87-74.24-.81-9.02-1.73-18.02-2.51-27.04-3.65-39.6-7.36-79.2-10.98-118.8-.14-2.47-1.57-4.55-2.89-6.54-3.18-4.7-6.13-9.54-9.26-14.26-3.03 1.14-6.04 2.31-9.04 3.5 4.39 13.29 5.98 27.44 4.68 41.38-1 9.65-3.4 19.61-9.47 27.4-5.01 6.57-13.17 10.6-21.44 10.45-9.23 0-17.79-4.48-24.92-10.02-9.89-7.8-17.82-17.81-24.46-28.45-11.29-18.37-18.99-38.97-22.26-60.29-1.24-8.75-2.05-17.64-1.18-26.47 1.08-11.82 4.28-24.67 13.81-32.58 7.19-6.17 17.58-7.4 26.43-4.58 14.14 4.79 24.99 15.91 33.82 27.53 37.89-10.44 75.64-21.39 113.5-31.92-.08 3.72-.21 7.44-.34 11.17 7.13-2.7 14.26-5.4 21.38-8.13-4.85-14.75-6.17-30.59-4.05-45.96 1.47-9.39 4.63-19.05 11.62-25.82 6.12-6.11 15.34-8.65 23.78-7.02 10.72 1.92 19.72 8.77 27.35 16.19 11.16 11.39 19.76 25.09 26.41 39.53 6.7 14.78 11.36 30.52 13.34 46.64 1.58 13.73 1.58 28.13-3.48 41.18-3.11 8.1-9.22 15.4-17.57 18.34-8.38 3.12-17.82 1.3-25.51-2.86-12.22-6.61-21.74-17.19-29.6-28.46-3.26-4.48-5.45-9.59-7.93-14.51-1.31.51-2.61 1.02-3.91 1.54 2.32 4.73 4.72 9.44 7.07 14.17-13.16 12.69-26.57 25.11-39.75 37.78 12.33 32.52 24.57 65.07 36.85 97.62 3.05 8.51 6.72 16.83 9.4 25.46.34 7.02-.6 14.05-.95 21.07-.62 13.61-1.54 27.2-2.31 40.81 45.84-16.91 91.64-33.9 137.46-50.86 2.89-5.43 5.81-10.86 8.59-16.35 2.69-5.63 7.07-10.18 11.47-14.5 13.43-12.68 30.71-21.58 49.15-23.79 11.8-1.61 24.05.17 34.81 5.32 14.36-10.99 28.88-21.76 43.24-32.76-16.27-12.84-32.93-25.16-49.37-37.77-2.26-1.71-4.5-3.44-6.74-5.17 2.21-15.85 4.67-31.66 6.83-47.52-8.5-.78-14.79-7.49-18.86-14.46-1.61-2.56-1.82-5.63-2.23-8.54-1.06-.29-2.12-.58-3.17-.86-.52-4.2-1.07-8.4-1.6-12.59-2.62-21.22-5.78-42.37-8.12-63.62 9.91 2.78 19.72 5.91 29.65 8.6-.66-10.97-2.67-21.91-1.76-32.93.23-4.98.97-11.01-3.32-14.6-5.97-5.54-10.13-13.19-10.17-21.47-.85-10.2 5.2-19.48 12.74-25.77 12.39-10.24 27.6-16.09 42.46-21.73 2.92-1.2 6.25-1.96 8.46-4.38 2.94-3.2 5.54-6.71 8.59-9.81 5.23-5.01 11.43-9.68 18.85-10.55m-5.96 8.79c-9.15 4.96-12.66 16.55-22.62 20.33-9.63 4.11-19.57 7.51-29 12.09-8.33 4.1-16.84 8.87-22.5 16.44-4.93 6.38-5.49 15.41-2.52 22.74 2.58 6.4 10.04 9.76 11.19 16.87 1.05 5.29.53 10.72.43 16.07-.42 9.32.31 18.65 1.66 27.87.18 2.98.39 5.96.61 8.95-9.7-2.11-18.96-5.88-28.67-7.9 1.94 20.14 5.24 40.12 7.56 60.22 1.48.67 2.9 1.49 4.17 2.55-1.58 3.82-.25 8.16 2.04 11.4 2.56 3.71 5.67 7.55 10.08 9.06 3.9 1.22 7.49-1.71 9.4-4.85.67 1.4.8 2.94.51 4.47-2.4 17.42-5.21 34.79-7.42 52.23 17.34 13.19 34.55 26.54 51.99 39.58 1.3 1.04 2.68 2.03 3.71 3.37.5 1.74.62 3.57 1.06 5.34-14.98 11.18-29.9 22.45-44.77 33.78-2.04 1.58-4.08 3.15-6.16 4.67-8.33-5.47-18.45-7.61-28.31-7.25-27.22.97-52.82 17.82-65.95 41.46-2.37 3.88-3.25 8.5-5.62 12.34-7.37 3.15-15.04 5.59-22.51 8.47-39.21 14.53-78.4 29.06-117.62 43.54-2.85 1.16-5.76 2.2-8.78 2.84-.33-5.44.5-10.84.83-16.25.5-15 1.92-29.95 2.45-44.95.02-3.55 1.22-7.24-.17-10.65a83888 83888 0 0 0-45.76-121.24c-.33-1.34-1.36-3.07.05-4.13 12.44-12.25 25.55-23.87 37.89-36.2-2-5.73-5.27-11.06-8.1-16.46 5.32-1.98 10.62-4.02 15.92-6.07 8.59 16.72 19.32 33.35 35.5 43.62 7.43 4.66 17.41 7.32 25.52 2.78 7.99-4.57 11.75-13.77 13.48-22.39 3.05-16.58.73-33.68-3.69-49.79-5.45-19.21-14.12-37.7-26.61-53.35-6.79-8.2-14.68-15.96-24.59-20.22-6.49-2.82-14.48-3.36-20.65.54-7.09 4.42-10.61 12.61-12.4 20.46-3.84 17.88-.68 36.31 3.85 53.75-11.08 4.02-22.04 8.35-33.06 12.52-.64.1-1.91.31-2.54.41.23-3.82.34-7.64.3-11.47-6.6 1.34-12.98 3.57-19.49 5.25-25.29 7.24-50.69 14.11-75.91 21.59 3.23 5.98 7.27 11.48 10.91 17.22-4.57 1.81-9.22 3.39-13.71 5.37-8.09-15.71-18.01-31.16-32.53-41.68-6.97-4.91-15.81-8.79-24.44-6.44-7.79 2.09-12.97 9.2-15.49 16.51-4.87 14.14-3.99 29.54-1.46 44.06 4.44 23.41 13.89 46.07 28.41 65.04 7.08 8.92 15.46 17.39 26.1 21.93 6.81 2.92 15.27 3.17 21.46-1.35 6.96-5.03 10.17-13.59 11.75-21.73 3.24-17.31.09-34.99-4.28-51.8 6.33-2.22 12.51-4.82 18.84-7.04.86 1.47 1.82 2.89 2.8 4.3.82 1.18 1.62 2.38 2.43 3.6 3.36 5.77 7.85 10.98 10.52 17.11 3.12 29.62 5.5 59.32 8.37 88.97 4.32 44.74 8.02 89.54 12.62 134.25 13.82 13.01 27.47 26.21 41.34 39.17 75.51-16.82 150.94-33.98 226.44-50.85l-.04 2.47c-2.82 7.82-7 17.3-16.27 18.68.07-.66.22-1.98.29-2.64-.61.41-1.84 1.22-2.45 1.63-4.99-1.65-1.89-11.28 3.18-9.41.82 1.56 1.68 3.12 2.59 4.65-.77-2.68-1.7-5.65-4.7-6.53-5.23 1.85-7.6 9.88-2.56 13.28-1.78 6.29 3.65 12.07 9.46 13.36 2.52.53 4.85-.83 7.19-1.54 3.36.25 6.46 2.45 9.93 1.82 2.68-.28 4.58-2.62 5.22-5.09.5-2.15.96-4.3 1.44-6.44 10.48 28.24 21.2 56.39 31.88 84.56 28.21 11.29 56.64 22.06 84.89 33.26 9.36 30.41 17.57 61.19 27.11 91.54-12.66 16.4-22.64 34.67-32.55 52.82-10.08 19.39-20.08 39.03-26.54 59.97.56.1 1.67.3 2.23.41-1.07 1.7-2.12 3.43-3.03 5.23-7.8 15.83-15.89 31.52-23.52 47.44-1.48 3.78-5.96 4.7-8.46 7.62-14.77 15.43-12.99 44.48 5.35 56.41 1.35 3.12 1.36 6.65 2.01 9.97 7.69 46.65 15.75 93.24 23.39 139.9.35 1.6.15 3.27-.96 4.56-10.93 15.4-21.82 30.83-32.74 46.22-1.05 1.58-3.01 1.97-4.7 2.48-15.09 3.99-30.07 8.38-45.14 12.44-1.17.52-3.24.52-3.35 2.19.4 3.98.68 8.03 1.82 11.9 2.87-1.22 5.79-2.33 8.75-3.28-2.48 3-5.58 5.44-7.94 8.53.76 3.9 2.68 7.46 4.12 11.14 3.93-1.72 6.38-5.55 10.27-7.34-1.83 4.58-4.6 8.72-6.52 13.27 2.9 3.04 5.85 6.03 8.97 8.84 2.5-3.04 4.98-6.09 7.74-8.88-1.21 5.34-2.3 10.71-3.37 16.08 3.66 1.98 7 4.61 11.01 5.89 1.23-4.45 2.45-8.9 3.95-13.25 2.51 6.05 3 12.68 4.79 18.96 8.59.05 17.18-.02 25.77.02 1.79-5.77 1.99-12 4.12-17.63 6.16-2.87 13.05-4.11 19.4-6.64 4.65-10.39 9.34-20.75 13.97-31.15 1.03-2.45 2.81-4.45 4.72-6.24 4.05-3.9 7.96-7.95 11.96-11.91 2.39-2.4 5.85-3.09 8.87-4.38 9.77-3.85 19.62-7.51 29.33-11.53.45-14.05 1.59-28.07 1.57-42.13-8.82-5.24-18.04-9.79-26.83-15.08-2.31-1.94-.68-5.42-.91-7.98 1.05-43.39 2.21-86.77 3.37-130.15-7.77-10.66-15.7-21.22-23.43-31.91-1.66-1.66-.51-3.72.68-5.23 14.67-19.98 29.07-40.18 43.89-60.04 4.04.85 8.08 1.71 12.13 2.57 11.15-18.2 22.53-36.27 33.56-54.54 4.98 3.18 9.1 7.49 13.73 11.13 9.07 7.74 18.28 15.3 27.25 23.15 4.63-.93 9.3-1.67 13.91-2.74-1.21.41-2.39.93-3.55 1.44 2.55 4.26 5.74 8.08 8.61 12.13 13.28 18.35 26.69 36.62 39.99 54.96 1.14 1.95 3.44 3.57 3.47 5.99-7.66 11.34-16.41 21.97-24.11 33.3-.41 16.6.88 33.22.95 49.84-.08 11.03.85 22.03.94 33.06.18 17.53 1.01 35.05 1.24 52.59-.08 1.07.23 2.55-1.09 3.01-8.98 5.15-18.21 9.84-27.02 15.26.7 13.94 1.17 27.9 1.81 41.85 11.49 4.54 23.04 8.92 34.52 13.51 3.61 1.34 5.79 4.71 8.52 7.25 3.53 3.76 7.7 6.97 10.78 11.16 5.51 10.78 9.58 22.29 15.16 33.01 6.19 3.23 13.75 3.72 19.71 7.22 1.31 5.63 2.28 11.35 3.34 17.05 8.77.42 17.61.6 26.37-.1 1.32-6.02 2.33-12.12 4.07-18.02 2.94 3.52 2.7 8.83 4.81 12.91 3.59-2.15 7.4-3.96 10.73-6.53-1.06-4.88-2.52-9.69-2.84-14.69 2.77 2.05 4.67 4.96 6.82 7.61 3.68-2.33 6.41-5.81 9.38-8.93-2.32-4.41-4.96-8.66-6.79-13.29 3.74 2.24 6.73 5.48 10.24 8.06 1.71-3.81 3.2-7.7 4.54-11.65-2.16-2.28-4.85-4.25-5.98-7.28 2.3.54 4.62 1.22 6.92 1.89.74-4.07.99-8.22 1.71-12.29-7.7-3.26-16.06-4.7-24.05-7.15-9.48-2.91-19.26-4.92-28.59-8.24-11.18-15.55-22.09-31.32-33.25-46.88-.66-.98-1.41-2.02-1.24-3.23.2-4.74 1.28-9.39 2.03-14.05 7.54-45.87 15.5-91.66 22.97-137.53.31-3.97 4.08-6.11 5.93-9.31 7.82-12.62 7.88-29.73-.14-42.27-1.73-2.88-4.57-4.88-6.26-7.75-10.87-22.53-21.99-44.96-33.61-67.12-2.34.04-4.73.05-6.92.94-3.38 1.44-7.2.87-10.6 2.2-2.55 1.06-5.32.98-8 1.25 9.64-1.99 19.31-3.9 28.89-6.18-24.8-38.1-49.5-76.27-74.14-114.46 1.86-.3 3.75-.57 5.6-1.04 24.66 38.09 49.36 76.15 73.97 114.27 4.86-.99 9.75-1.9 14.55-3.18-21.91-29.31-44-58.49-64.85-88.56-4.84-7.29-10.14-14.36-13.82-22.33-.12-1.55-.46-3-2.43-2.6 7.64-39.05 13.79-78.43 21.47-117.46 15.69-5.83 31.62-11.07 47.44-16.57.25-7.81.28-15.61.41-23.41.88-25.24.34-50.53 1.69-75.76 2.45 2.14 5.17 4.24 8.42 4.94 4.1.99 7.66-1.83 11.48-2.77 4.17-2.37 8.83-7.64 5.91-12.62-2.79-1.02-6.3-2.31-8.79.04-2.88-.19-6.05-.6-8.46 1.38-1.53.82-1.58 2.68-1.22 4.17.07.92-.24 1.7-.91 2.33-3.3-4.72-4.68-10.45-4.43-16.16 62.15 9.63 124.35 18.92 186.46 28.79-6.54 17.3-13.28 34.52-19.89 51.79-.62 1.28-.63 2.56-.03 3.86l39 108.06c1.71 5.57 4.5 10.88 5.59 16.61-7.92 11.19-16.63 21.83-24.47 33.09 3.43 3.9 6.82 7.84 10.15 11.83-4.76 2.89-9.61 5.59-14.39 8.43-9.93-13.83-21.84-26.77-36.96-34.97-7.81-4.02-17.23-7.09-25.83-3.73-7.1 2.61-11.42 9.64-13.12 16.7-2.81 11.69-1.12 23.94 1.79 35.45 5.12 19.31 14.48 37.39 26.5 53.3 8.8 11.46 19.17 22.04 31.78 29.3 7.47 4.2 16.2 7.23 24.85 5.44 6.71-1.47 11.94-6.93 14.34-13.22 3.54-9.3 3.22-19.54 1.8-29.23-1.96-12.59-6.29-24.7-11.73-36.17 11-6.41 22.01-12.81 33.03-19.19.41 1.65.89 3.3 1.39 4.95 25.08-4.78 50.17-9.53 75.26-14.29 3.89-.92 8-1.1 11.7-2.78-6.61-9.23-13.08-18.55-19.55-27.86 7.29-4.27 14.62-8.47 21.9-12.76 9.14 12.61 19.78 24.49 33.13 32.75 6.83 4.17 14.59 7.61 22.78 7.24 6.18.11 12.22-3.14 15.72-8.21 4.43-6.29 5.6-14.22 5.77-21.73 0-13.45-3.48-26.65-8.36-39.09-6.05-15.18-14.48-29.41-24.81-42.06-9.27-11.09-20.1-21.39-33.38-27.46-7.66-3.48-17.08-5.27-24.78-.97-7.37 4.09-10.73 12.66-11.69 20.64-2.15 19.41 4.17 38.62 12.22 56.04-7.91 4.59-15.81 9.19-23.73 13.77-3.93-5.65-7.96-11.22-11.77-16.94-1.94-2.61-1.47-6.01-1.84-9.05-5.74-52.61-11.63-105.2-17.3-157.82-.55-6.32-3.09-12.19-4.71-18.26-3.27-10.6-6.56-21.2-9.67-31.84-.15-1.97-2.23-2.4-3.73-2.92-43.97-12.89-87.85-26.08-131.8-39.03-18.21-5.58-36.63-10.56-54.71-16.47-13.72-18.33-36.99-27.4-59.41-27.86-15.19-.1-30.9 3.8-43.06 13.21-1.17.74-2.4 1.83-3.88 1.49-4.61-.51-9.56-.29-13.54-3.03-14.11-6.23-28.03-12.86-42.16-19.01.98-3.01-.07-8.1 4-8.79 20.43-4.93 40.76-10.22 61.17-15.23-2.44-30.62-6.07-61.16-8.2-91.8.84.07 2.53.2 3.38.27 2.28 2.97 5.85 6.16 9.91 4.76 2.68-1.29 4.03-4.22 5.02-6.87 4.57-.97 9.25-1.16 13.86-1.97 2.43-20.25 5.56-40.41 7.64-60.71-10.72 2.43-21.06 6.3-31.75 8.86.14-1.68.3-3.35.46-5.02 1.74-6.43 3.32-13.23 1.92-19.88-2.37-13-10.43-24.1-13.22-36.94-.21-8.46 6.17-15.03 11.28-21.07 5.78-6.93 12.88-13.64 14.81-22.8 1.85-9.35-5.24-17.62-13.03-21.65-11.56-6.03-24.81-7.55-37.63-8.45-17.62-1.37-35.34.3-52.93-1.54-27.74-2.29-55.14-9.46-83.12-7.88-5.19.41-10.71.37-15.39 2.93M406.21 293.16c2.05 3.04 2.77 7.15 5.85 9.37-1.45-3.42-3.67-6.41-5.85-9.37m321.25 290.1c.53-.11 1.59-.31 2.12-.42.9-1.88-3.6-1.02-2.12.42z"/><path fill="#9A4C01" stroke="#9A4C01" d="M856.53 83.51c4.68-2.56 10.2-2.52 15.39-2.93 27.98-1.58 55.38 5.59 83.12 7.88 17.59 1.84 35.31.17 52.93 1.54 12.82.9 26.07 2.42 37.63 8.45 7.79 4.03 14.88 12.3 13.03 21.65-1.93 9.16-9.03 15.87-14.81 22.8-5.11 6.04-11.49 12.61-11.28 21.07 2.79 12.84 10.85 23.94 13.22 36.94 1.4 6.65-.18 13.45-1.92 19.88-.97 3.29-1.81 6.62-2.38 10-1.5 6.77-1.02 14.04 2.09 20.3.73 1.3 1.53 2.56 2.38 3.8 1.58 2.27 3.37 4.39 5.08 6.57 4.22 5.03 5.12 12.14 2.62 18.17-.99 2.65-2.34 5.58-5.02 6.87-4.06 1.4-7.63-1.79-9.91-4.76-6.47-8.05-7.68-18.81-7.44-28.78.03-10.65 1.83-21.58-1.12-32.01-1.6-6.76-.82-13.77-1.52-20.64-.17-6.37-.37-12.79-1.79-19.03-2.57-8.78-11.46-12.99-18.63-17.46-9.75-5.52-19.35-12.83-23.21-23.8-15.1 4.95-30.45 10.07-46.51 10.38 4.88 1.25 8.87 5.34 8.81 10.58.19 11.03-5.29 21.19-11.09 30.23-5.12 7.35-11.39 15.14-20.61 17.15-10.62 2.73-21.72-2.3-29.02-9.96 8.69.87 17.79.8 25.88-2.93 5.87-2.5 11.69-6.99 13-13.58 1.2-6.88-2.66-13.34-6.92-18.39-5.62-6.3-14.44-7.98-22.43-8.97-6.69-.51-13.5-2.09-20.13-.37-17.05 3.58-34.13 10.62-46.01 23.8-13.69 14.76-18.92 35.35-19.7 55.02-.11 14.4-1.47 28.82-4.62 42.89-1.56 6.76-3.47 13.59-7.28 19.48-1.91 3.14-5.5 6.07-9.4 4.85-4.41-1.51-7.52-5.35-10.08-9.06-2.29-3.24-3.62-7.58-2.04-11.4 3.58-7.45 11.75-11.21 15.76-18.41.83-2.14 1.32-4.38 1.68-6.64.23-1.69.4-3.39.58-5.09.22-2.58.3-5.18.39-7.76.02-.54.05-1.61.06-2.14-.02-3.35-.31-6.69-.63-10.02-.28-4.61-.78-9.2-1.51-13.76-1.35-9.22-2.08-18.55-1.66-27.87.1-5.35.62-10.78-.43-16.07-1.15-7.11-8.61-10.47-11.19-16.87-2.97-7.33-2.41-16.36 2.52-22.74 5.66-7.57 14.17-12.34 22.5-16.44 9.43-4.58 19.37-7.98 29-12.09 9.96-3.78 13.47-15.37 22.62-20.33z"/><path fill="#61A6B6" stroke="#61A6B6" d="M829.18 89.19c4.8-1.37 9.44-3.41 14.46-3.92-3.05 3.1-5.65 6.61-8.59 9.81-2.21 2.42-5.54 3.18-8.46 4.38-14.86 5.64-30.07 11.49-42.46 21.73-7.54 6.29-13.59 15.57-12.74 25.77.04 8.28 4.2 15.93 10.17 21.47 4.29 3.59 3.55 9.62 3.32 14.6-.91 11.02 1.1 21.96 1.76 32.93-9.93-2.69-19.74-5.82-29.65-8.6 2.34 21.25 5.5 42.4 8.12 63.62-8.99 1.47-18.13.73-27.15 1.85-10.01-.09-19.96 1.16-29.96 1.3-7.3.94-14.65.81-21.98 1-9.64 1.1-19.36.64-29 1.66-7.96.25-15.96.36-23.8 1.9-1.98-16.12-6.64-31.86-13.34-46.64-6.65-14.44-15.25-28.14-26.41-39.53-7.63-7.42-16.63-14.27-27.35-16.19-8.44-1.63-17.66.91-23.78 7.02-6.99 6.77-10.15 16.43-11.62 25.82-2.12 15.37-.8 31.21 4.05 45.96-7.12 2.73-14.25 5.43-21.38 8.13.13-3.73.26-7.45.34-11.17-37.86 10.53-75.61 21.48-113.5 31.92-8.83-11.62-19.68-22.74-33.82-27.53-8.85-2.82-19.24-1.59-26.43 4.58-9.53 7.91-12.73 20.76-13.81 32.58-7.75.09-15.48.72-23.2 1.27-9.35-.17-18.61 1.38-27.96 1.12-9.99 1.07-20.05.78-30.04 1.82-9.7-.2-19.31 1.41-29.01 1.17-10.65.7-21.31 1.32-31.96 1.91-8.02-.39-15.96 1.07-23.97 1.06-7.07.11-14.12 1.78-21.18.53 23.14-7.7 46.64-14.22 69.83-21.78 47.41-14.61 94.8-29.31 142.24-43.84 6.76-2.55 13.79-4.25 20.73-6.26 18.84-6.49 38.14-11.53 56.99-17.97 33.73-10.09 67.27-20.8 100.98-30.94 28.39-9.28 57.11-17.45 85.57-26.5 38.71-11.94 77.34-24.12 116.13-35.83 32.6-10.13 65.18-20.35 97.86-30.21z"/><path fill="#EEC3A1" stroke="#EEC3A1" d="M938.48 150.4c16.06-.31 31.41-5.43 46.51-10.38 3.86 10.97 13.46 18.28 23.21 23.8 7.17 4.47 16.06 8.68 18.63 17.46-1.41 6.9.51 13.83.96 20.72.21-.42.62-1.27.83-1.69.7 6.87-.08 13.88 1.52 20.64 2.95 10.43 1.15 21.36 1.12 32.01-.24 9.97.97 20.73 7.44 28.78-.85-.07-2.54-.2-3.38-.27 2.13 30.64 5.76 61.18 8.2 91.8-20.41 5.01-40.74 10.3-61.17 15.23-4.07.69-3.02 5.78-4 8.79-2.39 10.44-4.23 21-6.53 31.46-38.86.15-77.73.13-116.59.01-2.7-9.39-4.01-19.12-7.02-28.42-.44-1.77-.56-3.6-1.06-5.34-1.03-1.34-2.41-2.33-3.71-3.37-17.44-13.04-34.65-26.39-51.99-39.58 2.21-17.44 5.02-34.81 7.42-52.23.29-1.53.16-3.07-.51-4.47 3.81-5.89 5.72-12.72 7.28-19.48 3.15-14.07 4.51-28.49 4.62-42.89.78-19.67 6.01-40.26 19.7-55.02 11.88-13.18 28.96-20.22 46.01-23.8 6.63-1.72 13.44-.14 20.13.37 7.99.99 16.81 2.67 22.43 8.97 4.26 5.05 8.12 11.51 6.92 18.39-1.31 6.59-7.13 11.08-13 13.58-8.09 3.73-17.19 3.8-25.88 2.93 7.3 7.66 18.4 12.69 29.02 9.96 9.22-2.01 15.49-9.8 20.61-17.15 5.8-9.04 11.28-19.2 11.09-30.23.06-5.24-3.93-9.33-8.81-10.58m-85.18 34.97c-7.8 3.65-14.21 9.67-20.02 15.91-2.76 3.26-5.89 6.57-7.01 10.79-.4 1.11.04 3.24 1.68 2.69 6.74-.5 13.17-3.52 20.02-2.92 22.52 1.23 44.56 6.67 66.16 12.89-16.18-11.21-27.37-28.83-45.5-37.35-4.75-1.89-10.32-4.46-15.33-2.01m114.68 2.59c-15.56 7.18-27.66 19.94-42.97 27.54 22.18-2.96 44.66-5.31 67.04-3.2 7.15.33 13.32 4.44 20.2 5.97 2.44-.66 1.4-3.72.87-5.45-3.14-7.86-8.58-14.55-14.24-20.73-3.44-3.39-7.09-7.1-11.89-8.4-6.58-.44-13.09 1.56-19.01 4.27m-32.14 42.97c-3.08 4.51-6.65 10.05-4.81 15.73 6.48 1.76 12.87 3.85 19.27 5.9 2.76.85 5.49 2.1 8.46 1.98 2.78 1.75 6.26.87 9.36.79l-.96.44c-1.85-.27-3.71.08-5.53.29 3.48 1.73 7.15 3.04 10.73 4.55 4.62 2.04 10.48 1.59 14.35-1.81 6.21-5.28 8.68-13.85 8.44-21.77-.26-5.31-1.99-11.42-7.11-14-5.99-4.21-12.48-8.33-20-8.82-12.94-1.54-24.8 6.79-32.2 16.72m-94.54-2.69c-2.82 3.18-3.71 7.6-3.93 11.73-.11 7.06 2.06 14.43 7.01 19.61 3.51 3.66 8.99 5.27 13.89 3.79 4.4-1.38 8.52-3.53 12.8-5.23 10.17-4.35 20.82-7.68 31.8-9.2 1.13-7.83-3.61-14.7-8.72-20.09-7.1-7.23-16.74-12.96-27.18-12.39-9.77.16-18.67 5.31-25.67 11.78m61.87 52.9c-5 3.2-8.19 8.95-8.22 14.89 5.35.5 10.73.79 16.12.59 9.6-.74 19.28.92 28.85-.7-.43-7.61-5.75-14.43-12.83-17.08-7.71-3.33-17-2.45-23.92 2.3m72.11 7.23c-6.1 5.76-10.06 14.21-9.05 22.72-8.84 1.33-17.44 3.88-26.27 5.15-3.46-.47-6.4-2.77-9.89-3.11-5.14-.6-10.58-.55-15.4 1.54-4.56 1.69-7.68 5.46-10.96 8.82-9.09 2.29-18.39 3.82-27.57 5.78-1.79.08-1.81 2.34-1.25 3.56l-.54-.18c-.13-7.6-2.86-15.33-8.1-20.91-4.38-4.81-10.94-7.13-17.3-7.58-8.11-.6-16.19 3.2-21.3 9.44-5.43 4.86-6.77 12.48-7.08 19.41.28 7.85 4.04 15.39 9.7 20.78 7.2 6.02 17.47 7.71 26.33 4.75 6.85-1.93 12.19-7.6 15.03-13.97l-.1 1.16c9.73-1.61 19.45-3.28 29.12-5.2 1.07-.07 2.62-.73 3.33.49 3.54 4.57 8.24 8.54 14.04 9.74 9.9 2.92 21.48-.73 27.56-9.14 1.99-2.62 2.18-5.99 3.11-9.02 1.7-1.45 4.11-1.47 6.2-1.94 5.84-.81 11.55-2.38 17.42-3.04 7.85 10.4 23.65 13.12 34.76 6.44 5.49-3.1 8.83-8.73 11.81-14.08 1.34-4.49 1.27-9.33 1.08-13.98-.02-5.31-2.99-9.89-5.71-14.22-8.58-12.31-28.27-13.64-38.97-3.41m-40.76 89.16c-8.51 4.77-17.51 8.72-25.63 14.14 14.69 1.11 29.43 2.37 44.17 2.48-1.13-7.88-3.04-15.64-5.23-23.27-4.68 1.71-8.96 4.27-13.31 6.65z"/><path fill="#FFFDFA" stroke="#FFFDFA" d="M1027.79 202c-.45-6.89-2.37-13.82-.96-20.72 1.42 6.24 1.62 12.66 1.79 19.03-.21.42-.62 1.27-.83 1.69z"/><path stroke="#000" d="M550.56 185.43c6.17-3.9 14.16-3.36 20.65-.54 9.91 4.26 17.8 12.02 24.59 20.22 12.49 15.65 21.16 34.14 26.61 53.35 4.42 16.11 6.74 33.21 3.69 49.79-1.73 8.62-5.49 17.82-13.48 22.39-8.11 4.54-18.09 1.88-25.52-2.78-16.18-10.27-26.91-26.9-35.5-43.62-5.3 2.05-10.6 4.09-15.92 6.07-1.82.65-3.63 1.33-5.42 2.04-8.29 3.29-16.69 6.3-24.97 9.61.14-9.62.53-19.25 1.13-28.86.63-.23 1.89-.7 2.53-.94 11.02-4.17 21.98-8.5 33.06-12.52-4.53-17.44-7.69-35.87-3.85-53.75 1.79-7.85 5.31-16.04 12.4-20.46z"/><path fill="#653318" stroke="#653318" d="M853.3 185.37c5.01-2.45 10.58.12 15.33 2.01 18.13 8.52 29.32 26.14 45.5 37.35-21.6-6.22-43.64-11.66-66.16-12.89-6.85-.6-13.28 2.42-20.02 2.92-1.64.55-2.08-1.58-1.68-2.69 1.12-4.22 4.25-7.53 7.01-10.79 5.81-6.24 12.22-12.26 20.02-15.91zM967.98 187.96c5.92-2.71 12.43-4.71 19.01-4.27 4.8 1.3 8.45 5.01 11.89 8.4 5.66 6.18 11.1 12.87 14.24 20.73.53 1.73 1.57 4.79-.87 5.45-6.88-1.53-13.05-5.64-20.2-5.97-22.38-2.11-44.86.24-67.04 3.2 15.31-7.6 27.41-20.36 42.97-27.54z"/><path fill="#AB8561" stroke="#AB8561" d="M935.84 230.93c7.4-9.93 19.26-18.26 32.2-16.72 7.52.49 14.01 4.61 20 8.82 5.12 2.58 6.85 8.69 7.11 14 .24 7.92-2.23 16.49-8.44 21.77-3.87 3.4-9.73 3.85-14.35 1.81-3.58-1.51-7.25-2.82-10.73-4.55 1.82-.21 3.68-.56 5.53-.29 4.25 1.41 8.83 3.66 13.34 1.89 7.17-2.63 10.71-10.51 11.53-17.63.66-6.08-.82-13.6-6.85-16.53-5.47-3.69-11.42-7.09-18.14-7.61-10.47-1.22-20.33 4.61-27.24 12.01-4.02 4.5-7.92 10.05-7.3 16.4l.14.51c7.19 1.38 14.66 2.36 21.25 5.75 1.6 1.34 3.21 2.68 4.87 3.98-2.97.12-5.7-1.13-8.46-1.98-6.4-2.05-12.79-4.14-19.27-5.9-1.84-5.68 1.73-11.22 4.81-15.73z"/><path fill="#EDC3A1" stroke="#EDC3A1" d="M793.17 215.92c.73 4.56 1.23 9.15 1.51 13.76-.23 1.67-.55 3.33-.84 4.99-5.23-.63-10.45-1.29-15.7-1.56.31 7.71.89 15.42 2.07 23.05 4.99-1.9 8.98-7.13 14.65-6.56-.18 1.7-.35 3.4-.58 5.09-2.06.65-4.1 1.31-6.14 1.96.21 1.11.38 2.24.73 3.34 1.21.5 2.47.91 3.73 1.34-4.01 7.2-12.18 10.96-15.76 18.41-1.27-1.06-2.69-1.88-4.17-2.55-2.32-20.1-5.62-40.08-7.56-60.22 9.71 2.02 18.97 5.79 28.67 7.9-.22-2.99-.43-5.97-.61-8.95z"/><path fill="#AA8563" stroke="#AA8563" d="M841.3 228.24c7-6.47 15.9-11.62 25.67-11.78 10.44-.57 20.08 5.16 27.18 12.39 5.11 5.39 9.85 12.26 8.72 20.09-10.98 1.52-21.63 4.85-31.8 9.2-4.28 1.7-8.4 3.85-12.8 5.23-4.9 1.48-10.38-.13-13.89-3.79-4.95-5.18-7.12-12.55-7.01-19.61.22-4.13 1.11-8.55 3.93-11.73m6.6-2.65c-4.28 2.6-6.75 7.48-6.72 12.44-.55 7.98 2.48 17 9.7 21.18 4.52 2.51 9.85 1.14 14.23-.98 11.31-5.16 23.15-9.14 35.4-11.35l.35.18c1.35-4.73-1.09-9.33-3.67-13.13-5.1-7.25-12.58-13.01-21.16-15.41-9.85-2.54-20.37.84-28.13 7.07z"/><path fill="#FDD5B5" stroke="#FDD5B5" d="M939.8 227.9c6.91-7.4 16.77-13.23 27.24-12.01 6.72.52 12.67 3.92 18.14 7.61-8.23.24-15.44 4.53-23.27 6.46.3-.94.62-1.88.95-2.81-4.99 1.11-9.46 4.24-11.42 9.07-6.84 1.11-12.42 5.88-18.94 8.08-.62-6.35 3.28-11.9 7.3-16.4z"/><path fill="#EDC3A1" stroke="#EDC3A1" d="M1043.38 225.81c10.69-2.56 21.03-6.43 31.75-8.86-2.08 20.3-5.21 40.46-7.64 60.71-4.61.81-9.29 1-13.86 1.97 2.5-6.03 1.6-13.14-2.62-18.17.31-1.47.63-2.94.95-4.4-2.01-.74-4.02-1.46-6.03-2.17-.85-1.24-1.65-2.5-2.38-3.8.41-1.13.83-2.26 1.26-3.38 5.15 2.51 9.83 5.92 15.11 8.2 1.09-7.57 1.79-15.21 2.18-22.84-6.7.32-13.32 1.54-20.02 1.79-.24-1.36-.44-2.71-.62-4.07.57-3.38 1.41-6.71 2.38-10-.16 1.67-.32 3.34-.46 5.02z"/><path fill="#FED5B4" stroke="#FED5B4" d="M847.9 225.59c7.76-6.23 18.28-9.61 28.13-7.07 8.58 2.4 16.06 8.16 21.16 15.41 2.58 3.8 5.02 8.4 3.67 13.13l-.35-.18c-14.49-7.46-29.15-14.77-44.66-19.9l-1.12-.24c-2.27-.45-4.56-.81-6.83-1.15z"/><path fill="#FEFEFF" stroke="#FEFEFF" d="M961.91 229.96c7.83-1.93 15.04-6.22 23.27-6.46 6.03 2.93 7.51 10.45 6.85 16.53-.82 7.12-4.36 15-11.53 17.63-4.51 1.77-9.09-.48-13.34-1.89l.96-.44c3.27-1.6 6.77-3.36 8.57-6.71 2.15-3.23 2.15-7.22 1.65-10.92-2.39 2.01-4.99 4.45-8.37 4.11-5.77.02-10.35-6.45-8.06-11.85z"/><path fill="#FEFEFE" stroke="#FEFEFE" d="M841.18 238.03c-.03-4.96 2.44-9.84 6.72-12.44 2.27.34 4.56.7 6.83 1.15-7.55 1.88-12.81 10.14-10.41 17.73 2.03 8.26 12.28 12.76 19.78 8.76 6.16-2.8 8.74-10.02 7.56-16.4-2.95 2.91-7.12 5.69-11.38 3.69-5.49-1.89-7.08-8.74-4.43-13.54 15.51 5.13 30.17 12.44 44.66 19.9-12.25 2.21-24.09 6.19-35.4 11.35-4.38 2.12-9.71 3.49-14.23.98-7.22-4.18-10.25-13.2-9.7-21.18z"/><path fill="#2B4598" stroke="#2B4598" d="M844.32 244.47c-2.4-7.59 2.86-15.85 10.41-17.73l1.12.24c-2.65 4.8-1.06 11.65 4.43 13.54 4.26 2 8.43-.78 11.38-3.69 1.18 6.38-1.4 13.6-7.56 16.4-7.5 4-17.75-.5-19.78-8.76zM951.44 236.22c1.96-4.83 6.43-7.96 11.42-9.07-.33.93-.65 1.87-.95 2.81-2.29 5.4 2.29 11.87 8.06 11.85 3.38.34 5.98-2.1 8.37-4.11.5 3.7.5 7.69-1.65 10.92-1.8 3.35-5.3 5.11-8.57 6.71-3.1.08-6.58.96-9.36-.79-1.66-1.3-3.27-2.64-4.87-3.98-3.23-3.99-4.14-9.5-2.45-14.34z"/><path fill="#DEAD80" stroke="#DEAD80" d="M793.84 234.67c.29-1.66.61-3.32.84-4.99.32 3.33.61 6.67.63 10.02-4.02-.85-8.11-1.38-12.21-1.48.07 3.37.38 6.74 1.02 10.06a52 52 0 0 0 11.13-6.44c-.09 2.58-.17 5.18-.39 7.76-5.67-.57-9.66 4.66-14.65 6.56-1.18-7.63-1.76-15.34-2.07-23.05 5.25.27 10.47.93 15.7 1.56zM1043.55 251.09c-3.11-6.26-3.59-13.53-2.09-20.3.18 1.36.38 2.71.62 4.07 6.7-.25 13.32-1.47 20.02-1.79-.39 7.63-1.09 15.27-2.18 22.84-5.28-2.28-9.96-5.69-15.11-8.2-.43 1.12-.85 2.25-1.26 3.38m-1.4-10.97c4.04 3.48 9.09 5.84 13.92 8.09.73-3.28 1.09-6.64.95-10-4.92.67-10.26.06-14.87 1.91z"/><path fill="#FEFEFD" stroke="#FEFEFD" d="M932.5 244.3c6.52-2.2 12.1-6.97 18.94-8.08-1.69 4.84-.78 10.35 2.45 14.34-6.59-3.39-14.06-4.37-21.25-5.75z"/><path fill="#EDC2A0" stroke="#EDC2A0" d="M783.1 238.22c4.1.1 8.19.63 12.21 1.48-.01.53-.04 1.6-.06 2.14a52 52 0 0 1-11.13 6.44c-.64-3.32-.95-6.69-1.02-10.06z"/><path fill="#EEC39F" stroke="#EEC39F" d="M1042.15 240.12c4.61-1.85 9.95-1.24 14.87-1.91.14 3.36-.22 6.72-.95 10-4.83-2.25-9.88-4.61-13.92-8.09z"/><path fill="#E1AC81" stroke="#E1AC81" d="M788.14 256.65c2.04-.65 4.08-1.31 6.14-1.96-.36 2.26-.85 4.5-1.68 6.64-1.26-.43-2.52-.84-3.73-1.34-.35-1.1-.52-2.23-.73-3.34z"/><path fill="#D9A572" stroke="#D9A572" d="M1045.93 254.89c2.01.71 4.02 1.43 6.03 2.17-.32 1.46-.64 2.93-.95 4.4-1.71-2.18-3.5-4.3-5.08-6.57z"/><path fill="#EEC3A1" stroke="#EEC3A1" d="M487.22 266.35c6.51-1.68 12.89-3.91 19.49-5.25.04 3.83-.07 7.65-.3 11.47.63-.1 1.9-.31 2.54-.41-.64.24-1.9.71-2.53.94-.6 9.61-.99 19.24-1.13 28.86-.1 4.09-.48 8.17-.51 12.26 4.83-2.85 8.87-6.79 13.31-10.18 4.38-3.59 9.06-6.83 13.11-10.8l-.94-.89c1.79-.71 3.6-1.39 5.42-2.04 2.83 5.4 6.1 10.73 8.1 16.46-12.34 12.33-25.45 23.95-37.89 36.2-1.41 1.06-.38 2.79-.05 4.13 15.29 40.4 30.53 80.81 45.76 121.24 1.39 3.41.19 7.1.17 10.65-.53 15-1.95 29.95-2.45 44.95-.33 5.41-1.16 10.81-.83 16.25 3.02-.64 5.93-1.68 8.78-2.84 39.22-14.48 78.41-29.01 117.62-43.54 7.47-2.88 15.14-5.32 22.51-8.47 2.37-3.84 3.25-8.46 5.62-12.34 13.13-23.64 38.73-40.49 65.95-41.46 9.86-.36 19.98 1.78 28.31 7.25 2.08-1.52 4.12-3.09 6.16-4.67 16.97 8.98 34.38 17.15 51.46 25.94 5.2 2.91 11.32 2.51 17.07 2.81 37.02 1.73 74.03 3.5 111.04 5.37 1.89-.22 4.6.66 5.78-1.32 6.14-9.24 11.72-18.84 17.98-28.01 4.5-7.58 9.7-14.77 13.74-22.61 3.98 2.74 8.93 2.52 13.54 3.03 1.48.34 2.71-.75 3.88-1.49 12.16-9.41 27.87-13.31 43.06-13.21 22.42.46 45.69 9.53 59.41 27.86 18.08 5.91 36.5 10.89 54.71 16.47 43.95 12.95 87.83 26.14 131.8 39.03 1.5.52 3.58.95 3.73 2.92 3.11 10.64 6.4 21.24 9.67 31.84 1.62 6.07 4.16 11.94 4.71 18.26 5.67 52.62 11.56 105.21 17.3 157.82.37 3.04-.1 6.44 1.84 9.05 3.81 5.72 7.84 11.29 11.77 16.94 5.06 7.29 10.13 14.57 15.23 21.84 6.47 9.31 12.94 18.63 19.55 27.86-3.7 1.68-7.81 1.86-11.7 2.78-25.09 4.76-50.18 9.51-75.26 14.29-.5-1.65-.98-3.3-1.39-4.95-2.23-8.94-4.39-17.89-6.7-26.8-1.5-5.69-2.72-11.45-4.33-17.11-3.89 5.54-6.55 11.81-9.87 17.69-1.87 3.38-3.79 6.75-4.98 10.46-1.63 1.87-2.77 4.08-4.01 6.21-.74-.86-1.46-1.71-2.17-2.56-3.33-3.99-6.72-7.93-10.15-11.83 7.84-11.26 16.55-21.9 24.47-33.09-1.09-5.73-3.88-11.04-5.59-16.61l-39-108.06c-.6-1.3-.59-2.58.03-3.86 6.61-17.27 13.35-34.49 19.89-51.79-62.11-9.87-124.31-19.16-186.46-28.79-.69-.1-1.37-.2-2.03-.3-.22 4.79-.39 9.88 2.21 14.13 1.7 3.69 5.23 5.86 8.56 7.91-4.69-.62-8.21-3.85-11.16-7.27.1 1.4.26 2.81.42 4.22-1.35 25.23-.81 50.52-1.69 75.76-.13 7.8-.16 15.6-.41 23.41-15.82 5.5-31.75 10.74-47.44 16.57-7.68 39.03-13.83 78.41-21.47 117.46 1.97-.4 2.31 1.05 2.43 2.6-.23-.51-.68-1.53-.9-2.04-3.03.4-6.01 1.03-8.95 1.84-1.85.47-3.74.74-5.6 1.04-34.97 6.38-69.85 13.42-104.96 18.94-1.65.66-2.77 2.15-3.95 3.41-9.54-30.35-17.75-61.13-27.11-91.54-28.25-11.2-56.68-21.97-84.89-33.26-10.68-28.17-21.4-56.32-31.88-84.56-.48 2.14-.94 4.29-1.44 6.44a45.5 45.5 0 0 0-2.67-16.36c-1.16-3.26-2.44-6.48-3.52-9.77-.66-1.92-1.31-3.84-1.97-5.74-1.96.42-3.2 1.79-3.72 3.66l.04-2.47c-75.5 16.87-150.93 34.03-226.44 50.85-13.87-12.96-27.52-26.16-41.34-39.17-4.6-44.71-8.3-89.51-12.62-134.25-2.87-29.65-5.25-59.35-8.37-88.97-2.67-6.13-7.16-11.34-10.52-17.11 6.79-2.38 13.53-4.89 20.23-7.52 2.17-.65 4.75-2.05 6.89-.56 4.3 2.59 8.26 5.73 12.72 8.07-.78-4.72-1.71-9.4-2.48-14.11 7.04-4.52 14.44-8.45 21.7-12.59 1.3-.8 2.29-1.97 3.39-3.01-4.15.6-8.19 1.75-12.25 2.73-.67-.9-1.27-1.8-1.96-2.65-4.15-7.53-6.86-15.74-10.78-23.39 2.51 8.82 5.46 17.51 8.33 26.22-.13.36-.4 1.09-.53 1.45-4.28 1.56-8.6 3.97-13.27 3.57-2.53-7.33-6.02-14.29-9-21.44 1.59 7.5 3.7 14.88 5.28 22.38.13.8.27 1.6.41 2.41-4.52 1.73-9.08 3.36-13.75 4.63-.55-.45-1.09-.9-1.61-1.35-3.39-5.48-6.21-11.27-9.38-16.87 1.46 6.28 3.56 12.38 5.08 18.64.2.8.39 1.6.59 2.41-3.84 2.73-7.96 5.03-12.04 7.38-.98-1.41-1.94-2.83-2.8-4.3-4.69-7.74-9.75-15.26-14.65-22.87-3.64-5.74-7.68-11.24-10.91-17.22 25.22-7.48 50.62-14.35 75.91-21.59m8 29.97c-3.83 1.08-3.9 7.22-.18 8.53 3.58 2.05 7.92-2.34 6.1-5.91-.71-2.6-3.59-3.25-5.92-2.62m-17.74 5.32c-2.2 1.22-3.81 3.98-2.28 6.37 1.52 3.86 8.22 3.24 8.61-1.01 1.01-3.59-2.99-6.85-6.33-5.36m-19.29 7.64c-2.18.77-3.13 3.7-2.17 5.72.95 4.07 7.88 3.86 8.64-.25 1.39-3.71-3.1-7.53-6.47-5.47m-18.84 9.1c-2.48 1.64-2.48 5.57-.04 7.26 2.72 2.29 7.85.21 7.35-3.6.5-3.72-4.62-6.2-7.31-3.66m654.02 96.1c-5.97.25-12.56 1.54-16.73 6.19-2.36 2.3-4.12 5.66-3.31 9.03.89 4.66 4.85 8.01 9.01 9.84 7.92 3.62 17.41 2.84 25.03-1.17 3.37-1.96 6.58-5.18 6.76-9.29.55-4.09-2.01-7.8-5.12-10.16-4.47-3.31-10.18-4.47-15.64-4.44m-329 25.92c-8.13 1.27-16.03 5.16-21.24 11.65-3.07 3.53-4.7 8.31-4.24 12.98.83 3.84 3.64 7.29 7.4 8.59 8 3.02 17.03 1.01 24.29-3.06 6.11-3.46 11.62-9.03 12.89-16.18.72-3.27-.15-6.88-2.59-9.22-4-4.68-10.75-5.52-16.51-4.76m356.64 38.82c-.31 9.5 1.89 18.85 2.51 28.31 7.03 1.68 14.3 1.88 21.47 2.67 13.02 1.45 26.05 2.79 39.1 3.98 24.25 2.34 48.52 4.8 72.89 5.09 4.09-.08 8.4.34 12.23-1.44-4.04-2.48-8.73-3.42-13.19-4.82-34.15-9.71-68.51-18.74-103.04-26.99-10.61-2.5-21.2-5.13-31.97-6.8m-100.72 6.95c-6.8 4.31-13.76 8.36-20.64 12.53-6.37 3.51-12.32 7.89-18.98 10.8-19.84 2.57-39.78 4.44-59.67 6.65-7.31.39-14.65 2.49-21.95.9-21.01-2.94-42.02-5.94-63-9.08-1.8-.14-3.95-.68-5.29.88-9.94 9.11-19.77 18.34-29.65 27.52 3.49 7.12 8.44 13.36 12.34 20.25 6.02 9.63 12.4 19.04 18.19 28.82 2.55 3.97 4.9 8.36 9.16 10.77 24.51 18.48 48.76 37.31 73.23 55.85 3.24 3.74 4.57 8.73 7.04 12.98 6.37 12.56 12.5 25.23 19.06 37.69 1.92 3.89 3.44 8 5.88 11.62 2.65-3.58 3.69-7.99 5.5-11.99 3.96-9.09 7.32-18.43 11.27-27.53 7.03-16.62 12.72-33.86 21.29-49.8 4.33-8.65 8.66-17.31 12.96-25.98 1.09-2.62 3.96-3.54 6.21-4.9 17.22-9.14 34.34-18.44 51.71-27.29 1.76-1.16 4.13-1.86 5.21-3.78.02-2.16-.41-4.28-.75-6.39-2.21-12.58-3.98-25.22-6.09-37.81-.58-2.91-.49-6.27-2.6-8.6-3.12-3.54-7.04-6.23-10.4-9.51-5.18-5.21-10.84-9.91-16.18-14.94-1.13-1.29-2.72-.36-3.85.34m-430.36 52.82c-9.97 4.11-20.3 7.39-30.07 11.92 5.8.39 11.45-1.31 17.17-1.98 27.97-4.2 55.93-8.52 83.9-12.72 13.33-2.14 26.76-3.69 39.98-6.42-1.22-9.45-3.79-18.67-5.25-28.09-.26-1.21-.69-3.58-2.48-2.54-34.45 13.19-68.84 26.53-103.25 39.83m445.64 74.09c-6.3 1.44-13.42 4.96-14.87 11.88-.91 5.5 3.83 9.95 8.66 11.52 8.81 2.88 19.81 1.25 26.17-5.91 3.15-3.53 3.33-9.53-.28-12.81-5.1-5.03-12.93-5.88-19.68-4.68m-198.3 17.27c-5.47 1.14-11.81 5.32-11.13 11.66.66 6.45 7.1 10.36 12.81 11.96 6.27 1.4 13.39 1.42 19.04-2.02 3.1-1.84 5.59-5.19 5.44-8.92-.4-4.43-3.7-7.98-7.43-10.05-5.65-3.09-12.45-4.08-18.73-2.63z"/><path stroke="#000" d="M351.54 262.41c8.63-2.35 17.47 1.53 24.44 6.44 14.52 10.52 24.44 25.97 32.53 41.68 4.49-1.98 9.14-3.56 13.71-5.37 4.9 7.61 9.96 15.13 14.65 22.87-6.33 2.22-12.51 4.82-18.84 7.04 4.37 16.81 7.52 34.49 4.28 51.8-1.58 8.14-4.79 16.7-11.75 21.73-6.19 4.52-14.65 4.27-21.46 1.35-10.64-4.54-19.02-13.01-26.1-21.93-14.52-18.97-23.97-41.63-28.41-65.04-2.53-14.52-3.41-29.92 1.46-44.06 2.52-7.31 7.7-14.42 15.49-16.51m14.62 46.93c-4.28 1.66-5.89 6.59-6.38 10.77-1.01 9.47 1.56 19 5.61 27.51 3.31 6.59 7.68 13.12 14.22 16.86 3.52 2.11 8.79 2.03 11.29-1.61 4.11-5.89 3.48-13.64 2.38-20.38-2.08-10.5-6.66-20.82-14.31-28.45-3.33-3.14-8.07-6.31-12.81-4.7z"/><path fill="#5C99AB" stroke="#5C99AB" d="M737.96 272.83c9.02-1.12 18.16-.38 27.15-1.85.53 4.19 1.08 8.39 1.6 12.59 1.05.28 2.11.57 3.17.86.41 2.91.62 5.98 2.23 8.54 4.07 6.97 10.36 13.68 18.86 14.46-2.16 15.86-4.62 31.67-6.83 47.52 2.24 1.73 4.48 3.46 6.74 5.17-7.64 4.88-16.82 6.3-25.22 9.41-8.27 3.14-16.67 5.93-25.01 8.88-19.41 5.99-38.42 13.19-57.74 19.47-44.51 15.22-89.03 30.34-133.52 45.61-12.28-32.55-24.52-65.1-36.85-97.62 13.18-12.67 26.59-25.09 39.75-37.78-2.35-4.73-4.75-9.44-7.07-14.17 1.3-.52 2.6-1.03 3.91-1.54 2.48 4.92 4.67 10.03 7.93 14.51 7.86 11.27 17.38 21.85 29.6 28.46 7.69 4.16 17.13 5.98 25.51 2.86 8.35-2.94 14.46-10.24 17.57-18.34 5.06-13.05 5.06-27.45 3.48-41.18 7.84-1.54 15.84-1.65 23.8-1.9 9.64-1.02 19.36-.56 29-1.66 7.33-.19 14.68-.06 21.98-1 10-.14 19.95-1.39 29.96-1.3z"/><path fill="#DFAD80" stroke="#DFAD80" d="M903.17 281.14c6.92-4.75 16.21-5.63 23.92-2.3 7.08 2.65 12.4 9.47 12.83 17.08-9.57 1.62-19.25-.04-28.85.7-5.39.2-10.77-.09-16.12-.59.03-5.94 3.22-11.69 8.22-14.89m2.63 7.64c-3.15.86-3.86 4.32-3.76 7.14 3.74.37 7.51.33 11.27.19 1.95-4.47-3.19-9.26-7.51-7.33m15.99 7.33c3.78.14 7.57.13 11.36-.09.25-2.99-.61-6.66-4.02-7.35-4.45-1.68-8.62 3.1-7.34 7.44z"/><path fill="#FF97B2" stroke="#FF97B2" d="M975.28 288.37c10.7-10.23 30.39-8.9 38.97 3.41 2.72 4.33 5.69 8.91 5.71 14.22.19 4.65.26 9.49-1.08 13.98-2.98 5.35-6.32 10.98-11.81 14.08-11.11 6.68-26.91 3.96-34.76-6.44a53 53 0 0 1-2.94-4.98c-.88-1.84-1.64-3.73-2.27-5.66a40.4 40.4 0 0 1-.87-5.89c-1.01-8.51 2.95-16.96 9.05-22.72z"/><path stroke="#000" d="M479.56 282.9c3.92 7.65 6.63 15.86 10.78 23.39-.83.94-1.68 1.86-2.45 2.83-2.87-8.71-5.82-17.4-8.33-26.22z"/><path fill="#AD8560" stroke="#AD8560" d="M905.8 288.78c4.32-1.93 9.46 2.86 7.51 7.33-3.76.14-7.53.18-11.27-.19-.1-2.82.61-6.28 3.76-7.14z"/><path fill="#AF845E" stroke="#AF845E" d="M921.79 296.11c-1.28-4.34 2.89-9.12 7.34-7.44 3.41.69 4.27 4.36 4.02 7.35-3.79.22-7.58.23-11.36.09z"/><path fill="#7F7F7F" stroke="#7F7F7F" d="M406.21 293.16c2.18 2.96 4.4 5.95 5.85 9.37-3.08-2.22-3.8-6.33-5.85-9.37z"/><path fill="#070000" stroke="#070000" d="M465.09 292.7c2.98 7.15 6.47 14.11 9 21.44-1.25.3-2.49.62-3.72.94-1.58-7.5-3.69-14.88-5.28-22.38z"/><path fill="#FFFEFD" stroke="#FFFEFD" d="M505.29 301.96c8.28-3.31 16.68-6.32 24.97-9.61l.94.89c-4.05 3.97-8.73 7.21-13.11 10.8-4.44 3.39-8.48 7.33-13.31 10.18.03-4.09.41-8.17.51-12.26z"/><path fill="#FFFEFC" stroke="#FFFEFC" d="M495.22 296.32c2.33-.63 5.21.02 5.92 2.62 1.82 3.57-2.52 7.96-6.1 5.91-3.72-1.31-3.65-7.45.18-8.53z"/><path fill="#5C99AB" stroke="#5C99AB" d="M1666.66 302.54c4.41-1.01 8.82-2.28 13.4-2.29-3.53 1.54-7.15 2.81-10.76 4.08-39.82 14.57-79.45 29.68-119.02 44.93-38.35 15.02-76.87 29.6-115.14 44.84-16.72 6.62-33.61 12.82-50.17 19.82-30.4 11.35-60.34 23.89-90.68 35.38-9.53 3.8-18.92 7.95-28.73 11.01.1.86.22 1.73.36 2.6-33.91-9.98-67.78-20.1-101.67-30.13-6.55-2.2-13.44-3.52-19.82-6.15-11.48-14.07-28.27-23.12-45.92-26.77 10.42-3.58 21.62-3.83 32.36-6.03 9.3-1.98 18.8-2.85 28.13-4.68 13.25-2.47 26.57-4.53 39.9-6.5 111.44-18.72 222.99-36.78 334.29-56.27 44.57-7.5 89.05-15.48 133.47-23.84z"/><path fill="#FFFEFB" stroke="#FFFEFB" d="M477.48 301.64c3.34-1.49 7.34 1.77 6.33 5.36-.39 4.25-7.09 4.87-8.61 1.01-1.53-2.39.08-5.15 2.28-6.37z"/><path fill="#010000" stroke="#010000" d="M451.12 322.54c-1.52-6.26-3.62-12.36-5.08-18.64 3.17 5.6 5.99 11.39 9.38 16.87-1.43.62-2.86 1.2-4.3 1.77z"/><path fill="#FF97B2" stroke="#FF97B2" d="M827.65 313.6c5.11-6.24 13.19-10.04 21.3-9.44 6.36.45 12.92 2.77 17.3 7.58 5.24 5.58 7.97 13.31 8.1 20.91l.54.18c.51.17 1.55.5 2.06.67-.86.2-1.72.42-2.56.65-.33 2.05-.67 4.11-.99 6.18l1.36-.28a13.5 13.5 0 0 0-3.13 4.52c-2.84 6.37-8.18 12.04-15.03 13.97-8.86 2.96-19.13 1.27-26.33-4.75-5.66-5.39-9.42-12.93-9.7-20.78.31-6.93 1.65-14.55 7.08-19.41z"/><path fill="#DFAD7F" stroke="#DFAD7F" d="M490.34 306.29c.69.85 1.29 1.75 1.96 2.65 4.06-.98 8.1-2.13 12.25-2.73-1.1 1.04-2.09 2.21-3.39 3.01-7.26 4.14-14.66 8.07-21.7 12.59.77 4.71 1.7 9.39 2.48 14.11-4.46-2.34-8.42-5.48-12.72-8.07-2.14-1.49-4.72-.09-6.89.56-6.7 2.63-13.44 5.14-20.23 7.52-.81-1.22-1.61-2.42-2.43-3.6 4.08-2.35 8.2-4.65 12.04-7.38-.2-.81-.39-1.61-.59-2.41 1.44-.57 2.87-1.15 4.3-1.77.52.45 1.06.9 1.61 1.35 4.67-1.27 9.23-2.9 13.75-4.63-.14-.81-.28-1.61-.41-2.41 1.23-.32 2.47-.64 3.72-.94 4.67.4 8.99-2.01 13.27-3.57.13-.36.4-1.09.53-1.45.77-.97 1.62-1.89 2.45-2.83z"/><path fill="#7F7F7F" stroke="#7F7F7F" d="M366.16 309.34c4.74-1.61 9.48 1.56 12.81 4.7 7.65 7.63 12.23 17.95 14.31 28.45 1.1 6.74 1.73 14.49-2.38 20.38-2.5 3.64-7.77 3.72-11.29 1.61-6.54-3.74-10.91-10.27-14.22-16.86-4.05-8.51-6.62-18.04-5.61-27.51.49-4.18 2.1-9.11 6.38-10.77m4.16 13.01c-2.04 1-2.9 3.45-3.08 5.58-.71 7.55 2.08 15.22 6.85 21.03 2.07 2.3 5.19 4.87 8.5 3.58 2.61-1.47 3.2-4.8 3.25-7.54-.03-6.61-2.46-13.16-6.48-18.39-2.12-2.65-5.39-5.48-9.04-4.26z"/><path fill="#FEFEFD" stroke="#FEFEFD" d="M458.19 309.28c3.37-2.06 7.86 1.76 6.47 5.47-.76 4.11-7.69 4.32-8.64.25-.96-2.02-.01-4.95 2.17-5.72z"/><path fill="#FED4B5" stroke="#FED4B5" d="M939.96 316.24c8.83-1.27 17.43-3.82 26.27-5.15.15 1.98.43 3.95.87 5.89-10.07 1.81-20.09 4.01-30.22 5.38-3.6-1.14-6.96-3.47-10.92-3-5.2-.11-9.89 2.9-12.73 7.12-12.11 2.24-24.28 4.23-36.28 7.02-.51-.17-1.55-.5-2.06-.67-.56-1.22-.54-3.48 1.25-3.56 9.18-1.96 18.48-3.49 27.57-5.78 3.28-3.36 6.4-7.13 10.96-8.82 4.82-2.09 10.26-2.14 15.4-1.54 3.49.34 6.43 2.64 9.89 3.11z"/><path fill="#C60857" stroke="#C60857" d="M936.88 322.36c10.13-1.37 20.15-3.57 30.22-5.38.63 1.93 1.39 3.82 2.27 5.66-9.62 2.01-19.28 3.77-28.96 5.39.04 3.41-.05 7.17-2.54 9.8-6.84 8.25-22.54 5.93-25.51-4.84-12.63 1.82-25.1 4.53-37.6 7.06l-1.36.28c.32-2.07.66-4.13.99-6.18.84-.23 1.7-.45 2.56-.65 12-2.79 24.17-4.78 36.28-7.02 2.84-4.22 7.53-7.23 12.73-7.12 3.96-.47 7.32 1.86 10.92 3z"/><path fill="#FFFEFF" stroke="#FFFEFF" d="M439.35 318.38c2.69-2.54 7.81-.06 7.31 3.66.5 3.81-4.63 5.89-7.35 3.6-2.44-1.69-2.44-5.62.04-7.26z"/><path stroke="#000" d="M370.32 322.35c3.65-1.22 6.92 1.61 9.04 4.26 4.02 5.23 6.45 11.78 6.48 18.39-.05 2.74-.64 6.07-3.25 7.54-3.31 1.29-6.43-1.28-8.5-3.58-4.77-5.81-7.56-13.48-6.85-21.03.18-2.13 1.04-4.58 3.08-5.58z"/><path fill="#FED4B5" stroke="#FED4B5" d="M940.41 328.03c9.68-1.62 19.34-3.38 28.96-5.39.88 1.71 1.87 3.36 2.94 4.98-5.87.66-11.58 2.23-17.42 3.04-2.09.47-4.5.49-6.2 1.94-.93 3.03-1.12 6.4-3.11 9.02-6.08 8.41-17.66 12.06-27.56 9.14-5.8-1.2-10.5-5.17-14.04-9.74-.71-1.22-2.26-.56-3.33-.49-9.67 1.92-19.39 3.59-29.12 5.2l.1-1.16c.72-1.71 1.79-3.24 3.13-4.52 12.5-2.53 24.97-5.24 37.6-7.06 2.97 10.77 18.67 13.09 25.51 4.84 2.49-2.63 2.58-6.39 2.54-9.8z"/><path fill="#61A6B6" stroke="#61A6B6" d="M790.88 360.12c16.44 12.61 33.1 24.93 49.37 37.77-14.36 11-28.88 21.77-43.24 32.76-10.76-5.15-23.01-6.93-34.81-5.32-18.44 2.21-35.72 11.11-49.15 23.79-4.4 4.32-8.78 8.87-11.47 14.5-45.17 7.65-90.43 14.62-135.62 22.13-3.09.49-6.89.85-8.12 4.27.35-7.02 1.29-14.05.95-21.07-2.68-8.63-6.35-16.95-9.4-25.46 44.49-15.27 89.01-30.39 133.52-45.61 19.32-6.28 38.33-13.48 57.74-19.47 8.34-2.95 16.74-5.74 25.01-8.88 8.4-3.11 17.58-4.53 25.22-9.41z"/><path fill="#E0AD80" stroke="#E0AD80" d="M934.52 377.53c4.35-2.38 8.63-4.94 13.31-6.65 2.19 7.63 4.1 15.39 5.23 23.27-14.74-.11-29.48-1.37-44.17-2.48 8.12-5.42 17.12-9.37 25.63-14.14zM971.82 428.75c2.3-10.46 4.14-21.02 6.53-31.46 14.13 6.15 28.05 12.78 42.16 19.01-4.04 7.84-9.24 15.03-13.74 22.61-6.26 9.17-11.84 18.77-17.98 28.01-1.18 1.98-3.89 1.1-5.78 1.32-37.01-1.87-74.02-3.64-111.04-5.37-5.75-.3-11.87.1-17.07-2.81-17.08-8.79-34.49-16.96-51.46-25.94 14.87-11.33 29.79-22.6 44.77-33.78 3.01 9.3 4.32 19.03 7.02 28.42 38.86.12 77.73.14 116.59-.01z"/><path fill="#FED5B4" stroke="#FED5B4" d="M1093.37 414.48c5.46-.03 11.17 1.13 15.64 4.44 3.11 2.36 5.67 6.07 5.12 10.16-.18 4.11-3.39 7.33-6.76 9.29-7.62 4.01-17.11 4.79-25.03 1.17-4.16-1.83-8.12-5.18-9.01-9.84-.81-3.37.95-6.73 3.31-9.03 4.17-4.65 10.76-5.94 16.73-6.19zM764.37 440.4c5.76-.76 12.51.08 16.51 4.76 2.44 2.34 3.31 5.95 2.59 9.22-1.27 7.15-6.78 12.72-12.89 16.18-7.26 4.07-16.29 6.08-24.29 3.06-3.76-1.3-6.57-4.75-7.4-8.59-.46-4.67 1.17-9.45 4.24-12.98 5.21-6.49 13.11-10.38 21.24-11.65z"/><path fill="#5C99AB" stroke="#5C99AB" d="M1756.43 459.41c11.99-1.77 23.83-4.83 35.99-5.29-.83.91-1.29 2.2-2.51 2.67-8.65 4.19-18.01 6.6-26.94 10.09-38 13.47-76.4 25.67-114.62 38.5a23504 23504 0 0 1-200.95 64.91c-20.07 6.12-39.84 13.11-59.96 19.06-9.73 3.28-19.42 6.78-29.4 9.22-1.84-16.49-3.57-33.01-5.45-49.5 7.51-.65 14.68-3.14 22.07-4.55 9.94-2.17 19.79-4.75 29.71-7.04 11.59-2.12 22.92-5.38 34.44-7.82 20.72-5.14 41.66-9.32 62.37-14.47 75.5-17.09 150.93-34.56 226.76-50.11 9.52-1.75 18.9-4.25 28.49-5.67zM565.96 485.75c45.19-7.51 90.45-14.48 135.62-22.13-2.78 5.49-5.7 10.92-8.59 16.35-45.82 16.96-91.62 33.95-137.46 50.86.77-13.61 1.69-27.2 2.31-40.81 1.23-3.42 5.03-3.78 8.12-4.27z"/><path fill="#61A6B6" stroke="#61A6B6" d="M448.91 477.9c2.73-1.05 5.59-1.7 8.48-2.16.78 9.02 1.7 18.02 2.51 27.04-27.26 4.59-54.6 8.74-81.86 13.36-24.75 3.73-49.38 8.22-74.17 11.6 5.55-2.66 11.5-4.29 17.26-6.42 10.43-3 20.38-7.4 30.83-10.32 32.28-11.15 64.58-22.24 96.95-33.1z"/><path fill="#FED5B5" stroke="#FED5B5" d="M1121.01 479.22c10.77 1.67 21.36 4.3 31.97 6.8 34.53 8.25 68.89 17.28 103.04 26.99 4.46 1.4 9.15 2.34 13.19 4.82-3.83 1.78-8.14 1.36-12.23 1.44-24.37-.29-48.64-2.75-72.89-5.09-13.05-1.19-26.08-2.53-39.1-3.98-7.17-.79-14.44-.99-21.47-2.67-.62-9.46-2.82-18.81-2.51-28.31z"/><path fill="#E0AD80" stroke="#E0AD80" d="M1020.29 486.17c1.13-.7 2.72-1.63 3.85-.34 5.34 5.03 11 9.73 16.18 14.94 3.36 3.28 7.28 5.97 10.4 9.51 2.11 2.33 2.02 5.69 2.6 8.6 2.11 12.59 3.88 25.23 6.09 37.81.34 2.11.77 4.23.75 6.39-1.08 1.92-3.45 2.62-5.21 3.78-17.37 8.85-34.49 18.15-51.71 27.29-2.25 1.36-5.12 2.28-6.21 4.9-4.3 8.67-8.63 17.33-12.96 25.98-8.57 15.94-14.26 33.18-21.29 49.8-3.95 9.1-7.31 18.44-11.27 27.53-1.81 4-2.85 8.41-5.5 11.99-2.44-3.62-3.96-7.73-5.88-11.62-6.56-12.46-12.69-25.13-19.06-37.69-2.47-4.25-3.8-9.24-7.04-12.98-24.47-18.54-48.72-37.37-73.23-55.85-4.26-2.41-6.61-6.8-9.16-10.77-5.79-9.78-12.17-19.19-18.19-28.82-3.9-6.89-8.85-13.13-12.34-20.25 9.88-9.18 19.71-18.41 29.65-27.52 1.34-1.56 3.49-1.02 5.29-.88 20.98 3.14 41.99 6.14 63 9.08 7.3 1.59 14.64-.51 21.95-.9 19.89-2.21 39.83-4.08 59.67-6.65 6.66-2.91 12.61-7.29 18.98-10.8 6.88-4.17 13.84-8.22 20.64-12.53m-88.73 42.8c-7.23 10.95-13.91 22.41-18.03 34.92-2.69 8.3-4.6 17.6-1.41 26.04 2.19 5.99 7.84 10 13.85 11.62 10.32 2.78 21.78 2.52 31.58-2.01 6.09-2.74 10.95-8.69 11.14-15.53.3-6.93-1.12-15.2-7.33-19.31-6.65-4.21-15.42-1.22-20.49 4.11-4.05 3.81-5.74 10.11-3.17 15.22-4.45-12.03 12.01-23.73 22.31-17.07 4.63 3.81 5.52 10.37 5.28 16.02-.24 4.91-3.25 9.39-7.54 11.72-7.74 4.33-17.1 4.68-25.69 3.29-5.62-.95-11.87-3.08-14.59-8.53-3.28-6.58-1.79-14.28.08-21.04 3.98-13.16 10.85-25.25 18.48-36.6-1.49-.97-2.96-1.94-4.47-2.85z"/><path fill="#FDD4B4" stroke="#FDD4B4" d="M589.93 538.99c34.41-13.3 68.8-26.64 103.25-39.83 1.79-1.04 2.22 1.33 2.48 2.54 1.46 9.42 4.03 18.64 5.25 28.09-13.22 2.73-26.65 4.28-39.98 6.42-27.97 4.2-55.93 8.52-83.9 12.72-5.72.67-11.37 2.37-17.17 1.98 9.77-4.53 20.1-7.81 30.07-11.92z"/><path fill="#914F11" stroke="#914F11" d="M1091.46 520.2c.66.1 1.34.2 2.03.3-.25 5.71 1.13 11.44 4.43 16.16.67-.63.98-1.41.91-2.33-.36-1.49-.31-3.35 1.22-4.17 2.41-1.98 5.58-1.57 8.46-1.38 2.49-2.35 6-1.06 8.79-.04 2.92 4.98-1.74 10.25-5.91 12.62-3.82.94-7.38 3.76-11.48 2.77-3.25-.7-5.97-2.8-8.42-4.94-.16-1.41-.32-2.82-.42-4.22 2.95 3.42 6.47 6.65 11.16 7.27-3.33-2.05-6.86-4.22-8.56-7.91-2.6-4.25-2.43-9.34-2.21-14.13m18.04 8.41c.05 2.01 2.09 3.38 2.09 5.43 0 1.82-.86 3.51-1.35 5.24 3.52-1.74 7.13-5.13 6.24-9.42-2.24-.83-4.56-2.07-6.98-1.25m-9.86 2.35c.3 2.01-.13 4-1.07 5.81l3.51.05c-.82.11-2.46.33-3.28.43 2.42 1.55 5.21 3 8.2 2.56 1.82-2.05 3.7-5.13 2.3-7.87-2.36-2.96-6.62-2.49-9.66-.98z"/><path fill="#887A79" stroke="#887A79" d="M1889.81 529.19c9.78-3.09 19.35-6.87 29.26-9.58-.2 27.8-.03 55.6-.12 83.4-.19 18.52.36 37.06-.22 55.57-37.19 13.61-74.51 26.88-111.73 40.4-29.72 11.09-59.77 21.26-89.44 32.49-9.32 3.33-18.75 6.35-27.89 10.16-17.07 5.71-33.86 12.21-50.83 18.2-80.5 29.11-161.03 58.13-241.49 87.4-27.58 9.61-54.95 19.85-82.43 29.77-4.24 1.27-8.28 3.67-12.84 3.35 8.51-13.21 7.47-29.96 4.6-44.75-1.65-9.35-5.23-18.15-9.37-26.64 6.81-3.99 13.62-7.95 20.45-11.91.28.57.86 1.71 1.15 2.27 34.46-6.51 68.92-13.08 103.37-19.67-7.07-10.33-14.3-20.53-21.43-30.81 3.65-2.2 7.33-4.35 11.05-6.45 5.92 9.09 13.43 17.03 21.94 23.74 9.82 7.67 21.39 14.51 34.21 14.64 9.47.24 18.73-5.01 23.5-13.17 5.95-10.06 6.28-22.32 5.02-33.64-3.12-24.31-13.67-47.23-27.74-67.11 8.03-.84 15.23-4.75 22.93-6.88 10.55-2.96 20.65-7.34 31.27-10.1 9.69-2.71 19-6.54 28.67-9.29 10.2-4.03 20.8-6.95 31.18-10.5 9.38-2.78 18.49-6.46 28-8.82 10.58-3.03 20.78-7.26 31.35-10.33 9.2-2.69 18.02-6.5 27.22-9.24 7.66-2.91 15.76-4.47 23.31-7.73 16.82-5.46 33.63-10.97 50.39-16.64 4.51-1.25 9.08-2.34 13.37-4.28 13.76-4.57 27.47-9.34 41.44-13.28 9.92-2.97 19.38-7.23 29.29-10.24 12.43-4.46 25.4-7.3 37.63-12.36 8.26-2.8 16.41-6.01 24.93-7.97z"/><path fill="#978384" stroke="#978384" d="m1919.07 519.61.93-.6v700.57c-.24.32-.73.96-.98 1.28-14.94 5.56-29.4 12.33-44.35 17.87-31.96 13.07-63.99 25.98-96.04 38.83-20.91 8.48-41.67 17.32-62.79 25.25 4.43-6.45 10.68-11.31 15.71-17.26 5.8-6.86 12.66-12.7 18.5-19.53 6.39-7.27 13.6-13.76 19.81-21.2 12.2-12.47 24.2-25.14 36.05-37.95 7.46-7.86 15.17-15.48 22.35-23.6 7.19-6.81 13.22-14.72 20.46-21.48 5.37-5 9.64-11.02 15-16.04 6.19-5.83 11.43-12.57 17.54-18.49 6.93-6.76 13.11-14.24 20.02-21.04 5.59-5.38 10.45-11.46 15.97-16.92 2.11-1.84 1.67-4.85 1.8-7.35-.29-28.73.15-57.46-.2-86.18-7.79 2.41-14.9 6.54-22.45 9.57-20.55 9.22-41.08 18.43-61.67 27.53-7.56 3.85-15.39 7.15-23.12 10.61-11.74 4.72-23.05 10.41-34.59 15.57-18.18 8.06-36.24 16.38-54.46 24.37-17.48 8.4-35.59 15.44-53.02 23.95-88.19 39.36-176.14 79.29-264.29 118.75-24.7 11.43-49.8 21.97-74.37 33.68-7.89 2.84-15.13 7.17-23.02 10.04-18.31 8.4-36.72 16.57-55.02 24.96-9.93 3.83-19.21 9.1-29.12 12.97-13.9 6.47-28.08 12.33-41.85 19.06-70 30.81-139.42 62.89-209.32 93.93-.48.02-1.45.05-1.93.07 8.42-5.95 17.99-9.99 26.63-15.6 30.43-16.86 60.64-34.12 91.1-50.95 26.31-15.02 52.79-29.74 79.1-44.74 17.51-9.33 34.49-19.61 52-28.93 13.97-8.15 28.25-15.76 42.23-23.89 17.4-10.05 35.14-19.5 52.52-29.6 38.03-20.83 75.44-42.72 113.48-63.51 5.71-3.9 12.19-6.51 17.78-10.58 11.7.85 23.6 1.74 35.22-.42 3.13-.78 6.63-1.51 8.93-3.96 1.67-1.9.4-4.58-1.17-6.07-3.14-3.04-7.17-4.94-11.14-6.63 7.46-4.96 15.56-8.82 23.25-13.4 8.38-4.64 16.52-9.72 25.13-13.93 9.74-6.09 20.05-11.19 29.91-17.1 18.07-9.8 35.78-20.24 53.84-30.05 33.3-19.18 67.05-37.53 100.4-56.65 31.1-17.1 61.83-34.89 92.92-52.04 1.88-1.1 3.67-2.38 5.42-3.7-8.82 1.86-16.95 5.94-25.52 8.62-19.61 6.53-39.04 13.56-58.55 20.37-19.83 7.34-39.99 13.75-59.82 21.09-9.83 2.8-19.31 6.67-28.93 10.09-57.79 20.18-115.56 40.38-173.26 60.81-17.69 5.7-35.03 12.46-52.67 18.31-10.33 3.69-20.71 7.23-31.03 10.95-9.78 3.63-19.83 6.47-29.44 10.56-1.27-2.89-3.7-4.95-6.31-6.57-3.25-2.03-6.15-4.6-9.56-6.35-2.93-.87-6.06-.49-9.06-.65-52.34-1.59-104.68-3.33-157.02-4.9-7.47-.34-15.01-.01-22.41-1.2 7.86-4.18 16.01-7.75 24.08-11.48 71.85-33.09 143.54-66.49 215.4-99.56 35.43-16.71 71.19-32.74 106.64-49.42 8.29-3.63 16.32-7.83 24.67-11.34 8.13-3.36 15.76-7.78 23.9-11.13 9.03-3.87 17.73-8.45 26.79-12.27 9.37-4.82 19.3-8.44 28.65-13.33 9.17-4.04 18.08-8.64 27.29-12.61 8.19-3.3 15.83-7.79 24.07-11 16.98-8.18 34.24-15.75 51.29-23.77 37.43-17.37 74.82-34.83 112.39-51.9-.23-.27-.67-.81-.9-1.08-121.86 37.42-243.83 74.47-365.7 111.85-19.86 6.26-39.88 12.04-59.78 18.15-81.62 25.23-163.44 49.83-245.07 74.99-2.53.84-5.04 1.75-7.54 2.66 0-5.75-.77-11.55-2.77-16.96-1.77-4.26-4.94-7.71-7.46-11.52-2.49-3.4-4.17-7.26-5.94-11.05 37.87-13.81 75.84-27.38 113.73-41.14 14.66-5.45 29.42-10.69 44.22-15.75-.1-.41-.29-1.22-.39-1.63 10.95 2.74 23.44-1.05 29.92-10.57 4.56.32 8.6-2.08 12.84-3.35 27.48-9.92 54.85-20.16 82.43-29.77 80.46-29.27 160.99-58.29 241.49-87.4 16.97-5.99 33.76-12.49 50.83-18.2 9.14-3.81 18.57-6.83 27.89-10.16 29.67-11.23 59.72-21.4 89.44-32.49 37.22-13.52 74.54-26.79 111.73-40.4.58-18.51.03-37.05.22-55.57.09-27.8-.08-55.6.12-83.4z"/><path fill="#984C03" stroke="#984C03" d="M931.56 528.97c1.51.91 2.98 1.88 4.47 2.85-7.63 11.35-14.5 23.44-18.48 36.6-1.87 6.76-3.36 14.46-.08 21.04 2.72 5.45 8.97 7.58 14.59 8.53 8.59 1.39 17.95 1.04 25.69-3.29 4.29-2.33 7.3-6.81 7.54-11.72.24-5.65-.65-12.21-5.28-16.02-10.3-6.66-26.76 5.04-22.31 17.07-2.57-5.11-.88-11.41 3.17-15.22 5.07-5.33 13.84-8.32 20.49-4.11 6.21 4.11 7.63 12.38 7.33 19.31-.19 6.84-5.05 12.79-11.14 15.53-9.8 4.53-21.26 4.79-31.58 2.01-6.01-1.62-11.66-5.63-13.85-11.62-3.19-8.44-1.28-17.74 1.41-26.04 4.12-12.51 10.8-23.97 18.03-34.92z"/><path fill="#FFFCF4" stroke="#FFFCF4" d="M1109.5 528.61c2.42-.82 4.74.42 6.98 1.25.89 4.29-2.72 7.68-6.24 9.42.49-1.73 1.35-3.42 1.35-5.24 0-2.05-2.04-3.42-2.09-5.43z"/><path fill="#FFFDFA" stroke="#FFFDFA" d="M1099.64 530.96c3.04-1.51 7.3-1.98 9.66.98 1.4 2.74-.48 5.82-2.3 7.87-2.99.44-5.78-1.01-8.2-2.56.82-.1 2.46-.32 3.28-.43l-3.51-.05c.94-1.81 1.37-3.8 1.07-5.81z"/><path fill="#61A6B6" stroke="#61A6B6" d="M1125.29 532.18c48.5 7.42 96.99 14.88 145.48 22.36-1.98 5.23-3.99 10.45-6.02 15.67-7.93 1.83-15.73 4.2-23.74 5.67-48.14 11.33-96.27 22.68-144.38 34.15.42-19.56.63-39.14 1.14-58.68 2.01-1.36 4.87-.02 6.89-1.6 5.47-3.22 11-6.38 16.52-9.53 2.97-1.53 3.22-5.21 4.11-8.04z"/><path fill="#8C5017" stroke="#8C5017" d="M741.35 567.05c.52-1.87 1.76-3.24 3.72-3.66.66 1.9 1.31 3.82 1.97 5.74-.67-.39-2.01-1.18-2.68-1.58l-.05-.46c-2.73 7.69-6.42 15.91-13.92 20.02.1.44.29 1.3.39 1.73-1.73-2.75-5.61-.86-8.27-1.4-.47 6.4 6.28 11.64 12.42 10.26-1.6-3.51-2.55-8.14.82-10.97 1.73-2.39 4.76-1.27 7.04-.48-1.92.05-4.34-.97-5.81.74-2.67 2.47-2.29 6.61-.12 9.27 7.6-5.47 9.26-15.52 8.22-24.25.83 3.21 1.77 6.4 2.45 9.67-.13 5.87-3.29 11.08-7.23 15.22 3.14.47 7.97 2.84 9.87-.96 1.58-5.08-.39-10.33-1.68-15.24.52-.45 1.55-1.35 2.07-1.8a45.5 45.5 0 0 1 2.67 16.36c-.64 2.47-2.54 4.81-5.22 5.09-3.47.63-6.57-1.57-9.93-1.82-2.34.71-4.67 2.07-7.19 1.54-5.81-1.29-11.24-7.07-9.46-13.36-5.04-3.4-2.67-11.43 2.56-13.28 3 .88 3.93 3.85 4.7 6.53-.91-1.53-1.77-3.09-2.59-4.65-5.07-1.87-8.17 7.76-3.18 9.41.61-.41 1.84-1.22 2.45-1.63-.07.66-.22 1.98-.29 2.64 9.27-1.38 13.45-10.86 16.27-18.68z"/><path fill="#FFFEFB" stroke="#FFFEFB" d="M730.39 587.11c7.5-4.11 11.19-12.33 13.92-20.02l.05.46c.2 1.49.44 2.97.72 4.46 1.04 8.73-.62 18.78-8.22 24.25-2.17-2.66-2.55-6.8.12-9.27 1.47-1.71 3.89-.69 5.81-.74-2.28-.79-5.31-1.91-7.04.48-3.37 2.83-2.42 7.46-.82 10.97-6.14 1.38-12.89-3.86-12.42-10.26 2.66.54 6.54-1.35 8.27 1.4-.1-.43-.29-1.29-.39-1.73z"/><path fill="#994D04" stroke="#994D04" d="M744.36 567.55c.67.4 2.01 1.19 2.68 1.58 1.08 3.29 2.36 6.51 3.52 9.77-.52.45-1.55 1.35-2.07 1.8-.22-.1-.64-.32-.86-.43l-.1 1.41c-.68-3.27-1.62-6.46-2.45-9.67-.28-1.49-.52-2.97-.72-4.46z"/><path fill="#5C99AB" stroke="#5C99AB" d="M1241.01 575.88c8.01-1.47 15.81-3.84 23.74-5.67-4.19 10.92-8.43 21.82-12.59 32.75 3.27 8.95 6.47 17.93 9.72 26.89-10.19 2.34-19.96 6.13-29.98 9.07-39.39 12.67-78.87 24.93-118.26 37.6-19.17 5.72-38.07 12.27-57.26 17.91-5.34 1.75-10.79 3.19-15.92 5.52 2.43-13.35 4.73-26.72 7.25-40.05 16.07-5.65 32.18-11.19 48.27-16.81.47-11.01.35-22.04.65-33.06 48.11-11.47 96.24-22.82 144.38-34.15z"/><path fill="#FFFDFA" stroke="#FFFDFA" d="M747.63 580.27c.22.11.64.33.86.43 1.29 4.91 3.26 10.16 1.68 15.24-1.9 3.8-6.73 1.43-9.87.96 3.94-4.14 7.1-9.35 7.23-15.22z"/><path fill="#8E7454" stroke="#8E7454" d="M727.46 583.26c-1.48-1.44 3.02-2.3 2.12-.42-.53.11-1.59.31-2.12.42z"/><path fill="#EB5D5F" stroke="#EB5D5F" d="M1035.57 613.08c6.75-1.2 14.58-.35 19.68 4.68 3.61 3.28 3.43 9.28.28 12.81-6.36 7.16-17.36 8.79-26.17 5.91-4.83-1.57-9.57-6.02-8.66-11.52 1.45-6.92 8.57-10.44 14.87-11.88m.8 8.41c-2.1.33-3.54 2.4-2.99 4.48.32 3.27 5.28 3.85 6.84 1.17 1.63-2.59-.75-6.41-3.85-5.65z"/><path fill="#FE97AD" stroke="#FE97AD" d="M1036.37 621.49c3.1-.76 5.48 3.06 3.85 5.65-1.56 2.68-6.52 2.1-6.84-1.17-.55-2.08.89-4.15 2.99-4.48z"/><path fill="#EB5D5F" stroke="#EB5D5F" d="M837.27 630.35c6.28-1.45 13.08-.46 18.73 2.63 3.73 2.07 7.03 5.62 7.43 10.05.15 3.73-2.34 7.08-5.44 8.92-5.65 3.44-12.77 3.42-19.04 2.02-5.71-1.6-12.15-5.51-12.81-11.96-.68-6.34 5.66-10.52 11.13-11.66m7.15 9.16c-1.24.97-1.25 2.74-.94 4.15.99 3.12 6.33 3.02 7.01-.27 1.42-3.35-3.64-6.54-6.07-3.88z"/><path fill="#61A6B6" stroke="#61A6B6" d="M1231.9 638.92c10.02-2.94 19.79-6.73 29.98-9.07 11.39 31.52 22.76 63.05 34.15 94.57-5.84 1.26-11.44 3.27-16.98 5.45-8.44 2.32-16.62 5.45-24.98 8.01-3.81 1.26-7.91 2.06-11.06 4.71-8.99-4.96-19.71-8.22-29.91-5.43-9.61 2.64-16.71 11.07-19.29 20.49-4.63 1.1-9.04 2.91-13.53 4.43-21.92 6.11-43.25 14.12-65.04 20.68-6.14 2.17-12.39 4.03-18.51 6.25-6.35 2.77-13.25 3.87-19.72 6.31-9.12 2.97-18.19 6.04-27.38 8.77-7.85-10.63-14.95-21.78-21.93-32.96 4.27-23.73 8.5-47.46 12.76-71.18 5.13-2.33 10.58-3.77 15.92-5.52 19.19-5.64 38.09-12.19 57.26-17.91 39.39-12.67 78.87-24.93 118.26-37.6z"/><path stroke="#000" d="M1399.13 634.37c7.7-4.3 17.12-2.51 24.78.97 13.28 6.07 24.11 16.37 33.38 27.46 10.33 12.65 18.76 26.88 24.81 42.06 4.88 12.44 8.36 25.64 8.36 39.09-.17 7.51-1.34 15.44-5.77 21.73-3.5 5.07-9.54 8.32-15.72 8.21-8.19.37-15.95-3.07-22.78-7.24-13.35-8.26-23.99-20.14-33.13-32.75-7.28 4.29-14.61 8.49-21.9 12.76-5.1-7.27-10.17-14.55-15.23-21.84 7.92-4.58 15.82-9.18 23.73-13.77-8.05-17.42-14.37-36.63-12.22-56.04.96-7.98 4.32-16.55 11.69-20.64z"/><path fill="#FE98AF" stroke="#FE98AF" d="M844.42 639.51c2.43-2.66 7.49.53 6.07 3.88-.68 3.29-6.02 3.39-7.01.27-.31-1.41-.3-3.18.94-4.15z"/><path fill="#61A6B6" stroke="#61A6B6" d="M772.77 655.97c2.88 7.57 5.64 15.19 8.62 22.72 3.05 1.18 6.11 2.38 9.17 3.59-8.22 3.32-17.07 4.41-25.59 6.66-13.33 3.41-26.8 6.23-40.09 9.79-37.84 8.56-75.4 18.29-113.23 26.81-9.14 2.48-18.34 4.87-27.71 6.26 5.93-3 12.36-4.82 18.4-7.58 9.62-3.57 18.9-7.99 28.57-11.42 32.26-12.61 64.25-25.86 96.53-38.38 15.06-6.26 30.45-11.75 45.33-18.45z"/><path fill="#887A79" stroke="#887A79" d="M1369.11 699.71c5.86-.6 11.21-3.24 16.76-5.01 1.65 4.53 3.86 8.82 5.83 13.22-4.6 2.67-9.22 5.33-13.82 8.01-3.03-5.34-8.66-9.67-8.77-16.22zM1279.05 729.87c5.54-2.18 11.14-4.19 16.98-5.45.44 1.23.89 2.48 1.37 3.73-8.57 11.63-17.35 23.1-25.96 34.7 2.87 3.31 5.76 6.61 8.54 10.01-.99.53-1.96 1.06-2.92 1.61-8.6-13.13-20.44-24.09-34.05-31.88 3.15-2.65 7.25-3.45 11.06-4.71 8.36-2.56 16.54-5.69 24.98-8.01z"/><path stroke="#000" d="M1213.12 744.26c8.6-3.36 18.02-.29 25.83 3.73 15.12 8.2 27.03 21.14 36.96 34.97 4.78-2.84 9.63-5.54 14.39-8.43.71.85 1.43 1.7 2.17 2.56 1.24-2.13 2.38-4.34 4.01-6.21 6.47-3.54 12.79-7.36 19.18-11.04 2.31 8.91 4.47 17.86 6.7 26.8-11.02 6.38-22.03 12.78-33.03 19.19 5.44 11.47 9.77 23.58 11.73 36.17 1.42 9.69 1.74 19.93-1.8 29.23-2.4 6.29-7.63 11.75-14.34 13.22-8.65 1.79-17.38-1.24-24.85-5.44-12.61-7.26-22.98-17.84-31.78-29.3-12.02-15.91-21.38-33.99-26.5-53.3-2.91-11.51-4.6-23.76-1.79-35.45 1.7-7.06 6.02-14.09 13.12-16.7m21.25 44.24c-4.12 2.12-4.94 7.28-4.89 11.47.48 9.64 4.62 18.76 10.06 26.61 4 5.57 8.92 10.8 15.23 13.73 3.2 1.46 7.34 2.02 10.32-.29 2.95-2.36 3.64-6.46 3.66-10.03-.1-8.81-3.67-17.19-8.22-24.58-3.95-6.16-8.89-11.95-15.33-15.58-3.23-1.8-7.33-3.08-10.83-1.33z"/><path fill="#FFFEFD" stroke="#FFFEFD" d="M1301.46 760.42c3.32-5.88 5.98-12.15 9.87-17.69 1.61 5.66 2.83 11.42 4.33 17.11-6.39 3.68-12.71 7.5-19.18 11.04 1.19-3.71 3.11-7.08 4.98-10.46z"/><path fill="#61A6B6" stroke="#61A6B6" d="M575.14 846.1c100.75-31.81 201.62-63.28 302.37-95.16 4.29 14.85 8.72 29.66 12.97 44.52.8 1.99-.92 3.57-1.92 5.08-4.27 5.52-7.84 11.52-11.5 17.44-10.33 17.04-19.81 34.61-28.45 52.56-10.14 2.2-19.7 6.39-29.66 9.21-11.32 4.12-23.2 6.46-34.36 11.03-6.7 2.76-13.74 4.5-20.58 6.84-13.3 4.43-26.65 8.72-39.96 13.09-6.18 1.68-12.36 3.38-18.28 5.82-13.04 4.79-26.62 7.93-39.61 12.86-10.23 3.61-20.56 6.93-30.95 10.04-14.03 5.69-28.9 8.78-43.12 13.92-22.18 7.96-44.75 14.77-67.1 22.23-10.41 2.97-20.63 6.52-30.97 9.71-9.58 3.27-19.35 5.96-28.78 9.67-7.52 2.29-15.06 4.52-22.51 7.05-12.41 4.7-25.14 8.53-37.74 12.71-12.52 3.27-24.69 7.73-37.01 11.67-36.97 11.95-73.85 24.16-110.82 36.11-7.27 3.07-14.99 4.75-22.42 7.33-12.58 4.18-25.21 8.18-37.76 12.43-8.78 2.56-17.18 6.21-25.99 8.66-14.92 4.26-29.41 9.85-44.19 14.54-12.44 4.27-25.24 7.47-37.54 12.16-3.27 1.33-6.68 2.21-10.09 3.08-13.9 4.06-27.17 9.97-41.19 13.66-12.52 4.49-25.22 8.47-37.98 12.22v-120.66c183.08-57.13 366.2-114.23 549.13-171.76 8.51-3.2 17.4-5.16 26.01-8.06z"/><path fill="#887A79" stroke="#887A79" d="M1180.28 762.08c4.49-1.52 8.9-3.33 13.53-4.43-1.92 6.96-2.33 14.27-1.74 21.45 1.14 14.66 5.58 28.91 11.58 42.28 8.02 17.78 19.12 34.23 32.96 48 10.04 9.63 21.74 18.39 35.55 21.54.1.41.29 1.22.39 1.63-14.8 5.06-29.56 10.3-44.22 15.75-37.89 13.76-75.86 27.33-113.73 41.14-8.72-17.98-17.77-35.8-26.81-53.62 8.45-1.89 16.96-3.56 25.43-5.38-21.16-28.81-42.95-57.16-63.59-86.35 9.19-2.73 18.26-5.8 27.38-8.77 6.47-2.44 13.37-3.54 19.72-6.31 6.12-2.22 12.37-4.08 18.51-6.25 21.79-6.56 43.12-14.57 65.04-20.68z"/><path fill="#2B4598" stroke="#2B4598" d="M1013.06 774.79c2.94-.81 5.92-1.44 8.95-1.84.22.51.67 1.53.9 2.04 3.68 7.97 8.98 15.04 13.82 22.33 20.85 30.07 42.94 59.25 64.85 88.56-4.8 1.28-9.69 2.19-14.55 3.18-24.61-38.12-49.31-76.18-73.97-114.27z"/><path fill="#2B4599" stroke="#2B4599" d="M902.5 794.77c35.11-5.52 69.99-12.56 104.96-18.94 24.64 38.19 49.34 76.36 74.14 114.46-9.58 2.28-19.25 4.19-28.89 6.18-13.86 2.83-27.72 5.71-41.52 8.82-4.61 1.07-9.28 1.81-13.91 2.74-8.97-7.85-18.18-15.41-27.25-23.15-4.63-3.64-8.75-7.95-13.73-11.13-11.03 18.27-22.41 36.34-33.56 54.54-4.05-.86-8.09-1.72-12.13-2.57-8.15-1.68-16.3-3.39-24.45-5.07-3.39-.82-6.8-1.61-10.23-2.23-11.44-2.19-22.8-4.82-34.24-7.04-.56-.11-1.67-.31-2.23-.41 6.46-20.94 16.46-40.58 26.54-59.97 9.91-18.15 19.89-36.42 32.55-52.82 1.18-1.26 2.3-2.75 3.95-3.41z"/><path fill="#887A79" stroke="#887A79" d="M1443.16 893.17c121.87-37.38 243.84-74.43 365.7-111.85.23.27.67.81.9 1.08-37.57 17.07-74.96 34.53-112.39 51.9-17.05 8.02-34.31 15.59-51.29 23.77-8.24 3.21-15.88 7.7-24.07 11-9.21 3.97-18.12 8.57-27.29 12.61-9.35 4.89-19.28 8.51-28.65 13.33-9.06 3.82-17.76 8.4-26.79 12.27-8.14 3.35-15.77 7.77-23.9 11.13-8.35 3.51-16.38 7.71-24.67 11.34-35.45 16.68-71.21 32.71-106.64 49.42-71.86 33.07-143.55 66.47-215.4 99.56-8.07 3.73-16.22 7.3-24.08 11.48-12.1-2.59-24.5-3.36-36.84-3.51 3.7-22.1 7.49-44.17 11.02-66.29.61-4.16 3.84-7.13 6.06-10.49 4.57-5.92 5.61-13.69 5.94-20.95 2.5-.91 5.01-1.82 7.54-2.66 81.63-25.16 163.45-49.76 245.07-74.99 19.9-6.11 39.92-11.89 59.78-18.15z"/><path fill="#7F7F7F" stroke="#7F7F7F" d="M1234.37 788.5c3.5-1.75 7.6-.47 10.83 1.33 6.44 3.63 11.38 9.42 15.33 15.58 4.55 7.39 8.12 15.77 8.22 24.58-.02 3.57-.71 7.67-3.66 10.03-2.98 2.31-7.12 1.75-10.32.29-6.31-2.93-11.23-8.16-15.23-13.73-5.44-7.85-9.58-16.97-10.06-26.61-.05-4.19.77-9.35 4.89-11.47m6.87 11.82c-3.1 1.1-3.32 5.02-3.01 7.79.97 7.32 5.01 14.21 10.74 18.84 2.45 1.9 6.51 3.73 9.06 1.02 2.04-2.85 1.52-6.64.73-9.82-1.67-5.87-4.98-11.34-9.67-15.27-2.18-1.73-4.99-3.39-7.85-2.56z"/><path stroke="#000" d="M1241.24 800.32c2.86-.83 5.67.83 7.85 2.56 4.69 3.93 8 9.4 9.67 15.27.79 3.18 1.31 6.97-.73 9.82-2.55 2.71-6.61.88-9.06-1.02-5.73-4.63-9.77-11.52-10.74-18.84-.31-2.77-.09-6.69 3.01-7.79z"/><path fill="#887A79" stroke="#887A79" d="M818.95 879.75c9.96-2.82 19.52-7.01 29.66-9.21-7.34 15.41-14.07 31.2-18.32 47.76-6.38 13.21-13.29 26.17-19.51 39.45-1.05 2.43-2.54 4.7-4.77 6.2-11.1 7.29-15.9 21.23-15.85 34.03.11 12.04 4.43 24.99 14.39 32.4 1.5.96 1.83 2.74 2.16 4.38-5.62 1.75-12.46 1.55-16.7 6.19 3.81 3.37 9.15 3.17 13.66 5.05-.05 3.86.59 7.7 2.16 11.25-9.32.15-18.61-.87-27.92-.48 2.18 4.1 4.61 8.05 7.07 12-19.63 6.43-38.83 14.1-58.33 20.9-27.68 9.8-55.23 19.97-82.79 30.06-5.68 1.65-11.29 3.53-16.73 5.85 1.34.28 2.68.55 4.05.84-22.04 2.43-44.04 5.23-66.09 7.52 1.18-5.16 2.81-10.21 3.78-15.41-15.36-8.38-30.72-16.75-45.98-25.32 12.24-3.92 24.98-6.05 37.34-9.56-2.11-1.13-4.23-2.24-6.34-3.34 4.95-.58 9.88-1.77 14.88-1.68 4 .87 7.62 2.94 11.6 3.95 12.54 3.38 25.58 5.1 38.58 4.74 6.13-.26 12.4-.85 18.13-3.21 2.61-1.11 5.45-3.1 5.68-6.18-.03-3.28-2.61-5.77-5.03-7.62-5.54-4.07-12.06-6.52-18.57-8.55-13.33-4.03-27.28-6.02-41.2-5.8-6.8.3-13.83.86-20.05 3.84-2.33 1.11-4.87 3.16-4.62 6.04.34 3.33 3.51 5.19 5.72 7.3-11.27 1.65-22.61 2.79-33.93 4.1-.73-.79-1.45-1.56-2.17-2.31-24.98 2.44-49.97 4.81-74.96 7.25-5.43.6-10.94.63-16.25 2.03 2.53.98 5.08 1.96 7.55 3.09-4.73.5-9.66 2.24-14.37.8-13.56-5.55-28.3-7.72-42.88-8.19-7.25-.02-14.64.44-21.59 2.64-3.1 1.07-6.72 2.93-7.28 6.51-.09 3.83 3.08 6.74 6.02 8.74 8.14 5.22 17.53 8.09 26.88 10.25 15 3.1 30.7 4.84 45.83 1.69 4.14-1.1 9.51-2.65 10.66-7.38.34-3.68-3.25-5.93-5.54-8.21 6.61-.76 13.25-2.39 19.92-1.83 4.78 1.27 9.68 2.47 14.15 4.62 7.2 15.63 13.37 31.76 20.54 47.43 11.12 2.01 22.26 3.87 33.37 5.95 11.11 2.53 22.34-.95 33.54-.71-2.95 1.93-6.19 3.36-9.56 4.39-21.65 7.61-43.12 15.76-64.83 23.21-40.27 14.84-80.7 29.18-120.96 44.02-6.04 2.46-12.41 4.01-18.33 6.77 8.63-1.19 16.72-4.67 25.05-7.07 20.31-5.68 40.38-12.14 60.52-18.38 60.38-18.26 120.63-36.92 181.01-55.16 1.85-.62 3.7-1.27 5.54-1.93-.78-.2-2.34-.61-3.12-.81 38.05-3.06 76.08-6.41 114.13-9.5 8.82-.65 17.61-1.8 26.46-1.97-6.06 4.41-14.23 4.59-21.3 3.2-.23.3-.69.91-.92 1.21 2.75 1.48 5.57 3.2 8.8 3.21 4.97.19 9.94-.57 14.92-.25 3.85-.03 8.81.81 11.13-3.11 7.72 4.06 15.3 8.41 22.94 12.61 4.13 2.21 8.16 5.29 13.09 5.21 7.76.17 15.5.93 23.27 1.04.04-.86.11-2.59.15-3.46 1.46 8.7 2.89 17.41 4.24 26.13-10.77 14.94-21.08 30.24-32.06 45.01-5.69 2.34-11.86 3.35-17.72 5.22-12.68 3.55-25.39 6.99-38.05 10.61.87 7.07 2.04 14.1 2.53 21.22.21 4.23 2.61 7.86 4.03 11.74-18.16 7.81-35.96 16.41-53.87 24.77-9.89 4.3-19.59 9-29.3 13.7-7.46 3.09-14.81 6.42-22.01 10.05-18.89 8.37-37.46 17.41-56.31 25.85-6.64 3.42-13.65 6.06-20.27 9.52-7.24 3.54-14.79 6.43-21.99 10.09-10.29 5.22-21.14 9.26-31.38 14.59-29.31 13.56-58.69 26.96-87.93 40.66H0v-275.42c12.76-3.75 25.46-7.73 37.98-12.22 14.02-3.69 27.29-9.6 41.19-13.66 3.41-.87 6.82-1.75 10.09-3.08 12.3-4.69 25.1-7.89 37.54-12.16 14.78-4.69 29.27-10.28 44.19-14.54 8.81-2.45 17.21-6.1 25.99-8.66 12.55-4.25 25.18-8.25 37.76-12.43 7.43-2.58 15.15-4.26 22.42-7.33 36.97-11.95 73.85-24.16 110.82-36.11 12.32-3.94 24.49-8.4 37.01-11.67 12.6-4.18 25.33-8.01 37.74-12.71 7.45-2.53 14.99-4.76 22.51-7.05 9.43-3.71 19.2-6.4 28.78-9.67 10.34-3.19 20.56-6.74 30.97-9.71 22.35-7.46 44.92-14.27 67.1-22.23 14.22-5.14 29.09-8.23 43.12-13.92 10.39-3.11 20.72-6.43 30.95-10.04 12.99-4.93 26.57-8.07 39.61-12.86 5.92-2.44 12.1-4.14 18.28-5.82 13.31-4.37 26.66-8.66 39.96-13.09 6.84-2.34 13.88-4.08 20.58-6.84 11.16-4.57 23.04-6.91 34.36-11.03zM958.12 883.67c12.64 10.45 25.01 21.21 37.62 31.69 2.75-.63 5.52-1.23 8.3-1.8 14.51 19.87 28.98 39.78 43.5 59.64-6.81 3.36-14.15 5.43-21.23 8.11-31.87 11.35-63.55 23.21-95.47 34.42-5.54 2.07-11.2 3.87-16.4 6.75-6.07.29-12.21-.28-18.21.97.31-3.2-2.07-5.55-3.78-7.93-6.63-8.81-13.09-17.75-19.65-26.61 13.4-18.67 27.03-37.17 40.57-55.73 4.19.88 8.38 1.74 12.57 2.62 10.77-17.35 21.51-34.72 32.18-52.13z"/><path fill="#EEC3A1" stroke="#EEC3A1" d="M1071.31 893.02c2.19-.89 4.58-.9 6.92-.94 11.62 22.16 22.74 44.59 33.61 67.12 1.69 2.87 4.53 4.87 6.26 7.75 8.02 12.54 7.96 29.65.14 42.27-1.85 3.2-5.62 5.34-5.93 9.31-7.47 45.87-15.43 91.66-22.97 137.53-.75 4.66-1.83 9.31-2.03 14.05-.17 1.21.58 2.25 1.24 3.23 11.16 15.56 22.07 31.33 33.25 46.88 9.33 3.32 19.11 5.33 28.59 8.24 7.99 2.45 16.35 3.89 24.05 7.15-.72 4.07-.97 8.22-1.71 12.29-2.3-.67-4.62-1.35-6.92-1.89 1.13 3.03 3.82 5 5.98 7.28-1.34 3.95-2.83 7.84-4.54 11.65-3.51-2.58-6.5-5.82-10.24-8.06 1.83 4.63 4.47 8.88 6.79 13.29-2.97 3.12-5.7 6.6-9.38 8.93-2.15-2.65-4.05-5.56-6.82-7.61.32 5 1.78 9.81 2.84 14.69-3.33 2.57-7.14 4.38-10.73 6.53-2.11-4.08-1.87-9.39-4.81-12.91-1.74 5.9-2.75 12-4.07 18.02-8.76.7-17.6.52-26.37.1-1.06-5.7-2.03-11.42-3.34-17.05-5.96-3.5-13.52-3.99-19.71-7.22-5.58-10.72-9.65-22.23-15.16-33.01-3.08-4.19-7.25-7.4-10.78-11.16-2.73-2.54-4.91-5.91-8.52-7.25-11.48-4.59-23.03-8.97-34.52-13.51-.64-13.95-1.11-27.91-1.81-41.85 8.81-5.42 18.04-10.11 27.02-15.26 1.32-.46 1.01-1.94 1.09-3.01-.23-17.54-1.06-35.06-1.24-52.59-.09-11.03-1.02-22.03-.94-33.06-.07-16.62-1.36-33.24-.95-49.84 7.7-11.33 16.45-21.96 24.11-33.3-.03-2.42-2.33-4.04-3.47-5.99-13.3-18.34-26.71-36.61-39.99-54.96-2.87-4.05-6.06-7.87-8.61-12.13 1.16-.51 2.34-1.03 3.55-1.44 13.8-3.11 27.66-5.99 41.52-8.82 2.68-.27 5.45-.19 8-1.25 3.4-1.33 7.22-.76 10.6-2.2m32.05 76.44c-11.27 3.99-11.18 22.91-.08 27.14 4.52 1.3 9.69-1.65 11.37-5.95 2.67-6.06 2.06-13.8-2.52-18.78-2.3-2.14-5.7-3.2-8.77-2.41m-51.39 46.53c-1.53 1.33-4.01 2.57-3.6 4.98 1.47 28.29 2.75 56.58 4.05 84.88.72 9.73.64 19.52 2.08 29.19.58-13.06 1.44-26.11 2.72-39.12 2.84-26.88 5.94-53.79 11.28-80.31.89-4.92 2.77-9.6 3.47-14.56-6.72 4.9-13.26 10.05-20 14.94zM841.69 911.38c11.44 2.22 22.8 4.85 34.24 7.04-.1.38-.32 1.14-.43 1.51 3.52.56 7.09.68 10.66.72 8.15 1.68 16.3 3.39 24.45 5.07-14.82 19.86-29.22 40.06-43.89 60.04-1.19 1.51-2.34 3.57-.68 5.23 7.73 10.69 15.66 21.25 23.43 31.91-1.16 43.38-2.32 86.76-3.37 130.15.23 2.56-1.4 6.04.91 7.98 8.79 5.29 18.01 9.84 26.83 15.08.02 14.06-1.12 28.08-1.57 42.13-9.71 4.02-19.56 7.68-29.33 11.53-3.02 1.29-6.48 1.98-8.87 4.38-4 3.96-7.91 8.01-11.96 11.91-1.91 1.79-3.69 3.79-4.72 6.24-4.63 10.4-9.32 20.76-13.97 31.15-6.35 2.53-13.24 3.77-19.4 6.64-2.13 5.63-2.33 11.86-4.12 17.63-8.59-.04-17.18.03-25.77-.02-1.79-6.28-2.28-12.91-4.79-18.96-1.5 4.35-2.72 8.8-3.95 13.25-4.01-1.28-7.35-3.91-11.01-5.89 1.07-5.37 2.16-10.74 3.37-16.08-2.76 2.79-5.24 5.84-7.74 8.88-3.12-2.81-6.07-5.8-8.97-8.84 1.92-4.55 4.69-8.69 6.52-13.27-3.89 1.79-6.34 5.62-10.27 7.34-1.44-3.68-3.36-7.24-4.12-11.14 2.36-3.09 5.46-5.53 7.94-8.53-2.96.95-5.88 2.06-8.75 3.28-1.14-3.87-1.42-7.92-1.82-11.9.11-1.67 2.18-1.67 3.35-2.19 15.07-4.06 30.05-8.45 45.14-12.44 1.69-.51 3.65-.9 4.7-2.48 10.92-15.39 21.81-30.82 32.74-46.22 1.11-1.29 1.31-2.96.96-4.56-7.64-46.66-15.7-93.25-23.39-139.9-.65-3.32-.66-6.85-2.01-9.97-18.34-11.93-20.12-40.98-5.35-56.41 2.5-2.92 6.98-3.84 8.46-7.62 7.63-15.92 15.72-31.61 23.52-47.44.91-1.8 1.96-3.53 3.03-5.23m-30.38 74.01c-7.87 3.17-9.93 13.28-7.52 20.69 1.48 5.84 7.72 10.69 13.84 8.55 7.85-3.19 9.8-13.29 7.5-20.68-1.5-5.83-7.68-10.76-13.82-8.56m47.8 18.57c.17 8.43 1.66 16.76 2.49 25.15 4.52 40.32 9.04 80.64 13.57 120.96.05 1.14.73 2.11 1.34 3.05.78-16.36.68-32.76 1.44-49.12.73-24.33 1.65-48.64 2.17-72.97.26-3.57-2.71-6.01-4.62-8.63-5.33-6.25-9.73-13.47-16.39-18.44z"/><path fill="#C4B0B2" stroke="#C4B0B2" d="M875.5 919.93c.11-.37.33-1.13.43-1.51 3.43.62 6.84 1.41 10.23 2.23-3.57-.04-7.14-.16-10.66-.72z"/><path fill="#887A79" stroke="#887A79" d="M1782.65 957.7c8.57-2.68 16.7-6.76 25.52-8.62-1.75 1.32-3.54 2.6-5.42 3.7-31.09 17.15-61.82 34.94-92.92 52.04-33.35 19.12-67.1 37.47-100.4 56.65-18.06 9.81-35.77 20.25-53.84 30.05-9.86 5.91-20.17 11.01-29.91 17.1-8.61 4.21-16.75 9.29-25.13 13.93-7.69 4.58-15.79 8.44-23.25 13.4-19.19-7.36-39.79-10.46-60.25-11.14-7.87-.05-15.96.17-23.44 2.8-2.57.89-5.96 3.08-4.54 6.28 2.19 4.54 7.62 5.68 11.44 8.45-6.24 1.33-12.57 2.15-18.84 3.27-5.64 1.05-10.95-1.57-16.24-3.02-5.62-10.84-11.06-21.78-16.48-32.71 9.61-4.09 19.66-6.93 29.44-10.56 10.32-3.72 20.7-7.26 31.03-10.95 17.64-5.85 34.98-12.61 52.67-18.31 57.7-20.43 115.47-40.63 173.26-60.81 9.62-3.42 19.1-7.29 28.93-10.09 19.83-7.34 39.99-13.75 59.82-21.09 19.51-6.81 38.94-13.84 58.55-20.37z"/><path fill="#FED5B5" stroke="#FED5B5" d="M1103.36 969.46c3.07-.79 6.47.27 8.77 2.41 4.58 4.98 5.19 12.72 2.52 18.78-1.68 4.3-6.85 7.25-11.37 5.95-11.1-4.23-11.19-23.15.08-27.14z"/><path fill="#978384" stroke="#978384" d="M1047.54 973.2c1.39 2.07 3.38 3.9 4.13 6.32-7.23 10.43-15.15 20.4-22.46 30.79-1.41 3.44-.2 7.39-.38 11.05-3.56-.9-7.22-.65-10.84-.52-24.33.5-48.63 1.9-72.96 1.64-10.2-.11-20.4.32-30.59 0 5.2-2.88 10.86-4.68 16.4-6.75 31.92-11.21 63.6-23.07 95.47-34.42 7.08-2.68 14.42-4.75 21.23-8.11z"/><path fill="#FED5B4" stroke="#FED5B4" d="M811.31 985.39c6.14-2.2 12.32 2.73 13.82 8.56 2.3 7.39.35 17.49-7.5 20.68-6.12 2.14-12.36-2.71-13.84-8.55-2.41-7.41-.35-17.52 7.52-20.69z"/><path fill="#887A79" stroke="#887A79" d="M1896.4 1005.34c7.55-3.03 14.66-7.16 22.45-9.57.35 28.72-.09 57.45.2 86.18-.13 2.5.31 5.51-1.8 7.35-5.52 5.46-10.38 11.54-15.97 16.92-6.91 6.8-13.09 14.28-20.02 21.04-6.11 5.92-11.35 12.66-17.54 18.49-5.36 5.02-9.63 11.04-15 16.04-7.24 6.76-13.27 14.67-20.46 21.48-7.18 8.12-14.89 15.74-22.35 23.6-11.85 12.81-23.85 25.48-36.05 37.95-6.21 7.44-13.42 13.93-19.81 21.2-5.84 6.83-12.7 12.67-18.5 19.53-5.03 5.95-11.28 10.81-15.71 17.26 21.12-7.93 41.88-16.77 62.79-25.25 32.05-12.85 64.08-25.76 96.04-38.83 14.95-5.54 29.41-12.31 44.35-17.87-.08 66.66.16 133.33-.14 199.99-81.62.38-163.25.02-244.88.16-212.66-.01-425.33-.01-638-.01-21.15-.22-42.32.36-63.45-.24 69.9-31.04 139.32-63.12 209.32-93.93 13.77-6.73 27.95-12.59 41.85-19.06 9.91-3.87 19.19-9.14 29.12-12.97 18.3-8.39 36.71-16.56 55.02-24.96 7.89-2.87 15.13-7.2 23.02-10.04 24.57-11.71 49.67-22.25 74.37-33.68 88.15-39.46 176.1-79.39 264.29-118.75 17.43-8.51 35.54-15.55 53.02-23.95 18.22-7.99 36.28-16.31 54.46-24.37 11.54-5.16 22.85-10.85 34.59-15.57 7.73-3.46 15.56-6.76 23.12-10.61 20.59-9.1 41.12-18.31 61.67-27.53z"/><path fill="#E0AD80" stroke="#E0AD80" d="M1051.97 1015.99c6.74-4.89 13.28-10.04 20-14.94-.7 4.96-2.58 9.64-3.47 14.56-5.34 26.52-8.44 53.43-11.28 80.31-1.28 13.01-2.14 26.06-2.72 39.12-1.44-9.67-1.36-19.46-2.08-29.19-1.3-28.3-2.58-56.59-4.05-84.88-.41-2.41 2.07-3.65 3.6-4.98zM859.11 1003.96c6.66 4.97 11.06 12.19 16.39 18.44 1.91 2.62 4.88 5.06 4.62 8.63-.52 24.33-1.44 48.64-2.17 72.97-.76 16.36-.66 32.76-1.44 49.12-.61-.94-1.29-1.91-1.34-3.05-4.53-40.32-9.05-80.64-13.57-120.96-.83-8.39-2.32-16.72-2.49-25.15z"/><path fill="#5F5754" stroke="#5F5754" d="M945.03 1022.48c24.33.26 48.63-1.14 72.96-1.64 3.62-.13 7.28-.38 10.84.52.47 20.59 1.02 41.18 1.56 61.78-13.81 1.23-27.62 2.48-41.42 3.71-.25.42-.75 1.25-1 1.67 14.21.71 28.38 2.38 42.61 2.49.45 18.69 1.02 37.37 1.46 56.06-9.45 5.25-18.9 10.48-28.34 15.75.73 11.89.96 23.81 1.6 35.71-12.12-1.55-24.15-3.7-36.24-5.45-2.92-.65-5.72.53-8.36 1.6-8.09 3.26-16.24 6.35-24.32 9.64-5.2 2.18-10.94 1.08-16.39 1.13-.08-2.52-.16-5.03-.13-7.52.41-8.56.77-17.13 1.03-25.69-9.46-5.23-18.99-10.34-28.29-15.83 1.38-44.31 2.24-88.65 3.63-132.96 6-1.25 12.14-.68 18.21-.97 10.19.32 20.39-.11 30.59 0z"/><path fill="#5F5654" stroke="#5F5654" d="M790.01 1040.95c4.24-4.64 11.08-4.44 16.7-6.19 2.77 17.21 5.72 34.39 8.59 51.59-1.63-.05-3.26-.09-4.87-.12-2.2-.38-4.37-.83-6.53-1.27 2.4-4.06 5.05-7.97 7.4-12.06-5.37.91-10.91 1.43-16.29.34-3.67-.66-6.78-2.81-10.03-4.47-2.46-3.95-4.89-7.9-7.07-12 9.31-.39 18.6.63 27.92.48-1.57-3.55-2.21-7.39-2.16-11.25-4.51-1.88-9.85-1.68-13.66-5.05z"/><path fill="#5F5754" stroke="#5F5754" d="M557.91 1059.8c6.22-2.98 13.25-3.54 20.05-3.84 13.92-.22 27.87 1.77 41.2 5.8 6.51 2.03 13.03 4.48 18.57 8.55 2.42 1.85 5 4.34 5.03 7.62-.23 3.08-3.07 5.07-5.68 6.18-5.73 2.36-12 2.95-18.13 3.21-13 .36-26.04-1.36-38.58-4.74-3.98-1.01-7.6-3.08-11.6-3.95-5-.09-9.93 1.1-14.88 1.68 2.11 1.1 4.23 2.21 6.34 3.34-12.36 3.51-25.1 5.64-37.34 9.56 15.26 8.57 30.62 16.94 45.98 25.32-.97 5.2-2.6 10.25-3.78 15.41 22.05-2.29 44.05-5.09 66.09-7.52 23.58-2.75 47.16-5.48 70.74-8.22 4-.51 8.24-.41 11.9-2.36 10.76-5.79 23.07-7.29 34.83-9.93 19.03-2.17 38.23-4.17 57.39-2.56 4.02.42 7.97-.57 11.88-1.38 2.89 16.95 5.69 33.92 8.57 50.87-.04.87-.11 2.6-.15 3.46-7.77-.11-15.51-.87-23.27-1.04-4.93.08-8.96-3-13.09-5.21-7.64-4.2-15.22-8.55-22.94-12.61-2.32 3.92-7.28 3.08-11.13 3.11-4.98-.32-9.95.44-14.92.25-3.23-.01-6.05-1.73-8.8-3.21.23-.3.69-.91.92-1.21 7.07 1.39 15.24 1.21 21.3-3.2-8.85.17-17.64 1.32-26.46 1.97-38.05 3.09-76.08 6.44-114.13 9.5-18.43 1.75-36.93 2.84-55.32 4.96-11.2-.24-22.43 3.24-33.54.71-11.11-2.08-22.25-3.94-33.37-5.95-7.17-15.67-13.34-31.8-20.54-47.43-4.47-2.15-9.37-3.35-14.15-4.62-6.67-.56-13.31 1.07-19.92 1.83 2.29 2.28 5.88 4.53 5.54 8.21-1.15 4.73-6.52 6.28-10.66 7.38-15.13 3.15-30.83 1.41-45.83-1.69-9.35-2.16-18.74-5.03-26.88-10.25-2.94-2-6.11-4.91-6.02-8.74.56-3.58 4.18-5.44 7.28-6.51 6.95-2.2 14.34-2.66 21.59-2.64 14.58.47 29.32 2.64 42.88 8.19 4.71 1.44 9.64-.3 14.37-.8-2.47-1.13-5.02-2.11-7.55-3.09 5.31-1.4 10.82-1.43 16.25-2.03 24.99-2.44 49.98-4.81 74.96-7.25.72.75 1.44 1.52 2.17 2.31 11.32-1.31 22.66-2.45 33.93-4.1-2.21-2.11-5.38-3.97-5.72-7.3-.25-2.88 2.29-4.93 4.62-6.04m-35.82 24.28.64 2.49c7.78-1.65 15.65-3.02 23.3-5.24-8.03.22-16.05 1.31-23.94 2.75m226.36 55.03c3.68.97 10.99-.41 9.75-5.58-3.56 1.21-7.11 2.8-9.75 5.58m7.14.94c2.95.31 5.89-.18 8.66-1.19q-1.155-1.44-2.28-2.85a60 60 0 0 0-6.38 4.04m-17.3-.02c2.91.22 5.88.52 8.79.03 1.51-1.9-1.82-2.84-3.14-2.18-1.89.5-4.75-.04-5.65 2.15z"/><path fill="#978384" stroke="#978384" d="M726.65 1089.67c19.5-6.8 38.7-14.47 58.33-20.9 3.25 1.66 6.36 3.81 10.03 4.47 5.38 1.09 10.92.57 16.29-.34-2.35 4.09-5 8-7.4 12.06 2.16.44 4.33.89 6.53 1.27-10.08 3.54-20.47 6.13-30.56 9.63-10.37 3.48-21.1 5.86-31.22 10.05-11.76 2.64-24.07 4.14-34.83 9.93-3.66 1.95-7.9 1.85-11.9 2.36-23.58 2.74-47.16 5.47-70.74 8.22-1.37-.29-2.71-.56-4.05-.84 5.44-2.32 11.05-4.2 16.73-5.85 27.56-10.09 55.11-20.26 82.79-30.06z"/><path fill="#7B716F" stroke="#7B716F" d="M522.09 1084.08c7.89-1.44 15.91-2.53 23.94-2.75-7.65 2.22-15.52 3.59-23.3 5.24z"/><path fill="#887A79" stroke="#887A79" d="M988.97 1086.85c13.8-1.23 27.61-2.48 41.42-3.71.05 2.61.12 5.24.19 7.87-14.23-.11-28.4-1.78-42.61-2.49.25-.42.75-1.25 1-1.67z"/><path fill="#877A78" stroke="#877A78" d="M810.43 1086.23c1.61.03 3.24.07 4.87.12.88 5.2 1.72 10.41 2.62 15.62-3.91.81-7.86 1.8-11.88 1.38-19.16-1.61-38.36.39-57.39 2.56 10.12-4.19 20.85-6.57 31.22-10.05 10.09-3.5 20.48-6.09 30.56-9.63z"/><path fill="#5F5754" stroke="#5F5754" d="M1107.75 1086.7c12.34.15 24.74.92 36.84 3.51 7.4 1.19 14.94.86 22.41 1.2 52.34 1.57 104.68 3.31 157.02 4.9 3 .16 6.13-.22 9.06.65 3.41 1.75 6.31 4.32 9.56 6.35 2.61 1.62 5.04 3.68 6.31 6.57 5.42 10.93 10.86 21.87 16.48 32.71 5.29 1.45 10.6 4.07 16.24 3.02 6.27-1.12 12.6-1.94 18.84-3.27-3.82-2.77-9.25-3.91-11.44-8.45-1.42-3.2 1.97-5.39 4.54-6.28 7.48-2.63 15.57-2.85 23.44-2.8 20.46.68 41.06 3.78 60.25 11.14 3.97 1.69 8 3.59 11.14 6.63 1.57 1.49 2.84 4.17 1.17 6.07-2.3 2.45-5.8 3.18-8.93 3.96-11.62 2.16-23.52 1.27-35.22.42-7.04-1.06-14.13-1.97-21.06-3.63-3.98-.92-7.92-2.71-12.08-2.01-6.15 1-12.33 1.88-18.42 3.16 5.7 1.88 11.56 3.25 17.28 5.11-9.47 1.68-19.13 1.7-28.67 2.67-16.83 1.3-33.67 2.55-50.49 3.88-4.47.32-8.97-.63-13.39.32-8.31 1.66-16.77 2.46-25.01 4.41 3.85 2.55 9.03 3.83 11.37 8.16 1.47 2.78-1.23 5.33-3.67 6.2-7.71 3.05-16.21 3-24.37 3.06-18.66-.5-37.36-3.36-55.09-9.29-5.96-2.21-12.35-4.39-16.82-9.11-1.76-1.69-.89-4.1-.48-6.13 4.97-2.59 10.48-3.67 15.97-4.53 18.52-.45 37.26.94 55.13 6.09 5.52 1.36 11.15-.29 16.5-1.69-2.52-.67-5.02-1.29-7.49-2.02 7.32-3.33 15.23-5.09 22.75-7.92-8.78-6.26-18.53-11-27.75-16.56-5.28-3.33-11.06-5.87-15.99-9.73 6.49-3.96 13.11-7.71 19.4-11.99-59.84-.2-119.68.04-179.52-.11 1.51-8.21 2.74-16.46 4.19-24.67m205.05 66.11c-3.61 1.63-7.15 3.4-10.76 5 5.44.44 10.77-1.06 16.07-2.05-1.47-1.29-3.01-4.4-5.31-2.95z"/><path fill="#978384" stroke="#978384" d="M1103.56 1111.37c59.84.15 119.68-.09 179.52.11-6.29 4.28-12.91 8.03-19.4 11.99 4.93 3.86 10.71 6.4 15.99 9.73-7.15 3.94-15.16 5.81-22.71 8.77-12.07 4.63-24.71 7.83-36.43 13.33-5.49.86-11 1.94-15.97 4.53-19.4 7.55-39.11 14.34-58.86 20.93-9.81 3.61-19.66 7.12-29.62 10.3-1.79.59-3.35 1.65-4.92 2.66-3.15-4.48-6.27-8.96-9.44-13.41-2.38-3.86-5.85-7.16-7.5-11.37 1.67-13.68 4.44-27.23 6.56-40.85 1.31-5.53 1.12-11.29 2.78-16.72m-.34 3.93c3.8.79 8.79.19 13.03.18-4.34-.21-8.71-.2-13.03-.18z"/><path stroke="#000" d="M1103.22 1115.3c4.32-.02 8.69-.03 13.03.18-4.24.01-9.23.61-13.03-.18z"/><path fill="#887A79" stroke="#887A79" d="M1279.67 1133.2c9.22 5.56 18.97 10.3 27.75 16.56-7.52 2.83-15.43 4.59-22.75 7.92 2.47.73 4.97 1.35 7.49 2.02-5.35 1.4-10.98 3.05-16.5 1.69-17.87-5.15-36.61-6.54-55.13-6.09 11.72-5.5 24.36-8.7 36.43-13.33 7.55-2.96 15.56-4.83 22.71-8.77z"/><path fill="#827775" stroke="#827775" d="M748.45 1139.11c2.64-2.78 6.19-4.37 9.75-5.58 1.24 5.17-6.07 6.55-9.75 5.58z"/><path fill="#817674" stroke="#817674" d="M755.59 1140.05a60 60 0 0 1 6.38-4.04q1.125 1.41 2.28 2.85c-2.77 1.01-5.71 1.5-8.66 1.19z"/><path fill="#827775" stroke="#827775" d="M738.29 1140.03c.9-2.19 3.76-1.65 5.65-2.15 1.32-.66 4.65.28 3.14 2.18-2.91.49-5.88.19-8.79-.03z"/><path fill="#978384" stroke="#978384" d="M558.5 1149.61c18.39-2.12 36.89-3.21 55.32-4.96.78.2 2.34.61 3.12.81-1.84.66-3.69 1.31-5.54 1.93-60.38 18.24-120.63 36.9-181.01 55.16-20.14 6.24-40.21 12.7-60.52 18.38-8.33 2.4-16.42 5.88-25.05 7.07 5.92-2.76 12.29-4.31 18.33-6.77 40.26-14.84 80.69-29.18 120.96-44.02 21.71-7.45 43.18-15.6 64.83-23.21 3.37-1.03 6.61-2.46 9.56-4.39z"/><path fill="#887A79" stroke="#887A79" d="M1412.32 1147.39c4.16-.7 8.1 1.09 12.08 2.01 6.93 1.66 14.02 2.57 21.06 3.63-5.59 4.07-12.07 6.68-17.78 10.58-38.04 20.79-75.45 42.68-113.48 63.51-17.38 10.1-35.12 19.55-52.52 29.6-13.98 8.13-28.26 15.74-42.23 23.89-17.51 9.32-34.49 19.6-52 28.93-26.31 15-52.79 29.72-79.1 44.74-30.46 16.83-60.67 34.09-91.1 50.95-8.64 5.61-18.21 9.65-26.63 15.6-54.53.41-109.07.04-163.6.18-104-.01-208 0-312-.03-11.17-.19-22.35.39-33.5-.22 96.01-33.79 192.15-67.2 288.13-101.08 10.99-3.4 21.53-8.08 32.58-11.26 2.67 1.5 5.73 2.84 6.84 5.97 12.13.2 24.27-.04 36.4.12 1.56-6.42 2.65-12.94 3.99-19.4 5.63-1.97 11.38-3.57 17.02-5.49 1.8-.33 2.47-2.12 3.21-3.55 9.13-.68 15.77-8.16 24.65-9.78 15.68-4.69 32.17-4.93 48.25-7.53.63-3.18 1.15-6.38 1.51-9.59 6.49-3.29 13.58-5.04 20.32-7.72 22.01-7.63 43.93-15.53 65.95-23.14 5.79-2.07 11.72-3.79 17.29-6.42 5.63 2.24 11.31 4.34 16.95 6.57.22 7.15 1.61 14.19 2.14 21.32-9.14 1.74-18.38 2.87-27.54 4.5.48 3.11 1.1 6.21 1.91 9.26 16.74.97 33.67.65 50.12 4.35 1.73 3.87 3.47 7.74 5.22 11.62 6.26 2.07 12.6 3.88 18.83 6.06 1.22 6.41 2.55 12.81 3.8 19.23 12.29.09 24.59.05 36.89.04.27-.91.55-1.8.85-2.68 7.05-4.02 14.03-8.17 21.04-12.25-.18-1.23-.35-2.44-.5-3.64 3.69-3.55 7.3-7.18 10.87-10.85.57.1 1.7.28 2.26.38.58-1.64 1.2-3.25 1.84-4.85 3.15-1.68 5.97-3.98 7.68-7.18-1.55-.29-3.1-.57-4.63-.83 1.4-3.96 3.81-7.66 3.96-11.97.48-6.94 1.65-13.81 2.46-20.72-17.84-5.01-35.69-9.99-53.57-14.84.85-1.45 2.78-2.76 2.21-4.65-2.49-3-6.53-3.73-10.17-4.24-3.07-4.25-6.07-8.54-9.12-12.8 1.57-1.01 3.13-2.07 4.92-2.66 9.96-3.18 19.81-6.69 29.62-10.3 19.75-6.59 39.46-13.38 58.86-20.93-.41 2.03-1.28 4.44.48 6.13 4.47 4.72 10.86 6.9 16.82 9.11 17.73 5.93 36.43 8.79 55.09 9.29 8.16-.06 16.66-.01 24.37-3.06 2.44-.87 5.14-3.42 3.67-6.2-2.34-4.33-7.52-5.61-11.37-8.16 8.24-1.95 16.7-2.75 25.01-4.41 4.42-.95 8.92 0 13.39-.32 16.82-1.33 33.66-2.58 50.49-3.88 9.54-.97 19.2-.99 28.67-2.67-5.72-1.86-11.58-3.23-17.28-5.11 6.09-1.28 12.27-2.16 18.42-3.16z"/><path fill="#857A78" stroke="#857A78" d="M1312.8 1152.81c2.3-1.45 3.84 1.66 5.31 2.95-5.3.99-10.63 2.49-16.07 2.05 3.61-1.6 7.15-3.37 10.76-5z"/><path fill="#978384" stroke="#978384" d="M960.7 1194.68c2.64-1.07 5.44-2.25 8.36-1.6 12.09 1.75 24.12 3.9 36.24 5.45.21 4.92.43 9.84.54 14.78 7.23 2.98 14.57 5.66 21.82 8.58-5.57 2.63-11.5 4.35-17.29 6.42-22.02 7.61-43.94 15.51-65.95 23.14-6.74 2.68-13.83 4.43-20.32 7.72-9.16-.02-18.26-1.44-27.38-2.08.59-8.9 2.37-17.68 2.76-26.6 6.43-2.5 12.86-5.02 19.3-7.52.46-8.34.53-16.71 1.08-25.04-.03 2.49.05 5 .13 7.52 5.45-.05 11.19 1.05 16.39-1.13 8.08-3.29 16.23-6.38 24.32-9.64z"/><path fill="#5E5654" stroke="#5E5654" d="M1120.28 1206.52c3.64.51 7.68 1.24 10.17 4.24.57 1.89-1.36 3.2-2.21 4.65-4.06-1.31-5.42-5.89-7.96-8.89z"/><path fill="#968887" stroke="#968887" d="M1919.02 1220.86c.25-.32.74-.96.98-1.28V1422H453.34c2.69-.65 5.41-1.1 8.18-1.24 11.15.61 22.33.03 33.5.22 104 .03 208 .02 312 .03 54.53-.14 109.07.23 163.6-.18.48-.02 1.45-.05 1.93-.07 21.13.6 42.3.02 63.45.24 212.67 0 425.34 0 638 .01 81.63-.14 163.26.22 244.88-.16.3-66.66.06-133.33.14-199.99z"/><path fill="#5F5754" stroke="#5F5754" d="M1046.75 1249.78c-.53-7.13-1.92-14.17-2.14-21.32 5.58 4.68 10.61 10.04 15.6 15.35 4.13 7.78 7.27 16.09 11.03 24.08-16.45-3.7-33.38-3.38-50.12-4.35-.81-3.05-1.43-6.15-1.91-9.26 9.16-1.63 18.4-2.76 27.54-4.5zM884.4 1236.34c5.05-1.88 10.05-3.9 15.08-5.85-.39 8.92-2.17 17.7-2.76 26.6 9.12.64 18.22 2.06 27.38 2.08-.36 3.21-.88 6.41-1.51 9.59-16.08 2.6-32.57 2.84-48.25 7.53-8.88 1.62-15.52 9.1-24.65 9.78 3.11-7.31 6.45-14.52 9.69-21.77 2.39-5.05 3.88-10.84 8.48-14.45 5.44-4.57 9.32-11.51 16.54-13.51z"/><path fill="#605654" stroke="#605654" d="M1175.39 1262.94c1.53.26 3.08.54 4.63.83-1.71 3.2-4.53 5.5-7.68 7.18 1.02-2.68 2.02-5.35 3.05-8.01z"/><path fill="#978384" stroke="#978384" d="M695.59 1297.54c17.91-8.36 35.71-16.96 53.87-24.77 1.61 4.2 3.26 8.39 4.72 12.66.61-.07 1.84-.22 2.45-.29 3.53 3.64 7.15 7.18 10.72 10.79-.1 1.23-.18 2.48-.26 3.75 5.07 2.88 10.08 5.85 15.14 8.74-11.05 3.18-21.59 7.86-32.58 11.26-95.98 33.88-192.12 67.29-288.13 101.08-2.77.14-5.49.59-8.18 1.24H426.4c29.24-13.7 58.62-27.1 87.93-40.66 10.24-5.33 21.09-9.37 31.38-14.59 7.2-3.66 14.75-6.55 21.99-10.09 6.62-3.46 13.63-6.1 20.27-9.52 18.85-8.44 37.42-17.48 56.31-25.85 7.2-3.63 14.55-6.96 22.01-10.05 9.71-4.7 19.41-9.4 29.3-13.7z"/></g></svg>