<svg xmlns="http://www.w3.org/2000/svg" width="2007.549" height="824.141"><g style="fill:#000"><path d="M835.159 1067.425c-15.573-1.194-19.166-4.362-16.015-14.118 3.431-10.624 3.651-14.493 2.194-38.618-.78-12.91-1.946-25.297-2.593-27.525-2.127-7.33-.799-13.551 5.924-27.759 9.98-21.091 11.607-25.997 12.638-38.11 1.939-22.81 3.094-30.604 6.214-41.926 3.215-11.666 3.22-11.716 1.43-16.35-.988-2.556-2.695-7.637-3.793-11.29-1.926-6.407-1.936-6.962-.275-15.685 1.058-5.557 3.249-12.2 5.682-17.233 3.547-7.334 3.894-8.74 3.317-13.439-.794-6.462-6.053-17.685-11.795-25.174-4.478-5.84-9.95-16.191-14.588-27.597-1.484-3.65-3.122-7.396-3.64-8.324-1.773-3.175-3.984-13.638-6.122-28.968-1.822-13.065-2.663-16.357-5.695-22.293-2.51-4.913-4.017-9.822-5.118-16.66-.858-5.332-2.506-12.085-3.663-15.005-1.447-3.654-1.948-6.704-1.608-9.776.65-5.87 6.414-17.063 16.895-32.814 4.682-7.036 9.82-15.652 11.417-19.147 4.773-10.442 10.635-12.364 21.454-7.033 2.527 1.246 4.728 2.954 4.89 3.797.163.843-.897 3.29-2.355 5.437s-2.41 4.53-2.118 5.293c.89 2.321-3.956 6.847-9.215 8.606l-4.968 1.662-1.127 9.113c-.619 5.013-1.072 9.203-1.007 9.312s3.266-1.386 7.112-3.321c9.298-4.68 16.474-4.876 23.152-.633 5.547 3.524 11.185 9.78 11.185 12.412 0 1.202 1.558 2.818 4.088 4.24 3.913 2.2 5.302 5.136 3.08 6.51-1.53.946-.42 7.274 2.103 12.002 1.714 3.21.998 5.587-2.607 8.666-4.299 3.672-6.649 7.92-6.66 12.041l-.007 3.066 6.899-.511c5.753-.426 7.967-1.176 13.33-4.515 4.85-3.02 6.25-4.401 5.699-5.62-.402-.89-1.064-8.974-1.47-17.967-.408-8.992-1.298-19.224-1.978-22.737-1.213-6.264-1.3-6.386-4.545-6.386-3.287 0-6.692-2.53-6.692-4.97 0-.679.705-2.31 1.567-3.624 1.234-1.884 1.36-3.315.589-6.744-1.353-6.02-.134-8.551 4.837-10.04 4.687-1.405 11.797-.622 13.55 1.491.642.773 1.773 1.406 2.514 1.406 2.295 0 2.852 2.096 3.657 13.756.807 11.701 4.954 26.33 10.051 35.457 1.68 3.01 5.132 18.379 5.132 22.852 0 2.387-.592 5.75-1.316 7.472-1.946 4.628-23.511 27.223-27.498 28.812-1.856.739-3.488 1.416-3.627 1.505s3.502 3.457 5.748 7.798c4.785 9.247 3.123 12.871-.498 19.05-2.233 3.811-1.077 4.568-.127 6.652.623 1.368 1.771 3.367 1.771 5.224s-2.23 6.094-1.074 7.36c.893.98 4.543 5.444 1.254 11.972-.756 1.5 2.132 4.752 2.608 7.155.587 2.96-1.099 5.159-.983 7.595.064 1.363 0 2.662.16 3.88 1.81 13.929 1.285 19.644-1.47 30.949-2.05 8.407-1.716 16.559-2.061 17.647-.345 1.089.599 3.146 1.8 5.663 4.19 8.776 5.5 23.269 3.908 31.49-.13.676-.386 1.29-.452 1.895-.452 4.167 1.607 20.286.14 28.035-1.517 8.02-3.24 11.24-4.124 14.05s-2.103 7.41-2.709 10.22-2.945 8.788-5.2 13.284c-3.236 6.455-4.404 10.325-5.551 18.394-1.793 12.604-3.617 39.281-3.617 52.886 0 12.333 1.33 15.673 8.209 20.616 9.113 6.547 14.634 8.763 22.62 9.081 5.692.227 7.58.695 8.434 2.09.892 1.459.558 2.27-1.767 4.292-1.576 1.37-4.118 2.493-5.648 2.493s-3.845.744-5.145 1.655c-1.767 1.238-3.563 1.488-7.125.993-16.175-2.25-21.388-2.536-26.732-1.468-4.16.832-6.736.817-9.917-.055-7.998-2.195-9.042-5.56-5.421-17.469 1.776-5.84 1.896-7.74 1.002-15.839-2.22-20.103-4.331-33.114-6.752-41.598-2.237-7.84-2.409-9.582-1.457-14.735 1.577-8.526.637-7.824-1.813 1.355-5.533 20.728-10.385 49.808-10.385 62.232 0 12.108 2.777 17.092 12.056 21.636 3.002 1.47 5.885 3.469 6.405 4.442 1.16 2.166.329 4.611-1.85 5.448-2.915 1.118-12.834 1.396-22.743.636zm22.414-109.421c.005-1.362-.092-1.362-.862 0-.477.843-1.172 2.682-1.545 4.088l-.677 2.554 1.54-2.554c.846-1.406 1.54-3.245 1.544-4.088M839.76 680.06c-.345-.56-1.637-1.51-2.87-2.113-1.932-.944-1.888-.806.312.994 2.861 2.34 3.48 2.61 2.558 1.119M776.912 1067.38c-12.998-1.352-14.653-1.403-20.043-.622-5.86.849-12.651-.558-15.254-3.16-1.88-1.881-1.693-7.056.61-16.883 1.243-5.3 1.122-7.433-1.334-23.503-1.485-9.72-2.984-20.605-3.332-24.188s-1.56-8.871-2.697-11.752c-3.117-7.898-1.768-13.12 9.063-35.098 4.388-8.903 4.608-9.752 3.973-15.357-.76-6.722-3.14-14.847-7.406-25.291-2.863-7.01-2.922-7.547-2.922-26.665 0-12.839-.391-20.004-1.142-20.949-2.594-3.263-7.42-13.063-9.152-18.587-2.835-9.042-1.155-15.66 8.057-31.735 1.474-2.57 1.769-4.846 1.446-11.15-.357-6.99-.95-8.972-5.039-16.861-2.548-4.918-6.845-14.459-9.547-21.203-4.482-11.187-4.95-13.16-5.337-22.482-.608-14.67 2.917-28.076 9.181-34.92 2.412-2.635 7.874-18.33 8.655-24.873.472-3.955.025-5.568-3.14-11.325-3.082-5.607-3.687-7.71-3.668-12.76.028-7.618 2.442-13.046 8.046-18.1 5.662-5.104 8.223-5.961 18.04-6.033 8.62-.064 11.908.99 18.51 5.929 3.71 2.776 8.119 14.14 7.084 18.262-.35 1.4-.05 3.008.71 3.785 4.862 4.977 6.08 9.497 2.836 10.527-1.087.345-1.966 1.41-1.954 2.368.054 4.203-2.054 12.772-3.343 13.587-.777.492-3.603 1.191-6.28 1.555-4.186.568-4.95 1.036-5.45 3.337-.32 1.473-1.003 4.01-1.518 5.64-2.033 6.423.357 6.793 6.262 11.156 5.905 4.362 14.74 14.55 18.33 21.606 2.594 5.098.656 9.531-1.617 12.777-.445.635-.212 1.81-.522 2.472-.698 1.489 2.027 2.446 2.953 3.503 1.651 1.886 2.829 5.217 2.504 7.632-2.382 4.332-2.173 1.055.14 5.56 1.808 3.557 2.551 8.482.612 11.898-2.56 2.572-2.607 4.533-.957 7.56 1.894 2.945 1.698 6.123.526 8.88-.494 1.139-1.542 2.088-1.878 3.311-1.573 5.735.659 7.26 1.431 11.104.841 4.183-1.084 5.928-2.589 11.938-1.992 7.956-3.956 24.63-3.883 32.965.024 2.81 3.462 7.766 4.985 12.262 3.289 9.711 2.247 23.551.35 29.635-.7 2.248-1.589 10.295-1.974 17.883-.596 11.743-1.063 14.48-3.139 18.393-1.341 2.53-3.27 7.794-4.286 11.7s-3.637 10.113-5.825 13.795c-4.227 7.11-5.96 14.434-8.234 34.796-.596 5.34-1.769 15.476-2.605 22.525-1.816 15.301-1.857 17.707-.413 24.439.721 3.363 2.168 6.227 4.145 8.204 4.712 4.712 18.749 11.189 27.413 12.648 8.475 1.428 10.961 3.444 7.955 6.45-1.58 1.58-5.39 2.474-16.096 3.777-1.968.24-7.026.076-11.241-.362zM678.673 1067.11c-1.89-.436-8.036-.564-13.657-.287-17.505.864-21.523-2.242-18.494-14.299.898-3.577 1.64-8.708 1.649-11.402.025-8.388-5.04-43.385-7.317-50.56-3.377-10.637-2.112-16.755 8.092-39.141 2.76-6.053 3.67-9.352 3.524-12.773-.264-6.194-2.098-14.799-4.402-20.662-4.046-10.292-5.162-18.048-4.83-33.557l.32-14.863-4.257-6.597c-5.758-8.925-7.532-13.565-8.188-21.414-.435-5.212-.071-8.073 1.69-13.284 1.234-3.653 2.838-7.332 3.565-8.175 3.5-4.058 4.634-8.231 4.64-17.066.006-8.66-.18-9.389-5.056-19.722-7.623-16.156-12.435-28.499-13.484-34.589-.575-3.337-.573-9.752.005-16.474 1.025-11.924 2.841-17.29 8.831-26.088 4.03-5.92 8.677-19.412 8.677-25.196 0-2.482-1.236-6.385-3.275-10.344-5.892-11.437-3.776-23.962 5.278-31.238 5.599-4.499 8.168-5.264 17.667-5.264 9.259 0 14.781 1.97 19.325 6.895 3.435 3.722 6.204 11.021 6.12 16.127-.056 3.335.612 4.862 3.514 8.03 3.875 4.23 4.021 5.713.709 7.212-2.157.977-3.96 6.848-3.517 11.459.265 2.766-4.242 6.474-7.894 6.495-3.816.023-4.69.891-6.597 6.553-2.274 6.752-2.137 9.458.586 11.58 2.536 1.977 11.522 7.712 17.369 14.06 4.26 4.623 8.653 12.2 8.678 16.075.009 1.405-1.642 5.307-2.42 6.797-1.298 2.488.87 3.199 3.579 7.28 1.82 2.746 1.55 4.024 1.562 6.233.003.65-.433 3.508-.306 4.39.257 1.79 1.586 2.522 2.287 3.986 1.64 3.428.256 7.13-1.44 9.776-.452.704.048 1.705.105 2.465.17 2.243 1.412 4.35 2.027 6.107.734 2.093.743 4-.141 6.182-.36.886-1.102 2.541-1.352 3.787a56 56 0 0 0-.937 7.416c-.102 1.761 1.164 5.073 1.3 6.686.48 5.672-1.128 7.556-2.728 13.466-1.14 4.21-2.892 12.854-3.893 19.21l-1.055 11.427 1.591 7.988c.047.233 7.263 21.11 1.759 35.134-1.537 3.915-1.808 12.068-2.02 17.688-.321 8.57-.82 11.08-3.096 15.55-1.492 2.932-2.713 6.266-2.713 7.408s-.406 2.078-.9 2.078c-.496 0-1.445 2.184-2.11 4.854s-2.979 7.613-5.143 10.985c-4.767 7.427-6.065 14.264-10.224 53.823-1.494 14.213-1.317 27.838.416 31.985 2.587 6.193 19.342 14.907 31.552 16.41 8.393 1.033 11.133 4.073 6.44 7.148-3.839 2.515-23.984 3.958-31.41 2.25zM584.458 1067.375c-.452-.452-7.41-.829-15.461-.837-13.19-.013-14.864-.217-16.906-2.058-2.101-1.895-2.207-2.566-1.457-9.197.445-3.935.783-11.522.751-16.861-.065-10.98-4.537-39.421-7.545-47.993-1.078-3.072-1.96-6.982-1.96-8.69 0-4.084 3.153-14.85 6.593-22.513 1.514-3.372 3.696-8.837 4.849-12.144 2.524-7.236 2.125-13.393-1.861-28.73-5.384-20.716-5.555-21.912-4.922-34.233l.605-11.752-3.722-5.62c-8.11-12.246-10.212-18.952-9.486-30.265.43-6.706 1.154-9.056 5.265-17.111 4.262-8.354 4.763-10.05 4.744-16.084-.024-7.702-.56-9.655-6.696-24.422-11.332-27.268-12.203-30.65-11.417-44.302.717-12.463 3.305-21.32 8.384-28.695 3.6-5.227 9.708-21.02 9.708-25.102 0-1.07-1.665-5.733-3.7-10.363-3.233-7.351-3.636-9.147-3.18-14.174 1.304-14.38 10.957-22.47 26.815-22.47 8.513 0 13.027 1.67 18.611 6.887 3.374 3.151 6.417 11.382 6.417 17.355 0 2.044.844 4.34 2.083 5.67 2.841 3.05 3.704 6.907 1.86 8.312-1.68 1.28-3.943 8.26-3.943 12.164 0 2.925-3.302 5.815-6.642 5.815-4.297 0-6.33 2.634-7.068 9.16-.384 3.393-.33 6.807.12 7.588.449.78 3.183 3.283 6.076 5.561 6.05 4.764 17.11 20.552 18.103 25.84.358 1.909.217 4.984-.313 6.834-.556 1.936.578 3.37 2.162 5.63 2.065 2.807 3.536 5.74 3.226 9.199-.116 1.214-.336 2.242-.336 2.902 0 .764.659 2.304 1.387 3.839 1.65 2.548 2.049 5.016 1.605 7.476-.256 1.434-.519 3.337-.354 6.1 2.941 11.213-.158 13.312.466 17.718q.007 2.698-.013 5.581c-.097 13.605-.461 16.993-2.583 24.015-5.252 17.382-6.74 28.079-4.668 33.53.522 1.373 1.48 7.068 2.13 12.655 1.014 8.726.932 11.517-.58 19.796-.968 5.3-2.05 14.475-2.406 20.387-.528 8.797-1.152 11.786-3.435 16.452-1.534 3.136-2.79 6.389-2.79 7.228 0 2.997-4.085 13.329-7.527 19.035-1.925 3.192-3.995 8.333-4.598 11.424-3.334 17.076-6.566 56.92-5.537 68.265.526 5.798.935 6.715 4.205 9.41 5.907 4.87 19.457 10.94 26.254 11.763 6.694.81 8.663 1.85 8.663 4.575 0 3.908-2.823 4.671-21.475 5.805-4.223.257-8.049.097-8.5-.355M484.656 1066.849c-1.968-.505-7.732-.64-12.81-.301-16.525 1.104-19.612-2.044-16.2-16.517 1.72-7.292 1.725-8.337.11-19.658-2.389-16.754-5.364-32.2-7.785-40.421-1.942-6.592-1.975-7.472-.558-14.941.828-4.366 3.798-13.269 6.6-19.785 6.597-15.34 6.597-20.187.007-43.596-1.538-5.46-2.336-12.058-2.778-22.944l-.62-15.28-4.952-7.586c-10.964-16.795-11.442-28.758-1.934-48.36 3.156-6.508 4.132-9.737 4.132-13.675 0-6.045-2.183-15.015-5.583-22.935-5.487-12.783-10.78-28.674-11.689-35.085-.6-4.234-.61-10.61-.027-16.769.969-10.242 2.08-13.233 11.109-29.916 3.76-6.946 6.19-14.178 6.19-18.415 0-1.767-1.458-6.51-3.24-10.538-6.387-14.437-3.074-26.952 9.01-34.034 5.328-3.123 15.002-4.264 21.418-2.528 4.635 1.255 13.025 7.186 14.766 10.439 1.775 3.316 4.043 12.979 3.425 14.59-.31.807.85 3.419 2.576 5.802 3.638 5.023 3.88 6.625 1.21 8.053-1.796.962-2.467 3.217-3.476 11.69-.41 3.435-2.81 5.467-7.501 6.347-3.558.668-4.544 2.48-5.976 10.983-.646 3.84-.47 4.119 8.385 13.284 14.491 15 18.466 22.294 17.034 31.253-.46 2.876-.2 4.84.855 6.45 2.637 4.025 6.998 18.453 7.027 23.25.016 2.537.652 6.912 1.413 9.722.961 3.552 1.28 9.783 1.045 20.438-.336 15.245-.738 17.69-4.534 27.541-1.093 2.837-2.955 8.377-4.138 12.312-2.06 6.848-2.084 7.502-.58 15.328 1.754 9.122 2.042 26.442.545 32.7-.537 2.248-1.473 9.376-2.08 15.839-1.019 10.862-4.105 22.787-6.238 24.106-.48.297-.874 1.69-.874 3.097 0 4.213-3.134 12.738-7.288 19.824-5.965 10.175-8.142 25.38-9.724 67.934-.556 14.945-.509 15.417 1.875 18.905 2.726 3.988 18.508 12.562 25.164 13.67 11.26 1.876 12.026 2.265 10.974 5.58-.74 2.332-6.753 4.743-9.827 3.94-1.086-.285-2.232-.1-2.547.409-.724 1.171-17.15 1.02-21.911-.202zM361.724 1066.898c-6.34-1.754-7.412-4.442-5.828-14.623.864-5.556 1.083-11.821.625-17.893-.864-11.443-4.83-32.974-7.697-41.784-1.167-3.586-2.115-8.184-2.107-10.219.03-7.111 4.64-22.266 10.897-35.811 2.203-4.77 1.349-16.848-2.161-30.572-1.919-7.502-2.925-14.792-3.47-25.12-.76-14.457-.788-14.583-4.438-20.086-2.02-3.046-4.969-8.527-6.553-12.18-2.523-5.814-2.883-7.915-2.89-16.86-.009-9.682.217-10.77 4.295-20.678 3.869-9.398 4.305-11.316 4.305-18.908 0-9.681-1.467-15.402-9.09-35.45-6.27-16.484-7.718-24.015-6.98-36.287.62-10.268 2.777-16.878 8.357-25.601 3.896-6.09 7.08-13.234 8.659-19.432 1.136-4.457-.583-13.443-3.168-16.556-.897-1.082-1.354-4.653-1.354-10.584 0-8.322.219-9.263 3.105-13.37 2.076-2.955 5.1-5.439 9.125-7.497 5.224-2.672 7.108-3.079 14.266-3.079 7.305 0 8.873.355 13.72 3.105 4.76 2.7 5.808 3.898 8.05 9.197 1.417 3.35 2.64 7.932 2.715 10.18.089 2.608 1.151 5.56 2.936 8.156 3.297 4.797 3.445 6.087.909 7.88-1.802 1.275-3.397 6.58-3.626 12.065-.08 1.938-1.168 3.09-4.504 4.774-6.415 3.238-7.183 4.119-7.929 9.092-.89 5.93-.01 9.043 2.933 10.384 3.226 1.47 20.503 24.294 22.116 29.216.704 2.148 1.075 5.597.826 7.664-.334 2.764.316 5.247 2.453 9.38 2.687 5.195 4.03 9.834 8.43 29.123 1.126 4.934 1.623 12.067 1.605 22.992-.025 14.737-.21 16.266-2.667 21.97-1.453 3.373-3.305 8.201-4.116 10.73-.812 2.53-2.382 6.318-3.49 8.42-1.776 3.366-1.893 4.582-.978 10.218 1.641 10.114 1.245 27.736-.914 40.63-1.082 6.464-2.43 14.86-2.995 18.66-.565 3.798-2.208 9.487-3.653 12.64-1.444 3.155-2.625 6.758-2.625 8.007 0 3.232-3.633 13.37-6.367 17.767-1.276 2.05-2.906 5.338-3.625 7.305-2.97 8.138-8.433 68.151-6.932 76.154 1.115 5.942 14.926 14.209 29.586 17.71 19.062 4.552 5.156 11.639-19.304 9.839-13.343-.982-17.531-1.027-22.481-.243-2.249.357-5.835.165-7.97-.425M257.3 1066.56c-6.277-2.206-7.69-5.122-5.838-12.048.676-2.524 1.226-8.376 1.224-13.005-.005-10.098-4.074-35.258-7.31-45.204-3.53-10.846-3.06-20.834 1.647-34.926 2.03-6.082 4.366-12.278 5.19-13.77 2.11-3.82 1.885-14.086-.584-26.592-1.145-5.802-2.719-17.803-3.497-26.67-1.06-12.062-1.885-16.852-3.283-19.03a777 777 0 0 0-4.481-6.872c-6.225-9.431-7.606-14.336-7.588-26.954.016-11.51.103-11.95 4.242-21.459 2.324-5.34 4.51-10.975 4.858-12.524 1.161-5.166-2.192-22.517-6.595-34.127-8.441-22.255-8.374-21.946-8.417-38.676-.044-17.154.527-19.446 7.725-30.947 2.21-3.533 5.369-9.635 7.018-13.561 2.75-6.546 2.914-7.6 1.973-12.695-.565-3.056-1.967-7.397-3.114-9.646-5.445-10.673.324-25.763 11.97-31.314 2.19-1.043 7.107-2.01 11.49-2.26 7.121-.406 8.136-.194 14.307 2.987 5.551 2.862 7.03 4.206 9.006 8.187 1.3 2.619 2.639 7.432 2.975 10.694.351 3.397 1.345 6.72 2.327 7.773.943 1.012 2.347 3.021 3.119 4.464 1.265 2.364 1.195 2.792-.71 4.326-1.92 1.546-4.876 9.568-4.406 11.96.502 2.554-.338 3.7-3.88 5.3-6.927 3.124-8.431 5.114-8.431 11.148 0 3.803.498 5.792 1.684 6.72 7.358 5.757 21.302 23.444 24.48 31.051.785 1.877 1.426 5.67 1.426 8.429 0 3.159.555 5.477 1.497 6.26 1.608 1.334 9.803 25.518 11.784 34.773.742 3.47 1.07 12.071.859 22.481l-.344 16.861-5.023 10.219c-2.763 5.62-5.803 11.368-6.756 12.773-1.5 2.213-1.599 3.649-.733 10.73 1.025 8.39-.378 32.325-2.316 39.49-.51 1.886-1.633 8.204-2.496 14.04-.862 5.836-2.276 12.03-3.14 13.763s-2.237 6.385-3.05 10.337c-.864 4.202-3.633 11.478-6.667 17.522-4.05 8.066-5.509 12.33-6.642 19.416-1.773 11.08-3.378 30.479-4.225 51.07l-.634 15.421 3.515 2.805c6.463 5.157 16.625 10.106 25.393 12.366 7.118 1.835 8.744 2.623 9.004 4.361.21 1.394-.622 2.738-2.423 3.918-2.345 1.537-4.977 1.771-18.201 1.62-8.503-.097-17.759-.262-20.569-.367s-6.719.117-8.686.491c-2.355.45-5.316.07-8.673-1.11M68.241 1067.192c-10.481-1.044-12.906-1.107-23.503-.609-11.07.521-15.403-3.869-12.933-13.105.65-2.43 1.16-7.515 1.133-11.3-.05-7.103-3.517-26.12-6.562-36.007-4.325-14.039-5.537-19.257-5.58-24.014-.072-8.147 3.458-22.95 7.57-31.744 3.686-7.88 3.777-8.355 3.208-16.795-.322-4.777-1.48-12.135-2.573-16.35-1.094-4.215-2.29-12.952-2.657-19.416-.725-12.752-2.583-20.242-6.21-25.036-4.157-5.497-9.434-17.833-10.73-25.088-1.6-8.947-.182-17.885 4.702-29.639 4.644-11.18 4.772-12.09 3.592-25.552-1.058-12.066-2.912-19.065-7.436-28.063-3.519-6.998-5.812-16.88-6.55-28.224-.787-12.1 1.075-19.885 7.295-30.494 11.703-19.962 13.756-27.977 9.605-37.486-4.754-10.887-1.245-24.149 7.931-29.968 13.396-8.495 30.097-6.355 37.146 4.76 3.338 5.264 5.092 10.413 5.101 14.973.004 1.583 1.156 4.386 2.56 6.228 3.065 4.017 3.199 5.834.603 8.183-1.285 1.163-2.192 3.833-2.654 7.815-.645 5.555-1.048 6.314-4.945 9.299-6.018 4.609-6.798 5.82-6.798 10.56s.778 5.949 6.815 10.573c5.446 4.17 19.043 20.915 21.181 26.083.901 2.176 1.638 5.935 1.638 8.352 0 3.125.698 5.23 2.416 7.284 2.56 3.06 6.06 10.72 12.529 27.414 5.074 9.161 3.948 18.465 3.935 28.612-.03 21.94.167 21.356-13.55 40l-3.356 4.56-.312 14.508c-.171 7.979-1.026 17.956-1.9 22.171-.875 4.215-2.14 11.803-2.812 16.861-1.527 11.492-3.68 20.2-6.229 25.196-1.083 2.123-2.475 6.29-3.095 9.259-.619 2.969-3.386 9.997-6.149 15.617-5.954 12.113-7.105 18.137-9.569 50.072-2.596 33.658-2.6 33.51 1.012 37.352 2.82 2.998 19.776 12.209 22.477 12.209.642 0 3.549.707 6.461 1.572 3.889 1.155 5.295 2.072 5.295 3.452 0 2.859-2.341 4.223-8.872 5.171-3.27.475-6.635 1.067-7.478 1.317s-6.131 0-11.752-.563M152.086 1066.915c-7.599-1.84-7.746-2.249-7.076-19.71.537-14.024.347-16.635-2.065-28.34-1.462-7.09-3.855-16.518-5.318-20.948-2.414-7.311-2.61-9.094-2.118-19.296.542-11.24 2.026-16.608 9.195-33.25 1.258-2.92 1.394-5.477.708-13.285-.467-5.318-1.294-10.818-1.838-12.223-1.55-4.007-3.246-15.772-4.153-28.808l-.832-11.947-5.133-8.49c-11.936-19.744-12.925-31.41-4.368-51.515 3.563-8.371 4.04-10.444 4.025-17.47-.024-10.74-1.877-18.787-8.054-34.98-6.411-16.806-8.032-27.123-6.414-40.814 1.146-9.693 2.846-13.943 11.287-28.218 2.321-3.925 4.22-7.921 4.22-8.88s.46-2.03 1.022-2.376c1.822-1.127 1.058-11.048-1.458-18.924-1.973-6.177-2.286-8.58-1.595-12.262 2.62-13.977 9.764-20.162 24.449-21.168 13.486-.925 22.613 4.64 24.574 14.98.57 3.005 1.037 6.812 1.037 8.461 0 1.66 1.368 4.987 3.065 7.453 3.585 5.21 3.735 6.212 1.14 7.6-1.846.989-3.207 5.331-3.678 11.736-.212 2.875-1.817 4.668-8.118 9.069-2.275 1.59-2.628 2.581-2.628 7.385 0 4.878.328 5.764 2.713 7.327 3.05 1.998 20.704 23.82 23.243 28.73.905 1.75 1.672 5.154 1.705 7.564.032 2.445 1.155 6.642 2.538 9.492 1.364 2.81 3.665 8.329 5.113 12.263s3.238 8.762 3.978 10.73c4.654 12.385 5.14 15.537 4.874 31.678-.26 15.89-1.685 23.906-4.906 27.619-.746.859-3.256 4.997-5.579 9.197l-4.224 7.635-.277 17.372c-.199 12.448-.875 20.413-2.387 28.102-1.16 5.9-2.85 14.798-3.755 19.772s-2.78 11.28-4.166 14.017c-1.386 2.735-2.535 6.024-2.554 7.307-.036 2.56-2.16 8.66-6.896 19.813-1.695 3.994-3.58 9.742-4.187 12.774-1.758 8.775-4.23 35.754-4.908 53.58l-.623 16.388 3.47 2.777c1.908 1.527 4.16 3.416 5.003 4.197 2.637 2.444 14.553 7.552 20.706 8.875 7.75 1.667 9.27 3.443 5.629 6.575-2.18 1.876-4.493 2.489-11.627 3.083-4.897.408-12.164.383-16.15-.056-9.282-1.022-14.526-1.097-18.996-.273-1.967.362-5.393.219-7.613-.318zM-41.223 1067.586c-.368-.37-9.137-.815-19.488-.988-24.435-.41-26.018-1.346-23.434-13.856.65-3.153 1.184-7.43 1.184-9.503 0-8.287-4.84-31.52-9.193-44.135-4.745-13.75-3.416-29.63 3.892-46.495 3.34-7.711 3.742-9.546 3.577-16.35-.103-4.215-1.106-11.803-2.23-16.861s-2.34-13.795-2.705-19.416c-.922-14.187-9.814-20.89-15.81-31.334-10.986-19.137-4.506-30.662 4.235-51.688 4.28-10.297 4.617-13.431 2.842-26.5-1.328-9.773-2.894-15.295-6.974-24.592-8.26-18.818-9.418-40.717-2.824-53.4l8.111-15.611c7.132-13.729 7.755-17.346 4.801-27.873-4.386-15.632-.967-25.735 10.552-31.185 10.59-5.01 23.68-3.591 31.094 3.37 2.78 2.608 6.397 11.901 6.397 16.43 0 1.837 1.133 4.968 2.555 7.06 2.982 4.39 3.129 5.628.95 8.036-.883.976-2.146 4.616-2.806 8.09-1.098 5.776-1.66 6.71-6.57 10.904-4.95 4.23-5.37 4.934-5.37 9.028 0 4.13.402 4.782 5.742 9.345 7.664 6.548 22.239 24.878 23.725 29.839.655 2.184 1.19 5.58 1.19 7.547 0 2.02.883 4.698 2.029 6.155 2.338 2.972 14.84 26.5 17.401 35.367 1.395 4.827 4.202 14.11 3.852 26.569-2.809 19.588-11.9 23.62-22.26 38.325v13.36c0 11.071 2.896 18.146-.393 36.344-2.183 12.079-8.71 23.928-10.131 27.581-1.422 3.654-3.71 10.091-5.084 14.307-1.374 4.215-4.154 11.342-6.177 15.839-5.338 11.864-7.893 29.759-9.556 66.932l-.618 13.796 3.334 3.256c3.994 3.901 17.87 10.793 25.22 12.524 2.905.685 6.124 1.87 7.154 2.636 3.064 2.277.54 4.967-5.388 5.738-2.752.358-6.613.973-8.58 1.367s-3.878.413-4.246.042zM-162.28 1067.586c-.368-.37-9.137-.815-19.488-.988-24.435-.41-26.018-1.346-23.434-13.856.65-3.153 1.184-7.43 1.184-9.503 0-8.287-4.84-31.52-9.193-44.135-4.745-13.75-7.029-30.352.279-47.218 3.341-7.71 3.742-9.546 3.577-16.35-.103-4.215-1.106-11.802-2.23-16.86-1.123-5.059-2.34-13.796-2.705-19.416-.922-14.187-13.426-16.554-19.422-26.999-10.987-19.137-4.507-30.662 4.234-51.688 4.281-10.297 11.843-17.044 10.068-30.113-1.328-9.773-2.894-15.295-6.975-24.592-8.259-18.818-9.417-40.717-2.823-53.4l8.111-15.611c7.132-13.729 7.755-17.346 4.801-27.873-4.386-15.632-.968-25.735 10.552-31.185 10.59-5.01 23.68-3.591 31.094 3.37 2.78 2.609 6.397 11.901 6.397 16.43 0 1.837 1.133 4.968 2.555 7.06 2.982 4.39 3.129 5.628.95 8.036-.883.976-2.146 4.616-2.806 8.09-1.098 5.776-1.66 6.71-6.57 10.904-4.95 4.23-5.37 4.934-5.37 9.028 0 4.13.401 4.782 5.742 9.345 7.664 6.548 22.239 24.878 23.725 29.839.654 2.184 1.19 5.58 1.19 7.547 0 2.02.883 4.698 2.029 6.155 2.338 2.972 21.343 26.5 23.904 35.367 1.395 4.828 4.202 14.11 3.852 26.569-2.809 19.589-8.286 27.956-18.647 42.66l-6.503 13.361c-4.846 9.954-.717 13.81-4.006 32.008-2.184 12.079-8.71 23.928-10.131 27.581-1.422 3.654-3.71 10.091-5.084 14.307-1.374 4.215-4.154 11.342-6.177 15.839-5.338 11.864-7.893 29.759-9.556 66.932l-.618 13.796 3.334 3.256c3.994 3.901 17.87 10.793 25.22 12.524 2.905.685 6.124 1.87 7.154 2.636 3.064 2.277.54 4.967-5.388 5.738-2.752.358-6.613.973-8.58 1.367s-3.878.413-4.246.042z" style="fill:#000;fill-opacity:1;fill-rule:evenodd;stroke:none" transform="matrix(1.71642 0 0 1.71642 417.959 -1012.18)"/></g><path d="M835.159 1067.425c-15.573-1.194-19.166-4.362-16.015-14.118 3.431-10.624 3.651-14.493 2.194-38.618-.78-12.91-1.946-25.297-2.593-27.525-2.127-7.33-.799-13.551 5.924-27.759 9.98-21.091 11.607-25.997 12.638-38.11 1.939-22.81 3.094-30.604 6.214-41.926 3.215-11.666 3.22-11.716 1.43-16.35-.988-2.556-2.695-7.637-3.793-11.29-1.926-6.407-1.936-6.962-.275-15.685 1.058-5.557 3.249-12.2 5.682-17.233 3.547-7.334 3.894-8.74 3.317-13.439-.794-6.462-6.053-17.685-11.795-25.174-4.478-5.84-9.95-16.191-14.588-27.597-1.484-3.65-3.122-7.396-3.64-8.324-1.773-3.175-3.984-13.638-6.122-28.968-1.822-13.065-2.663-16.357-5.695-22.293-2.51-4.913-4.017-9.822-5.118-16.66-.858-5.332-2.506-12.085-3.663-15.005-1.447-3.654-1.948-6.704-1.608-9.776.65-5.87 6.414-17.063 16.895-32.814 4.682-7.036 9.82-15.652 11.417-19.147 4.773-10.442 10.635-12.364 21.454-7.033 2.527 1.246 4.728 2.954 4.89 3.797.163.843-.897 3.29-2.355 5.437s-2.41 4.53-2.118 5.293c.89 2.321-3.956 6.847-9.215 8.606l-4.968 1.662-1.127 9.113c-.619 5.013-1.072 9.203-1.007 9.312s3.266-1.386 7.112-3.321c9.298-4.68 16.474-4.876 23.152-.633 5.547 3.524 11.185 9.78 11.185 12.412 0 1.202 1.558 2.818 4.088 4.24 3.913 2.2 5.302 5.136 3.08 6.51-1.53.946-.42 7.274 2.103 12.002 1.714 3.21.998 5.587-2.607 8.666-4.299 3.672-6.649 7.92-6.66 12.041l-.007 3.066 6.899-.511c5.753-.426 7.967-1.176 13.33-4.515 4.85-3.02 6.25-4.401 5.699-5.62-.402-.89-1.064-8.974-1.47-17.967-.408-8.992-1.298-19.224-1.978-22.737-1.213-6.264-1.3-6.386-4.545-6.386-3.287 0-6.692-2.53-6.692-4.97 0-.679.705-2.31 1.567-3.624 1.234-1.884 1.36-3.315.589-6.744-1.353-6.02-.134-8.551 4.837-10.04 4.687-1.405 11.797-.622 13.55 1.491.642.773 1.773 1.406 2.514 1.406 2.295 0 2.852 2.096 3.657 13.756.807 11.701 4.954 26.33 10.051 35.457 1.68 3.01 5.132 18.379 5.132 22.852 0 2.387-.592 5.75-1.316 7.472-1.946 4.628-23.511 27.223-27.498 28.812-1.856.739-3.488 1.416-3.627 1.505s3.502 3.457 5.748 7.798c4.785 9.247 3.123 12.871-.498 19.05-2.233 3.811-1.077 4.568-.127 6.652.623 1.368 1.771 3.367 1.771 5.224s-2.23 6.094-1.074 7.36c.893.98 4.543 5.444 1.254 11.972-.756 1.5 2.132 4.752 2.608 7.155.587 2.96-1.099 5.159-.983 7.595.064 1.363 0 2.662.16 3.88 1.81 13.929 1.285 19.644-1.47 30.949-2.05 8.407-1.716 16.559-2.061 17.647-.345 1.089.599 3.146 1.8 5.663 4.19 8.776 5.5 23.269 3.908 31.49-.13.676-.386 1.29-.452 1.895-.452 4.167 1.607 20.286.14 28.035-1.517 8.02-3.24 11.24-4.124 14.05s-2.103 7.41-2.709 10.22-2.945 8.788-5.2 13.284c-3.236 6.455-4.404 10.325-5.551 18.394-1.793 12.604-3.617 39.281-3.617 52.886 0 12.333 1.33 15.673 8.209 20.616 9.113 6.547 14.634 8.763 22.62 9.081 5.692.227 7.58.695 8.434 2.09.892 1.459.558 2.27-1.767 4.292-1.576 1.37-4.118 2.493-5.648 2.493s-3.845.744-5.145 1.655c-1.767 1.238-3.563 1.488-7.125.993-16.175-2.25-21.388-2.536-26.732-1.468-4.16.832-6.736.817-9.917-.055-7.998-2.195-9.042-5.56-5.421-17.469 1.776-5.84 1.896-7.74 1.002-15.839-2.22-20.103-4.331-33.114-6.752-41.598-2.237-7.84-2.409-9.582-1.457-14.735 1.577-8.526.637-7.824-1.813 1.355-5.533 20.728-10.385 49.808-10.385 62.232 0 12.108 2.777 17.092 12.056 21.636 3.002 1.47 5.885 3.469 6.405 4.442 1.16 2.166.329 4.611-1.85 5.448-2.915 1.118-12.834 1.396-22.743.636zm22.414-109.421c.005-1.362-.092-1.362-.862 0-.477.843-1.172 2.682-1.545 4.088l-.677 2.554 1.54-2.554c.846-1.406 1.54-3.245 1.544-4.088M839.76 680.06c-.345-.56-1.637-1.51-2.87-2.113-1.932-.944-1.888-.806.312.994 2.861 2.34 3.48 2.61 2.558 1.119M776.912 1067.38c-12.998-1.352-14.653-1.403-20.043-.622-5.86.849-12.651-.558-15.254-3.16-1.88-1.881-1.693-7.056.61-16.883 1.243-5.3 1.122-7.433-1.334-23.503-1.485-9.72-2.984-20.605-3.332-24.188s-1.56-8.871-2.697-11.752c-3.117-7.898-1.768-13.12 9.063-35.098 4.388-8.903 4.608-9.752 3.973-15.357-.76-6.722-3.14-14.847-7.406-25.291-2.863-7.01-2.922-7.547-2.922-26.665 0-12.839-.391-20.004-1.142-20.949-2.594-3.263-7.42-13.063-9.152-18.587-2.835-9.042-1.155-15.66 8.057-31.735 1.474-2.57 1.769-4.846 1.446-11.15-.357-6.99-.95-8.972-5.039-16.861-2.548-4.918-6.845-14.459-9.547-21.203-4.482-11.187-4.95-13.16-5.337-22.482-.608-14.67 2.917-28.076 9.181-34.92 2.412-2.635 7.874-18.33 8.655-24.873.472-3.955.025-5.568-3.14-11.325-3.082-5.607-3.687-7.71-3.668-12.76.028-7.618 2.442-13.046 8.046-18.1 5.662-5.104 8.223-5.961 18.04-6.033 8.62-.064 11.908.99 18.51 5.929 3.71 2.776 8.119 14.14 7.084 18.262-.35 1.4-.05 3.008.71 3.785 4.862 4.977 6.08 9.497 2.836 10.527-1.087.345-1.966 1.41-1.954 2.368.054 4.203-2.054 12.772-3.343 13.587-.777.492-3.603 1.191-6.28 1.555-4.186.568-4.95 1.036-5.45 3.337-.32 1.473-1.003 4.01-1.518 5.64-2.033 6.423.357 6.793 6.262 11.156 5.905 4.362 14.74 14.55 18.33 21.606 2.594 5.098.656 9.531-1.617 12.777-.445.635-.212 1.81-.522 2.472-.698 1.489 2.027 2.446 2.953 3.503 1.651 1.886 2.829 5.217 2.504 7.632-2.382 4.332-2.173 1.055.14 5.56 1.808 3.557 2.551 8.482.612 11.898-2.56 2.572-2.607 4.533-.957 7.56 1.894 2.945 1.698 6.123.526 8.88-.494 1.139-1.542 2.088-1.878 3.311-1.573 5.735.659 7.26 1.431 11.104.841 4.183-1.084 5.928-2.589 11.938-1.992 7.956-3.956 24.63-3.883 32.965.024 2.81 3.462 7.766 4.985 12.262 3.289 9.711 2.247 23.551.35 29.635-.7 2.248-1.589 10.295-1.974 17.883-.596 11.743-1.063 14.48-3.139 18.393-1.341 2.53-3.27 7.794-4.286 11.7s-3.637 10.113-5.825 13.795c-4.227 7.11-5.96 14.434-8.234 34.796-.596 5.34-1.769 15.476-2.605 22.525-1.816 15.301-1.857 17.707-.413 24.439.721 3.363 2.168 6.227 4.145 8.204 4.712 4.712 18.749 11.189 27.413 12.648 8.475 1.428 10.961 3.444 7.955 6.45-1.58 1.58-5.39 2.474-16.096 3.777-1.968.24-7.026.076-11.241-.362zM678.673 1067.11c-1.89-.436-8.036-.564-13.657-.287-17.505.864-21.523-2.242-18.494-14.299.898-3.577 1.64-8.708 1.649-11.402.025-8.388-5.04-43.385-7.317-50.56-3.377-10.637-2.112-16.755 8.092-39.141 2.76-6.053 3.67-9.352 3.524-12.773-.264-6.194-2.098-14.799-4.402-20.662-4.046-10.292-5.162-18.048-4.83-33.557l.32-14.863-4.257-6.597c-5.758-8.925-7.532-13.565-8.188-21.414-.435-5.212-.071-8.073 1.69-13.284 1.234-3.653 2.838-7.332 3.565-8.175 3.5-4.058 4.634-8.231 4.64-17.066.006-8.66-.18-9.389-5.056-19.722-7.623-16.156-12.435-28.499-13.484-34.589-.575-3.337-.573-9.752.005-16.474 1.025-11.924 2.841-17.29 8.831-26.088 4.03-5.92 8.677-19.412 8.677-25.196 0-2.482-1.236-6.385-3.275-10.344-5.892-11.437-3.776-23.962 5.278-31.238 5.599-4.499 8.168-5.264 17.667-5.264 9.259 0 14.781 1.97 19.325 6.895 3.435 3.722 6.204 11.021 6.12 16.127-.056 3.335.612 4.862 3.514 8.03 3.875 4.23 4.021 5.713.709 7.212-2.157.977-3.96 6.848-3.517 11.459.265 2.766-4.242 6.474-7.894 6.495-3.816.023-4.69.891-6.597 6.553-2.274 6.752-2.137 9.458.586 11.58 2.536 1.977 11.522 7.712 17.369 14.06 4.26 4.623 8.653 12.2 8.678 16.075.009 1.405-1.642 5.307-2.42 6.797-1.298 2.488.87 3.199 3.579 7.28 1.82 2.746 1.55 4.024 1.562 6.233.003.65-.433 3.508-.306 4.39.257 1.79 1.586 2.522 2.287 3.986 1.64 3.428.256 7.13-1.44 9.776-.452.704.048 1.705.105 2.465.17 2.243 1.412 4.35 2.027 6.107.734 2.093.743 4-.141 6.182-.36.886-1.102 2.541-1.352 3.787a56 56 0 0 0-.937 7.416c-.102 1.761 1.164 5.073 1.3 6.686.48 5.672-1.128 7.556-2.728 13.466-1.14 4.21-2.892 12.854-3.893 19.21l-1.055 11.427 1.591 7.988c.047.233 7.263 21.11 1.759 35.134-1.537 3.915-1.808 12.068-2.02 17.688-.321 8.57-.82 11.08-3.096 15.55-1.492 2.932-2.713 6.266-2.713 7.408s-.406 2.078-.9 2.078c-.496 0-1.445 2.184-2.11 4.854s-2.979 7.613-5.143 10.985c-4.767 7.427-6.065 14.264-10.224 53.823-1.494 14.213-1.317 27.838.416 31.985 2.587 6.193 19.342 14.907 31.552 16.41 8.393 1.033 11.133 4.073 6.44 7.148-3.839 2.515-23.984 3.958-31.41 2.25zM584.458 1067.375c-.452-.452-7.41-.829-15.461-.837-13.19-.013-14.864-.217-16.906-2.058-2.101-1.895-2.207-2.566-1.457-9.197.445-3.935.783-11.522.751-16.861-.065-10.98-4.537-39.421-7.545-47.993-1.078-3.072-1.96-6.982-1.96-8.69 0-4.084 3.153-14.85 6.593-22.513 1.514-3.372 3.696-8.837 4.849-12.144 2.524-7.236 2.125-13.393-1.861-28.73-5.384-20.716-5.555-21.912-4.922-34.233l.605-11.752-3.722-5.62c-8.11-12.246-10.212-18.952-9.486-30.265.43-6.706 1.154-9.056 5.265-17.111 4.262-8.354 4.763-10.05 4.744-16.084-.024-7.702-.56-9.655-6.696-24.422-11.332-27.268-12.203-30.65-11.417-44.302.717-12.463 3.305-21.32 8.384-28.695 3.6-5.227 9.708-21.02 9.708-25.102 0-1.07-1.665-5.733-3.7-10.363-3.233-7.351-3.636-9.147-3.18-14.174 1.304-14.38 10.957-22.47 26.815-22.47 8.513 0 13.027 1.67 18.611 6.887 3.374 3.151 6.417 11.382 6.417 17.355 0 2.044.844 4.34 2.083 5.67 2.841 3.05 3.704 6.907 1.86 8.312-1.68 1.28-3.943 8.26-3.943 12.164 0 2.925-3.302 5.815-6.642 5.815-4.297 0-6.33 2.634-7.068 9.16-.384 3.393-.33 6.807.12 7.588.449.78 3.183 3.283 6.076 5.561 6.05 4.764 17.11 20.552 18.103 25.84.358 1.909.217 4.984-.313 6.834-.556 1.936.578 3.37 2.162 5.63 2.065 2.807 3.536 5.74 3.226 9.199-.116 1.214-.336 2.242-.336 2.902 0 .764.659 2.304 1.387 3.839 1.65 2.548 2.049 5.016 1.605 7.476-.256 1.434-.519 3.337-.354 6.1 2.941 11.213-.158 13.312.466 17.718q.007 2.698-.013 5.581c-.097 13.605-.461 16.993-2.583 24.015-5.252 17.382-6.74 28.079-4.668 33.53.522 1.373 1.48 7.068 2.13 12.655 1.014 8.726.932 11.517-.58 19.796-.968 5.3-2.05 14.475-2.406 20.387-.528 8.797-1.152 11.786-3.435 16.452-1.534 3.136-2.79 6.389-2.79 7.228 0 2.997-4.085 13.329-7.527 19.035-1.925 3.192-3.995 8.333-4.598 11.424-3.334 17.076-6.566 56.92-5.537 68.265.526 5.798.935 6.715 4.205 9.41 5.907 4.87 19.457 10.94 26.254 11.763 6.694.81 8.663 1.85 8.663 4.575 0 3.908-2.823 4.671-21.475 5.805-4.223.257-8.049.097-8.5-.355M484.656 1066.849c-1.968-.505-7.732-.64-12.81-.301-16.525 1.104-19.612-2.044-16.2-16.517 1.72-7.292 1.725-8.337.11-19.658-2.389-16.754-5.364-32.2-7.785-40.421-1.942-6.592-1.975-7.472-.558-14.941.828-4.366 3.798-13.269 6.6-19.785 6.597-15.34 6.597-20.187.007-43.596-1.538-5.46-2.336-12.058-2.778-22.944l-.62-15.28-4.952-7.586c-10.964-16.795-11.442-28.758-1.934-48.36 3.156-6.508 4.132-9.737 4.132-13.675 0-6.045-2.183-15.015-5.583-22.935-5.487-12.783-10.78-28.674-11.689-35.085-.6-4.234-.61-10.61-.027-16.769.969-10.242 2.08-13.233 11.109-29.916 3.76-6.946 6.19-14.178 6.19-18.415 0-1.767-1.458-6.51-3.24-10.538-6.387-14.437-3.074-26.952 9.01-34.034 5.328-3.123 15.002-4.264 21.418-2.528 4.635 1.255 13.025 7.186 14.766 10.439 1.775 3.316 4.043 12.979 3.425 14.59-.31.807.85 3.419 2.576 5.802 3.638 5.023 3.88 6.625 1.21 8.053-1.796.962-2.467 3.217-3.476 11.69-.41 3.435-2.81 5.467-7.501 6.347-3.558.668-4.544 2.48-5.976 10.983-.646 3.84-.47 4.119 8.385 13.284 14.491 15 18.466 22.294 17.034 31.253-.46 2.876-.2 4.84.855 6.45 2.637 4.025 6.998 18.453 7.027 23.25.016 2.537.652 6.912 1.413 9.722.961 3.552 1.28 9.783 1.045 20.438-.336 15.245-.738 17.69-4.534 27.541-1.093 2.837-2.955 8.377-4.138 12.312-2.06 6.848-2.084 7.502-.58 15.328 1.754 9.122 2.042 26.442.545 32.7-.537 2.248-1.473 9.376-2.08 15.839-1.019 10.862-4.105 22.787-6.238 24.106-.48.297-.874 1.69-.874 3.097 0 4.213-3.134 12.738-7.288 19.824-5.965 10.175-8.142 25.38-9.724 67.934-.556 14.945-.509 15.417 1.875 18.905 2.726 3.988 18.508 12.562 25.164 13.67 11.26 1.876 12.026 2.265 10.974 5.58-.74 2.332-6.753 4.743-9.827 3.94-1.086-.285-2.232-.1-2.547.409-.724 1.171-17.15 1.02-21.911-.202zM361.724 1066.898c-6.34-1.754-7.412-4.442-5.828-14.623.864-5.556 1.083-11.821.625-17.893-.864-11.443-4.83-32.974-7.697-41.784-1.167-3.586-2.115-8.184-2.107-10.219.03-7.111 4.64-22.266 10.897-35.811 2.203-4.77 1.349-16.848-2.161-30.572-1.919-7.502-2.925-14.792-3.47-25.12-.76-14.457-.788-14.583-4.438-20.086-2.02-3.046-4.969-8.527-6.553-12.18-2.523-5.814-2.883-7.915-2.89-16.86-.009-9.682.217-10.77 4.295-20.678 3.869-9.398 4.305-11.316 4.305-18.908 0-9.681-1.467-15.402-9.09-35.45-6.27-16.484-7.718-24.015-6.98-36.287.62-10.268 2.777-16.878 8.357-25.601 3.896-6.09 7.08-13.234 8.659-19.432 1.136-4.457-.583-13.443-3.168-16.556-.897-1.082-1.354-4.653-1.354-10.584 0-8.322.219-9.263 3.105-13.37 2.076-2.955 5.1-5.439 9.125-7.497 5.224-2.672 7.108-3.079 14.266-3.079 7.305 0 8.873.355 13.72 3.105 4.76 2.7 5.808 3.898 8.05 9.197 1.417 3.35 2.64 7.932 2.715 10.18.089 2.608 1.151 5.56 2.936 8.156 3.297 4.797 3.445 6.087.909 7.88-1.802 1.275-3.397 6.58-3.626 12.065-.08 1.938-1.168 3.09-4.504 4.774-6.415 3.238-7.183 4.119-7.929 9.092-.89 5.93-.01 9.043 2.933 10.384 3.226 1.47 20.503 24.294 22.116 29.216.704 2.148 1.075 5.597.826 7.664-.334 2.764.316 5.247 2.453 9.38 2.687 5.195 4.03 9.834 8.43 29.123 1.126 4.934 1.623 12.067 1.605 22.992-.025 14.737-.21 16.266-2.667 21.97-1.453 3.373-3.305 8.201-4.116 10.73-.812 2.53-2.382 6.318-3.49 8.42-1.776 3.366-1.893 4.582-.978 10.218 1.641 10.114 1.245 27.736-.914 40.63-1.082 6.464-2.43 14.86-2.995 18.66-.565 3.798-2.208 9.487-3.653 12.64-1.444 3.155-2.625 6.758-2.625 8.007 0 3.232-3.633 13.37-6.367 17.767-1.276 2.05-2.906 5.338-3.625 7.305-2.97 8.138-8.433 68.151-6.932 76.154 1.115 5.942 14.926 14.209 29.586 17.71 19.062 4.552 5.156 11.639-19.304 9.839-13.343-.982-17.531-1.027-22.481-.243-2.249.357-5.835.165-7.97-.425M257.3 1066.56c-6.277-2.206-7.69-5.122-5.838-12.048.676-2.524 1.226-8.376 1.224-13.005-.005-10.098-4.074-35.258-7.31-45.204-3.53-10.846-3.06-20.834 1.647-34.926 2.03-6.082 4.366-12.278 5.19-13.77 2.11-3.82 1.885-14.086-.584-26.592-1.145-5.802-2.719-17.803-3.497-26.67-1.06-12.062-1.885-16.852-3.283-19.03a777 777 0 0 0-4.481-6.872c-6.225-9.431-7.606-14.336-7.588-26.954.016-11.51.103-11.95 4.242-21.459 2.324-5.34 4.51-10.975 4.858-12.524 1.161-5.166-2.192-22.517-6.595-34.127-8.441-22.255-8.374-21.946-8.417-38.676-.044-17.154.527-19.446 7.725-30.947 2.21-3.533 5.369-9.635 7.018-13.561 2.75-6.546 2.914-7.6 1.973-12.695-.565-3.056-1.967-7.397-3.114-9.646-5.445-10.673.324-25.763 11.97-31.314 2.19-1.043 7.107-2.01 11.49-2.26 7.121-.406 8.136-.194 14.307 2.987 5.551 2.862 7.03 4.206 9.006 8.187 1.3 2.619 2.639 7.432 2.975 10.694.351 3.397 1.345 6.72 2.327 7.773.943 1.012 2.347 3.021 3.119 4.464 1.265 2.364 1.195 2.792-.71 4.326-1.92 1.546-4.876 9.568-4.406 11.96.502 2.554-.338 3.7-3.88 5.3-6.927 3.124-8.431 5.114-8.431 11.148 0 3.803.498 5.792 1.684 6.72 7.358 5.757 21.302 23.444 24.48 31.051.785 1.877 1.426 5.67 1.426 8.429 0 3.159.555 5.477 1.497 6.26 1.608 1.334 9.803 25.518 11.784 34.773.742 3.47 1.07 12.071.859 22.481l-.344 16.861-5.023 10.219c-2.763 5.62-5.803 11.368-6.756 12.773-1.5 2.213-1.599 3.649-.733 10.73 1.025 8.39-.378 32.325-2.316 39.49-.51 1.886-1.633 8.204-2.496 14.04-.862 5.836-2.276 12.03-3.14 13.763s-2.237 6.385-3.05 10.337c-.864 4.202-3.633 11.478-6.667 17.522-4.05 8.066-5.509 12.33-6.642 19.416-1.773 11.08-3.378 30.479-4.225 51.07l-.634 15.421 3.515 2.805c6.463 5.157 16.625 10.106 25.393 12.366 7.118 1.835 8.744 2.623 9.004 4.361.21 1.394-.622 2.738-2.423 3.918-2.345 1.537-4.977 1.771-18.201 1.62-8.503-.097-17.759-.262-20.569-.367s-6.719.117-8.686.491c-2.355.45-5.316.07-8.673-1.11M68.241 1067.192c-10.481-1.044-12.906-1.107-23.503-.609-11.07.521-15.403-3.869-12.933-13.105.65-2.43 1.16-7.515 1.133-11.3-.05-7.103-3.517-26.12-6.562-36.007-4.325-14.039-5.537-19.257-5.58-24.014-.072-8.147 3.458-22.95 7.57-31.744 3.686-7.88 3.777-8.355 3.208-16.795-.322-4.777-1.48-12.135-2.573-16.35-1.094-4.215-2.29-12.952-2.657-19.416-.725-12.752-2.583-20.242-6.21-25.036-4.157-5.497-9.434-17.833-10.73-25.088-1.6-8.947-.182-17.885 4.702-29.639 4.644-11.18 4.772-12.09 3.592-25.552-1.058-12.066-2.912-19.065-7.436-28.063-3.519-6.998-5.812-16.88-6.55-28.224-.787-12.1 1.075-19.885 7.295-30.494 11.703-19.962 13.756-27.977 9.605-37.486-4.754-10.887-1.245-24.149 7.931-29.968 13.396-8.495 30.097-6.355 37.146 4.76 3.338 5.264 5.092 10.413 5.101 14.973.004 1.583 1.156 4.386 2.56 6.228 3.065 4.017 3.199 5.834.603 8.183-1.285 1.163-2.192 3.833-2.654 7.815-.645 5.555-1.048 6.314-4.945 9.299-6.018 4.609-6.798 5.82-6.798 10.56s.778 5.949 6.815 10.573c5.446 4.17 19.043 20.915 21.181 26.083.901 2.176 1.638 5.935 1.638 8.352 0 3.125.698 5.23 2.416 7.284 2.56 3.06 6.06 10.72 12.529 27.414 5.074 9.161 3.948 18.465 3.935 28.612-.03 21.94.167 21.356-13.55 40l-3.356 4.56-.312 14.508c-.171 7.979-1.026 17.956-1.9 22.171-.875 4.215-2.14 11.803-2.812 16.861-1.527 11.492-3.68 20.2-6.229 25.196-1.083 2.123-2.475 6.29-3.095 9.259-.619 2.969-3.386 9.997-6.149 15.617-5.954 12.113-7.105 18.137-9.569 50.072-2.596 33.658-2.6 33.51 1.012 37.352 2.82 2.998 19.776 12.209 22.477 12.209.642 0 3.549.707 6.461 1.572 3.889 1.155 5.295 2.072 5.295 3.452 0 2.859-2.341 4.223-8.872 5.171-3.27.475-6.635 1.067-7.478 1.317s-6.131 0-11.752-.563M152.086 1066.915c-7.599-1.84-7.746-2.249-7.076-19.71.537-14.024.347-16.635-2.065-28.34-1.462-7.09-3.855-16.518-5.318-20.948-2.414-7.311-2.61-9.094-2.118-19.296.542-11.24 2.026-16.608 9.195-33.25 1.258-2.92 1.394-5.477.708-13.285-.467-5.318-1.294-10.818-1.838-12.223-1.55-4.007-3.246-15.772-4.153-28.808l-.832-11.947-5.133-8.49c-11.936-19.744-12.925-31.41-4.368-51.515 3.563-8.371 4.04-10.444 4.025-17.47-.024-10.74-1.877-18.787-8.054-34.98-6.411-16.806-8.032-27.123-6.414-40.814 1.146-9.693 2.846-13.943 11.287-28.218 2.321-3.925 4.22-7.921 4.22-8.88s.46-2.03 1.022-2.376c1.822-1.127 1.058-11.048-1.458-18.924-1.973-6.177-2.286-8.58-1.595-12.262 2.62-13.977 9.764-20.162 24.449-21.168 13.486-.925 22.613 4.64 24.574 14.98.57 3.005 1.037 6.812 1.037 8.461 0 1.66 1.368 4.987 3.065 7.453 3.585 5.21 3.735 6.212 1.14 7.6-1.846.989-3.207 5.331-3.678 11.736-.212 2.875-1.817 4.668-8.118 9.069-2.275 1.59-2.628 2.581-2.628 7.385 0 4.878.328 5.764 2.713 7.327 3.05 1.998 20.704 23.82 23.243 28.73.905 1.75 1.672 5.154 1.705 7.564.032 2.445 1.155 6.642 2.538 9.492 1.364 2.81 3.665 8.329 5.113 12.263s3.238 8.762 3.978 10.73c4.654 12.385 5.14 15.537 4.874 31.678-.26 15.89-1.685 23.906-4.906 27.619-.746.859-3.256 4.997-5.579 9.197l-4.224 7.635-.277 17.372c-.199 12.448-.875 20.413-2.387 28.102-1.16 5.9-2.85 14.798-3.755 19.772s-2.78 11.28-4.166 14.017c-1.386 2.735-2.535 6.024-2.554 7.307-.036 2.56-2.16 8.66-6.896 19.813-1.695 3.994-3.58 9.742-4.187 12.774-1.758 8.775-4.23 35.754-4.908 53.58l-.623 16.388 3.47 2.777c1.908 1.527 4.16 3.416 5.003 4.197 2.637 2.444 14.553 7.552 20.706 8.875 7.75 1.667 9.27 3.443 5.629 6.575-2.18 1.876-4.493 2.489-11.627 3.083-4.897.408-12.164.383-16.15-.056-9.282-1.022-14.526-1.097-18.996-.273-1.967.362-5.393.219-7.613-.318zM-41.223 1067.586c-.368-.37-9.137-.815-19.488-.988-24.435-.41-26.018-1.346-23.434-13.856.65-3.153 1.184-7.43 1.184-9.503 0-8.287-4.84-31.52-9.193-44.135-4.745-13.75-3.416-29.63 3.892-46.495 3.34-7.711 3.742-9.546 3.577-16.35-.103-4.215-1.106-11.803-2.23-16.861s-2.34-13.795-2.705-19.416c-.922-14.187-9.814-20.89-15.81-31.334-10.986-19.137-4.506-30.662 4.235-51.688 4.28-10.297 4.617-13.431 2.842-26.5-1.328-9.773-2.894-15.295-6.974-24.592-8.26-18.818-9.418-40.717-2.824-53.4l8.111-15.611c7.132-13.729 7.755-17.346 4.801-27.873-4.386-15.632-.967-25.735 10.552-31.185 10.59-5.01 23.68-3.591 31.094 3.37 2.78 2.608 6.397 11.901 6.397 16.43 0 1.837 1.133 4.968 2.555 7.06 2.982 4.39 3.129 5.628.95 8.036-.883.976-2.146 4.616-2.806 8.09-1.098 5.776-1.66 6.71-6.57 10.904-4.95 4.23-5.37 4.934-5.37 9.028 0 4.13.402 4.782 5.742 9.345 7.664 6.548 22.239 24.878 23.725 29.839.655 2.184 1.19 5.58 1.19 7.547 0 2.02.883 4.698 2.029 6.155 2.338 2.972 14.84 26.5 17.401 35.367 1.395 4.827 4.202 14.11 3.852 26.569-2.809 19.588-11.9 23.62-22.26 38.325v13.36c0 11.071 2.896 18.146-.393 36.344-2.183 12.079-8.71 23.928-10.131 27.581-1.422 3.654-3.71 10.091-5.084 14.307-1.374 4.215-4.154 11.342-6.177 15.839-5.338 11.864-7.893 29.759-9.556 66.932l-.618 13.796 3.334 3.256c3.994 3.901 17.87 10.793 25.22 12.524 2.905.685 6.124 1.87 7.154 2.636 3.064 2.277.54 4.967-5.388 5.738-2.752.358-6.613.973-8.58 1.367s-3.878.413-4.246.042zM-162.28 1067.586c-.368-.37-9.137-.815-19.488-.988-24.435-.41-26.018-1.346-23.434-13.856.65-3.153 1.184-7.43 1.184-9.503 0-8.287-4.84-31.52-9.193-44.135-4.745-13.75-7.029-30.352.279-47.218 3.341-7.71 3.742-9.546 3.577-16.35-.103-4.215-1.106-11.802-2.23-16.86-1.123-5.059-2.34-13.796-2.705-19.416-.922-14.187-13.426-16.554-19.422-26.999-10.987-19.137-4.507-30.662 4.234-51.688 4.281-10.297 11.843-17.044 10.068-30.113-1.328-9.773-2.894-15.295-6.975-24.592-8.259-18.818-9.417-40.717-2.823-53.4l8.111-15.611c7.132-13.729 7.755-17.346 4.801-27.873-4.386-15.632-.968-25.735 10.552-31.185 10.59-5.01 23.68-3.591 31.094 3.37 2.78 2.609 6.397 11.901 6.397 16.43 0 1.837 1.133 4.968 2.555 7.06 2.982 4.39 3.129 5.628.95 8.036-.883.976-2.146 4.616-2.806 8.09-1.098 5.776-1.66 6.71-6.57 10.904-4.95 4.23-5.37 4.934-5.37 9.028 0 4.13.401 4.782 5.742 9.345 7.664 6.548 22.239 24.878 23.725 29.839.654 2.184 1.19 5.58 1.19 7.547 0 2.02.883 4.698 2.029 6.155 2.338 2.972 21.343 26.5 23.904 35.367 1.395 4.828 4.202 14.11 3.852 26.569-2.809 19.589-8.286 27.956-18.647 42.66l-6.503 13.361c-4.846 9.954-.717 13.81-4.006 32.008-2.184 12.079-8.71 23.928-10.131 27.581-1.422 3.654-3.71 10.091-5.084 14.307-1.374 4.215-4.154 11.342-6.177 15.839-5.338 11.864-7.893 29.759-9.556 66.932l-.618 13.796 3.334 3.256c3.994 3.901 17.87 10.793 25.22 12.524 2.905.685 6.124 1.87 7.154 2.636 3.064 2.277.54 4.967-5.388 5.738-2.752.358-6.613.973-8.58 1.367s-3.878.413-4.246.042z" style="fill:#b3026e;fill-opacity:1;fill-rule:evenodd;stroke:none" transform="matrix(1.71642 0 0 1.71642 411.093 -1008.747)"/><text xml:space="preserve" x="-192.747" y="823.227" style="font-size:72px;font-style:normal;font-variant:normal;font-weight:700;font-stretch:normal;line-height:125%;letter-spacing:0;word-spacing:0;fill:#000;fill-opacity:1;stroke:none;font-family:Aharoni;-inkscape-font-specification:Aharoni Bold" transform="matrix(1.71642 0 0 1.71642 411.093 -1008.747)"><tspan x="-192.747" y="823.227">E</tspan></text><text xml:space="preserve" x="-67.451" y="823.227" style="font-size:72px;font-style:normal;font-variant:normal;font-weight:700;font-stretch:normal;line-height:125%;letter-spacing:0;word-spacing:0;fill:#000;fill-opacity:1;stroke:none;font-family:Aharoni;-inkscape-font-specification:Aharoni Bold" transform="matrix(1.71642 0 0 1.71642 411.093 -1008.747)"><tspan x="-67.451" y="823.227">L</tspan></text><text xml:space="preserve" x="46.065" y="823.227" style="font-size:72px;font-style:normal;font-variant:normal;font-weight:700;font-stretch:normal;line-height:125%;letter-spacing:0;word-spacing:0;fill:#000;fill-opacity:1;stroke:none;font-family:Aharoni;-inkscape-font-specification:Aharoni Bold" transform="matrix(1.71642 0 0 1.71642 411.093 -1008.747)"><tspan x="46.065" y="823.227">L</tspan></text><text xml:space="preserve" x="147.187" y="823.227" style="font-size:72px;font-style:normal;font-variant:normal;font-weight:700;font-stretch:normal;line-height:125%;letter-spacing:0;word-spacing:0;fill:#000;fill-opacity:1;stroke:none;font-family:Aharoni;-inkscape-font-specification:Aharoni Bold" transform="matrix(1.71642 0 0 1.71642 411.093 -1008.747)"><tspan x="147.187" y="823.227">A</tspan></text><text xml:space="preserve" x="268.221" y="823.227" style="font-size:72px;font-style:normal;font-variant:normal;font-weight:700;font-stretch:normal;line-height:125%;letter-spacing:0;word-spacing:0;fill:#000;fill-opacity:1;stroke:none;font-family:Aharoni;-inkscape-font-specification:Aharoni Bold" transform="matrix(1.71642 0 0 1.71642 411.093 -1008.747)"><tspan x="268.221" y="823.227">F</tspan></text><text xml:space="preserve" x="376.321" y="823.227" style="font-size:72px;font-style:normal;font-variant:normal;font-weight:700;font-stretch:normal;line-height:125%;letter-spacing:0;word-spacing:0;fill:#000;fill-opacity:1;stroke:none;font-family:Aharoni;-inkscape-font-specification:Aharoni Bold" transform="matrix(1.71642 0 0 1.71642 411.093 -1008.747)"><tspan x="376.321" y="823.227">I</tspan></text><text xml:space="preserve" x="466.465" y="823.227" style="font-size:72px;font-style:normal;font-variant:normal;font-weight:700;font-stretch:normal;line-height:125%;letter-spacing:0;word-spacing:0;fill:#000;fill-opacity:1;stroke:none;font-family:Aharoni;-inkscape-font-specification:Aharoni Bold" transform="matrix(1.71642 0 0 1.71642 411.093 -1008.747)"><tspan x="466.465" y="823.227">T</tspan></text><text xml:space="preserve" x="549.324" y="823.227" style="font-size:72px;font-style:normal;font-variant:normal;font-weight:700;font-stretch:normal;line-height:125%;letter-spacing:0;word-spacing:0;fill:#000;fill-opacity:1;stroke:none;font-family:Aharoni;-inkscape-font-specification:Aharoni Bold" transform="matrix(1.71642 0 0 1.71642 411.093 -1008.747)"><tspan x="549.324" y="823.227">N</tspan></text><text xml:space="preserve" x="656.753" y="823.227" style="font-size:72px;font-style:normal;font-variant:normal;font-weight:700;font-stretch:normal;line-height:125%;letter-spacing:0;word-spacing:0;fill:#000;fill-opacity:1;stroke:none;font-family:Aharoni;-inkscape-font-specification:Aharoni Bold" transform="matrix(1.71642 0 0 1.71642 411.093 -1008.747)"><tspan x="656.753" y="823.227">E</tspan></text><text xml:space="preserve" x="743.612" y="821.962" style="font-size:72px;font-style:normal;font-variant:normal;font-weight:700;font-stretch:normal;line-height:125%;letter-spacing:0;word-spacing:0;fill:#000;fill-opacity:1;stroke:none;font-family:Aharoni;-inkscape-font-specification:Aharoni Bold" transform="matrix(1.71642 0 0 1.71642 411.093 -1008.747)"><tspan x="743.612" y="821.962">S</tspan></text><text xml:space="preserve" x="855.187" y="821.962" style="font-size:72px;font-style:normal;font-variant:normal;font-weight:700;font-stretch:normal;line-height:125%;letter-spacing:0;word-spacing:0;fill:#000;fill-opacity:1;stroke:none;font-family:Aharoni;-inkscape-font-specification:Aharoni Bold" transform="matrix(1.71642 0 0 1.71642 411.093 -1008.747)"><tspan x="855.187" y="821.962">S</tspan></text></svg>