<svg xmlns="http://www.w3.org/2000/svg" width="453.083" height="1023.626"><path d="M266.437 182.53c9.37-8.673 35.384-25.38 5.184-16.474-20.229 4.86-27.898 3.76-8.111-3.56 7.48-3.595 15.097-6.928 22.636-10.364-7.814-3.113-17.405-1.776-25.376-4.232 7.53-2.989 15.23-5.628 22.773-8.598-13.592-6.587-29.123-9.772-42.348-16.49 14.607 1.748 29.194 3.623 43.812 5.098-16.121-10.047-30.999-20.79-6.289-13.043 24.264 7.973-.449-9.747-9.38-18.035-11.727-12.686 24.847 10.118 32.801 11.188-16.035-16.98-33.264-32.841-49.569-49.575 13.308 4.528 53.316 41.893 49.53 28.045-8.246-13.782-16.5-27.484-24.642-41.288 14.259 13.366 26.209 30.17 40.338 44.055-1.828-9.156-7.068-17.701-9.067-26.84 5.822 6.309 9.934 14.565 15.796 20.522.259-6.558-1.23-26.462 3.561-11.334 2.467 8.315 6.737 12.591 5.503.752.205-4.62-.75-20.846 1.67-16.158 1.829 17.408 7.192 27.218 10.221 5.677 3.645-13.16 6.958-26.45 10.932-39.478.618 19.522-1.494 39.121-1.189 58.637 11.28-20.847 10.179-13.423 8.072 1.35 14.127-18.566 7.675-2.395 8.447 2.568 10.818-12.473 53.04-66.351 23.673-21.652-8.313 13.24-26.133 38.916-3.48 21.402 20.875-12.532-26.939 27.78.08 14.32 14.673-4.914-20.21 21.028 7.277 9.15 5.91-.38 52.613-14.38 30.9-4.794-13.149 6.304-29.264 11.651-40.314 18.872 6.015 1.047 16.76.783 19.847 2.804-22.371 2.916-15.586 9.753 1.956 14.867 9.384 4.193-11.278.573-15.793.963-22.336-2.317 19.052 12.994 23.315 17.36 21.858 10.394 25.922 15.206 1.804 5.84-11.72-3.74-23.286-8.077-35.113-11.411 7.171 9.693 49.115 39.95 37.105 35.61-9.793-4.404-45.01-31.954-43.616-24.045 14.315 18.201 28.986 36.147 43.082 54.512-18.474-15.562-35.565-33.746-54.138-49.445 4.641 16.402 12.116 32.107 17.413 48.345-10.34-12.683-19.733-26.268-29.441-39.483.982 22.377 6.203 45.722 8.529 68.478-7.954-18.35-12.013-41.475-20.251-57.848-1.578 6.248-1.751 18.16-4.647 20.832-1.214-26.304-36.23-7.234-41.589-31.996-10.481-8.081-21.63 5.132-32.735 6.016l.79-1.13z" style="fill:#dd65ae;fill-opacity:1;fill-rule:evenodd;stroke:none" transform="translate(-120.134 -16.263)"/><path d="M355.77 1035.76c7.29-9.553 8.862-33.212 2.912-43.806-5.295-9.427-10.616-30.233-10.015-39.159.292-4.337-.878-8.57-3.024-10.943-2.82-3.114-3.501-7.999-3.501-25.068 0-17.625.895-23.672 5.307-35.857 5.193-14.34 5.633-27.012 1.148-33.078-.879-1.188-2.835-6.085-4.347-10.882-2.386-7.568-2.3-10.117.658-19.275 1.875-5.804 3.408-12.47 3.408-14.812 0-2.343 2.023-8.438 4.496-13.545 5.587-11.543 7.04-27.516 3.937-43.29-1.524-7.746-1.694-13.818-.473-16.933 5.45-13.914 7.476-25.086 7.471-41.202v-17.82l6.18-1.814c5.884-1.728 6.972-.976 22.647 15.64 9.056 9.601 13.582 15.454 10.058 13.007s-6.997-3.86-7.718-3.138c-2.784 2.784-1.09 13.354 3.964 24.75 4.418 9.963 5.063 13.735 3.972 23.231-1.574 13.696 2.724 28.176 11.755 39.604 6.988 8.841 10.11 9.498 15.85 3.337 4.945-5.308 7.866-24.92 4.887-32.812l-2.063-5.467 8.462 4.84c4.654 2.661 11.329 4.85 14.831 4.864 3.798.015 8.784 2.101 12.35 5.167 3.683 3.168 8.512 5.144 12.572 5.146 13.282.004 27.369-9.457 27.369-18.382 0-2.925 2.316-9.667 5.146-14.983 7.348-13.804 6.603-21.416-4.562-46.61-19.246-43.428-28.29-52.64-71.96-73.295-15.227-7.202-17.141-8.77-20.067-16.431-1.78-4.658-3.235-10.972-3.235-14.03v-5.561l6.69 4.078c3.679 2.243 8.172 4.082 9.984 4.086 1.813.004 7.774 2.39 13.248 5.3 9.016 4.794 12.58 5.358 37.869 5.99 17.521.437 30.982 1.807 36.149 3.677 13.133 4.753 26.549 6.098 32.73 3.282 3.18-1.45 5.065-3.657 4.462-5.23-.574-1.496-.147-2.72.95-2.72 3.515 0 10.17-8.042 9.057-10.944-.592-1.542.26-3.913 1.892-5.268 1.633-1.355 2.493-4.281 1.912-6.504-.584-2.234-.029-4.04 1.241-4.04 4.285 0 2.326-5.403-5.112-14.092-7.673-8.965-16.546-14.724-22.684-14.724-1.948 0-5.198-1.499-7.223-3.33-8.097-7.329-18.815 3.89-18.42 19.282.067 2.547-.694 4.63-1.689 4.63-2.264 0-26.013-17.384-27.883-20.41-.758-1.226-3.275-2.23-5.593-2.23-3.242 0-3.852-.831-2.641-3.602.866-1.98 1.798-8.074 2.073-13.541.325-6.475 1.915-11.497 4.563-14.408 6.877-7.559 8.696-12.972 8.696-25.885 0-16.821-6.954-32.067-20.963-45.962-6.008-5.958-12.46-14.212-14.34-18.342-1.878-4.13-8.344-12.466-14.369-18.524-10.05-10.106-10.957-11.802-11-20.575-.03-6.527 1.185-10.92 3.834-13.847 3.409-3.767 3.76-6.75 2.9-24.617-1.626-33.765-11.437-47.669-34.83-49.36-9.195-.666-13.917.14-21.04 3.588-10.883 5.268-14.67 12.047-18.043 32.3-2.906 17.443-3.112 24.799-.909 32.389 1.621 5.582 1.479 5.759-2.797 3.47-2.478-1.326-6.173-5.152-8.21-8.503s-7.15-8.66-11.362-11.8c-7.01-5.227-7.707-6.66-8.237-16.933-.815-15.773-4.86-27.472-12.642-36.564l-6.69-7.816 8.432-15.323 8.432-15.323.319-25.728c.452-36.451 5.027-55.572 13.299-55.572 7.61 0 14.455-4.845 17.911-12.678 1.918-4.347 4.38-7.904 5.47-7.904 3.517 0 15.75-10.407 15.75-13.4 0-1.594-2.255-5.02-5.011-7.613-2.999-2.821-5.272-7.58-5.66-11.849-.597-6.553-1.862-7.777-15.53-15.017-11.24-5.955-15.775-7.403-18.545-5.92-2.016 1.079-6.074 1.501-9.016.939-4.247-.812-5.596-.08-6.545 3.546-.806 3.084-2.237 4.168-4.404 3.336-4.89-1.876-8.877.45-10.268 5.992-.69 2.748-2.593 4.997-4.23 4.997-4.406 0-6.302 5.05-10.237 27.27-1.955 11.038-4.27 20.069-5.143 20.069s-2.145 4.067-2.827 9.037c-.819 5.975-5.715 16.421-14.448 30.822-7.266 11.981-13.76 24.817-14.434 28.525s-.22 12.76 1.009 20.119c1.228 7.358 2.096 15.462 1.929 18.009-.498 7.578-.459 21.562.086 30.358.28 4.529-.675 12.864-2.124 18.524-1.448 5.66-3.092 18.91-3.654 29.444-1.076 20.184.75 28.47 8.08 36.69 3.681 4.127 3.72 4.85.646 12.205-11.046 26.438-12.71 82.582-3.105 104.842 1.528 3.541 4.211 10.296 12.265 30.873 5.568 14.225 6.658 22.237 5.364 39.434-2.506 33.311-5.263 85.668-6.593 125.223l-1.315 39.106 6.492 13.378c3.57 7.359 8.272 16.62 10.447 20.583 5.355 9.756 5.108 15.031-1.168 24.974-11.23 17.79-13.57 32.182-8.155 50.174 1.646 5.468 2.553 10.652 2.016 11.52-1.033 1.672 9.535 28.123 18.823 47.115 12.057 24.652 19.52 44.238 19.538 51.272.05 20.85 3.65 65.711 5.554 69.227 6.686 12.346 25.542 21.616 30.569 15.03zm60.638-470.73c1.448-.483 4.909-3.292 7.692-6.243l5.06-5.364-2.671 5.145c-1.47 2.83-4.377 6.356-6.462 7.835s-3.916 4.258-4.07 6.175-.708 1.2-1.23-1.593c-.567-3.024.113-5.433 1.68-5.956m15.016-19.747c1.867-2.85 5.929-6.716 9.026-8.592s8.178-5.159 11.292-7.294c3.113-2.136 5.66-2.997 5.66-1.913 0 2.599-10.125 10.502-13.454 10.502-1.434 0-5.245 3.098-8.47 6.884-6.701 7.869-9.1 8.113-4.054.413" style="fill:#000;fill-opacity:1;fill-rule:evenodd;stroke:none" transform="translate(-120.134 -16.263)"/><path d="M466.068 515.407c.73.075.71 3.068-.154 3.973-1.488 2.474-2.272 5.275-3.202 7.986-.993 3.732-5.253 5.54-5.633 9.529-.758 4.25 4.372 3.173 5.98 5.478-1.434 3.332-6.552 2.885-9.452 4.784-2.858 2.64 2.547 1.968 4.09 1.62 3.012 1.414-1.912 4.292-3.241 5.517-1.963 2.955-5.906 2.339-8.719 3.82-2.513 1.283-2.154 4.51-1.89 6.866.202 2.396 1.824 4.307 3.048 6.134-.428.859 4.09 3.053 5.285 5.131 3.95 6.582 11.615 9.717 18.98 10.416 6.259-.378 12.967 1.853 18.904-.887 3.64.012 7.279.015 10.918 0 3.877-.726 8.493 1.386 11.728-.964 2.98-5.578-4.07-6.625-7.986-6.906-5.384-.75-10.533-2.593-15.856-3.704-.137-1.787 6.495-.426 9.028.155 5.485.184 11.014.77 16.511.27 5.479 1.04 4.772-5.26 7.793-7.33 4.952.68 10.52-.63 13.773-4.668 4.06-4.176 1.549-9.765 1.003-14.66-.273-1.858.581-3.083 1.659-3.588.717-.336 3.13-2.802 3.78-2.507.435.196-.823 2.984-.617 3.472.26.615.273 1.454-.115 2.546-1.971 3.478 1.845 5.188 3.896 3.703 1.224-1.442 1.45-3.79 3.202-5.053.303.125.157 2.143.27 2.661.368 1.694.058 4.91 1.119 5.903 3.673 4.224 10.497 4.034 13.618 8.95-3.13 2.941-6.71-3.066-9.837-4.128-5.417-4.134-13.066 1.136-10.995 7.678 2.218 4.795 9.142 5.08 13.772 6.944 3.732.481 3.023 3.515-.386 3.24-4.987-.927-11.032.193-13.888-5.17-3.477-6.609-11.875-.347-7.06 4.977 4.41 3.494 10.51 4.498 14.969 8.102 4.142 1.646 1.469 4.615-1.813 3.55-6.033-.27-9.18-6.339-14.583-7.987-6.421 1.423-.198 9.258.424 13.233-1.654 2.267-4.196-1.438-5.092-2.74-1.031-5.029-6.96-11.246-12.114-7.252v6.134c-5.931-.032-11.853.044-17.785 0-5.051.555-10.113 1.354-15.315 1.62-1.714 1.25-3.855.56-5.826.733-5.513.863-11.106 2.037-16.704 1.042-4.466-.025-9.35-.916-12.461-4.064-.74-.75-2.43-1.626-2.94-2.649-1.885-.495-2.81-3.13-6.358-4.05-3.677.346-7.446-.08-10.879-1.544-3.136-1.588-6.905-2.567-9.259-5.246-1.718-3.302-1.96-7.414-.887-10.957 1.974-4.791 9.013-3.989 10.956-8.834.708-4.333 4.31-7.339 5.633-11.42 2.72-1.902 2.04-5.552 2.893-8.525-.839-4.128 4.38-4.916 7.021-2.624 3.031.942 5.659-1.371 8.102-2.777 2.838-1.274 6.233-2.264 7.214-5.672.604-3.465 2.755-6.235 4.514-9.181.411-.81.72-1.106.964-1.08" style="fill:#b3026e;fill-opacity:1;fill-rule:evenodd;stroke:none" transform="translate(-120.134 -16.263)"/><path d="M410.584 361.141c.002-.247.072-.871.157-1.386l.155-.936-1.557-.18-1.557-.182-.174-1.391-.174-1.392H391.32l-.08.708c-.065.555-.234.725-.79.789-.674.077-.707.145-.707 1.479v1.398h1.544c1.452 0 1.543-.036 1.543-.61 0-.504.167-.637.965-.769 1.26-.208 6.055-.206 8.748.003 1.981.155 2.122.204 2.122.745 0 .518.167.6 1.544.76 1.408.163 1.543.233 1.543.796 0 .578.093.618 1.415.618 1.176 0 1.416-.076 1.418-.45zM412.125 353.359c0-.686-.086-.772-.772-.772s-.772-.086-.772-.772-.085-.772-.772-.772c-.642 0-.772-.103-.772-.613 0-.551-.145-.632-1.415-.79-1.25-.157-1.415-.246-1.415-.765v-.588l-5.724-.122c-7.235-.156-7.911-.096-7.911.7 0 .531-.157.617-1.415.774-1.27.159-1.416.24-1.416.79 0 .51-.13.614-.771.614-.686 0-.772.086-.772.772 0 .772 0 .772 1.543.772 1.45 0 1.544-.037 1.544-.605 0-.573.113-.614 2.123-.77 1.167-.091 4.525-.166 7.46-.167l5.34-.002v.772c0 .771 0 .771 1.543.771 1.544 0 1.544 0 1.544.772 0 .764.015.772 1.415.772s1.415-.007 1.415-.772zM379.193 353.359v-5.146h-.772c-.686 0-.771-.086-.771-.772 0-.651-.1-.771-.644-.771-.608 0-.643.077-.643 1.415 0 1.316.042 1.415.608 1.415.529 0 .63.156.772 1.193.09.657.164 2.683.164 4.503v3.308h1.286zM422.673 357.99c0-2.273.015-2.316.618-2.316.564 0 .633-.135.797-1.543.16-1.382.24-1.544.764-1.544.51 0 .607-.17.76-1.324.195-1.47 0-1.85-.916-1.72-.445.062-.63.274-.69.793-.064.555-.215.707-.707.707-.594 0-.626.08-.626 1.544 0 1.544 0 1.544-.772 1.544h-.772v6.174h1.544z" style="fill:#000;fill-opacity:1;fill-rule:evenodd;stroke:none" transform="translate(-120.134 -16.263)"/><path d="M411.688 577.094c-3.457 5.321-4.737 12.128-3.282 17.968-1.554 6.075.942 15.178 6.969 17.563 10.955 6.043 22.642 10.534 33.188 17.344 7.113 4.185 13.624 8.61 19.656 14.187 6.39 6.15 12.595 12.575 17.219 20.25 5.826 6.957 7.398 16.291 12.593 23.688 5.459 7.919 9.369 17.368 8.313 27.187 1.48 4.183-.577 16.39-4.188 7.25-5.044-3.168.15 7.965-1.219 10.938.456 7.314 2.063 19.511-8.875 17.75-7.651 2.095-15.054 11.802-21.656 2.656-4.925-3.647-8.3-9.882-14.187-11.844 1.411 3.792.817 7.426-4.344 5.469-6.689.928-12.566-2.8-18.156-5.812-.109.637-.545 2.849-.04 4.414 1.632 1.208 3.206 1.858 4.659 2.734 8.47 5.106 14.063 4.66 19.068 4.508 6.187.566 11.538 5.072 15.813 9.375 5.882 3.853 13.891.068 20.031-2.063 5.095-3.242 12.56-5.712 12.563-13-1.162-9.066 5.196-15.021 8.468-22.656 2.227-9.307 1.385-19.393-2.843-28.031-3.647-8.177-8.549-15.768-11.625-24.25-3.415-7.162-6.378-14.628-11.5-20.782-4.393-6.176-9.598-11.98-15.688-16.5-8.082-5.94-17.542-10.332-25.656-15.656-6.075-1.726-11.806-4.862-17.125-8.062-5.55-2.053-11.8-4.645-12.75-11.375-1.65-4.049-1.664-16.507-6.844-7.625-.858-2.24 9.829-15.072 1.438-15.625M318.965 926.49c-7.345-21.765-19.74-41.424-27.483-62.95-4.542-19.963-6.409-42.722 4.887-60.777 5.247.35 6.515 14.387 7.878 1.62.14-19.084-6.375-37.011-13.553-54.39-7.233-16.318-7.597-34.142-8.289-51.619-1.177-16.548.534-33.092 2.84-49.434 4.333-19.677 3.461-40.041 7.966-59.743 5.386-17.016-5.851-33.683-2.662-50.835 2.11-8.527-.194-13.2-7.828-9.858-5.662-13.877-9.88-28.234-17.47-41.462-10.166-6.47-.544 16.095 1.532 20.795 7.939 17.285 12.947 36.614 18.374 54.217 3.326 5.64 1.628 12.404-2.595 3.264-.18 11.91-3.273 22.189-3.91 34.615a1629 1629 0 0 1-5.198 93.105c-.814 22.072-2.385 46.337 11.371 65.097 12.04 14.274 11.595 31.73-1.015 45.401-9.828 16.581-3.554 36.464-.182 53.906 4.044 19.373 15.708 36.153 22.7 54.54 4.815 4.28 2.868 17.746 12.637 14.508M406.356 582.033c3.705-4.161 5.69-9.443 8.293-14.189 5.743-2.503 11.306-6.367 13.42-12.621 2.433-4.753 4.841-9.928 8.433-14.092 3.53-6.091 11.505-3.278 16.002-7.886 7.002-6.604 9.834-16.388 12.312-25.409 2.539-10.597 3.164-22.027-1.242-32.241-.73 7.038-.54 14.572-1.91 21.498-.61 5.092-1.956 10.133-3.318 15.056-2.834 5.822-5.233 12.552-10.645 16.374-5.307 2.56-11.235 1.82-16.556-.158-5.749-1.772-11.203-6.71-16.99-6.639.492 5.405 5.926 9.43 10.605 11.544 8.279 4.738-3.26 12.484-4.104 18.889-1.53 6.649-7.975 8.486-12.379 12.396-1.213 6.037-4.105 12.037-4.012 18.296.599.85 1.768-.298 2.09-.818m15.005-28.047c1.278-2.84.995 2.665 0 0" style="fill:#b3026e;fill-opacity:1;fill-rule:evenodd;stroke:none" transform="translate(-120.134 -16.263)"/><path d="M263.474 457.698c5.723-13.312.349-25.296 3.664-38.57 1.19-14.844 20.481-28.012 7.473-42.68-6.812-7.78-8.254-19.816-7.568-30.424.117-15.661 5.706-30.795 3.254-46.543 1.365-8.309-9.625-21.81-2.304-24.547 7.55 16.512 1.795-10.056 1.468-15.755-.498-9.817-9.697-14.818-2.51-25.037 3.063-9.627 7.767-16.152 12.268-24.622 6.793-11.376 13.811-25.326 14.233-39.39 6.1-11.335 6.986-24.812 8.874-36.208-2.567-13.767 12.31-14.117 14.996-24.654 10.613 1.657 13.43-9.577 22.123-3.136 4.823 1.16 7.178-5.773 13.319.038 12.14 1.764 21.293 11.704 13.064 22.598 6.032-5.973 20.424 9.056 8.965 11.364-5.825 5.06-13.735 2.67-20.11.164 10.719 8.526 2.978 21.404-9.172 22.37-12.494.595-14.118 15.224-16.403 24.82-2.501 12.234-4.746 24.428-4.411 37.194-2.372 12.526 1.09 23.18-4.29 35.304-.302 10.442-20.681 21.318-7.146 28.615 9.037 10.937 13.972 24.758 15.295 38.953 1.712 6.174.523 30.6 5.24 15.714 12.505 5.261 20.18 18.844 23.95 31.492 2.013 6.762 3.034 16.346 3.954 21.816 3.533-7.406-3.703-29.366 7.59-15.872 6.966 8.841 13.252 18.06 20.07 26.788.531-6.629-7.041-13.983-10.142-21.35-8.743-6.98-10.872-17.636-10.762-26.623-2.426 17.116-15.928-8.958-22.37-13.263-14.003-5.117-13.818-17.39-13.235-30.457 1.138-14.27-9.824-24.017-17.414-34.196 5.415-9.647 9.521-20.72 15.452-29.193 3.777-19.869.069-40.471 3.024-60.444 3.054-12.299 5.265-27.081 21.569-25.52 11.161-5.132 8.213-20.654 22.306-22.946 13.534-6.86-.038-15.91-3.716-21.894 5.711-12.961-10.784-16.364-19.406-21.105-8.632-9.055-16.602-.423-26.577-2.243-2.402 10.854-19.204 2.022-17.177 16.21-8.753.659-10.625 6.054-10.726 13.995-3.09 13.46-3.304 27.724-11.057 39.381.056 13.762-8.504 24.76-15.546 35.54-6.623 9.607-11.67 20.31-14.016 31.834-2.464 14.376 10.015 27.857 2.293 41.185-5.19 11.276 9.217 23.072.813 35.584-4.16 16.25-7.057 32.99-6.29 49.884-.534 12.945 16.963 21.668 9.61 33.896-6.042 18.601-9.726 37.978-9.58 57.623.105 2.079.004 5.022-.068 8.266-.239 10.757 1.989 36.79 10.95 33.652-.642-2.908-1.335-8.04-1.936-13.5-.8-7.278-1.438-15.138-1.571-19.076a79 79 0 0 0-.314-5.032" style="fill:#b3026e;fill-opacity:1;fill-rule:evenodd;stroke:none" transform="translate(-120.134 -16.263)"/><path d="M483.622 509.079c8.483-5.305 11.728-16.372 11.47-25.89-.555-8.917-2.098-18.107-6.92-25.924-4.592-8.88-9.374-17.99-17.82-23.772-10.95-4.25-10.385-17.72-18.252-25.297-4.735-7.134-11.626-12.902-18.594-17.32-.074-7.327-1.576-15.324 1.107-22.366 6.817-5.713 6.457-15.416 5.418-23.441-2.175-11.697.596-24.381-5.67-35.211-4.221-10.258-14.745-16.51-25.228-18.654-8.846-.133-19.072-.733-25.864 6.003-11.223 5.811-14.661 19.464-14.454 31.257 1.116 8.862-7.636 16.578-3.61 25.443 6.12 10.881 1.904-10.331 3.845-14.149 2.549-9.247 1.453-19.195 6.114-27.868 4.074-11.288 17.57-15.546 28.638-14.651 8.55-.518 17.362 2.966 23.474 8.95 6.572 8.398 9.193 19.081 8.928 29.604 1.96 9.227-.274 18.37-2.493 27.375-2.712 7.956-4.436 16.308-3.625 24.989-.108 6.18.45 20.248-.759 21.408-.807-11.014-.81 6.643-.634 9.905-.102 4.12.53 9.645 1.449 2.628 2.877-6.976-1.698-19.654 5.275-23.285 5.14 4.534 10.833 8.716 14.362 14.912 4.057 4.714 9.085 14.414-1.149 13.475-5.153 3.154 8.968.629 10.803 4.647 7.696 4.868 14.044 11.744 18.837 19.484 4.711 6.928 8.08 14.69 10.223 22.885 2.082 10.982 1.497 23.334-5.424 32.584-.464.535-.953 2.563.553 2.279" style="fill:#b3026e;fill-opacity:1;fill-rule:evenodd;stroke:none" transform="translate(-120.134 -16.263)"/><path d="M424.449 375.441c2.8-2.288 3.59-6.231 4.113-9.607-.09-3.784-.31-7.797 1.652-11.205 1.447-3.327 2.758-6.864 2.735-10.534-.665-3.396-4.568-3.976-7.218-5.14-3.28-1.468-6.878-2.349-10.46-2.501-3.61.483-7.147-.748-9.785-3.12-1.052-1.985-5.13-4.712-5.328-.917.444 1.888-.354 4.141-2.672 3.357-2.901.772-1.99 5.985 1.245 4.354 2.726.3 6.335-.033 8.47 1.232.425 3.36-4.225 3.695-6.456 4.807-2.579-1.13-5.083-2.868-8.05-2.626-3.245.526-3.696 4.29-5.813 6.229-2.708 1.456-.192-3.076.234-4.142.67-3.487 5.21-4.83 4.827-8.517-2.608-1.384-6.457-.76-9.422-.058-3.156.976-6.45 1.412-9.613 2.648-2.987 2.266.918 6.344 1.061 9.304.622 3.346.983 6.805.048 10.113-.165 2.755 1.16 5.435.606 8.19 1.86 3.525 4 7.403 7.763 9.157 2.99.993 5.65-1.444 8.603-1.402 3.112-1.21 6.308-2.074 9.641-1.684 3.163.491 5.964 2.105 9.172 2.317 3.24 1.699 6.716 2.667 10.403 2.38 1.861.007 3.228-1.213 4.243-2.635zm-4.631-15.325c1.22-3.474 1.222-7.51 3.803-10.384 1.59-2.22 3.085.473 1.621 2.014-1.138 2.777-2.567 5.58-2.519 8.658-.52 1.524-3.276 1.859-2.905-.288m-13.379.687c-1.792-1.114-4.486-.448-5.748-2.088-3.509-.876-6.74.725-9.908 1.567-3.651-.442-.766-3.64.954-4.63 2.806-1.853 5.975-.028 8.945-.153 2.892-.172 6.317-.387 8.421 2.015 1.677.676 4.019 2.6 1.092 3.632-1.149.701-2.82.743-3.756-.343m-28.815-6.09c1.232-2.54-3.125-5.662-.385-7.603 3.145 1.908 1.347 6.01 2.15 8.903.21 1.804-2.211 2.967-1.751.349-.015-.55.015-1.1-.015-1.65zm2.058-.515c-.864-1.598 1.396-3.41 1.101-.824.802 1.533-1.544 4.431-1.092 1.163v-.339zm30.267 0c-3.197-2.614-7.478-3.08-11.456-2.846-2.774-.103-5.418.182-7.662 1.424-2.188.186-2.942-2.334-.692-2.914 3.044-2.674 7.337-1.53 11.007-1.762 3.458-.248 6.802.984 9.38 3.194.946 1.334 1.657 3.176 2.732 3.983-1.012.292-2.968.118-3.309-1.079m16.043-3.859c1.221-2.072 1.032 1.934 0 0M545.182 602.655c5.165-.4 7.171-6.207 8.216-9.32 6.509-.06 10.221-7.32 8.695-12.893 6.235-.846 3.518-8.118 4.374-11.117 4.522-2.253 2.444-7.727-.492-10.337-4.901-5.062-10.186-9.85-16.02-13.895-3.433-2.522-7.647-2.84-11.544-2.005-4.276-1.3-6.364-7.351-11.481-6.318-4.108.93-6.568 4.641-6.917 8.532.373 4.122-3.653 7.566-2.772 11.132 1.58 3.292-1.086 7.35-4.526 4.277-7.176-2.832-13.949-6.904-19.142-12.525-2.248-1.156-7.061-8.192-7.835-4.054 5.798 4.89 9.727 11.556 15.906 16.06 4.379 4.271 11.212 3.709 16.278 6.737.798 3.644 11.18-.218 4.783-.309-2.79-2.701-.91-8.776-.164-12.671 1.522-4.178 1.03-8.693 1.47-12.859 3.204-3.422 10.577-.215 9.786 4.496 2.328 3.926 7.338.961 10.918 1.159 4.142-.04 6.357 3.961 9.717 5.744 4.226 3.418 7.96 7.541 10.62 12.192-1.044 3.026-8.313 4.122-3.066 7.829 2.666 4.769-6.57 5.429-5.142 9.962 3.513 3.368-.6 7.107-4.267 7.711-4.177.677-5.065 4.53-3.298 7.64-1.557 5.383-8.686 3.225-12.697 1.992-4.921-1.406-10.026-2.88-15.215-2.259-4.998-2.674-9.69-7.808-15.983-6.411-11.445.879-22.949 1.516-34.407 2.43-1.596.872-7.571.962-2.617 1 11.41.25 22.873-.42 34.246.573 6.395 1.195 13.242 1.097 18.996 4.45 5.48.822 10.999 1.008 16.116 3.286 2.468.437 5.025.315 7.464-.23m-37.734-11.047c1.78-.914.401.98 0 0M459.785 551.645c5.46-3.023 11.674-5.103 16.013-9.793 2.793-2.93 3.811-6.972 4.859-10.76 1.15-4.573 1.564-9.372.842-14.049.303-1.86-.332-4.19-2.168-5.008-1.741-.383-2.225 2.02-2.107 3.3 1.115 5.17 1.973 10.74.038 15.832-1.564 7.082-6.541 13.545-13.462 16.052-1.733.954-3.584 1.913-4.842 3.48-.487.654.297.946.828.946zM353.653 1039.068c3.437-2.305 3.943-6.563 5.615-9.878.688-4.078 2.011-7.764 2.769-11.776 1.433-4.359 1.448-9.129.369-13.554-.312-5.239-5.205-8.244-5.877-13.383-1.549-3.676-3.93-7.108-4.627-11.193-2.084-6.12-3.28-12.555-2.877-19.035.032-4.205.096-8.425-.374-12.612-2.195-2.847-5.494-5.023-5.816-8.934-1.73-3.861-.844-8.05-1.017-12.116l-5.917.308c-.123 5.088.694 10.101 1.426 15.067-.289 4.802 5.089 6.376 5.698 10.684 1.392 5.581-.971 11.562 1.09 17.005 1.316 3.481.149 8.115 2.252 11.515.097 5.18 2.323 10.04 4.125 14.811 2.234 4.557 5.362 9.086 4.697 14.435-.46 5.363 1.05 11.125-1.325 16.17.386 3.976-2.497 10.958-7.496 7.987-3.763-2.524-7.405-5.276-10.961-8.084-3.156-3.402-4.915-8.133-5.213-12.667.123-4.731-2.418-9.12-1.82-13.925-.551-12.763-1.22-25.578-2.951-38.227-2.177-3.65-1.665-7.652.144-10.908-.638-4.513-1.643-9.024-3.12-13.313-.95-3.744-2.164-7.407-3.401-11.064-4.352-.762-6.954 1.77-3.51 5.142.826 3.906 3.212 7.097 4.204 10.97 1.387 3.848 3.315 7.962 1.024 11.922-3.235 4.475.451 8.166 2.691 11.816.834 15.329-.154 30.712.72 46.048 2.168 3.398.252 8.08 3.443 11.125 1.345 2.898 3.442 3.89 4.816 6.83 3.239 1.304 5.167 5.028 8.68 6.175 4.137 1.283 8.217 5.157 12.54 2.659zM353.328 603.436c-1.896-5.64-6.242-10.231-7.486-16.117-.6-3.083.568-7.068 3.961-7.897 3.721-3.348-3.532-5.512-5.208-7.743-2.102-3.547-4.701-7.271-4.734-11.547-.045-4.828 5.34-6.397 8.294-9.224 3.214-2.178 6.207-4.663 9.786-6.257 3.758-2.426 8.483-2.275 12.728-3.056 4.264-1.833-.177-5.896-3.262-5.17-6.858-.766-13.546 1.753-19.8 4.26-4.465 2.183-8.776 4.66-13.502 6.265-3.234 2.557-7.377 3.505-10.866 5.647-5.424 2.055-11.68 3.864-17.334 1.653-4.826.29-1.413 5.987.186 8.113 3.768 6.457 6.343 13.504 8.355 20.678.68 4.313 4.175 1.283 3.432-1.594.123-4.024-.326-8.17 1.11-12.023.881-3.383 5.14-7.32 8.577-5.133 3.924.635 6.542 4.137 5.839 8.073-.467 5.551-2.772 11.006-1.537 16.638 1.001 4.286 3.13 8.267 5.472 11.956 2.948 3.348 8.069 2.54 12.102 2.984 1.236-.144 2.79.114 3.887-.506M375.806 596.82c-2.22-1.075-1.595-3.783-1.293-5.714.361-3.718.316-7.572 1.64-11.112 1.546-2.974 4.853-4.374 7.942-5.131 1.093-1.123 2.158-2.694 2.298-4.263-.532-1.756-1.354-3.424-2.54-4.826-1.572-1.432-1.124-3.828-.816-5.694 1.117-1.323.677-3.183 1.661-4.62.508-1.226 1.157-4.553-.473-4.737-1.477 1.36-1.64 3.597-3.12 5.009-1.55 2.572-3.142 5.22-3.877 8.149-1.03 1.669-2.278 3.186-3.186 4.934-1.278 1.761-3.121 3.144-3.978 5.18-1.2 1.485-2.138 3.302-2.177 5.352-.02 2.06 1.343 3.887 1.157 5.99.063 3.803.05 7.61.048 11.416 2.883.453 5.761.94 8.631 1.47zM408.44 554.82c1.977-3.4.887-8.924-2.829-10.605-2.84-2.128-6.564-3.115-9.976-1.908-3.068.207-3.085 4.478.268 3.395 3.738-.175 7.94 1.671 8.513 5.764.374 1.431 2.342 5.125 4.024 3.354M384.927 596.488c3.236-1.657 7.008-2.247 9.572-5.04 3.884-1.118 4.042-4.947 4.931-8.11.357-2.899-2.97-8.565-5.27-3.726-1.822 3.018-4.146 6.025-4.234 9.665-.303 3.577-3.949 5.054-6.295 6.26-.207.763.613 2.18 1.296.951M432.711 532.26c-6.89-4.272-15.135-7.87-19.151-15.22-5.23-10.173-2.252-21.91-2.408-32.833.312-4.878.944-21.572-2.215-9.2-.408 7.906-2.193 15.46-4.367 22.999-3.331 8.883-12.278 14.643-21.813 13.516-4.342-.1-11.752.473-3.414 1.883 9.507 2.854 20.707.622 28.433 7.943 7.433 3.882 16.483 13.408 24.935 10.912M344.281 98.438c-3.29 2.97 4.815 7.66 7.031 10.5 6.6 5.812 4.346 15.83.344 22.468-1.494 5.072-6.532 3.886-5.969-1.312-.144-9.471-7.805-16.017-11.562-24.094-2.212-6.012-6.16.286-3.469 3.531 5.404 5.788 12.162 12.209 12.281 20.781 2.227 7.1-9.196 16.6-12.468 7.438.58-6.38-3-11.982-7.125-16.5-3.738-1.782-4.92-12.912-8.594-7.656 1.73 6.14 7.982 9.609 11.25 14.906 3.324 4.845 4.857 13.56-1.656 16.531-9.738 4.62-8.771-8.065-12.688-13.156-2.758-1.846-5.692-9.086-8.75-6.5-.36 5.413 8.185 11.897 1.219 16.719-5.038 5.717-2.436 15.638-8.437 21.219-2.13 6.948-2.898 14.282-5.688 21.03-5.433 10.618-11.595 20.981-15.437 32.345-.277.987-.606 1.989-.938 3l-.062.187a96 96 0 0 0-1.72 5.25c-.026.093-.035.188-.062.281-.36 1.186-.71 2.37-.969 3.563-.007.032-.024.061-.03.093a107 107 0 0 0-1.594 7.625c.233 11.647 7.413 22.335 5.875 34.22 1.583 14.21 4.607 28.682 1.53 42.968-1.413 17.646-3.73 36.346 2.032 53.281 4.967 9.034 17.144 14.246 17.031 25.906-1.005 5.385.949 11.152-2.25 16.094-3.663 7.353-12.21 11.908-15.281 19.219 8.428-3.41 12.625-14.415 22.125-15.375 7.596 1.73 7.683 11.438 8 17.719.864 13.543-3.327 27.103-11.562 37.75-3.614 6.096-10.558 11.157-11.47 18.281 7.41-5.546 12.358-16.593 22.75-17.031 8.282 1.201 10.093 11.324 16.188 15.875 9.925 9.773 22.551 16.667 35.532 21.187-16.8-9.537-31.45-25.123-34.47-44.875-3.015-13.816.287-27.901 2.47-41.5-1.634-15.047-4.095-30.33-5.313-45.219-9.664-.113-12.652-11.223-13.906-18.937-1.826-11.069-5.797-21.518-6.906-32.75.514 18.886 5.928 37.315 7.25 56.062.384 4.261-3.098 10.813-8.094 7.75-9.945-7.083-11.496-20.22-14.719-31.062-4.36-18.513-4.847-38.23-1.531-56.969 2.24-5.988 7.471-10.023 11-15.187-4.337 4.102-14.439 5.114-15.781-2.313-.347-11.086.967-22.342 4.312-32.969.001-.003.03.003.031 0 2.025-.358 3.782-1.658 4.75-4.312 1.618-12.658 2.228-25.447 3.781-38.125 2.087-11.811 3.362-24.106 8.657-35.031 1.47-4.66 5.032-7.758 9.281-8.813a68 68 0 0 1 5.125-.281c.72.096 1.433.228 2.156.438 4.943 1.053 14.555-1.079 13.75-7-4.36 3.483-15.346 5.337-15.25-3.25 2.484-6.517 8.636-5.142 14.438-4.032 1.053.31 2.164.535 3.218.531 1.115.147 2.201.223 3.188.157 4.778-3.888 9.67-8.42 15.812-9.813.577-.13 1.151-.24 1.75-.312 6.112 1.988 8.656-3.17 2.72-6.188-7.81-3.833 9.718-10.884.843-13.469.974-9.002-7.623-14.322-12.219-20.812l-.844-.031z" style="fill:#b3026e;fill-opacity:1;fill-rule:evenodd;stroke:none" transform="translate(-120.134 -16.263)"/><path d="M317.375 599.938c-3.955 1.804-1.915 7.966-4.156 10.125-6.728 2.964-11.928-4.71-17.491-6.603-.846-.287-.106-5.139-2.603-3.023-.974 2.392 1.258 5.396-.562 7.97-3.483 5.99-.514 12.783-.444 19.27.919 6.494 3.552 14.19 11.006 15.542 14.172 3.848 26.79 12.371 37.75 22.031 9.282 9.632 18.151 21.04 18.531 35.063.161 2.33.099 4.67-.031 7 1.272-9.073 4.181-18.334.313-27.157-1.98-4.994.243-11.54 6.062-12.187 5.571-5.147 15.94-3.815 18.125 4.093 4.69 7.084 13.436 11.786 17.094 19.032-.1 1.895-1.906 4.41.812 2.593 3.404.436 4.717 4.561 7.563 6.282 7.864 9.208 9.428 21.73 16.409 31.507 2.242 2.94 2.058 7.744 3.966 10.243 1.45-1.88 6.297 1.493 4.375-1.782-3.863-13.308-4.232-27.83-10.688-40.312-7.059-9.288-19.6-11.855-28.437-19-12.217-7.96-20.08-25.186-12.531-38.844 1.368-3.257 4.257-5.412 7.25-2.937 7.226 5.63 7.434 15.874 12.28 23.187 5.222 9.198 12.954 17.409 21.688 23.188 3.145 1.614 5.042 5.811 8.344 6.75-11.285-10.868-25.32-20.522-29.84-36.42-3.05-10.323-5.028-21.135-6.254-31.768.723-5.207 6.603-7.106 10.969-7.843-3.661-1.633-7.136-4.407-10-6.782-6.159 2.318-9.374 8.083-13.719 12.5-2.824 2.12-6.28 3.136-9.625 4.094 4.866.178 9.75 4.859 7.219 9.844-3.426 8.014-4.171 20.29-14.25 23-10.472 1.397-19.492-6.094-28.812-9.594-8.838-5.251-23.108-5.001-27.313-16.094-2.887-8.546 5.177-20.774 14.781-16.656 2.44 1.702-.643-2.654-.03-4.031-.266-3.92 1.284-11.23-4.72-11.032-.861-.603-1.941-1.452-3.03-1.25M357 718.688c-1.867 1.933-2.102 4.955-1.969 7.562.636-2.231 1.957-6.034 1.969-7.562M292.375 658.25c-4.873 12.931-7.881 26.768-9.969 40.375-.515 16.456.176 33.517 7.469 48.5 3.73 13.449 12.067 25.769 11.813 40.156 1.65 10.204 4.757 22.159-1.688 31.25-.54 14.736 9.156 30.22 1.625 44.375-5.071 13.67 4.042 27.095 9.324 39.252 9.09 22.926 15.948 47.144 16.988 71.936 3.314 13.4.905 27.7 3.813 40.968 1.736 5.212 5.934 13.003 12.563 11.25 7.481-5.601 3.12-16.466.688-23.72-2.434-5.738-4.01-11.79-4.376-18.03-3.59 1.965-5.126-6.048-.344-4.937.05-10.127-1.776-19.878-5.625-29.156-4.487-16.601-4.598-34.084-4.562-51.188 1.563-14.83 6.465-30.579-.563-44.812-3.503-8.735-6.315-19.395-.47-27.852 1.758-3.831 3.857-8.578 1.533-12.617-8.074 4.55-22.312 1.912-23.594-8.625 1.797-9.49 5.577-19.123 4.375-29.156-.363-7.477-4.107-14.242-9.469-19.282-6.068-10.138-3.832-22.546-2.531-33.656 6.833 4.71 7.168 14.567 12.813 19.782 3.587 2.563 5.691-2.568 4.437-5.532-1.78-9.024-8.174-16.316-11-25-9.386-17.59-9.92-38.128-11.719-57.625z" style="fill:#b3026e;fill-opacity:1;fill-rule:evenodd;stroke:none" transform="translate(-120.134 -16.263)"/><path d="M451.124 736.68c0-.461-.284-.965-.632-1.12-.347-.154-2.051-3.016-3.788-6.36-2.304-4.44-3.157-7.123-3.157-9.94 0-4.939-1.7-15.726-2.644-16.77-.398-.439-.74-1.576-.759-2.525s-1.156-2.655-2.525-3.79c-1.437-1.192-2.49-2.884-2.49-4 0-1.063-.343-1.933-.763-1.933s-.566.754-.325 1.675c.311 1.19-.097 1.874-1.41 2.36-1.84.68-1.838.688.325 1.674 1.195.544 2.173 1.57 2.173 2.278 0 .709 1.137 2.478 2.526 3.931 1.94 2.032 2.535 3.442 2.567 6.096.25 20.726.97 25.75 3.917 27.294 2.526 1.325 6.985 2.046 6.985 1.13M417.114 436.052c2.928-4.223-3.302-9.138.247-13.643-.15-4.515 5.21-10.66 1.971-13.91-3.675 2.746-3.416 8.716-5.793 12.634-.53 5.056-3.478 8.399-7.55 10.966-.488 4.227 6.16 4.979 9.376 4.509a7.7 7.7 0 0 0 1.749-.556M408.275 411.428c-.57-2.781-3.046-4.779-3.226-7.745-.661-2.967-1.301-6.725-4.597-7.83-3.404-1.26-1.685 4.128-.951 5.712.696 2.512 1.654 4.898 2.421 7.405.892 2.252 3.066 5.026 5.806 3.94.457-.34.547-.954.547-1.482" style="fill:#b3026e;fill-opacity:1;fill-rule:evenodd;stroke:none" transform="translate(-120.134 -16.263)"/><path d="M407.433 435.286c-3.423-1.954-.778-5.321 2.136-5.333 1.896-3.034-3.975 2.251-5.301-.7-3.286-2.967-3.68-7.814-6.292-11.265-2.387-2.732-6.033 2.577-7.859-1.926-3.23-3.246-5.853-6.49-8.014-10.356-1.991-4.459-3.95-8.908-6.615-13.02-1.316-2.099-.793-4.64-3.79-4.834-2.017-3.512-1.023 3.255-.369 4.23.663 3.25 4.973 7.893 1.693 10.265-3.18-2.013-1.477-6.978-4.43-9.06-.395 4.73 2.635 9.45 4.826 13.63 3.07 2.58 6.894 4.136 9.963 6.81 3.453 3.014 7.706 4.998 10.015 9.169 3.648 3.22 8.034 5.661 11.014 9.571.899.905 1.264 3.555 3.023 2.819M353.345 411.85c2.754-3.293 4.488-7.085 5.57-11.018 2.385-4.16-.514-8.562-.557-12.88-.313-4.618-1.576-9.072-1.653-13.718-.059-2.036-1.9-6.466-1.79-1.907-.309 8.757.155 17.616-1.568 26.252.373 4.607-3.631 9.735-1.289 13.87.503.652 1.502.29 1.287-.6M341.606 924.206c-2.784-15.265.713-31.05 7.003-45.018 1.604-8.527 5.184-18.598-.057-26.505-1.19-10.909-12.81-22.524-3.816-32.273 4.587-8.553.665-19.209 6.926-26.867 5.907-11.553 7.627-25.334 5.331-38.08-1.96-11.627-3.18-23.615 2.56-34.404 2.904-8.912 4.294-18.23 4.913-27.532 1.45-9.602-7.077-23.923 7.595-24.897 10.361-4.451 12.923 12.944 21.597 16.577 8.355 6.144 18.822 22.193 22.153 25.362-6.325-18.7-24.656-29.869-32.651-47.588-.554-4.636-3.014-17.728-5.809-7.056-1.89 10.332-13.393 9.986-18.648 15.743 4.689 13.97 1.66 29.25-2.095 43.159-6.474 11.596-8.832-9.72-12.763-12.9-1.054 7.645 2.595 17.039 3.388 25.227 2.248 8.532 1.935 17.46 3.794 26.043-.034 11.958-2.263 23.898-5.888 35.26-4.999 6.51-6.042 13.267-4.08 20.686.325 10.04-14.643 15.985-8.537 24.593 4.696 9.504 7.884 19.724 10.287 30.039-.015 10.795-2.946 21.708-6.424 31.953-2.03 9.745-3.963 22.013.046 30.851 2.264.286 6.571 1.607 5.174-2.373z" style="fill:#b3026e;fill-opacity:1;fill-rule:evenodd;stroke:none" transform="translate(-120.134 -16.263)"/><g style="font-size:72px;font-style:normal;font-variant:normal;font-weight:700;font-stretch:normal;line-height:125%;letter-spacing:0;word-spacing:0;fill:#000;fill-opacity:1;stroke:none;font-family:Aharoni;-inkscape-font-specification:Aharoni Bold"><path d="m2269.731-20.927-.09 13.746 3.55.024.09-13.746 9.422.062-.09 13.745 3.903.026.09-13.746 9.949.066-.176 26.718-36.773-.242.176-26.718zm33.424 33.76.265-40.359-50.413-.33-.265 40.358z" style="font-weight:400;font-family:Thunder Lord;-inkscape-font-specification:Thunder Lord" transform="rotate(-12.722 3029.034 15234.66)scale(1.49735)"/><path d="m2262.509-42.325 2.938-12.888 24.234 5.525 3.04-13.333 11.62 2.65-5.98 26.22zm25.078-28.862-3.04 13.334-24.234-5.526-5.97 26.188 49.152 11.207 9.011-39.521z" style="font-weight:400;font-family:Thunder Lord;-inkscape-font-specification:Thunder Lord" transform="rotate(-12.722 3029.034 15234.66)scale(1.49735)"/><path d="m2275.802-89.277 5.79-11.883 22.344 10.887 5.99-12.294 10.714 5.22-11.78 24.178zm30.98-22.408-5.99 12.294-22.343-10.888-11.766 24.145 45.32 22.084 17.756-36.44z" style="font-weight:400;font-family:Thunder Lord;-inkscape-font-specification:Thunder Lord" transform="rotate(-12.722 3029.034 15234.66)scale(1.49735)"/><path d="m2334.316-134.42 4.173-3.613-7.9-4.879zm11.604 1.532-7.547 6.536 2.164 4.218-10.736 9.298-14.162-36.383 11.136-9.643 33.8 19.375-10.736 9.298zm-19.97-34.283-18.416 15.95 19.423 49.87 22.085-19.126a191 191 0 0 1-1.599-3.08q1.283.889 2.874 1.976l21.978-19.034z" style="font-weight:400;font-family:Thunder Lord;-inkscape-font-specification:Thunder Lord" transform="rotate(-12.722 3029.034 15234.66)scale(1.49735)"/></g><g style="font-size:72px;font-style:normal;font-variant:normal;font-weight:700;font-stretch:normal;line-height:125%;letter-spacing:0;word-spacing:0;fill:#000;fill-opacity:1;stroke:none;font-family:Aharoni;-inkscape-font-specification:Aharoni Bold"><path d="m2462.156-128.039-11.7-7.214-1.864 3.022 11.7 7.215-4.944 8.02-11.7-7.215-7.27 11.791-11.043-6.808 19.3-31.302 22.743 14.022zm-19.748-31.876-26.458 42.913 22.654 13.967 7.27-11.79 11.7 7.214 19.189-31.123zM2466.754-84.817l-8.712-10.22 27.987-23.854 8.712 10.22zm-18.327-10.987 17.56 20.602 38.369-32.701-17.56-20.603zM2508.183-48.707l-2.665-9.074-23.747 6.974-3.725-12.683 23.747-6.974-2.665-9.074 11.537-3.388 9.054 30.83zm7.104-42.685-24.624 7.232 2.664 9.074-23.747 6.974 7.569 25.77 23.747-6.973 2.665 9.073 24.624-7.231zM2485.477 8.845l-.597-13.065 17.38-11.669-17.877.782-.582-12.748 36.735-1.679.592 12.96-17.516 11.78 18.018-.788.582 12.748zm-8.801-43.202 2.3 50.326 50.36-2.3-2.298-50.327z" style="font-weight:400;font-family:Thunder Lord;-inkscape-font-specification:Thunder Lord" transform="rotate(7.572 187.705 -25204.151)scale(1.49735)"/><path d="m2515.819 42.902-1.905-13.613-3.517.492 1.905 13.613-9.33 1.306-1.906-13.613-3.865.541 1.906 13.613-9.853 1.38-3.704-26.461 36.419-5.098 3.703 26.461zm-37.969-28.551 5.595 39.97 49.927-6.989-5.594-39.97z" style="font-weight:400;font-family:Thunder Lord;-inkscape-font-specification:Thunder Lord" transform="rotate(7.572 187.705 -25204.151)scale(1.49735)"/><path d="M2522.506 76.95q.674-1.616.866-3.644.19-2.028-.298-3.753-.788-2.773-2.445-2.303-1.487.423-1.106 6.015.018.836.06 1.372.201 3.926-1.716 6.7-1.884 2.763-5.502 3.79-5.85 1.662-10.737-1.52-4.887-3.18-6.807-9.944-1.959-6.9.04-14.922l10.441 2.408a30 30 0 0 0-.848 4.48q-.274 2.38.244 4.207.375 1.319 1.06 1.928.708.567 1.554.326 1.454-.413 1.176-4.353a18 18 0 0 1-.095-1.107 11 11 0 0 1-.028-.869q-.22-4.25 1.63-7.004t5.535-3.8q5.649-1.604 10.342 1.413 4.736 3.04 6.609 9.635 1.718 6.054-.13 13.961zm1.354 7.473q2.886.899 13.422 4.157l1.654-7.048q2.238-9.625.04-17.37-2.574-9.063-9.453-13.47-7.245-4.668-15.835-2.23-5.378 1.527-8.615 5.699l-15.167-3.479-1.605 6.45q-2.421 9.75.026 18.374 2.611 9.199 9.606 13.755 7.48 4.856 16.275 2.36 5.952-1.69 9.24-6.46.071-.13.183-.38.146-.262.228-.358z" style="font-weight:400;font-family:Thunder Lord;-inkscape-font-specification:Thunder Lord" transform="rotate(7.572 187.705 -25204.151)scale(1.49735)"/><path d="M2539.306 115.023q.43-1.698.32-3.732t-.846-3.668q-1.187-2.628-2.757-1.918-1.41.637-.21 6.112.142.825.262 1.348.776 3.854-.711 6.88-1.457 3.01-4.885 4.559-5.543 2.503-10.844.076t-8.196-8.835q-2.952-6.537-2.156-14.765l10.682.845a30 30 0 0 0-.18 4.556q.08 2.395.861 4.125.564 1.25 1.331 1.752.785.456 1.586.094 1.377-.622.523-4.48-.165-.62-.257-1.08a11 11 0 0 1-.155-.856q-.843-4.17.581-7.167t4.917-4.574q5.35-2.418 10.436-.124 5.133 2.31 7.955 8.558 2.591 5.735 1.926 13.828zm2.44 7.192q2.986.465 13.887 2.137l.6-7.215q.795-9.849-2.518-17.187-3.88-8.586-11.33-11.932-7.854-3.551-15.992.125-5.094 2.3-7.683 6.904-2.479-.192-15.514-1.21l-.638 6.616q-.96 10 2.73 18.17 3.936 8.715 11.525 12.192 8.115 3.704 16.445-.06 5.64-2.546 8.188-7.749.052-.14.127-.404.105-.279.172-.387" style="font-weight:400;font-family:Thunder Lord;-inkscape-font-specification:Thunder Lord" transform="rotate(7.572 187.705 -25204.151)scale(1.49735)"/></g><g style="fill:#fff;fill-opacity:1;stroke:none"><path d="M-482.594 110.883c-16.738-3.965-35.848-25.138-26.332-42.077 12.812-10.036 32.2-7.11 45.166 1.417 9.917 6.014 19.586 13.875 31.593 14.857 7.769 11.674-16.17 18.356-24.346 22.778-8.361 2.788-17.301 3.888-26.081 3.025M-345.094 110.855c-13.69-2.841-37.712-10.557-38.792-23.679 12.554-5.595 25.28-10.495 36.465-19.054 12.367-7.271 30.074-8.866 41.717.49 9.675 14.854-6.942 34.822-21.145 40.245-5.798 2.401-12.1 2.355-18.245 1.998" style="fill:#fff;fill-opacity:1;stroke:none" transform="matrix(.2221 .00953 -.00983 .20983 373.007 294.352)"/></g><path d="M488.646 693.48c-2.6-5.458-3.673-11.672-7.451-16.533-4.545-8.241-9.377-16.502-16.249-23.05-6.483-6.518-14.164-11.711-21.998-16.44-2.104-1.85-6.531-.3-4.08 2.634 2.142 2.355 5.11 3.767 7.215 6.186 5.347 5.194 10.176 10.892 15.19 16.397 4.557 5.83 8.708 11.975 13.506 17.617 3.789 4.762 7.461 9.714 12.06 13.728.617.368 1.722.403 1.807-.54" style="fill:#b3026e;fill-opacity:1;fill-rule:evenodd;stroke:none" transform="translate(-120.134 -16.263)"/><path d="M503.558 710.36v-1.266c-.909-3.323-1.688-3.451-2.174-5.137-.858-2.31-1.245-5.638-1.415-8.436.349-3.247-.337-4.598-2.05-6.799-1.04-1.466-1.41-2.327-1.646 1.964.917 7.883-3.13 9.67 1.725 14.856 1.895 1.543 1.35 5.142 2.605 6.17.886.645 1.412 1.87 2.61 2.006.829-.777.351-1.966.322-2.935a2.4 2.4 0 0 1 .023-.423z" style="fill:#b3026e;fill-opacity:1;stroke:none" transform="translate(-120.134 -16.263)"/></svg>