<svg xmlns="http://www.w3.org/2000/svg" width="586.845" height="931.02"><path d="M515.6 115.073c-8.788 0-16.158 2.182-26.44 7.233-13.157 6.464-24.973 17.78-31.426 30.097-5.076 9.689-4.251 12.52 1.538 5.32 10.368-12.892 22.846-21.175 34.254-22.738 5.274-.723 5.693-.582 6.942 2.702l1.33 3.492 3.2-2.993c2.883-2.705 4.307-3.02 14.093-2.993 9.334.026 11.828.53 17.335 3.408 7.5 3.923 17.493 14.932 15.422 17.003-.936.935-.093 1.605 2.868 2.244 8.96 1.935 19.223 9.366 22.905 16.587 2.905 5.696 8.314 20.987 8.314 23.487 0 1.148.86 2.422 1.913 2.826 3.135 1.204 10.975 14.063 12.761 20.952 1.722 6.637 2.254 27.726.873 34.627-.433 2.168-2.816 6.124-5.32 8.771-13.882 14.674-32.098 40.33-38.951 54.873-1.304 2.765-4.08 8.683-6.194 13.177-11.79 25.049-9.646 56.733 4.697 68.923 14.72 12.51 63.097 12.84 84.013.582 12.335-7.229 26.367-23.516 32.507-37.745 1.268-2.939 2.807-5.363 3.409-5.363s3.133 1.662 5.654 3.658c3.755 2.974 15.474 7.69 19.122 7.69.49 0 1.256-1.455 1.704-3.242l.831-3.284 2.495 3.201c6.65 8.454 25.896 14.78 37.745 12.43 3.745-.744 7.037-1.107 7.316-.832.28.275-2.262 1.763-5.653 3.326-5.052 2.328-8.513 2.882-19.164 2.993-15.64.162-16.627.747-20.286 12.595-6.24 20.204-4.303 39.155 6.11 59.528 6.123 11.979 10.613 16.708 17.419 18.416 4.183 1.05 4.947-.364 1.995-3.658-4.07-4.542-11.33-18.578-13.469-26.065-3.085-10.802-4.891-24.718-3.533-27.145.897-1.603 1.548-.036 2.66 6.527 2.12 12.516 3.508 16.293 10.31 27.644 10.014 16.712 17.81 22.67 26.105 20.036 2.034-.645 2.75-.131 3.368 2.328.43 1.718.29 3.953-.291 4.989-1.139 2.03-16.213 18.98-22.49 25.274-11.194 11.225-16.919 23.806-16.919 37.288 0 8.42 1.879 10.489 5.28 5.82 1.297-1.78 3.525-4.585 4.947-6.194 2.155-2.439 2.428-2.494 1.787-.499-.423 1.317-1.978 9.21-3.45 17.543l-2.66 15.131-7.317 7.275c-6.191 6.172-12.832 15.29-22.78 31.302-1.861 2.996-2.958 3.354-13.095 4.157-6.098.483-17.808 2.26-26.022 3.95-8.215 1.689-15.246 3.075-15.63 3.075s.7-1.549 2.452-3.45c7.238-7.856 9.256-14.534 6.11-20.41-1.518-2.84.495-5.218 7.11-8.356a13.76 13.76 0 0 0 6.567-6.693c1.368-3.029 2.733-4.353 4.157-4.074 4.325.847 16.769-2.358 21.284-5.487 11.873-8.228 15.837-39.319 7.025-54.997-3.443-6.126-11.017-10.595-18.872-11.14l-6.028-.416-.333 8.314c-.328 8.65-.387 8.798-8.688 17.126l-4.074 4.074-3.74-4.323c-2.075-2.377-6.048-5.599-8.814-7.192-4.731-2.725-6.333-2.91-27.27-2.91-16.124 0-22.68.441-23.819 1.58-.864.864-2.74 1.573-4.157 1.58s-5.514 1.363-9.104 3.034c-4.97 2.314-7.135 4.247-9.104 8.106-1.422 2.789-2.619 5.961-2.619 7.026s-.555 1.954-1.247 1.954c-.691 0-1.247-.662-1.247-1.455s-1.978-3.855-4.406-6.818c-7.166-8.745-14.915-10.983-35.21-10.185-8.988.354-19.074 1.305-22.406 2.12-5.617 1.375-5.887 1.613-4.074 3.617 1.076 1.189 2.698 6.155 3.617 11.016 2.935 15.524 13.058 23.071 31.01 23.071 8.76 0 17.812-3.37 23.654-8.812 6.77-6.307 12.682-5.941 21.035 1.288 2.998 2.596 9.611 6.333 14.674 8.314 8.15 3.189 10.719 3.581 22.406 3.492 21.497-.164 31.998-5.503 38.784-19.746l3.7-7.815 1.372 3.534c2.07 5.325 1.62 14.69-.998 20.452-3.185 7.014-11.682 13.645-21.782 16.96-7.482 2.457-8.574 3.235-9.81 6.984-1.633 4.946-6.072 8.77-12.098 10.434-4.263 1.178-13.061.502-12.97-.997.027-.428 2.291-2.346 5.03-4.24 3.87-2.677 4.989-4.27 4.989-7.109 0-4.674-6.699-10.751-14.134-12.845-7.671-2.16-47.944-2.314-54.248-.208-6.058 2.024-11.916 8.413-17.917 19.58-2.524 4.696-5.943 9.623-7.607 10.932-2.95 2.32-2.961 2.405-.54 3.7 1.365.731 3.223 2.102 4.156 3.035s5.095 3.542 9.229 5.82a880 880 0 0 1 12.637 7.108c10.416 6.02 26.514 6.59 58.821 2.162 7.775-1.066 7.646 1.307-.166 3.284-32.844 8.31-43.758 9.183-57.491 4.572-22.889-7.685-34.973-16.784-47.223-35.625-2.362-3.633-4.842-6.423-5.53-6.194-2.428.81-3.634 9.937-2.078 15.755 1.74 6.507 1.124 7.738-2.328 4.614-2.435-2.203-2.718-2.097-10.6 4.822-4.448 3.906-12.5 12.007-17.916 18-5.418 5.994-11.726 12.912-14.01 15.38-6.226 6.734-20.321 28.514-24.443 37.788a2037 2037 0 0 1-5.445 12.18c-5.81 12.746-10.178 44.257-8.938 64.516 1.092 17.822 3.908 28.808 6.693 26.023.357-.357 1.174-4.672 1.788-9.561 1.311-10.448 6.328-26.151 10.808-33.838 1.744-2.993 3.354-5.21 3.616-4.947.263.263-.869 7.203-2.536 15.464-5.725 28.376-5.42 54.881.832 72.872 7.551 21.732 15.786 29.917 30.013 29.93 11.626.012 21.043-5.37 37.33-21.325 3.63-3.556 6.61-5.923 6.61-5.28 0 1.373-5.016 11.47-6.153 12.389-.427.345-2.89 3.88-5.487 7.856s-5.182 7.233-5.737 7.233-2.273 1.66-3.782 3.7l-2.744 3.7 2.785 4.78c1.53 2.626 3.51 5.519 4.365 6.402s2.5 4.974 3.658 9.104c1.159 4.13 2.463 7.483 2.91 7.483 1.269 0 3.837-3.295 14.383-18.624 13.888-20.185 21.022-27.722 57.824-60.733l4.863-4.324-1.58-14.175c-.91-8.247-1.273-21.724-.914-32.3l.582-18.166-6.194-4.697c-11.244-8.526-21.884-25.165-29.764-46.475-3.898-10.543-2.928-12.325 3.16-5.82 7.013 7.495 17.845 13.011 25.607 13.011 9.262 0 15.902-4.567 23.653-16.253 9.25-13.948 9.565-14.769 6.194-15.672-1.54-.413-5.024-.739-7.732-.748-2.708-.011-4.523-.383-4.074-.832s8.286-3.293 17.46-6.318c9.173-3.026 20.524-7.495 25.19-9.936 7.5-3.921 8.48-4.176 8.48-2.12 0 1.28-1.8 3.708-3.99 5.404-5.664 4.39-21.035 19.833-25.898 26.023-5.87 7.472-16.255 28.537-18.457 37.413-4.147 16.715-6.6 53.7-4.53 68.34 3.792 26.831 10.016 51.544 13.26 52.545.691.213 2.938-3.014 4.988-7.15 3.632-7.325 6.911-10.366 5.072-4.697-4.604 14.188-7.428 52.687-4.448 60.525 1.945 5.118 9.843 12.99 17.293 17.252 5.446 3.116 8.752 4.068 15.298 4.406 4.778.247 9.934-.23 12.096-1.122 12.145-5.009 18.358-11.318 21.658-21.99 1.795-5.806 2.166-11.146 1.996-27.312l-.208-20.12-3.534-2.494c-21.374-15.017-32.25-44.315-29.972-80.77.946-15.13 2.527-19.27 3.659-9.478 3.188 27.587 6.314 39.84 14.092 55.33 8.733 17.394 16.806 23.084 28.06 19.745 7.872-2.336 14.973-10.615 23.07-26.854 7.25-14.538 9.114-14.26 3.991.582-6.53 18.918-10.218 25.071-22.24 37.33l-5.902 6.027.623 10.351c1.084 17.364 1.736 20.539 4.698 23.32 7.502 7.05 24.876 10.445 31.426 6.153 5.93-3.886 18.345-27.771 22.365-43.025 4.485-17.017 4.88-19.55 5.695-37.704.992-22.092-.83-38.773-6.485-60.026-.874-3.285-1.21-5.986-.748-5.986 2.257 0 10.177 12 10.184 15.422.008 3.895 2.412 2.332 4.864-3.16 5.414-12.124 6.77-39.704 2.66-54.373-1.582-5.651-8.424-20.743-9.394-20.743-.977 0-4.755 4.033-7.774 8.272-1.904 2.675-5.528 4.94-11.93 7.441-12.5 4.883-19.468 10.117-21.326 16.046-1.773 5.662-2.003 5.848-12.387 10.06-14.488 5.876-22.698 7.738-34.13 7.732-14.494-.008-16.356-1.617-13.51-11.722.32-1.136-1.025-2.232-3.7-3.035-4.503-1.353-8.869-6.558-6.983-8.314 2.558-2.381 16.538-8.774 20.91-9.561 5.683-1.023 7.386 1.517 4.24 6.319-2.827 4.314-2.547 6.29 1.164 7.98 5.876 2.678 7.585 1.806 13.593-7.15 7.8-11.625 16.908-21.467 21.824-23.57 6.66-2.847 6.982-2.554 5.986 6.028l-.914 7.816 3.492-2.287c4.982-3.264 14.39-10.149 18.997-13.884 4.713-3.821 5.487-3.933 5.487-.831 0 1.298.803 3.048 1.788 3.866 1.46 1.212 2.68.247 6.693-5.197 9.024-12.243 10.086-16.88 4.697-20.41-4.332-2.839-3.969-6.14 1.829-17.792 5.906-11.871 14.887-23.91 32.965-44.064 7.372-8.22 14.633-16.355 16.129-18.083 2.353-2.72 2.616-2.8 2.078-.624-.341 1.383-1.764 5.474-3.2 9.104s-2.165 6.61-1.58 6.61c1.656 0 20.128-13.506 28.184-20.62 8.22-7.256 16.032-18.697 19.04-27.85 1.12-3.416 4.11-10.293 6.609-15.299 4.529-9.074 4.53-9.114 2.993-16.96-.848-4.328-1.948-8.454-2.453-9.145-1.58-2.165-7.983-24.608-7.233-25.358.392-.392 2.374-.127 4.407.582 3.504 1.222 3.784 1.036 5.653-3.326 5.646-13.175 5.737-18.96.748-41.736-3.1-14.151-3.515-17.985-2.328-20.203 5.137-9.597-9.558-40.957-28.724-61.274l-4.324-4.572-5.445 6.277c-2.991 3.447-5.728 5.995-6.07 5.653-.341-.341.19-4.005 1.164-8.147 2.308-9.81 2.298-23.446-.041-32.425-3.485-13.38-15.21-29.957-25.566-36.249-2.562-1.557-4.92-3.271-5.279-3.783-1.339-1.904-12.94-6.11-19.912-7.233-6.639-1.069-17.267-.114-20.41 1.83-.66.407-2.065-1.432-3.118-4.075-5.007-12.557-9.525-17.322-22.365-23.487-10.395-4.99-14.122-6.17-27.852-8.979-5.531-1.13-11.171-2.536-12.554-3.117-1.383-.582-8.099-2.812-14.923-4.947-14.02-4.388-21.114-8.28-29.972-16.462-6.319-5.836-16.839-22.888-23.072-37.371-1.86-4.321-3.888-7.857-4.49-7.857-.6 0-1.08-.651-1.08-1.455 0-4.794-16.23-25.188-25.815-32.424-9.8-7.399-15.29-9.681-28.766-11.972-4.987-.848-9.267-1.29-13.26-1.29M471.41 251.67c-.8.036-.84 1.013-.374 2.869.98 3.906-1.381 11.038-4.572 13.926-1.763 1.594-5.777 2.488-14.217 3.2-11.832.999-28.322 5.5-37.87 10.31-14.046 7.074-26.52 22.32-32.799 40.115-4.401 12.473-3.375 33.247 1.87 37.995 2.04 1.845 2.78 1.617 9.977-3.035 7.799-5.04 16.53-6.833 18.416-3.783 1.557 2.52 8.88 1.376 11.93-1.87 1.624-1.729 3.353-3.16 3.825-3.16.471 0 1.211 4 1.663 8.855.772 8.315 5.142 23.728 7.108 25.108.493.345 1.794 2.394 2.91 4.572 2.912 5.686 14.667 15.295 22.448 18.333 7.425 2.899 29.245 4.156 40.613 2.328 6.263-1.008 15.714-4.417 15.714-5.654 0-.358-2.383-3.405-5.321-6.776-2.939-3.37-7.35-8.537-9.77-11.473s-6.628-8.03-9.394-11.349c-6.73-8.076-14.325-20.363-17.833-28.89-4.221-10.26-4.079-23.152.332-29.765 4.816-7.219 14.224-16.51 20.37-20.12 5.986-3.515 5.995-3.838 1.163-14.3-3.364-7.284-11.157-16.69-18.914-22.821-4.01-3.17-6.247-4.66-7.275-4.615m-101.014 99.477c-.476-.06-1.043.052-1.83.25-1.762.442-3.51 1.199-3.865 1.662-17.748 23.152-26.512 53.051-19.704 67.26 2.802 5.85 2.286 8.25-3.991 18.624-4.593 7.588-6.253 9.085-21.575 19.579-1.728 1.184-5.678 4.749-8.813 7.898-4.87 4.894-6.507 7.918-11.016 20.785-6.127 17.485-8.418 27.006-10.31 42.692-1.747 14.498-3.154 23.155-7.648 47.14-2.008 10.717-4.203 25.137-4.864 32.05-1.739 18.198-4.967 40.804-6.568 45.894-.76 2.42-3.513 8.935-6.11 14.466-4.732 10.074-7.525 20.11-7.525 27.062 0 4.964 7.372 12.066 17.792 17.127 10.233 4.97 14.152 5.62 21.534 3.575 7.46-2.068 9.33-3.564 10.392-8.397l.831-3.783 3.95 3.824c4.49 4.33 9.958 6.73 12.761 5.654 2.408-.924 2.402-4.96 0-11.764-2.665-7.554-2.34-13.576 1.29-24.693 4.19-12.837 3.484-16.144-5.03-24.069-3.648-3.394-7.962-7.121-9.603-8.272-2.64-1.85-3.002-3.077-2.993-10.559.01-9.348 3.635-18.829 10.143-26.563 3.202-3.806 3.637-3.997 5.071-2.037 1.518 2.075 4.282 1.675 4.282-.623 0-.616 1.98-4.387 4.406-8.398 2.654-4.387 7.655-17.295 12.554-32.424 4.709-14.539 9.358-26.7 11.058-28.808l2.951-3.616.125 8.438c.172 11.365 2.275 14.55 9.603 14.55 5.16 0 5.985-.519 14.258-9.229 4.822-5.076 9.356-10.997 10.102-13.136 1.32-3.788 1.17-4-5.779-9.187-3.924-2.929-9.223-7.562-11.764-10.268l-4.614-4.905-5.404 3.16c-2.99 1.736-7.71 3.549-10.476 4.032l-5.03.873 7.067-6.735c4.438-4.236 7.665-8.61 8.647-11.68 2.311-7.233.962-19.01-3.077-26.98-3.716-7.333-3.722-8.887 0-5.445 1.333 1.232 5.712 4.093 9.686 6.36 13.408 7.65 28.3 6.304 38.452-3.45 5.61-5.39 15.715-19.696 18.582-26.356 6.574-15.269 8.426-31.109 4.739-40.322-3.55-8.872-20.253-21.45-28.475-21.45-1.438 0-5.6.921-9.27 2.078-5.32 1.677-7.349 1.825-9.894.665-5.378-2.45-10.224-11.667-12.055-22.946-1.21-7.451-1.565-9.423-2.993-9.603m197.706 81.31c-6.775 0-8.7 2.018-7.774 8.19 3.467 23.082 3.644 23.283 17.335 23.113 5.597-.07 12.13-.537 14.55-1.081s6.519-1.376 9.103-1.83c2.686-.47 5.262-1.847 5.986-3.2 3.327-6.217-26.196-25.191-39.2-25.191m-27.436.832c-1.82-.013-4.829 1.487-10.975 4.448-12.19 5.873-23.41 20.212-20.91 26.73 1.072 2.791 14.713 3.908 28.019 2.286 2.35-.287 5.607-1.388 7.233-2.453 2.68-1.756 2.935-2.852 2.91-11.556-.02-6.74-.754-11.182-2.453-14.924-1.37-3.016-2.004-4.518-3.824-4.531m53.25 40.157c-9.729.072-12.582.621-17.126 2.702-4.605 2.108-6.486 3.82-7.981 7.399-2.027 4.85-1.596 13.014.997 18.706 2.807 6.16 16.675 8.985 32.965 6.776 15.458-2.096 40.984-9.694 40.988-12.221.004-2.752-6.276-10.676-11.806-14.882-8.734-6.643-15.729-8.42-33.422-8.48-1.696-.006-3.224-.01-4.614 0m-64.1 4.988c-16.781.08-26.454 3.06-28.933 8.979-2.007 4.793-2.2 14.63-.374 18.041 2.482 4.637 8.334 6.434 23.03 6.984 9.998.374 15.897-.027 20.66-1.372 10.854-3.065 11.588-3.713 11.557-10.434-.036-7.712-3.637-15.466-8.938-19.247-3.817-2.722-5.51-3.006-17.002-2.951m135.933 194.131c1.042 0 .768 7.303-.29 7.774-.52.23-2.512 2.52-4.449 5.113-3.453 4.623-5.2 5.663-6.36 3.783-1.301-2.112 8.393-16.67 11.1-16.67" style="fill:#b3026e;fill-opacity:1;fill-rule:evenodd;stroke:none" transform="translate(-256.577 -115.073)"/><g style="fill:#b3026e;fill-opacity:1"><g style="fill:#b3026e;fill-opacity:1"><path d="M1274.386-287.991a70.06 70.06 0 0 0-31.25 8.468c-12.904 2.969-23.956-8.5-37-6.875-18.51-.386-36.476 6.504-51.75 16.5-24.077 16.444-42.267 39.809-57.335 64.493-7.116 9.855-11.283 21.258-17.72 31.488-10.597 23.054-23.553 45.584-28.913 70.613-1.124 12.182-4.664 27.648 5.5 37.063 8.865 7.34 21.79 2.924 30.03-3.157 5.702-4.97 13.722-9.812 14.563-17.937.683-4.061-4.616-4.83-6.78-2.094-7.04 4.98-12.89 15.885-23.032 13.313-6.922-1.47-9.922-9.591-7.031-15.75 2.508-8.891-.182-21.141 8.5-27 18.837-4.842 38.12-9.817 56.875-15.532 1.239-.827 5.478-3.857 4.03-.156-5.206 15.108-11.449 30.346-11.463 46.623-.899 11.083 6.803 24.709 19.214 23.72 15.214-1.077 27.661-12.33 34.437-25.405-5.408-4.9-11.967.335-15.707 4.582-4.428 4.816-11.345 11.257-18.293 6.73-7.35-4.757-4.389-15.242-3.25-22.437 2.612-6.387-.317-15.813 6.875-19.563 7.793-3.52 16.594-3.613 24.47-6.75 17.55-3.38 33.86-10.724 50.995-15.655 21.85-7.782 43.481-16.83 63.932-27.659 15.443-8.912 30.728-18.86 43.135-31.686 6.933-9.442 13.985-20.227 14.28-32.25-1.39-25.35-23.222-45.901-47.03-51.656-6.576-1.648-13.465-2.317-20.282-2.031m.844 11.093c19.29-.808 39.72 7.691 49.563 24.657 6.86 13.1 3.736 29.634-6.47 40.062-10.706 13.84-26.332 22.668-40.86 32.102-19.616 11.499-41.013 19.019-61.827 28.023-20.437 8.044-42.114 12.21-62.718 19.688-2.823 2.433-7.445 1.012-6.063-3.125.712-6.698 7.526-8.991 13.296-10.376 16.427-5.77 31.919-13.997 47.892-20.78 7.85-4.515 15.67-9.47 23.375-14.126 14.062-10.716 28.798-22.825 34.53-40.125 5.243-15.504-.115-33.263-12.25-43.906-1.89-1.878-6.801-6.8-1.562-7.969 7.526-2.32 15.199-3.936 23.094-4.125m-71.594 1.594c7.494.455 15.923.296 22.344 4.469-10.2 8.205-20.899 16.95-28.937 27.531-20.021 21.085-33.738 47.329-47.024 72.778-3.388 7.256-6.35 14.814-10.851 21.472-21.677 6.946-43.355 13.546-65.375 19.156 2.16-10.583 8.765-19.674 12.467-29.775 7.452-14.666 15.584-28.899 23.994-43.057 7.408-9.932 14.282-20.086 21.882-29.793 12.555-14.64 26.859-28.037 44.157-36.968 8.543-3.932 17.944-5.845 27.343-5.813m37.25 13.313c9.039 6.978 16.537 17.71 14.22 29.687-2.924 19.023-19.411 31.831-33.673 42.823-18.918 14.428-41.51 22.367-62.328 33.396-3.571 1.428.701-4.964.969-6.438 11.915-21.435 23.37-43.696 38.908-62.858 9.258-13.356 20.956-24.96 33.654-35.048 2.623-1.37 5.962-5.413 8.25-1.562M992.168-193.741c-5.838.247-8.471 7.398-14.688 6.28-7.485.178-14.92 1.132-22.062 2.97-27.15 3.157-54.756 15.746-70.188 38.937-6.878 9.696-5.16 22.31-4.875 33.594 1.07 12.132 6.372 23.981 14.469 32.969 13.585 1.894 3.487-14.225.406-19.75-6.956-14.583-5.079-33.387 6.406-45.188 11.133-14.152 29.023-19.937 45.688-24.75 7.653-1.784 15.393-3.54 23.281-3.469-4.932 7.682-11.264 14.395-15.844 22.282-4.574 6.292-8.332 13.161-12.625 19.468-5.029 3.768-14.957 2.169-16.593 9.688-.56 5.034 5.998 7.199 6.375 11.625-4.652 7.729-6.874 17.204-8.532 26.187-1.83 10.67-.023 23.687 10.125 29.625 13.83 9.353 31.714 5.48 46.72 1.5 12.465-4.485 24.454-10.762 34.812-18.937 3.871-3.83-.871-10.07-5.657-8.031-10.636 5.57-21.309 10.354-32.906 13.468-10.972 3.129-22.951 7.65-34.375 4-8.302-2.894-6.566-13.147-5.687-20 2.414-11.257 7.374-21.737 12.187-32.093 22.254-4.817 45.377-4.776 67.875-7.938 5.117-.653 7.062-6.717 4-10.656-20.504.34-41.666.556-61.75 1.656 1.766-5.826 7.979-8.926 9.969-14.687 6.097-9.181 13.387-17.393 20.469-25.813 5.488-4.542 13.422-1.517 19.936-2.178 12.547.079 25.163 2.293 37.595 2.334 6.72-1.777 4.203-11.315-1.031-13.5-10.438-3.526-22.074-2.977-33.062-3.894-4.651-.467-10.01-.075-14.25-1.23-.905-2.578-3.304-4.793-6.188-4.47" style="fill:#b3026e;fill-opacity:1;fill-rule:evenodd;stroke:none" transform="matrix(.437 0 0 .437 -297.858 914.217)"/><path d="M1268.449-137.366c-3.762 1.028-7.066 4.505-11.188 1.968-8-2.772-15.9.431-22.52 4.943-16.49 9.634-29.579 24.33-40.105 40.182-3.422 6.618-8.238 15.322-4.25 22.625 4.768 6.015 13.658 3.608 18.5-1 10.66-7.093 20.284-16.67 29.75-24.593-7.135 16.123-11.89 33.214-14.625 50.687-1.7 7.043 1.272 15.255 6.688 19.938 5.468 3.616 11.534 5.933 18.219 4.968 13.486.108 24.59-8.886 34.187-17.281 3.286-3.941 8.024-8.028 8.375-13.406-2.985-4.305-8.379.865-11.562 2.594-11.001 7.907-22.29 17.709-36.563 17.312-6.186 1.029-10.714-5.636-8.75-11.281 2.917-16.896 8.54-33.34 15.406-49.031 6.379-13.205 14.513-25.677 22.25-38.188 2.105-3.61 1.781-10.812-3.812-10.437m-22.719 14.687c2.6-.321 4.27.445 1.563 2.375-9.845 14.669-22.497 27.263-36.594 37.781-.224 1.557-4.741 3.785-3.406.75 6.684-13.465 15.149-26.71 27.062-35.875 3.408-2.583 6.466-5.472 11.375-5.031" style="fill:#b3026e;fill-opacity:1;fill-rule:evenodd;stroke:none" transform="matrix(.437 0 0 .437 -297.858 914.217)"/></g><g style="fill:#b3026e;fill-opacity:1"><path d="M1386.48 21.415c-8.68-.36-16.92 2.256-24.531 6-5.203 2.287-9.72 6.613-13.344 10.969-4.656 6.472-6.822 14.32-9.133 21.767-2.455 17.067 1.477 34.73 9.508 49.733 1.75 3.113 3.063 6.312 6.188 8.437 4.84 6.463 11.292 11.67 18.375 15.531 14.469 4.843 31.072-.509 41.25-11.312 4.053-5.036 9.184-12.76 5.343-19.219-4.16-4.31-9.507 1.337-9.75 5.906-4.475 7.572-11.963 15.03-21.53 14.875-14.05 2.08-25.98-8.683-31.126-20.968-3.808-8.027-7.106-16.393-6.573-25.5-.17-10.35-1.024-21.656 5.886-30.25 9.617-14.356 29.017-13.514 44.343-12.313 12.956.82 25.518 5.218 38.157 7.906 6.036 2.579 12.665 3.885 18.468 6.813 5.13.014.428 2.846-1.468 4.781-3.077 3.492-9.583 4.244-9.594 9.969-.503 3.048 4.791 3.348 2.281 6.312-4.887 6.187-5.895 14.616-11.469 20.157-2.944 1.007-5.047 2.906-7.843 4.343-3.877 2.027-5.61 9.125-.125 10.219 2.518.205 4.757-.464 2.882 3.04-2.603 11.579-6.221 22.955-6.95 34.94-.44 6.846-3.098 16.718 3.536 21.364 5.516 1.53 10.544-6.057 9.094-11.031-3.33-4.629-.7-11.262-.642-16.584 1.355-10.063 4.788-19.82 8.267-29.104 1.199-2.789 1.236-6.023 5.465-4.695 12.96-1.206 26.636.43 39.004-3.805 4.31-1.715 2.795-8.657-2.031-7.937-11.82-.914-23.699-.124-35.532-.813 3.758-8.602 8.01-17.026 14.071-24.22 2.807-3.715 5.78-8.763 8.648-11.686 15.503 2.236 33.271 7.538 47.656-1.219 3.986-4.714 7.955-11.09 5.22-17.406-1.177-7.318-7.792-13.58-15.157-14.031-5.006.35-3.639 6.86-.469 8.906 3.32 2.786 8.837 9.08 4.313 13.031-9.694 2.645-20.595.991-30.594-.437-11.195-3.208-22.504-6.04-33.456-10.045-8.598-3.788-17.852-5.334-26.825-8.174-12.608-3.88-26.567-4.272-39.813-4.25" style="fill:#b3026e;fill-opacity:1;fill-rule:evenodd;stroke:none" transform="matrix(.437 0 0 .437 -296.984 817.22)"/><path d="M1517.668 72.415c-7.52 1.561-15.588 9.476-13.625 17.625 2.452 6.16 10.755 5.057 14.593.906 4.485-3.555 10.517-10.787 5.563-16.344-1.754-1.564-4.161-2.47-6.531-2.187" style="fill:#b3026e;fill-opacity:1;fill-rule:evenodd;stroke:none" transform="matrix(.437 0 0 .437 -296.984 817.22)"/><path d="M1637.48-8.023c-6.944 3.934-15.863 5.305-21.562 11.563a280 280 0 0 1-10.938 12.219c-5.692 8.739-12.812 16.185-18.844 24.625-4.367 4.637-6.835 10.702-10.562 15.625-3.22 3.464-9.215 1.712-13.375 3.625-4.034.305-9.332 4.004-6.281 8.375 1.14 3.49 6.205 3.792 7 7.125-.178 5.697-5.79 9.175-7.625 14.375-6.774 12.388-13.458 24.78-19.344 37.375-7.401 4.245-12.967 11.338-20.438 15.656-6.496 4.039-13.247 8.69-20.968 9.5.055-3.475 3.123-6.137 3.638-9.747 5.16-13.777 13.965-26.115 17.455-40.44 1.252-7.351-9.823-10.692-13.5-4.532-3.484 4.393-3.93 10.358-7.437 14.594-2.68 10.21-8.681 19.433-11.344 29.594-.961 6.25-2.682 14.35 3.625 18.437 4.129 3.852 10.52 7.368 15.813 3.563 9.035-4.44 16.997-11.009 25.125-16.938-5.152 11.551-9.103 23.664-12.907 35.719-4.93 16.361-7.434 33.655-5.125 50.656 1.747 13.45 13.228 24.857 26.313 27.438 9.132-.205 19.241 1.162 27.375-3.72 21.742-9.568 39.563-26.83 54.562-44.687 6.918-8.28 10.453-18.724 16.75-27.437 5.226-5.618 11.653-10.694 15.063-17.531 3.337-3.236 5.306-8.029 7.031-12.344 1.032-5.586 9.043-5.22 11.219-10.344 2.57-3.495-1.455-7.805-5.25-6.094-4.106 1.42-8.26 2.952-12.594 1.844-3.56-.214-6.694 2.382-7.625 5.469-3.766 3.519-10.74 2.122-11.812-3.219-.652-6.844 1.414-13.838 4.968-19.562 1.807-3.93 3.96-9.797 9.183-8.945 14.274-1.323 28.646-1.508 42.911-2.837-6.411 8.362-1.626 19.574 4.312 26.719 1.256 2.995-5.112 4.715-6.67 7.104-5.028 4.835-12.845 8.496-14.736 15.677.709 5.79 8.634 4.709 12.906 4.657 8.935-1.426 18.216-3.28 25.563-8.688 6.346-2.46 11.605-9.958 7.656-16.531-1.813-1.55-.614-1.738 1.063-2.5 3.9-3.917 9.727-5.386 14.312-8.406 3.795-1.344 8.494-4.582 12.125-4.22 1.597 4.812 5.006 8.361 7.844 12.438-7.156 6.46-16.7 11.01-21.813 19.375-1.731 5 4.605 7.257 8.531 6.277 12.942.047 26.29-3.777 35.563-13.027 3.82-3.805 2.014-9.697.25-13.625 6.829-3.748 13.521-7.914 20.938-10.343 1.01-1.944 4.139-1.31 5.468-3.188 6.79-1.623 13.19-4.802 20.094-6.375 4.826-1.416 2.818-11.122-2.312-7.594-10.576 2.932-21.557 5.01-31.733 9.309-5.78 2.184-11.291 5.543-17.08 7.566-.842 2.273-4.14 3.643-5.062.407-1.341-2.344-3.69-4.98-4.188-7.375 3.867.389 5.827-7.083 1.656-8.032 5.866-8.377 15.086-13.91 23.657-19.078 8.555-5.452 18.965-2.397 28.468-2.234 2.833-3.402 10.918-7.997 7-13.281-6.278-5.654-15.579-1.286-22.875-.594-12.333 4.247-24.063 10.547-35.156 17.469-7.445 5.695-15.541 11.928-19 20.78-5.37 3.524-12.492 3.59-17.625 7.188-6.786 1.955-13.01 6.801-19.5 8.375-4.363-4.34-8.777-11.82-3.812-17.343 7.108-9.09 17.49-15.333 27.406-20.625 6.642-3.242 13.601-1.452 20.437-.282 5.417-.053 11.395-4.86 11.532-10.437-.27-6.642-8.59-5.764-13.248-5.46-6.016.256-11.223 3.474-17.036 4.895-4.815 2.529-10.824 3.378-14.966 6.971-4.742 2.515-9.904 6.855-15.813 6.594-3.149.27-4.863 3.055-7.812 3.687-3.023 4.022-9.64 2.517-14.094 3.657-3.125.436-6.333.618-2.344-1.157 7.527-7.366 6.881-23.31-4.25-26.75-5.72-1.427-11.784.59-16.125 4.188-8.677 6.5-16.422 14.714-23.53 23-7.054 10.499-13.348 21.739-15.095 34.469-3.136 13.9 11.365 26.78 24.875 23.437 1.549-.245-1.16 3.867-2.156 4.844-2.422 2.222-5.25 6.578-8.031 7.219-2.01-7.343-7.714-13.456-13.875-17.625-4.373-1.397-9.865-1.07-13.156 1.937-3.292 2.144-9.236 6.14-6.75 10.656 5.091 4.785 11.62-1.748 17.218-.75 4.715 3.143 3.573 10.453 2.844 15.313-3.012 7.045-13.226 10.038-19.844 6.937-6.343-3.99-3.377-13.026-2.937-19.093 3.043-16.669 11.334-31.569 19.344-46.282 3.376-6.022 7.514-11.465 10.75-17.625 3.735-5.38-5.335-10.142-9.625-7.437-14.956 6.559-26.991 19.463-38.844 29.406 3.722-8.12 9.902-14.756 14.094-22.625 2.331-3.336-.518-8.047-4.657-6.75-8.64 1.794-10.439 12.357-16.687 17.375-6.168 12.876-16.389 23.953-19.75 38.156.12 5.319 6.662 5.961 10.469 4.063 9.077-3.064 13.126-12.974 20.25-18.781 7.291-7.35 15.246-15.47 22.718-21.594-6.892 12.676-13.9 25.291-19.218 38.656-4.567 9.778-5.991 21.01-4.563 31.75 1.134 9.442 10.014 15.795 19.344 14.594 3.42-.263 6.841-.913 10.187-1.719-12.366 17.566-27.246 34.602-46.156 45.094-2.96 1.264-5.986 1.986-8.437 3.781-8.356 2.268-18.877 5.563-25.75-1.594-4.707-3.67-5.414-9.737-6.188-15.218-2.617-5.455-.971-12.467-1.219-18.47 1.266-5.59 2.534-11.22 3.032-17.03 2.208-10.31 5.825-20.37 9.093-30.407 6.109-15.975 12.641-31.262 20.144-46.546 3.669-7.815 8.602-14.554 12.294-22.266 3.814-7.375 9.051-14.072 13-21.219 1.278-2.684 6.505-1.452 9.094-2.375 16.196-2.336 32.955-1.7 48.875-5.281 3.92-1.274 5.56-8.903.28-9.219-15.918-1.314-32.169.031-48-.844 11.078-15.855 22.905-31.688 36.845-45.187 4.721-5.533 12.158-7.149 17.093-12.156 2.448-4.376-3.375-8.43-7.406-7.782m33.562 93.563c-.951 6.852-8.329 10.327-13.75 13.375-2.494.844-7.891 2.958-2.906-.75 5.077-4.383 10.04-10.062 16.313-12.594.106.037.366-.188.344-.031m89.094 60.562c1.807 2.684-3.514 3.27-5.25 4.094-.645.15 3.703-3.32 5.25-4.094m-58.5 2.157c1.14 1.993-4.029 2.414-5.102 3.577-4.14 2.183.42-1.158 2.102-1.827 1.26.04 2.296-1.672 3-1.75" style="fill:#b3026e;fill-opacity:1;fill-rule:evenodd;stroke:none" transform="matrix(.437 0 0 .437 -296.984 817.22)"/></g></g></svg>