<svg xmlns="http://www.w3.org/2000/svg" viewBox="0 0 600 600"><path d="m83.256 162.43 74.434 128.24 100.08-51.8zM434.6 162.41l-74.43 128.25-100.08-51.8z" style="stroke-opacity:.9939;stroke:#999;stroke-width:1px;fill:#fff" transform="translate(37.202 65.103)"/><path d="m156.67 291.29 204.58-.28-102.33-52.75z" style="stroke-opacity:.9939;stroke:#999;stroke-width:1px;fill:#fff" transform="translate(37.202 65.103)"/><path d="m251.33 127.88-42.556 62.23-14.363 21.004 64.482 28.249 63.301-27.719-.001-.002-.004-.005z" style="stroke-opacity:.9939;stroke:#999;stroke-width:1px;fill:#cc4c20" transform="translate(37.202 65.103)"/><path d="M208.78 190.11 82.84 162.3l111.58 48.82z" style="stroke-linejoin:round;stroke-opacity:.9939;stroke:#999;stroke-linecap:round;stroke-width:1px;fill:#cc4c20" transform="translate(37.202 65.103)"/><path d="m303.98 190.1 18.223 21.542 112.41-49.238z" style="stroke-opacity:.9939;stroke:#999;stroke-width:1px;fill:#cc4c20" transform="translate(37.202 65.103)"/><path d="M251.34 127.88c-4.612 59.779 2.558 109.28 2.558 109.28l4.989 2.2s2.434-1.031 2.43-1.05c-7.716-44.295-9.973-110.49-9.977-110.43z" style="stroke-opacity:.9939;stroke:#999;stroke-width:1px;fill:#fff" transform="translate(37.202 65.103)"/></svg>