<svg xmlns="http://www.w3.org/2000/svg" viewBox="0 0 706.36 944.59"><defs><filter id="a" width="1.5" height="1.5" x="-.25" y="-.25" color-interpolation-filters="sRGB"><feBlend in2="SourceGraphic" mode="screen" result="result1"/><feGaussianBlur result="result6" stdDeviation="7"/><feComposite in="result6" in2="result6" operator="xor" result="result7"/><feComposite in="result6" in2="result1" operator="atop" result="result92"/><feComposite in="result7" in2="result92" operator="xor" result="result4"/><feGaussianBlur in="result4" result="result3" stdDeviation=".7"/><feSpecularLighting result="result5" specularConstant="1.5" specularExponent="50" surfaceScale="4"><fePointLight x="-5000" y="-8000" z="20000"/></feSpecularLighting><feComposite in="result3" in2="SourceGraphic" k2="1" k3="1" operator="arithmetic" result="result93"/><feComposite in="result5" in2="result93" operator="atop" result="result94"/><feBlend in2="result94" mode="multiply"/></filter></defs><g style="filter:url(#a);stroke:#000" transform="translate(86.709 208.434)"><path d="M497.81 362.03c-4.921 25.271-15.97 50.065-33.573 72.909-69.69 90.44-215.55 115.9-325.8 56.84-56.365-30.19-92.558-76.72-105.08-127.08-10.792 69.62 28.472 141.79 107.86 182.79 109.72 56.669 254.73 32.525 323.9-53.911 32.346-40.42 42.397-87.288 32.691-131.55z" style="fill-rule:evenodd;stroke-width:1.1607px;fill:#1a1a1a"/><rect width="41.429" height="455.71" x="254.29" y="85.219" rx="45.391" ry="6.257" style="stroke-linejoin:round;stroke-width:1.37;stroke-linecap:round;stroke-dashoffset:407.29;fill:#1a1a1a"/><path d="M267.96-50.094c-33.394.488-65.74 18.131-83.906 49.469l-.875 1.531c-26.509 47.64-10.486 108.05 36 135.78 47.074 28.082 107.66 12.13 135.34-35.625 27.682-47.754 11.949-109.23-35.125-137.31-16.182-9.653-33.946-14.099-51.438-13.844zm1.219 27.531c12.609-.184 25.429 3.042 37.094 10 33.933 20.243 45.267 64.545 25.312 98.969s-63.63 45.93-97.562 25.688c-33.51-19.99-45.047-63.533-25.938-97.875l.625-1.125c13.095-22.59 36.397-35.304 60.469-35.656z" style="stroke-width:1.7991px;fill-rule:evenodd"/></g></svg>