<svg xmlns="http://www.w3.org/2000/svg" width="744.094" height="1052.362"><path d="M363.438 196.55c-26.589 0-48.125 21.755-48.125 48.562 0 20.883 13.088 38.655 31.437 45.5-2.748 8.33-3.403 18.285-3.687 26.969-100.53 5.5-178.386 16.7-177.97 26.062.413 9.264 77.348 13.479 176.438 10.22-4.58 130.49 9.188 262.236-15.844 391.25-38.984 14.708-87.27 23.25-124.062-1.532-13.907-9.776-25.17-30.318-30.687-47.656 15.223 2.257 29.81 8.648 52.968 4.625-55.37-35.839-73.3-78.95-44.094-131.25-78.18 37.575-54.433 126.44-79.343 158.687 20.953-19.469 36.069-28.089 48.719-31.25 2.239 34.658 31.938 65.487 61.687 78.375C268.127 801.597 334 817.68 378.094 865.925l.062 2.25c41.8-50.6 107.1-69.74 163.25-98.938 29.121-14.25 57.366-46.431 58-81.156 12.783 2.573 28.295 10.489 50.125 28.969-26.374-31.061-6.76-120.922-86.593-154.844 31.593 50.894 15.685 94.797-37.97 133.156 23.32 2.948 37.586-4.135 52.688-7.094-4.71 17.575-15.028 38.623-28.468 49.032-35.609 26.456-84.221 20.172-123.844 7.28-31.189-128.626-23.209-261.869-34.156-392.905 100.025-5.52 177.352-16.67 176.937-26-.418-9.38-79.244-13.616-180.125-10.125-.762-8.653-2.084-18.184-5.437-25.875 17.079-7.453 29.03-24.602 29.03-44.563 0-26.807-21.567-48.562-48.156-48.562zm-.313 18.53c15.421 0 27.906 13.014 27.906 29.063 0 15.025-10.95 27.389-25 28.907-.02.002-.042-.002-.062 0-.113.012-.233.017-.344.03-.827.078-1.654.126-2.5.126-15.421 0-27.906-13.013-27.906-29.063s12.485-29.062 27.906-29.062z" style="fill:#000;stroke:#fff;stroke-width:1px;stroke-linecap:butt;stroke-linejoin:miter;stroke-opacity:1"/></svg>