<svg xmlns="http://www.w3.org/2000/svg" width="230.625" height="287.813"><path d="M112.969 286.5c-1.031-.667-5.672-3.444-10.313-6.17-21.636-12.71-62.372-39.015-69.212-44.693-3.57-2.963-4.832-2.776-6.614.98-1.615 3.404-3.462 4.595-5.758 3.714-1.627-.625-5.28-6.063-13.126-19.55-3-5.156-6.016-10.04-6.7-10.855C.56 209.112 0 207.53 0 206.411c0-2.767 2.394-2.667 15.32.643 5.753 1.473 13.667 3.392 17.586 4.265 9.002 2.005 9.816 2.764 7.022 6.549-2.613 3.539-3.394 5.6-2.576 6.797.968 1.414 33.237 21.203 46.41 28.46 5.533 3.048 8.177 4.718 19.357 12.223 3.503 2.35 4.376 2.604 5.182 1.502.646-.884.899-19.234.758-55.103-.117-29.578-.234-76.243-.26-103.7l-.049-49.922-7.266-.016c-14.326-.03-46.637 3.155-73.098 7.207-12.14 1.86-14.148 1.287-8.933-2.548 2.097-1.542 6.803-4.037 10.46-5.544 3.656-1.508 7.808-3.39 9.227-4.183 2.567-1.435 15.209-5.11 24.141-7.02 2.578-.55 7.43-1.625 10.782-2.388 3.351-.763 11.674-1.832 18.495-2.376s13.044-1.234 13.829-1.535c2.306-.885 1.925-9.8-.539-12.625-7.629-8.749-5.18-20.1 5.379-24.935 7.236-3.313 14.421-2.158 20.221 3.25 5.678 5.293 4.27 16.15-2.717 20.958-2.684 1.847-4.048 3.476-4.056 4.847-.008 1.135-.251 2.95-.542 4.034-.994 3.702 1.808 5.112 9.778 4.92 8.017-.191 16.775.542 24.523 2.056l10.316 2.011c19.887 3.872 46.983 13.627 47.674 17.164.3 1.535-.21 1.63-5.625 1.05-13.56-1.45-48.336-3.629-64.145-4.017-15.798-.388-17.094-.292-19.22 1.429l-2.278 1.845v57.505c0 112.51.406 146.099 1.763 146.099.68 0 2.898-1.204 4.929-2.675 2.03-1.47 5.363-3.206 7.406-3.857 2.043-.65 5.613-2.341 7.934-3.757 12.957-7.906 22.53-13.243 25.855-14.416 2.069-.73 5.898-2.642 8.51-4.249s4.988-2.921 5.28-2.921c1.032 0 11.837-6.743 12.945-8.078.894-1.077.737-1.776-.773-3.434-3.596-3.95-4.138-5.89-2.149-7.69 1.718-1.555 28.718-9.834 32.128-9.852 2.194-.012 2.077 1.36-.771 8.994-1.327 3.556-2.766 7.52-3.198 8.81-.432 1.289-2.088 5.889-3.681 10.222s-2.896 8.025-2.896 8.203c0 1.233-3.185-.09-4.863-2.02-1.262-1.45-3.032-2.343-4.65-2.343-2.743 0-11.18 4.259-21.425 10.815-10.397 6.654-35.71 21.308-43.89 25.41-4.287 2.15-8.506 4.532-9.374 5.295-.87.762-3.348 2.275-5.51 3.362-2.16 1.086-5.49 3.034-7.396 4.328-3.855 2.616-5.593 2.832-8.361 1.04m4.734-5.183c.49-.479 3.19-1.771 6-2.873 2.81-1.101 6.967-3.255 9.236-4.787 2.269-1.531 6.298-3.88 8.953-5.222 2.655-1.34 7.99-4.42 11.858-6.843 8.316-5.21 17.019-10.308 28.594-16.75 4.64-2.583 10.336-5.867 12.656-7.298s6.463-3.648 9.206-4.926c4.448-2.07 5.336-2.196 8.198-1.161 1.766.638 3.614.91 4.108.606.494-.306 1.811-3.602 2.928-7.325s2.402-7.502 2.857-8.397.828-2.527.828-3.625c0-1.703-.38-1.906-2.578-1.38-1.418.34-4.295.996-6.394 1.457-2.1.46-5.58 1.543-7.735 2.405-4.861 1.946-5.19 4.609-1.025 8.32l2.893 2.577-2.844 1.562c-1.564.859-6.557 3.614-11.096 6.123a1180 1180 0 0 1-14.815 8.04c-3.61 1.912-8.347 4.606-10.528 5.985s-4.193 2.508-4.472 2.508c-.278 0-2.247 1.098-4.374 2.441-11.411 7.204-34.532 19.66-34.532 18.605 0-.256-1.018.203-2.263 1.018-2.099 1.375-2.297 1.36-2.725-.213-.255-.932-.494-16.883-.532-35.445s-.297-65.39-.575-104.063c-.278-38.672-.24-72.091.084-74.266.378-2.534 1.16-4.135 2.181-4.458.876-.278 9.162-.459 18.414-.401s18.51.066 20.572.019c2.063-.047 10.188.82 18.056 1.924 7.867 1.105 14.617 1.697 14.998 1.316.896-.896-2.454-3.353-4.572-3.353-.895 0-7.248-1.32-14.117-2.935-13.082-3.075-20.238-4.026-40.968-5.444-6.897-.472-13.014-1.332-13.593-1.912-.594-.593-.953-3.364-.823-6.342.237-5.406 3.322-11.505 6.748-13.338 2.545-1.362 4.03-6.953 2.93-11.034-1.762-6.548-2.847-7.298-10.255-7.098-7.327.199-10.62 1.741-12.827 6.009-2.811 5.437-1.03 12.073 4.253 15.834 2.711 1.931 2.827 2.299 2.827 9.004 0 6.39-.182 7.058-2.11 7.782-1.16.435-8.86 1.467-17.11 2.293-8.25.825-19.203 2.146-24.342 2.934-9.667 1.483-27.149 6.073-30.179 7.925-2.05 1.252 1.789 1.088 27.334-1.165 9.282-.818 23.414-1.613 31.407-1.766l14.53-.278.58 5.384c.974 9.073.92 216.335-.057 216.335-.485 0-6.708-3.637-13.827-8.083-7.12-4.445-16.742-10.197-21.383-12.78-8.364-4.658-15.472-9.232-32.005-20.593-14.598-10.032-14.753-10.183-13.425-13.098 1.887-4.142.784-5.013-8.622-6.81-4.818-.92-9.182-1.983-9.698-2.363-.515-.38-1.912-.929-3.104-1.221-3.171-.778-3.604 1.607-.943 5.192 1.24 1.67 4.064 6.122 6.275 9.893 2.21 3.77 4.679 7.109 5.484 7.418.941.36 2.336-.498 3.907-2.406 2.42-2.94 2.467-2.952 4.938-1.324 1.373.904 6.857 4.542 12.188 8.085 22.048 14.651 47.218 30.59 48.308 30.59.32 0 1.888.96 3.484 2.134 5.13 3.775 14.541 9.209 16.652 9.615 1.127.217 2.48.826 3.008 1.354 1.187 1.187 1.832 1.206 2.975.089m-4.317-256.445c-1.317-.716-3.167-2.737-4.112-4.49-1.518-2.82-1.566-3.501-.417-5.89 2.614-5.437 10.275-8.526 14.945-6.027 2.011 1.077 4.635 5.605 4.635 7.998 0 .856-1.878 3.408-4.174 5.672-4.439 4.375-6.781 4.965-10.877 2.737m7.343-4.769c4.14-2.9 1.518-9.79-3.726-9.79-1.802 0-4.503 4.442-4.503 7.406 0 3.515 4.679 4.87 8.229 2.384" style="fill:#000"/></svg>