<svg xmlns="http://www.w3.org/2000/svg" width="436.875" height="615"><path d="M211.078 613.763c-.564-.68-1.684-4.074-2.488-7.541-1.726-7.442-5.156-15.544-7.345-17.352-.856-.708-1.558-1.799-1.558-2.425s-2.847-3.867-6.328-7.202c-5.625-5.392-9.922-8.494-26.722-19.295-6.034-3.879-26.683-12.093-51.324-20.417-10.382-3.507-26.891-12.033-38.072-19.661-11.41-7.784-27.703-23.81-34.512-33.943-9.045-13.461-12.362-19.07-17.076-28.874-2.857-5.942-5.513-10.803-5.902-10.803s-1.658 3.48-2.82 7.734c-2.182 7.992-3.247 10.079-5.139 10.079-1.372 0-2.451-3.094-6.065-17.387C1.3 429.166 0 418.31 0 398.849c0-16.498.532-22.473 4.201-47.203 1.593-10.733 3.515-13.574 7.442-11 1.314.86 2.652 2.612 2.973 3.89.321 1.28.855 2.158 1.187 1.953s.651.958.71 2.585c.25 6.902 7.273 26.892 15.814 45.012 1.298 2.754 2.36 5.399 2.36 5.877 0 .87 6.499 10.339 12.361 18.012 1.71 2.237 6.694 7.265 11.077 11.172 8.996 8.019 11.663 11.511 10.82 14.167-1.084 3.417-6.316 3.324-13.224-.235-4.763-2.454-19.597-5.961-21.788-5.15-1.928.712-1.89.887 1.633 7.739 19.042 37.018 48.36 60.352 87.715 69.81 15.265 3.67 24.044 4.83 38.438 5.087 13.527.24 24.969-1.692 29.616-5 1.436-1.023 3.795-4.276 5.24-7.228 2.537-5.18 2.653-6.058 3.307-25.056.372-10.828.913-20.531 1.201-21.562s.916-61.57 1.395-134.532c.479-72.96 1.167-147.738 1.529-166.171l.657-33.516-8.347-.012c-10.613-.015-36.125-2.197-54.286-4.643-37.737-5.082-71.301-10.707-73.176-12.262-2.98-2.474-4.27-14.506-2.194-20.463 1.433-4.11 3.636-5.003 13.438-5.452 4.672-.214 19.464-.999 32.87-1.744s39.477-1.378 57.936-1.405 34.174-.285 34.922-.573c.76-.291 1.36-1.732 1.36-3.264 0-1.864.587-2.96 1.83-3.42 1.745-.645 1.701-.87-.928-4.785-5.277-7.857-5.685-12.993-2.474-31.116 1.698-9.587 2.7-12.81 5.347-17.215 5.452-9.073 9.562-13.053 17.448-16.899 11.22-5.471 18.28-5.61 24.127-.476 4.345 3.815 8.264 12.976 8.796 20.562.499 7.121-2.23 20.096-5.613 26.69-3.524 6.866-13.083 18.373-16.892 20.332-1.933.994-3.515 2.02-3.515 2.281 0 .26 1.026.863 2.28 1.34 1.67.635 2.36 1.696 2.578 3.961l.298 3.094 25.781.662c24.823.638 58.24 2.58 78.675 4.575 10.403 1.015 19.128 2.762 22.315 4.468 2.686 1.437 4.948 8.67 4.948 15.823 0 5.855-.061 6-3.047 7.242-1.676.697-8.954 2.168-16.172 3.267-7.219 1.1-15.656 2.398-18.75 2.884-6.844 1.074-11.584 1.493-30.938 2.734-8.25.529-21.539 1.393-29.531 1.921a5428 5428 0 0 1-23.606 1.509c-4.99.302-9.708 1.04-10.483 1.638-1.189.92-1.57 7.691-2.437 43.277-.896 36.758-2.782 244.937-2.832 312.53l-.017 23.78 3.945 3.606c4.844 4.428 9.49 5.564 22.585 5.522 18.82-.06 38.75-2.329 48.47-5.518 13.23-4.342 21.579-7.68 25.781-10.307 2.063-1.29 6.492-3.777 9.844-5.529s7.554-4.3 9.339-5.665c1.784-1.365 4.153-3.114 5.263-3.887 2.603-1.814 9.492-6.955 12.905-9.631 4.41-3.458 22.232-23.278 21.702-24.135-.665-1.076-7.372 1.326-13.115 4.697-7.018 4.119-10.761 5.754-11.76 5.137-.493-.305-.897-1.808-.897-3.341 0-6.092 4.603-13.002 15.805-23.73 5.621-5.384 10.36-11.34 13.02-16.365a775 775 0 0 1 3.022-5.625c4.892-9.014 9.488-24.112 12.168-39.976 3.238-19.158 4.36-22.84 7.183-23.548 1.307-.328 2.742-.226 3.188.226 1.301 1.318 5.307 16.099 6.576 24.26.64 4.124 1.53 7.9 1.977 8.39.446.49.811 2.498.811 4.463s.607 7.47 1.347 12.234c2.316 14.891 3.353 36.609 2.384 49.912-1.014 13.914-1.788 18.26-4.123 23.16-2.352 4.934-3.984 6.101-4.718 3.374a3608 3608 0 0 0-1.597-5.909c-.56-2.062-1.705-5.174-2.546-6.916-1.662-3.444-9.188-12.302-10.452-12.302-.43 0-2.152 2.425-3.827 5.39s-3.79 6.364-4.698 7.552c-.91 1.19-2.596 4.142-3.75 6.563-2.007 4.216-20.746 23.832-29.278 30.65-1.936 1.548-4.87 3.9-6.521 5.23-1.651 1.328-5.322 3.91-8.158 5.736-2.836 1.827-7.688 4.957-10.781 6.956-14.411 9.312-28.29 16.521-42.188 21.914-18.445 7.157-40.82 17.098-46.252 20.549-2.92 1.855-6.513 3.993-7.982 4.75-5.378 2.771-15.42 14.204-21.879 24.91-2.309 3.828-7.814 17.274-9.29 22.69-.423 1.554-5.497 1.506-6.8-.065m20.59-556.509c6.009-6.685 14.891-27.161 14.873-34.285-.01-3.787-.824-4.8-4.505-5.598-12.16-2.64-23.05 11.272-24.304 31.047-.764 12.053.18 13.737 7.268 12.963 2.39-.26 4.202-1.382 6.669-4.127" style="fill:#000"/></svg>