<svg xmlns="http://www.w3.org/2000/svg" viewBox="0 0 501.76 465"><path fill="#c3a985" d="M434.48 236.1c-1.54 14.475-.918 18.454-2.457 32.929 16.07.516 29.878 2.951 45.75 8.375-5.494 7.414-16.422 15.78-25.01 19.877-7.331 3.496-15.124 4.05-22.777 4.698l-10.466 36.067c18.426-3.463 35.574-9.877 52.248-21.864 11.858-8.526 18.011-18.62 24.901-29.767 3.427-5.545 5.035-9.137 5.035-13.75 0-10.444.7-11.886-3.028-19.971-2.329-5.052-10.393-8.167-14.108-8.87-18.9-3.582-32.88-5.034-50.088-7.725z"/><path fill="#c3a985" d="M-867.36 55.548c0 125.12-101.43 226.55-226.55 226.55s-226.55-101.43-226.55-226.55 101.43-226.55 226.55-226.55 226.55 101.43 226.55 226.55" style="color:#000" transform="matrix(.9846 0 0 .94311 1300.123 161.3)"/><path fill="#d9c9b3" d="M-867.36 55.548c0 125.12-101.43 226.55-226.55 226.55s-226.55-101.43-226.55-226.55 101.43-226.55 226.55-226.55 226.55 101.43 226.55 226.55" style="color:#000" transform="matrix(.9846 0 0 .94311 1300.123 161.3)"/><path fill="#d0bca0" d="M451.68 240.3c-4.215-.48-7.527 25.438-2.615 26.788 11.434 3.143 15.974 3.65 29.012 5.75 5.515.89 13.608 2.76 17.732-.109s2.188-16.106.83-19.195c-1.678-3.64-9.158-6.712-11.346-7.127-13.662-3.21-23.703-4.977-33.612-6.107z"/><path fill="#e4d9c9" d="M-1073 1789.1c-121.25 0-220.11 97.698-220.11 213.84s98.409 207.75 219.66 207.75c99.196 0 184.72-61.8 206.66-147.22.333-1.297-1.257-3.522-1.906-1.468-27.286 86.36-108.34 144.56-204.75 144.56-117.9 0-213.88-91.664-213.88-204.59s95.569-206.19 213.47-206.19c76.359 0 146.83 39.402 184.67 98 1.363 2.111 5.98 1.619 4.219-1.375-36.8-62.528-107.99-103.3-188.02-103.3z" style="color:#000" transform="translate(1296.9 -1785.9)"/><path fill="#c3a985" d="M-860.36 2002c0 112.93-95.576 204.48-213.48 204.48s-213.48-91.548-213.48-204.48 95.576-204.48 213.48-204.48 213.48 91.548 213.48 204.48" style="color:#000" transform="translate(1296.9 -1785.9)"/><path fill="#d9c9b3" d="M-949.95 673.43c0 75.225-60.982 136.21-136.21 136.21-75.225 0-136.21-60.982-136.21-136.21 0-75.225 60.982-136.21 136.21-136.21 75.225 0 136.21 60.982 136.21 136.21" style="color:#000" transform="matrix(1.551 0 0 1.4318 1907.71 -739.1)"/><path fill="#c3a985" d="M-1296.7 2007.5c-.1 2.882-.187 5.758-.187 8.666 0 129.66 99.882 234.8 223.07 234.8s223.04-105.13 223.04-234.8c0-2.908-.056-5.784-.156-8.666-6.717 115.94-102.45 204.09-222.89 204.09s-214.34-90.864-222.89-204.09z" style="color:#000" transform="translate(1296.9 -1785.9)"/><path fill="#c3a985" d="M-874.16 1301c0 108.44-87.91 196.35-196.35 196.35s-196.35-87.91-196.35-196.35 87.91-196.35 196.35-196.35 196.35 87.91 196.35 196.35" style="color:#000" transform="matrix(.95046 0 0 .73684 1241.821 -794.94)"/><path fill="#ceba9d" d="M-899.63 2031.5c10.35 25.055 6.78 36.377-7.513 47.604-16.673 13.401-21.22 46.514-41.778 70.667-13.43 25.525-34.613 24.579-44.952 28.832-21.723 18.854-46.8 7.493-76.527-.684-14.44-6.028-45.064 15.066-73.636.48-28.21-1.856-46.13-21.102-52.956-42.72-19.004-5.329-24.745-32.242-26.037-59.966-12.19-10.146-27.848-24.853-17.707-45.076 6.366-14.686 25.672-57.294 24.872-82.322-.52-25.513 8.052-31.738 23.285-36.328 5.078-18.297 52.683-51.81 66.64-51.638 30.208-5.844 31.823-10.316 46.874-3.494 16.059 7.855 50.684-7.478 81.202 1.617 13.833-.084 36.17 29.701 48.403 54.958 5.974 20.346 31.029 33.135 29.057 51.652 1.708 28.09 20.97 17.491 26.767 49.371 3.097-10.07-12.316 26.864-7.983 17.26" style="color:#000" transform="translate(1296.9 -1785.9)"/><path fill="#b6966b" d="M-875.99 2124.7c-48.303 72.923-140.37 117.47-226.25 107.52-66.95-7.762-131.77-50.621-169.07-107.49 34.286 72.875 110.74 124.05 191.72 126.16 71.459 1.859 141.72-34.158 182.96-92.112a237 237 0 0 0 20.631-34.075z" style="color:#000" transform="translate(1296.9 -1785.9)"/><path fill="#b6966b" d="M-1000.1 3.766c0 41.11-33.327 74.437-74.437 74.437s-74.438-33.327-74.438-74.437 33.327-74.437 74.438-74.437 74.437 33.327 74.437 74.437" style="color:#000" transform="translate(1379.157 244.11)scale(1.0723)"/><path fill="#ceba9d" d="M-1000.1 3.766c0 41.11-33.327 74.437-74.437 74.437s-74.438-33.327-74.438-74.437 33.327-74.437 74.438-74.437 74.437 33.327 74.437 74.437" style="color:#000" transform="translate(1330.121 244.28)scale(1.0267)"/><path fill="#e4d9c9" d="M-1162.1 674.68c-36.981 68.059 22.818 98.513 32.777 97.359-30.81-18.024-45.882-58.158-34.663-92.023.565-1.8 1.19-3.582 1.886-5.336zM-1009.6 720.25c-6.892 35.222-40.421 63.491-76.022 63.086 28.978 11.268 73.674-15.053 75.312-53.127.453-3.3.676-6.63.71-9.959z" style="color:#000" transform="translate(1314.537 -455.4)"/><path fill="#c3a985" d="M-1073 628.54c-41.426-7.8-81.462 18.647-89.434 59.081a75 75 0 0 0-1.065 7.41c9.788-38.84 45.544-71.145 91.904-60.413 44.288 10.253 62.985 49.97 57.332 88.514a74 74 0 0 0 1.829-7.265c7.972-40.434-19.14-79.526-60.566-87.327z" style="color:#000" transform="translate(1314.537 -455.4)"/><path fill="#e4d9c9" d="M452.78 246c-1.096.26-3.414 4.928-3.258 6.077.458 3.375.374 3.849 2.176 6.071 3.554 4.384 11.292 3.466 14.438 4.145 8.487 1.833 13.249-.834 14.086-4.465.906-3.931-2.796-9.021-11.264-10.825-3.17-.675-10.295-2.4-16.178-1.003z"/><path fill="#b6966b" d="M477.78 277.4c-5.494 7.414-16.442 15.778-25.031 19.875-5.527 2.637-11.306 3.598-17.094 4.188-2.327 7.702-2.659 9.639-5.698 16.974 9.428-3.21 27.589-8.83 38.596-16.507 11.279-7.869 18.32-17.908 20.946-23.592-2.914-.244-5.993-.552-8.813-.75h-.031a26 26 0 0 1-2.875-.188"/><path fill="#e4d9c9" d="M490.57 255.4c-4.1-2.13-5.122 4.925-2.737 7.205.84.802 2.543 1.095 3.53 1.38.878.253 1.868.764 2.232.14.573-.98.901-4.397-.216-5.464-1.122-1.073-2.023-1.659-2.809-3.261"/><path fill="#410000" d="M-984.05 1385.3c0 149.77-121.41 271.19-271.19 271.19-149.77 0-271.19-121.41-271.19-271.19 0-149.77 121.41-271.19 271.19-271.19 149.77 0 271.19 121.41 271.19 271.19" style="color:#000" transform="matrix(.70985 0 0 .71353 1114.05 -761.8)"/><path fill="#300" d="M-984.05 1385.3c0 149.77-121.41 271.19-271.19 271.19-149.77 0-271.19-121.41-271.19-271.19 0-149.77 121.41-271.19 271.19-271.19 149.77 0 271.19 121.41 271.19 271.19" style="color:#000" transform="matrix(.66903 0 0 .67251 1062.82 -704.97)"/><path fill="#5f0000" fill-opacity=".233" d="M-1040.8 1271.5c-23.147.118-47.281 4.334-70.844 13.125-83.778 31.258-128.67 108.35-100.25 172.19 17.763 39.899 59.964 65.189 109.56 70.906 1.24.143 2.47.257 3.719.375s2.524.219 3.781.312c1.258.094 2.516.182 3.781.25q.594.033 1.188.063 2.104.1 4.219.157 2.476.063 4.968.062h1.094q1.942-.014 3.875-.062a194 194 0 0 0 9.844-.5c72.829-5.57 134.33-51.856 162-116.28 6.26-22.782 5.193-46.414-4.625-68.47-20.427-45.883-73.16-72.426-132.31-72.124z" style="color:#000" transform="translate(1303.71 -1108.77)"/><path fill="#6e3617" d="M-1121.5 1157.7c-25.76 6.733-38.635 13.568-57.522 28.271-23.976 14.589-34.61 31.787-47.254 50.498-12.024 20.621-32.856 42.612-32.34 65.165-4.972 24.473-.255 48.271.355 73.901 4.489 23.787 22.016 46.322 31.223 66.188 14.163 18.176 25.588 35.34 49.925 46.585 17.123 13.937 44.58 21.638 63.164 26.561 23.324 3.22 48.225 3.977 75.076-2.894 19.852-4.829 57.609-16.456 72.465-29.754 17.522-14.353 28.738-30.07 45.17-51.198 7.568-18.762 25.963-41.912 26.636-63.745 5.78-22.666-2.024-49.111-7.849-72.593-.72-25.814-17.88-43.79-29.617-64.44-11.105-18.986-30.635-35.588-52.59-48.51-20.716-13.286-38.146-21.295-56.459-26.606-27.925-3-50.728-4.322-79.973 1.979 3.825-1.456 4.658-.686 9.1-1.212m-2.389 24.389c22.846-6.053 41.735-2.555 66.222-.243 16.057 5.14 32.805 9.968 53 20.9 21.587 9.514 26.3 27.097 42.277 43.484 10.201 18.026 23.432 35.508 33.074 55.726.364 21.773 3.169 41.738 2.246 62.182-7.544 21.626-13.144 41.323-24.654 57.521-8.277 15.635-18.49 30.881-39.1 43.056-11.75 10.742-42.804 21.792-61.571 26.901-23.135 6.091-39.705 3.457-59.756-1.274-19.478-4.845-36.236-10.903-56.087-20.306-14.165-12.286-42.078-23.123-50.747-41.288-15.964-15.27-15.555-37.732-16.04-59.43-9.511-20.027-14.271-40.154-8.545-61.7 4.255-19.293 11.618-40.316 25.442-57.225 6.066-16.332 26.549-29.632 43.619-42.652 16.088-10.773 31.396-20.642 55.06-26.789-2.26-.423-7.483 2.361-3.77.9" style="color:#000" transform="translate(1303.71 -1108.77)"/><path fill="#8f451e" d="M-539.6 2103.2c0 31.37-25.43 56.8-56.8 56.8s-56.8-25.43-56.8-56.8 25.43-56.8 56.8-56.8 56.8 25.43 56.8 56.8" style="color:#000" transform="matrix(.13946 -.03118 .02304 .10308 77.71 -11.77)"/><path fill="#210000" d="M-539.6 2103.2c0 31.37-25.43 56.8-56.8 56.8s-56.8-25.43-56.8-56.8 25.43-56.8 56.8-56.8 56.8 25.43 56.8 56.8" style="color:#000" transform="matrix(.1243 -.02779 .02054 .09188 73.937 13.815)"/><path fill="#e3b7b7" fill-opacity=".539" d="M-539.6 2103.2c0 31.37-27.443 8.7-58.813 8.7s-54.786 22.67-54.786-8.7 22.764-71.662 54.134-71.662 59.466 40.293 59.466 71.662z" style="color:#000" transform="matrix(.04239 -.02416 .01149 .01278 41.424 179.47)"/><path fill="#e3b7b7" fill-opacity=".539" d="M-566.35 2116.5c-2.722.227-6.43 6.628-11.431 10.226-4.666 3.356-10.177 5.39-15.723 6.848-6.15 1.618-11.339-.044-11.959 1.615-2.171 3.322-.964 7.724 1.564 10.48 3.65 4.011 9.386 5.028 14.572 5.031 11.312-.275 22.2-6.642 28.343-16.088 2.504-3.886 4.244-9.005 2.166-13.455-1.434-3.227-4.03-5.166-7.533-4.656z" style="color:#000" transform="matrix(.13946 -.03118 .02304 .10308 77.71 -11.77)"/><path fill="#8f451e" d="M-539.6 2103.2c0 31.37-25.43 56.8-56.8 56.8s-56.8-25.43-56.8-56.8 25.43-56.8 56.8-56.8 56.8 25.43 56.8 56.8" style="color:#000" transform="matrix(.12107 -.02707 .02 .08949 81.81 58.33)"/><path fill="#210000" d="M-539.6 2103.2c0 31.37-25.43 56.8-56.8 56.8s-56.8-25.43-56.8-56.8 25.43-56.8 56.8-56.8 56.8 25.43 56.8 56.8" style="color:#000" transform="matrix(.10791 -.02412 .01783 .07976 78.534 80.541)"/><path fill="#e3b7b7" fill-opacity=".539" d="M-539.6 2103.2c0 31.37-27.443 8.7-58.813 8.7s-54.786 22.67-54.786-8.7 22.764-71.662 54.134-71.662 59.466 40.293 59.466 71.662z" style="color:#000" transform="matrix(.0368 -.02097 .00997 .0111 50.308 224.35)"/><path fill="#e3b7b7" fill-opacity=".539" d="M-566.35 2116.5c-2.722.227-6.43 6.628-11.431 10.226-4.666 3.356-10.177 5.39-15.723 6.848-6.15 1.618-11.339-.044-11.959 1.615-2.171 3.322-.964 7.724 1.564 10.48 3.65 4.011 9.386 5.028 14.572 5.031 11.312-.275 22.2-6.642 28.343-16.088 2.504-3.886 4.244-9.005 2.166-13.455-1.434-3.227-4.03-5.166-7.533-4.656z" style="color:#000" transform="matrix(.12107 -.02707 .02 .08949 81.81 58.33)"/><path fill="#8f451e" d="M-539.6 2103.2c0 31.37-25.43 56.8-56.8 56.8s-56.8-25.43-56.8-56.8 25.43-56.8 56.8-56.8 56.8 25.43 56.8 56.8" style="color:#000" transform="matrix(.19359 -.04328 .03199 .14309 108.61 -25.07)"/><path fill="#210000" d="M-539.6 2103.2c0 31.37-25.43 56.8-56.8 56.8s-56.8-25.43-56.8-56.8 25.43-56.8 56.8-56.8 56.8 25.43 56.8 56.8" style="color:#000" transform="matrix(.17255 -.03857 .02851 .12754 103.372 10.446)"/><path fill="#e3b7b7" fill-opacity=".539" d="M-539.6 2103.2c0 31.37-27.443 8.7-58.813 8.7s-54.786 22.67-54.786-8.7 22.764-71.662 54.134-71.662 59.466 40.293 59.466 71.662z" style="color:#000" transform="matrix(.05884 -.03353 .01595 .01774 58.24 240.398)"/><path fill="#e3b7b7" fill-opacity=".539" d="M-566.35 2116.5c-2.722.227-6.43 6.628-11.431 10.226-4.666 3.356-10.177 5.39-15.723 6.848-6.15 1.618-11.339-.044-11.959 1.615-2.171 3.322-.964 7.724 1.564 10.48 3.65 4.011 9.386 5.028 14.572 5.031 11.312-.275 22.2-6.642 28.343-16.088 2.504-3.886 4.244-9.005 2.166-13.455-1.434-3.227-4.03-5.166-7.533-4.656z" style="color:#000" transform="matrix(.19359 -.04328 .03199 .14309 108.61 -25.07)"/><path fill="#8f451e" d="M-539.6 2103.2c0 31.37-25.43 56.8-56.8 56.8s-56.8-25.43-56.8-56.8 25.43-56.8 56.8-56.8 56.8 25.43 56.8 56.8" style="color:#000" transform="matrix(.252 -.05634 .04164 .18626 123.41 -246.58)"/><path fill="#210000" d="M-539.6 2103.2c0 31.37-25.43 56.8-56.8 56.8s-56.8-25.43-56.8-56.8 25.43-56.8 56.8-56.8 56.8 25.43 56.8 56.8" style="color:#000" transform="matrix(.2246 -.05021 .03711 .16601 116.593 -200.349)"/><path fill="#e3b7b7" fill-opacity=".539" d="M-539.6 2103.2c0 31.37-27.443 8.7-58.813 8.7s-54.786 22.67-54.786-8.7 22.764-71.662 54.134-71.662 59.466 40.293 59.466 71.662z" style="color:#000" transform="matrix(.0766 -.04365 .02076 .0231 57.844 98.98)"/><path fill="#e3b7b7" fill-opacity=".539" d="M-566.35 2116.5c-2.722.227-6.43 6.628-11.431 10.226-4.666 3.356-10.177 5.39-15.723 6.848-6.15 1.618-11.339-.044-11.959 1.615-2.171 3.322-.964 7.724 1.564 10.48 3.65 4.011 9.386 5.028 14.572 5.031 11.312-.275 22.2-6.642 28.343-16.088 2.504-3.886 4.244-9.005 2.166-13.455-1.434-3.227-4.03-5.166-7.533-4.656z" style="color:#000" transform="matrix(.252 -.05634 .04164 .18626 123.41 -246.58)"/><path fill="#8f451e" d="M-539.6 2103.2c0 31.37-25.43 56.8-56.8 56.8s-56.8-25.43-56.8-56.8 25.43-56.8 56.8-56.8 56.8 25.43 56.8 56.8" style="color:#000" transform="matrix(.17175 -.0384 .02838 .12694 107.71 -91.67)"/><path fill="#210000" d="M-539.6 2103.2c0 31.37-25.43 56.8-56.8 56.8s-56.8-25.43-56.8-56.8 25.43-56.8 56.8-56.8 56.8 25.43 56.8 56.8" style="color:#000" transform="matrix(.15308 -.03422 .0253 .11314 103.063 -60.162)"/><path fill="#e3b7b7" fill-opacity=".539" d="M-539.6 2103.2c0 31.37-27.443 8.7-58.813 8.7s-54.786 22.67-54.786-8.7 22.764-71.662 54.134-71.662 59.466 40.293 59.466 71.662z" style="color:#000" transform="matrix(.0522 -.02975 .01415 .01574 63.021 143.837)"/><path fill="#e3b7b7" fill-opacity=".539" d="M-566.35 2116.5c-2.722.227-6.43 6.628-11.431 10.226-4.666 3.356-10.177 5.39-15.723 6.848-6.15 1.618-11.339-.044-11.959 1.615-2.171 3.322-.964 7.724 1.564 10.48 3.65 4.011 9.386 5.028 14.572 5.031 11.312-.275 22.2-6.642 28.343-16.088 2.504-3.886 4.244-9.005 2.166-13.455-1.434-3.227-4.03-5.166-7.533-4.656z" style="color:#000" transform="matrix(.17175 -.0384 .02838 .12694 107.71 -91.67)"/><path fill="#8f451e" d="M-539.6 2103.2c0 31.37-25.43 56.8-56.8 56.8s-56.8-25.43-56.8-56.8 25.43-56.8 56.8-56.8 56.8 25.43 56.8 56.8" style="color:#000" transform="matrix(.19427 -.04343 .0321 .14359 122.11 -90.67)"/><path fill="#210000" d="M-539.6 2103.2c0 31.37-25.43 56.8-56.8 56.8s-56.8-25.43-56.8-56.8 25.43-56.8 56.8-56.8 56.8 25.43 56.8 56.8" style="color:#000" transform="matrix(.17315 -.0387 .02861 .12798 116.854 -55.03)"/><path fill="#e3b7b7" fill-opacity=".539" d="M-539.6 2103.2c0 31.37-27.443 8.7-58.813 8.7s-54.786 22.67-54.786-8.7 22.764-71.662 54.134-71.662 59.466 40.293 59.466 71.662z" style="color:#000" transform="matrix(.05905 -.03365 .016 .0178 71.562 175.726)"/><path fill="#e3b7b7" fill-opacity=".539" d="M-566.35 2116.5c-2.722.227-6.43 6.628-11.431 10.226-4.666 3.356-10.177 5.39-15.723 6.848-6.15 1.618-11.339-.044-11.959 1.615-2.171 3.322-.964 7.724 1.564 10.48 3.65 4.011 9.386 5.028 14.572 5.031 11.312-.275 22.2-6.642 28.343-16.088 2.504-3.886 4.244-9.005 2.166-13.455-1.434-3.227-4.03-5.166-7.533-4.656z" style="color:#000" transform="matrix(.19427 -.04343 .0321 .14359 122.11 -90.67)"/><path fill="#8f451e" d="M-539.6 2103.2c0 31.37-25.43 56.8-56.8 56.8s-56.8-25.43-56.8-56.8 25.43-56.8 56.8-56.8 56.8 25.43 56.8 56.8" style="color:#000" transform="matrix(.1818 -.04064 .03004 .13437 123.31 -50.07)"/><path fill="#210000" d="M-539.6 2103.2c0 31.37-25.43 56.8-56.8 56.8s-56.8-25.43-56.8-56.8 25.43-56.8 56.8-56.8 56.8 25.43 56.8 56.8" style="color:#000" transform="matrix(.16204 -.03623 .02678 .11976 118.392 -16.718)"/><path fill="#e3b7b7" fill-opacity=".539" d="M-539.6 2103.2c0 31.37-27.443 8.7-58.813 8.7s-54.786 22.67-54.786-8.7 22.764-71.662 54.134-71.662 59.466 40.293 59.466 71.662z" style="color:#000" transform="matrix(.05526 -.0315 .01498 .01666 76.009 199.222)"/><path fill="#e3b7b7" fill-opacity=".539" d="M-566.35 2116.5c-2.722.227-6.43 6.628-11.431 10.226-4.666 3.356-10.177 5.39-15.723 6.848-6.15 1.618-11.339-.044-11.959 1.615-2.171 3.322-.964 7.724 1.564 10.48 3.65 4.011 9.386 5.028 14.572 5.031 11.312-.275 22.2-6.642 28.343-16.088 2.504-3.886 4.244-9.005 2.166-13.455-1.434-3.227-4.03-5.166-7.533-4.656z" style="color:#000" transform="matrix(.1818 -.04064 .03004 .13437 123.31 -50.07)"/><path fill="#8f451e" d="M-539.6 2103.2c0 31.37-25.43 56.8-56.8 56.8s-56.8-25.43-56.8-56.8 25.43-56.8 56.8-56.8 56.8 25.43 56.8 56.8" style="color:#000" transform="matrix(.15384 -.0344 .02542 .11371 133.81 75.03)"/><path fill="#210000" d="M-539.6 2103.2c0 31.37-25.43 56.8-56.8 56.8s-56.8-25.43-56.8-56.8 25.43-56.8 56.8-56.8 56.8 25.43 56.8 56.8" style="color:#000" transform="matrix(.13712 -.03065 .02266 .10135 129.648 103.254)"/><path fill="#e3b7b7" fill-opacity=".539" d="M-539.6 2103.2c0 31.37-27.443 8.7-58.813 8.7s-54.786 22.67-54.786-8.7 22.764-71.662 54.134-71.662 59.466 40.293 59.466 71.662z" style="color:#000" transform="matrix(.04676 -.02665 .01267 .0141 93.784 285.992)"/><path fill="#e3b7b7" fill-opacity=".539" d="M-566.35 2116.5c-2.722.227-6.43 6.628-11.431 10.226-4.666 3.356-10.177 5.39-15.723 6.848-6.15 1.618-11.339-.044-11.959 1.615-2.171 3.322-.964 7.724 1.564 10.48 3.65 4.011 9.386 5.028 14.572 5.031 11.312-.275 22.2-6.642 28.343-16.088 2.504-3.886 4.244-9.005 2.166-13.455-1.434-3.227-4.03-5.166-7.533-4.656z" style="color:#000" transform="matrix(.15384 -.0344 .02542 .11371 133.81 75.03)"/><path fill="#8f451e" d="M-539.6 2103.2c0 31.37-25.43 56.8-56.8 56.8s-56.8-25.43-56.8-56.8 25.43-56.8 56.8-56.8 56.8 25.43 56.8 56.8" style="color:#000" transform="matrix(.12638 -.02825 .02088 .09341 131.31 140.93)"/><path fill="#210000" d="M-539.6 2103.2c0 31.37-25.43 56.8-56.8 56.8s-56.8-25.43-56.8-56.8 25.43-56.8 56.8-56.8 56.8 25.43 56.8 56.8" style="color:#000" transform="matrix(.11264 -.02518 .01861 .08326 127.891 164.116)"/><path fill="#e3b7b7" fill-opacity=".539" d="M-539.6 2103.2c0 31.37-27.443 8.7-58.813 8.7s-54.786 22.67-54.786-8.7 22.764-71.662 54.134-71.662 59.466 40.293 59.466 71.662z" style="color:#000" transform="matrix(.03841 -.0219 .01041 .01158 98.43 314.237)"/><path fill="#e3b7b7" fill-opacity=".539" d="M-566.35 2116.5c-2.722.227-6.43 6.628-11.431 10.226-4.666 3.356-10.177 5.39-15.723 6.848-6.15 1.618-11.339-.044-11.959 1.615-2.171 3.322-.964 7.724 1.564 10.48 3.65 4.011 9.386 5.028 14.572 5.031 11.312-.275 22.2-6.642 28.343-16.088 2.504-3.886 4.244-9.005 2.166-13.455-1.434-3.227-4.03-5.166-7.533-4.656z" style="color:#000" transform="matrix(.12638 -.02825 .02088 .09341 131.31 140.93)"/><path fill="#8f451e" d="M-539.6 2103.2c0 31.37-25.43 56.8-56.8 56.8s-56.8-25.43-56.8-56.8 25.43-56.8 56.8-56.8 56.8 25.43 56.8 56.8" style="color:#000" transform="matrix(.21545 -.04816 .0356 .15924 131.91 -229.78)"/><path fill="#210000" d="M-539.6 2103.2c0 31.37-25.43 56.8-56.8 56.8s-56.8-25.43-56.8-56.8 25.43-56.8 56.8-56.8 56.8 25.43 56.8 56.8" style="color:#000" transform="matrix(.19203 -.04293 .03173 .14193 126.081 -190.255)"/><path fill="#e3b7b7" fill-opacity=".539" d="M-539.6 2103.2c0 31.37-27.443 8.7-58.813 8.7s-54.786 22.67-54.786-8.7 22.764-71.662 54.134-71.662 59.466 40.293 59.466 71.662z" style="color:#000" transform="matrix(.06548 -.03732 .01775 .01974 75.853 65.652)"/><path fill="#e3b7b7" fill-opacity=".539" d="M-566.35 2116.5c-2.722.227-6.43 6.628-11.431 10.226-4.666 3.356-10.177 5.39-15.723 6.848-6.15 1.618-11.339-.044-11.959 1.615-2.171 3.322-.964 7.724 1.564 10.48 3.65 4.011 9.386 5.028 14.572 5.031 11.312-.275 22.2-6.642 28.343-16.088 2.504-3.886 4.244-9.005 2.166-13.455-1.434-3.227-4.03-5.166-7.533-4.656z" style="color:#000" transform="matrix(.21545 -.04816 .0356 .15924 131.91 -229.78)"/><path fill="#8f451e" d="M-539.6 2103.2c0 31.37-25.43 56.8-56.8 56.8s-56.8-25.43-56.8-56.8 25.43-56.8 56.8-56.8 56.8 25.43 56.8 56.8" style="color:#000" transform="matrix(.19508 -.04361 .03223 .14419 179.21 38.53)"/><path fill="#210000" d="M-539.6 2103.2c0 31.37-25.43 56.8-56.8 56.8s-56.8-25.43-56.8-56.8 25.43-56.8 56.8-56.8 56.8 25.43 56.8 56.8" style="color:#000" transform="matrix(.17387 -.03887 .02873 .12852 173.932 74.319)"/><path fill="#e3b7b7" fill-opacity=".539" d="M-539.6 2103.2c0 31.37-27.443 8.7-58.813 8.7s-54.786 22.67-54.786-8.7 22.764-71.662 54.134-71.662 59.466 40.293 59.466 71.662z" style="color:#000" transform="matrix(.0593 -.0338 .01607 .01788 128.451 306.04)"/><path fill="#e3b7b7" fill-opacity=".539" d="M-566.35 2116.5c-2.722.227-6.43 6.628-11.431 10.226-4.666 3.356-10.177 5.39-15.723 6.848-6.15 1.618-11.339-.044-11.959 1.615-2.171 3.322-.964 7.724 1.564 10.48 3.65 4.011 9.386 5.028 14.572 5.031 11.312-.275 22.2-6.642 28.343-16.088 2.504-3.886 4.244-9.005 2.166-13.455-1.434-3.227-4.03-5.166-7.533-4.656z" style="color:#000" transform="matrix(.19508 -.04361 .03223 .14419 179.21 38.53)"/><path fill="#8f451e" d="M-539.6 2103.2c0 31.37-25.43 56.8-56.8 56.8s-56.8-25.43-56.8-56.8 25.43-56.8 56.8-56.8 56.8 25.43 56.8 56.8" style="color:#000" transform="matrix(.22754 -.05087 .0376 .16818 156.91 -275.57)"/><path fill="#210000" d="M-539.6 2103.2c0 31.37-25.43 56.8-56.8 56.8s-56.8-25.43-56.8-56.8 25.43-56.8 56.8-56.8 56.8 25.43 56.8 56.8" style="color:#000" transform="matrix(.2028 -.04534 .03351 .1499 150.754 -233.827)"/><path fill="#e3b7b7" fill-opacity=".539" d="M-539.6 2103.2c0 31.37-27.443 8.7-58.813 8.7s-54.786 22.67-54.786-8.7 22.764-71.662 54.134-71.662 59.466 40.293 59.466 71.662z" style="color:#000" transform="matrix(.06916 -.03941 .01875 .02085 97.706 36.447)"/><path fill="#e3b7b7" fill-opacity=".539" d="M-566.35 2116.5c-2.722.227-6.43 6.628-11.431 10.226-4.666 3.356-10.177 5.39-15.723 6.848-6.15 1.618-11.339-.044-11.959 1.615-2.171 3.322-.964 7.724 1.564 10.48 3.65 4.011 9.386 5.028 14.572 5.031 11.312-.275 22.2-6.642 28.343-16.088 2.504-3.886 4.244-9.005 2.166-13.455-1.434-3.227-4.03-5.166-7.533-4.656z" style="color:#000" transform="matrix(.22754 -.05087 .0376 .16818 156.91 -275.57)"/><path fill="#8f451e" d="M-539.6 2103.2c0 31.37-25.43 56.8-56.8 56.8s-56.8-25.43-56.8-56.8 25.43-56.8 56.8-56.8 56.8 25.43 56.8 56.8" style="color:#000" transform="matrix(.14715 -.0329 .02431 .10876 141.31 -120.4)"/><path fill="#210000" d="M-539.6 2103.2c0 31.37-25.43 56.8-56.8 56.8s-56.8-25.43-56.8-56.8 25.43-56.8 56.8-56.8 56.8 25.43 56.8 56.8" style="color:#000" transform="matrix(.13115 -.02932 .02167 .09694 137.329 -93.405)"/><path fill="#e3b7b7" fill-opacity=".539" d="M-539.6 2103.2c0 31.37-27.443 8.7-58.813 8.7s-54.786 22.67-54.786-8.7 22.764-71.662 54.134-71.662 59.466 40.293 59.466 71.662z" style="color:#000" transform="matrix(.04472 -.02549 .01212 .01349 103.024 81.379)"/><path fill="#e3b7b7" fill-opacity=".539" d="M-566.35 2116.5c-2.722.227-6.43 6.628-11.431 10.226-4.666 3.356-10.177 5.39-15.723 6.848-6.15 1.618-11.339-.044-11.959 1.615-2.171 3.322-.964 7.724 1.564 10.48 3.65 4.011 9.386 5.028 14.572 5.031 11.312-.275 22.2-6.642 28.343-16.088 2.504-3.886 4.244-9.005 2.166-13.455-1.434-3.227-4.03-5.166-7.533-4.656z" style="color:#000" transform="matrix(.14715 -.0329 .02431 .10876 141.31 -120.4)"/><path fill="#8f451e" d="M-539.6 2103.2c0 31.37-25.43 56.8-56.8 56.8s-56.8-25.43-56.8-56.8 25.43-56.8 56.8-56.8 56.8 25.43 56.8 56.8" style="color:#000" transform="matrix(.18009 -.04026 .02976 .13311 165.81 43.93)"/><path fill="#210000" d="M-539.6 2103.2c0 31.37-25.43 56.8-56.8 56.8s-56.8-25.43-56.8-56.8 25.43-56.8 56.8-56.8 56.8 25.43 56.8 56.8" style="color:#000" transform="matrix(.16051 -.03588 .02652 .11864 160.938 76.969)"/><path fill="#e3b7b7" fill-opacity=".539" d="M-539.6 2103.2c0 31.37-27.443 8.7-58.813 8.7s-54.786 22.67-54.786-8.7 22.764-71.662 54.134-71.662 59.466 40.293 59.466 71.662z" style="color:#000" transform="matrix(.05474 -.0312 .01484 .0165 118.953 290.884)"/><path fill="#e3b7b7" fill-opacity=".539" d="M-566.35 2116.5c-2.722.227-6.43 6.628-11.431 10.226-4.666 3.356-10.177 5.39-15.723 6.848-6.15 1.618-11.339-.044-11.959 1.615-2.171 3.322-.964 7.724 1.564 10.48 3.65 4.011 9.386 5.028 14.572 5.031 11.312-.275 22.2-6.642 28.343-16.088 2.504-3.886 4.244-9.005 2.166-13.455-1.434-3.227-4.03-5.166-7.533-4.656z" style="color:#000" transform="matrix(.18009 -.04026 .02976 .13311 165.81 43.93)"/><path fill="#8f451e" d="M-539.6 2103.2c0 31.37-25.43 56.8-56.8 56.8s-56.8-25.43-56.8-56.8 25.43-56.8 56.8-56.8 56.8 25.43 56.8 56.8" style="color:#000" transform="matrix(.17225 -.0385 .02846 .12732 204.21 90.73)"/><path fill="#210000" d="M-539.6 2103.2c0 31.37-25.43 56.8-56.8 56.8s-56.8-25.43-56.8-56.8 25.43-56.8 56.8-56.8 56.8 25.43 56.8 56.8" style="color:#000" transform="matrix(.15353 -.03432 .02537 .11348 199.55 122.332)"/><path fill="#e3b7b7" fill-opacity=".539" d="M-539.6 2103.2c0 31.37-27.443 8.7-58.813 8.7s-54.786 22.67-54.786-8.7 22.764-71.662 54.134-71.662 59.466 40.293 59.466 71.662z" style="color:#000" transform="matrix(.05235 -.02984 .0142 .01579 159.394 326.94)"/><path fill="#e3b7b7" fill-opacity=".539" d="M-566.35 2116.5c-2.722.227-6.43 6.628-11.431 10.226-4.666 3.356-10.177 5.39-15.723 6.848-6.15 1.618-11.339-.044-11.959 1.615-2.171 3.322-.964 7.724 1.564 10.48 3.65 4.011 9.386 5.028 14.572 5.031 11.312-.275 22.2-6.642 28.343-16.088 2.504-3.886 4.244-9.005 2.166-13.455-1.434-3.227-4.03-5.166-7.533-4.656z" style="color:#000" transform="matrix(.17225 -.0385 .02846 .12732 204.21 90.73)"/><path fill="#8f451e" d="M-539.6 2103.2c0 31.37-25.43 56.8-56.8 56.8s-56.8-25.43-56.8-56.8 25.43-56.8 56.8-56.8 56.8 25.43 56.8 56.8" style="color:#000" transform="matrix(.19415 -.0434 .03208 .1435 118.61 -44.57)"/><path fill="#210000" d="M-539.6 2103.2c0 31.37-25.43 56.8-56.8 56.8s-56.8-25.43-56.8-56.8 25.43-56.8 56.8-56.8 56.8 25.43 56.8 56.8" style="color:#000" transform="matrix(.17305 -.03869 .0286 .1279 113.358 -8.952)"/><path fill="#e3b7b7" fill-opacity=".539" d="M-539.6 2103.2c0 31.37-27.443 8.7-58.813 8.7s-54.786 22.67-54.786-8.7 22.764-71.662 54.134-71.662 59.466 40.293 59.466 71.662z" style="color:#000" transform="matrix(.059 -.03363 .016 .0178 68.096 221.66)"/><path fill="#e3b7b7" fill-opacity=".539" d="M-566.35 2116.5c-2.722.227-6.43 6.628-11.431 10.226-4.666 3.356-10.177 5.39-15.723 6.848-6.15 1.618-11.339-.044-11.959 1.615-2.171 3.322-.964 7.724 1.564 10.48 3.65 4.011 9.386 5.028 14.572 5.031 11.312-.275 22.2-6.642 28.343-16.088 2.504-3.886 4.244-9.005 2.166-13.455-1.434-3.227-4.03-5.166-7.533-4.656z" style="color:#000" transform="matrix(.19415 -.0434 .03208 .1435 118.61 -44.57)"/><path fill="#8f451e" d="M-539.6 2103.2c0 31.37-25.43 56.8-56.8 56.8s-56.8-25.43-56.8-56.8 25.43-56.8 56.8-56.8 56.8 25.43 56.8 56.8" style="color:#000" transform="matrix(.28967 -.06476 .04786 .2141 264.21 -93.87)"/><path fill="#210000" d="M-539.6 2103.2c0 31.37-25.43 56.8-56.8 56.8s-56.8-25.43-56.8-56.8 25.43-56.8 56.8-56.8 56.8 25.43 56.8 56.8" style="color:#000" transform="matrix(.25818 -.05772 .04266 .19083 256.373 -40.729)"/><path fill="#e3b7b7" fill-opacity=".539" d="M-539.6 2103.2c0 31.37-27.443 8.7-58.813 8.7s-54.786 22.67-54.786-8.7 22.764-71.662 54.134-71.662 59.466 40.293 59.466 71.662z" style="color:#000" transform="matrix(.08804 -.05018 .02386 .02655 188.84 303.341)"/><path fill="#e3b7b7" fill-opacity=".539" d="M-566.35 2116.5c-2.722.227-6.43 6.628-11.431 10.226-4.666 3.356-10.177 5.39-15.723 6.848-6.15 1.618-11.339-.044-11.959 1.615-2.171 3.322-.964 7.724 1.564 10.48 3.65 4.011 9.386 5.028 14.572 5.031 11.312-.275 22.2-6.642 28.343-16.088 2.504-3.886 4.244-9.005 2.166-13.455-1.434-3.227-4.03-5.166-7.533-4.656z" style="color:#000" transform="matrix(.28967 -.06476 .04786 .2141 264.21 -93.87)"/><path fill="#8f451e" d="M-539.6 2103.2c0 31.37-25.43 56.8-56.8 56.8s-56.8-25.43-56.8-56.8 25.43-56.8 56.8-56.8 56.8 25.43 56.8 56.8" style="color:#000" transform="matrix(.15363 -.03435 .02539 .11355 256.71 129.83)"/><path fill="#210000" d="M-539.6 2103.2c0 31.37-25.43 56.8-56.8 56.8s-56.8-25.43-56.8-56.8 25.43-56.8 56.8-56.8 56.8 25.43 56.8 56.8" style="color:#000" transform="matrix(.13693 -.03061 .02263 .1012 252.554 158.014)"/><path fill="#e3b7b7" fill-opacity=".539" d="M-539.6 2103.2c0 31.37-27.443 8.7-58.813 8.7s-54.786 22.67-54.786-8.7 22.764-71.662 54.134-71.662 59.466 40.293 59.466 71.662z" style="color:#000" transform="matrix(.0467 -.02661 .01266 .01408 216.738 340.496)"/><path fill="#e3b7b7" fill-opacity=".539" d="M-566.35 2116.5c-2.722.227-6.43 6.628-11.431 10.226-4.666 3.356-10.177 5.39-15.723 6.848-6.15 1.618-11.339-.044-11.959 1.615-2.171 3.322-.964 7.724 1.564 10.48 3.65 4.011 9.386 5.028 14.572 5.031 11.312-.275 22.2-6.642 28.343-16.088 2.504-3.886 4.244-9.005 2.166-13.455-1.434-3.227-4.03-5.166-7.533-4.656z" style="color:#000" transform="matrix(.15363 -.03435 .02539 .11355 256.71 129.83)"/><path fill="#8f451e" d="M-539.6 2103.2c0 31.37-25.43 56.8-56.8 56.8s-56.8-25.43-56.8-56.8 25.43-56.8 56.8-56.8 56.8 25.43 56.8 56.8" style="color:#000" transform="matrix(.15333 -.03428 .02534 .11333 287.41 143.93)"/><path fill="#210000" d="M-539.6 2103.2c0 31.37-25.43 56.8-56.8 56.8s-56.8-25.43-56.8-56.8 25.43-56.8 56.8-56.8 56.8 25.43 56.8 56.8" style="color:#000" transform="matrix(.13666 -.03055 .02258 .10101 283.262 172.06)"/><path fill="#e3b7b7" fill-opacity=".539" d="M-539.6 2103.2c0 31.37-27.443 8.7-58.813 8.7s-54.786 22.67-54.786-8.7 22.764-71.662 54.134-71.662 59.466 40.293 59.466 71.662z" style="color:#000" transform="matrix(.0466 -.02656 .01263 .01405 247.515 354.187)"/><path fill="#e3b7b7" fill-opacity=".539" d="M-566.35 2116.5c-2.722.227-6.43 6.628-11.431 10.226-4.666 3.356-10.177 5.39-15.723 6.848-6.15 1.618-11.339-.044-11.959 1.615-2.171 3.322-.964 7.724 1.564 10.48 3.65 4.011 9.386 5.028 14.572 5.031 11.312-.275 22.2-6.642 28.343-16.088 2.504-3.886 4.244-9.005 2.166-13.455-1.434-3.227-4.03-5.166-7.533-4.656z" style="color:#000" transform="matrix(.15333 -.03428 .02534 .11333 287.41 143.93)"/><path fill="#8f451e" d="M-539.6 2103.2c0 31.37-25.43 56.8-56.8 56.8s-56.8-25.43-56.8-56.8 25.43-56.8 56.8-56.8 56.8 25.43 56.8 56.8" style="color:#000" transform="matrix(.25649 -.05734 .04238 .18958 339.42 -36.07)"/><path fill="#210000" d="M-539.6 2103.2c0 31.37-25.43 56.8-56.8 56.8s-56.8-25.43-56.8-56.8 25.43-56.8 56.8-56.8 56.8 25.43 56.8 56.8" style="color:#000" transform="matrix(.22861 -.0511 .03778 .16897 332.481 10.985)"/><path fill="#e3b7b7" fill-opacity=".539" d="M-539.6 2103.2c0 31.37-27.443 8.7-58.813 8.7s-54.786 22.67-54.786-8.7 22.764-71.662 54.134-71.662 59.466 40.293 59.466 71.662z" style="color:#000" transform="matrix(.07796 -.04443 .02113 .0235 272.686 315.65)"/><path fill="#e3b7b7" fill-opacity=".539" d="M-566.35 2116.5c-2.722.227-6.43 6.628-11.431 10.226-4.666 3.356-10.177 5.39-15.723 6.848-6.15 1.618-11.339-.044-11.959 1.615-2.171 3.322-.964 7.724 1.564 10.48 3.65 4.011 9.386 5.028 14.572 5.031 11.312-.275 22.2-6.642 28.343-16.088 2.504-3.886 4.244-9.005 2.166-13.455-1.434-3.227-4.03-5.166-7.533-4.656z" style="color:#000" transform="matrix(.25649 -.05734 .04238 .18958 339.42 -36.07)"/><path fill="#8f451e" d="M-539.6 2103.2c0 31.37-25.43 56.8-56.8 56.8s-56.8-25.43-56.8-56.8 25.43-56.8 56.8-56.8 56.8 25.43 56.8 56.8" style="color:#000" transform="matrix(.2261 -.05055 .03736 .16712 353.87 -10.17)"/><path fill="#210000" d="M-539.6 2103.2c0 31.37-25.43 56.8-56.8 56.8s-56.8-25.43-56.8-56.8 25.43-56.8 56.8-56.8 56.8 25.43 56.8 56.8" style="color:#000" transform="matrix(.20152 -.04505 .0333 .14895 347.753 31.31)"/><path fill="#e3b7b7" fill-opacity=".539" d="M-539.6 2103.2c0 31.37-27.443 8.7-58.813 8.7s-54.786 22.67-54.786-8.7 22.764-71.662 54.134-71.662 59.466 40.293 59.466 71.662z" style="color:#000" transform="matrix(.06872 -.03917 .01863 .02072 295.04 299.88)"/><path fill="#e3b7b7" fill-opacity=".539" d="M-566.35 2116.5c-2.722.227-6.43 6.628-11.431 10.226-4.666 3.356-10.177 5.39-15.723 6.848-6.15 1.618-11.339-.044-11.959 1.615-2.171 3.322-.964 7.724 1.564 10.48 3.65 4.011 9.386 5.028 14.572 5.031 11.312-.275 22.2-6.642 28.343-16.088 2.504-3.886 4.244-9.005 2.166-13.455-1.434-3.227-4.03-5.166-7.533-4.656z" style="color:#000" transform="matrix(.2261 -.05055 .03736 .16712 353.87 -10.17)"/><path fill="#8f451e" d="M-539.6 2103.2c0 31.37-25.43 56.8-56.8 56.8s-56.8-25.43-56.8-56.8 25.43-56.8 56.8-56.8 56.8 25.43 56.8 56.8" style="color:#000" transform="matrix(.28008 -.06261 .04628 .20701 354.68 -405.54)"/><path fill="#210000" d="M-539.6 2103.2c0 31.37-25.43 56.8-56.8 56.8s-56.8-25.43-56.8-56.8 25.43-56.8 56.8-56.8 56.8 25.43 56.8 56.8" style="color:#000" transform="matrix(.24964 -.0558 .04125 .1845 347.103 -354.158)"/><path fill="#e3b7b7" fill-opacity=".539" d="M-539.6 2103.2c0 31.37-27.443 8.7-58.813 8.7s-54.786 22.67-54.786-8.7 22.764-71.662 54.134-71.662 59.466 40.293 59.466 71.662z" style="color:#000" transform="matrix(.08513 -.04851 .02307 .02567 281.807 -21.482)"/><path fill="#e3b7b7" fill-opacity=".539" d="M-566.35 2116.5c-2.722.227-6.43 6.628-11.431 10.226-4.666 3.356-10.177 5.39-15.723 6.848-6.15 1.618-11.339-.044-11.959 1.615-2.171 3.322-.964 7.724 1.564 10.48 3.65 4.011 9.386 5.028 14.572 5.031 11.312-.275 22.2-6.642 28.343-16.088 2.504-3.886 4.244-9.005 2.166-13.455-1.434-3.227-4.03-5.166-7.533-4.656z" style="color:#000" transform="matrix(.28008 -.06261 .04628 .20701 354.68 -405.54)"/><path fill="#8f451e" d="M-539.6 2103.2c0 31.37-25.43 56.8-56.8 56.8s-56.8-25.43-56.8-56.8 25.43-56.8 56.8-56.8 56.8 25.43 56.8 56.8" style="color:#000" transform="matrix(.15028 -.0336 .02483 .11108 383.4 86.53)"/><path fill="#210000" d="M-539.6 2103.2c0 31.37-25.43 56.8-56.8 56.8s-56.8-25.43-56.8-56.8 25.43-56.8 56.8-56.8 56.8 25.43 56.8 56.8" style="color:#000" transform="matrix(.13394 -.02994 .02213 .099 379.334 114.1)"/><path fill="#e3b7b7" fill-opacity=".539" d="M-539.6 2103.2c0 31.37-27.443 8.7-58.813 8.7s-54.786 22.67-54.786-8.7 22.764-71.662 54.134-71.662 59.466 40.293 59.466 71.662z" style="color:#000" transform="matrix(.04568 -.02603 .01238 .01377 344.299 292.611)"/><path fill="#e3b7b7" fill-opacity=".539" d="M-566.35 2116.5c-2.722.227-6.43 6.628-11.431 10.226-4.666 3.356-10.177 5.39-15.723 6.848-6.15 1.618-11.339-.044-11.959 1.615-2.171 3.322-.964 7.724 1.564 10.48 3.65 4.011 9.386 5.028 14.572 5.031 11.312-.275 22.2-6.642 28.343-16.088 2.504-3.886 4.244-9.005 2.166-13.455-1.434-3.227-4.03-5.166-7.533-4.656z" style="color:#000" transform="matrix(.15028 -.0336 .02483 .11108 383.4 86.53)"/><path fill="#8f451e" d="M-539.6 2103.2c0 31.37-25.43 56.8-56.8 56.8s-56.8-25.43-56.8-56.8 25.43-56.8 56.8-56.8 56.8 25.43 56.8 56.8" style="color:#000" transform="matrix(.07433 -.01662 .01228 .05494 368.86 234.23)"/><path fill="#210000" d="M-539.6 2103.2c0 31.37-25.43 56.8-56.8 56.8s-56.8-25.43-56.8-56.8 25.43-56.8 56.8-56.8 56.8 25.43 56.8 56.8" style="color:#000" transform="matrix(.06625 -.01481 .01095 .04897 366.849 247.867)"/><path fill="#e3b7b7" fill-opacity=".539" d="M-539.6 2103.2c0 31.37-27.443 8.7-58.813 8.7s-54.786 22.67-54.786-8.7 22.764-71.662 54.134-71.662 59.466 40.293 59.466 71.662z" style="color:#000" transform="matrix(.0226 -.01288 .00612 .00681 349.519 336.163)"/><path fill="#e3b7b7" fill-opacity=".539" d="M-566.35 2116.5c-2.722.227-6.43 6.628-11.431 10.226-4.666 3.356-10.177 5.39-15.723 6.848-6.15 1.618-11.339-.044-11.959 1.615-2.171 3.322-.964 7.724 1.564 10.48 3.65 4.011 9.386 5.028 14.572 5.031 11.312-.275 22.2-6.642 28.343-16.088 2.504-3.886 4.244-9.005 2.166-13.455-1.434-3.227-4.03-5.166-7.533-4.656z" style="color:#000" transform="matrix(.07433 -.01662 .01228 .05494 368.86 234.23)"/><path fill="#8f451e" d="M-539.6 2103.2c0 31.37-25.43 56.8-56.8 56.8s-56.8-25.43-56.8-56.8 25.43-56.8 56.8-56.8 56.8 25.43 56.8 56.8" style="color:#000" transform="matrix(.12749 -.0285 .02107 .09423 347.45 -134.4)"/><path fill="#210000" d="M-539.6 2103.2c0 31.37-25.43 56.8-56.8 56.8s-56.8-25.43-56.8-56.8 25.43-56.8 56.8-56.8 56.8 25.43 56.8 56.8" style="color:#000" transform="matrix(.11363 -.0254 .01878 .084 344 -111.01)"/><path fill="#e3b7b7" fill-opacity=".539" d="M-539.6 2103.2c0 31.37-27.443 8.7-58.813 8.7s-54.786 22.67-54.786-8.7 22.764-71.662 54.134-71.662 59.466 40.293 59.466 71.662z" style="color:#000" transform="matrix(.03875 -.02208 .0105 .01168 314.28 40.43)"/><path fill="#e3b7b7" fill-opacity=".539" d="M-566.35 2116.5c-2.722.227-6.43 6.628-11.431 10.226-4.666 3.356-10.177 5.39-15.723 6.848-6.15 1.618-11.339-.044-11.959 1.615-2.171 3.322-.964 7.724 1.564 10.48 3.65 4.011 9.386 5.028 14.572 5.031 11.312-.275 22.2-6.642 28.343-16.088 2.504-3.886 4.244-9.005 2.166-13.455-1.434-3.227-4.03-5.166-7.533-4.656z" style="color:#000" transform="matrix(.12749 -.0285 .02107 .09423 347.45 -134.4)"/><path fill="#8f451e" d="M-539.6 2103.2c0 31.37-25.43 56.8-56.8 56.8s-56.8-25.43-56.8-56.8 25.43-56.8 56.8-56.8 56.8 25.43 56.8 56.8" style="color:#000" transform="matrix(.20006 -.04473 .03306 .14787 369.87 -237.39)"/><path fill="#210000" d="M-539.6 2103.2c0 31.37-25.43 56.8-56.8 56.8s-56.8-25.43-56.8-56.8 25.43-56.8 56.8-56.8 56.8 25.43 56.8 56.8" style="color:#000" transform="matrix(.17831 -.03986 .02946 .1318 364.458 -200.688)"/><path fill="#e3b7b7" fill-opacity=".539" d="M-539.6 2103.2c0 31.37-27.443 8.7-58.813 8.7s-54.786 22.67-54.786-8.7 22.764-71.662 54.134-71.662 59.466 40.293 59.466 71.662z" style="color:#000" transform="matrix(.0608 -.03465 .01648 .01833 317.817 36.948)"/><path fill="#e3b7b7" fill-opacity=".539" d="M-566.35 2116.5c-2.722.227-6.43 6.628-11.431 10.226-4.666 3.356-10.177 5.39-15.723 6.848-6.15 1.618-11.339-.044-11.959 1.615-2.171 3.322-.964 7.724 1.564 10.48 3.65 4.011 9.386 5.028 14.572 5.031 11.312-.275 22.2-6.642 28.343-16.088 2.504-3.886 4.244-9.005 2.166-13.455-1.434-3.227-4.03-5.166-7.533-4.656z" style="color:#000" transform="matrix(.20006 -.04473 .03306 .14787 369.87 -237.39)"/><path fill="#8f451e" d="M-539.6 2103.2c0 31.37-25.43 56.8-56.8 56.8s-56.8-25.43-56.8-56.8 25.43-56.8 56.8-56.8 56.8 25.43 56.8 56.8" style="color:#000" transform="matrix(.25284 -.05652 .04178 .18688 430.95 -111.99)"/><path fill="#210000" d="M-539.6 2103.2c0 31.37-25.43 56.8-56.8 56.8s-56.8-25.43-56.8-56.8 25.43-56.8 56.8-56.8 56.8 25.43 56.8 56.8" style="color:#000" transform="matrix(.22536 -.05038 .03724 .16657 424.11 -65.605)"/><path fill="#e3b7b7" fill-opacity=".539" d="M-539.6 2103.2c0 31.37-27.443 8.7-58.813 8.7s-54.786 22.67-54.786-8.7 22.764-71.662 54.134-71.662 59.466 40.293 59.466 71.662z" style="color:#000" transform="matrix(.07685 -.0438 .02083 .02317 365.164 234.72)"/><path fill="#e3b7b7" fill-opacity=".539" d="M-566.35 2116.5c-2.722.227-6.43 6.628-11.431 10.226-4.666 3.356-10.177 5.39-15.723 6.848-6.15 1.618-11.339-.044-11.959 1.615-2.171 3.322-.964 7.724 1.564 10.48 3.65 4.011 9.386 5.028 14.572 5.031 11.312-.275 22.2-6.642 28.343-16.088 2.504-3.886 4.244-9.005 2.166-13.455-1.434-3.227-4.03-5.166-7.533-4.656z" style="color:#000" transform="matrix(.25284 -.05652 .04178 .18688 430.95 -111.99)"/><path fill="#8f451e" d="M-539.6 2103.2c0 31.37-25.43 56.8-56.8 56.8s-56.8-25.43-56.8-56.8 25.43-56.8 56.8-56.8 56.8 25.43 56.8 56.8" style="color:#000" transform="matrix(.15071 -.0337 .0249 .11139 442.59 -23.47)"/><path fill="#210000" d="M-539.6 2103.2c0 31.37-25.43 56.8-56.8 56.8s-56.8-25.43-56.8-56.8 25.43-56.8 56.8-56.8 56.8 25.43 56.8 56.8" style="color:#000" transform="matrix(.13433 -.03003 .0222 .09928 438.513 4.178)"/><path fill="#e3b7b7" fill-opacity=".539" d="M-539.6 2103.2c0 31.37-27.443 8.7-58.813 8.7s-54.786 22.67-54.786-8.7 22.764-71.662 54.134-71.662 59.466 40.293 59.466 71.662z" style="color:#000" transform="matrix(.0458 -.0261 .01242 .01381 403.377 183.188)"/><path fill="#e3b7b7" fill-opacity=".539" d="M-566.35 2116.5c-2.722.227-6.43 6.628-11.431 10.226-4.666 3.356-10.177 5.39-15.723 6.848-6.15 1.618-11.339-.044-11.959 1.615-2.171 3.322-.964 7.724 1.564 10.48 3.65 4.011 9.386 5.028 14.572 5.031 11.312-.275 22.2-6.642 28.343-16.088 2.504-3.886 4.244-9.005 2.166-13.455-1.434-3.227-4.03-5.166-7.533-4.656z" style="color:#000" transform="matrix(.15071 -.0337 .0249 .11139 442.59 -23.47)"/><path fill="#8f451e" d="M-539.6 2103.2c0 31.37-25.43 56.8-56.8 56.8s-56.8-25.43-56.8-56.8 25.43-56.8 56.8-56.8 56.8 25.43 56.8 56.8" style="color:#000" transform="matrix(.17301 -.03868 .02859 .12787 428.74 -22.17)"/><path fill="#210000" d="M-539.6 2103.2c0 31.37-25.43 56.8-56.8 56.8s-56.8-25.43-56.8-56.8 25.43-56.8 56.8-56.8 56.8 25.43 56.8 56.8" style="color:#000" transform="matrix(.1542 -.03447 .02548 .11397 424.06 9.568)"/><path fill="#e3b7b7" fill-opacity=".539" d="M-539.6 2103.2c0 31.37-27.443 8.7-58.813 8.7s-54.786 22.67-54.786-8.7 22.764-71.662 54.134-71.662 59.466 40.293 59.466 71.662z" style="color:#000" transform="matrix(.05258 -.02997 .01425 .01585 383.723 215.063)"/><path fill="#e3b7b7" fill-opacity=".539" d="M-566.35 2116.5c-2.722.227-6.43 6.628-11.431 10.226-4.666 3.356-10.177 5.39-15.723 6.848-6.15 1.618-11.339-.044-11.959 1.615-2.171 3.322-.964 7.724 1.564 10.48 3.65 4.011 9.386 5.028 14.572 5.031 11.312-.275 22.2-6.642 28.343-16.088 2.504-3.886 4.244-9.005 2.166-13.455-1.434-3.227-4.03-5.166-7.533-4.656z" style="color:#000" transform="matrix(.17301 -.03868 .02859 .12787 428.74 -22.17)"/><path fill="#8f451e" d="M-539.6 2103.2c0 31.37-25.43 56.8-56.8 56.8s-56.8-25.43-56.8-56.8 25.43-56.8 56.8-56.8 56.8 25.43 56.8 56.8" style="color:#000" transform="matrix(.12867 -.02877 .02126 .0951 422.07 72.23)"/><path fill="#210000" d="M-539.6 2103.2c0 31.37-25.43 56.8-56.8 56.8s-56.8-25.43-56.8-56.8 25.43-56.8 56.8-56.8 56.8 25.43 56.8 56.8" style="color:#000" transform="matrix(.11468 -.02564 .01895 .08477 418.589 95.836)"/><path fill="#e3b7b7" fill-opacity=".539" d="M-539.6 2103.2c0 31.37-27.443 8.7-58.813 8.7s-54.786 22.67-54.786-8.7 22.764-71.662 54.134-71.662 59.466 40.293 59.466 71.662z" style="color:#000" transform="matrix(.0391 -.02229 .0106 .0118 388.593 248.678)"/><path fill="#e3b7b7" fill-opacity=".539" d="M-566.35 2116.5c-2.722.227-6.43 6.628-11.431 10.226-4.666 3.356-10.177 5.39-15.723 6.848-6.15 1.618-11.339-.044-11.959 1.615-2.171 3.322-.964 7.724 1.564 10.48 3.65 4.011 9.386 5.028 14.572 5.031 11.312-.275 22.2-6.642 28.343-16.088 2.504-3.886 4.244-9.005 2.166-13.455-1.434-3.227-4.03-5.166-7.533-4.656z" style="color:#000" transform="matrix(.12867 -.02877 .02126 .0951 422.07 72.23)"/><path fill="#8f451e" d="M-539.6 2103.2c0 31.37-25.43 56.8-56.8 56.8s-56.8-25.43-56.8-56.8 25.43-56.8 56.8-56.8 56.8 25.43 56.8 56.8" style="color:#000" transform="matrix(.18349 -.04102 .03032 .13563 418.95 -175.48)"/><path fill="#210000" d="M-539.6 2103.2c0 31.37-25.43 56.8-56.8 56.8s-56.8-25.43-56.8-56.8 25.43-56.8 56.8-56.8 56.8 25.43 56.8 56.8" style="color:#000" transform="matrix(.16354 -.03656 .02702 .12089 413.986 -141.816)"/><path fill="#e3b7b7" fill-opacity=".539" d="M-539.6 2103.2c0 31.37-27.443 8.7-58.813 8.7s-54.786 22.67-54.786-8.7 22.764-71.662 54.134-71.662 59.466 40.293 59.466 71.662z" style="color:#000" transform="matrix(.05577 -.03179 .01512 .01682 371.209 76.148)"/><path fill="#e3b7b7" fill-opacity=".539" d="M-566.35 2116.5c-2.722.227-6.43 6.628-11.431 10.226-4.666 3.356-10.177 5.39-15.723 6.848-6.15 1.618-11.339-.044-11.959 1.615-2.171 3.322-.964 7.724 1.564 10.48 3.65 4.011 9.386 5.028 14.572 5.031 11.312-.275 22.2-6.642 28.343-16.088 2.504-3.886 4.244-9.005 2.166-13.455-1.434-3.227-4.03-5.166-7.533-4.656z" style="color:#000" transform="matrix(.18349 -.04102 .03032 .13563 418.95 -175.48)"/><path fill="#8f451e" d="M-539.6 2103.2c0 31.37-25.43 56.8-56.8 56.8s-56.8-25.43-56.8-56.8 25.43-56.8 56.8-56.8 56.8 25.43 56.8 56.8" style="color:#000" transform="matrix(.20404 -.04561 .03372 .15081 441.05 -177.9)"/><path fill="#210000" d="M-539.6 2103.2c0 31.37-25.43 56.8-56.8 56.8s-56.8-25.43-56.8-56.8 25.43-56.8 56.8-56.8 56.8 25.43 56.8 56.8" style="color:#000" transform="matrix(.18186 -.04066 .03005 .13442 435.53 -140.468)"/><path fill="#e3b7b7" fill-opacity=".539" d="M-539.6 2103.2c0 31.37-27.443 8.7-58.813 8.7s-54.786 22.67-54.786-8.7 22.764-71.662 54.134-71.662 59.466 40.293 59.466 71.662z" style="color:#000" transform="matrix(.06202 -.03534 .01681 .0187 387.96 101.892)"/><path fill="#e3b7b7" fill-opacity=".539" d="M-566.35 2116.5c-2.722.227-6.43 6.628-11.431 10.226-4.666 3.356-10.177 5.39-15.723 6.848-6.15 1.618-11.339-.044-11.959 1.615-2.171 3.322-.964 7.724 1.564 10.48 3.65 4.011 9.386 5.028 14.572 5.031 11.312-.275 22.2-6.642 28.343-16.088 2.504-3.886 4.244-9.005 2.166-13.455-1.434-3.227-4.03-5.166-7.533-4.656z" style="color:#000" transform="matrix(.20404 -.04561 .03372 .15081 441.05 -177.9)"/><path fill="#8f451e" d="M-539.6 2103.2c0 31.37-25.43 56.8-56.8 56.8s-56.8-25.43-56.8-56.8 25.43-56.8 56.8-56.8 56.8 25.43 56.8 56.8" style="color:#000" transform="matrix(.17475 -.03907 .02888 .12916 438.12 -108.97)"/><path fill="#210000" d="M-539.6 2103.2c0 31.37-25.43 56.8-56.8 56.8s-56.8-25.43-56.8-56.8 25.43-56.8 56.8-56.8 56.8 25.43 56.8 56.8" style="color:#000" transform="matrix(.15575 -.03482 .02574 .11512 433.392 -76.912)"/><path fill="#e3b7b7" fill-opacity=".539" d="M-539.6 2103.2c0 31.37-27.443 8.7-58.813 8.7s-54.786 22.67-54.786-8.7 22.764-71.662 54.134-71.662 59.466 40.293 59.466 71.662z" style="color:#000" transform="matrix(.05311 -.03027 .0144 .01601 392.651 130.655)"/><path fill="#e3b7b7" fill-opacity=".539" d="M-566.35 2116.5c-2.722.227-6.43 6.628-11.431 10.226-4.666 3.356-10.177 5.39-15.723 6.848-6.15 1.618-11.339-.044-11.959 1.615-2.171 3.322-.964 7.724 1.564 10.48 3.65 4.011 9.386 5.028 14.572 5.031 11.312-.275 22.2-6.642 28.343-16.088 2.504-3.886 4.244-9.005 2.166-13.455-1.434-3.227-4.03-5.166-7.533-4.656z" style="color:#000" transform="matrix(.17475 -.03907 .02888 .12916 438.12 -108.97)"/><path fill="#8f451e" d="M-539.6 2103.2c0 31.37-25.43 56.8-56.8 56.8s-56.8-25.43-56.8-56.8 25.43-56.8 56.8-56.8 56.8 25.43 56.8 56.8" style="color:#000" transform="matrix(.12213 -.0273 .02018 .09027 429.38 -.67)"/><path fill="#210000" d="M-539.6 2103.2c0 31.37-25.43 56.8-56.8 56.8s-56.8-25.43-56.8-56.8 25.43-56.8 56.8-56.8 56.8 25.43 56.8 56.8" style="color:#000" transform="matrix(.10885 -.02433 .01799 .08046 426.076 21.735)"/><path fill="#e3b7b7" fill-opacity=".539" d="M-539.6 2103.2c0 31.37-27.443 8.7-58.813 8.7s-54.786 22.67-54.786-8.7 22.764-71.662 54.134-71.662 59.466 40.293 59.466 71.662z" style="color:#000" transform="matrix(.03712 -.02115 .01006 .0112 397.602 166.8)"/><path fill="#e3b7b7" fill-opacity=".539" d="M-566.35 2116.5c-2.722.227-6.43 6.628-11.431 10.226-4.666 3.356-10.177 5.39-15.723 6.848-6.15 1.618-11.339-.044-11.959 1.615-2.171 3.322-.964 7.724 1.564 10.48 3.65 4.011 9.386 5.028 14.572 5.031 11.312-.275 22.2-6.642 28.343-16.088 2.504-3.886 4.244-9.005 2.166-13.455-1.434-3.227-4.03-5.166-7.533-4.656z" style="color:#000" transform="matrix(.12213 -.0273 .02018 .09027 429.38 -.67)"/><path fill="#6e3617" d="M-66.489 2419.9c-2.165 8.843 13.543 5.848 5.644 16.247 3.887 3.557-.204 12.404 1.484 16.641-10.13 10.371-26.46 22.493-32.764 27.341-3.489 3.622-14.118 11.618-18.831 14.673-15.447 7.149-33.538 15.395-37.783 14.391-13.55 5.06-22.911 5.753-24.414 1.907-4.494-3.151-15.284-3.637-24.841-4.119-.135-6.532-5.409-12.149-12.736-14.822-9.622-2.538 12.015-18.508 6.388-21.666-3.754-4.983 5.675-15.197 6.287-19.404 1.083-6.07 8.618-13.539 22.394-22.584.918-2.885 15.57-14.239 27.555-19.35 3.312-1.966 15.04-5.54 31.554-11.53 7.247-2 19.55-2.324 21.054 1.516 14.937-2.475 12.253 3.425 24.558 3.872 11.14-.142-3.215 14.559 5.097 16.88" style="color:#000" transform="rotate(6.395 21015.968 4225.9)"/><path fill="#8f451e" d="M-539.6 2103.2c0 31.37-25.43 56.8-56.8 56.8s-56.8-25.43-56.8-56.8 25.43-56.8 56.8-56.8 56.8 25.43 56.8 56.8" style="color:#000" transform="rotate(6.394 2737.998 2983.454)scale(.26141 .19322)"/><path fill="#210000" d="M-539.6 2103.2c0 31.37-25.43 56.8-56.8 56.8s-56.8-25.43-56.8-56.8 25.43-56.8 56.8-56.8 56.8 25.43 56.8 56.8" style="color:#000" transform="matrix(.23155 .02595 -.01918 .17115 327.596 -244.42)"/><path fill="#e3b7b7" fill-opacity=".539" d="M-539.6 2103.2c0 31.37-27.443 8.7-58.813 8.7s-54.786 22.67-54.786-8.7 22.764-71.662 54.134-71.662 59.466 40.293 59.466 71.662z" style="color:#000" transform="matrix(.0877 -.01654 .01226 .02895 172.717 22.749)"/><path fill="#e3b7b7" fill-opacity=".539" d="M-566.35 2116.5c-2.722.227-6.43 6.628-11.431 10.226-4.666 3.356-10.177 5.39-15.723 6.848-6.15 1.618-11.339-.044-11.959 1.615-2.171 3.322-.964 7.724 1.564 10.48 3.65 4.011 9.386 5.028 14.572 5.031 11.312-.275 22.2-6.642 28.343-16.088 2.504-3.886 4.244-9.005 2.166-13.455-1.434-3.227-4.03-5.166-7.533-4.656z" style="color:#000" transform="rotate(6.394 2737.998 2983.454)scale(.26141 .19322)"/><path fill="#8f451e" d="M-539.6 2103.2c0 31.37-25.43 56.8-56.8 56.8s-56.8-25.43-56.8-56.8 25.43-56.8 56.8-56.8 56.8 25.43 56.8 56.8" style="color:#000" transform="matrix(.23602 .02646 -.01955 .17446 322.603 -232.875)"/><path fill="#210000" d="M-539.6 2103.2c0 31.37-25.43 56.8-56.8 56.8s-56.8-25.43-56.8-56.8 25.43-56.8 56.8-56.8 56.8 25.43 56.8 56.8" style="color:#000" transform="matrix(.21037 .02358 -.01743 .1555 302.833 -194.709)"/><path fill="#e3b7b7" fill-opacity=".539" d="M-539.6 2103.2c0 31.37-27.443 8.7-58.813 8.7s-54.786 22.67-54.786-8.7 22.764-71.662 54.134-71.662 59.466 40.293 59.466 71.662z" style="color:#000" transform="matrix(.07968 -.01503 .01114 .0263 162.12 48.028)"/><path fill="#e3b7b7" fill-opacity=".539" d="M-566.35 2116.5c-2.722.227-6.43 6.628-11.431 10.226-4.666 3.356-10.177 5.39-15.723 6.848-6.15 1.618-11.339-.044-11.959 1.615-2.171 3.322-.964 7.724 1.564 10.48 3.65 4.011 9.386 5.028 14.572 5.031 11.312-.275 22.2-6.642 28.343-16.088 2.504-3.886 4.244-9.005 2.166-13.455-1.434-3.227-4.03-5.166-7.533-4.656z" style="color:#000" transform="matrix(.23602 .02646 -.01955 .17446 322.603 -232.875)"/><path fill="#8f451e" d="M-539.6 2103.2c0 31.37-25.43 56.8-56.8 56.8s-56.8-25.43-56.8-56.8 25.43-56.8 56.8-56.8 56.8 25.43 56.8 56.8" style="color:#000" transform="matrix(.13693 .01535 -.01134 .1012 242.55 -63.337)"/><path fill="#210000" d="M-539.6 2103.2c0 31.37-25.43 56.8-56.8 56.8s-56.8-25.43-56.8-56.8 25.43-56.8 56.8-56.8 56.8 25.43 56.8 56.8" style="color:#000" transform="rotate(6.385 483.828 2047.54)scale(.12281 .09077)"/><path fill="#e3b7b7" fill-opacity=".539" d="M-539.6 2103.2c0 31.37-27.443 8.7-58.813 8.7s-54.786 22.67-54.786-8.7 22.764-71.662 54.134-71.662 59.466 40.293 59.466 71.662z" style="color:#000" transform="matrix(.04623 -.00872 .00646 .01526 149.444 99.62)"/><path fill="#e3b7b7" fill-opacity=".539" d="M-566.35 2116.5c-2.722.227-6.43 6.628-11.431 10.226-4.666 3.356-10.177 5.39-15.723 6.848-6.15 1.618-11.339-.044-11.959 1.615-2.171 3.322-.964 7.724 1.564 10.48 3.65 4.011 9.386 5.028 14.572 5.031 11.312-.275 22.2-6.642 28.343-16.088 2.504-3.886 4.244-9.005 2.166-13.455-1.434-3.227-4.03-5.166-7.533-4.656z" style="color:#000" transform="matrix(.13693 .01535 -.01134 .1012 242.55 -63.337)"/><path fill="#8f451e" d="M-539.6 2103.2c0 31.37-25.43 56.8-56.8 56.8s-56.8-25.43-56.8-56.8 25.43-56.8 56.8-56.8 56.8 25.43 56.8 56.8" style="color:#000" transform="matrix(.14984 .0168 -.01241 .11076 296.279 -159.45)"/><path fill="#210000" d="M-539.6 2103.2c0 31.37-25.43 56.8-56.8 56.8s-56.8-25.43-56.8-56.8 25.43-56.8 56.8-56.8 56.8 25.43 56.8 56.8" style="color:#000" transform="rotate(6.393 1351.914 2471.676)scale(.13439 .09934)"/><path fill="#e3b7b7" fill-opacity=".539" d="M-539.6 2103.2c0 31.37-27.443 8.7-58.813 8.7s-54.786 22.67-54.786-8.7 22.764-71.662 54.134-71.662 59.466 40.293 59.466 71.662z" style="color:#000" transform="matrix(.05059 -.00954 .00707 .0167 194.393 18.885)"/><path fill="#e3b7b7" fill-opacity=".539" d="M-566.35 2116.5c-2.722.227-6.43 6.628-11.431 10.226-4.666 3.356-10.177 5.39-15.723 6.848-6.15 1.618-11.339-.044-11.959 1.615-2.171 3.322-.964 7.724 1.564 10.48 3.65 4.011 9.386 5.028 14.572 5.031 11.312-.275 22.2-6.642 28.343-16.088 2.504-3.886 4.244-9.005 2.166-13.455-1.434-3.227-4.03-5.166-7.533-4.656z" style="color:#000" transform="matrix(.14984 .0168 -.01241 .11076 296.279 -159.45)"/><path fill="#8f451e" d="M-539.6 2103.2c0 31.37-25.43 56.8-56.8 56.8s-56.8-25.43-56.8-56.8 25.43-56.8 56.8-56.8 56.8 25.43 56.8 56.8" style="color:#000" transform="matrix(.315 .0353 -.0261 .23283 421.262 -384.127)"/><path fill="#210000" d="M-539.6 2103.2c0 31.37-25.43 56.8-56.8 56.8s-56.8-25.43-56.8-56.8 25.43-56.8 56.8-56.8 56.8 25.43 56.8 56.8" style="color:#000" transform="matrix(.28077 .03147 -.02326 .20752 394.875 -333.19)"/><path fill="#896262" d="M-539.6 2103.2c0 31.37-27.443 8.7-58.813 8.7s-54.786 22.67-54.786-8.7 22.764-71.662 54.134-71.662 59.466 40.293 59.466 71.662z" style="color:#000" transform="matrix(.10634 -.02006 .01487 .0351 207.072 -9.233)"/><path fill="#896262" d="M-566.35 2116.5c-2.722.227-6.43 6.628-11.431 10.226-4.666 3.356-10.177 5.39-15.723 6.848-6.15 1.618-11.339-.044-11.959 1.615-2.171 3.322-.964 7.724 1.564 10.48 3.65 4.011 9.386 5.028 14.572 5.031 11.312-.275 22.2-6.642 28.343-16.088 2.504-3.886 4.244-9.005 2.166-13.455-1.434-3.227-4.03-5.166-7.533-4.656z" style="color:#000" transform="matrix(.315 .0353 -.0261 .23283 421.262 -384.127)"/><path fill="#8f451e" d="M-539.6 2103.2c0 31.37-25.43 56.8-56.8 56.8s-56.8-25.43-56.8-56.8 25.43-56.8 56.8-56.8 56.8 25.43 56.8 56.8" style="color:#000" transform="rotate(6.394 2304.76 3089.142)scale(.23507 .17375)"/><path fill="#210000" d="M-539.6 2103.2c0 31.37-25.43 56.8-56.8 56.8s-56.8-25.43-56.8-56.8 25.43-56.8 56.8-56.8 56.8 25.43 56.8 56.8" style="color:#000" transform="matrix(.20821 .02334 -.01725 .1539 338.867 -199.738)"/><path fill="#e3b7b7" fill-opacity=".539" d="M-539.6 2103.2c0 31.37-27.443 8.7-58.813 8.7s-54.786 22.67-54.786-8.7 22.764-71.662 54.134-71.662 59.466 40.293 59.466 71.662z" style="color:#000" transform="matrix(.07886 -.01488 .01103 .02603 199.594 40.51)"/><path fill="#e3b7b7" fill-opacity=".539" d="M-566.35 2116.5c-2.722.227-6.43 6.628-11.431 10.226-4.666 3.356-10.177 5.39-15.723 6.848-6.15 1.618-11.339-.044-11.959 1.615-2.171 3.322-.964 7.724 1.564 10.48 3.65 4.011 9.386 5.028 14.572 5.031 11.312-.275 22.2-6.642 28.343-16.088 2.504-3.886 4.244-9.005 2.166-13.455-1.434-3.227-4.03-5.166-7.533-4.656z" style="color:#000" transform="rotate(6.394 2304.76 3089.142)scale(.23507 .17375)"/><path fill="#8f451e" d="M-539.6 2103.2c0 31.37-25.43 56.8-56.8 56.8s-56.8-25.43-56.8-56.8 25.43-56.8 56.8-56.8 56.8 25.43 56.8 56.8" style="color:#000" transform="matrix(.20796 .0233 -.01723 .1537 329.488 -186.62)"/><path fill="#210000" d="M-539.6 2103.2c0 31.37-25.43 56.8-56.8 56.8s-56.8-25.43-56.8-56.8 25.43-56.8 56.8-56.8 56.8 25.43 56.8 56.8" style="color:#000" transform="matrix(.18535 .02078 -.01536 .137 312.068 -152.994)"/><path fill="#e3b7b7" fill-opacity=".539" d="M-539.6 2103.2c0 31.37-27.443 8.7-58.813 8.7s-54.786 22.67-54.786-8.7 22.764-71.662 54.134-71.662 59.466 40.293 59.466 71.662z" style="color:#000" transform="matrix(.0702 -.01324 .00982 .02317 188.087 60.872)"/><path fill="#e3b7b7" fill-opacity=".539" d="M-566.35 2116.5c-2.722.227-6.43 6.628-11.431 10.226-4.666 3.356-10.177 5.39-15.723 6.848-6.15 1.618-11.339-.044-11.959 1.615-2.171 3.322-.964 7.724 1.564 10.48 3.65 4.011 9.386 5.028 14.572 5.031 11.312-.275 22.2-6.642 28.343-16.088 2.504-3.886 4.244-9.005 2.166-13.455-1.434-3.227-4.03-5.166-7.533-4.656z" style="color:#000" transform="matrix(.20796 .0233 -.01723 .1537 329.488 -186.62)"/><path fill="#8f451e" d="M-539.6 2103.2c0 31.37-25.43 56.8-56.8 56.8s-56.8-25.43-56.8-56.8 25.43-56.8 56.8-56.8 56.8 25.43 56.8 56.8" style="color:#000" transform="rotate(6.394 4897.284 4345.188)scale(.44862 .33159)"/><path fill="#210000" d="M-539.6 2103.2c0 31.37-25.43 56.8-56.8 56.8s-56.8-25.43-56.8-56.8 25.43-56.8 56.8-56.8 56.8 25.43 56.8 56.8" style="color:#000" transform="matrix(.39737 .04454 -.03292 .2937 477.127 -446.39)"/><path fill="#e3b7b7" fill-opacity=".539" d="M-539.6 2103.2c0 31.37-27.443 8.7-58.813 8.7s-54.786 22.67-54.786-8.7 22.764-71.662 54.134-71.662 59.466 40.293 59.466 71.662z" style="color:#000" transform="matrix(.1505 -.0284 .02104 .04968 211.33 12.106)"/><path fill="#e3b7b7" fill-opacity=".539" d="M-566.35 2116.5c-2.722.227-6.43 6.628-11.431 10.226-4.666 3.356-10.177 5.39-15.723 6.848-6.15 1.618-11.339-.044-11.959 1.615-2.171 3.322-.964 7.724 1.564 10.48 3.65 4.011 9.386 5.028 14.572 5.031 11.312-.275 22.2-6.642 28.343-16.088 2.504-3.886 4.244-9.005 2.166-13.455-1.434-3.227-4.03-5.166-7.533-4.656z" style="color:#000" transform="rotate(6.394 4897.284 4345.188)scale(.44862 .33159)"/><path fill="#8f451e" d="M-539.6 2103.2c0 31.37-25.43 56.8-56.8 56.8s-56.8-25.43-56.8-56.8 25.43-56.8 56.8-56.8 56.8 25.43 56.8 56.8" style="color:#000" transform="matrix(.09463 .0106 -.00784 .06995 276.475 -72.716)"/><path fill="#210000" d="M-539.6 2103.2c0 31.37-25.43 56.8-56.8 56.8s-56.8-25.43-56.8-56.8 25.43-56.8 56.8-56.8 56.8 25.43 56.8 56.8" style="color:#000" transform="rotate(6.369 647.01 2374.917)scale(.08487 .06274)"/><path fill="#e3b7b7" fill-opacity=".539" d="M-539.6 2103.2c0 31.37-27.443 8.7-58.813 8.7s-54.786 22.67-54.786-8.7 22.764-71.662 54.134-71.662 59.466 40.293 59.466 71.662z" style="color:#000" transform="matrix(.03195 -.00603 .00447 .01054 212.13 39.906)"/><path fill="#e3b7b7" fill-opacity=".539" d="M-566.35 2116.5c-2.722.227-6.43 6.628-11.431 10.226-4.666 3.356-10.177 5.39-15.723 6.848-6.15 1.618-11.339-.044-11.959 1.615-2.171 3.322-.964 7.724 1.564 10.48 3.65 4.011 9.386 5.028 14.572 5.031 11.312-.275 22.2-6.642 28.343-16.088 2.504-3.886 4.244-9.005 2.166-13.455-1.434-3.227-4.03-5.166-7.533-4.656z" style="color:#000" transform="matrix(.09463 .0106 -.00784 .06995 276.475 -72.716)"/><path fill="#8f451e" d="M-539.6 2103.2c0 31.37-25.43 56.8-56.8 56.8s-56.8-25.43-56.8-56.8 25.43-56.8 56.8-56.8 56.8 25.43 56.8 56.8" style="color:#000" transform="matrix(.12192 .01367 -.0101 .09011 298.901 -95.057)"/><path fill="#210000" d="M-539.6 2103.2c0 31.37-25.43 56.8-56.8 56.8s-56.8-25.43-56.8-56.8 25.43-56.8 56.8-56.8 56.8 25.43 56.8 56.8" style="color:#000" transform="matrix(.10866 .01218 -.009 .08032 288.689 -75.343)"/><path fill="#e3b7b7" fill-opacity=".539" d="M-539.6 2103.2c0 31.37-27.443 8.7-58.813 8.7s-54.786 22.67-54.786-8.7 22.764-71.662 54.134-71.662 59.466 40.293 59.466 71.662z" style="color:#000" transform="matrix(.04116 -.00776 .00575 .01359 216.004 50.041)"/><path fill="#e3b7b7" fill-opacity=".539" d="M-566.35 2116.5c-2.722.227-6.43 6.628-11.431 10.226-4.666 3.356-10.177 5.39-15.723 6.848-6.15 1.618-11.339-.044-11.959 1.615-2.171 3.322-.964 7.724 1.564 10.48 3.65 4.011 9.386 5.028 14.572 5.031 11.312-.275 22.2-6.642 28.343-16.088 2.504-3.886 4.244-9.005 2.166-13.455-1.434-3.227-4.03-5.166-7.533-4.656z" style="color:#000" transform="matrix(.12192 .01367 -.0101 .09011 298.901 -95.057)"/><path fill="#8f451e" d="M-539.6 2103.2c0 31.37-25.43 56.8-56.8 56.8s-56.8-25.43-56.8-56.8 25.43-56.8 56.8-56.8 56.8 25.43 56.8 56.8" style="color:#000" transform="rotate(6.394 960.79 2704.293)scale(.13404 .09907)"/><path fill="#210000" d="M-539.6 2103.2c0 31.37-25.43 56.8-56.8 56.8s-56.8-25.43-56.8-56.8 25.43-56.8 56.8-56.8 56.8 25.43 56.8 56.8" style="color:#000" transform="rotate(6.394 762.476 2615.191)scale(.11947 .0883)"/><path fill="#e3b7b7" fill-opacity=".539" d="M-539.6 2103.2c0 31.37-27.443 8.7-58.813 8.7s-54.786 22.67-54.786-8.7 22.764-71.662 54.134-71.662 59.466 40.293 59.466 71.662z" style="color:#000" transform="matrix(.04497 -.00848 .00629 .01484 216.634 68.328)"/><path fill="#e3b7b7" fill-opacity=".539" d="M-566.35 2116.5c-2.722.227-6.43 6.628-11.431 10.226-4.666 3.356-10.177 5.39-15.723 6.848-6.15 1.618-11.339-.044-11.959 1.615-2.171 3.322-.964 7.724 1.564 10.48 3.65 4.011 9.386 5.028 14.572 5.031 11.312-.275 22.2-6.642 28.343-16.088 2.504-3.886 4.244-9.005 2.166-13.455-1.434-3.227-4.03-5.166-7.533-4.656z" style="color:#000" transform="rotate(6.394 960.79 2704.293)scale(.13404 .09907)"/><path fill="#8f451e" d="M-539.6 2103.2c0 31.37-25.43 56.8-56.8 56.8s-56.8-25.43-56.8-56.8 25.43-56.8 56.8-56.8 56.8 25.43 56.8 56.8" style="color:#000" transform="matrix(.34443 .0386 -.02854 .25459 477.16 -366.692)"/><path fill="#210000" d="M-539.6 2103.2c0 31.37-25.43 56.8-56.8 56.8s-56.8-25.43-56.8-56.8 25.43-56.8 56.8-56.8 56.8 25.43 56.8 56.8" style="color:#000" transform="matrix(.307 .03441 -.02543 .22691 448.309 -310.997)"/><path fill="#e3b7b7" fill-opacity=".539" d="M-539.6 2103.2c0 31.37-27.443 8.7-58.813 8.7s-54.786 22.67-54.786-8.7 22.764-71.662 54.134-71.662 59.466 40.293 59.466 71.662z" style="color:#000" transform="matrix(.11628 -.02194 .01626 .03838 242.963 43.23)"/><path fill="#e3b7b7" fill-opacity=".539" d="M-566.35 2116.5c-2.722.227-6.43 6.628-11.431 10.226-4.666 3.356-10.177 5.39-15.723 6.848-6.15 1.618-11.339-.044-11.959 1.615-2.171 3.322-.964 7.724 1.564 10.48 3.65 4.011 9.386 5.028 14.572 5.031 11.312-.275 22.2-6.642 28.343-16.088 2.504-3.886 4.244-9.005 2.166-13.455-1.434-3.227-4.03-5.166-7.533-4.656z" style="color:#000" transform="matrix(.34443 .0386 -.02854 .25459 477.16 -366.692)"/><path fill="#8f451e" d="M-539.6 2103.2c0 31.37-25.43 56.8-56.8 56.8s-56.8-25.43-56.8-56.8 25.43-56.8 56.8-56.8 56.8 25.43 56.8 56.8" style="color:#000" transform="matrix(.29132 .03265 -.02413 .21532 458.051 -362.696)"/><path fill="#210000" d="M-539.6 2103.2c0 31.37-25.43 56.8-56.8 56.8s-56.8-25.43-56.8-56.8 25.43-56.8 56.8-56.8 56.8 25.43 56.8 56.8" style="color:#000" transform="matrix(.25965 .0291 -.02151 .19192 433.65 -315.59)"/><path fill="#e3b7b7" fill-opacity=".539" d="M-539.6 2103.2c0 31.37-27.443 8.7-58.813 8.7s-54.786 22.67-54.786-8.7 22.764-71.662 54.134-71.662 59.466 40.293 59.466 71.662z" style="color:#000" transform="matrix(.09835 -.01855 .01375 .03246 259.971 -15.996)"/><path fill="#e3b7b7" fill-opacity=".539" d="M-566.35 2116.5c-2.722.227-6.43 6.628-11.431 10.226-4.666 3.356-10.177 5.39-15.723 6.848-6.15 1.618-11.339-.044-11.959 1.615-2.171 3.322-.964 7.724 1.564 10.48 3.65 4.011 9.386 5.028 14.572 5.031 11.312-.275 22.2-6.642 28.343-16.088 2.504-3.886 4.244-9.005 2.166-13.455-1.434-3.227-4.03-5.166-7.533-4.656z" style="color:#000" transform="matrix(.29132 .03265 -.02413 .21532 458.051 -362.696)"/><path fill="#8f451e" d="M-539.6 2103.2c0 31.37-25.43 56.8-56.8 56.8s-56.8-25.43-56.8-56.8 25.43-56.8 56.8-56.8 56.8 25.43 56.8 56.8" style="color:#000" transform="rotate(6.394 2583.983 3570.567)scale(.24362 .18007)"/><path fill="#210000" d="M-539.6 2103.2c0 31.37-25.43 56.8-56.8 56.8s-56.8-25.43-56.8-56.8 25.43-56.8 56.8-56.8 56.8 25.43 56.8 56.8" style="color:#000" transform="matrix(.21579 .02419 -.01788 .1595 393.518 -226.472)"/><path fill="#e3b7b7" fill-opacity=".539" d="M-539.6 2103.2c0 31.37-27.443 8.7-58.813 8.7s-54.786 22.67-54.786-8.7 22.764-71.662 54.134-71.662 59.466 40.293 59.466 71.662z" style="color:#000" transform="matrix(.08173 -.01542 .01143 .02698 249.179 22.515)"/><path fill="#e3b7b7" fill-opacity=".539" d="M-566.35 2116.5c-2.722.227-6.43 6.628-11.431 10.226-4.666 3.356-10.177 5.39-15.723 6.848-6.15 1.618-11.339-.044-11.959 1.615-2.171 3.322-.964 7.724 1.564 10.48 3.65 4.011 9.386 5.028 14.572 5.031 11.312-.275 22.2-6.642 28.343-16.088 2.504-3.886 4.244-9.005 2.166-13.455-1.434-3.227-4.03-5.166-7.533-4.656z" style="color:#000" transform="rotate(6.394 2583.983 3570.567)scale(.24362 .18007)"/><path fill="#8f451e" d="M-539.6 2103.2c0 31.37-25.43 56.8-56.8 56.8s-56.8-25.43-56.8-56.8 25.43-56.8 56.8-56.8 56.8 25.43 56.8 56.8" style="color:#000" transform="rotate(6.401 50.963 2524.638)scale(.06942 .05131)"/><path fill="#210000" d="M-539.6 2103.2c0 31.37-25.43 56.8-56.8 56.8s-56.8-25.43-56.8-56.8 25.43-56.8 56.8-56.8 56.8 25.43 56.8 56.8" style="color:#000" transform="matrix(.06149 .0069 -.0051 .04545 275.754 21.218)"/><path fill="#e3b7b7" fill-opacity=".539" d="M-539.6 2103.2c0 31.37-27.443 8.7-58.813 8.7s-54.786 22.67-54.786-8.7 22.764-71.662 54.134-71.662 59.466 40.293 59.466 71.662z" style="color:#000" transform="matrix(.02329 -.0044 .00326 .00769 234.625 92.165)"/><path fill="#e3b7b7" fill-opacity=".539" d="M-566.35 2116.5c-2.722.227-6.43 6.628-11.431 10.226-4.666 3.356-10.177 5.39-15.723 6.848-6.15 1.618-11.339-.044-11.959 1.615-2.171 3.322-.964 7.724 1.564 10.48 3.65 4.011 9.386 5.028 14.572 5.031 11.312-.275 22.2-6.642 28.343-16.088 2.504-3.886 4.244-9.005 2.166-13.455-1.434-3.227-4.03-5.166-7.533-4.656z" style="color:#000" transform="rotate(6.401 50.963 2524.638)scale(.06942 .05131)"/><path fill="#8f451e" d="M-539.6 2103.2c0 31.37-25.43 56.8-56.8 56.8s-56.8-25.43-56.8-56.8 25.43-56.8 56.8-56.8 56.8 25.43 56.8 56.8" style="color:#000" transform="matrix(.11456 .01284 -.0095 .08468 311.148 -42.063)"/><path fill="#210000" d="M-539.6 2103.2c0 31.37-25.43 56.8-56.8 56.8s-56.8-25.43-56.8-56.8 25.43-56.8 56.8-56.8 56.8 25.43 56.8 56.8" style="color:#000" transform="matrix(.10211 .01145 -.00846 .07547 301.551 -23.538)"/><path fill="#e3b7b7" fill-opacity=".539" d="M-539.6 2103.2c0 31.37-27.443 8.7-58.813 8.7s-54.786 22.67-54.786-8.7 22.764-71.662 54.134-71.662 59.466 40.293 59.466 71.662z" style="color:#000" transform="matrix(.03868 -.0073 .0054 .01277 233.251 94.28)"/><path fill="#e3b7b7" fill-opacity=".539" d="M-566.35 2116.5c-2.722.227-6.43 6.628-11.431 10.226-4.666 3.356-10.177 5.39-15.723 6.848-6.15 1.618-11.339-.044-11.959 1.615-2.171 3.322-.964 7.724 1.564 10.48 3.65 4.011 9.386 5.028 14.572 5.031 11.312-.275 22.2-6.642 28.343-16.088 2.504-3.886 4.244-9.005 2.166-13.455-1.434-3.227-4.03-5.166-7.533-4.656z" style="color:#000" transform="matrix(.11456 .01284 -.0095 .08468 311.148 -42.063)"/><path fill="#8f451e" d="M-539.6 2103.2c0 31.37-25.43 56.8-56.8 56.8s-56.8-25.43-56.8-56.8 25.43-56.8 56.8-56.8 56.8 25.43 56.8 56.8" style="color:#000" transform="rotate(6.394 1310.818 3187.82)scale(.13536 .10005)"/><path fill="#210000" d="M-539.6 2103.2c0 31.37-25.43 56.8-56.8 56.8s-56.8-25.43-56.8-56.8 25.43-56.8 56.8-56.8 56.8 25.43 56.8 56.8" style="color:#000" transform="rotate(6.409 1111.37 3097.595)scale(.12065 .08917)"/><path fill="#e3b7b7" fill-opacity=".539" d="M-539.6 2103.2c0 31.37-27.443 8.7-58.813 8.7s-54.786 22.67-54.786-8.7 22.764-71.662 54.134-71.662 59.466 40.293 59.466 71.662z" style="color:#000" transform="matrix(.04541 -.00857 .00635 .01499 271.78 33.91)"/><path fill="#e3b7b7" fill-opacity=".539" d="M-566.35 2116.5c-2.722.227-6.43 6.628-11.431 10.226-4.666 3.356-10.177 5.39-15.723 6.848-6.15 1.618-11.339-.044-11.959 1.615-2.171 3.322-.964 7.724 1.564 10.48 3.65 4.011 9.386 5.028 14.572 5.031 11.312-.275 22.2-6.642 28.343-16.088 2.504-3.886 4.244-9.005 2.166-13.455-1.434-3.227-4.03-5.166-7.533-4.656z" style="color:#000" transform="rotate(6.394 1310.818 3187.82)scale(.13536 .10005)"/><path fill="#8f451e" d="M-539.6 2103.2c0 31.37-25.43 56.8-56.8 56.8s-56.8-25.43-56.8-56.8 25.43-56.8 56.8-56.8 56.8 25.43 56.8 56.8" style="color:#000" transform="matrix(.1823 .02043 -.0151 .13475 396.543 -180.312)"/><path fill="#210000" d="M-539.6 2103.2c0 31.37-25.43 56.8-56.8 56.8s-56.8-25.43-56.8-56.8 25.43-56.8 56.8-56.8 56.8 25.43 56.8 56.8" style="color:#000" transform="rotate(6.394 1540.416 3336.85)scale(.1635 .12085)"/><path fill="#e3b7b7" fill-opacity=".539" d="M-539.6 2103.2c0 31.37-27.443 8.7-58.813 8.7s-54.786 22.67-54.786-8.7 22.764-71.662 54.134-71.662 59.466 40.293 59.466 71.662z" style="color:#000" transform="matrix(.06154 -.01161 .0086 .02031 272.588 36.65)"/><path fill="#e3b7b7" fill-opacity=".539" d="M-566.35 2116.5c-2.722.227-6.43 6.628-11.431 10.226-4.666 3.356-10.177 5.39-15.723 6.848-6.15 1.618-11.339-.044-11.959 1.615-2.171 3.322-.964 7.724 1.564 10.48 3.65 4.011 9.386 5.028 14.572 5.031 11.312-.275 22.2-6.642 28.343-16.088 2.504-3.886 4.244-9.005 2.166-13.455-1.434-3.227-4.03-5.166-7.533-4.656z" style="color:#000" transform="matrix(.1823 .02043 -.0151 .13475 396.543 -180.312)"/><path fill="#8f451e" d="M-539.6 2103.2c0 31.37-25.43 56.8-56.8 56.8s-56.8-25.43-56.8-56.8 25.43-56.8 56.8-56.8 56.8 25.43 56.8 56.8" style="color:#000" transform="rotate(6.394 3446.65 4278.555)scale(.31891 .23571)"/><path fill="#210000" d="M-539.6 2103.2c0 31.37-25.43 56.8-56.8 56.8s-56.8-25.43-56.8-56.8 25.43-56.8 56.8-56.8 56.8 25.43 56.8 56.8" style="color:#000" transform="rotate(6.404 2975.495 4066.102)scale(.28425 .21009)"/><path fill="#e3b7b7" fill-opacity=".539" d="M-539.6 2103.2c0 31.37-27.443 8.7-58.813 8.7s-54.786 22.67-54.786-8.7 22.764-71.662 54.134-71.662 59.466 40.293 59.466 71.662z" style="color:#000" transform="matrix(.107 -.02018 .01496 .03531 282.534 19.857)"/><path fill="#e3b7b7" fill-opacity=".539" d="M-566.35 2116.5c-2.722.227-6.43 6.628-11.431 10.226-4.666 3.356-10.177 5.39-15.723 6.848-6.15 1.618-11.339-.044-11.959 1.615-2.171 3.322-.964 7.724 1.564 10.48 3.65 4.011 9.386 5.028 14.572 5.031 11.312-.275 22.2-6.642 28.343-16.088 2.504-3.886 4.244-9.005 2.166-13.455-1.434-3.227-4.03-5.166-7.533-4.656z" style="color:#000" transform="rotate(6.394 3446.65 4278.555)scale(.31891 .23571)"/><path fill="#8f451e" d="M-539.6 2103.2c0 31.37-25.43 56.8-56.8 56.8s-56.8-25.43-56.8-56.8 25.43-56.8 56.8-56.8 56.8 25.43 56.8 56.8" style="color:#000" transform="matrix(.1537 .01723 -.01273 .1136 369.017 -93.94)"/><path fill="#210000" d="M-539.6 2103.2c0 31.37-25.43 56.8-56.8 56.8s-56.8-25.43-56.8-56.8 25.43-56.8 56.8-56.8 56.8 25.43 56.8 56.8" style="color:#000" transform="matrix(.137 .01535 -.01135 .10125 356.142 -69.088)"/><path fill="#e3b7b7" fill-opacity=".539" d="M-539.6 2103.2c0 31.37-27.443 8.7-58.813 8.7s-54.786 22.67-54.786-8.7 22.764-71.662 54.134-71.662 59.466 40.293 59.466 71.662z" style="color:#000" transform="matrix(.05189 -.00979 .00725 .01713 264.51 88.97)"/><path fill="#e3b7b7" fill-opacity=".539" d="M-566.35 2116.5c-2.722.227-6.43 6.628-11.431 10.226-4.666 3.356-10.177 5.39-15.723 6.848-6.15 1.618-11.339-.044-11.959 1.615-2.171 3.322-.964 7.724 1.564 10.48 3.65 4.011 9.386 5.028 14.572 5.031 11.312-.275 22.2-6.642 28.343-16.088 2.504-3.886 4.244-9.005 2.166-13.455-1.434-3.227-4.03-5.166-7.533-4.656z" style="color:#000" transform="matrix(.1537 .01723 -.01273 .1136 369.017 -93.94)"/><path fill="#6e3617" d="M-1055.9 1477.4c51.85-7.519 98.869-44.75 116.62-91.888 12.453-31.802 17.807-36.875 3.806-66.561-4.074-6.196-12.817-4.46-18.682-.832-67.208 71.62-210.45 9.169-242.54 71.055-3.915 7.55-3.343 18.888 1.05 24.17 25.108 46.819 82.853 73.508 139.75 64.056z" opacity=".7" style="color:#000" transform="translate(1303.71 -1108.77)"/></svg>