<svg xmlns="http://www.w3.org/2000/svg" viewBox="0 0 425.12 655.71"><defs><linearGradient id="a" x1="126.34" x2="682.57" y1="560.85" y2="560.85" gradientTransform="translate(92.686 34.517)scale(.68102)" gradientUnits="userSpaceOnUse"><stop offset="0" stop-color="#311400"/><stop offset=".503" stop-color="#ba5700"/><stop offset="1" stop-color="#3a2100"/></linearGradient></defs><path fill="url(#a)" d="M178.72 200.32v432.3h302.2V488.87s108.54-4.823 112.28-15.74c3.743-10.916 21.93-244.51 0-245.55-21.93-1.036-112.28 0-112.28 0v-27.262h-302.2zm303.27 61.89s60.399-.652 73.451 0c13.068.653 6.976 162.15 0 177.34-5.888 12.817-73.451 9.444-73.451 9.444v-186.78z" transform="translate(-178.72 16.268)"/><path d="m72.745 307.215 2.884 9.137q-11.273 3.526-20.372.225t-14.86-12.63q-5.961-9.656-5.765-18.134t5.703-16.238 14.062-13.042q9.33-5.76 18.478-6.484 9.147-.723 16.815 3.63 7.667 4.353 12.548 12.258 5.533 8.963 4.743 17.892t-7.577 16.438l-6.638-6.65q5.236-6.102 5.77-11.89.534-5.79-3.163-11.777-4.251-6.885-10.406-9.472-6.154-2.587-12.873-1.028a41.9 41.9 0 0 0-12.626 5.207q-7.62 4.703-11.931 10.432c-4.311 5.73-4.286 7.87-4.232 12.15s1.205 8.241 3.452 11.88q4.1 6.642 10.772 8.88 6.672 2.24 15.215-.783zM90.323 317.459q14.87-9.18 28.214-6.39t21.14 15.422q5.107 8.27 5.255 17.351t-4.77 16.928q-4.92 7.849-13.882 13.381-9.085 5.61-18.52 6.37t-17.272-3.687q-7.838-4.446-12.641-12.228-5.207-8.433-5.233-17.59t4.91-16.93 12.8-12.629zm4.909 8.223q-10.797 6.666-13.426 16.307-2.628 9.642 2.78 18.402 5.508 8.922 15.341 10.814 9.834 1.891 21.364-5.227 7.293-4.502 11.21-10.325t3.982-12.418q.063-6.596-3.583-12.503-5.183-8.393-14.682-10.884-9.501-2.491-22.986 5.834zM103.012 403.09l59.728-36.875 24.877 40.295-7.049 4.351-19.997-32.39-18.496 11.42 17.305 28.03-7.049 4.351-17.305-28.03-27.134 16.752zM134.505 454.101l59.728-36.874 24.877 40.294-7.049 4.352-19.997-32.39-18.496 11.419 17.305 28.03-7.049 4.352-17.305-28.03-27.134 16.751zM165.846 504.866l59.728-36.874 26.662 43.186-7.049 4.352-21.782-35.283-18.293 11.294 20.399 33.042-7.008 4.326-20.4-33.042-20.33 12.552 22.638 36.668-7.049 4.351zM200.254 560.6l59.728-36.874 26.662 43.186-7.048 4.352-21.783-35.283-18.293 11.294 20.4 33.042-7.008 4.326-20.4-33.042-20.33 12.552 22.637 36.667-7.048 4.352zM0 655.708c-1.516-.05 0-8.37 0-8.37h302.2s.745 5.531 0 8.37c-.815 3.106-300.69.05-302.2 0M0 218.128v-8.37h302.2v8.37z"/><path fill="#999" d="M153.31 194.748s-22.079-30.005-18.116-51.518 27.741-63.407 29.439-80.957S148.781-.002 148.781-.002s25.261 36.006 24.91 62.841c-.305 23.32-24.59 74.503-28.873 84.354-5.661 13.021 9.624 48.121 8.492 47.555M78.05 193.448s-16.454-22.36-13.5-38.392c2.953-16.032 20.672-47.251 21.938-60.33 1.266-13.078-11.813-46.407-11.813-46.407s18.824 26.832 18.563 46.829c-.227 17.378-18.324 55.52-21.516 62.861-4.219 9.703 7.172 35.86 6.328 35.438zM232.15 196.058s-16.454-22.36-13.5-38.392c2.953-16.032 20.672-47.251 21.938-60.33 1.266-13.078-11.813-46.407-11.813-46.407s18.824 26.832 18.563 46.829c-.227 17.378-18.324 55.52-21.516 62.861-4.219 9.703 7.172 35.86 6.328 35.438zM270.75 198.668s-11.124-15.117-9.127-25.956 13.976-31.946 14.832-40.788-7.987-31.375-7.987-31.375 12.727 18.141 12.55 31.66c-.153 11.749-12.389 37.536-14.547 42.499-2.852 6.56 4.85 24.244 4.279 23.959zM20.02 198.668s-11.124-15.117-9.127-25.956 13.976-31.946 14.832-40.788-7.987-31.375-7.987-31.375 12.727 18.141 12.55 31.66c-.153 11.749-12.389 37.536-14.547 42.499-2.852 6.56 4.85 24.244 4.279 23.959z"/></svg>