<svg xmlns="http://www.w3.org/2000/svg" width="744.094" height="1052.362"><path d="M469.6 518.5c-13.274 0-24.03 10.172-24.03 22.718 0 10.83 8.02 19.88 18.75 22.156l-.344 20.563h-18.094c-1.172-2.63-3.788-4.469-6.812-4.469-4.112 0-7.438 3.39-7.438 7.563 0 4.172 3.326 7.562 7.438 7.562 3.587 0 6.602-2.57 7.312-6 23.212.468 14.83 29.473 17.25 71.781-2.68 7.133-11.187 24.992-50.219-3.562l8-6.438c-8.874-4.476-16.706-9.844-20.875-18.437-.159 11.818-5.774 21.446 2 36.437l5.532-5.78c16.377 32.895 54.553 26.367 61.53 45.562 6.98-19.195 45.155-12.666 61.532-45.563l5.531 5.781c7.775-14.991 2.16-24.62 2-36.437-4.169 8.593-12 13.961-20.875 18.437l8 6.438c-39.031 28.554-47.538 10.695-50.218 3.562 2.42-42.308-5.962-71.313 17.25-71.78.71 3.428 3.725 6 7.312 6 4.112 0 7.438-3.39 7.438-7.563s-3.326-7.563-7.438-7.563c-3.024 0-5.64 1.838-6.812 4.469h-18.094l-.344-20.563c10.73-2.276 18.75-11.326 18.75-22.156 0-12.546-10.757-22.719-24.031-22.719zm0 7.75c8.355 0 15.126 6.885 15.126 15.374S477.955 557 469.6 557s-15.125-6.886-15.125-15.375 6.771-15.375 15.125-15.375z" style="fill:#00f;fill-opacity:1;stroke:#fdffff;stroke-width:1px;stroke-linecap:butt;stroke-linejoin:miter;stroke-opacity:1" transform="matrix(3 0 0 3 -1017.502 -1313.802)"/><path d="M439.75 529.656c-2.794 2.314-2.85 5.555-2.437 8.938l20.625 7.437c-19.327 19.117-26.334 59.131 3.906 81v-13.406c-17.586-24.482-7.91-44.495 7.75-64.687-2.45-4.312-5.36-5.296-8.344-5.875a44 44 0 0 0-2.937 2.593c2.13-3.966 3.603-7.655.093-11.125zm37.313 90.063.218 14.187c30.318 34.43-15.796 71.53-51.344 53.969l4.688 8.719c16.047 4.533 40.366 13.777 64.5-24.532 10.688-41.851-12.81-46.626-18.062-52.343zm-42.844 39.406c-1.893.02-4.498 1.416-7.063 2.781-5.402 20.252-22.237 27.747-41.562 32.469 10.454.902 9.756 4.569 9.719 8.094 9.378-13.804 37.335-5.053 40.968-42.375-.507-.697-1.202-.978-2.062-.969z" style="fill:#000;fill-opacity:1;stroke:#fff;stroke-width:1px;stroke-linecap:butt;stroke-linejoin:miter;stroke-opacity:1" transform="matrix(3 0 0 3 -1017.502 -1313.802)"/></svg>