<svg xmlns="http://www.w3.org/2000/svg" viewBox="0 0 167.25 207.15"><path d="M155.59 769.6c-13.698 0-24.812 11.114-24.812 24.812 0 11.298 7.572 20.816 17.906 23.812v10.156h-3.062a4.78 4.78 0 0 0-4.688 3.75h-32.031c-1.59-5.823-5.522-9.969-10.125-9.969-6.007 0-10.906 7.032-10.906 15.688s4.9 15.688 10.906 15.688c4.669 0 8.644-4.264 10.188-10.219h31.969a4.81 4.81 0 0 0 4.688 3.75h1.125c-3.393 38.936.028 93.703-11.875 95.22-13.376 1.09-40.054-27.203-38.25-29.313 1.788-.894 7.265-.61 8.562-.531l8.125-6.563-40.406-20.688 2.281 51.5.844-.687c4.024-5.57 9.219-14.469 9.969-15.719 3.519 10.274 11.588 21.256 18.344 30.562 11.364 14.9 42.516 32.046 72.719 20.469 28.712-8.279 35.267-35.115 48.594-50.781.67 1.118 4.89 8.37 8.656 13.875l3.031 2.344 1.188-51.562-39.97 21.562 7.344 5.687c1.177-.073 6.81-.376 8.625.532 2.916 4.934-20.15 22.683-24.594 25.5-17.678 8.586-19.2 2.047-20.969-5.782-1.557-6.896-4.328-69.979-5-85.625h1.594a4.81 4.81 0 0 0 4.688-3.75h31.969c1.544 5.955 5.518 10.22 10.188 10.22 6.007 0 10.906-7.033 10.906-15.689s-4.9-15.688-10.906-15.688c-4.604 0-8.536 4.146-10.125 9.97h-32.031a4.78 4.78 0 0 0-4.688-3.75H162.5v-10.157c10.335-2.997 17.906-12.515 17.906-23.812 0-13.698-11.114-24.812-24.812-24.812zm0 11c7.624 0 13.812 6.189 13.812 13.812 0 7.624-6.189 13.812-13.812 13.812-7.624 0-13.812-6.189-13.812-13.812 0-7.624 6.189-13.812 13.812-13.812z" style="fill-rule:evenodd;stroke:#000;stroke-width:1.6242px;fill:#2c416b" transform="translate(-72.09 -768.79)"/><path d="M83.625 3.625c-2.968.079-6.317.571-10 1.688-.357.357.353 2.83 6.781.687 6.429-2.143 18.563 2.862 16.063.719-1.719-1.474-6.314-3.267-12.844-3.094m4.219 46.25-.75.094c-.131.018-.225.602-.219 1.281l.25 7.812c.006.68.119 1.206.25 1.188l.719-.094c.131-.018.225-.602.218-1.281l-.218-7.813c-.006-.679-.119-1.205-.25-1.187M30.75 56.719c-2.009 0-4.342 1.262-4.625 1.125-1.747 3.191 2.482 3.875 3.906 3.875 1.429 0 2.862-5 .719-5m110.34 0c-2.14 0-.74 5 .69 5s5.72-.692 3.94-3.907c0 .358-2.48-1.093-4.63-1.093m-47.871 5.125L73.5 62c-.722.006-1.269.121-1.25.25v.062l-.281.063c-.13.019-.225.591-.219 1.313l.031 3.124c.006.722.121 1.301.25 1.282l.938-.156c.129-.019.224-.623.219-1.344l-.032-3.094c-.001-.1-.026-.157-.031-.25.182.015.346.033.563.031l19.718-.156c.187-.002.31-.049.469-.063-.014.165-.033.307-.031.5l.094 10.938a5.5 5.5 0 0 0-.813-.062L90 74.469c-.722.006-1.269.12-1.25.25l.125.937c.019.13.622.225 1.344.219l3.093-.031c.314-.003.594-.059.813-.094.02.026.041.066.063.062l.874-.124c.131-.018.225-.571.219-1.25l-.093-11.063c-.006-.679-.12-1.205-.25-1.187l-.344.062-.032-.188c-.018-.129-.622-.224-1.343-.218m34.471 3.218-26.75.219c-.68.006-1.208.119-1.19.25l.094.75c.018.131.566.225 1.246.219l26.75-.25c.68-.006 1.21-.119 1.19-.25l-.09-.719c-.02-.131-.57-.225-1.25-.219m-62.878.344-26.718.25c-.679.006-1.237.119-1.219.25l.125.719c.018.131.571.225 1.25.219L65 66.625c.679-.006 1.205-.119 1.188-.25l-.094-.75c-.018-.131-.602-.225-1.282-.219m23.313 12.469c-.076-.004-.139.018-.219.031l-.156.032c-.642.107-1.152.727-1.125 1.406l3.406 84.346c.028.68.577 1.14 1.219 1.03l.156-.03c.642-.11 1.121-.73 1.094-1.41l-3.406-84.342c-.024-.594-.435-1.038-.969-1.063M5.937 123.47a1.33 1.33 0 0 0-.813.53c-.398.55-.252 1.27.344 1.59l22.625 12.38c.596.32 1.414.14 1.812-.41s.221-1.27-.375-1.59L6.905 123.59a1.4 1.4 0 0 0-.968-.12zm153.78 0c-.17.02-.32.04-.47.12l-22.63 12.38c-.59.32-.74 1.04-.34 1.59s1.19.73 1.78.41l22.63-12.38c.59-.32.74-1.04.34-1.59-.3-.41-.82-.59-1.31-.53" style="fill-rule:evenodd;fill:#fff"/></svg>