<svg xmlns="http://www.w3.org/2000/svg" xml:space="preserve" viewBox="0 0 168.143 315.244"><path d="M96.241 43.644c1.577-.795 1.577 2.416 0 1.623zM82.724 55.538c1.437.005 3.088-.206 3.783.541-.129.781-4.447 1.256-3.783-.541M90.293 81.487c1.576-.795 1.576 2.417 0 1.623zM92.457 81.487h1.08v1.082h-1.08zM85.968 113.38c1.152-.253 1.028.772 1.081 1.621-.438-.103-.538-.542-1.081-.54zM85.968 120.41c.627-.088.962.119 1.081.54-1.031 13.998-.177 30.515-.542 45.954-2.059-1.438-1.036-4.392-1.08-6.486-.265-12.767 1.088-25.382.541-38.385v-1.61zM84.886 186.91c.134-.681 1.076-.546 1.082 0-.311 7.948.83 20.021-1.082 24.868-.511-9.74 1.295-17.64 0-24.87zM84.346 224.75c1.952 1.517-.127 3.86 1.081 7.027-2.332-.37-.497-4.91-1.081-7.03z"/><path d="M98.402 99.869c5.544.315 8.953-1.49 13.519-3.784 16.062-8.076 33.081-16.271 48.654-23.787 2.563-1.239 5.879-2.359 7.568-4.867-3.565-6.173-10.474-1.944-14.598-.541-10.729 3.654-19.825 7.428-29.733 11.353-7.591 3.007-15.232 6.248-25.41 5.407 1.301-4.121-4.016-4.841-5.406-8.651-1.512-4.146-.009-9.38-1.081-15.137 2.352 2.61 3.023 4.254 6.487 3.784 2.812-.382 2.811-4.279 5.947-3.784-.511-2.769 1.275-2.927 3.244-4.325-.128-3.956.369-5.453.54-8.11-4.001 1.272-2.45-2.896-5.405-4.324 1.188-4.978-.271-17.997 1.081-27.032-3.312-6.06-6.045-14.136-13.516-15.679-6.93-1.431-14.545 1.118-18.372 6.489-6.025 8.453-1.927 22.667-3.244 36.223-3.396 1.216-6.139 3.57-6.487 7.028-.455 4.512 3.1 6.234 4.325 9.731 2.921-1.416 3.627 3.048 6.487 3.244 2.628.18 3.804-2.165 5.407-2.703-1.371 5.646.559 10.969-1.082 15.138-1.368 3.476-6.149 3.582-5.947 7.568-4.893 1.076-7.956-.831-12.974-2.704-14.155-5.281-27.837-10.428-41.089-15.678-4.918-1.947-12.755-5.792-16.759 0 3.923 3.68 9.154 5.501 14.057 8.11 4.784 2.545 9.769 5.515 14.597 8.109 4.929 2.649 10.257 4.39 15.137 7.028 4.77 2.58 9.17 6.484 14.597 7.028 1.431 2.715 4.986 3.304 7.569 4.866h5.406c-1.528 4.741 3.628 6.084 4.324 10.272.736 4.424-1.495 11.157-1.081 17.3.908 13.477.151 28.445 0 42.71-3.837 1.524-4.373 9.7.541 10.812-1.068 19.677-1.239 47.604-1.082 66.497-2.585 1.832-.907 7.223-2.163 10.271-6.426-.963-14.386-.392-21.625-.54-5.553-3.673-12.622-8.385-13.516-16.76-.379-3.551 1.188-6.507 1.622-10.271.471-4.088-.701-9.797-1.082-14.598-.52-6.54-.836-13.58-1.621-20.004-1.974-16.137-8.03-25.146-20.003-30.274-6.572 5.22-12.943 11.04-15.138 22.166-1.926 9.764-.89 25.772 0 36.764.226 2.787.768 7.934 1.622 9.73 1.47 3.092 5.222 3.791 7.028 5.947 4.864 5.806 4.331 13.279 7.028 19.461 5.883 13.483 19.775 20.721 30.815 28.654 8.497 6.104 13.932 13.736 16.219 25.41 4.688 2.628 11.26.854 17.841 1.08 6.193.213 12.514 1.155 18.381.54 2.604-4.207 2.798-10.553 5.406-14.597 3.104-4.816 8.224-7.188 12.975-10.271 2.933-1.905 5.722-3.735 8.65-5.407 5.799-3.31 12.451-6.366 16.76-11.354 3.511-4.063 5.253-9.021 7.027-14.058 1.602-4.54 2.634-10.487 5.404-15.677 1.98-3.704 7.317-6.956 8.651-11.354 1.642-5.416.635-13.246 1.082-20.543.36-5.905 1.57-11.472 1.08-16.22-1.276-12.361-6.639-20.723-15.678-27.031-3.897 2.088-7.405 4.739-10.272 7.028-2.873 2.297-5.411 5.542-7.028 8.649-4.822 9.279-5.46 20.376-6.486 34.061-.275 3.667-1.34 7.358-1.082 10.271.599 6.751 4.86 11.914 3.245 17.843-1.304 4.776-6.492 9.57-10.813 10.812-7.358 2.11-17.071-.645-26.489.54.354-4.316-.053-7.877-1.623-10.271.929-22.466.451-44.817 1.081-66.497.556-1.606 3.492-.835 3.784-2.704-.258-1.937-.879-3.123 0-4.864-.012-2.332-4.057-.629-3.784-3.244 1.559-12.393-.258-34.237.542-50.278.179-3.587.202-8.925 1.08-11.354.655-1.809 3.115-2.279 3.785-3.784.981-2.19-1.48-3.75 1.096-4.881zm7.568-50.818c1.381.06 1.074 1.81 1.082 3.244-2.04.461-1.91-2.421-1.08-3.244zm-2.7-.542c.826.01 1.187 4.008-.539 3.244-.07-1.333-.08-2.605.54-3.244zm-2.17-4.325c.624-1.749.612 1.451.541 2.163-.62 1.749-.61-1.451-.54-2.163zm0 4.867c2.965.302-.517 5.304 1.081 5.945-2.464 1.812-1.56-4.417-1.08-5.945zm-35.135 4.324c-1.421.16-.425-2.098-2.163-1.623-.314-2.116.465-3.138 1.082-4.325 2.277.068.536 4.149 1.081 5.948m1.621-8.108h1.082v1.081h-1.082zm-.54 9.189c.199-2.144-.496-5.18.54-6.488 2.088.407 1.352 6.54-.54 6.488m35.684 43.791c-1.358-.232.898-1.164 1.621-1.081-.4.504-.98.819-1.62 1.081zm-8.652-18.921c-2.669-.395-2.973-3.154-3.243-5.947.868 2.195 2.475 3.65 3.243 5.947m-3.785-22.167c2.63.539.113 4.13.54 5.947-1.237-.925-.199-4.127-.54-5.947m6.488 1.623c-.731-.168-.449-1.355-.54-2.163 1.886-.483.925 1.763.54 2.163m2.702-1.082c-1.964-1.068-1.171-7.273-.539-9.191 1.256 1.994.187 6.3.539 9.191m-24.327-3.244c-.836 1.653-.477-2.345-.541-3.244.836-1.652.476 2.346.541 3.244m2.162-3.784c-.91 2.032-.528-3.232-.54-5.405-.017-2.994-.292-6.421.54-7.57.624 2.798-.419 8.583 0 12.975m-1.622-35.681c-1.576 8.109.674 18.492-.54 25.409-1.327 1.376-2.07 3.337-1.622 6.488-1.253-.173-2.076.086-2.703.54.139 1.123 2.375.148 2.703 1.081.677 3.859-1.68 4.303 0 6.487-1.624-2.086-2.567-.072-2.163 2.704-3.929-.519-.534-7.093-1.622-11.353 1.018-.661 2.502.258 3.244-1.623-.898-2.501-1.451.816-3.244.542 1.495-19.532-5.01-48.163 21.084-43.25v1.621c2.941-1.316 1.728 1.807 4.325.54.15.874-.513.933-.542 1.623 9.303 6.659 3.249 26.767 4.865 40.006.265 2.545-.974 1.306-.539-.54V41.48c-1.474 3.574-1.012 9.082-1.082 14.058-3.594-1.391-1.982 1.478-3.784 2.162-.038-2.4-2.474-9.885 1.621-9.731.39-1.468-2.549.387-2.162-1.081-.84-1.922 1.836-.327 1.623-1.621-.081-1.001-1.832-.333-2.164-1.083-.345-10.757 5.176-28.46-3.784-34.6.532-1.425 4.144 2.929 5.406 4.324-1.464-9.668-16.869-9.466-18.92 1.083m7.028-5.947c-.712 1.09-1.774 1.829-3.244 2.162.712-1.089 1.776-1.829 3.244-2.162m-3.784 5.947c1.889-6.411 10.659-6.266 13.517-.542.223 8.808-.379 17.413 0 24.87-1.346-1.216-3.181-2.475-5.948-2.703-2.568-.212-6.654.354-7.027 2.703-.504-1.314-1.023-3.067-1.081-4.866-.171-5.259-.66-15.393.539-19.462m.54 56.765c1.177-7.337-1.17-17.339.541-23.788h2.703c-.497-.944-1.689-1.193-3.244-1.081-1.555-8.275 8.288-12.081 11.354-6.488-1.701 2.013-1.35-2.58-3.244-2.163-1.568 1.561 1.467 1.278 1.621 2.704v5.947c-.896.906-3.174.431-4.864.54.604 1.379 4.183-.217 4.864 1.081.691 8.877-1.286 21.206 1.623 30.817-2.151-.191-5.359.674-5.947-1.083-.678 1.845-4.212.833-6.487 1.083-1.433-1.898.571-4.394 1.08-7.569m.541 8.11c4.798-.456 11.958 1.242 14.596 1.081-.454.628-.712 1.45-.54 2.704-1.928-.596-6.513 1.466-5.946-1.623-3.012 2.821-8.453.984-13.516 1.083-.978-3.186 3.565-3.07 5.406-3.245m-14.056 17.84c.575-1.226 3.399-.206 4.866-.54-.575 1.228-3.399.206-4.866.54m8.65.541c.288-1.848 2.604-.828 3.785-.541-.234 1.21-2.666.219-3.785.541m1.621 58.933c1.124-.559.281 5.467.542 7.567-1.124.55-.281-5.47-.542-7.57zm1.622 10.81c-.597-5.891 1.27-14.246-1.081-18.38 3.344-12.448-.274-30.629 1.622-41.089.014-.075.975-.621 1.081-1.621.016-.155-.56-.541 0-1.081.55.351.559 1.243 1.622 1.081 1.208-4.232 5.245 1.908 7.028.54.304 20.69-.252 42.248-.541 63.794-2.531-1.208-6.682 1.707-11.354-.541-.74-2.18.971-1.91 1.623-2.7zm-2.162 56.76c.726.355 1.007 1.155 1.082 2.163-.951-.12-1.233-.92-1.082-2.16zm.54-29.73c1.21 5.502.217 18.562.542 27.031-1.211-5.5-.217-18.56-.542-27.03zm-1.621 55.14c2.184 1.939 6.26-2.442 7.029-5.405-1.605-.149-2.603 4.956-5.947 4.864 2.53-3.415 6.681-5.213 5.947-11.894-1.922 2.042-1.003 6.927-4.326 7.568-.191-.62-.952-1.37-1.082-.54-1.241-1.104-.195-4.49-.54-6.488 1.194.067.229 2.294.54 3.244 1.852-.953 1.914-8.014-1.081-7.568-.545-1.626 1.204-.958 2.162-1.082 1.163-15.056.251-32.186.541-48.115-1.816-.556-.841 1.682-1.081 2.703-2.995-6.078 7.81-6.628 10.812-3.783-1.61 16.724.394 38.002-1.082 56.226-.731-.168-.447-1.355-.539-2.163-1.583 1.765-.042 3.67-1.622 4.865 1.612 1.089.691 5.746 3.243 4.326-.512 2.442 1.744 3.998 2.164 6.486.965 5.735-.859 12.159-.543 17.301-4.618-.969-11.25.077-15.677-1.082 1.447-5.42-.399-14.11 1.082-19.48zm.541-3.78c.478-1.467 2.398.454 1.081 1.081-.588-.13-.367-1.08-1.081-1.08zm14.597-28.11c1.665 6.64-.554 19.149 0 28.113-.939 2.01-.509-3.838-.543-5.947-.109-6.99.753-15.53.543-22.16zm-1.081-18.93c.046 2.126-.078 3.794-.036 3.525l.036-.281c-.021.154-.029.237-.036.281-.488 4.032-.455-2.499-.506-5.688-.065-4.195-.294-10.417.542-11.896 1.172 3.87.484 11.67 0 14.07zm-.542 40.55c-.06 1.662.9 4.562-1.081 4.865.778-6.79.511-14.626.54-22.167.773 2.65.75 11.42.541 17.3zm-49.737 8.65c1.497-.054 2.883 2.41 4.866 4.323 1.298 1.254 1.971 2.548 3.784 3.244-2.682.329-6.782-2.581-8.65-4.865 1.216-.51 1.008-1.74 0-2.7zm-1.622-1.08c-.074 1.131-2.317-4.383-2.162-7.028 1.76 1.31 1.366 4.76 2.162 7.03zm3.784 34.6c3.217.214 6.787 4.742 10.272 6.487-3.169-.26-6.8-4.73-10.272-6.49zm22.707 23.79c-2.577-4.631-4.392-10.025-8.11-13.516 1.697-.255 1.429 1.455 2.703 1.622-3.501-6.95-11.618-9.285-16.759-14.598h14.597c.039.075.065.161.096.244.267-.064.549-.109.862-.109.326 0 .619.05.896.119a.6.6 0 0 1 .309-.254c1.836.146 4.383-.418 5.407.542-.242 9.38.447 17.78-.001 25.96zm0-27.03c-8.271-2.239-18.358 1.287-25.41-.54-3.699-.957-5.237-3.993-8.088-5.394-.74-.39-1.386-.938-1.846-1.626-.114-.004-.223-.004-.338-.01-2.371-2.313-3.461-5.908-7.028-7.026-3.947-6.326-4.757-15.787-8.65-22.167-.392-1.653.933-1.59.54-3.243-1.522-3.344-5.391-4.34-7.028-7.568.104 3.32 1.97 4.878 4.325 5.947-6.35.458-7.028-8.832-7.569-16.76-.531-7.785-1.096-17.667-.541-25.95.895-13.35 7.381-22.821 14.597-27.031 3.321 1.565 6.953 4.223 9.73 7.568 3.665 4.416 5.45 8.905 6.488 15.138.683 4.103 1.05 7.215 1.082 11.895.067 9.983 4.006 25.57 1.622 32.438-.758 2.184-2.749 3.497-3.244 5.407-1.408 5.425 2.01 14.556 7.568 15.677-.747-2.343-6.212-7.1-4.865-9.188 2.328 3.497 3.267 6.798 6.487 9.188 7.171 5.325 19.357 2.023 30.275 3.784-.005 3.524-.361 6.362-.54 10.814-3.361-.095-5.098.735-7.166 1.165a3.1 3.1 0 0 1-.126 1.235c.108.08.203.173.264.3-.7 2.64.066 3.39-.539 5.94zm50.818 10.27c-.392 1.895-.518 4.125-3.783 4.323-.022-.924.4-1.398 1.081-1.62-3.59-.337-4.266 6.903-8.649 7.567-.707-5.021 1.443-7.604.539-11.353h.006a3.8 3.8 0 0 1-.084-1.876c-.521-1.626-.905-4.873.078-6.232 11.516.38 14.072.406 24.869 0-3.72 4.05-9.87 5.64-14.07 9.19zm16.76-42.17c.676-2.286.358-4.749.54-7.57 4.142 6.057-1.563 13.584-5.947 16.219.32-2.7 4.27-4.8 5.41-8.65zm-36.762 11.89c20.081 1.332 43.343 1.694 38.925-20.003 1.391.052.773 2.11 2.163 2.163.338-2.639-2.197-3.788-3.243-5.407-.986-1.523-1.212-4.153-3.242-4.865-.306-16.19.746-39.062 9.729-50.817 3.291-4.31 8.13-6.406 12.436-9.731 3.614 1.711 6.214 5.965 8.649 10.271.55-.352.56-1.244 1.621-1.08-.429 2.555-1.004.995 0 3.242 4.604 10.299 2.235 24.849 1.083 40.006-.172 2.234.36 4.523 0 6.487-1.081 5.863-5.938 9.87-9.19 12.976-3.27 16.736-8.347 31.661-22.706 37.304-8.238.358-11.825-.95-18.923 0 .007-.144-.003-.273-.003-.412a2.57 2.57 0 0 1-1.329-.135l-.181-.065c-.056.021-.108.052-.165.065a3.3 3.3 0 0 1-.793.114q-.118.215-.233.433c-2.088.105-3.982.021-5.406-.541-.43-1.182-.437-2.078-.177-2.754a3.6 3.6 0 0 1-.421-1.653c-1.628-2.831-4.96-3.957-9.134-4.24-.404-4.38.644-7.3.542-11.37zm-1.082 12.98.001.046a3.3 3.3 0 0 1 1.387-.05c3.551-.047 6.844.163 6.183 4.328a1.4 1.4 0 0 1-.292.22c.082.459.083.929-.007 1.386.102.005.196.015.299.019-.36 11.533 1.108 24.897-1.621 34.06-11.036 1.516-25.647-.282-35.142-.54.909-7.201 1.222-14.996 1.082-23.247.012-.008.033-.016.045-.022a3.6 3.6 0 0 1 .064-1.576c-.036-.01-.072-.015-.109-.023v-6.485c.083-.033.184-.05.271-.079-.017-.057-.043-.104-.058-.163a8 8 0 0 1-.209-1.379q-.002-.002-.003-.002l.002-.041a6.3 6.3 0 0 1 .278-2.364.73.73 0 0 1-.281-.298c-.319-1.938.628-2.614 1.081-3.783h27.03v-.03zm-2.163-70.28c-1.088.875-.306-4.716-.54-6.487 1.087-.88.305 4.72.54 6.49zm-.54-9.73c.351-1.523.627 1.246.54 1.623-.25 1.08-1.015.43-.54-1.62zm1.623-15.68c.222 1.301-.986 1.174-.54 2.702-.624-1.587-1.638-2.133-2.164 0-2.884-1.212-8.929 1.343-12.434 0-.159-.062-.273-1.553-.542-1.621-.482-.126-1.83 1.994-1.622.54-.523-2.104 2.107-2.228 2.703-1.621-.063-3.2-.717-1.874-2.703-2.163 2.094-3.016 11.36-1.531 15.14-1.081.229 1.13-.373 1.431-.543 2.162-1.152.253-1.028-.772-1.08-1.621-1.556 2.414-5.652 1.306-10.272 1.621 5.477 2.23 8.403-.02 14.057 1.08zm-2.706-56.23c.78 9.09 1.003 20.828.543 32.979-.125 3.237.188 7.681-.543 10.271-.722 2.563-.807-3.337-.538-.539-.591-6.156.488-13.109.538-18.922.066-7.5-.046-15.69 0-23.79zm0 50.82c-.249 1.086-1.016.438-.538-1.622.351-1.53.627 1.24.538 1.62zm-13.514-67.58c2.365-4.723 12.833-1.967 16.218-1.623-2.136 4.51-13.569.81-16.218 1.62zm10.811-6.485c-.068-.97.663-1.141.542-2.163-2.44-.638-1.208 2.396-3.784 1.623-2.585-2.583-.121-7.057 2.703-7.57 2.394-.083-.256 1.53 1.081 2.163 3.112-1.055 1.073-4.968-2.703-3.784-1.407 1.836-3.168 3.319-4.325 5.407-.417 2.038.66 2.584.541 4.325-4.814-.988-10.1.054-15.138-1.081-4.042-.911-9.46-4.326-13.516-6.488-.7-.374-1.3-.591-2.162-1.083-6.117-3.479-14.59-7.521-21.625-11.353-2.425-1.321-4.978-1.616-7.029-2.703-.249-.132-.719-1.407-1.081-1.621-3.773-2.243-9.238-3.04-12.435-6.488-2.379.036-4.415-.271-4.865-2.163C9.382 62 15.592 66.018 22.173 68.511c13.409 5.081 30.543 10.523 42.71 16.219 14.364-1.531 30.083 2.406 44.333 0 4.143-.699 8.27-3.28 12.433-4.865 10.765-4.098 20.819-7.172 31.896-11.354 1.995-.752 4.191-2.44 5.947-2.702 1.77-.265 6.4-.888 7.568 1.621-4.786-.745-7.525 2.672-10.813 4.325-11.614 5.841-28.014 12.506-41.087 18.922-8.29 4.066-15.596 8.277-28.663 5.948z"/><path d="M94.078 59.863c-.435 3.273 2.478.361 0 0M92.457 101.49c-.572 3.14 2.34.23 0 0"/></svg>