<svg xmlns="http://www.w3.org/2000/svg" xml:space="preserve" viewBox="0 0 218.096 379.139"><path d="M112.74 50.962c1.635.007 3.518-.232 4.311.617-.15.89-5.07 1.431-4.31-.617zM117.66 61.43c-.458 1.388-3.454.241-4.926.616.06-1.875 4.03-1.443 4.93-.616zM193.4 234.45c2.932 1.585 1.422 7.608 3.079 10.468.459 3.601-.72 9.034-.616 2.463-1.01-4.13-1.62-8.64-2.46-12.93zM201.4 245.53c2.692 1.257.524 6.105.617 8.621-1.42-1.66-.22-5.94-.62-8.62zM203.87 249.84c2.378-.006 1.184 5.754.615 6.771-1.27-1.39.93-3.92-.61-6.77zM196.48 252.3c.399-1.737.714 1.418.615 1.848-.29 1.24-1.16.5-.62-1.85zM19.766 266.46c1.346.092 1.322 1.551 1.231 3.079-.915-.52-.891-1.98-1.231-3.08zM31.464 345.28c-3.229 1.547-7.067.143-8.62-1.848-2.296-12.47 14.88-6.3 8.62 1.85zm-7.389-3.08c1.918.005 4.013 1.455 5.542 0 1.073-6.24-6.097-5.76-5.542 0M90.573 342.2c10.812-1.503 21.861.812 35.099 0-2.058 2.303-5.979 1.247-8.622 1.23-6.13-.04-17.757-.9-26.477-1.23M76.412 353.28c1.31-1.068.017 5.702 1.231 6.771-2.593-.07-.611-4.72-1.231-6.77zM124.44 353.9c-.532 2.283-3.988 1.181-5.543 1.23-8.729.284-18.732-1.32-28.938-.615-.101-.716.136-1.095.615-1.23 9.273-.64 21.763.81 33.863.61zM134.9 358.21c-2.585 1.392-6.999.615-12.312.615-12.259 0-20.791.251-33.866-.615-.795-.052-3.64 1.002-3.694-1.229 15.07.13 32.65.47 49.87 1.24z"/><path d="M96.114 325.57c-.979-2.828-5.867-4.367-6.772-8.619-.874-4.1-.082-8.042 3.078-10.468-1.657-3.217-4.313-4.591-3.694-8.62.599-3.89 5.414-6.649 10.468-6.155 1.608-74.851 4.138-157.51 6.157-229.66 1.298 9.391-11.028 12.573-12.93 3.694-7.752-3.113-6.196-16.729.617-19.703 1.142-16.874-2.116-34.626 9.235-42.485 12.5-8.653 31.317-.399 33.865 12.93 1.729 9.065-1.493 19.287-.615 28.939 1.903 3.235 6.503 5.435 6.771 10.467.244 4.561-2.188 8.45-6.156 10.467-.898 8.007-14.503 6.892-11.698-3.694-2.228 21.471-.787 44.983-1.847 68.345-1.32 29.044.435 59.135-.617 88.665-.885 24.877-.559 49.287-1.23 72.654 9.09-1.814 16.801 9.463 6.157 14.16 1.261 2.979 3.672 5.229 3.692 8.621.034 5.291-4.122 8.536-7.39 11.083 2.348 9.468 18.253 14.051 24.016 4.926 2.646 1.422 7.294-.101 9.235.615 1.309 5.26.299 12.836.614 19.087 3.291-1.021 1.773-5.42 1.849-7.389.319-8.465-.037-16.402 0-24.628.045-10.512 2.293-21.248 1.23-30.786-.187-1.665-.646-3.828-1.23-5.542-4.013-11.808-10.486-20.302-8.619-38.175 2.2-21.076 14.51-34.668 31.4-44.332 11.854 5.675 19.477 14.397 25.243 26.476 5.641 11.814 7.712 30.656 2.463 45.563-2.224 6.316-7.572 10.135-8.619 18.472-.837 6.669-.37 15.166-.614 23.396-.385 12.835-.29 26.102.614 36.328.827 9.333 9.871 14.398 17.241 17.239.241 2.911-.199 5.139-.617 7.389-20.425 2.059-44.821 2.429-67.111 4.311-1.588-7.184.229-19.13-1.231-24.628-2.753 4.727 1.001 16.139-3.078 22.166-2.964-2.012-6.073-.985-8.62-1.23-2.58.732-1.101-2.596-2.465-3.079-19.999.294-37.331-.502-52.951-.614-2.447-.602-.253 3.438-2.463 3.076-3.017.146-4.661-1.084-8.004-.614-.239-6.286.155-15.354 0-23.397-3.039.261-1.725 4.13-1.847 6.158-.382 6.342-.016 13.996-1.231 20.317-21.265-.498-44.811-4.03-67.729-4.926-1.238-1.841-.348-5.811-.615-8.621 9.37-2.818 16.649-7.455 18.472-16.623 1.777-8.945.465-20.849 1.231-31.401.885-12.191 1.869-27.53-1.231-38.79-3.391-12.311-8.645-19.901-6.773-36.328 1.077-9.452 5.6-19.188 10.467-25.86 4.898-6.714 11.802-12.387 20.319-16.008 18.251 9.962 36.938 33.007 29.555 64.65-1.99 8.53-8.238 15.113-10.468 24.012-2.829 11.29.263 30.446-1.232 43.718 4.071-.352 6.146-1.901 10.468-1.23 4.332.671 7.396 4.791 11.083 4.926 6.731.23 9.854-4.83 14.183-9.25zm.616 0c-1.823 4.745-6.289 6.847-9.852 9.854 5.586-.57 10.525-5.06 9.852-9.85zm-4.925 9.85c9.006.225 19.962.448 28.323.614 2.215.046 4.729 2.114 6.155-.614-3.729-1.811-5.108-5.975-8.002-8.62-.142 1.092.619 3.083-1.232 2.462-.105-.92.222-2.272-.615-2.462-.061.967.082 2.135-1.23 1.847-.105-.921.221-2.271-.616-2.462-1.063.374.048 2.919-1.231 3.077-.853-.377-.093-2.369-1.23-2.462.076 3.764-1.202.158-1.848-.615-.854.378-.094 2.371-1.231 2.462.183-4.174-.752-1.023-1.847 0v-2.462c-2.234-.593-.517 2.767-2.462 2.462-.337-.895.72-3.182-.616-3.079-1.062.374.047 2.921-1.231 3.079-.35-4.704.167-.105-1.847 0-.105-.921.219-2.271-.616-2.462-3.059 2.88-5.855 6.03-8.615 9.22zM103.5 33.11c1.08-3.712.366-8.958.616-14.777h.616c-.348-3.182-.527 1.602-2.463.616.263-10.571 17.551-13.938 22.782-5.541.184 1.21-.831 1.22-1.231 1.846 4.697 6.535 1.678 20.68 1.85 30.17 2.497-.17 3.376-1.958 6.771-1.231-1.257-9.042 1.742-17.907.615-25.245-1.271-8.272-6.991-11.717-12.93-15.393.921-.104 2.271.22 2.464-.615-13.903-5.031-25.577 4.186-27.708 16.625 1.593 6.962-.902 15.042 0 25.86 2.791-.015 4.241-2.053 6.773-.616.714-7.906-1.494-18.734 1.232-24.629 1.59 4.297-.43 8.477.61 12.93zm24.02-26.476c.095-1.737-1.742-1.543-2.463-2.463-.3 1.931 1.54 1.736 2.46 2.463zm-8.01 4.31c-1.95-1.317-6.845-1.968-8.619 0 3.05-1.196 7.22.177 8.62 0zm-14.16 3.694c-2.742 3.82 2.988-1.664 3.694-2.462-1.43.229-3.35 1.993-3.69 2.462zm18.47 35.096c.614 3.109.811-6.733.616-8.004.139-10.892 1.761-27.648-6.773-29.554-15.006-3.352-12.469 17.372-12.93 30.17-.132 3.66-.421 7.334 1.231 8.619.229-4.285-.567-9.597.616-12.93 6.114-1.066 11.941-.387 17.24.617.37 5.144-.56 8.288-.01 11.082zm-20.32-3.693c.125-1.868.441-10.055-.615-10.468.41 3.294-.8 8.197.62 10.468zm-1.23 174.86c-1.417 12.019-.073 24.375-.616 36.328-.815 17.955-1.812 34.047-1.847 54.183.633 13.686.444-1.901.616-4.31 1.561-21.776 1.491-63.052 3.079-88.663-1.07-.58-1.17 1.98-1.23 2.46zm7.39-170.55c.248 1.863-.041 6.922 0 10.467.03 2.469-.526 4.982-.615 7.389-.776 20.853-1.601 42.167-1.847 63.419-.715 61.558-4.7 127.35-5.542 185.95 4.088 1.249 10.332.34 15.394.617.946-91.666 2.448-190.61 3.079-278.92-1.627-.016-6.985-1.49-9.853 0-1.17 3.769-1.01 8.049-.61 11.077zm-1.85 0c-.125-1.164.416-6.083-.616-4.31.13 1.165-.41 6.083.62 4.31zm-12.927-2.462v12.929c2.918.455 4.233-.692 6.773-.615v-8.004c-1.233-1.024-4.566.051-5.542-1.232h4.926c.331-3.489-3.282.539-3.079-3.078.582-1.537 3.172 1.656 3.079-1.232-2.151-2.111-4.257 1.049-6.157 1.232m30.787 1.846c.71 5.445-1.495 13.808 1.229 17.241-.442-1.673 2.902.439 2.462-1.232-1.633-.891 2.261-1.376 1.23-3.694-1.089-.141-3.082.62-2.461-1.232 3.366 1.445 2.681-2.786 4.31-1.231-.045-2.624-1.03-4.307-.615-7.389-1.546-.507-5.301 1.197-4.926-1.232 1.409.393 3.713 1.222 4.926 0 .457-2.51-1.983-2.12-1.232-4.925h-2.461c-1.35.704.61 4.713-2.46 3.694zm8.62.616c.168-.838-.383-2.404-.616-1.231-.17.838.39 2.404.62 1.231zm-44.948 8.005c.349-1.909-.167-4.683 1.847-4.926-.185 3.263-.136 6.293 1.848 7.389-1.066-4.598 2.457-9.991-1.232-11.698-1.528 1.975-4.367 5.876-2.463 9.235m14.158-6.773c.1-.43-.214-3.584-.615-1.848-.53 2.345.34 3.084.62 1.848zm32.64 9.235c1.844-2.084 2.765-7.339 0-9.235.5 3.192-1.89 6.71 0 9.235m-29.56-.615c2.405.309 1.198-8.72.615-7.389.25 2.916-1.1 4.237-.62 7.389zm33.87-4.927c.154-1.063-1.158-3.646-1.847-1.847 1.48-.243-.34 2.805 1.85 1.847zM94.883 66.359c2.792-.287 4.514-1.644 4.926-4.31-1.474-.373-2.809-.885-4.926-.616.139 2.572-1.001 2.909 0 4.926m12.317 6.158c-.476-3.76.806-5.761.616-9.235-.138-.478-.017-1.215-.616-1.231-1 1.838-1 10.674 0 10.466m-4.31-9.852c-1.53 4.06 2.05 2.794 0 0m31.4 3.079c.1-.429-.216-3.584-.616-1.847-.54 2.344.33 3.084.62 1.847zm-27.71 28.323c.099-.43-.216-3.584-.616-1.847-.54 2.344.34 3.084.62 1.847zm-1.23 24.017c.138.478.017 1.215.616 1.232-.186-5.53.262-13.685 0-17.24-1.37 4.17-.26 10.83-.62 16.01zm0 24.01c.099-.428-.214-3.583-.615-1.847-.55 2.34.32 3.09.61 1.85zm-1.23 49.87c-.357-5.136.747-15.547-.616-17.241.36 5.14-.74 15.55.62 17.24zm-1.23 11.7c.401 3.293-.809 8.195.615 10.469.209-7.127-.496-15.798.616-20.32-.035-.375-.092-.729-.616-.615-1.29 2.39-.31 7.07-.61 10.46zm-51.723 14.78c2.864-4.109-4.645-8.411-1.847-10.468.147.669 1.013 1.479 1.231.615-1.75-3.268-8.089-4.924-8.004-8.005-7.706 3.992-14.875 8.522-17.855 17.239-1.648.784-2.927.981-1.847 3.079-1.073-.047-1.915.138-2.462.615 1.233 2.252-.045 2.448-1.847 3.079-.253 1.482 1.124 1.339.615 3.079-2.725.622-.769 1.136-1.231 3.077-.045.19-1.158.938-1.231 1.231-3.573 14.152-1.016 30.772 4.31 41.253-1.144-3.333 1.687-2.981 1.231-1.848.728-1.812-.279-4.62 0-7.39 1.42-14.066 4.567-30.472 8.621-41.868 1.224-3.443 2.339-7.513 4.926-9.235-6.437 16.527-10.572 35.752-11.7 57.262-1.118 21.35-2.871 45.814-3.693 66.497 1.815-1.673 4.562-2.415 6.157-4.31-.983-.863-1.573-2.121-1.847-3.694 1.883-34.854 1.629-71.846 10.467-99.746-.553-.695-1.486.146-1.847-1.847 5.095 1.917 3.32-10.664 8.621-12.315.537 4.828-3.203 9.021-4.926 14.162-.399 1.195.322 2.425 0 3.694-.876 3.47-2.311 6.634-3.078 10.468-1.149 5.737-2.728 11.936-3.079 17.856a12458 12458 0 0 1-3.694 59.724c-.337 5.239-1.969 10.101 1.847 11.698.243-1.061-.914-1.579 0-1.848 3.813 1.85 10.14 8.216 4.926 11.699.195-6.601-6.28-8.563-9.852-6.772-3.862 1.936-2.642 8.5-4.31 14.162-1.052 3.564-3.9 7.198-6.157 9.233-2.718 2.453-4.39 1.911-6.157 4.926 14.38.206 27.716-.662 41.869.617.434-5.508.092-12.259.615-19.088-2.45-.397-2.476 1.629-4.926 1.231-5.49-.851-5.312-9.439 0-10.469 2.1.364 3.235 1.69 5.542 1.849v-3.694c-1.378-.615-4.567 1.335-7.389 1.231-2.333 1.153-2.241 4.736-4.925 5.54.683-1.933.288-1.625-.615-3.077 1.895-3.857 8.027-6.741 11.698-6.772-.49.068-1.867 2.035-.616 1.846 3.162-5.459 2.631-15.373 3.079-25.242 1.096-24.135 1.582-50.845-2.463-70.81.763-.632 2.376.08 1.231-2.462-.196-2.041-1.906 2.4-2.463 0 2.731-2.03 1.664-5.453-.615-4.31-.905-2.344 2.752-.122 1.847-2.463-.074-1.774-3.376-.318-3.079-2.465.056-.971 1.57-.48 1.232-1.849-1.199.008-2.638-1.358-.616-3.076-3.166-.248-.262-2.738-3.078-3.079 1.671.44-.44-2.901 1.231-2.464 2.898.387 2.61 3.958 3.079 6.773 8.599 26.61 8.306 56.946 6.773 89.896-.474 10.183-.764 20.127-1.231 30.17-.339 7.285-1.938 14.993 0 22.165 2.306-1.551 4.455-3.312 7.389-4.926 2.415-1.329 7.399-1.591 6.772-6.156-2-2.047-3.962.855-5.542-1.848-2.057 2.229-4.604 1.489-6.157 0 .679-28.579 2.505-61.042 2.463-89.894-.015-9.99-3.245-21.212-3.079-28.939.853.377.093 2.37 1.23 2.463-.311-3.854-.81-7.42-3.078-6.157.853-3.07 1.718-5.986-1.232-6.157-.76-1.991 1.992-.47 1.232-2.462-1.089-1.16-1.909.84-2.466-1.23zm145.31 20.93c-.526-3.271-2.665-14.194-4.312-14.161.718.104.669.975.617 1.848-3.446-2.186-.858-5.964-1.23-8.619-.358-2.551-2.257-6.37-3.079-8.006-.126-.249-1.119-.302-1.23-.615-.212-.594 1.139-1.118.613-1.847-1.264-1.771-4.164-2.553-5.54-4.311-.185-1.212.831-1.222 1.23-1.849-10.419 2.717-15.491 10.78-22.166 17.239-.801 1.529 1.808 2.557 0 3.079-.286 1.767-2.452 1.65-3.077 3.079 1.518.264 1.529 1.759-.615 1.229.48 6.021-3.529 12.506-4.31 20.32-1.081 10.799 2.352 20.878 6.154 28.321.567-3.645-1.054-5.104-1.229-8.004 1.162.461.426 1.839 1.847.615-.051-17.163 3.528-34.962 8.619-47.409.786-1.923.701-5.701 3.696-5.543-5.806 14.067-9.575 29.032-11.085 46.182-.729 8.282.632 16.553.616 25.242-.032 17.465-1.045 35.885-1.848 53.567-.229 5.058 1.052 10.048-1.23 14.777-2.117-1.989-3.799.231-6.157-1.848-5.727 7.569 7.723 9.75 12.931 12.314-.358-29.527-.113-61.824 0-92.975.058-15.727 2.852-31.798 6.156-43.716 1.346-4.85 2.895-10.156 6.158-12.93-.878 6.321-4.485 13.188-6.158 21.549-1.571 7.854-3.176 16.733-3.692 25.86-1.199 21.066.563 41.867 0 56.646-.281 7.335-2.382 11.02 1.847 14.777 5.126 1.235 10.368 2.356 10.466 8.62-2.524 5.524-12.312 7.039-12.312 0 0-3.146 1.985-4.624 4.311-4.926 3.079-.401 3.878 2.275 6.155 2.462-.562-2.01-3.269-2.521-5.543-3.694-1.899-.979-5.312-3.222-5.54-1.846.012 7.521-1.562 21.041 0 31.399 12.194-.873 27.87.446 43.716.616-2.573-3.406-7.939-4.004-10.467-8.005-1.709-2.707-2.619-6.743-1.847-11.083-4.361.495 1.201-2.236-1.848-1.846-2.891-2.067-2.8 3.082-8.004 1.846-2.683-.636-4.699-3.549-3.694-6.772 1.603-5.153 9.586-2.964 11.083 1.849-.244-5.297-4.351-7.355-8.622-6.158-3.781 1.062-3.106 5.585-4.923 6.773.472-2.32-.751-2.943-.617-4.926 1.857-3.89 6.891-4.604 9.236-8.005-.576-9.724.947-19.781.613-29.555-.188-5.558-1.726-14.138-1.23-20.318.097-1.214 1.224-2.397 1.23-3.693.081-11.85-.776-24.365-1.847-33.249-.615-5.126-2.824-9.748-3.694-14.777-.22-1.267 1.578-1.646 1.23-2.464-.167-.396-2.738.339-1.846-1.23.056-.971 1.57-.48 1.231-1.849-3.741-1.777-.309-4.427-2.464-8.619 2.18 1.729 2.982 4.728 3.694 7.39 3.848 14.395 6.796 36.472 6.158 52.337-.802 19.859 1.962 45.608-1.849 60.956 1.518.067 4.03 4.511 4.311 1.848-.208-7.21.05-18.533.614-25.245 1.612-19.143-1.729-39.98 0-55.415.167 1.318-.476 6.568.615 4.927-.05-8.55-.79-15.53-1.86-22.18zm-144.08-28.32c-.088-1.098-1.096.266 0 .612 4.034 3.562 6.585 8.604 9.851 12.933 5.071 8.562 6.633 21.115 5.542 32.634 4.177-20.42-4.37-37.03-15.393-46.17zm51.102 5.54c.167-.839-.381-2.404-.615-1.231-.16.84.39 2.4.62 1.23zm-46.175 2.46c-2.027-.23-1.242-3.272-3.694-3.077-.343 2.23 2.791 4.14 3.694 3.08zm143.46 33.87c.394 3.411-.757 7.505 1.847 10.469-.06-1.908.278-3.416 1.232-4.312.459 2.599-1.559 6.479 2.463 7.39.608-2.456-1.84-1.854-1.231-4.311 3.951-18.777-2.248-37.382-12.313-46.179 3.86 11.32 6.53 24.11 8 36.94zm3.08-23.4c-1.484-4.159-4.095-11.472-7.389-11.698 2.86 3.34 6.85 11.06 7.39 11.7zm-139.16 4.93c-1.452-5.12-4.067-12.345-7.389-13.546 3.308 3.27 4.357 12.06 7.389 13.55zm-8.62-12.93c2.864 7.807 4.418 16.927 5.542 26.476-.494 2.105.917 3.518.615.616.303-3.801-1.425-6.52.617-8.005.718 5.644-1.501 14.228 1.23 17.856 2.204-14.98-1.281-28.95-8.004-36.96zm149.62 5.54c-.297-.729-.655-1.396-1.229-1.848-.09.82.97 3.39 1.23 1.85zm-140.38 31.4c1.218-6.644 3.307-16.367-.615-21.552.638 7.68 1.584 13.55.615 21.55zm142.85-10.47c-.006-.9.231-5.038-.615-3.077 0 .91-.23 5.04.62 3.08zm-142.85 19.71c.061-1.86.287-5.18 1.847-3.693-.167-1.318.477-6.567-.615-4.927.46 3.1-3.333 7.9-1.232 8.62m-.616-5.55c-2.292-.035-1.776 2.739-1.847 4.926 2.065-.19 1.725-2.79 1.847-4.93zm142.23-3.69c-.041.008.039.572 0 .614-2.92 3.35 2.96-1.13 0-.61zm-8.62 8c.228 1.654-.562 7.494.617 6.157-.396-2.479.8-6.548-.617-8.006-.24.89-.74 1.05 0 1.85zm-138.53 13.55c-.177-1.074 1.966-3.307-.615-3.079.336.9-.72 3.18.615 3.08zm37.559 27.71c.365-5.249 1.214-10.826-1.232-12.933-1.656 1.91-5.69 13.8 1.232 12.93zm-4.309-6.78c-.554-1.705 1.264-5.78-1.232-5.54-1.746 1.14-1.476 5.43 1.232 5.54m35.093-3.69c.375-.574 1.432-2.271-.616-1.847-.47 3.74.81 7.92.62 1.85zm-6.16 10.47c5.604 1.421 4.314-9.293 1.848-10.469-.478.139-1.216.018-1.229.615-.43 1.19-1.91 6.47-.62 9.86zm-24.624 8c2.11.625 1.466-4.626.615-4.925-.951.89-.542 3.15-.615 4.92zm22.784 2.46c3.473.011 3.179-7.263 0-7.389zm-29.557-4.92c-.603 2.86.799 3.718 1.232 5.542 10.06 2.188 30.901 8.196 34.479-2.464-3.953-.67-3.083 3.481-6.155 3.693-6.854-1.354-16.478.059-22.781-1.846-1.288-1.586-1.803-3.945-3.079-5.543.574 2.27-3.24 1.12-3.687.62zm19.707 11.08c5.497.26 12.267 2.354 12.929-1.231-9.196 1.684-21.882-.197-27.706-.615 3.352 2.25 9.066 1.57 14.776 1.84zm-48.646 24.63c1.573.971 6.432.971 8.004 0-.134-5.882.004-11.49.616-16.625-1.322-1.141-4.511-.415-6.773-.615.341 6.71-.071 12.66-1.847 17.25zm86.816-16.01c.47 6.422-.77 11.135-.614 17.24 1.165 1.091 4.065.448 6.155.615.511-5.852-1.201-13.926 1.232-17.855-2.03-.19-5.05-1.42-6.78 0zm-88.663 1.85c-.033 2.272.043 5.18 0 8.004-.039 2.646-1.265 6.239.615 6.773.709-4.646.331-9.737.617-16.01-.136-.48-.516-.716-1.232-.616v1.86zm15.393 28.94c2.118-1.58 1.902-2.306 3.079.617.595-7.96-.489-18.208.616-27.092.968-.06 2.135.082 1.847-1.232-1.858-.604-3.668-1.257-5.542-1.847-2.242 8.31.947 16.98 0 29.55zm-23.397-18.47c.706-2.389 1.247-8.173 0-10.467-.141 2.93-1.49 6.84 0 10.47zm79.427-9.86c-1.146.589-2.059-1.846-2.464 0 .37.18 2.37 1.54 2.46 0zm7.39 3.08c.365 1.274-.762 4.044.616 4.31.562-1.078.21-3.071 1.229-3.694.355 8.267-.744 17.984.615 25.245 2.41.974 1.275-1.6 2.464-1.849 1.341.343-.109 6.623 1.232 4.926-.327-10.068.698-24.327-.617-31.401-1.51 1.15-4.37.96-5.53 2.46zm8 4.31c-.168-1.318.476-6.569-.615-4.926.18 1.33-.47 6.58.62 4.93zm-104.05-3.08c-.138 2.19.416 3.69 1.847 4.311-.224-2.071 2.668-1.026 3.694-1.847-.964-2.021-.915-2.715-1.231-4.311-2.324-.26-2.89 1.22-4.31 1.85zm81.893-.61c-.991.193.046.875 1.232.615-11.232 1.804-30.102-.344-42.486 0-1.394 5.585-.236 13.72-.615 20.318 18.654-.288 36.4 1.146 52.952 1.231 1.605-5.986-.302-15.488 1.23-21.551-3.51-.53-9.07-1.84-12.31-.62zm62.8 5.54c1.444-.194 2.311-.972 4.311-.614.138-.479.015-1.215.613-1.23-.62-1.635-1.012-3.503-3.076-3.694-1.75 1.04-3.17 3.1-1.84 5.53zm-11.08-3.08c-1.196-3.475-8.084-2.081-6.156 3.077 2.285-1.778 1.669.312 4.311-.614.272-1.164-.838-3.712 1.233-3.079-.02.65.29 1.56.62.61zm22.16 1.85c1.715.986 1.703-2.659.617-2.464-.19.83-.88 1.17-.62 2.46zm-126.83 5.54c-.227-1.656.564-7.496-.616-6.157.227 1.66-.564 7.5.616 6.16zm67.734-1.85c.099-.43-.217-3.583-.616-1.847-.54 2.35.33 3.09.62 1.85zm7.38 4.93c-.201-1.481.526-7.037-.615-5.54.21 1.48-.52 7.03.62 5.54zm-85.581 11.08c-2.369-1.894-.82 2.145-3.694 0 .461 2.849-.695 2.515-2.463 1.849.033 1.15-.474 1.304-1.231.615.63 2.534-2.1 5.236.615 6.158.097-.727-.106-1.748.616-1.85-.124 3.457 1.031.674 2.463.616.105.922-.221 2.271.615 2.463 1.159-1.086-.841-1.907 1.232-2.463v2.463c1.992.761.47-1.993 2.462-1.229-.034.785-.789.852-.615 1.846 2.409.973 1.274-1.6 2.462-1.846-.172 1.4.149 2.312 1.232 2.462 2.776-3.759 1.462-7.902 1.847-14.162-1.992.762-.471-1.991-2.464-1.231.419 4.22-3.113.67-3.077 4.3zm27.091-.61c16.543.59 29.68 1.157 47.411 1.23-2.7-3.262-8.285-1.847-12.316-1.847-14.089 0-26.94-.979-40.636-.615.908 2.35 4.032 1.18 5.546 1.24zm62.19 9.85c3.581-.859-.76 3.32 3.078 3.694.354-1.084-.743-3.618.613-3.694 1.156 1.171.068 1.547 0 3.079 3.454 1.399.335-3.771 3.079-3.079-.436.454-1.532 3.015.617 2.462.007-1.633-.343-3.626 1.229-3.693.061 4.417.286.562 1.85 0 .058.969-.084 2.136 1.229 1.848.204-1.438.63-2.653 1.849-3.079.104.923-.222 2.272.613 2.464-.657-2.3 1.53-1.755 1.232-3.693-.617-.82-1.015-1.859-1.847-2.464-1.169 1.127-4.05-1.258-4.928-2.464-.13.691-.684.959-1.229 1.232-1.108-2.913-.915-.134-4.311-1.232-.105-.921.22-2.271-.616-2.462-.16.957-1.352.427-1.848 0-.02 4.26-.82 5.68-.6 11.07zm-60.342-7.39c3.087.078 5.81-.107 8.62 0 12.736.487 26.807 2.197 36.327 0-20.583-.613-34.361-1.062-51.72-1.232 1.342 2.35 5.027 1.18 6.778 1.23zm46.182 3.08c2.047.757 1.506-4.163.615-4.312-.01 1.63.23 3.51-.62 4.31zm-133.62 0c1.073.044 1.915-.138 2.462-.617.07.751.185 1.459 1.232 1.232v-1.849c-1.428-.482-2.766.21-3.694-1.847v3.09zm16.625-3.08c-3.943-.71-1.353 1.88 0 0m13.546 0c-.895.337-3.182-.72-3.079.615.895-.34 3.183.71 3.079-.62zm-24.629 3.69c.799-.818.812-2.293-.615-2.464.105.92-.221 2.27.615 2.46zm1.847-2.46c-.479.136-.716.516-.615 1.23v1.232c6.689.782 17.815.459 27.091.614 6.065.104 13.342 2.231 15.393-1.848-13.484-.51-28.795-1.08-41.869-1.22zm125.61 1.85c-.789-.035-.854-.79-1.849-.617-.95 1.52 2.09 1.81 1.85.62zm32.64 3.69c9.911-.137 21.119.192 28.322 0 2.389-.065 5.684.34 6.772-1.232-.123-2.128-3.18-1.707-4.928-1.847-8.941-.712-26.119 1.344-30.785-1.232-.376.035-.729.093-.615.617 1.38.26.02 3.26 1.24 3.69zm36.32 0h1.229v-2.465h-1.229v2.47zm1.85 0c1.716.984 1.701-2.661.614-2.465-.19.84-.87 1.18-.61 2.47zm3.08 0c.076-1.541 1.177-1.93-.615-2.465.1.93-.23 2.28.61 2.47zm3.07 0v-2.465h-1.846c-.16 1.62-.2 3.09 1.85 2.47zm-171.16 0c-2.885.396-7.372-.808-9.235.614 2.885-.39 7.373.81 9.235-.61zm4.311 0c-.895.336-3.183-.721-3.079.614.895-.33 3.182.73 3.079-.61zm5.541.62c-.921.104-2.273-.222-2.463.615.921-.1 2.273.22 2.463-.61zm123.14 1.23c-3.088.399-7.784-.808-9.853.616 3.09-.41 7.78.8 9.85-.62z"/><path d="M196.48 223.36c4.162 3.868 8.152 14.272 8.619 24.63-2.232-4.604-2.017-9.923-3.694-14.774-1.24-3.58-3.57-6.78-4.93-9.86z"/></svg>