<svg xmlns="http://www.w3.org/2000/svg" xml:space="preserve" width="431.729" height="800"><path d="M88.666 116.767c-7.022 38.977 35.44 60.151 80.924 59.198-4.475 178.106 10.994 343.427 7.02 500.46-31.618-3.711-93.266-108.181-93.266-108.181 16.676-17.119 69.865-16.944 69.864-16.944C55.551 514.552 19.585 399.187 19.586 399.187-5.908 452.757 8.23 644.957 29.739 674.25c0 0 13.393-68.39 24.276-76.137 0 0 103.947 176.225 145.311 195.838 53.673-5.144 160.37-217.976 160.37-217.976 11.1 7.435 37.496 84.572 37.496 84.572 48.706-82.652 26.126-237.925-.881-290.748 0 0-42.385 101.975-137.003 161.741 0 0 48.075-3.217 65.231 13.42 0 0-78.667 115.22-104.767 121.537-1.785-.942 13.387-327.618 16.674-487.079 28.701 3.207 88.9-9.468 87.944-48.07-.626-25.18-49.496-32.85-85.17-34.923 9.913-5.874 17.638-15.126 21.41-26.958 8.168-25.616-5.723-53.084-31.34-61.252s-53.196 6.077-61.364 31.693c-6.532 20.486 1.32 41.8 17.788 53.824-30.319-3.276-91.782-6.199-97.048 23.034zm132.6-83.945c11.983 3.82 18.607 16.647 14.786 28.63-3.82 11.982-16.647 18.608-28.63 14.787s-18.607-16.648-14.787-28.63c3.821-11.984 16.648-18.608 28.63-14.787" style="fill:#000;fill-opacity:1;fill-rule:evenodd;stroke:none;stroke-width:11.839;stroke-linecap:butt;stroke-linejoin:miter;stroke-opacity:1;stroke-miterlimit:4;stroke-dasharray:none"/></svg>