<svg xmlns="http://www.w3.org/2000/svg" width="499.4" height="700"><path d="M435.473 535.048c11.056 5.53 31.404 15.7 40.47 19.462 22.114-44.228 25.65-106.59 18.353-161.875-23.883 60.814-104.821 58.823-126.935 95.533 13.49 6.856 26.096 15.7 36.93 23.442-27.641 27.641-92.216 73.861-128.925 84.918V202.012c0-27.641-9.288-50.641-9.288-73.64v-81.6c0-18.354-3.758-45.113-20.125-45.113-16.585 0-20.125 26.759-20.125 45.112v81.601c0 22.998-9.288 49.757-9.288 73.64v394.516c-20.124-58.823-99.513-38.7-136.222-97.523 14.373-3.54 29.632-4.644 44.228-1.758C96.904 403.483 21.494 396.185 6.899 368.543c0 38.699-16.586 128.704 9.288 167.403 5.748-6.856 14.373-14.154 24.988-20.344C72.355 583.714 213 583.935 246.172 696.053c26.537-41.353 122.291-89.12 189.297-160.99z" style="fill:#2b4617;stroke:#000;stroke-width:3.31711578;fill-opacity:1"/><path d="M246.177 206.875c31.18 0 130.473-10.174 166.52-10.174 9.287 0 17.026-13.932 17.026-31.18 0-17.25-7.52-31.181-17.027-31.181-35.825 0-135.117-10.174-166.52-10.174-31.18 0-130.473 10.174-166.518 10.174-9.288 0-17.027 13.931-17.027 31.18s7.52 31.181 17.027 31.181c36.045 0 135.338 10.174 166.519 10.174z" style="fill:#2b4617;stroke:#000;stroke-width:3.31711578;fill-opacity:1"/><path d="M226.053 45.221c-6.634-5.307-15.259-8.625-24.988-8.625-20.788 0-37.815 15.481-37.815 34.498s16.808 34.498 37.815 34.498c20.789 0 37.594-15.48 37.594-34.498 0-14.817 21.452-14.817 21.452 0 0 29.854-26.537 53.959-59.045 53.959-32.73 0-59.045-24.106-59.045-53.959s26.537-53.958 59.045-53.958c9.73 0 19.017 2.222 27.2 5.97-.665 4.866-2.213 14.154-2.213 22.115zM79.879 196.703c9.288 0 16.807-13.932 16.807-31.181s-7.52-31.181-16.807-31.181" style="fill:#2b4617;stroke:#000;stroke-width:3.31711578;fill-opacity:1"/><path d="M93.59 196.703c9.288 0 16.807-13.932 16.807-31.181s-7.52-31.181-16.807-31.181M184.479 203.116c11.278 0 20.343-16.808 20.343-37.594 0-20.789-9.065-37.594-20.343-37.594M205.487 204.664c11.72 0 21.23-17.69 21.23-39.363 0-21.671-9.51-39.364-21.23-39.364M276.252 205.106c11.941 0 21.452-17.912 21.452-39.805s-9.73-39.806-21.452-39.806M298.366 204c11.72 0 21.23-17.249 21.23-38.478s-9.51-38.479-21.23-38.479M397.216 197.145c9.51 0 17.25-14.154 17.25-31.844s-7.74-31.845-17.25-31.845" style="fill:#2b4617;stroke:#000;stroke-width:3.31711578;fill-opacity:1"/><path d="M41.18 515.588c11.277-6.857 24.987-13.046 39.362-16.363M415.35 519.347c-3.317-2.421-7.076-4.866-10.837-7.739" style="fill:#f7e017;stroke:#000;stroke-width:3.31711578"/><path d="M435.473 535.048c25.652-27.641 47.103-58.823 59.045-94.648" style="fill:#2b4617;stroke:#000;stroke-width:3.31711578;fill-opacity:1"/></svg>