<svg xmlns="http://www.w3.org/2000/svg" xml:space="preserve" viewBox="0 0 1139.823 1744.379"><path d="M411.892 980.629c.073.097 18.681 17.864 23.933 23.475 4.363 4.662 14.389 23.601 33.543 41.692l15.568 16.191c19.515 21.732 42.241 40.037 42.241 40.037 2.703 3.178 23.767-1.133 31.201-5.724 17.656-10.905 27.357-18.542 37.203-10.369 30.644 25.437 3.468 69.152 17.386 144.64 2.339 12.684 4.665 7.683 4.688 22.133.013 8.225 4.76 61.797-17.246 74.301-4.797 2.726-3.807-.053-12.075 1.315-9.731 1.61-16.993-15.449-18.094-23.074-1.003-6.953-3.291-5.283-3.925-8.659-.71-3.781-3.895-11.706-4.897-13.267-3.946-6.147-5.255-21.728-9.979-24.247-8.429-4.494-6.049-9.931-18.948-19.646-13.104-9.87-14.574-12.369-14.053-15.448.552-3.264-.786-7.184-5.46-7.104-9.77.167.224-8.475-14.597-11.126-3.879-.693-5.272 1.453-5.499-4.639-.467-12.536-1.601-12.345 2.291-14.909 4.182-2.755 8.144-6.884 3.884-10.08-4.463-3.349-3.016-4.328-6.552-4.48-6.886-.298-5.796-.883-47.944-36.424-13.181-11.113-113.406-67.625-143.219-89.99-76.504-57.396-111.194-75.078-93.935-127.835 12.426-37.98 56.326-50.597 80.28-60.731 48.67-20.587 191.966-42.509 192.966-42.476 84.048 2.821 3.745-105.112-15.529-178.4-8.993-34.195 1.964-23.949-24.358-43.67-12.103-9.067-40.033 55.958-64.831 69.518-25.905 14.166-2.854 21.361-116.064-13.889-42.315-13.175-30.209-12.263-136.127-52.392-13.706-5.193-13.654-9.534-17.922-11.718-6.734-3.446-1.516-7.771-6.705-9.859-6.374-2.564-6.384-3.761-6.76-5.236-1.601-6.272-9.29-14.625-1.116-24.944.455-.574 4.848-11.325 5.107-12.638 1.671-8.488 11.167-4.904 10.9-12.622-.566-16.369 9.557-3.934 14.638-11.314 1.267-1.84 3.871-2.461 4.082-5.422.361-5.084 13.592 2.549 16.178 3.587 6.758 2.714 16.963 20.662 20.151 8.704 1.677-6.289 3.743-21.711 8.886-28.517 4.185-5.538 12.368-9.931 12.375-3.159.023 21.458-3.937 25.627-1.985 44.435 3.629 34.967-20.947 26.811 17.927 38.102 1 .291 33.508 8.355 58.949 10.227 92.961 6.838 73.128.866 125.17-77.903 15.357-23.243 45.081-102.704 45.531-103.734 8.113-18.596 17.371-29.303 14.354-31.326-1.93-1.294-22.836 13.305-37.898 36.065-1.864 2.817-6.017 8.154-9.102 9.248-18.162 6.442 3.96-41.541-4.04-41.273-4.601.154-8.221-2.906-12.58-3.443-1.53-.189-1.707-1.249-.944-2.482 7.306-11.81-4.295-7.807 3.101-16.398 1.524-1.77 2.356-4.149 4.765-5.126 2.066-.837-.005-8.883-6.938-10.99-11.2-3.404-15.354-14.853-13.108-21.781 4.497-13.875-10.178-16.039-1.189-24.505 2.736-2.577-.126-7.562-2.353-8.893-7.643-4.57 2.674-14.173-8.752-16.851-11.799-2.766-15.051-4.725-14.82-9.269.061-1.208-1.68-4.65-.064-6.551 2.855-3.358 5.691-15.921 10.821-23.141 5.171-7.277 4.232-18.438 2.758-22.987-1.555-4.798 3.332-8.861-.988-16.025-4.054-6.723 2.4-57.353 6.426-60.84 7.114-6.161 7.851-15.321 14.724-17.863 2.715-1.004 2.63-1.463 18.648-12.959 4.217-3.027 6.102-1.288 18.001-6.041 15.752-6.292 18.165.239 23.49-5.684 3.092-3.439 9.717-1.21 10.833-.69 11.162 5.204 16.648-1.049 28.611 3.33 14.304 5.237 20.179-.153 30.068 11.774 6.064 7.314 13.462 4.271 18.953 13.219 19.263 31.383 20.732 30.373 22.792 45.164.017.121.049.293.133.344 3.561 2.162 3.969 6.522 6.535 9.366 3.173 3.518.952 10.985 3.695 13.827 14.973 15.512 8.673 25.717 1.004 39.071-3.414 5.944 1.539 9.973-.328 20.688-.77 4.421 5.073 15.364 1.259 15.472-1.353.038-1-1.945-1.865-4.962-1.672-5.828-7.376 2.721-7.131 6.84.661 11.135-5.264 13.346-1.166 24.114 12.931 33.973-22.834 12.25 11.871 49.228 2.032 2.165.605 5.103-2.593 3.364-8.256-4.489-9.039 6.088 4.271 12.71 5.749 2.86 14.124 30.466 23.72 34.642 10.706 4.658 17.073 13.446 43.436 28.687 116.05 67.09 147.122 54.725 310.459 94.078 31.974 7.703 31.337.71 47.901-4.882 9.306-3.142 46.007-8.827 39.885 6.825-4.093 10.467 12.785-1.569 16.239 10.353 1.868 6.448-4.436 8.522-5.346 10.803 2.836 4.115 15.91.844 15.596 10.851-.295 9.446-11.614 8.627-12.619 8.658-12.244.378 20.607 9.978 5.2 21.038-13.92 9.994-83.28-6.122-99.573-11.661-66.698-22.672-77.467.505-235.156-34.548-47.399-10.536-98.497-28.942-92.037-22.216 5.837 6.078 20.312 86.803 13.998 99.473-.554 1.111-1.03 2.33-.456 3.606 4.363 9.699-2.966 32.279 14.103 59.157l34.314 52.421c1.011.725 71.293 66.698 81.928 81.91 56.724 81.135-2.01 120.415 41.576 241.191 11.809 32.725 23.154 111.616 39.387 136.658 65.29 100.721 77.899 62.897 121.341 271.037 1 .356 23.907-8.557 39.57 11.193 3.006 3.791 6.875 7.776 6.151 13.523-.08.639.234 1.23.658 1.71 5.016 5.678-.244 11.86 2.494 14.863.515.565-.792 16.784-1.003 17.621-7.028 27.864-5.263 53.361-3.866 56.472 6.925 15.418-3.618 61.157-3.784 62.157-1.501 9.056-5.278 12.276-9.085 21.054-14.911 34.378-82.404 61.384-82.84 6.778-.266-33.355 10.509-65.831 2.103-73.906-7.74-7.434 2.468-10.974-3.5-15.445-3.631-2.721-.491-20.275 1.547-25.62.479-1.257 4.677-10.161-3.163-21.627-4.88-7.138-1.383-10.114-4.428-14.013-3.183-4.076-.978-8.252-4.56-15.321-.837-1.651-1.079-3.377-.725-5.106.674-3.293-.823-6.127-1.7-9.089-5.104-17.228-78.708-172.051-103.959-184.346-55.232-26.9-125.495-173.044-137.258-192.03-79.413-128.178-24.705-97.742-115.653-93.676-50.045 2.233-129.407-9.729-129.407-9.729"/></svg>