<svg xmlns="http://www.w3.org/2000/svg" xml:space="preserve" viewBox="282.813 376.615 1848.187 3072.222"><g stroke-width=".5"><path fill="#644D35" stroke="#644D35" d="M1069.7 461.34c20.32-9.14 42-15.94 64.34-17.37 18.09-1.14 36.92 1.93 52.53 11.53 7.92 4.77 14.93 11.04 20.64 18.32-.02.79-.05 2.37-.06 3.16 21.81.46 44.02 4.15 63.5 14.38 11.18 6.3 21.63 14.66 28.09 25.94 5.92 9.96 8.39 22.33 5.08 33.6-4.13 15.9-15.6 28.5-27.26 39.49-22.79 1.88-45.68 2.22-68.54 2.69-49.26.62-98.66-1.85-147.34-9.65-19.01-3.11-37.91-7.04-56.43-12.35 2.71-13.06 6.15-26.06 11.34-38.38 11.57-26.69 30.21-49.97 52.2-68.83a6.4 6.4 0 0 0 1.91-2.53z"/><path fill="#F1D4A8" stroke="#F1D4A8" d="M455.49 458.52c3.15-3.89 7.67-6.43 12.44-7.8 8.33-1.86 15.62 3.49 23.18 6.04 8.52 3.18 16.19 8.19 23.57 13.42 9.3 7.37 18.75 15.63 23.27 26.91 1.65 4.14 2.6 8.55 2.94 13 .33 1.63.65 3.27.81 4.94 4.53-3.82 8.37-8.4 12.85-12.3 8.41-7.36 16.65-15.11 26.19-21.02 5.83-2.48 12.47-3.3 18.53-1.07 1.51.83 3.03 1.67 4.55 2.52 6.85 4.69 11.5 11.76 15.57 18.84.23 1.73.3 3.49.27 5.25-1.18 1.31-2.31 2.74-3.95 3.49-5.04 1.8-8.52 6.04-11.98 9.89-5.36 6.79-10.33 13.92-14.54 21.5-1.55 2.55-3.02 5.16-4.38 7.83-.67 1.24-1.34 2.48-2.01 3.73-.52.87-1.04 1.74-1.55 2.62-.48.9-.94 1.8-1.4 2.71-.91 2.03-1.92 4-2.99 5.95-.84 1.77-1.7 3.54-2.54 5.31-.98 1.98-2.03 3.93-3.05 5.89-.79 1.59-1.66 3.14-2.43 4.74-1.54 3.69-3.41 7.23-5.11 10.85l-.92 2.15c-3.43 7.58-7.69 15.49-7.12 24.06.81 4.46 1.61 8.94 2.76 13.34 1.34.32 1.85 1.62 2.43 2.74 15.39 31.58 31.4 62.85 48.12 93.75 16.53 30.46 33.69 60.6 52.41 89.79 12.74 19.56 25.93 38.99 41.72 56.26 6.27 7.09 13.96 12.68 20.5 19.5 27.1 26.88 52.11 56.12 72.42 88.51 49.64 29.15 99.72 57.61 149.41 86.71-20.83 38.56-29.19 82.87-28.73 126.44.52 40.42 7.55 80.77 20.52 119.06-15.22-11.48-30.2-23.27-45.27-34.94-31.24-24.53-60.47-51.49-89.52-78.55-41.3-39.01-81.24-79.46-119.71-121.26-5.1-5.93-11.04-11.1-15.7-17.41-12.3-16.17-22.59-33.74-32.65-51.35-19.56-34.75-37.46-70.38-54.96-106.2-29.26-60.32-57.19-121.28-84.23-182.63-1.61-4.38-4.42-8.39-5.12-13.05-1.55-3.32-3.33-6.53-4.88-9.85-.5-.08-1.48-.23-1.97-.31-2.27-7.08-6.04-13.5-9.72-19.9-2.13-4.16-3.59-8.78-6.83-12.27-2.61-2.14-5.67-3.65-8.4-5.62-6.85-4.44-13.48-9.19-20.1-13.95-1.44-1.19-2.88-2.37-4.35-3.5-8.65-4.26-15.51-11.31-21.08-19.05-1-1.35-2.02-2.66-3.04-3.97-3.98-5.75-7.93-11.53-11.42-17.59-.27-.46-.82-1.38-1.09-1.84-.51-.84-1.01-1.67-1.51-2.49-1.71-3.56-3.73-6.97-5.46-10.52-3.56-6.72-6.32-13.79-9.02-20.89-.52-.89-1.05-1.77-1.57-2.64-2.37-4.79-1.98-10.11-2.87-15.2 0-.79-.01-2.37-.01-3.15.58-2.26.72-4.59 1.35-6.83.56-1.43 1.14-2.86 1.65-4.3 2.21-4.86 5.68-9.02 9.78-12.41-1.51-6.48 1.62-12.57 4.98-17.88 1.84-2.76 3.8-5.8 7.2-6.76 2.93-1.9 5.88-3.82 9.17-5.08 1.4-.35 2.63-1.1 3.83-1.88-.44-4.1-.13-9.04 3.3-11.83 2.43-2.53 4.9-5.06 7.99-6.78 1.56-.81 3.12-1.63 4.66-2.47 2.14-.84 4.25-1.77 6.44-2.48 1.25-.5 2.5-1.02 3.76-1.52 3.47-.29 6.89-.98 10.35-1.38 2.39-1.12 2.71-3.95 4.26-5.82m6.34 17.51c3.28 2.4 7.3 3.37 10.76 5.46 9.51 5.4 18.45 11.93 26.15 19.71 7.51 9.08 13.65 19.49 16.94 30.86.95-3.24-.25-6.56-1.08-9.69-5.6-16.83-18.38-30.86-33.95-39.11-6.01-2.96-12.03-6.56-18.82-7.23m-41.77 22.39c17.78 3.8 34.75 11.99 48.28 24.21 7.6 6.9 13.26 15.72 16.93 25.27 1.2 3.26.5 6.77.15 10.13-.85 6.86-2.33 14.01-6.65 19.6-3.81 4.48-9.65 5.84-14.95 7.66 5.49 1.43 11.57.09 15.95-3.53 5.04-3.97 7.22-10.38 8.57-16.43 2.98-.7 5.94-1.54 8.87-2.44-.92 2.45-1.95 4.85-3.02 7.25-6.4 14.32-7.2 30.98-2.56 45.93.35-1.68.58-3.39.49-5.1-.95-18.41 3.55-37.45 14.32-52.58 6.56-9.61 15.62-17.23 25.49-23.27-8.15 1.46-15.57 5.72-21.97 10.84-3.39 3.64-6.55 7.53-9.24 11.72-2.36 3.98-7.67 3.33-11.63 4.14-.25-4.9.54-10.01-1.29-14.68-1.07-2.25-2.34-4.39-3.31-6.68-2.6-6.03-7.15-10.86-10.61-16.37-4.43-4.31-9.59-7.77-14.46-11.54-7.75-5.63-16.03-10.98-25.47-13.21-4.53-.98-9.29-2.15-13.89-.92m-20.21 34.57c1.24.83 2.5 1.67 3.86 2.34 16.19 7.65 31.84 17.66 42.97 31.93 4.19 5.27 6.99 11.44 9.47 17.66 1.47 4.1 2.5 8.81.74 13.01-1.66 4.21-5.74 6.87-9.85 8.35-6.41 2.15-13.5 2.42-20.02.57-3.82-1.15-7.71-4.45-7.17-8.83-.05-1.93.2-5.71 3.1-4.87 3.08 1 5.46 3.37 8.34 4.8-.74-1.3-1.45-2.64-2.58-3.62-5.55-5-11.91-9.03-18.47-12.57-1.65-.92-3.47-1.41-5.3-1.78 4.07 3.9 9.14 6.75 12.65 11.22-1.14 4.56-2.32 10 1.27 13.86 6.83 6.02 16.68 5.3 25.15 4.78 6.53-.33 13.13-3.45 16.47-9.24 2.55-5.43 2.84-11.9.44-17.43-7.75-21.27-26.65-36.35-46.83-45.23-4.67-1.83-9.2-4.32-14.24-4.95zM1932.72 452.81c4.13-2.09 8.71-3.15 13.33-2.04 5.9 1.64 11.84 5.21 14.35 11.06.35 1.18 1.37 1.82 2.36 2.5 3.45.45 6.87 1.11 10.37 1.38 1.23.51 2.44 1.03 3.74 1.53 3.85 1.24 7.51 3.01 11.08 4.92 3.86 2.24 6.91 5.57 9.87 8.85 1.52 2.99 1.88 6.48 1.45 9.8 1.17.78 2.43 1.51 3.84 1.88 4.22 1.56 7.72 4.46 11.8 6.33 4.38 3.98 7.11 9.48 9.24 14.93 1.1 2.67.39 5.63.29 8.42 4.08 3.42 7.59 7.58 9.8 12.47.47 1.43 1.06 2.84 1.64 4.27 2.06 6.21.84 12.62.43 18.97-1.45 6.36-5.4 11.78-7.06 18.09-1.14 2.61-2.37 5.17-3.57 7.74q-1.005 1.95-1.92 3.93c-1.77 3.53-3.74 6.96-5.49 10.5-.26.46-.77 1.39-1.03 1.85-.54.8-1.06 1.62-1.56 2.43-.5.86-.98 1.72-1.42 2.59-2.41 3.91-5.04 7.66-7.5 11.53-.83 1.17-1.66 2.33-2.47 3.5-1.04 1.31-2.06 2.63-3.04 3.97-5.12 7.19-11.39 13.57-19.03 18.07-3.7 1.62-6.39 4.78-9.76 6.92-1.44 1-2.85 2.02-4.26 3.03-6.65 4.75-13.54 9.17-20.36 13.66-3.44 3.25-5 7.86-6.99 12.03-3.71 6.67-7.81 13.22-10.05 20.57-.45.11-1.37.33-1.82.44-2 3.07-3.34 6.51-5.16 9.68.05 1.47-.44 2.84-1.06 4.15-33.17 75.29-67.37 150.15-104.09 223.78-16.85 33.37-34 66.64-53.51 98.54-6.12 9.74-12.32 19.46-19.5 28.46-4.36 5.64-9.77 10.33-14.38 15.75-52.1 56.5-106.66 110.78-164.1 161.86-14.76 13.01-29.6 25.93-45.16 37.98-15.09 11.69-30.11 23.49-45.34 35.01 13.46-39.25 20.63-80.7 20.7-122.21-.29-42.46-8.36-85.73-28.82-123.28l-.07-.12c49.38-28.65 98.8-57.21 148.22-85.78 2.35-1.4 3.21-4.22 4.78-6.33 19.92-30.88 44.24-58.73 70.35-84.51 5.24-5.46 11.4-9.94 16.58-15.47 12.16-12.71 22.58-26.95 32.57-41.39 22.06-32.34 41.58-66.32 60.4-100.61 18.05-33.06 35.25-66.58 51.75-100.44.53-1.11 1.05-2.38 2.41-2.68 1.11-4.05 1.72-8.22 2.63-12.31.84-4.78-.49-9.52-2.26-13.92-1.19-4.72-3.93-8.8-5.65-13.31-1.7-3.63-3.57-7.17-5.12-10.86-1.05-2.26-2.33-4.4-3.41-6.62-.69-1.37-1.45-2.68-2.02-4.07-3.18-6.09-5.92-12.41-9.51-18.28-.25-.5-.76-1.5-1.01-2.01-1.29-2.41-2.61-4.81-4-7.16-6.04-10.29-12.49-20.64-21.34-28.77-2.81-2.76-7.56-3.03-9.35-6.86-.83-2.83.22-5.61 1.77-7.96 4.42-7.61 10.28-14.82 18.46-18.55 6.29-2.31 13.31-1.43 19.24 1.52.46.25 1.39.75 1.86 1 7.4 5.54 14.6 11.37 21.41 17.64 5.35 4.38 9.79 9.75 15.06 14.22.12-1.68.42-3.32.8-4.95.62-9.83 4.82-19.33 11.57-26.5 10.55-11.58 23.7-20.92 38.22-26.81 3.36-1.08 6.4-2.98 9.82-3.95m8.01 26.79c-8.29 3.95-16.65 8.29-23.06 15.01-6.96 6-12.25 13.75-16.04 22.07-2.08 4.83-4.23 10.05-3.45 15.41 2.13-6.21 4.52-12.36 7.99-17.96 3.85-6.28 7.88-12.68 13.68-17.35 6.88-5.9 14.2-11.31 22.15-15.67 3.33-1.87 7.14-2.82 10.23-5.15-4.06.37-7.83 2.01-11.5 3.64m14.91 32.14c-6.58 5.34-14.59 9.54-18.82 17.2-4.79 5.63-7.82 12.41-10.88 19.07-1.5 4.43-.88 9.17-.95 13.76-4.02-.71-9.34-.14-11.74-4.14-2.72-4.15-5.82-8.02-9.17-11.65-6.41-5.27-13.97-9.26-22.11-10.98 5.94 3.94 11.96 7.89 16.88 13.13 15.56 14.87 23.15 36.67 23.18 57.93.04 3.33-.6 6.74.34 10.02 4.18-13.54 3.93-28.38-.81-41.72-1.45-3.94-3.44-7.63-4.84-11.58 2.96.98 5.95 1.88 9.01 2.57 1.39 6.74 4.04 14.04 10.31 17.7 4.11 2.72 9.21 3.01 13.99 2.53-2.16-1.86-5.18-1.8-7.66-2.94-3.03-1.39-5.97-3.3-7.95-6.01-3.78-5.7-5.1-12.57-5.96-19.23-.36-3.14-.87-6.44.3-9.47 3.49-9.09 8.66-17.66 15.88-24.29 13.62-12.9 31.14-21.13 49.31-25.36-14.06-1.8-27.26 5.55-38.31 13.46m43.61 26.47c-19.63 8.86-38.02 23.48-45.88 44.12-3.44 7.48-2.61 17.75 4.29 23.01 5.59 4.81 13.43 4.6 20.37 4.87 6.11-.05 12.99-1.05 17.5-5.58 3.27-3.9 1.9-9 .85-13.42 3.48-4.52 8.61-7.3 12.69-11.2-5.96 1.15-10.85 5.05-15.9 8.16-3.73 2.92-8.38 5.3-10.39 9.81 2.35-1.37 4.5-3.08 6.93-4.34 1.21-.66 3.33-1 3.85.73 1.09 3.07 1.03 7.25-1.69 9.52-3.82 3.91-9.74 4.04-14.83 4.17-6.7-.33-14.25-2.02-18.55-7.6-4.18-5.73-1.94-13.26.77-19.09 6.65-16.76 21.06-28.87 36.03-38.09 6-3.91 12.77-6.46 18.86-10.2-5.3.52-10.03 3.2-14.9 5.13z"/><path fill="#463626" stroke="#463626" d="M1216.84 469.25c36.43-7.76 75.61-.81 107.42 18.48 28.09 16.85 50.21 42.17 66.98 70.03 3.8 6.19 7.05 12.69 10.67 18.99l-.91.3c-20.47 3.64-41.16 5.9-61.81 8.21-20.84 2.1-41.71 4.06-62.63 5.13 11.66-10.99 23.13-23.59 27.26-39.49 3.31-11.27.84-23.64-5.08-33.6-6.46-11.28-16.91-19.64-28.09-25.94-19.48-10.23-41.69-13.92-63.5-14.38.01-.79.04-2.37.06-3.16.44.53 1.33 1.59 1.77 2.12 1.99-2.79 4.25-6.01 7.86-6.69z"/><path fill="#E5BC84" stroke="#E5BC84" d="M461.83 476.03c6.79.67 12.81 4.27 18.82 7.23 15.57 8.25 28.35 22.28 33.95 39.11.83 3.13 2.03 6.45 1.08 9.69-3.29-11.37-9.43-21.78-16.94-30.86-7.7-7.78-16.64-14.31-26.15-19.71-3.46-2.09-7.48-3.06-10.76-5.46zM1940.73 479.6c3.67-1.63 7.44-3.27 11.5-3.64-3.09 2.33-6.9 3.28-10.23 5.15-7.95 4.36-15.27 9.77-22.15 15.67-5.8 4.67-9.83 11.07-13.68 17.35-3.47 5.6-5.86 11.75-7.99 17.96-.78-5.36 1.37-10.58 3.45-15.41 3.79-8.32 9.08-16.07 16.04-22.07 6.41-6.72 14.77-11.06 23.06-15.01z"/><path fill="#E5BC84" stroke="#E5BC84" d="M420.06 498.42c4.6-1.23 9.36-.06 13.89.92 9.44 2.23 17.72 7.58 25.47 13.21 4.87 3.77 10.03 7.23 14.46 11.54 3.46 5.51 8.01 10.34 10.61 16.37.97 2.29 2.24 4.43 3.31 6.68 1.83 4.67 1.04 9.78 1.29 14.68 3.96-.81 9.27-.16 11.63-4.14 2.69-4.19 5.85-8.08 9.24-11.72 6.4-5.12 13.82-9.38 21.97-10.84-9.87 6.04-18.93 13.66-25.49 23.27-10.77 15.13-15.27 34.17-14.32 52.58.09 1.71-.14 3.42-.49 5.1-4.64-14.95-3.84-31.61 2.56-45.93 1.07-2.4 2.1-4.8 3.02-7.25-2.93.9-5.89 1.74-8.87 2.44-1.35 6.05-3.53 12.46-8.57 16.43-4.38 3.62-10.46 4.96-15.95 3.53 5.3-1.82 11.14-3.18 14.95-7.66 4.32-5.59 5.8-12.74 6.65-19.6.35-3.36 1.05-6.87-.15-10.13-3.67-9.55-9.33-18.37-16.93-25.27-13.53-12.22-30.5-20.41-48.28-24.21zM1955.64 511.74c11.05-7.91 24.25-15.26 38.31-13.46-18.17 4.23-35.69 12.46-49.31 25.36-7.22 6.63-12.39 15.2-15.88 24.29-1.17 3.03-.66 6.33-.3 9.47.86 6.66 2.18 13.53 5.96 19.23 1.98 2.71 4.92 4.62 7.95 6.01 2.48 1.14 5.5 1.08 7.66 2.94-4.78.48-9.88.19-13.99-2.53-6.27-3.66-8.92-10.96-10.31-17.7-3.06-.69-6.05-1.59-9.01-2.57 1.4 3.95 3.39 7.64 4.84 11.58 4.74 13.34 4.99 28.18.81 41.72-.94-3.28-.3-6.69-.34-10.02-.03-21.26-7.62-43.06-23.18-57.93-4.92-5.24-10.94-9.19-16.88-13.13 8.14 1.72 15.7 5.71 22.11 10.98 3.35 3.63 6.45 7.5 9.17 11.65 2.4 4 7.72 3.43 11.74 4.14.07-4.59-.55-9.33.95-13.76 3.06-6.66 6.09-13.44 10.88-19.07 4.23-7.66 12.24-11.86 18.82-17.2zM399.85 532.99c5.04.63 9.57 3.12 14.24 4.95 20.18 8.88 39.08 23.96 46.83 45.23 2.4 5.53 2.11 12-.44 17.43-3.34 5.79-9.94 8.91-16.47 9.24-8.47.52-18.32 1.24-25.15-4.78-3.59-3.86-2.41-9.3-1.27-13.86-3.51-4.47-8.58-7.32-12.65-11.22 1.83.37 3.65.86 5.3 1.78 6.56 3.54 12.92 7.57 18.47 12.57 1.13.98 1.84 2.32 2.58 3.62-2.88-1.43-5.26-3.8-8.34-4.8-2.9-.84-3.15 2.94-3.1 4.87-.54 4.38 3.35 7.68 7.17 8.83 6.52 1.85 13.61 1.58 20.02-.57 4.11-1.48 8.19-4.14 9.85-8.35 1.76-4.2.73-8.91-.74-13.01-2.48-6.22-5.28-12.39-9.47-17.66-11.13-14.27-26.78-24.28-42.97-31.93-1.36-.67-2.62-1.51-3.86-2.34zM1999.25 538.21c4.87-1.93 9.6-4.61 14.9-5.13-6.09 3.74-12.86 6.29-18.86 10.2-14.97 9.22-29.38 21.33-36.03 38.09-2.71 5.83-4.95 13.36-.77 19.09 4.3 5.58 11.85 7.27 18.55 7.6 5.09-.13 11.01-.26 14.83-4.17 2.72-2.27 2.78-6.45 1.69-9.52-.52-1.73-2.64-1.39-3.85-.73-2.43 1.26-4.58 2.97-6.93 4.34 2.01-4.51 6.66-6.89 10.39-9.81 5.05-3.11 9.94-7.01 15.9-8.16-4.08 3.9-9.21 6.68-12.69 11.2 1.05 4.42 2.42 9.52-.85 13.42-4.51 4.53-11.39 5.53-17.5 5.58-6.94-.27-14.78-.06-20.37-4.87-6.9-5.26-7.73-15.53-4.29-23.01 7.86-20.64 26.25-35.26 45.88-44.12z"/><path fill="#7EA93E" stroke="#7EA93E" d="M997 569c2.41.69 4.83 1.38 7.25 2.08 18.52 5.31 37.42 9.24 56.43 12.35 48.68 7.8 98.08 10.27 147.34 9.65-.06 39.97 0 79.95-.01 119.93-15.33-.13-30.67-.55-45.97-1.52-7.16-.25-14.3-1.52-21.46-1.05-4.44-1.19-9.04-1.23-13.58-1.6-50.95-4.96-101.61-12.79-151.71-23.31-5.45-1.13-10.89-2.29-16.32-3.52-1.91-16.93 1.89-33.89 7.2-49.88 7.61-22.21 18.3-43.3 30.83-63.13z"/><path fill="#719838" stroke="#719838" d="M1401 577.05c2.7-.23 5.39-.58 8.07-1.08 7.96 6.75 12.14 16.64 16.37 25.91 10.02 24.21 16.72 49.63 22.58 75.12q-5.22 1.5-10.44 2.94c-24.21 6.5-48.68 11.96-73.28 16.74-51.51 9.78-103.79 16.43-156.29 16.33.01-39.98-.05-79.96.01-119.93 22.86-.47 45.75-.81 68.54-2.69 20.92-1.07 41.79-3.03 62.63-5.13 20.65-2.31 41.34-4.57 61.81-8.21z"/><path fill="#463626" stroke="#463626" d="M1364.3 696.68c24.6-4.78 49.07-10.24 73.28-16.74 7.64 14.83 23.49 22.6 38.42 28.21 13.04 9.31 22.98 24.42 23.02 40.83.06 10.28-3.73 20.22-9.25 28.78-12.07 18.16-21.84 38.08-27.02 59.33-3.94 16.31-4.8 33.99 1.37 49.87 3.36 9 9.21 16.84 16.08 23.47.59.02 1.75.05 2.34.06 13.71 11.27 26.56 24.98 31.73 42.37 4.76 15.23 1.87 31.96-5.51 45.86-8.67 16.52-21.95 30.22-36.63 41.54-4.44 2.08-9.05 4.26-14.02 4.57-18.93 2.03-37.89 6.49-54.73 15.6-17.64 9.36-32.25 25.19-37.91 44.57-10.41-3.61-20.88-7.04-31.49-9.98-.33-7.47 1.17-15.2 5.52-21.41 5.31-8.61 13.72-14.54 21.88-20.2 16.12-10.91 33.43-20.09 48.51-32.51 12.23-10.15 24.11-21.69 30.49-36.54 4.73-10.47 5.04-23.06-.27-33.38-7.24-14.86-20.94-25.15-34.94-33.22-9.19-5.03-18.6-9.79-28.56-13.11-2.08-.84-4.63-1.26-5.86-3.34-9.69-13.9-11.1-31.77-9.07-48.14 2.71-21.52 10.25-42.19 19.96-61.49 4.05-7.97 6.58-16.73 7.16-25.66 1.71-25.34-10.03-49.3-24.5-69.34z"/><path fill="#644D35" stroke="#644D35" d="M975.29 685.53c50.1 10.52 100.76 18.35 151.71 23.31 4.54.37 9.14.41 13.58 1.6-8.81 6.57-18.35 12.08-28.11 17.09-5.63 2.5-11.18 5.2-16.93 7.4-9.96 3.36-19.95 7.2-30.53 7.95-3.14 1.34-5.12 4.41-7.25 6.95-5.98 8.09-10.8 17.34-12.59 27.31l-.07.19c-5.06 18.78-.25 38.99 8.88 55.75 2.32 5.64 2.22 11.94 2.92 17.93 1.12 19.74-.09 40.58-9.58 58.36.08.24.25.72.33.97a18.6 18.6 0 0 0-5.6 4.74c-4.51 5.29-10 10.04-16.68 12.28-3.37 1.16-7.02 1.29-10.32 2.65-13.28 6.74-25.81 17.59-29.45 32.6-3.71 16.06 2.22 32.55 10.77 46.05 3.77 5.67 7.33 11.82 13.13 15.68 2.96 2.26 6.36 3.83 9.49 5.84 6.38 5.88 13.36 11.14 18.99 17.82 15.08 15.4 24.27 35.54 30.21 56.02-7.5 2.25-14.95 4.66-22.36 7.18-3.6-13.67-11.46-26.52-23.35-34.46-7.6-5.25-16.53-8.08-25.5-9.89-24.18-6.3-48.13-16.88-65.86-34.94-6.91-6.72-9.7-16.32-11.68-25.46-5.82-29.41 3.17-60.46 20.83-84.27 13.55-19 19.19-43.05 16.81-66.16-1.95-18.48-7.44-36.88-17.52-52.59-7.32-12.54-10.89-27.43-8.9-41.9 2.15-15.49 9.59-30.12 20.31-41.43 11.1-9.04 18.54-21.66 24.32-34.57z"/><path fill="#E5BC84" stroke="#E5BC84" d="M1208.01 713.01c52.5.1 104.78-6.55 156.29-16.33 14.47 20.04 26.21 44 24.5 69.34-.58 8.93-3.11 17.69-7.16 25.66-9.71 19.3-17.25 39.97-19.96 61.49-2.03 16.37-.62 34.24 9.07 48.14 1.23 2.08 3.78 2.5 5.86 3.34-1.86.54-3.7 1.11-5.61 1.32-1.36-.05-2.06.61-2.1 1.96-1.41 5.65-4.65 10.65-6.99 15.95-5.9 11.78-12.28 23.32-19.32 34.46-.05.07-.15.23-.2.3-.44.68-1.33 2.03-1.77 2.71-.05.08-.16.23-.21.31-1.26 1.9-2.53 3.8-3.8 5.69-.06.08-.16.23-.21.31-.46.66-1.37 1.99-1.82 2.66-.06.07-.16.22-.21.29-.94 1.24-1.87 2.48-2.77 3.75-.05.07-.15.2-.2.27-1.77 2.39-3.56 4.76-5.43 7.07-1.53.14-2.19.98-1.98 2.5-13.88 17.67-28.79 34.57-44.97 50.18-.03.6-.1 1.81-.13 2.41-1.02 9.06-.25 18.2-.92 27.29 0 1.34-1.2 2.21-1.83 3.29.91 7.26 1.45 14.54 1.66 21.86.12 1.85.44 3.69.71 5.55 1.3 41.6-3.1 83.34-12.06 123.95-5-5.58-8.46-12.29-12.85-18.32-33.51-49.5-66.95-99.06-100.46-148.57-1.32-1.9-2.48-3.9-3.52-5.94 3.68 1.63 6.66 4.36 9.79 6.82 15.47 11.44 31.57 22.07 48.51 31.21.09-19.95.2-39.91-.04-59.86-7.96-2.13-17-4.2-22.1-11.27 7.32 1.68 14.49 4.48 22.14 4.22.05-1.73.11-3.45.19-5.15h.89c17.1-1.1 33.64-9.04 45.27-21.61 5.29-5.61 9.71-12.02 13.22-18.87 3.1-5.68 4.57-12.19 8.74-17.28-4.19 2.01-8.36 4.21-12.96 5.1-10.38 1.88-21.09.11-30.88-3.56-3.57-1.3-7.47-3.08-11.26-1.55-5.74 2.11-9.37 7.5-12.42 12.51-.26-.35-.79-1.05-1.05-1.4.68-17.7.29-35.44.25-53.15-9.15-2.72-18.73-5.48-26.04-11.92-1.91-1.56-2.86-3.86-3.86-6.01 9.86-2.79 19.94-4.74 29.89-7.19.24-57.98.03-115.96.11-173.93m69.8 21.67c-13.94 5.01-28.16 13.17-34.69 27.1 22.76-10.37 46.7-17.89 70.89-24.16 19.47-4.82 39.08-9.32 58.95-12.22-5.88-1.4-12-.79-17.98-1.08-25.98-.02-52.44 1.82-77.17 10.36m-17.68 59.31 1.34-.36c-6 5.52-11.92 11.19-16.43 18.05 10.24 4.83 21.6 6.49 32.54 9.12-.4.12-1.19.37-1.58.49 5 .65 9.95 1.8 15.03 1.88 17.69.97 36.6-1.24 51.5-11.59 13.07-9.09 23.87-21.2 32.43-34.57-17.83-4.86-36.47-7.03-54.93-6.08-21.55 1.67-43.35 8.81-59.9 23.06z"/><path fill="#F1D4A8" stroke="#F1D4A8" d="M1140.58 710.44c7.16-.47 14.3.8 21.46 1.05 15.3.97 30.64 1.39 45.97 1.52-.08 57.97.13 115.95-.11 173.93-9.95 2.45-20.03 4.4-29.89 7.19 1 2.15 1.95 4.45 3.86 6.01 7.31 6.44 16.89 9.2 26.04 11.92.04 17.71.43 35.45-.25 53.15-3.4-4.53-6.86-9.82-12.66-11.37-3.87-1.23-7.58.88-11.14 2.08-9.8 3.56-20.54 5.23-30.85 3.12-4.37-.91-8.31-3.05-12.29-4.97 4.94 6.1 6.36 14.06 10.55 20.61 11.28 20.76 32.99 35.9 56.84 37.19-.08 1.7-.14 3.42-.19 5.15-7.65.26-14.82-2.54-22.14-4.22 5.1 7.07 14.14 9.14 22.1 11.27.24 19.95.13 39.91.04 59.86-16.94-9.14-33.04-19.77-48.51-31.21-3.13-2.46-6.11-5.19-9.79-6.82 1.04 2.04 2.2 4.04 3.52 5.94 33.51 49.51 66.95 99.07 100.46 148.57 4.39 6.03 7.85 12.74 12.85 18.32-8.91 40.48-22.86 79.92-42.27 116.57-4.84 8.96-9.76 17.93-15.65 26.26-1.32-5.85.58-11.73 1.48-17.49 1.84-9.95 6.14-19.13 10.09-28.35-8.43 3.99-10.75 13.95-14.07 21.83-3.14-6.08-6.45-12.35-12.06-16.53 2.88 5.63 6.08 11.17 7.78 17.33 2.68 8.08 3.62 16.57 5.63 24.82l-.16 1.04c-11.76-13.84-19.54-30.52-26.04-47.34-3.1-7.81-5.23-15.97-8.49-23.72-23.4-63.21-37.62-130.58-35.21-198.22.75-3.74.66-7.55.58-11.33.34-5.17.55-10.34 1.27-15.47-.72-1.25-1.49-2.54-1.39-4.02-.37-9.02.18-18.1-.84-27.07-.17-.52-.52-1.57-.69-2.1-.3-.54-.9-1.61-1.21-2.15-15.36-14.62-29.19-30.74-42.59-47.16-.05-.07-.16-.21-.21-.28-2.28-2.9-4.53-5.81-6.78-8.72-.05-.07-.16-.21-.21-.28-.95-1.26-1.88-2.49-2.78-3.72-.05-.08-.16-.22-.21-.3-2.29-3.22-4.54-6.46-6.78-9.7-.05-.08-.15-.23-.2-.3-8.91-13.66-17.24-27.75-23.89-42.65-.04-.08-.12-.25-.16-.33-1.4-2.94-2.74-5.92-3.74-9.01-.08-.25-.25-.73-.33-.97 9.49-17.78 10.7-38.62 9.58-58.36-.7-5.99-.6-12.29-2.92-17.93-9.13-16.76-13.94-36.97-8.88-55.75 9.44 14.06 20.86 27.2 35.36 36.21 13 7.87 28.61 10.04 43.57 9.83 6.73-.28 13.63-.37 20.06-2.62 10.29-3.05 21.14-4.44 30.95-9.02-4.57-6.77-10.4-12.46-16.29-18.06l1.09.28c-12.59-10.96-28.53-17.52-44.74-20.94-16.8-3.59-34.19-2.63-51.07-.11-6.34 1.12-12.75 2.14-18.86 4.24 1.79-9.97 6.61-19.22 12.59-27.31 2.13-2.54 4.11-5.61 7.25-6.95 10.58-.75 20.57-4.59 30.53-7.95 27.75 6.94 55.37 14.96 81.43 26.9-6.39-13.41-19.82-21.58-33.26-26.59-10.1-3.67-20.6-6.26-31.24-7.71 9.76-5.01 19.3-10.52 28.11-17.09z"/><path fill="#2C3D4D" stroke="#2C3D4D" d="M1277.81 734.68c24.73-8.54 51.19-10.38 77.17-10.36 5.98.29 12.1-.32 17.98 1.08-19.87 2.9-39.48 7.4-58.95 12.22-24.19 6.27-48.13 13.79-70.89 24.16 6.53-13.93 20.75-22.09 34.69-27.1zM1095.54 734.93c5.75-2.2 11.3-4.9 16.93-7.4 10.64 1.45 21.14 4.04 31.24 7.71 13.44 5.01 26.87 13.18 33.26 26.59-26.06-11.94-53.68-19.96-81.43-26.9zM1064.03 772.9c16.88-2.52 34.27-3.48 51.07.11 16.21 3.42 32.15 9.98 44.74 20.94l-1.09-.28c-8.86-3.14-17.97-5.47-27.08-7.73 2.06 4.03 3.62 8.46 3.29 13.07-.25 9.16-6.83 17.78-15.72 20.18-9.68 2.98-20.86-2.33-25.03-11.48-4.47-8.91-1.87-20.23 5.5-26.78-13-.39-25.99.95-38.79 3.08 5.38 14.7 18.17 25.67 32.51 31.29 16.01 6.26 33.7 7.63 50.66 5.45-6.43 2.25-13.33 2.34-20.06 2.62-14.96.21-30.57-1.96-43.57-9.83-14.5-9.01-25.92-22.15-35.36-36.21l.07-.19c6.11-2.1 12.52-3.12 18.86-4.24m59.22 15.46c-4.3 1.67-4.28 8.66.04 10.3 3.52 1.54 7.23-2.17 6.68-5.71-.13-3.2-3.62-6-6.72-4.59zM1260.13 793.99c16.55-14.25 38.35-21.39 59.9-23.06 18.46-.95 37.1 1.22 54.93 6.08-8.56 13.37-19.36 25.48-32.43 34.57-14.9 10.35-33.81 12.56-51.5 11.59-5.08-.08-10.03-1.23-15.03-1.88.39-.12 1.18-.37 1.58-.49 17.39 2.25 35.6.36 51.76-6.67 13.15-5.86 24.74-16.39 29.73-30.13-12.81-2.12-25.79-3.46-38.78-3.07 3.02 3.05 5.7 6.6 6.81 10.82 2.24 7.55.15 16.25-5.44 21.83-5.77 6-15.28 8.15-22.99 4.9-8.18-3.18-13.77-11.7-13.65-20.43-.14-4.29 1.42-8.34 3.3-12.11-9.03 2.26-18.09 4.52-26.85 7.69l-1.34.36m52.08-5.62c-4.22 1.68-4.24 8.52-.04 10.25 3.1 1.46 6.65-1.32 6.8-4.53.58-3.59-3.2-7.35-6.76-5.72z"/><path fill="#FFF" stroke="#FFF" d="M1060.92 784.01c12.8-2.13 25.79-3.47 38.79-3.08-7.37 6.55-9.97 17.87-5.5 26.78 4.17 9.15 15.35 14.46 25.03 11.48 8.89-2.4 15.47-11.02 15.72-20.18.33-4.61-1.23-9.04-3.29-13.07 9.11 2.26 18.22 4.59 27.08 7.73 5.89 5.6 11.72 11.29 16.29 18.06-9.81 4.58-20.66 5.97-30.95 9.02-16.96 2.18-34.65.81-50.66-5.45-14.34-5.62-27.13-16.59-32.51-31.29zM1320.29 780.93c12.99-.39 25.97.95 38.78 3.07-4.99 13.74-16.58 24.27-29.73 30.13-16.16 7.03-34.37 8.92-51.76 6.67-10.94-2.63-22.3-4.29-32.54-9.12 4.51-6.86 10.43-12.53 16.43-18.05 8.76-3.17 17.82-5.43 26.85-7.69-1.88 3.77-3.44 7.82-3.3 12.11-.12 8.73 5.47 17.25 13.65 20.43 7.71 3.25 17.22 1.1 22.99-4.9 5.59-5.58 7.68-14.28 5.44-21.83-1.11-4.22-3.79-7.77-6.81-10.82z"/><path fill="#FFF" stroke="#FFF" d="M1123.25 788.36c3.1-1.41 6.59 1.39 6.72 4.59.55 3.54-3.16 7.25-6.68 5.71-4.32-1.64-4.34-8.63-.04-10.3zM1312.21 788.37c3.56-1.63 7.34 2.13 6.76 5.72-.15 3.21-3.7 5.99-6.8 4.53-4.2-1.73-4.18-8.57.04-10.25z"/><path fill="#301D16" stroke="#301D16" d="M1371 905.97c1.91-.21 3.75-.78 5.61-1.32 9.96 3.32 19.37 8.08 28.56 13.11 14 8.07 27.7 18.36 34.94 33.22 5.31 10.32 5 22.91.27 33.38-6.38 14.85-18.26 26.39-30.49 36.54-15.08 12.42-32.39 21.6-48.51 32.51-8.16 5.66-16.57 11.59-21.88 20.2-4.35 6.21-5.85 13.94-5.52 21.41-13.1-3.54-26.34-6.83-39.86-8.23-5.13-6.35-10.55-12.47-15.61-18.87.11-10.38.72-20.75.38-31.13.03-.6.1-1.81.13-2.41 16.18-15.61 31.09-32.51 44.97-50.18 1.23-.38 1.89-1.21 1.98-2.5 1.87-2.31 3.66-4.68 5.43-7.07.05-.07.15-.2.2-.27.9-1.27 1.83-2.51 2.77-3.75.05-.07.15-.22.21-.29.45-.67 1.36-2 1.82-2.66.05-.08.15-.23.21-.31 1.27-1.89 2.54-3.79 3.8-5.69.05-.08.16-.23.21-.31.44-.68 1.33-2.03 1.77-2.71.05-.07.15-.23.2-.3 7.04-11.14 13.42-22.68 19.32-34.46 2.34-5.3 5.58-10.3 6.99-15.95 1.42.12 2.12-.53 2.1-1.96z"/><path fill="#B69468" stroke="#B69468" d="M1368.9 907.93c.04-1.35.74-2.01 2.1-1.96.02 1.43-.68 2.08-2.1 1.96z" opacity=".9"/><path fill="#301D16" stroke="#301D16" d="M1042.05 915.08c1.54-1.93 3.43-3.55 5.6-4.74 1 3.09 2.34 6.07 3.74 9.01.04.08.12.25.16.33 6.65 14.9 14.98 28.99 23.89 42.65.05.07.15.22.2.3 2.24 3.24 4.49 6.48 6.78 9.7.05.08.16.22.21.3.9 1.23 1.83 2.46 2.78 3.72.05.07.16.21.21.28 2.25 2.91 4.5 5.82 6.78 8.72.05.07.16.21.21.28 13.4 16.42 27.23 32.54 42.59 47.16.1.45.29 1.36.39 1.81l.82.34c.17.53.52 1.58.69 2.1.63 6.3.34 12.64.51 18.96-.06 3.97.44 7.99-.22 11.94-3.81 5.5-8.75 10.16-12.69 15.59-2.96 3.12-4.92 8.15-9.77 8.57-15.73 3.34-31.32 7.35-46.74 11.92-5.94-20.48-15.13-40.62-30.21-56.02-5.63-6.68-12.61-11.94-18.99-17.82-3.13-2.01-6.53-3.58-9.49-5.84-5.8-3.86-9.36-10.01-13.13-15.68-8.55-13.5-14.48-29.99-10.77-46.05 3.64-15.01 16.17-25.86 29.45-32.6 3.3-1.36 6.95-1.49 10.32-2.65 6.68-2.24 12.17-6.99 16.68-12.28z"/><path fill="#9D866A" stroke="#9D866A" d="M1051.39 919.35c.04.08.12.25.16.33-.04-.08-.12-.25-.16-.33z" opacity=".83"/><path fill="#E97954" stroke="#E97954" d="M1140.72 954.07c3.98 1.92 7.92 4.06 12.29 4.97 10.31 2.11 21.05.44 30.85-3.12 3.56-1.2 7.27-3.31 11.14-2.08 5.8 1.55 9.26 6.84 12.66 11.37.26.35.79 1.05 1.05 1.4-.22.38-.65 1.14-.87 1.53-2.35.15-4.66.5-6.99.73-17.36 1.08-35.96 1.6-51.85-6.59 6.76 11.96 16.05 22.75 28.01 29.75 9.3 5.55 20.19 8.15 31 8.02l.92-.01c-.07 3.94-.04 7.88.07 11.83h-.89c-23.85-1.29-45.56-16.43-56.84-37.19-4.19-6.55-5.61-14.51-10.55-20.61z"/><path fill="#D47150" stroke="#D47150" d="M1208.71 966.61c3.05-5.01 6.68-10.4 12.42-12.51 3.79-1.53 7.69.25 11.26 1.55 9.79 3.67 20.5 5.44 30.88 3.56 4.6-.89 8.77-3.09 12.96-5.1-4.17 5.09-5.64 11.6-8.74 17.28-3.51 6.85-7.93 13.26-13.22 18.87-11.63 12.57-28.17 20.51-45.27 21.61-.11-3.95-.14-7.89-.07-11.83 15.6.23 30.86-6.27 42.06-17.02 6.06-5.74 11.31-12.38 15.26-19.75-18.32 8.08-38.97 6.59-58.41 4.87.22-.39.65-1.15.87-1.53z"/><path fill="#826849" stroke="#826849" d="M1342.39 958.64c.05-.07.15-.23.2-.3-.05.07-.15.23-.2.3z" opacity=".8"/><path fill="#947754" stroke="#947754" d="M1340.41 961.66c.05-.08.16-.23.21-.31-.05.08-.16.23-.21.31z" opacity=".83"/><path fill="#73604C" stroke="#73604C" d="M1075.44 962.33z" opacity=".77"/><path fill="#FFF" stroke="#FFF" d="M1149 962.28c15.89 8.19 34.49 7.67 51.85 6.59 2.35-.05 4.71.01 7.08.07.2 10.36.02 20.74.08 31.11-10.81.13-21.7-2.47-31-8.02-11.96-7-21.25-17.79-28.01-29.75z"/><path fill="#EBEBEB" stroke="#EBEBEB" d="M1207.84 968.14c19.44 1.72 40.09 3.21 58.41-4.87-3.95 7.37-9.2 14.01-15.26 19.75-11.2 10.75-26.46 17.25-42.06 17.02l-.92.01c-.06-10.37.12-20.75-.08-31.11-2.37-.06-4.73-.12-7.08-.07 2.33-.23 4.64-.58 6.99-.73z"/><path fill="#846A4B" stroke="#846A4B" d="M1336.4 967.66z" opacity=".8"/><path fill="#6F573E" stroke="#6F573E" d="M1334.37 970.61c.05-.07.15-.22.21-.29-.06.07-.16.22-.21.29z" opacity=".77"/><path fill="#73604C" stroke="#73604C" d="M1082.42 972.33c.05.08.16.22.21.3-.05-.08-.16-.22-.21-.3z" opacity=".77"/><path fill="#856A4B" stroke="#856A4B" d="M1331.4 974.63c.05-.07.15-.2.2-.27-.05.07-.15.2-.2.27z" opacity=".8"/><path fill="#7F6C55" stroke="#7F6C55" d="M1085.41 976.35c.05.07.16.21.21.28-.05-.07-.16-.21-.21-.28z" opacity=".78"/><path fill="#B08F65" stroke="#B08F65" d="M1323.99 984.2c-.21-1.52.45-2.36 1.98-2.5-.09 1.29-.75 2.12-1.98 2.5z" opacity=".89"/><path fill="#87725B" stroke="#87725B" d="M1092.4 985.35c.05.07.16.21.21.28-.05-.07-.16-.21-.21-.28z" opacity=".79"/><path fill="#402F25" stroke="#402F25" d="M1135.2 1032.79c.31.54.91 1.61 1.21 2.15l-.82-.34c-.1-.45-.29-1.36-.39-1.81z" opacity=".79"/><path fill="#338640" stroke="#338640" d="M1137.1 1037.04c1.02 8.97.47 18.05.84 27.07-.1 1.48.67 2.77 1.39 4.02-.72 5.13-.93 10.3-1.27 15.47-1.19 3.67-1.45 7.54-.58 11.33-2.41 67.64 11.81 135.01 35.21 198.22 3.26 7.75 5.39 15.91 8.49 23.72 6.5 16.82 14.28 33.5 26.04 47.34-.33 2.65-.32 5.33-.27 8.02-24.31-29.79-41.88-64.6-54.45-100.81-18.16-52.84-26.55-108.72-27.72-164.47-.26-7.81.39-15.62-.08-23.42 3.94-5.43 8.88-10.09 12.69-15.59.66-3.95.16-7.97.22-11.94-.17-6.32.12-12.66-.51-18.96z"/><path fill="#A19364" stroke="#A19364" d="M1277.97 1064.08c.67-9.09-.1-18.23.92-27.29.34 10.38-.27 20.75-.38 31.13-.41-.2-1.25-.6-1.66-.79.78 5.8.73 11.66 1.33 17.49-.15 1.52-.28 3.06-.38 4.61-.21-7.32-.75-14.6-1.66-21.86.63-1.08 1.83-1.95 1.83-3.29z" opacity=".92"/><path fill="#2E7839" stroke="#2E7839" d="M1276.85 1067.13c.41.19 1.25.59 1.66.79 5.06 6.4 10.48 12.52 15.61 18.87 6.16 43.47-.73 87.67-12.62 129.59-10.43 36.68-25.04 72.06-41.89 106.23-9.09 18.05-18.61 35.94-29.47 53-1.07-.93-2.12-1.83-3.17-2.73l-.02-.65c-.05-2.69-.06-5.37.27-8.02l.16-1.04c.29-.4.86-1.21 1.15-1.61 5.89-8.33 10.81-17.3 15.65-26.26 19.41-36.65 33.36-76.09 42.27-116.57 8.96-40.61 13.36-82.35 12.06-123.95.76-3.39.56-6.84-.33-10.16-.6-5.83-.55-11.69-1.33-17.49z"/><path fill="#83AA3D" stroke="#83AA3D" d="M945.46 1068.57c27.4 15.91 54.79 31.85 82.09 47.93 1.37 1.17 3.06.21 4.52-.26 4.54-1.82 9.15-3.43 13.76-5.04 7.41-2.52 14.86-4.93 22.36-7.18 15.42-4.57 31.01-8.58 46.74-11.92 4.85-.42 6.81-5.45 9.77-8.57.47 7.8-.18 15.61.08 23.42 1.17 55.75 9.56 111.63 27.72 164.47 12.57 36.21 30.14 71.02 54.45 100.81l.02.65c.07 83.08-.03 166.15.06 249.23-62.16-3.83-123.47-17.93-181.89-39.29-1.75-.65-3.54-1.29-4.94-2.54-3.54-19.54-7.88-38.95-13.17-58.1-.43.33-1.28 1-1.71 1.33-.91-5.99-5.96-9.82-9.2-14.54-23.71-31.6-36.89-69.77-44.94-108.09-5.62-26.92-8.49-54.34-9.68-81.79.11-2.55-2.85-3.39-4.25-5.02-12.97-38.29-20-78.64-20.52-119.06-.46-43.57 7.9-87.88 28.73-126.44z"/><path fill="#769937" stroke="#769937" d="M1390.07 1114.13c26.29-14.89 52.17-30.61 78.49-45.48 20.46 37.55 28.53 80.82 28.82 123.28-.07 41.51-7.24 82.96-20.7 122.21l-.09.27c-1.54 1.3-4.19 2.24-4.07 4.64-2.06 46.2-8.74 92.73-25.4 136.09-8.03 20.58-18.3 40.55-32.34 57.7-2.68 2.17-3.4 5.59-4.45 8.7-7.31 21.15-13.03 42.82-17.9 64.65-33.38 18.45-70.65 29.2-108.41 33.74-25.52 3.16-51.33 3.56-76.99 2.18-.09-83.08.01-166.15-.06-249.23 1.05.9 2.1 1.8 3.17 2.73 10.86-17.06 20.38-34.95 29.47-53 16.85-34.17 31.46-69.55 41.89-106.23 11.89-41.92 18.78-86.12 12.62-129.59 13.52 1.4 26.76 4.69 39.86 8.23 10.61 2.94 21.08 6.37 31.49 9.98 8.23 2.93 16.37 6.16 24.6 9.13z"/><path fill="#315F30" stroke="#315F30" d="M1137.48 1094.93c-.87-3.79-.61-7.66.58-11.33.08 3.78.17 7.59-.58 11.33z" opacity=".98"/><path fill="#2E572D" stroke="#2E572D" d="M1278.18 1084.62c.89 3.32 1.09 6.77.33 10.16-.27-1.86-.59-3.7-.71-5.55.1-1.55.23-3.09.38-4.61z" opacity=".97"/><path fill="#E5BC84" stroke="#E5BC84" d="M1206.03 1337.55c3.32-7.88 5.64-17.84 14.07-21.83-3.95 9.22-8.25 18.4-10.09 28.35-.9 5.76-2.8 11.64-1.48 17.49-.29.4-.86 1.21-1.15 1.61-2.01-8.25-2.95-16.74-5.63-24.82-1.7-6.16-4.9-11.7-7.78-17.33 5.61 4.18 8.92 10.45 12.06 16.53z"/><path fill="#FFF" stroke="#FFF" d="M1020.2 1580.28c1.4 1.25 3.19 1.89 4.94 2.54 58.42 21.36 119.73 35.46 181.89 39.29-.06 15.22-.07 30.45.05 45.68 1.36.33 2.74.72 4.15 1.05-1.44-.11-2.87-.2-4.27-.27-62.3-4.34-122.5-23.21-180.23-46.13-1.78-14.11-3.86-28.19-6.53-42.16z"/><path fill="#E5E5E5" stroke="#E5E5E5" d="M1284.02 1619.93c37.76-4.54 75.03-15.29 108.41-33.74-2.63 11.62-4.71 23.35-6.89 35.07-5.76 3.59-10.98 7.99-16.93 11.28-35.14 20.47-75.17 31.76-115.54 35.39-13.91 1.27-27.91 1.67-41.84.91-1.41-.33-2.79-.72-4.15-1.05-.12-15.23-.11-30.46-.05-45.68 25.66 1.38 51.47.98 76.99-2.18z"/><path fill="#E5BC84" stroke="#E5BC84" d="M1368.61 1632.54c5.95-3.29 11.17-7.69 16.93-11.28-10.91 66.28-13.03 134.22-3.66 200.83l-.73.35c-29.54 14.44-61.42 23.42-93.57 29.89-26.9 5.42-54.2 8.7-81.57 10.61.19-18.97-.18-37.95.6-56.9-.11-45.82.25-91.65.35-137.47 1.4.07 2.83.16 4.27.27 13.93.76 27.93.36 41.84-.91 40.37-3.63 80.4-14.92 115.54-35.39z"/><path fill="#F1D4A8" stroke="#F1D4A8" d="M1026.73 1622.44c57.73 22.92 117.93 41.79 180.23 46.13-.1 45.82-.46 91.65-.35 137.47-.78 18.95-.41 37.93-.6 56.9-7.74-.11-15.37-1.58-23.03-2.51-36.46-5.3-72.87-12.09-107.94-23.57-20.91-6.78-41.43-14.7-61.79-22.98.14-1.62.28-3.22.48-4.79 8.96-23.69 13.74-48.79 16.07-73.96 3.36-37.52 1.6-75.36-3.07-112.69z"/><path fill="#5D544F" stroke="#5D544F" d="M977.82 2158.9c3.63-117.25 15.94-234.25 35.91-349.81-.2 1.57-.34 3.17-.48 4.79 20.36 8.28 40.88 16.2 61.79 22.98 35.07 11.48 71.48 18.27 107.94 23.57 7.66.93 15.29 2.4 23.03 2.51-.03 104.9 0 209.8-.01 314.7-5.47-.6-10.78-2.15-15.75-4.46 2.23 30.88 1.42 61.89 2.04 92.84.44 58.68-.34 117.37-3.02 175.99-2.41 56.04-5.65 112.04-9.32 168.01-3.45 50.31-5.51 100.7-8.58 151.05-1.41 24.36-2.99 48.71-4.46 73.08-17.15 13.01-38.44 19.95-59.83 21.24-27.45 1.71-54.73-4.87-80.18-14.74-6.26-36.53-11.64-73.23-15.71-110.07-.88-7.13-1.65-14.33-.66-21.48 2.79-26.66 16.38-51.53 35.44-70.1-14.96-30.94-24.75-64.09-32.77-97.42.9-1.09.29-2.39.05-3.5-6.03-21.4-10.36-43.23-14.25-65.1-5.07-28.82-9.22-57.8-12.81-86.84-.61-3.04-1.68-5.98-1.72-9.09-7.29-72.45-8.74-145.4-6.65-218.15z"/><path fill="#544B47" stroke="#544B47" d="M1287.58 1852.33c32.15-6.47 64.03-15.45 93.57-29.89 16.37 64.7 30.04 130.1 40.59 196 9.27 58.45 16.02 117.38 18 176.55 1.78 53.74-.02 107.56-4.48 161.13-4.08 49.62-11.32 98.96-21.07 147.78-9.59 46.1-20.67 92.45-41.13 135.1 19.25 18.75 32.91 43.95 35.52 70.91 1.17 9.38-.7 18.74-1.62 28.07-3.34 30.34-8.01 60.51-12.69 90.67l-.13-.26a62 62 0 0 1-.58-1.17c-16.11 9.7-34 16.53-52.51 19.83-30.16 5.4-61.94.17-89.02-14.07-3.37-51-5.84-102.05-9.64-153.01-3.93-53.98-7.57-107.97-10.86-161.99-3.01-50.95-5.94-101.9-7.65-152.91-2.2-64.59-2.7-129.24-2.07-193.86-3.57 5-9.93 6.76-15.81 6.43.01-104.9-.02-209.8.01-314.7 27.37-1.91 54.67-5.19 81.57-10.61z"/><path fill="#E5BC84" stroke="#E5BC84" d="M1393.56 2827.22c.14.29.43.88.58 1.17-13.12 78.98-30.75 157.31-54.88 233.67-.93 11-.5 22.1-.6 33.15-3.66-1.57-7-3.78-10.79-4.98-7.04-2.62-14.71-2.09-22.03-1.49-11.74 1.49-22.65 7.79-29.93 17.08-2.11 2.73-3.34 6.03-5.39 8.82-1.85 2.06-4.54 3.08-6.9 4.46 3.05-12.82 5.12-25.91 5.56-39.09.55-8.54-.96-17-1.41-25.49-5.77-73.81-11-147.66-15.74-221.54 27.08 14.24 58.86 19.47 89.02 14.07 18.51-3.3 36.4-10.13 52.51-19.83z"/><path fill="#F1D4A8" stroke="#F1D4A8" d="M1107.08 2855.39c21.39-1.29 42.68-8.23 59.83-21.24-4.94 76.31-10.33 152.6-16.35 228.84-1.95 15.98-.11 32.2 3.07 47.91.08 1.17 1.27 3.75-.55 4.29-1.38-.41-1.44-2.17-2.14-3.12-.52-1.13-1.06-2.19-1.59-3.22-.34-.5-1.02-1.52-1.36-2.03-1.23-1.65-2.48-3.26-3.73-4.85-.17-1.46-.96-2.17-2.38-2.13-.91-.64-1.81-1.26-2.69-1.81-.36-1.31-1.2-1.98-2.5-2.02a38.1 38.1 0 0 0-14.56-6.3c-1.17-1.06-2.72-1.25-4.15-.86l-.48-.07c-5.62-1.24-11.5-1.15-17.15-.17-4.02.68-7.84 2.18-11.45 4.03-.51.33-1.54 1.01-2.05 1.34-1.11.63-2.2 1.3-3.3 1.98q-1.155.69-2.46.87c-1.38-3.79-.51-7.9-.73-11.8-.21-7.81.26-15.7-.73-23.43-22.95-72.24-39.73-146.32-52.73-220.95 25.45 9.87 52.73 16.45 80.18 14.74z"/><path fill="#91955A" stroke="#91955A" d="M1100.35 3088.61c5.65-.98 11.53-1.07 17.15.17-5.72.17-11.44.02-17.15-.17z" opacity=".78"/><path fill="#83AA3D" stroke="#83AA3D" d="M1088.9 3092.64c3.61-1.85 7.43-3.35 11.45-4.03 5.71.19 11.43.34 17.15.17l.48.07c.84 1.5 2.71 1.64 4.15.86a38.1 38.1 0 0 1 14.56 6.3c.14 1.46.98 2.13 2.5 2.02.88.55 1.78 1.17 2.69 1.81.18 1.33.98 2.04 2.38 2.13 1.25 1.59 2.5 3.2 3.73 4.85.34.51 1.02 1.53 1.36 2.03.53 1.03 1.07 2.09 1.59 3.22.17 1.08.34 2.21.52 3.37 9.02 3.04 15.56 10.82 20.48 18.65 2.87 4.06 3.74 9.05 5.18 13.73 4.13 17.04 5.92 34.63 5.52 52.15-.25 8.73.44 17.99-3.93 25.94.94 1.92.5 4.09.56 6.2.74 11.24 3.4 22.26 7.08 32.89 6.1 15.92 9.73 32.96 9.52 50.07.78 5.54.79 11.15.81 16.76-34.28 14.84-72.74 20.32-109.68 14.17-26.38-4.34-52.05-13.82-74.42-28.51-.32-5.6.62-11.07 1.71-16.5.66-11.28 3.93-22.16 6.46-33.11 2.76-11.95 7.27-23.58 8.13-35.89 1.37-6.25.28-12.66 1.03-18.94.72-6.77 1.89-13.6 4.5-19.9 4.1-7.13 3.85-15.72 7.16-23.13 1.49-9.71 2.79-19.46 4.85-29.05 1.35-7.19 5.44-13.37 8.68-19.78 2.84-3.44 7.06-5.17 11.03-6.91 5.74-5.7 9.11-14.32 17.35-17.01l-.73-.84.8-.47c1.1-.68 2.19-1.35 3.3-1.98.51-.33 1.54-1.01 2.05-1.34m-41.84 177.06c1.18-.06 2.37-.07 3.58-.13 32.25-6.45 65.99-8.9 98.33-1.64 6.17 1.19 11.93 3.89 18.1 5.09-15.95-11.32-35.77-16.3-55.16-16.36-22.22-.31-44.34 4.66-64.85 13.04z"/><path fill="#97995E" stroke="#97995E" d="M1117.98 3088.85c1.43-.39 2.98-.2 4.15.86-1.44.78-3.31.64-4.15-.86z" opacity=".8"/><path fill="#769937" stroke="#769937" d="M1275.91 3105.82c7.28-9.29 18.19-15.59 29.93-17.08 6.93-.19 14.11-.94 20.78 1.46 4.12 1.2 7.72 3.57 11.55 5.43 4.32 3.38 8.8 6.77 11.87 11.42 1.63 2.62 3.76 4.88 5.84 7.2 3.98 1.77 8.27 3.49 11.09 7.01 3.22 6.38 7.28 12.53 8.63 19.67 2.05 9.59 3.32 19.33 4.84 29.01 3.32 7.49 3.08 16.16 7.24 23.34 2.57 6.24 3.7 13 4.43 19.7.72 6.31-.32 12.73 1.03 19 .85 12 5.15 23.35 7.9 34.99 2.74 11.54 6.06 23.04 6.81 34.94 1.19 5.1 1.81 10.31 1.59 15.58-30.84 20.1-67.65 30.78-104.42 30.99-27.37.17-54.61-5.9-79.73-16.65.01-5.65.03-11.29.82-16.86-.28-14.39 2.55-28.66 6.72-42.36 4.69-12.06 8.38-24.59 9.65-37.49.6-3.08-.46-6.3.79-9.21-1.73-3.72-3.23-7.61-3.46-11.72-1.45-25.4-.22-51.43 7.87-75.73 3.7-7.53 8.94-14.62 15.94-19.36 2.36-1.38 5.05-2.4 6.9-4.46 2.05-2.79 3.28-6.09 5.39-8.82m-20.8 166.93c.82-.1 1.66-.19 2.51-.27 31.76-11.23 66.4-10.51 99.31-5.51 6.06.64 11.94 2.77 18.07 2.72-22.1-8.96-46.06-14.05-69.97-12.88-17.67.71-35.25 5.96-49.92 15.94z"/><path fill="#979860" stroke="#979860" d="M1086.85 3093.98c.51-.33 1.54-1.01 2.05-1.34-.51.33-1.54 1.01-2.05 1.34z" opacity=".79"/><path fill="#A0A264" stroke="#A0A264" d="M1136.69 3096.01c1.3.04 2.14.71 2.5 2.02-1.52.11-2.36-.56-2.5-2.02z" opacity=".84"/><path fill="#CFB88F" stroke="#CFB88F" d="M1141.88 3099.84c1.42-.04 2.21.67 2.38 2.13-1.4-.09-2.2-.8-2.38-2.13z" opacity=".88"/><path fill="#999B5F" stroke="#999B5F" d="M1147.99 3106.82z" opacity=".81"/><path fill="#A8D45A" stroke="#A8D45A" d="M1047.06 3269.7c20.51-8.38 42.63-13.35 64.85-13.04 19.39.06 39.21 5.04 55.16 16.36-6.17-1.2-11.93-3.9-18.1-5.09-32.34-7.26-66.08-4.81-98.33 1.64-1.21.06-2.4.07-3.58.13z"/><path fill="#97BE51" stroke="#97BE51" d="M1255.11 3272.75c14.67-9.98 32.25-15.23 49.92-15.94 23.91-1.17 47.87 3.92 69.97 12.88-6.13.05-12.01-2.08-18.07-2.72-32.91-5-67.55-5.72-99.31 5.51-.85.08-1.69.17-2.51.27z"/><path fill="#FFF" stroke="#FFF" d="M1012.58 3317.49c22.37 14.69 48.04 24.17 74.42 28.51 36.94 6.15 75.4.67 109.68-14.17.23 7.43-1.17 14.79-2.73 22.04-.93 4.8-3.23 9.24-5.67 13.45-5.63 3.53-12.14 5.36-18.41 7.41-34.09 10.1-70.68 8.34-104.97.16-10.81-2.62-21.51-5.78-31.85-9.86-8.17-3.5-11.92-12.26-15.02-19.98-2.95-8.89-5.25-18.17-5.45-27.56z"/><path fill="#E5E5E5" stroke="#E5E5E5" d="M1305.02 3348.48c36.77-.21 73.58-10.89 104.42-30.99-.21 9.41-2.52 18.7-5.46 27.61-3.19 7.99-7.22 17.13-15.92 20.33-23.11 8.68-47.46 14.11-72.09 15.82-23.94 1.58-48.37-.83-71.06-8.86-3.84-1.44-7.77-2.78-11.19-5.04-6.59-10.52-8.16-23.36-8.43-35.52 25.12 10.75 52.36 16.82 79.73 16.65z"/></g></svg>