<svg xmlns="http://www.w3.org/2000/svg" width="185.042" height="63.409" viewBox="0 0 173.477 59.446"><g style="opacity:.95;filter:url(#filter4218)" transform="translate(-56.51 -108.129)scale(.35154)"><path d="M315.079 380.407a66.82 66.82 0 0 1-47.917 79.938 66.82 66.82 0 0 1-80.947-45.174 67 67 0 0 0 .365 1.726 66.82 66.82 0 0 0 81.665 47.551 66.82 66.82 0 0 0 47.552-81.665 67 67 0 0 0-.718-2.376" style="color:#000;clip-rule:nonzero;display:inline;overflow:visible;visibility:visible;opacity:1;isolation:auto;mix-blend-mode:normal;color-interpolation:sRGB;color-interpolation-filters:linearRGB;solid-color:#000;solid-opacity:1;fill:gray;fill-opacity:1;fill-rule:evenodd;stroke:none;stroke-width:.1;stroke-linecap:butt;stroke-linejoin:miter;stroke-miterlimit:4;stroke-dasharray:none;stroke-dashoffset:0;stroke-opacity:1;color-rendering:auto;image-rendering:auto;shape-rendering:auto;text-rendering:auto" transform="matrix(1 0 -.40143 1 157.414 0)"/><path d="M308.05 447.403a77.78 77.78 0 0 1-107.764 4.337 77.78 77.78 0 0 1-9.059-106.624 78 78 0 0 0-2.059 2.094 77.78 77.78 0 0 0 6.418 109.812 77.78 77.78 0 0 0 109.812-6.418 78 78 0 0 0 2.652-3.201" style="color:#000;clip-rule:nonzero;display:inline;overflow:visible;visibility:visible;opacity:1;isolation:auto;mix-blend-mode:normal;color-interpolation:sRGB;color-interpolation-filters:linearRGB;solid-color:#000;solid-opacity:1;fill:#f60;fill-opacity:1;fill-rule:evenodd;stroke:none;stroke-width:.1;stroke-linecap:butt;stroke-linejoin:miter;stroke-miterlimit:4;stroke-dasharray:none;stroke-dashoffset:0;stroke-opacity:1;color-rendering:auto;image-rendering:auto;shape-rendering:auto;text-rendering:auto" transform="matrix(1 0 -.40143 1 157.414 0)"/><path d="M194.71 402.944a66.82 66.82 0 0 1 48.998-79.28 66.82 66.82 0 0 1 80.326 46.27 67 67 0 0 0-.341-1.73 66.82 66.82 0 0 0-81.012-48.657 66.82 66.82 0 0 0-48.657 81.012 67 67 0 0 0 .686 2.385" style="color:#000;clip-rule:nonzero;display:inline;overflow:visible;visibility:visible;opacity:1;isolation:auto;mix-blend-mode:normal;color-interpolation:sRGB;color-interpolation-filters:linearRGB;solid-color:#000;solid-opacity:1;fill:#f60;fill-opacity:1;fill-rule:evenodd;stroke:none;stroke-width:.1;stroke-linecap:butt;stroke-linejoin:miter;stroke-miterlimit:4;stroke-dasharray:none;stroke-dashoffset:0;stroke-opacity:1;color-rendering:auto;image-rendering:auto;shape-rendering:auto;text-rendering:auto" transform="matrix(1 0 -.40143 1 157.414 0)"/><path d="M202.648 336.05a77.78 77.78 0 0 1 107.813-2.872 77.78 77.78 0 0 1 7.61 106.737 78 78 0 0 0 2.087-2.067 77.78 77.78 0 0 0-4.926-109.889 77.78 77.78 0 0 0-109.889 4.926 78 78 0 0 0-2.695 3.165" style="color:#000;clip-rule:nonzero;display:inline;overflow:visible;visibility:visible;opacity:1;isolation:auto;mix-blend-mode:normal;color-interpolation:sRGB;color-interpolation-filters:linearRGB;solid-color:#000;solid-opacity:1;fill:gray;fill-opacity:1;fill-rule:evenodd;stroke:none;stroke-width:.1;stroke-linecap:butt;stroke-linejoin:miter;stroke-miterlimit:4;stroke-dasharray:none;stroke-dashoffset:0;stroke-opacity:1;color-rendering:auto;image-rendering:auto;shape-rendering:auto;text-rendering:auto" transform="matrix(1 0 -.40143 1 157.414 0)"/><g style="opacity:1" transform="matrix(.93204 0 -.37415 .93204 159.19 10.585)"><path d="M229.103 374.247c30.46 23.933 46.122-2.476 72.832-19.8-18.677 25.849-28.414 81.301-3.89 112.784-27.34-31.112-39.715-39.244-68.942-8.131 25.644-37.027 15.264-61.773 0-84.853" style="color:#000;clip-rule:nonzero;display:inline;overflow:visible;visibility:visible;opacity:1;isolation:auto;mix-blend-mode:normal;color-interpolation:sRGB;color-interpolation-filters:linearRGB;solid-color:#000;solid-opacity:1;fill:#f60;fill-opacity:1;fill-rule:evenodd;stroke:none;stroke-width:.1;stroke-linecap:butt;stroke-linejoin:miter;stroke-miterlimit:4;stroke-dasharray:none;stroke-dashoffset:0;stroke-opacity:1;color-rendering:auto;image-rendering:auto;shape-rendering:auto;text-rendering:auto"/><circle cx="249.609" cy="366.115" r="12.021" style="color:#000;clip-rule:nonzero;display:inline;overflow:visible;visibility:visible;opacity:1;isolation:auto;mix-blend-mode:normal;color-interpolation:sRGB;color-interpolation-filters:linearRGB;solid-color:#000;solid-opacity:1;fill:#f60;fill-opacity:1;fill-rule:evenodd;stroke:none;stroke-width:.1;stroke-linecap:butt;stroke-linejoin:miter;stroke-miterlimit:4;stroke-dasharray:none;stroke-dashoffset:0;stroke-opacity:1;color-rendering:auto;image-rendering:auto;shape-rendering:auto;text-rendering:auto"/></g><g style="font-style:normal;font-variant:normal;font-weight:700;font-stretch:normal;font-size:56.93208313px;line-height:125%;font-family:Comfortaa;-inkscape-font-specification:&quot;Comfortaa Bold&quot;;text-align:center;letter-spacing:4.70258808px;word-spacing:0;text-anchor:middle;fill:#000;fill-opacity:1;stroke:#000;stroke-width:3.41592503;stroke-linecap:butt;stroke-linejoin:miter;stroke-miterlimit:4;stroke-dasharray:none;stroke-opacity:1"><path d="M427.882 443.622v-38.585q0-.612.222-1.14.222-.556.612-.945.417-.417.945-.64.528-.222 1.167-.222h25.714q1.223 0 2.085.862t.862 2.085-.862 2.085-2.085.861h-22.767v13.4h16.346q1.223 0 2.085.861.861.862.861 2.085t-.861 2.085-2.085.862h-16.346v16.346q0 1.223-.862 2.084-.862.862-2.085.862t-2.085-.862q-.861-.861-.861-2.084zM476.006 443.622q0 1.223-.862 2.084-.861.862-2.085.862t-2.085-.862-.861-2.084v-38.585q0-1.223.861-2.085.862-.862 2.085-.862 1.224 0 2.085.862.862.862.862 2.085zM517.042 407.983h-10.98v35.639q0 1.223-.863 2.084-.861.862-2.084.862t-2.085-.862q-.862-.861-.862-2.084v-35.639h-10.98q-1.224 0-2.086-.861-.861-.862-.861-2.085t.861-2.085 2.085-.862h27.855q1.223 0 2.085.862t.861 2.085-.861 2.085-2.085.861z" style="fill:#f60;fill-opacity:1;stroke:#f60;stroke-width:3.41592503;stroke-opacity:1" transform="matrix(1.14362 0 -.26674 .87441 -7 14)"/><path d="M528.75 443.622v-38.585q0-.612.222-1.14.222-.556.612-.945.417-.417.945-.64.528-.222 1.167-.222 1.307 0 2.28 1.084l24.796 31.886v-30.023q0-1.223.862-2.085t2.085-.862 2.085.862.862 2.085v38.585q0 .639-.223 1.167-.222.528-.639.945-.39.39-.945.612-.528.222-1.14.222-1.306 0-2.252-1.028l-24.824-31.886v29.968q0 1.223-.862 2.084-.862.862-2.085.862t-2.085-.862q-.861-.861-.861-2.084zM602.115 440.675q1.224 0 2.085.862.862.861.862 2.085t-.862 2.084q-.861.862-2.085.862h-25.714q-.639 0-1.167-.222-.528-.223-.945-.612-.39-.417-.612-.945t-.222-1.167v-38.585q0-.612.222-1.14.223-.556.612-.945.417-.417.945-.64.528-.222 1.167-.222h25.714q1.224 0 2.085.862.862.862.862 2.085t-.862 2.085-2.085.861h-22.767v13.4h16.346q1.223 0 2.085.861.862.862.862 2.085t-.862 2.085-2.085.862h-16.346v13.399zM614.268 440.397q-.584-.75-.584-1.78 0-.61.223-1.139.222-.556.611-.945.417-.417.945-.64.529-.222 1.168-.222 1.64 0 2.474 1.362 1.168 1.807 2.919 2.725 1.751.917 3.78.917 1.585 0 2.975-.612 1.418-.64 2.446-1.695 1.057-1.057 1.668-2.475.612-1.445.612-3.057 0-1.53-.584-2.864-.556-1.362-1.529-2.363-.973-1.028-2.28-1.668-1.278-.639-2.724-.778-2.223-.194-4.142-1.167-1.918-.973-3.363-2.502-1.446-1.557-2.28-3.53-.806-2.002-.806-4.226 0-2.725 1.029-4.92 1.028-2.225 3.03-3.948h-.028q3.197-2.78 7.506-2.78 1.39 0 2.78.361 1.39.334 2.668 1.057 1.307.695 2.419 1.751 1.14 1.056 2.029 2.474.417.723.417 1.585 0 .64-.222 1.167-.223.528-.64.945-.389.39-.945.612-.528.222-1.14.222-.556 0-1-.166-.417-.167-.779-.473-.333-.306-.667-.695-.306-.417-.667-.945-.667-.973-1.835-1.446-1.14-.5-2.474-.5-1.056 0-2.057.445-1 .417-1.78 1.167-.778.75-1.278 1.78-.473 1.028-.473 2.223 0 1.085.39 2.057.417.973 1.112 1.752.695.75 1.612 1.25.945.473 2.03.557 2.585.194 4.864 1.334t3.975 2.975q1.724 1.806 2.725 4.17 1 2.362 1 4.975 0 6.505-4.809 10.564h.028q-3.864 3.28-8.785 3.28-1.64 0-3.28-.389-1.64-.417-3.169-1.195-1.501-.779-2.835-1.946-1.307-1.168-2.28-2.641zM648.438 440.397q-.584-.75-.584-1.78 0-.61.222-1.139.223-.556.612-.945.417-.417.945-.64.528-.222 1.167-.222 1.64 0 2.475 1.362 1.167 1.807 2.918 2.725 1.752.917 3.781.917 1.585 0 2.975-.612 1.417-.64 2.446-1.695 1.056-1.057 1.668-2.475.611-1.445.611-3.057 0-1.53-.583-2.864-.556-1.362-1.53-2.363-.972-1.028-2.279-1.668-1.279-.639-2.724-.778-2.224-.194-4.142-1.167t-3.364-2.502q-1.445-1.557-2.28-3.53-.806-2.002-.806-4.226 0-2.725 1.029-4.92 1.029-2.225 3.03-3.948h-.028q3.197-2.78 7.506-2.78 1.39 0 2.78.361 1.39.334 2.669 1.057 1.306.695 2.418 1.751 1.14 1.056 2.03 2.474.416.723.416 1.585 0 .64-.222 1.167-.222.528-.64.945-.389.39-.945.612-.528.222-1.14.222-.555 0-1-.166-.417-.167-.778-.473-.334-.306-.668-.695-.305-.417-.667-.945-.667-.973-1.835-1.446-1.14-.5-2.474-.5-1.056 0-2.057.445-1 .417-1.779 1.167t-1.279 1.78q-.472 1.028-.472 2.223 0 1.085.389 2.057.417.973 1.112 1.752.695.75 1.612 1.25.945.473 2.03.557 2.585.194 4.864 1.334t3.976 2.975q1.723 1.806 2.724 4.17 1 2.362 1 4.975 0 6.505-4.809 10.564h.028q-3.864 3.28-8.784 3.28-1.64 0-3.28-.389-1.64-.417-3.17-1.195-1.5-.779-2.835-1.946-1.307-1.168-2.28-2.641z" style="fill:gray;fill-opacity:1;stroke:gray;stroke-width:3.41592503;stroke-opacity:1" transform="matrix(1.14362 0 -.26674 .87441 -7 14)"/></g><text xml:space="preserve" x="548.397" y="495.674" style="font-style:normal;font-variant:normal;font-weight:400;font-stretch:normal;font-size:30.35382843px;line-height:125%;font-family:Comfortaa;-inkscape-font-specification:Comfortaa;text-align:center;letter-spacing:0;word-spacing:0;text-anchor:middle;fill:gray;fill-opacity:1;stroke:none;stroke-width:1px;stroke-linecap:butt;stroke-linejoin:miter;stroke-opacity:1" transform="skewX(-16.964)scale(1.14362 .87442)"><tspan x="548.397" y="495.674">TRAINING</tspan></text></g></svg>