<svg xmlns="http://www.w3.org/2000/svg" xml:space="preserve" style="fill-rule:evenodd;text-rendering:geometricPrecision;image-rendering:optimizeQuality;clip-rule:evenodd;shape-rendering:geometricPrecision" viewBox="0 0 236.089 357.003"><defs><style>.fil0{fill:#1f1a17}.fil1{fill:#fff}</style></defs><g id="Layer_x0020_1"><g id="_27690416"><path id="_163687864" d="M105.56 2.877c-.532 0-1.465-.09-2.128 0s-1.258.336-1.809.532-1.117.34-1.49.638c-1.35 1.08.1 2.142.59 3.177.169.357-.211.733-.377.972s-.585.568-.85.852-.546.451-.746.85-.23.817-.425 1.49-.495 1.928-.745 2.554-.44.813-.745 1.17-.62.532-1.064.958-1.248 1.065-1.596 1.596-.444.968-.425 1.49.353 1.097.532 1.49.423.579.532.85.199.41.106.745-.408.798-.638 1.17-.496.638-.745 1.065-.408.886-.745 1.49-1.027 1.627-1.277 2.127-.231.554-.213.851.134.61.32.852.405.353.744.532 1.048.211 1.277.532c.016.022-.093 1.91-.158 3.428-.033.768-.492 1.763-.456 2.3s.11.728.482 1.139 1.143.44 1.409.9-.336.547-.532 1.17-.62 1.698-.638 2.554.108 1.674.532 2.447 1.228 1.595 1.915 2.022 1.395.372 2.021.425.993-.053 1.703-.106 1.702-.142 2.553-.213l2.128-.106c-.319.638-.513 1.151-.957 1.915s-1.072 1.957-1.703 2.66-1.294 1.228-2.021 1.49-1.24.07-2.128 0-2.042-.049-3.192-.426-2.412-1.206-3.618-1.809c-1.028-.71-1.984-1.47-3.085-2.128s-2.323-1.258-3.512-1.809-2.286-1.01-3.617-1.49-3.007-1.097-4.363-1.382-2.427-.284-3.724-.32-2.567-.053-4.043.107-3.37.603-4.788.85-2.676.408-3.724.64-1.834.636-2.553.744-1.076.152-1.703-.106-1.135-.816-1.915-1.384-1.823-1.451-2.766-2.021-1.84-1.01-2.873-1.383-2.083-.709-3.299-.852-2.851-.07-3.936 0-1.88.302-2.554.426-1.107.301-1.49.32-.559.158-.744-.214-.249-.968-.213-1.702.266-1.685.425-2.66.355-2.128.532-3.192c.036-1.064.16-2.3.107-3.192s-.337-1.506-.426-2.128-.16-.847-.106-1.596.156-1.976.425-2.873.656-1.471 1.17-2.447 1.366-2.447 1.916-3.405.9-1.697 1.383-2.34.841-1.254 1.49-1.49 1.291-.08 2.021.213 1.49.975 2.235 1.49 1.453 1.25 2.234 1.595 1.814-.035 2.341.426-.434 1.03.213 1.809 2.291 1.943 3.405 2.553 2.195.815 3.192 1.064 1.862.462 2.766.426 1.727-.28 2.554-.638 1.64-.861 2.34-1.49 1.44-1.367 1.81-2.234.247-1.666.318-2.767.107-2.713.107-3.83.037-2.064-.107-2.873-.476-1.397-.744-1.915-.474-.952-.852-1.17-.865-.037-1.17 0-.253.517-.638.212-.934-1.36-1.384-1.809-.795-.703-1.276-.85-.975-.036-1.49 0-1.092.23-1.596.212-.601-.053-1.383-.32-2.288-.904-3.299-1.276-1.789-.691-2.766-.958-1.949-.478-3.086-.638-2.499-.266-3.724-.32-2.411-.017-3.617 0-2.458-.053-3.618.107-2.199.568-3.298.851c-.568.39-1.218.722-1.703 1.17s-.795.866-1.17 1.49-.832 1.629-1.064 2.235.012.868-.32 1.383-.78.798-1.595 1.596-2.074 1.915-3.299 3.192-2.517 2.872-4.043 4.469-3.368 3.244-5.107 5.107-3.58 3.9-5.32 6.065-3.912 4.971-5.107 6.916-1.472 3.333-2.022 4.681-.992 2.426-1.277 3.405-.301 1.65-.425 2.447-.032 1.479-.32 2.341S.618 49.93.33 50.757s-.374 1.468-.319 2.128.282 1.252.639 1.702.796.566 1.383.851 1.418.568 2.128.851c.284.39.636.777.851 1.17s.168.821.426 1.171.387.46 1.064.851 1.95 1.029 2.979 1.49 1.915.727 3.192 1.277 2.638 1.008 4.469 2.021 4.752 2.98 6.49 4.044 2.375 1.524 3.937 2.34 3.507 1.808 5.426 2.554 4.023 1.383 6.065 1.915 4.108 1.01 6.171 1.277 4.318.39 6.171.32 3.707-.55 4.895-.746 1.67-.484 2.234-.425.61-.18.851.745.355 2.606.532 4.575.177 4.852.532 7.235.886 4.641 1.596 7.022c1.15 3.85 2.486 7.88 5.001 11.066 1.335 1.691 4.041 4.644 5.64 6.278s2.863 2.295 3.936 3.511 1.648 2.285 2.447 3.724 1.525 3.263 2.341 4.895 1.773 3.351 2.554 4.894 1.418 2.873 2.128 4.362 1.594 3.17 2.128 4.576c1 2.633 1.955 5.235 2.979 7.873.463 1.193.777 2.349.851 3.086s-.05.545-.425 1.17-1.443 1.582-1.81 2.554-.23 2.074-.318 3.085.13 1.86-.213 2.98-1.224 2.411-1.809 3.617-1.327 2.546-1.702 3.618-.337 1.542-.532 2.766-.39 3.19-.639 4.575c-.49 2.736-1.372 5.316-2.128 7.98-.337 1.189-.301 1.365-.745 2.873s-1.259 4.185-1.915 6.171-1.383 4.06-2.021 5.746-1.17 2.802-1.81 4.362-1.506 3.617-2.02 5.001-.674 1.79-1.065 3.299-.904 3.633-1.277 5.745-.638 4.61-.957 6.916c.035 1.986-.018 4.112.106 5.959s.39 3.841.639 5.107.584 1.524.85 2.447.656 1.992.746 3.086.036 1.805-.213 3.404-.993 4.664-1.277 6.172-.355 2.055-.426 2.872.036 1.418 0 2.022-.07 1.06-.212 1.596-.26 1.037-.639 1.596-1.134 1.17-1.596 1.702-.691.922-1.17 1.49-1.205 1.275-1.703 1.915-.744 1.153-1.276 1.915-1.399 1.787-1.916 2.66-.797 1.649-1.17 2.554-.71 1.915-1.064 2.873c-.213 1.135-.461 2.305-.638 3.405s-.355 2.107-.426 3.192-.018 2.127 0 3.298c.04 2.635.166 5.25.426 7.874.445 4.51 1.15 9 1.596 13.513.142 1.438.106 2.163.106 3.51s0 2.908-.106 4.576-.266 3.72-.532 5.426-.602 3.224-1.064 4.788-1.042 3.254-1.703 4.576-.926 2.007-2.234 3.298-3.724 2.854-5.533 4.362-4.007 3.476-5.32 4.682-1.791 1.773-2.554 2.554-1.43 1.305-2.021 2.128c-2.146 2.99-2.783 5.26.294 8.49 1.363 1.43 2.384 2.977 4.26 4.153 4.026 2.527 5.611 2.543 9.81.444 1.883-.942 2.939-.882 4.575-2.554.82-.837 1.915-2.27 2.66-3.192s1.061-1.54 1.809-2.34 1.736-1.684 2.66-2.448c2.851-2.358 3.463-3.577 5.533-6.703.87-1.315 2.037-2.045 2.553-3.298s.372-2.817.426-3.937.035-1.594-.107-2.767-.62-1.776-.744-4.256.32-5.555 1.49-8.937c.496-1.437.85-2.428 1.489-3.83s1.56-3.209 2.34-4.576 1.507-2.429 2.341-3.617 1.756-2.27 2.66-3.512 1.933-2.695 2.767-3.936 1.63-2.41 2.234-3.512 1.045-2.069 1.383-3.085.532-1.874.639-2.98 0-2.376 0-3.617-.036-2.571 0-3.83.088-2.623.213-3.724.337-1.862.532-2.873.39-2.25.638-3.192.477-1.628.851-2.447.905-1.632 1.383-2.448.94-1.648 1.49-2.447 1.223-1.488 1.809-2.34 1.064-1.667 1.702-2.767 1.594-2.674 2.128-3.83.745-2.04 1.064-3.086.514-2.11.851-3.192.744-2.32 1.17-3.298.834-1.579 1.384-2.554 1.256-2.355 1.915-3.298 1.17-1.33 2.022-2.341 2.181-2.643 3.085-3.724 1.632-1.915 2.341-2.767 1.294-1.47 1.915-2.34 1.33-2.057 1.81-2.873.709-1.348 1.063-2.022l1.064-1.49.639.426c.425 1.277.815 2.287 1.276 3.83s1.222 3.927 1.49 5.427-.018 2.39.106 3.511.408 2.04.639 3.192.46 2.657.745 3.724.69 1.79.957 2.66.639 1.728.639 2.554-.355 1.028-.639 2.234-.868 3.774-1.064 5-.124 1.595-.106 2.342.142 1.454.213 2.128.23 1.288.212 1.915-.014 1.02-.319 1.809-.638 1.382-1.49 2.873-2.747 4.448-3.617 6.064-.851 1.933-1.596 3.618-2.109 4.483-2.873 6.49-1.363 3.928-1.702 5.533-.48 2.044-.32 4.043.958 5.817 1.277 7.874.515 2.799.639 4.469.285 3.694.106 5.533-.673 3.614-1.17 5.426c-1 3.644-2.331 7.402-3.618 10.959-.603 1.668-1.383 3.369-1.809 4.469s-.372 1.117-.744 2.128-1.204 2.918-1.49 3.937c-.376 1.34-.195 2.782-.106 4.15.053.815.106 2.107.212 2.872s.173 1.177.426 1.702.578.952 1.064 1.384.882.897 1.809 1.17 2.305.32 3.617.426 2.82.088 4.256.212 2.88.157 4.363.532 3.092.97 4.469 1.703 2.908 2.057 3.724 2.66.664.704 1.17.957 1.15.408 1.809.532 1.436.142 2.128.213 1.483.087 2.021.213.674.284 1.17.532 1.149.707 1.81.958 1.354.478 2.128.532 1.56-.125 2.447-.213 2.056-.065 2.873-.32.984-.5 1.517-.874.793-.946 1.363-1.185 1.257-.329 1.651-.835c1.385-1.777 1.169-3.778.4-5.866-.344-.933-1.65-1.755-2.91-2.199s-3.191-1.028-4.469-1.383-2.307-.284-3.192-.745-1.276-1.294-1.915-1.915-1.096-1.185-1.915-1.809-1.95-1.276-2.98-1.915-2.18-1.277-3.191-1.915-1.933-1.26-2.873-1.915-2.16-1.523-2.766-2.022-.65-.555-.852-.957-.319-.841-.319-1.384.07-.814.32-1.808.53-2.444 1.17-4.15 1.506-3.74 2.66-6.065 2.677-5.16 4.256-7.873c2.62-4.506 5.547-8.028 8.512-12.13 1.068-1.478 2.35-3.405 3.085-5.108s.94-3.331 1.277-5 .568-3.404.745-5.001.248-3.476.32-4.575.052-1.26.106-2.022-.077-1.648.212-2.554.849-1.822 1.49-2.766 1.719-2.02 2.34-2.873.921-1.291 1.384-2.234 1.027-2.085 1.383-3.405.585-3.066.745-4.469.07-2.798.213-3.937.408-1.897.638-2.872.332-2.027.745-2.98 1.064-1.56 1.702-2.66 1.293-2.621 2.128-3.936 2.093-2.873 2.873-3.937 1.17-1.543 1.809-2.447 1.418-2.021 2.022-2.98 1.185-1.82 1.596-2.766.62-2.004.85-2.873.426-1.343.533-2.34.124-2.429.106-3.618-.142-1.827-.213-3.511-.16-4.93-.212-6.597c-.077-2.39-.302-4.354-.745-6.703-.331-1.757-.489-3.203-.426-5.001.036-1.011.16-2.27.213-3.405s.142-1.95.106-3.405-.141-3.333-.319-5.32-.3-4.407-.745-6.597-1.185-4.551-1.915-6.49-1.79-3.847-2.447-5.107c-1.23-2.36-1.255-2.725-1.702-5.32-.178-1.033-.477-2.265-.852-3.299s-.903-2.002-1.383-2.872-1.044-1.753-1.49-2.341c-1.033-1.364-1.261-1.707-1.915-3.405-.785-2.041-1.064-2.575-1.064-4.788l-.532-2.766c-.46-1.064-1.027-2.233-1.383-3.192s-.584-1.645-.745-2.554-.212-1.7-.212-2.873.088-2.96.212-4.15c.198-1.893.455-4.695 1.49-6.277 1.26-1.925 4.679-6.026 6.49-8.086s2.873-2.767 4.363-4.256 3.31-3.15 4.575-4.682 2.35-3.173 2.98-4.469.496-2.128.744-3.192l-.213-3.405-.213-2.234.745-.106 3.192 1.383c1.454.496 3.101 1.134 4.363 1.49 2.744.772 6.508 1.178 8.724 1.276s2.66-.124 4.044-.213 2.854-.16 4.256-.319 2.706-.264 4.15-.638 2.996-1.064 4.468-1.596 3.167-1.025 4.362-1.596 2.093-1.366 2.767-1.81c1.666-1.095 1.92-.677 3.937-.744 1.066-.035 2.53-.105 3.724-.32s2.392-.62 3.404-.957 1.737-.638 2.66-1.064 1.948-.902 2.873-1.49 2.064-1.425 2.66-2.02.705-.958.851-1.49.054-1.044 0-1.596-.23-.94-.319-1.703-.106-1.914-.213-2.873-.372-1.485-.425-2.872.07-3.813.106-5.427.124-2.978.107-4.256-.017-2.246-.213-3.405-.512-2.353-.958-3.51-1.116-2.358-1.702-3.406-1.206-1.915-1.809-2.872c-.993-1.525-2.267-3.275-2.98-4.576s-.744-1.844-1.276-3.192-1.33-3.333-1.915-4.894-1.135-3.157-1.596-4.469-.886-2.356-1.17-3.405-.355-2.021-.533-2.872-.05-1.6-.532-2.235-1.426-.99-2.128-1.277-1.433-.354-2.021-.425-.91.145-1.49 0-.886-.443-1.915-.851-3.227-1.224-4.256-1.596-1.297-.566-1.915-.639-1.142.325-1.703.213-.937-.602-1.49-.851-1.207-.566-1.808-.639-1.073.249-1.702.213-1.365-.319-2.022-.425-1.426-.231-1.915-.213-.6.122-.958.319-.56.812-1.17.851-1.54-.514-2.128-.638-.96-.18-1.383-.107-.702.225-1.064.532-.794.809-1.064 1.277-.355.94-.532 1.49-.337 1.205-.532 1.809-.353 1.22-.639 1.808-.795 1.112-1.064 1.703-.477 1.299-.532 1.809.012.767.213 1.17.708.814.958 1.17.265.532.532.958.663 1.196 1.064 1.596.935.475 1.276.745.169.697.745.85 1.854-.275 2.447 0 .205 1.037.532 1.384.75.46 1.277.532 1.276.059 1.809-.106.717-.635 1.277-.851 1.15-.32 2.021-.426 2.412-.177 3.192-.213 1.033.11 1.49 0 .796-.478 1.17-.638.578-.456 1.064-.32 1.168.468 1.596 1.065.55 1.471.852 2.34.866 1.747.957 2.873-.159 2.373-.425 3.724-.727 2.855-1.17 4.363-1.117 3.278-1.49 4.681-.55 2.642-.745 3.724-.284 1.844-.426 2.767v1.702c-.993-.532-1.895-1.099-2.979-1.596s-2.304-.975-3.511-1.383-2.417-.885-3.724-1.064-2.796-.312-4.043 0-2.127 1.134-3.192 1.809-2.026 1.928-3.192 2.234-1.63-.141-3.299-.532-4.592-1.206-6.703-1.809-4.158-1.434-5.958-1.809-3.313-.39-4.788-.425-2.407-.036-4.044.213-4.06.957-5.745 1.276-3.15.567-4.363.639-1.915-.142-2.872-.213c-1.064-.461-2.066-.686-3.192-1.383s-2.394-1.862-3.512-2.767c-1.076-.871-4.185-2.716-4.362-4.15-.167-1.352.07-4.984.213-6.277s.301-.744.638-1.383.551-1.579 1.383-2.447 2.696-2.022 3.512-2.66 1.074-.808 1.383-1.17.335-.526.425-.958-.04-1.12.107-1.596.425-.674.745-1.17.848-1.112 1.17-1.81.567-1.521.745-2.34.301-1.84.319-2.554-.213-1.218-.213-1.702.068-.808.213-1.17.528-.496.638-.958.108-1.023 0-1.703-.385-1.762-.638-2.34-.55-.638-.851-1.064-.603-.958-.958-1.49-.865-1.038-1.17-1.702-.245-1.394-.639-2.235-1.04-1.944-1.702-2.766-1.56-1.472-2.234-2.128-.987-1.201-1.81-1.81-1.767-1.22-3.085-1.808-3.418-1.311-4.788-1.702-2.215-.479-3.405-.639-2.464-.248-3.724-.319-2.375-.124-3.83-.106-3.598.106-4.894.213-2.127.283-2.873.425-1.106.172-1.596.426-.887.762-1.277 1.064-.692.615-1.064.745-.532 0-1.064 0" class="fil0"/><path id="_161611192" d="m57.828 331.16-.457.076c-.559.254-1.003.459-1.677.762s-1.445.556-2.365 1.059-2.24 1.275-3.145 1.953-1.515 1.343-2.262 2.094-1.554 1.739-2.22 2.404-1.125 1.007-1.771 1.584-1.155 1.293-1.76 1.936-1.12 1.04-1.412 1.557-.568 1.293-.53 1.624.205.636.386.825.326.077.587.008c.561-.146 2.356-2.26 2.558-2.081-.317.307-.632.61-.953.922s-.684.625-.973.953-.602.69-.753 1.01-.142.592-.128.862.119.514.21.72.188.382.335.509.357.2.51.221.176 0 .351-.1.5-.343.687-.496.282-.282.438-.419.33-.266.496-.4l.98-.902c-.38.398-1.134 1.16-1.455 1.51-.444.481-.882.772-.878 1.483.002.43.247.777.466 1.026s.618.545.979.598c.384.056 1.307-1.13 1.646-1.376l1.263-1.32c-.574.581-1.332 1.616-1.737 2.052s-.507.482-.58.866.27.871.468 1.116.648.635.973.68.481.038.877-.26.722-.82 1.054-1.161 1.668-1.499 1.976-1.81l.706-.828c-.202.217-.119.448-.344.684-.884.926-2.17 1.937-2.638 2.516-.654.807-.618 1.261-.316 1.909.336.72 2.109.97 2.742.914.495-.043 1.39-.268 1.784-.495s.546-.328.771-.629.358-.61.499-.9.162-.7.344-.842.13.24.398.262.633.015 1.13-.134 1.272-.41 1.825-.752 1.101-.832 1.452-1.272.226-.892.606-1.316 1.067-.762 1.6-1.143l1.75-2.066-1.445.314-1.233.048-1.729.305-1.722-.04c-1.165-.176-2.333.182-3.272-.507 2.878-1.472 4.651-1.099 9.632-2.93s4.015-2.187 5.334-3.506 1.74-2.97 2.363-4.19.914-2.083 1.371-3.125l.229-2.286c-1.321.737-2.932 1.56-3.963 2.21-1.454.916-1.853 1.637-3.581 1.829.381-.508.417-.76 1.143-1.524s2.223-2.096 3.2-3.048 2.151-1.092 2.667-2.667.127-4.571.229-6.172.062-1.977.381-3.43.9-3.613 1.524-5.257 1.232-2.68 2.21-4.572 2.73-5.055 3.657-6.782c1.385-2.58 2.546-4.56 4.496-6.782 1.004-1.143 2.61-2.595 3.43-3.657s1.052-1.762 1.447-2.667.722-1.578.914-2.744.229-2.931.229-4.19-.165-2.4-.229-3.353-.114-1.537-.152-2.363.162-1.947-.076-2.59-.618-.872-1.22-.915-1.349.225-1.98.686-1.13 1.27-1.677 1.981-1.016 1.524-1.6 2.286-1.332 1.687-1.905 2.286-1.041 1.022-1.524 1.296-.83.386-1.296.304-.93-.41-1.295-.762-.558-.773-.838-1.295-.546-1.13-.838-1.829-.648-1.625-.915-2.362-.419-1.383-.686-2.057-.605-1.492-.914-1.982-.528-.821-.914-.914-.62.034-.991.457-.762 1.244-1.143 1.981-.735 1.15-1.143 2.439-.99 3.475-1.295 5.258-.394 3.543-.534 5.41-.305 3.807-.305 5.791.254 3.95.305 6.096.051 5.18 0 6.782-.152 1.94-.305 2.82-.355 1.434-.61 2.438-.634 2.298-.914 3.581-.584 2.869-.762 4.115-.216 2.35-.304 3.353-.115 1.688-.229 2.667-.305 2.26-.457 3.2-.073 1.438-.457 2.438-1.258 2.451-1.83 3.506-1.036 2.05-1.6 2.819-1.19 1.374-1.752 1.753-1.168.43-1.524.457-.374.082-.457-.305-.028-.551.228-1.295.597-.99.839-1.448.431-.876.61-1.296.304-.812.456-1.219z" class="fil1"/><path id="_162127248" d="M131.61 348.82c.22.456.587.786.899 1.124s.54.665.967.898 1.04.357 1.535.466.865.126 1.42.187 1.469.149 1.916.178.512.027.769-.002.576-.004.764-.171.153-.431.211-.697.09-.594.134-.892l.452-.876c-.07.266-.161.439-.21.799s-.158.978-.085 1.352.281.547.5.784.48.424.791.62.703.399 1.072.546.731.257 1.132.333.803.126 1.264.116 1.083-.148 1.493-.175.668.008.964.013.54.037.813.017.522-.045.823-.14.69-.26.97-.427.502-.312.703-.568.416-.65.478-.94-.023-.49-.123-.717-.187-.4-.46-.603-.738-.438-1.14-.586-.925-.265-1.263-.296-.507.043-.732.113-.399.2-.598.3l-.67.49-.336-.01c.285-.327.406-.677.854-.98s.92-.274 1.634-.224.86.299 1.29.448c.295.12.617.202.885.362s.499.418.703.59.304.332.526.44.504.235.772.188.532-.272.714-.448.282-.368.349-.58.157-.455.043-.656-.315-.2-.625-.377-.824-.458-1.236-.687l-1.1-.533.432.156c.174.063.372.124.613.222s.534.219.83.365.732.415.942.509.186.146.308.046.266-.328.31-.552-.01-.544-.06-.734-.097-.256-.23-.379-.365-.225-.547-.337l-1.018-.411c.112-.007.205-.058.337-.02s.235.173.422.24.502.2.689.158.256-.148.248-.367-.118-.548-.29-.82-.449-.547-.722-.782-.641-.488-.904-.616-.512-.107-.647-.135-.115-.017-.167-.035-.01-.006-.138-.076-.384-.217-.629-.344-.481-.297-.839-.412-.91-.213-1.29-.272-.726-.095-.995-.077-.423.078-.59.18-.261.279-.374.41-.204.255-.305.382l-.465.65c.093-.278.172-.567.279-.835s.306-.554.361-.766.017-.326-.043-.466-.1-.214-.296-.332-.542-.273-.851-.364-.697-.132-.992-.182-.445.062-.774-.12-.755-.626-1.133-.939c-.432-.54-.904-1.24-1.296-1.617-.444-.429-1.304-1.035-1.818-1.413-.399-.293-.97-.694-1.525-1.087s-1.448-.752-2.147-1.128-1.335-.537-2.1-.985c-1.546-.906-2.262-1.747-3.436-2.934-.392-.396-.892-.699-1.374-1.122s-1.175-.94-1.513-1.413-.43-.78-.455-1.347.128-1.06.314-1.955.327-1.967.804-3.41 1.222-3.179 2.055-5.226 1.846-4.743 2.94-7.057 2.314-4.642 3.621-6.809 3.084-4.6 4.212-6.171 1.767-2.2 2.553-3.249 1.527-1.925 2.165-3.041 1.2-1.942 1.648-3.627.677-4.267 1.016-6.4l.038-3.589-.367-.596c-.328.918-.725 2.106-.982 2.753s-.313.923-.56 1.121-.429.167-.626-.17-.383-.9-.433-1.636.058-1.852.134-2.73.093-1.668.324-2.534.401-1.587 1.053-2.62 1.62-2.031 2.815-3.51 3.38-3.94 4.357-5.364 1.102-2.053 1.462-3.129.498-2.076.686-3.279.353-2.7.438-3.928-.04-2.493.07-3.437.353-1.472.582-2.188.72-1.495.79-2.105.332-1.107-.386-1.385-2.212-.194-3.18 0-1.681.434-2.5 1.136-1.649 1.94-2.272 2.953-1.138 1.945-1.445 3.097-.348 2.565-.372 3.72.243 2.535.227 3.18-.13.497-.326.602-.369.227-.646-.08-.64-.903-.877-1.608-.432-1.75-.524-2.578-.02-1.58-.03-2.37l-.324-.327c-.378.303-.716.45-1.136.908s-.98 1.09-1.363 1.818-.644 1.704-.909 2.5-.333 1.613-.681 2.271-.91 1.302-1.364 1.59-.59.195-1.136 0-1.354-.56-2.044-1.135-1.498-1.894-2.045-2.272-.73-.397-.909.227 0 1.969 0 2.953c0 1.212-.076 2.497 0 3.636s.149 2.111.454 3.18.91 2.121 1.364 3.181l1.59 1.818c-.379 3.256-.643 6.473-1.136 9.77s-1.212 6.664-1.818 9.996c-1.438 4.393-2.8 9.122-4.316 13.178a136 136 0 0 1-4.772 11.133c-1.516 3.147-2.877 5.15-4.316 7.725-.228 1.666-.606 3.59-.682 4.998s.38 2.7.227 3.408c-.366.067-.6-.273-.97-1.053s-.55-1.988-.928-3.352l-.237-2.527-.364-1.474c-.882.912-1.428 2.097-2.045 3.408s-.826 3.116-1.643 4.427-2.537 2.06-3.153 3.271-.327 2.446-.338 3.598.047 2.396.272 3.286.696 1.464 1.048 1.945.563.726 1.033.898 1.02.116 1.63.077 1.344-.206 2.016-.309c.753.04 1.316.078 2.26.122s2.207-.006 3.399.138 2.557.594 3.732.723 2.293.14 3.29.05 1.762-.394 2.644-.59l2.668-.974c-.506.49-1.03.915-1.516 1.468s-1.103 1.281-1.397 1.844-.337.943-.326 1.458.173 1.095.393 1.552z" class="fil1"/><path id="_162126288" d="M121.86 306.34c1.229-1.985 2.292-3.544 3.687-5.956s3.472-6.022 4.68-8.508 2.05-4.251 2.552-6.38.496-4.383.425-6.24-.273-3.305-.85-4.821-.929-2.759-1.666-3.757-1.771-2.199-2.73-2.199c-2.337 0-5.303 5.631-5.996 7.354-1.642 4.083-2.21 8.976-2.087 13.35.047 1.684.305 3.157.567 4.254.828 3.465 1.276 5.403 1.276 9.075l-.283 3.261z" class="fil1"/><path id="_162705328" d="M137.03 246.65c.047-1.276.07-2.245.142-3.829s-.002-3.91.283-5.672.662-2.551 1.418-4.82 2.127-6.215 3.12-8.792 1.843-4.16 2.836-6.665 2.338-5.832 3.12-8.366 1.345-4.778 1.56-6.807c.32-3.032-.266-7.188-1.277-10.068-.716-2.042-2.482-4.534-3.828-6.239-.712-.9-1.546-1.856-2.27-2.41s-1.317-.878-1.984-.851-1.119.478-1.56.992-.685 1.203-.993 1.986-.637 1.697-.85 2.694c-.654 3.048-.47 6.16.141 9.217.404 2.019 1.324 4.158 1.844 6.097s.921 3.614 1.276 5.53c.695 3.756 1.093 6.735.283 10.493-.332 1.542-.874 3.095-1.418 4.68s-1.205 3.237-1.843 4.821-1.347 3.19-1.985 4.68-1.44 3.09-1.844 4.253-.495 1.884-.567 2.695-.051 1.45.142 2.127.61 1.318.993 1.843.85.85 1.276 1.276l1.843 1.56z" class="fil1"/><path id="_162704984" d="M158.44 231.19c-.142.709-.016 1.26-.425 2.127s-1.174 2.071-1.986 2.978-1.81 1.743-2.836 2.41-2.2 1.271-3.261 1.56-2.113.238-2.978.142-1.492-.294-2.127-.709-1.081-.936-1.56-1.702-1.035-1.632-1.276-2.836-.284-2.684-.142-4.254.495-3.327.993-5.104 1.276-3.78 1.985-5.53 1.533-3.634 2.269-4.964 1.48-2.282 2.127-2.977 1.105-1.005 1.702-1.135 1.134-.026 1.56.426.472 1.323.708 1.985.425 1.368.71 1.985.617 1.38.992 1.702.71.198.993 0 .45-.56.425-.993-.307-.733-.567-1.418-.778-1.62-.993-2.694c-.514-2.57-.49-5.594-.709-8.225-.142-1.701-.26-3.545-.425-5.672s-.355-4.986-.567-7.09c-.495-4.897-1.316-9.073-3.262-13.613-.497-1.16-.921-1.749-1.276-2.41s-.727-1.04-.85-1.56-.276-.707.141-1.418c1.538-2.624 5.326-6.005 7.94-7.515 1.314-.759 3.817-1.77 5.39-1.702.572.025.552-.11 1.134.567s1.677 2.433 2.268 3.403c1.92 3.148 3.25 6.747 3.97 10.351.332 1.657.686 3.778.852 5.672s.141 3.758.141 5.672-.07 4.089-.141 5.814-.356 3.295-.284 4.538.496 1.676.709 2.836.496 2.784.567 4.112c.194 3.616.346 7.433.284 11.06-.024 1.372-.094 3.563-.284 4.963s-.42 2.374-.85 3.403-1.04 1.725-1.702 2.694-1.607 2.222-2.269 3.12-1.182 1.583-1.702 2.269-.965 1.367-1.418 1.843-.918.84-1.276.993-.492.182-.709-.142-.307-1.016-.425-1.56-.165-1.25-.284-1.701-.283-.662-.425-.993v-.709h-.851z" class="fil1"/><path id="_162715168" d="M109.8 171.49c-.58-.68-1.938-1.56-3.261-2.694s-3.658-3.448-4.68-4.112-.753-.16-.992.425-.047 1.44-.284 2.694c-.63 3.336-1.578 6.138-2.978 9.217-1.47 3.236-3.046 6.283-4.254 9.643-.544 1.513-1.062 2.83-1.418 4.395s-.638 3.16-.709 4.963.19 4.466.284 5.814.307 1.642.283 2.269-.067 1.087-.425 1.418-.91.47-1.418.284-.964-.844-1.276-1.277-.327-.915-.567-1.276-.554-.677-.851-.85-.503-.33-.851-.142-.635.538-.993 1.134-.802 1.413-1.134 2.41-.661 2.456-.85 3.546-.332 1.741-.284 2.977.33 3.14.567 4.396.447 2.052.85 3.12 1.179 2.045 1.56 3.261.473 2.482.71 3.97.4 3.378.708 4.964.659 3.228 1.135 4.537 1.054 2.375 1.701 3.262 1.21 1.563 2.127 1.985 2.013.497 3.12.425 2.205-.3 3.403-.85 2.794-1.59 3.687-2.411 1.243-1.387 1.56-2.41.044-2.493.283-3.546.733-1.82 1.135-2.694.964-1.306 1.276-2.552.378-3.214.567-4.822l.142-2.694.993.142c.094 1.324.141 2.74.283 3.97s.353 2.57.567 3.404.267 1.307.71 1.56.535.052 1.276-.426 2.195-1.58 3.12-2.41 1.577-1.388 2.41-2.553 1.864-2.924 2.552-4.396 1.111-3.096 1.56-4.396.803-2.172 1.134-3.403.544-2.623.851-3.97.733-2.86.993-4.112.354-2.245.567-3.404.543-2.48.709-3.545.356-1.967.284-2.836-.279-1.454-.71-2.268-1.038-1.582-1.843-2.553-2.15-2.34-2.978-3.261-1.394-1.56-1.985-2.269-1.198-1.311-1.56-1.985-.32-1.518-.567-1.985-.382-.834-.85-.71-.798.486-1.277 1.277-1.016 2.079-1.56 3.403-1.322 3.33-1.701 4.538-.378 1.796-.567 2.694l-.851 1.56-.851.141c.095-.898.118-1.746.284-2.694s.566-1.862.709-2.978.141-2.527.141-3.686-.047-2.408-.141-3.262-.308-1.3-.426-1.843-.236-.967-.283-1.418-.096-.797 0-1.276.378-1.11.567-1.56.47-.746.567-1.135.58-.453 0-1.134" class="fil1"/><path id="_162717576" d="M102.74 242.8c-.432.432-.617.694-1.296 1.296s-1.898 1.636-2.778 2.315-1.583 1.278-2.5 1.76c-2.648 1.39-4.738 2.29-7.223.463-1.753-1.288-2.44-3.946-3.612-5.741-.533-.818-1.756-2.426-2.685-2.778-.49-.186-.923.006-1.297.185s-.669.471-.833.833-.173.804-.093 1.204.211.688.556 1.111.803.772 1.482 1.39c1.57 1.428 3.027 2.767 4.444 4.351.525.587 1.038.899 1.297 1.482s.251 1.404.185 1.852-.335.53-.556.648-.372.259-.648 0-.442-.95-.833-1.389-.963-.92-1.482-1.204-1.19-.446-1.574-.463-.484.065-.556.37.14.633.186 1.205c.127 1.576.134 2.595-.463 4.074-.294.728-.803 1.667-1.204 2.5-.463.865-.988 1.79-1.39 2.593s-.74 1.62-1.018 2.222-.416.986-.648 1.39-.313.994-.74 1.018-.627-.39-.927-.926-.632-1.62-.833-2.222-.247-.926-.37-1.39l-.278-1.574c-1.314-.105-1.591 1.2-1.667 3.334-.031.867.062 1.852.092 2.778.37.803.662 1.633 1.112 2.408s1.202 1.602 1.574 2.222.477.75.648 1.482.324 1.972.37 2.87-.139 1.694-.092 2.5c.049.853.025 2.477.926 2.871 1.105.483 2.03-.647 2.685-1.482.516-.657.97-1.586 1.297-2.315 1.453-3.254 2.907-6.314 5.093-9.167 2.466-3.22 5.283-5.31 8.148-8.056 1.115-1.068 1.757-1.895 2.408-2.778.744-1.01 1.95-2.67 2.5-3.797.76-1.557 1.301-3.596 1.76-5.278.231-.85.37-1.667.555-2.5z" class="fil1"/><path id="_162717192" d="M114.56 155.68c-.047-.827.025-1.6-.142-2.481s-.263-1.722-.85-2.766-1.397-2.224-2.624-3.403-3.332-2.611-4.68-3.616-2.295-1.374-3.403-2.41-2.29-2.586-3.19-3.758-1.598-2.554-2.198-3.261-.881-.784-1.347-.922-.953-.013-1.276.142-.364.347-.497.709-.271.809-.283 1.418-.006 1.53.213 2.198.529 1.048 1.063 1.701 1.308 1.51 2.127 2.198 1.796 1.264 2.765 1.914 1.997 1.288 3.049 1.986 2.244 1.453 3.261 2.198 2.111 1.58 2.836 2.268 1.185 1.272 1.49 1.844.164 1.027.283 1.489.153.905.425 1.276.756.567 1.135.85l1.063.426.425.07z" class="fil1"/><path id="_162716808" d="M111.58 131.86c.567.142 1.202.354 1.702.425s.703.108 1.276 0c1.262-.236 2.545-.775 3.757-1.205.568-.2.967-.554 1.773-.638s2.135-.039 2.978.142 1.596.646 1.985.921c.863.612 1.112-.646 2.552-.425.647.1 1.472.434 1.986.922s.73 1.232.921 1.843.249 1.115.213 1.773-.283 1.558-.425 2.127-.39.896-.426 1.276.026.734.213.922.416.111.638-.071.47-.603.567-.922-.084-.538 0-.922.14-.977.497-1.347 1.115-.373 1.488-.709.541-.596.639-1.205-.107-1.616-.071-2.34-.101-1.382.283-1.985 1.068-1.192 1.844-1.347 1.635-.088 2.41.496 1.502 1.747 1.915 2.765c.783 1.936.753 5.065.992 7.161.154 1.347.486 2.935.426 4.112-.12 2.335-1.575 6.338-2.553 8.367-.602 1.25-2.907 4.092-3.9 5.104-.606.62-1.08.764-1.701.922-1.748.445-4.844.237-6.665.284-.023-.638-.166-1.186-.07-1.915.331-2.53 1.346-4.01-.426-6.522-.517-.734-1.417-1.347-2.056-2.057s-1.276-1.523-1.772-2.197-.895-1.126-1.206-1.844-.375-1.754-.638-2.41-.332-1.023-.922-1.49-1.63-.803-2.481-1.205c-1.728-.815-3.222-1.378-4.609-2.765-.49-.49-.707-.954-.921-1.347s-.237-.661-.355-.992z" class="fil1"/><path id="_162714032" d="M156.95 151.29c-.678.49-2.338 1.134-3.403 1.56s-2.043.732-2.978.992-1.846.508-2.623.568-1.385-.045-1.986-.213-1.176-.332-1.56-.78-.567-1.013-.567-1.702.32-1.358.568-2.268.72-2.075.921-3.19.308-2.252.284-3.475-.175-2.743-.425-3.829-.71-1.713-1.064-2.623-.825-1.872-1.063-2.836-.379-2.09-.355-2.907.098-1.19.496-1.914 1.265-1.572 1.844-2.34 1.169-1.534 1.63-2.269.872-1.398 1.135-2.127.366-1.437.425-2.197c.118-1.507-.237-2.889.213-4.396.203-.681.614-1.324.922-1.985l1.843-1.844c.284.45.543.78.85 1.347s.697 1.262.993 2.056.626 1.683.78 2.694.202 2.322.142 3.333-.343 1.879-.496 2.694c-.348 1.846-.822 3.722-.922 5.601-.134 2.535-.067 4.648.78 7.02.355.993 1.064 2.622 1.418 3.544s.648 1.336.71 1.985c.115 1.231-.276 1.997 0 3.404.331 1.697.797 1.666 1.488 3.048.28.56.425 1.315.425 1.844s.253.715-.425 1.205" class="fil1"/><path id="_162741456" d="M143.48 124.84c.425-.473.874-.992 1.276-1.418s.867-.709 1.135-1.134.33-.932.425-1.347.243-.845.142-1.135-.382-.247-.638-.283-.574-.068-.851.07-.494.398-.71.71-.412.657-.566 1.134-.237 1.134-.355 1.701l-.07 1.915z" class="fil1"/><path id="_162740480" d="M128.95 117.25c1.919-1.787 6.451-3.328 9.004-3.049.778.085 1.234.312 1.631.71s.494.967.567 1.488.087.888-.142 1.56-.727 1.718-1.205 2.41c-.75 1.09-2.248 2.5-3.332 3.262-.562.394-1.195.68-1.63.78s-.604.022-.852-.213-.423-.685-.496-1.063c-.21-1.088.3-1.469-.85-2.41-.404-.331-.993-.462-1.419-.639s-.835-.27-1.134-.425-.52-.234-.638-.497-.085-.594 0-.921.14-.661.496-.993" class="fil1"/><path id="_162739664" d="M154.9 113c0-.59.024-1.264 0-1.772s-.046-.895-.142-1.277-.307-.673-.425-.992-.2-.531-.284-.922-.345-1.049-.212-1.418.427-.419.85-.354.997.336 1.49.708 1.057.949 1.417 1.49.735 1.045.71 1.701-.568 1.276-.852 1.914l-1.63.993z" class="fil1"/><path id="_162774944" d="M95.164 126.17c-.03-.365.019-.643-.182-1.09s-.45-.936-1-1.546-1.575-1.424-2.272-2.09-1.39-1.481-1.91-1.91-.796-.556-1.18-.636-.784-.094-1 .182c-.202.256-.007 1.93.09 2.272.123.431.29.97.637 1.364s.893.59 1.363.909.938.59 1.454 1 1.196.998 1.637 1.454.666.849 1 1.273l.454.727c.219-.025.477.086.656-.075s.21-.433.253-.743.03-.726 0-1.091" class="fil1"/><path id="_162774560" d="M123.56 128.75c-.17-.546-.161-1.162-.512-1.638s-.92-.742-1.485-1.076-1.227-.648-1.894-.921-1.51-.504-2.1-.717-1.052-.347-1.433-.563-.647-.427-.82-.717-.29-.6-.153-.922.4-.623.87-.768 1.22-.174 1.793-.05.997.703 1.536.767 1.128-.111 1.484-.41.52-.59.41-1.177-.38-1.42-1.024-2.1-1.9-1.436-2.714-1.842-1.206-.443-2.099-.564-2.114.062-3.225-.153-2.296-.777-3.38-1.127-2.153-.56-3.123-.972-1.851-1.016-2.662-1.485-1.416-1.003-2.202-1.331-1.783-.892-2.457-.615-.544 1.012-.41 1.792.666 1.891 1.178 2.663 1.295 1.253 1.843 1.894 1.213 1.422 1.433 1.946-.04.74-.204.972-.227.265-.666.256-1.414-.417-1.894-.307-.564.465-.564.87-.07.594.564 1.28 1.91 2.012 3.174 2.765 2.632 1.194 4.3 1.69 3.942.939 5.684 1.28 3.36.597 4.762.768 2.763.162 3.635.256 1.058.205 1.587.307z" class="fil1"/><path id="_162729848" d="M117.37 114.22c.573-.254.936-.45 1.106-1.014s-.013-1.33-.184-2.029c-.31-1.27-1.114-3.229-1.936-4.24-.54-.665-1.223-1.241-2.075-1.799s-2.012-1.075-2.996-1.521c-1.99-.902-3.967-1.55-6.131-1.89-1.363-.214-3.691-.559-4.518.83-.65 1.092-.72 2.142-.323 3.365.297.915 1.455 2.318 2.075 3.043a14.4 14.4 0 0 0 1.751 1.751c1.562 1.296 3.283 2.205 5.164 2.95 1.978.785 3.708 1.144 5.854 1.015.898-.054 1.64-.206 2.213-.461" class="fil1"/><path id="_162729464" d="M193.19 19.656c-.168-.139-.633-.476-.957-.62s-.653-.265-.957-.225-.518.197-.732.45-.338.63-.507 1.014-.31.788-.506 1.295-.47 1.22-.676 1.745-.375.995-.563 1.408-.403.712-.563 1.07-.31.73-.394 1.07-.132.721-.113.956-.017.35.225.395.646.015 1.014-.17.72-.495 1.126-.9.946-1.04 1.295-1.52.599-.916.788-1.351.235-.798.338-1.239.225-1.05.281-1.407-.056-.518.057-.732.418-.267.563-.45.233-.487.281-.62.168-.03 0-.169" class="fil1"/><path id="_162742048" d="M198.54 18.417c-.285-.223-.993-.281-1.407-.281s-.677.089-1.014.281-.638.554-.957.845-.746.622-.957.9-.225.438-.282.732c-.122.635-.05 1.112-.281 1.746-.15.413-.404 1.07-.676 1.745s-.666 1.557-.957 2.308-.619 1.64-.788 2.196-.245.783-.225 1.126.112.629.338.844.512.319.9.338.935-.102 1.352-.225.79-.171 1.126-.507.57-.84.788-1.407.319-1.314.507-1.97.478-1.378.619-1.971.197-1.021.225-1.577-.085-1.291-.056-1.745.022-.609.225-.957.722-.788.957-1.07.354-.387.45-.62.399-.508.113-.731" class="fil1"/><path id="_162741888" d="M203.94 19.261c-.281-.094-.524-.14-.844-.281s-.768-.44-1.07-.564-.503-.188-.732-.168-.334.08-.563.281-.58.588-.788.9-.338.628-.45.958-.16.685-.226 1.013c-.16.802-.33 1.228-.675 1.97-.188.404-.423.91-.62 1.408s-.347.995-.563 1.577-.544 1.322-.732 1.914-.318 1.133-.394 1.633-.094.98-.056 1.35.014.632.281.845.61.282 1.126.282 1.35.087 1.915-.282.904-1.075 1.182-1.745.29-1.407.45-2.196.394-1.857.507-2.533c.18-1.086.208-1.838.676-2.871.225-.499.628-1.23.844-1.633s.3-.525.45-.788z" class="fil1"/><path id="_162848704" d="M213.12 22.245c-.394-.197-1.163-.572-1.802-.844s-1.426-.554-2.026-.789-1.067-.532-1.577-.619-1.023-.025-1.407.113-.594.383-.789.675-.271.644-.337 1.014-.057.844-.057 1.182.146.556.057.844-.281.3-.563.789-.713 1.444-1.126 2.139-1.021 1.413-1.351 2.027-.488 1.18-.62 1.633-.16.728-.169 1.07-.025.66.113.956.271.667.675.732.953-.048 1.408-.394.684-.994 1.182-1.576 1.342-1.408 1.802-1.914.788-.789.957-1.126.019-.46 0-.789-.075-.788-.113-1.182l.057-.676c.3.207.534.348.9.62s.802.738 1.295 1.013 1.051.515 1.633.62 1.281.105 1.802 0 .904-.371 1.238-.62.506-.534.732-.844.393-.72.62-1.014.49-.568.731-.732.467-.258.676-.225.288.211.394.394.256.42.225.676c-.077.644-.804.989-1.07 1.52-.172.346-.3.744-.337 1.239s-.079 1.048.112 1.689c.917 3.072 3.163 5.964 4.336 9.008.956 2.482 1.16 4.282 1.294 6.98.121 2.42.781 4.433 1.858 6.588.283.565.55.683.676 1.013s.14.651.056.901-.17.361-.506.45-.89-.01-1.408.057-1.155.128-1.689.337c-2.174.854-3.895 3.353-4.11 5.63-.066.698-.056 1.35 0 2.252.186 2.984 1.05 5.151 2.871 7.488.566.726.973 1.16 1.69 1.746 2.384 1.944 3.787 2.086 6.755 2.364.608.057.958.129 1.352.394s.733.722.9 1.126.134.804.057 1.183-.073.668-.507 1.013-1.234.702-1.97.957-1.572.46-2.421.563-1.723.122-2.646.056-1.937-.195-2.872-.45-1.892-.665-2.702-1.07-1.482-.91-2.14-1.35-1.273-.975-1.801-1.296-.9-.413-1.351-.619l-1.239-.113c-.037.282-.18.441-.113.845s.15.785.507 1.52c.9 1.845 1.903 3.412 3.378 4.842.603.583 1.216 1.104 1.858 1.52s1.178.757 1.97.957 1.86.311 2.703.225 1.643-.437 2.252-.732.995-.741 1.351-1.013.452-.608.788-.62.368.401.845.564c1.334.453 2.948.56 4.335.337.775-.124 2.666-.692 3.209-1.295.368-.408.654-1.007.732-1.632s-.13-1.376-.282-1.97c-.489-1.928-.718-3.19-.788-5.293-.107-3.228.19-6.151.338-9.346.066-1.428.047-2.884-.056-3.94s-.318-1.64-.563-2.365-.62-1.342-.901-1.97-.478-1.21-.788-1.802c-.631-1.205-1.402-2.327-2.027-3.547-.404-.789-.985-2.045-1.464-2.928a61 61 0 0 1-2.759-5.743c-.394-.938-.685-1.491-1.013-2.252s-.638-1.548-.957-2.308-.62-1.35-.957-2.252-.77-2.261-1.07-3.153c-.81-2.404-1.108-5.496-2.027-7.713-.167-.402-.406-.676-.788-.9s-.984-.31-1.407-.395-.721-.112-1.126-.112-.9.112-1.295.112-.792-.036-1.07-.112-.169-.14-.563-.338" class="fil1"/><path id="_162848336" d="M215.21 35.89c.38.2.736.238 1.142.598s.904.975 1.252 1.524c.577.911 1.242 2.304 1.632 3.318.227.592.398 1.314.544 1.958s.235 1.27.326 1.904c.16 1.122.313 2.292.272 3.428-.025.689-.057 2.02-.653 2.502a.82.82 0 0 1-.925.109c-.78-.368-1.29-1.569-1.523-2.34-.4-1.327-.312-2.767-.435-4.134-.082-.907-.2-1.922-.326-2.829s-.272-1.821-.436-2.61a17 17 0 0 0-.87-2.938z" class="fil1"/><path id="_162863840" d="M204.37 79.723c.068.476.028 1.005.204 1.428s.15.652.816 1.02 2.226.519 3.06 1.122c1.27.92 2.383 2.604 1.428 4.08-.395.61-1.027 1.296-1.938 1.734s-1.947.799-3.366.816-3.303-.252-4.998-.714-3.433-1.428-5.1-2.04-3.366-1.122-4.896-1.632-3.215-.91-4.284-1.428c-1.317-.637-2.829-1.732-2.04-3.366.499-1.033 2.83-2.163 3.876-2.346 1.75-.307 4.91-.132 6.732 0 3.024.219 5.957 1.175 8.976 1.53z" class="fil1"/><path id="_162863704" d="M205.39 69.013c.12.463.44.89.51 1.224s.14.453-.102.714c-1.1 1.185-2.843.699-4.284.51-2.157-.283-3.797-.946-5.814-1.632-1.837-.625-3.976-1.262-5.916-1.326-1.05-.034-1.664.17-2.754.408-2.126.465-4.182 1.222-6.324 1.632-1.49.285-3.076.443-4.59.51-1.258.056-2.725.128-3.978 0-.666-.068-1.786-.198-2.244-.408s-.38-.381-.204-.714.503-.659 1.122-1.02 1.608-.848 2.55-1.122c1.732-.504 4.212-.907 6.018-1.02 5.548-.346 5.593-2.134 9.282-5.406.906-.803 1.8-1.504 2.754-1.938s1.822-.578 2.856-.612 2.1.117 3.264.408 2.611.813 3.672 1.326 2.015 1.2 2.652 1.734.892.524 1.122 1.428c.436 1.709-.04 3.577.408 5.304" class="fil1"/><path id="_162863320" d="M182.88 62.33c-.568.493-.83.907-1.705 1.478s-2.457 1.475-3.525 1.933-1.952.719-2.843.796c-2.397.208-3.32-1.042-5.002-2.388-.385-.307-.796-.816-1.251-.682s-.472.562-.682 1.25-.122 1.891-.569 2.843-1.226 1.87-2.046 2.729-1.742 1.59-2.843 2.388-2.727 1.799-3.752 2.387-1.648.815-2.388 1.137-1.537.463-2.046.796-.75.798-.91 1.137-.377.662 0 .796c1.026.366 2.952-.832 3.98-1.023.588-.11 4.252-.504 4.206 0-.072.793-.16.92-1.933 2.388s-6.133 4.733-8.64 6.367-4.18 2.478-6.368 3.41c-3.904 1.664-7.57 2.736-11.825 2.161-2.508-.339-4.434-1.743-6.253-3.41-.688-.63-.938-.98-1.137-1.479s-.251-.905 0-1.364.688-.81 1.364-1.137 1.592-.474 2.615-.796 2.693-.731 3.525-1.137 1.183-.753 1.364-1.251-.044-.881-.455-1.25-1.095-.699-1.819-.797-1.762.152-2.388.228-1.018.32-1.364.227-.386-.41-.341-.682.143-.412.568-.682 1.289-.588 1.933-.91c2.175-1.087 2.895-1.376 1.933-3.98-.322-.872-.812-2.268-1.364-3.297s-1.247-2.023-1.933-2.842c-1.343-1.604-2.582-2.415-4.548-3.07-.686-.228-1.235-.125-1.706-.341s-.819-.48-1.023-.91-.301-.998-.114-1.478.514-.806 1.137-1.137 1.436-.586 2.502-.796 2.406-.322 3.866-.454 3.409-.304 4.889-.342 2.572-.057 3.98.114 3.122.549 4.434.91 2.517.984 3.41 1.25 1.131.323 1.933.342c2.98.07 3.688-1.106 6.254-2.16 1.392-.573 3.25-1.174 4.89-1.479s3.366-.36 4.888-.341 2.67.19 4.207.455 3.198.567 5.003 1.137 4.407 1.836 5.799 2.274 1.667.227 2.501.34z" class="fil1"/><path id="_162862936" d="M103.33 7.678c-.49-.049-.87.215-1.265.633s-.716 1.306-1.012 1.77-.567.65-.759 1.013-.148.527-.38 1.138-.652 1.77-1.011 2.53-.746 1.566-1.139 2.024-.82.421-1.138.633c-.674.449-1.247 1.434-.886 2.277.137.32.602.356.759.759s.31 1.013.127 1.518-.579.899-.9 1.411-.651 1.108-.946 1.76c-.511 1.134-1.12 2.085-1.823 3.154-.207.315-.171.617-.126.885.119.717.947.696 1.602.655.65-.04 1.183-.475 1.813-.655.303-.086.53-.09.759 0 .388.155.562.733 1.012.886 1.946.662 1.675-.526 1.926-.772.223-.218.468-.154.617.069s.076.837-.013 1.082-.158.517-.506.633-.903.064-1.391 0-1.075-.295-1.518-.38-.841-.225-1.139-.126c-.324.108-.563 1.08-.632 1.391-.085.38-.232 1.113-.253 1.518-.016.304-.007 1.053.379 1.139.202.045.527 0 .886 0s.926-.021 1.265 0 .505.105.759.126.438.064.759 0 .716-.45 1.138-.38.857.479 1.139.76.481.594.506.885-.115.512-.38.633-.69.064-1.012 0-.48-.294-.885-.38-.947-.02-1.518-.126-1.337-.463-1.898-.506-1.062.121-1.391.253-.456.279-.506.506c-.12.537.417 1.114.885 1.138.408.022 1.244-.105 1.645-.126s.459-.064.759 0 .728.183 1.012.38.669.463.632.758c-.023.182-2.816 1.77-3.414 2.684-.595.908-.772 1.674-.128 3.388.64 1.704 2.57 1.679 4.301 1.139 1.055-.33 1.916-.871 2.91-1.012 1.44-.205 3.35-.26 4.807-.38 1.033-.084 1.986.14 2.783-.126 1.09-.364 2.529-1.954 2.909-3.036.775-2.207.35-3.445-.126-5.566-.19-.844-.422-1.746-.506-2.53-.109-1-.31-2.948.759-3.542.624-.347 1.828-.251 2.656-.506s1.558-.632 2.277-1.012 1.494-.862 2.024-1.265.876-.68 1.139-1.139.401-1.069.379-1.518-.309-.77-.506-1.012-.457-.182-.632-.38-.426-.365-.38-.758.422-.907.633-1.392c.543-1.249.856-2.131.759-3.542-.043-.617.024-1.105-.38-1.644s-1.196-1.009-1.897-1.392c-1.746-.952-3.96-1.546-5.82-2.277l-6.451-2.024c-.817-.334-3.393-1.958-4.048-2.024" class="fil1"/><path id="_162864264" d="m123.7 29.251-1.548.344c-.862.192-1.938.245-2.752.516-.803.268-3.494 1.387-3.784 2.064-.143.335-.251.674-.28 1.39-.066 1.655.13 3.215-.064 4.888-.072.617-.157 1.274-.258 1.72s-.172.558-.344.946c-.367.827-.715 1.16-.602 2.064.373-.029.683.03 1.118-.086s.93-.344 1.462-.602 1.231-.63 1.72-.946.95-.648 1.204-.946c.41-.482.467-1.8.602-2.408.115-.516.056-.77.344-1.462s.946-1.849 1.376-2.666.958-1.642 1.204-2.236c.31-.75.387-1.772.602-2.58" class="fil1"/><path id="_162862616" d="M125.73 27.46c.986-.401 1.256-1.857 2.178-2.306.812-.395 2.044.2 2.519.897.771 1.132.95 2.175.683 3.544-.21 1.078-1.3 2.538-2.306 3.074-.537.287-1.254.18-1.836.3-.315.064-.5.138-.683.255-.38.244-.585.757-.598 1.196-.007.257.04.533.171.726s.302.29.555.342c.43.088 1.329-.025 1.708-.257.675-.411 1.553-1.353 2.05-1.964.371-.457.81-1.079 1.11-1.622s.532-1.077.683-1.623c.385-1.394.442-3.432-.213-4.782-.249-.511-.67-.928-1.025-1.239-.656-.575-1.329-.727-2.178-.64-.637.065-1.195.312-1.708.683-.467.337-1.006.784-1.366 1.238-.316.399-.616.941-.683 1.452a.9.9 0 0 0 .085.513c.132.28.596.318.854.213" class="fil1"/><path id="_162862232" d="M117.38 49.692c-.26-.148-.466-.497-.64-.838-.289-.562-.627-1.63-.543-2.268.043-.326.139-.577.394-.789s.69-.279 1.036-.394c.88-.293 1-.475 1.725-.937.275-.175.689-.343.937-.394s.373-.091.493.098.107.524.098.838c-.03 1.159-.589 1.875-1.232 2.81a7.4 7.4 0 0 1-.641.79c-.117.125-.814.998-.888 1.035-.186.093-.48.197-.739.049" class="fil1"/><path id="_162861848" d="M116.4 57.83c-.322-.225-.731-.409-.965-.675s-.336-.553-.386-.869c-.066-.421.066-1.32.386-1.64.188-.189.519-.527.772-.387.385.214-.058 1.586-.096 1.93-.033.291 0 .45 0 .676z" class="fil1"/><path id="_162861464" d="M113.12 58.409c0-1.315-.475-2.092-1.544-2.991-.308-.26-.666-.654-1.158-.773-.654-.157-1.983-.006-2.509.483-.237.22-.43.559-.482.869s-.04.617.192.868c.653.702 1.454.33 2.22.482.86.172 1.593.535 2.509.676z" class="fil1"/><path id="_162938752" d="M131.87 35.5c-.424.375-.873.723-1.273 1.124-.86.859-1.608 1.832-2.472 2.696-.574.574-1.419 1.18-2.097 2.022s-1.409 1.994-1.948 2.996-.885 1.896-1.273 2.996-.749 2.434-1.049 3.595-.486 2.272-.748 3.37-.612 2.447-.824 3.222-.271 1.066-.45 1.423c-.291.583-.79 1.084-1.67 1.231-.395.066-.96-.138-1.25.042s-.435.441-.375.749c.115.595.781 1.273 1.662 1.266 1.91-.015 2.303-1.247 2.981-2.989.29-.742.874-1.883 1.424-2.846s1.198-1.922 1.872-2.921 1.548-2.172 2.172-3.07 1.136-1.623 1.573-2.323.711-1.172 1.049-1.872.661-1.536.973-2.322.624-1.535.9-2.397c.668-2.097.772-3.809.823-5.992" class="fil1"/><path id="_162949712" d="M133.22 43.426c-1.186 1.369-1.946 2.397-2.71 4.064-.373.816-.793 1.714-1.06 2.592s-.45 1.722-.53 2.65c-.12 1.405.156 3.392 1.05 4.535.737.943 1.706 1.066 2.837.848.566-.109 1.175-.566 1.626-.743.675-.264 1.795-.343 2.498-.163.96.245 1.893.788 2.886 1.06.609.167 1.616.48 2.12.53s.71-.104.589-.402c-.675-1.647-2.248-2.252-3.182-2.992-1.678-1.329-4.148-3.45-4.97-5.44-.543-1.311-.272-3.422-.684-4.877z" class="fil1"/><path id="_162949328" d="M102.96 26.316c-.07.199-.235.283-.428.306s-.38-.003-.612-.184-.445-.618-.735-.856-.662-.347-.979-.551-.686-.4-.918-.673-.335-.598-.428-.918-.018-.677-.123-.98-.305-.559-.49-.795-.455-.361-.611-.612-.275-.563-.306-.857.015-.62.122-.857.326-.326.49-.49.311-.374.49-.489.334-.23.55-.184.427.265.612.429c.532.473.435.61 1.224.673.256.02.484.073.796 0 1.05-.245 2.247-.897 3.311-.802.47.041.868.056 1.34.251s.897.47 1.346.735.998.59 1.347.856c.594.455 1.17.945 1.774 1.408.307.235.608.484.796.734s.254.496.306.735.096.494 0 .673-.178.256-.49.245-.907-.225-1.285-.306-.642-.112-.979-.184-.654-.245-1.04-.245-.927.118-1.224.245c-1.085.465-1.101.758-2.387.796-.347.01-.711.01-.98.061s-.462.138-.611.245-.203.145-.245.367.133.198.306.49.131.536.061.734" class="fil0"/><path id="_162948576" d="M108.52 22.553c-.331-.74-.406-.993-.83-1.555s-1.146-.934-1.728-1.087-1.23-.23-1.707-.023-.842.407-.977.742-.064.66.202.898.795.135 1.325.11c1.84-.086 2.14.155 3.715.915" class="fil1"/><path id="_162948192" d="M61.237 21.756c-.276-.445.074-1.257.327-1.562.292-.35.911-1.012 1.389-1.08.42-.06 1.515.397 1.682.785.103.242.225.314.149.57-.187.622-1.018.925-1.741 1.214-.706.282-1.653.216-1.806.073" class="fil1"/><path id="_162950088" d="M65.731 7.922c-.162.12-.249.397-.297.598a95 95 0 0 0-1.733 9.078c-.074.525.596 1.218 1.046 1.45 1.13.58 2.176.077 2.432-1.278.584-3.09.412-4.502.39-6.768-.009-.866.097-1.938-.369-2.753-.158-.277-.476-.426-.797-.461-.213-.024-.51.015-.672.134" class="fil1"/><path id="_162948032" d="m145.54 110.24-.284-.993-.212-1.276-.284-.992c-.213.118-.438.054-.638.354s-.196.878-.496 1.347-.73.954-1.277 1.418c-1.35 1.145-2.806 1.829-4.537 2.198-1.688.36-3.66.399-5.389.426-.768.011-1.402.074-1.985-.071-1.216-.304-1.85-1.075-2.127-2.27-.156-.671-.165-1.772-.212-2.48-.095-1.425.165-1.925-1.064-2.908-.361-.288-.895-.274-1.134-.567s-.31-.581-.142-.992.508-.878 1.063-1.277c2.303-1.652 5.94-1.993 8.721-2.41 1.182-.177 2.539-.402 3.829-.496s2.77.06 3.9-.071 1.975-.206 2.835-.71 1.43-1.405 2.127-2.197c1.322-1.501 2.428-3.392 4.041-4.609 1.608-1.212 3.26-1.54 5.247-1.418.966.06 2.125.378 2.836.567s.979.555 1.418.568.7.014.993-.497.37-1.779.638-2.34.355-.907.922-.921 1.208.205 1.914.85 1.615 1.932 2.198 2.908c1.007 1.685 1.676 3.714 1.843 5.672.083.975-.047 2.032-.07 3.048-.355 1.324-.67 2.967-1.064 3.97-.53 1.347-1.842 2.86-2.836 3.9a10 10 0 0 1-1.49 1.276c-1.552 1.088-2.762 1.118-4.253 0-.474-.355-1.099-.874-1.63-1.347s-1.04-.992-1.56-1.489-.963-1.07-1.56-1.489-1.37-.811-1.986-.992-1.059-.3-1.63-.071-1.074.85-1.56 1.347c-1.32 1.352-2.461 2.933-3.829 4.254-.344.332-.705.577-.921.71s-.237.046-.355.07" class="fil1"/><path id="_163012432" d="M117.46 104.17c.199-.04.8.086 1.06-.184s.247-.773.23-1.153c-.044-1.076-1.038-2.651-1.613-3.503-.937-1.39-2.699-2.93-4.103-3.78-1.774-1.077-3.642-1.353-5.67-1.43-1.106-.042-2.33-.105-3.227.646-1.39 1.162-3.298 4.052-.83 5.024.513.202.929.338 2.029.554s3.223.358 4.564.737 2.427 1.076 3.411 1.522c1.515.686 2.683 1.166 4.287 1.567.32.08-.337.04-.138 0" class="fil1"/><path id="_163011568" d="M75.126 109.03c.139-.572.269-1.161.416-1.716.32-1.205.474-1.572 1.248-2.496.269-.32.99-.564.832-1.04-.265-.797-2.561-1.145-3.276-1.196-.492-.035-.811.016-1.092.156s-.386.305-.468.624c-.154.6-.056 2.029.156 2.6.203.548.693 1.213 1.04 1.82l.78 1.196z" class="fil1"/><path id="_163011184" d="M83.55 103.31c.679.113 1.48-.738 1.352-1.404-.058-.298-.271-.69-.572-.936s-.682-.337-1.144-.468c-1.482-.42-1.582-.256-2.704-1.404-.373-.381-.734-.973-1.144-1.196s-.857-.235-1.144-.052c-.944.604.709 3.043 1.196 3.484.767.694 2.105 1.279 3.068 1.664.435.174.777.26 1.092.312" class="fil1"/><path id="_163023536" d="M83.416 98.813c0-.52.095-1.031 0-1.559-.262-1.452-.504-2.188-.52-3.767-.007-.722.002-1.6-.086-2.122s-.074-.805-.433-.952-.786-.066-1.256.26-1.05 1.04-1.429 1.602-.71 1.191-.823 1.732.001.966.174 1.385c.415 1.012 1.812 1.933 2.598 2.642l1.082.562z" class="fil1"/><path id="_163023152" d="M92.558 92.322c.238-.123.381-.235.46-.712s.136-1.37 0-2.053-.26-1.256-.795-1.97-1.506-1.627-2.347-2.22-1.819-.977-2.64-1.3-1.706-.57-2.262-.628-.743.113-.964.294-.188.455-.21.67c-.076.768.577 1.023 1.09 1.508.517.49 1.446 1.376 2.095 2.011s1.285 1.243 1.802 1.802.925 1.19 1.299 1.55c.417.402 1.949 1.319 2.472 1.048" class="fil1"/><path id="_163022024" d="M74.298 94.365c.537-.553 1.168-1.086 1.61-1.66 1.021-1.322 1.32-2.371 1.123-4.05-.258-2.182-.965-3.777-2.196-5.563-.579-.84-1.334-1.675-2.001-2.537-1.464-1.893-2.8-3.74-4.636-5.32-.76-.654-1.282-.955-1.903-1.22-1.083-.462-2.114-.564-2.977.342-.661.694-1 1.89-.878 2.83.197 1.536 1.07 3.183 2 4.392.631.82 1.627 1.74 2.343 2.44s1.186 1.146 1.952 1.757c1.775 1.417 3.097 2.071 4.245 4.148.386.698.512 1.3.684 1.903s.227 1.14.341 1.708l-.146.781z" class="fil1"/><path id="_163035928" d="M57.967 70.411c-.763 0-1.31.114-2.365.153s-2.255-.103-3.129 0-1.398.42-2.06.61-1.304.278-1.907.534-1.24.63-1.679.992-.805.83-.915 1.145-.077.25.381.381 1.343.343 2.29.382 2.389-.064 3.356-.153 1.653-.242 2.442-.382 1.66-.123 2.289-.457.865-.967 1.297-1.45l.076-1.984z" class="fil1"/><path id="_163024488" d="M38.892 58.432c-.254.229-.407.382-.763.687s-.745.772-1.373 1.144-1.525.75-2.366 1.068-1.907.61-2.67.84-1.36.343-1.908.534-1.044.373-1.373.61-.453.479-.534.763-.113.592.076.84.327.405.916.457 1.585 0 2.518-.152 2.06-.522 3.052-.763 1.974-.597 2.899-.687 1.747-.014 2.594.153 1.434.597 2.442.839 2.156.521 3.586.61 3.697.091 4.96-.076 1.754-.649 2.517-.916 1.608-.385 2.06-.686.641-.593.458-.992-.547-.594-1.297-.84-2.046-.445-3.128-.61-2.251-.254-3.357-.381-2.376-.216-3.281-.382-1.437-.381-2.137-.61-1.373-.509-2.06-.763z" class="fil1"/><path id="_163024136" d="M11.5 53.93c-.344-.013-1.011-.204-1.373-.153-.644.092-1.316.723-.992 1.45.114.257.378.49.686.61.868.34 2.775.7 3.74.916.74.166 1.917.369 2.899.458s1.982.102 2.975.076 2.043-.063 2.976-.229 1.79-.457 2.594-.763 1.27-.52 2.213-1.068 2.581-1.477 3.433-2.213 1.24-1.464 1.603-2.136.507-1.3.534-1.831-.019-.969-.382-1.221-.89-.025-1.373 0-1.01.01-1.526.153-.877.33-1.526.686-1.64.953-2.366 1.45-1.258 1.03-1.983 1.526-1.69 1.093-2.366 1.45-1.075.533-1.678.686-1.234.166-1.908.23-1.474.14-2.136.152-1.31-.051-1.831-.076-.929-.051-1.297-.077-.572-.063-.916-.076" class="fil1"/><path id="_163023784" d="M59.121 5.691c.644 2.137.121 5.22 0 7.403-.049.876-.097 1.882-.097 2.63s-.019 1.321.097 1.85.202.975.584 1.266c.883.673 2.536.27 2.825-.876.667-2.65.981-6.51 1.266-9.74.073-.822-.253-1.608-.487-2.143s-.466-.752-.876-.974-1.08-.276-1.461-.292c-.534-.023-1.357.272-1.921.347z" class="fil1"/><path id="_163711056" d="M53.964 8.032c-.02 1.817-.56 5.598-.005 7.204.153.442.55.891.877 1.267s.647.815 1.071.974.895.43 1.266-.098.39-1.297.585-2.532.519-3.76.584-4.87c.066-1.118.33-4.422-.779-5.162-.523-.349-1.412-.439-2.338-.78s-2.04-.924-3.214-1.266-2.449-.584-3.798-.779-3.002-.325-4.286-.39-2.368-.065-3.409 0-1.992.194-2.825.39-1.555.278-2.142.78-.906 1.388-1.17 2.045-.052 1.244-.389 1.85c-.905 1.63-3.02 3.216-4.188 4.773-1.005 1.34-2.149 3.095-2.922 4.578-.599 1.148-.97 2.427-1.558 3.604l-.098.876c.455-.097.581.257 1.364-.292s2.077-1.818 3.214-2.922c2.49-2.419 4.623-4.67 6.234-7.792.525-1.018.454-1.206.487-1.948s-.343-1.796-.293-2.435.238-1.016.585-1.266.668-.393 1.169 0 1.07 1.556 1.558 2.142.825.94 1.364 1.364 1.23.904 1.85 1.169c1.646.702 3.03.41 4.223.582.484.07.323.627 1.456.756.404.046.907-.105.96.35s-.097.92-.113 1.72-.06 2.345.195 3.02.862.749 1.309.865.91.104 1.32-.183.39-.283.488-1.46.5-4.505.517-5.665c.022-1.51-.784-.65-.69-2.125.043-.693 1.07-.98 1.593-.719.27.135-.036.95-.052 2.375" class="fil1"/><path id="_163710704" d="M33.805 15.638c.358.8.771 1.541 1.075 2.398s.647 1.835.744 2.73.016 1.753-.165 2.563-.675 1.64-.91 2.233-.453.865-.496 1.323.062.937.248 1.323.653.417.827.91.221 1.272.166 1.902-.13 1.184-.497 1.82-1.143 1.267-1.654 1.902-1.07 1.244-1.406 1.902-.413 1.35-.578 1.985c-.697 2.67-1.815 3.483-4.714 4.217-1.641.416-4.693.856-6.285.166-1.738-.753-2.392-2.648-2.481-4.383-.146-2.808.377-6.29 1.736-8.767 1.67-3.045 4.607-5.381 7.195-7.608 1.185-1.02 2.575-2.052 3.556-2.977s1.544-1.71 2.316-2.564l1.075-.91z" class="fil1"/><path id="_163024832" d="M165 76.051c.659.047 1.547.051 2.754.204 1.418.18 3.13.777 4.488.816.614.018 1.17-.01 1.428-.408.534-.824-1.002-2.135-1.53-2.55-.973-.764-2.267-1.55-3.57-1.326-1.144.196-2.799 1.377-3.366 2.448-.156.295-.863.77-.204.816" class="fil1"/><path id="_27690512" d="M150.18 89.924c-.39.509-.62 1.04-1.167 1.527s-1.332.912-2.066 1.347-1.374.982-2.335 1.257-2.346.179-3.322.359-1.7.372-2.515.718-1.711.846-2.334 1.347c-1.842 1.483-1.674 2.038-4.49 2.425-2.632.362-5.356.03-7.993.449-2.83.449-2.96 1.832-4.22-1.347-.315-.795-.537-1.896-.898-2.694s-.785-1.517-1.257-2.065-.888-.934-1.527-1.168-1.347-.134-2.155-.18-1.9-.014-2.694-.09-1.577-.154-2.066-.358-.548-.469-.718-.809-.338-.826-.27-1.167.118-.443.63-.629 1.575-.16 2.334-.449 1.48-.598 2.155-1.257 1.344-1.775 1.796-2.604.596-1.745.898-2.335.515-.95.898-1.167.832-.522 1.168 0 .149 1.404.449 2.514.911 3.035 1.347 4.131.612 1.688 1.257 2.425 1.5 1.356 2.514 1.885 2.028.927 3.502 1.258 3.64.688 5.299.718 2.873-.284 4.58-.539 4.093-.582 5.657-.988 2.679-1.062 3.682-1.436 1.556-.54 2.334-.809z" class="fil1"/><path id="_27690464" d="M75.964 66.162c.21 1.158.487 2.3 1.247 3.742s1.917 3.214 3.274 4.833c2.619 3.122 6.02 6.285 9.51 8.418 1.88 1.149 4.452 2.514 6.548 3.274 3.572 1.295 8.148 1.871 11.848.78 2.965-.875 6.71-5.013 7.015-8.263.082-.876-.056-1.645-.623-2.183-1-.947-3.35-.286-4.365-1.403-.361-.397-.038-.655.467-.935 1.52-.844 4.284-.222 5.457-1.247 1.037-.908.76-4.453.312-5.613-.404-1.043-2.16-2.668-3.118-3.274-.486-.307-2.499-.507-2.183-1.559.128-.426.767-.414 1.247-.467.853-.095 1.595.15 2.495 0-.364-.468-.455-.926-1.092-1.404-2.286-1.714-4.464-2.447-7.199-2.91-2.42-.41-5.86-.58-8.143-1.535-3.287-1.375-5.967-2.74-8.978-4.597-6.277-3.87-11.063-6.945-18.756-6.808-2.371.042-5.38.892-7.591 1.82-.814.34-1.55.85-2.027 1.247s-.692.738-.78 1.09-.105.502.312.78 1.587.37 2.027.78.406 1.024.312 1.403-.17.523-.78.468-1.82-.27-2.65-.78-1.455-1.455-2.183-2.182-1.401-1.506-2.182-2.183c-1.534-1.33-3.678-3.142-5.457-4.053-2.382-1.222-6.193-1.57-8.73-.936-.843.21-2.026.495-2.65 1.092s-.752 1.492-.78 2.182.282 1.11.624 1.715c1.085 1.92 2.898 3.272 4.677 4.521 2.642 1.856 4.86 2.894 7.95 3.742 3.578.98 6.184 1.317 9.822 1.403 1.092.026 1.764.051 2.495.156s1.45.137 1.87.467.522.912.312 1.248-.585.16-1.091 0-1.19-.827-1.871-.936-1.465.098-2.027.312-1.037.516-1.247.935-.118.782.156 1.248.798.982 1.403 1.403 1.22.675 2.183 1.091c1.497.647 4.637 2.339 6.236 2.339.728 0 .967-.15 1.247-.936s.364-2.378.312-3.43-.39-1.947-.624-2.806-.406-1.698-.78-2.338-.987-.988-1.402-1.403-.701-.753-1.092-1.092-.954-.615-1.247-.935-.619-.595-.468-.936.43-.55 1.092-.467 1.626.358 2.65.935c6.737 3.8 5.85 7.779 7.015 14.187z" class="fil1"/></g></g></svg>