<svg xmlns="http://www.w3.org/2000/svg" xml:space="preserve" width="598" height="318"><path d="M282.39 288.834 21.12 288.5l-1.097-6.5-1.66-9.685-.561-3.185 4.349-1.087 5.824-1.908 1.476-.822 3.886-9.654 3.886-9.654 8.483-4.753 8.483-4.752-.406-30.713-.407-30.714-1.782-1.97-1.782-1.969.673-3.067.674-3.067 4.17-.023L121 163.5l64.75-1.477L189 162l.012-4.75.011-4.75 4.468-14.844 4.467-14.844 3.208-3.656 14.621-16.303 11.415-12.647 23.149-10.6 23.149-10.6 20.335 3.443 20.335 3.443 3.165 2.427L338 94.951l17.5 14.204 5.449-.61 5.645-.827.926-29.417.731-29.2-2.625-.659-2.626-.659V40l1.25.008 10.2 1.034 9.126 1.242.837 2.372.662 2.156-4.038.682-4.037.682V108h41V24.123l-4.5-.675-4.501-.812-1.486-8.567-1.1-8.816 3.105 3.181 2.72 3.566h8.331l1.79-3.03 1.79-3.03 4.81 3.53 5.975 3.53 4.086-1.51 2.92-1.51 1.647 2.513 1.647 2.514 5.817-3.198 5.817-3.198.998-2.056.999-2.055.067 9.222.068 9.222-5.75 1.639-6.402 2.278-.652.639-.722 40.75-.721 40.75h26.149l5.049 1.083 5.049 1.083v1.292l-.635 4.465-.634 3.174-4.116 2.074-4.391 2.311 1.25 16.894 1.526 18.14V161h61.279l-.631 5.25-.64 7.116-.008 1.867-6.5-.696-6.5-.696v33.827l31.963.962 31.962.962.583.582.582.583-1.15 4.566-1.15 4.565-7.32 5.734-7.32 5.734-5.225 21.072-5.226 21.072-3.342 6.71-3.341 6.709-4.177 1.124-4.178 1.125zM67.34 265.071l2.84-1.787-.188-.892-8.34-6.645-8.152-5.754-.632 2.754-.75 4.912-.118 2.159 6.25 3.52 6.25 3.52zM479.654 208H485v-4.343l-.654-16.5-.653-12.157H473v4.343l.654 16.5.653 12.157zm22.693 0H507v-33.841l-3.125-.686-3.125-.687-.86 1.357-.86 1.357-.02 5-.667 16.25-.649 11.25zm-270.344-51h17.003l-7.253-6.822-11.23-10.403-3.977-3.58-5.765 9.653-5.773 10.402-.008.75zm101.475-1h15.477l-5.61-8.75-5.786-8.976-9.868 7.771-9.691 7.997V156zm-57.104-10.007.875-.842-2.172-16.325-2.68-18.97-.51-2.644-12.443 4.12L247 116.098l5.546 7.525 14.25 15.044 8.704 8.167zM300.053 147l3.324-2.25 11.527-12.696 8.817-10.601-11.018-6.424-11.285-5.78-1.924 16.814-1.435 16.325.58 2.306.578 2.306zm155.583-9H463l-.009-1.75-.639-7-.63-5.25H447v2.36l.636 7 .636 4.64z" style="fill:#00a1e7"/></svg>