<svg xmlns="http://www.w3.org/2000/svg" xml:space="preserve" width="567" height="629"><path stroke="#FFF" stroke-linejoin="round" stroke-width="1.882" d="M449.34 410.285c4.441-1.838 11.846-2.522 12.414-7.695l3.337-30.385 2.408-21.918c.084-.769 22.28-.18 24.546-.18 10.366 0 10.744 24.543 12.052 31.336l11.707 60.822c1.165 6.05.961 7.12 5.854 11.034 3.985 3.188 10.711 1.474 10.617-4.077q-.391-23.083-.78-46.166l-1.113-65.835c-.135-8.015 2.597-25.472-3.833-31.621-9.188-8.789-32.221-2.696-43.03-1.562-9.623 1.01-19.246 3.02-28.869 4.03-8.383.879-7.269 3.131-10.377 11.501-4.138 11.138-1.752 26.031-.502 37.887q2.783 26.414 5.569 52.829z"/><path fill="#FFF" stroke="#000" stroke-linecap="round" stroke-linejoin="round" stroke-width="3" d="M20.781 622.785h468.887l13.582-20.682.209-36.358-39.283-77.312h-241.13V190.05h248.652l22.358-36.57V91.425L437.43 7.215H59.228L14.93 91.425v62.055l22.567 36.988v299.636L6.781 566.999l.209 36.145z"/><path fill="#281F1C" stroke="#000" stroke-linejoin="round" stroke-width="1.882" d="M89.317 417.595h84.208v90.897H89.317z"/><path fill="#FFF" stroke="#FFF" stroke-linejoin="round" stroke-width="1.882" d="M98.302 455.624h26.955v44.716H98.302z"/><path fill="#FA002A" stroke="#000" stroke-linejoin="round" stroke-width="1.882" d="M101.436 461.27h20.478v34.268h-20.478z"/><path fill="#FFF" stroke="#FFF" stroke-linejoin="round" stroke-width="1.882" d="M137.794 455.624h27.164v44.716h-27.164z"/><path fill="#008837" stroke="#000" stroke-linejoin="round" stroke-width="1.882" d="M141.346 461.688h20.896v34.268h-20.896z"/><path fill="#FFF" stroke="#FFF" stroke-linejoin="round" stroke-width="1.882" d="M98.72 424.912h66.865v26.533H98.72z"/><path fill="#A89187" stroke="#000" stroke-linejoin="round" stroke-width="1.882" d="M107.078 429.091h50.984v16.716h-50.984z"/><path fill="#281F1B" stroke="#000" stroke-linejoin="round" stroke-width="1.882" d="M111.048 429.714v14.209h21.171v-14.209z"/><path fill="#494949" stroke="#000" stroke-linejoin="round" stroke-width="1.882" d="M154.51 429.714h-22.291v14.209h22.291z"/><path fill="#FFF" stroke="#000" stroke-linecap="round" stroke-linejoin="round" stroke-width="3" d="m241.352 292.183 16.171 31.802v24.033l-10.448 156.713.627 5.851 2.09 6.687 3.761 5.637 5.432 6.064 7.105 5.432 11.283 6.269 15.463 5.433 18.388 4.802 22.566 2.925h21.523l20.685-.835 14-2.09 14.836-3.343 11.701-3.549 15.88-6.899 11.074-8.145 5.851-5.433 4.389-6.063 2.715-5.221 1.463-5.645.836-6.268-15.881-152.322v-25.075l9.404-27.376-.836-4.596z"/><path fill="#FFF" stroke="#000" stroke-linecap="round" stroke-linejoin="round" stroke-width="3" d="M354.268 323.361c26.576 0 56.98-1.076 81.491-12.537 9.52-4.451 24.288-15.169 11.043-25.101-8.802-5.723-24.135-11.39-39.252-14.394-27.645-5.038-54.737-3.967-82.582-3.967-24.474 0-47.026 8.976-70.231 15.398-3.794 1.05-12.726 2.93-14.139 7.168-1.009 3.026 8.949 7.613 11.388 9.506 8.733 6.778 18.244 11.531 28.522 15.356 23.515 8.754 48.984 8.571 73.76 8.571"/><path stroke="#FFF" stroke-linejoin="round" stroke-width="1.882" d="M242.479 189.42h214.162c.898 0-1.015 5.794 3.997 5.989 19.529.759 58.588.778 58.588.778s38.774-1.275 41.941 2.852 1.78 27.337 1.571 35.355l-1.697 65.158-.499 19.151c-.111 4.264-9.719 6.281-12.368 3.821-1.766-1.64-1.571-10.739-1.786-12.716l-3.437-31.585c-1.606-14.754-1.752-30.536-5.623-44.912-2.055-7.63-37.102-1.465-42.362-1.197-4.563.233-42.649-.885-43.981 2.903l-16.87 47.97c-2.835 8.061-29.556 12.523-36.873 13.664-36.226 5.647-75.364 7.357-110.498-4.939-10.117-3.541-17.411-6.59-24.453-14.875-4.701-5.53-4.833-15.939-6.328-22.824l-8.997-41.43c-1.609-7.401-4.581-15.523-4.487-23.163z"/><path fill="#707070" d="M265.463 195.271h22.984l13.791 94.028-16.925-5.015z"/><path fill="none" stroke="#FFF" stroke-linejoin="round" stroke-width="1.882" d="m456.653 206.767-5.223 25.909"/><path fill="#5B5B5B" d="M23.289 619.236h465.334l11.074-16.927H11.796z"/><path fill="#7A7A7A" d="M38.96 187.961h430.021l21.105-32.597H18.482z"/><path fill="none" stroke="#FFF" stroke-linejoin="round" stroke-width="1.882" d="m451.221 234.136 6.268-31.549v-7.104"/><path fill="#FFF" stroke="#000" stroke-linecap="round" stroke-linejoin="round" stroke-width="3" d="m224.3 16.203-5.433 60.383h245.1l-.418-5.014v-6.056l-1.881-2.508-34.059-52.656-3.134-.63-2.089 6.481-.836-.212z"/><path fill="none" stroke="#000" stroke-linecap="round" stroke-linejoin="round" stroke-width="2" d="m424.266 11.812 34.686 53.704M422.177 16.409l34.476 56.211 2.299-7.104 4.179.205M221.166 72.407h235.487"/><path fill="none" stroke="#000" stroke-linecap="round" stroke-linejoin="round" stroke-width="3" d="M489.041 92.049H15.139M223.255 488.221v48.894H37.497v-46.804M8.871 565.745h493.961"/><path fill="none" stroke="#FFF" stroke-linecap="round" stroke-linejoin="round" d="M446.661 317.436 496.334 312s25.021-3.063 25.177 3.135M521.22 319.806l8.148 126.837M457.489 202.793s94.723-2.207 98.2 0 2.597 5.392 2.597 5.392M558.204 211.979l.127 108.375"/><path fill="#3F3937" d="M353.432 470.669c27.742-.468 57.106 4.619 82.432 15.985 8.283 3.719 24.51 13.418 17.532 24.582-6.581 10.53-19.817 18.108-31.331 22.173-26.931 9.507-54.576 14.065-83.197 12.32-25.438-1.55-59.944-5.308-79.255-24.076-19.418-18.872 5.489-34.861 23.097-40.564 23.083-7.477 46.564-9.93 70.722-10.42"/><path fill="#3F3937" d="M252.508 508.492H455.19l-9.611-89.013H257.941z"/><path fill="#3F3937" stroke="#FFF" stroke-width="3" d="M351.969 393.774c27.462 1.765 55.677 1.9 81.081 14.032 12.239 5.845 17.377 16.732 4.187 25.065-12.031 7.601-26.434 10.08-40.144 12.967-26.048 5.484-56.29 4.487-82.538 1.112-11.723-1.507-77.704-14.786-49.958-35.598 22.746-17.061 60.371-16.993 87.372-17.578z"/><path fill="#898989" d="M265.463 527.922s8.846-188.938 8.358-194.93-9.403-23.634-9.403-23.634l17.134 8.57s6.338 11.709 6.06 19.224-6.06 198.922-6.06 198.922z"/><path fill="#FFF" d="m309.343 544.432 4.596-195.373-1.253-25.074 16.298.835 1.045 20.69 1.254 203.519-15.045-1.049z"/><path fill="#919191" stroke="#000" stroke-linejoin="round" stroke-width="1.882" d="M306.418 373.51c27.791 4.07 55.721 6.075 83.58 1.041 13.315-2.406 27.039-5.598 39.283-11.488 3.589-1.727 11.729-9.25 15.2-9.655l24.709-2.882c-.834 7.165.545 30.062-7.062 30.889-5.989.65-13.297-.019-18.288 3.545-4.778 3.411-9.729 6.153-14.978 8.815-21.438 10.875-45.126 13.189-68.875 14.013-24.08.834-49.19-1.313-72.269-8.443-10.853-3.354-21.137-9.688-29.963-16.749-7.968-6.374-2.634-24.57-2.114-33.536 13.657 14.794 31.481 20.862 50.777 24.45z"/><path fill="#FFF" stroke="#000" stroke-linecap="round" stroke-linejoin="round" d="M461.877 368.077c.104-8.084-11.158-7.909-11.074 0 .084 7.949 10.903 7.87 11.074 0"/><path fill="#FFF" stroke="#FFF" stroke-linejoin="round" stroke-width="1.882" d="m273.313 388.965 1.045-22.568 10.657 5.016v24.443l-12.955-6.891zM330.656 378.942l-.627 26.116-16.508-2.295v-26.328z"/><path fill="none" stroke="#FFF" stroke-linecap="round" stroke-linejoin="round" stroke-width="3" d="M116 465.334v24.667M156.333 465.334v25.333"/></svg>