<svg xmlns="http://www.w3.org/2000/svg" xml:space="preserve" width="271" height="212"><path fill="#DE333F" d="M146 187.818H27.818v4.545c0 2.726 1.817 4.546 4.545 4.546h109.091c2.725 0 4.545-1.82 4.545-4.546v-4.545z"/><path fill="#ECEFF9" d="M173.272 115.091c1.363 0 2.272-.452 3.183-1.362s1.363-1.82 1.363-3.184v-59.09c0-10.001-8.182-18.182-18.182-18.182h-16.362l.905 9.091h10.911c7.729 0 13.637 5.908 13.637 13.636v54.545c.001 2.726 1.82 4.546 4.545 4.546"/><path fill="#F04D4E" d="M39.637 33.272 28.273 178.728h117.274L134.184 33.272z"/><path fill="#FC9A90" d="M53.728 46.909c-2.728 0-4.545 1.817-5 4.09l-1.362 18.182c0 2.728 1.817 4.545 4.09 5h.455c2.273 0 4.546-1.817 4.546-4.09l1.362-18.182c-.001-2.727-1.818-5-4.091-5M51 81.455c-2.728 0-4.545 1.817-5 4.09l-.908 10.909c0 2.272 1.818 4.545 4.09 5h.455c2.272 0 4.545-1.818 4.545-4.09l.908-10.909c.001-2.272-1.817-4.545-4.09-5"/><path fill="#BB333F" d="M134.18 33.272h-19.998l4.546 145.456h26.815z"/><path fill="#DE333F" d="M45.545 15.091c-2.272 0-4.545 1.818-4.545 4.091l-.455 5h93.182l-.453-5c0-2.273-2.272-4.091-4.545-4.091z"/><path fill="#BB333F" d="M133.273 19.182c0-2.273-2.272-4.091-4.545-4.091h-19.092c2.272 0 4.545 1.818 4.545 4.091v5h19.092z"/><path fill="#F04D4E" d="M21.455 44.636c3.183 2.273 5.455 5 7.728 8.181l1.363-19.545H14.182c.455 4.546 3.182 8.637 7.273 11.364"/><path fill="#60ADD8" d="M100.545 78.728c0-7.729-5.908-13.637-13.636-13.637-7.729 0-13.637 5.908-13.637 13.637v54.545c0 7.729 5.908 13.637 13.637 13.637 7.728 0 13.636-5.908 13.636-13.637z"/><path fill="#90CEF1" d="M77.818 137.818V83.272c0-7.728 5.908-13.636 13.636-13.636 2.728 0 4.999.91 7.271 1.818-2.725-3.636-6.815-6.363-11.816-6.363-7.729 0-13.637 5.908-13.637 13.637v54.545c0 4.999 2.728 9.091 6.363 11.816-.907-2.273-1.817-4.545-1.817-7.271"/><path fill="#014463" d="M86.909 56c-12.727 0-22.728 10.001-22.728 22.728v54.545c0 12.727 10.001 22.728 22.728 22.728s22.728-10.001 22.728-22.728V78.728C109.637 66.001 99.636 56 86.909 56m0 90.909c-7.729 0-13.637-5.908-13.637-13.637V78.728c0-7.729 5.908-13.637 13.637-13.637 7.728 0 13.636 5.908 13.636 13.637v4.545h-9.09c-2.728 0-4.545 1.818-4.545 4.546s1.817 4.545 4.545 4.545h9.09v9.091h-9.09c-2.728 0-4.545 1.818-4.545 4.545s1.817 4.545 4.545 4.545h9.09v9.092h-9.09c-2.728 0-4.545 1.819-4.545 4.545s1.817 4.546 4.545 4.546h9.09v4.545c0 7.728-5.908 13.636-13.636 13.636"/><path fill="#BCD1E8" d="M173.272 115.091c1.363 0 2.272-.452 3.183-1.362s1.363-1.82 1.363-3.184v-59.09c0-4.545-1.82-8.636-4.546-11.819zM151.003 33.272h-7.729l.911 9.092h7.723z"/><path fill="#BB333F" d="M141.455 196.909h-22.728v-9.091H146v4.545c0 2.726-1.82 4.546-4.545 4.546"/><path fill="#014463" d="m259.46 112.64-6.27 6.66-5.24-4.939 6.26-6.66c3.37-3.58-2.17-8.8-5.54-5.22l-6.27 6.65-4.54-4.27s-7.681 11.081-4.13 20.09c-4.521 3.45-10.011 5.12-15.301 7.1-5.51 2.061-10.479 4.771-15 8.561-8.26 6.93-10.93 19.13-9.04 29.37.86 4.64 3.33 8.939 3.801 13.659.579 5.9-7.49 6.49-11.7 6.54-5.91.08-12.061-1.59-17.34-4.17-4.87-2.38-9.03-5.72-14.08-7.529L144.64 51.45h10.45c2.73 0 4.55 1.82 4.55 4.55v54.54c0 7.729 5.9 13.64 13.63 13.64 3.641 0 7.271-1.359 9.551-4.09q4.092-4.092 4.09-9.55V51.45c0-14.99-12.271-27.27-27.271-27.27h-17.28l-.45-5.45C141.46 11.46 135.55 6 128.27 6H45.54c-7.27 0-13.18 5.46-13.63 12.73l-.46 5.45H9.64c-2.73 0-4.55 1.82-4.55 4.55v2.73c0 8.18 4.09 16.36 11.36 20.9 2.28 1.37 4.09 3.64 5.01 5.91l5.9 11.82-8.63 108.64v13.63c0 7.729 5.91 13.64 13.63 13.64h109.1c7.72 0 13.63-5.91 13.63-13.64v-3.04c4.32 2.14 8.26 5.21 12.74 7.02 5.95 2.41 12.25 3.66 18.66 3.84 11.42.33 23.5-6.05 21.41-18.96-.83-5.14-3.61-9.96-4.011-15.149-.46-5.88.78-11.851 4.65-16.431 4.229-5.02 10.8-7.33 16.77-9.5 5.57-2.02 10.771-4.33 15.381-8 9.8 4.48 22.779-3.159 22.779-3.159l-4.729-4.461 6.27-6.659c3.37-3.571-2.18-8.801-5.55-5.221m-99.82-79.37c10 0 18.181 8.18 18.181 18.18v59.09c0 1.37-.45 2.28-1.36 3.19-.92.909-1.82 1.359-3.19 1.359-2.72 0-4.539-1.82-4.539-4.55V56c0-7.73-5.91-13.64-13.641-13.64h-10.91l-.91-9.09zM40.54 19.18c0-2.27 2.28-4.09 4.55-4.09h83.18c2.271 0 4.551 1.82 4.551 4.09l.449 5H40.54zm-.9 14.09h94.54l11.37 145.46H28.27zM21.46 44.64c-4.1-2.73-6.82-6.82-7.28-11.37h16.37l-1.37 19.55c-2.27-3.18-5-5.91-7.72-8.18M146 192.36c0 2.729-1.82 4.55-4.54 4.55H32.36c-2.72 0-4.54-1.82-4.54-4.55v-4.54H146z"/></svg>