<svg xmlns="http://www.w3.org/2000/svg" xml:space="preserve" width="651" height="705"><path fill="none" stroke="#000" stroke-miterlimit="10" stroke-width="20" d="M641.5 678.5c0 9.941-8.059 18-18 18h-595c-9.941 0-18-8.059-18-16.5V29.5c0-11.441 8.059-19.5 18-19.5h595c9.941 0 18 8.059 18 18z"/><path fill="#AF7F79" d="M552.518 687.992a5.992 5.992 0 0 1-11.265-2.609c-.36-9.426 2.009-19.142 3.599-32.388 1.592-13.245 1.66-34.827 1.26-45.301-.851-22.143 9.523-40.117 7.84-45.552-5.213-16.844-14.029-45.314-15.486-83.32-.161-4.187-5.674-22.858-5.893-28.545-1.383-35.987 44.988-37.767 45.727-3.253.381 17.667 6.637 55.788 7.053 66.561.413 10.771.758 43.126.688 49.121-.068 5.997-.713 12.614-2.167 21.663-1.45 9.045-5.95 31.056-9.555 47.715-3.895 18.012-11.725 43.755-21.801 55.908"/><circle cx="547.238" cy="685.155" r="5.99" fill="#E1C7B7"/><circle cx="557.566" cy="449.47" r="5.991" fill="#E1C7B7"/><path fill="#AF7F79" d="M548.001 691.12q-.165.015-.418.03c-2.878.299-13.175 2.071-16.858 2.29-3.885.229-18.703-2.031-22.975-3.285-2.3-.678-6.791-.359-10.686.089l-.139-1.254c4.8-.528 13.643-2.053 15.475-2.162 3.297-.188 5.815-3.017 5.627-6.323a5.99 5.99 0 0 0-6.323-5.636c-.866.05-4.442-.678-9.142-1.703 1.702-.638 3.087-1.185 3.813-1.524 2.888-1.364 37.254 7.52 40.829 7.52h.1a5.986 5.986 0 0 1 6.323 5.637 5.974 5.974 0 0 1-5.626 6.321"/><path fill="#E3987D" d="M512.4 686.828v-.02a5.99 5.99 0 0 0 5.209-6.293 5.986 5.986 0 0 0-5.905-5.638v-.009a5.99 5.99 0 0 1 6.323 5.636c.189 3.308-2.33 6.136-5.627 6.324"/><path fill="#ED1651" d="M540.021 511.63c9.984 3.33 35.77 4.162 45.753-3.327-1.247-15.39-3.742-49.078-4.99-59.062-2.638-21.073-6.519-28.284-25.372-28.284-15.528 0-23.5 14.594-23.5 27.765 0 1.248 7.694 55.423 8.109 62.908"/><path fill="#F3AF9A" d="M480.684 284.786c-9.59 7.069-19.956 12.845-29.038 16.49-5.009 2.001-110.765 32.732-135.899 47.302-9.381 5.447-17.348 8.235-22.795 12.357-5.447 4.113-32.693 24.697-48.268 30.931-45.031 18.034-88.15 11.492-111.432 21.012-3.993 1.634-8.355 3.387-12.776 4.96 1.255 4.411 1.942 8.444 1.733 10.604-.598 6.264-5.796 13.155-20.903 10.925-18.402-2.709-46.026 2.848-57.329 1.703-9.241-.946-17.536-4.143-17.228-7.419.319-3.276 12.169-4.033 17.048-4.771 4.879-.736 27.295-13.185 33.629-16.48 3.655-1.912 10.367-6.951 17.357-10.416 2.629-1.853 5.587-3.347 8.534-4.192 75.105-21.56 150.698-56.752 154.811-60.975 4.113-4.232 13.005-14.251 19.239-18.034 6.224-3.774 22.765-8.017 28.242-13.245 11.681-11.123 47.34-44.503 64.579-54.631 17.237-10.127 40.23-23.59 52.46-28.489 6.313-2.529 15.077-5.397 24.677-7.569-1.703 4.979-3.188 9.919-4.342 14.749-5.887 24.536-3.595 46.086 17.566 54.67 6.144 2.489 13.065 2.688 20.135.518"/><path fill="#E3987D" d="M537.092 542.771c-.181 3.395-2.279 4.148-4.758 3.753 0 0-.436.039-.662-.014-.167 1.106-1.075 3.137-3.396 3.26-1.541.255-4.633 1.199-4.813 3.594-.12 1.541.603 3.137-.701 5.187-3.039 4.775-9.992-1.595-15.578-2.627-5.584-1.031-14.51 2.728-19.37 3.934-17.562 4.357-48.351-5.681-53.731-33.896-5.38-28.22 10.564-43.95 31.804-48.108 21.243-4.162 34.209 2.598 39.991 4.661 7.934 2.827 17.005 4.207 29.955-6.115 12.945-10.321 26.48-17.149 32.432-12.033 8.577 7.375 8.729 18.877-4.381 33.94-9.018 10.358-17.991 17.923-16.75 23.188 1.242 5.261 4 14.226 1.229 17.872-2.775 3.643-8.912 4.345-11.271 3.404"/><path fill="#E1C7B7" d="M562.156 479.388a5.99 5.99 0 1 1-11.244 4.127 5.99 5.99 0 0 1 11.244-4.127"/><circle cx="452.196" cy="514.655" r="5.989" fill="#E1C7B7"/><path fill="#501C0A" d="M491.472 540.864c-1.683 4.364-3.813 14.429 3.05 13.811 1.463-.13 2.631-.62.677-1.654-1.954-1.035-3.614-5.345-3.185-7.155s.402-3.727.723-5.084c.318-1.359-.182-2.716-1.265.082"/><path d="M503.055 548.414c.934.854 1.775 1.234 2.244 1.351.318.078.031-.932-.549-1.97-1.541-2.766-4.545-4.447-5.116-6.992-.593-2.646-2.579-2.659-1.611.584.671 2.44 1.53 7.607.612 9.394-1.031 2.009-.906 3.891.755 1.757.815-1.047 1.933-2.721 2.072-3.697.612-.112 1.405-.288 1.593-.427"/><path fill="#B72755" d="M527.834 537.471c.004-.216.2-.34.364-.078 1.225 1.938 6.305 1.115 8.521 5.502-.182 3.396-2.279 4.149-4.759 3.753 0 0-.435.039-.661-.014-.168 1.107-1.076 3.138-3.396 3.26-1.145-2.319-.082-9.419-.069-12.423"/><path fill="#570E0E" d="M528.211 537.444c.873 1.747 4.274 7.427 3.749 9.203 0 0-.435.039-.661-.014.004-2.246-3.191-7.787-3.465-9.163a.19.19 0 0 1 .377-.026"/><g fill="#7A1800"><path d="M464.611 468.116c-5.785 2.54-21.799 11.144-32.046 32.086-3.286-2.968-8.056-7.579-8.305-10.735-.827-10.496 3.556-18.771 15.813-24.576 4.831-2.282 13.943-6.065 24.538 3.225"/><path d="M520.785 483.362c-3.734 5.407-4.969 14.001-7.508 13.543s-13.723-8.007-19.598-2.907c-5.875 5.089-11.542 7.976-8.594 14.2 2.947 6.224 6.334 4.292 10.356 4.382-.776 4.671-3.595 11.302-7.987 16.032-4.381 4.729-15.844 14.121-16.898 19.599-1.057 5.467-2.48 9.46-.418 13.114-6.225 2.948-24.797-7.688-32.125-19.359-7.459-11.88-4.871-31.816-3.027-39.583a1 1 0 0 1-.119-.109c11.85-24.826 32.652-32.115 32.861-32.195.1-.039.198-.079.289-.14 13.026-1.982 44.733 1.195 52.768 13.423"/></g><path fill="#D9D9D9" d="M479.297 211.743c-20.38 0-38.268 14.974-38.268 41.595 0 16.637 14.142 32.025 30.363 32.025s44.92-26.203 44.92-45.751c.001-15.112-11.919-27.869-37.015-27.869"/><g fill="#E3987D"><path d="M623.744 408.576c-1.036 1.893-6.771 12.299-10.616 20.613-3.018 6.503-9.171 15.077-12.049 19.946-2.878 4.859-11.761 23.87-15.595 29.268-8.455 11.899-9.291 24.378-18.064 28.929-14.18 7.35-30.393-14.38-37.373-27.843-20.404-39.355-3.805-124.926-15.934-148.329-7.16-13.821-55.736-6.8-73.93-41.894-10.895-21.012-10.436-43.219 2.799-59.669-5.887 24.536-3.595 46.086 17.566 54.67 17.676 7.17 41.715-4.7 57.768-36.846 2.748-5.506 5.517-11.641 8.245-18.253 18.254 13.464 35.192 33.031 46.415 54.671 4.412 8.504 19.369 42.571 22.686 48.954 6.891 13.284 8.245 40.919 10.963 43.558s9.859 12.995 16.492 25.802c.826 1.593 1.672 4.532.627 6.423"/><path d="M553.777 476.135a5.99 5.99 0 0 1 8.072 2.56 5.987 5.987 0 0 1-2.561 8.075 5.98 5.98 0 0 1-8.07-2.559 5.99 5.99 0 0 1 2.559-8.076"/><circle cx="557.566" cy="449.472" r="5.99"/><circle cx="475.124" cy="247.034" r="5.99"/></g><path fill="#ED1651" d="M531.982 483.012c7.74 13.37 22.445 31.055 35.439 24.317 8.772-4.548 9.704-16.251 18.158-28.152 3.834-5.4 25.893-38.504 32.863-51.782 3.777-7.196 5.512-11.703 6.094-15.093.109-.638 2.203-.737 2.203-2.252 0-1.618-1.981-1.528-2.114-2.435a20 20 0 0 0-.541-2.461c-2.903-10.457-14.739-26.161-17.458-28.802-2.717-2.636-4.074-30.27-10.965-43.563-3.313-6.379-18.278-40.446-22.688-48.953-20.886-40.281-61.616-73.411-93.677-73.25v1.157c25.096 0 37.016 12.757 37.016 27.869 0 19.548-28.699 45.751-44.92 45.751-16.222 0-30.363-15.389-30.363-32.025 0-26.621 17.888-41.595 38.268-41.595v-1.157c-6.313.032-12.286 1.354-17.707 4.166-30.131 15.625-36.111 46.161-21.404 74.519 18.193 35.093 66.764 28.068 73.932 41.891 3.404 6.566 4.546 18.026 4.878 31.988 14.235 0 28.097 5.818 28.097 21.623 0 8.316-15.39 45.337-15.39 62.39s-.691 25.529.279 35.849"/><path fill="#E3987D" d="M539.606 637.347c1.991-3.983 3.983-8.963 5.976-12.946 9.957-28.879 21.908-57.758 23.899-88.628 1.905-35.239 4.714-69.569 4.956-104.729-10.829-15.286-38.568-11.949-41.697 15.438-.648 5.653 1.969 24.944 1.496 29.109-4.32 37.786.08 67.263 2.679 84.702.838 5.628-12.14 21.82-14.658 43.837-1.189 10.416-4.529 31.737-8.106 44.589-3.578 12.855-6.705 16.098-7.779 25.473 5.477 2.987 9.902 5.374 12.074 6.473 8.215-14.813 13.74-24.766 21.16-43.318"/><path fill="#8F5940" d="M570.975 510.628s-6.473 40.082-7.717 54.272c-1.245 14.19-13.002 45.942-17.676 59.5-1.992 3.983-3.984 8.963-5.976 12.946-3.54 8.85-13.626 25.827-17.925 34.23-4.711 9.213-3.485 9.461-3.485 9.461s21.668-31.311 28.247-48.521c6.086-15.924 13.874-36.997 16.679-45.719 2.805-8.721 4.445-15.164 5.423-21.083.977-5.915 3.094-51.685 3.094-51.685z"/><circle cx="511.634" cy="680.868" r="5.989" fill="#E1C7B7"/><circle cx="557.565" cy="449.47" r="5.989" fill="#E1C7B7"/><g fill="#E3987D"><path d="M512.4 686.809v.021c-1.832.108-10.675 1.633-15.475 2.161-.697.079-1.305.129-1.793.158.408 0-4.291 1.972-4.969 2.012-.588.04-2.857 1.663-5.547 3.495-4.152 2.818-9.301 6.104-10.834 4.74-1.793-1.593 1.752-7.758 4.551-12.209-2.639-.468-4.9-.936-6.194-1.313-4.272-1.256-14.19-.641-15.685-.562-1.503.09-11.281.993-14.272.996-2.677.003-7.765.919-10.294-1.331s15.275-5.637 15.275-5.637 8.306-2.897 10.955-3.654c2.658-.757 11.282-2.659 17.586-3.316 1.862-.199 3.953-.428 6.283-.587 5.577-.389 12.478-.389 20.574 1.384 4.699 1.025 8.275 1.753 9.142 1.702v.011a5.98 5.98 0 0 1 5.905 5.636c.19 3.166-2.12 5.894-5.208 6.293"/><path d="M512.4 686.828v-.02a5.99 5.99 0 0 0 5.209-6.293 5.986 5.986 0 0 0-5.905-5.638v-.009a5.99 5.99 0 0 1 6.323 5.636c.189 3.308-2.33 6.136-5.627 6.324"/></g><path fill="#ED1651" d="M531.286 506.64c14.371 4.311 31.659 6.642 45.337 2.911.209-8.11 4.783-56.983 3.119-66.132-2.975-16.359-11.098-22.462-23.5-22.462-17.467 0-24.018 15.183-24.018 26.308.001 1.144.309 39.618-.938 59.375"/><path fill="#DD9997" d="M377.932 195.907a5.99 5.99 0 0 1-6.989-4.784 5.99 5.99 0 1 1 6.989 4.784"/><path fill="#F3AF9A" d="M526.562 229.169c-2.729 6.612-5.497 12.747-8.245 18.253-10.467 20.973-24.338 33.311-37.633 37.364-7.069 2.17-13.99 1.971-20.135-.519-21.161-8.584-23.453-30.134-17.566-54.67 1.154-4.83 2.639-9.77 4.342-14.749 4.033-11.75 9.381-23.71 14.967-34.893 4.282-8.574 21.938-47.959 26.488-55.736-22.973 23.342-49.82 30.811-59.121 38.1-10.406 8.136-23.989 20.514-36.367 29.766 3.037 4.541 5.348 9.082 5.815 11.551 1.155 6.185-1.921 14.25-17.058 16.302-18.424 2.51-43.418 15.516-54.602 17.547-9.132 1.663-17.995.906-18.602-2.341-.607-3.236 10.565-7.249 15.046-9.311 4.492-2.062 22.566-20.245 27.724-25.175 2.37-2.26 6.035-6.931 10.317-11.402.05-.129.12-.269.188-.408 3.745-7.499 28.381-20.644 37.483-32.155 9.102-11.532 61.302-65.127 75.214-83.619 10.326-13.713 40.63-48.367 53.446-48.068 11.253.259 24.397 3.654 27.614 14.639 13.494 45.976-6.631 134.555-29.315 189.524"/><path fill="#DD9997" d="M475.121 247.036"/><path fill="#723F40" d="M488.571 124.086c-.001 0 .159-.504.493-1.35.332-.846.834-2.038 1.516-3.415.325-.699.713-1.433 1.128-2.206.4-.782.86-1.583 1.345-2.404.471-.832.978-1.676 1.525-2.514.542-.841 1.064-1.714 1.655-2.542l1.721-2.499 1.751-2.364c.567-.767 1.163-1.478 1.702-2.168.534-.694 1.097-1.312 1.587-1.901 1.994-2.336 3.542-3.749 3.542-3.75l.045-.042a.247.247 0 0 1 .371.318l-17.965 27.111a.244.244 0 0 1-.339.069.244.244 0 0 1-.099-.278zM393.318 192.333s-.117.159-.33.374a5 5 0 0 1-.896.727 4 4 0 0 1-.615.349 5 5 0 0 1-.696.301 6.2 6.2 0 0 1-1.552.311 7 7 0 0 1-1.591-.034c-.256-.029-.509-.1-.746-.144-.235-.036-.467-.138-.676-.199a5.5 5.5 0 0 1-1.432-.726l-.159-.12a.21.21 0 0 1-.041-.294.21.21 0 0 1 .144-.083l8.534-.959a.203.203 0 0 1 .187.32zM301.665 309.996l-.052.316c-.039.206-.083.52-.184.892a21 21 0 0 1-.992 3.042 26 26 0 0 1-2.038 4.015l-.662 1.072-.767 1.042a22 22 0 0 1-1.671 2.054c-.579.672-1.25 1.278-1.864 1.906-.667.581-1.365 1.114-2.017 1.645-.707.48-1.409.909-2.075 1.308-.696.367-1.386.65-1.998.933-.652.227-1.266.381-1.792.532-.513.183-1.033.159-1.416.221-.792.069-1.229.079-1.229.079h-.036a.25.25 0 0 1-.083-.487l1.096-.354c.341-.131.789-.205 1.239-.455l1.549-.743 1.726-1.085c.585-.426 1.182-.905 1.811-1.384.582-.537 1.204-1.07 1.797-1.653.567-.61 1.188-1.187 1.728-1.841a45 45 0 0 0 3.076-3.91 57 57 0 0 0 2.373-3.64c1.303-2.191 2.027-3.719 2.027-3.719a.246.246 0 0 1 .326-.117.25.25 0 0 1 .137.261zM120.451 418.086s-.177.129-.492.283a5.7 5.7 0 0 1-1.288.459 5 5 0 0 1-.854.15 6.4 6.4 0 0 1-.949.06 8 8 0 0 1-2.02-.298 8.1 8.1 0 0 1-1.947-.794c-.302-.164-.577-.369-.843-.566-.268-.174-.489-.42-.7-.634-.212-.195-.374-.438-.515-.654a2.5 2.5 0 0 1-.307-.585c-.128-.364-.154-.563-.154-.563l-.016-.124a.24.24 0 0 1 .204-.265.24.24 0 0 1 .192.063l.303.286c.087.1.234.185.389.294q.229.172.554.33c.842.452 2.08.871 3.344 1.184 2.534.632 5.146.877 5.147.877a.213.213 0 0 1 .106.384z" opacity=".5"/><path fill="none" stroke="#664341" stroke-linecap="round" stroke-linejoin="round" stroke-miterlimit="10" d="M506.371 674.191s-.871 2.489 2.863 4.481"/><path fill="#63A8DC" d="M497.408 540.005c-.664-1.846-1.742-3.361-1.742-3.361s-.747 11.328 0 14.19 1.992 1.121 1.992 1.121c2.489-.623.871-8.839-.25-11.95" opacity=".7"/></svg>