<svg xmlns="http://www.w3.org/2000/svg" xml:space="preserve" viewBox="0 0 172.239 299.353"><path d="M169.98 62.547c-2.591-7.437-12.66-5.899-23.599-5.901-16.247 0-37.029-.655-52.441-1.31v-4.588c12.371 2.563 14.863-8.363 9.177-15.078 10.767-12.059 3.467-33.079-11.8-35.396-14.357-2.181-25.61 8.874-24.254 26.22 1.748 3.919 4.745 5.08 4.588 9.177-.108 2.886-4.38 5.544-3.933 9.179.226 1.829 1.986 1.867 2.623 4.588 2.29 1.643 7.999-.135 8.521 3.276v1.968c-3.555 2.914-10.03.825-13.765.655-20.373-.924-36.343-.174-58.998-.655-1.895-.946-1.263-4.418-4.588-3.933C-.813 54.193.012 63.994.856 68.447c4.376 1.318 3.302-2.815 5.899-3.276 28.484.063 46.424-.067 72.107 1.31-1.532 28.839-1.027 59.718-1.966 89.15H70.34c-1.445.958.384 5.191-1.966 5.243-2.177-.222-6.554-2.146-5.901 1.969.08 2.759 5.03.647 7.211 1.31.006 1.742-.248 3.743.655 4.589 2.934 1.126 5.176-1.134 6.556 1.312.448 18.564-1.68 32.378-1.312 51.786a2 2 0 0 1-.501.376 4.6 4.6 0 0 1-.202 1.398c.378.142.661.372.703.849-.41 21.675-.198 37.612-1.311 59.649-18.31-6.6-26.711-23.104-36.054-38.674 18.239-12.638-8.258-27.524-19.666-32.121-3.157 10.356-12.302 29.167-1.311 38.021 2.71 1.491 7.182-.121 9.177.656 2.401 6.173 6.182 11.798 9.834 17.043 3.536 5.079 7.473 10.835 11.8 15.075 7.286 7.146 22.324 16.604 36.052 15.078 30.181-3.354 43.567-26.078 56.375-45.886h6.556c12.812-6.622 2.87-25.296 2.623-38.677-3.304-.604-6.201 3.31-10.488 5.899-4.446 2.688-10.287 4.188-13.11 6.555-6.587 5.53-3.321 15.959 1.312 20.32-4.016 7.607-9.244 15.194-15.077 21.634-5.819 6.426-12.801 12.904-22.287 13.766.562-36.52 1.806-74.257 1.966-113.4h7.211c1.445-.958-.384-5.192 1.968-5.244 2.363-.997 5.485 2.565 5.898-.653.713-5.198-2.969-1.93-6.557-2.623-1.23-.954-.078-4.292-1.311-5.244-2.207-.415-6.089.844-7.211-.655.143-31.322 1.342-60.973 1.968-89.15 14.412.113 27.538 1.004 40.643 1.311 8.443.198 17.384-1.239 26.22 1.311-.403 2.722-4.048 3.212-1.965 6.556 6.702-.178 10.135.004 13.108-1.31 1.57-3.554-3.87-5.177-1.97-11.171zM80.178 35.67c-1.374-7.934-5.917-7.48-5.899-14.42.026-9.796 10.883-15.628 19.011-12.455 1.89.736 6.343 4.842 7.209 7.211 3.438 9.375-4.084 12.276-5.897 19.664H80.177z"/></svg>