<svg xmlns="http://www.w3.org/2000/svg" xmlns:xlink="http://www.w3.org/1999/xlink" viewBox="0 0 295.13 245.35"><defs><linearGradient id="g"><stop offset="0" stop-color="#fff"/><stop offset="1" stop-color="#fff" stop-opacity="0"/></linearGradient><linearGradient id="f"><stop offset="0" stop-color="maroon"/><stop offset="1" stop-color="maroon" stop-opacity="0"/></linearGradient><linearGradient id="d"><stop offset="0" stop-color="#4d4d4d"/><stop offset="1"/></linearGradient><linearGradient id="e"><stop offset="0" stop-color="#3e3e3e" stop-opacity="0"/><stop offset="1" stop-color="#3e3e3e"/></linearGradient><linearGradient id="b"><stop offset="0" stop-color="#333"/><stop offset=".49" stop-color="#4d4d4d"/><stop offset="1" stop-color="#333"/></linearGradient><linearGradient id="a"><stop offset="0" stop-color="#f60" stop-opacity="0"/><stop offset=".5" stop-color="#f60"/><stop offset="1" stop-color="#f60" stop-opacity="0"/></linearGradient><linearGradient id="c"><stop offset="0" stop-color="#a00"/><stop offset="1" stop-color="red"/></linearGradient><linearGradient id="k" x1="261.48" x2="-65.937" y1="262.51" y2="-63.209" gradientTransform="translate(115.16 5.05)" gradientUnits="userSpaceOnUse"><stop offset="0" stop-color="#f60"/><stop offset="1" stop-color="#f60" stop-opacity="0"/></linearGradient><linearGradient xlink:href="#a" id="t" x1="-398.54" x2="-359.38" y1="581.1" y2="555.39" gradientUnits="userSpaceOnUse"/><linearGradient xlink:href="#a" id="u" x1="-433.73" x2="-401.42" y1="585.09" y2="560.81" gradientUnits="userSpaceOnUse"/><linearGradient xlink:href="#a" id="v" x1="-453.46" x2="-423.75" y1="607.9" y2="587.9" gradientUnits="userSpaceOnUse"/><linearGradient xlink:href="#b" id="H" x1="298.94" x2="314.66" y1="195.94" y2="215.13" gradientTransform="translate(-40.747 45.323)scale(.48995)" gradientUnits="userSpaceOnUse"/><linearGradient xlink:href="#b" id="C" x1="298.94" x2="314.66" y1="195.94" y2="215.13" gradientTransform="translate(41.904 -1.2)scale(.48995)" gradientUnits="userSpaceOnUse"/><linearGradient xlink:href="#c" id="m" x1="-155.19" x2="-25.082" y1="430.61" y2="464.96" gradientTransform="translate(202.89 -103.39)scale(.48995)" gradientUnits="userSpaceOnUse"/><linearGradient id="l" x1="108.05" x2="501.89" y1="137.09" y2="515.66" gradientTransform="translate(41.904 -1.2)scale(.48995)" gradientUnits="userSpaceOnUse"><stop offset="0"/><stop offset="1" stop-color="#333"/></linearGradient><linearGradient xlink:href="#c" id="i" x1="-129.69" x2="-139.08" y1="326.7" y2="663.84" gradientTransform="translate(202.89 -103.39)scale(.48995)" gradientUnits="userSpaceOnUse"/><linearGradient xlink:href="#d" id="s" x1="-71.786" x2="-70" y1="89.148" y2="89.148" gradientUnits="userSpaceOnUse"/><linearGradient xlink:href="#e" id="z" x1="297.39" x2="327.67" y1="287.81" y2="287.81" gradientTransform="translate(-.357 .357)" gradientUnits="userSpaceOnUse"/><linearGradient xlink:href="#e" id="A" x1="297.01" x2="328.17" y1="296.94" y2="296.94" gradientUnits="userSpaceOnUse"/><linearGradient xlink:href="#e" id="B" x1="297.26" x2="328.04" y1="305.87" y2="305.87" gradientTransform="translate(-2.143 -1.429)" gradientUnits="userSpaceOnUse"/><linearGradient id="w" x1="201.86" x2="88.238" y1="201.62" y2="29.098" gradientUnits="userSpaceOnUse"><stop offset="0" stop-color="#999"/><stop offset=".092" stop-color="#fff"/><stop offset="1" stop-color="#999"/></linearGradient><linearGradient xlink:href="#f" id="K" x1="35.158" x2="56.522" y1="70.196" y2="71.268" gradientUnits="userSpaceOnUse"/><linearGradient xlink:href="#f" id="L" x1="128.58" x2="129.52" y1="222.78" y2="201.35" gradientUnits="userSpaceOnUse"/><linearGradient xlink:href="#f" id="M" x1="213.71" x2="201.11" y1="172.98" y2="166.55" gradientUnits="userSpaceOnUse"/><linearGradient id="n" x1="216.15" x2="149.58" y1="284.21" y2="-.075" gradientTransform="translate(41.904 -1.2)scale(.48995)" gradientUnits="userSpaceOnUse"><stop offset="0" stop-color="#500"/><stop offset="1" stop-color="#2b0000"/></linearGradient><linearGradient id="R" x1="171.71" x2="200.78" y1="169.34" y2="142.92" gradientUnits="userSpaceOnUse"><stop offset="0" stop-color="#fff"/><stop offset="1" stop-color="#fff" stop-opacity="0"/></linearGradient><filter id="j" color-interpolation-filters="sRGB"><feGaussianBlur stdDeviation="5.086"/></filter><filter id="x" width="1.012" height="1.517" x="-.006" y="-.258" color-interpolation-filters="sRGB"><feGaussianBlur stdDeviation=".269"/></filter><filter id="I" width="1.177" height="1.375" x="-.088" y="-.187" color-interpolation-filters="sRGB"><feGaussianBlur stdDeviation="3.252"/></filter><filter id="J" width="1.205" height="1.29" x="-.102" y="-.145" color-interpolation-filters="sRGB"><feGaussianBlur stdDeviation="2.751"/></filter><filter id="q" width="1.24" height="1.129" x="-.12" y="-.065" color-interpolation-filters="sRGB"><feGaussianBlur stdDeviation="2.325"/></filter><filter id="y" color-interpolation-filters="sRGB"><feGaussianBlur stdDeviation=".383"/></filter><filter id="h"><feGaussianBlur stdDeviation="3.442"/></filter><filter id="o"><feGaussianBlur stdDeviation="1.912"/></filter><filter id="F"><feGaussianBlur stdDeviation=".316"/></filter><filter id="D"><feGaussianBlur stdDeviation=".316"/></filter><filter id="N" width="1.302" height="1.234" x="-.151" y="-.117"><feGaussianBlur stdDeviation=".721"/></filter><filter id="Q" width="1.502" height="1.053" x="-.251" y="-.027"><feGaussianBlur stdDeviation=".793"/></filter><radialGradient xlink:href="#d" id="r" cx="110.75" cy="145.46" r="8.555" gradientTransform="matrix(.66714 -.31395 .35781 .76035 -15.184 69.63)" gradientUnits="userSpaceOnUse"/><radialGradient id="p" cx="135.3" cy="59.14" r="40.137" gradientTransform="matrix(1 0 0 .81699 0 17.046)" gradientUnits="userSpaceOnUse"><stop offset="0" stop-color="#fff"/><stop offset="1" stop-color="#fff" stop-opacity="0"/></radialGradient><radialGradient id="G" cx="132.05" cy="100.2" r="25.406" gradientTransform="matrix(.83734 -.54668 1.237 1.8947 -102.47 -27.168)" gradientUnits="userSpaceOnUse"><stop offset="0"/><stop offset="1" stop-opacity="0"/></radialGradient><radialGradient id="E" cx="123.48" cy="113.45" r="25.406" gradientTransform="matrix(.82472 -.56554 1.2511 1.8245 -120.3 -30.957)" gradientUnits="userSpaceOnUse"><stop offset="0"/><stop offset="1" stop-opacity="0"/></radialGradient><radialGradient xlink:href="#g" id="O" cx="110.59" cy="145.6" r="7.449" gradientTransform="matrix(1 0 0 1.2238 0 -32.593)" gradientUnits="userSpaceOnUse"/><radialGradient xlink:href="#g" id="P" cx="110.59" cy="145.6" r="7.449" gradientTransform="matrix(1 0 0 1.2238 82.58 -79.312)" gradientUnits="userSpaceOnUse"/></defs><path d="M119.13 34.559c-6.47.103-12.936 1.164-19.125 3.25-7.074 2.258-13.066 7.125-17.75 12.781C68.3 68.031 65.118 92.549 70.193 113.871c6.827 18.857 15.531 37.163 26.219 54.219-.992 1.643-1.627 2.684-2 3.156l-1.562-.156-.657 1.281c-.01.01-.022-.01-.031 0-.48.501-.496.7-.156 1.5l.375.906-2.906 4.625c-2.465 3.91-3.014 4.65-3.407 4.657-.256.005-.604.22-.78.5-.178.28-.63.673-1 .843-.452.207-.978.78-1.595 1.75-.838 1.321-.986 1.458-1.593 1.407-.405-.035-.876.132-1.22.468-.705.692-1.678 1.156-4.374 2.063-2.407.81-5.418 2.209-8 3.687-4.89 2.255-13.566 12.516-17.281 18.531-.53.86-.947 1.632-1.25 2.282-.896 1.903-2.3 6.223-2.281 7.03 1.412 5.505 16.598 15.785 25.03 15.782.737-.332 4.045-3.465 5.376-5.094.454-.554.953-1.275 1.5-2.125 3.823-5.947 9.357-18.178 9.28-23.562.22-2.967.153-6.292-.156-8.813-.345-2.824-.35-3.908-.03-4.843.155-.455.142-.963-.063-1.313-.309-.526-.267-.705.562-2.031.61-.975.915-1.722.906-2.219-.006-.408.136-.97.313-1.25s.231-.704.125-.937c-.163-.358.255-1.153 2.719-5.063l2.937-4.625.969-.031c.868-.039 1.037-.131 1.281-.781.005-.013-.005-.019 0-.032l.875-1.156-.844-1.344c.179-.363.558-.96 1.063-1.75a247 247 0 0 0 14.625 20.22 233 233 0 0 0 5.75 6.905c.744.857 1.524 1.717 2.281 2.563a224 224 0 0 0 5.375 5.781c.082.085.168.165.25.25a216 216 0 0 0 7.812 7.719c8.5 9.954 22.89 10.296 34.75 7.875 10.574-3.284 20.747-8.106 30.72-12.969 9.03-5.712 19.123-10.462 26.093-18.781 7.107-6.636 9.361-16.908 7.032-26.156a290 290 0 0 0-2.782-9.344c-.284-.9-.58-1.79-.875-2.687-2.359-7.215-5.002-14.361-7.968-21.375-.315-.743-.647-1.479-.97-2.22-3.807-8.774-8.098-17.341-12.905-25.593 8.25-.118 15.089-.25 17.406-.313 2.612-.07 3.924-.072 4.625 0l.719 1.407 1.406-.125c.013.002.018-.003.031 0 .681.136.851.06 1.344-.657l.562-.812 5.47-.031c4.62-.02 5.532.047 5.75.375.14.213.512.377.843.375.331-.001.907.184 1.25.406.417.27 1.193.407 2.344.406 1.564 0 1.748.054 2.03.594.19.36.595.672 1.063.781.963.224 1.881.775 4.094 2.563 1.976 1.596 4.742 3.396 7.375 4.78 4.528 2.916 17.868 4.721 24.938 4.626 1.01-.014 1.883-.064 2.594-.156 2.087-.266 6.485-1.426 7.156-1.875 4.467-7.153 3.797-25.45-.125-29.563-.675-.444-5.067-1.566-7.156-1.813-.712-.086-1.615-.12-2.625-.125-7.07-.032-20.374 1.857-24.875 4.813-2.621 1.407-5.383 3.261-7.344 4.875-2.197 1.807-3.102 2.361-4.062 2.593-.467.113-.878.42-1.063.782-.278.542-.467.612-2.031.625-1.15.009-1.93.164-2.344.437-.34.225-.887.404-1.219.406-.33.002-.735.16-.875.375-.214.33-1.097.417-5.718.438h-5.5l-.563-.813c-.499-.711-.633-.767-1.312-.625-.014.002-.018-.003-.032 0l-1.437-.125-.688 1.407c-.7.078-2.012.078-4.625.03-2.526-.045-10.519-.077-19.844-.124-10.998-18.001-24.495-34.38-40.75-48-12.294-11.241-28.872-17.263-45.406-17z" filter="url(#h)" opacity=".5" transform="translate(-28.121 -8.345)"/><path fill="url(#i)" d="M101.43 33.104c22.007-7.416 47.44-1.905 64.544 13.735 34.539 28.941 56.684 70.345 68.677 113.28 2.33 9.248.08 19.516-7.026 26.152-6.97 8.319-17.076 13.088-26.106 18.8-9.972 4.863-20.145 9.692-30.72 12.975-11.861 2.421-26.242 2.076-34.743-7.879-29.47-27.59-50.751-63.23-64.431-101.02-5.074-21.32-1.88-45.838 12.074-63.279 4.685-5.656 10.661-10.5 17.737-12.757z" transform="translate(-28.121 -8.345)"/><path fill="url(#k)" d="M275.09 77.582c-25.49-.034-53.239 9.303-67.656 31.594-29.346 40.001-31.356 96.066-10.156 140.19 28.401 68.573 69.88 132.83 125.72 181.88 18.83 13.755 44.709 9.944 65.284 2.192 31.842-12.09 63.15-27.483 89.544-49.214 12.026-9.652 21.495-23.668 20.546-39.572-1.12-15.14-7.52-29.37-11.94-43.79-26.45-75.51-69.43-147.38-133.27-197.31-21.71-17.783-50.15-26.511-78.07-25.968zm18.5 35.281c33.5-.166 62.765 21.309 82.352 46.955 33.609 44.235 60.189 94.914 70.617 149.83 1.851 21.106-10.768 41.103-28.349 51.857-14.678 10.025-31.372 18.539-49.058 21.112-20.87 1.528-39.452-10.986-52.664-26.008-21.683-22.65-40.722-47.996-57.532-74.535-19.734-32.87-33.927-71.75-28.21-110.68 5.67-29.997 30.888-57.963 62.844-58.531" filter="url(#j)" opacity=".509" transform="translate(-42.638 -12.018)scale(.48995)"/><path fill="url(#l)" d="M122.63 32.817c-.456-.003-.924.008-1.378.015-7.614.126-14.954 1.734-21.313 5.221-14.298 7.84-19.752 27.815-21.282 44.05-2.629 27.888 9.472 55.994 21.772 81.162 3.115 6.375 6.124 12.078 9.095 17.133q.007.008.015.016c6.601 8.826 13.794 17.194 21.604 24.987 3.87 2.365 7.94 3.84 12.356 4.394 21.585 2.705 39.794 1.823 55.425-8.421 16.714-10.953 36.39-31.215 32.949-50.587-5.14-16.262-11.794-32.177-20.057-47.157-.065-.111-.12-.226-.184-.337-13.84-23.687-32.24-46.642-48.84-57.81-11.13-7.489-26.03-12.57-40.16-12.663zm-5.68 1.455c14.688.138 30.825 9.423 44.019 17.087 32.653 18.965 59.817 65.423 67.23 96.84 4.46 18.906-13.382 41.906-29.734 52.622-14.937 9.79-33.82 7.655-54.445 5.07-16.136-2.023-27.546-16.6-41.155-44.448-11.762-24.05-20.283-50.74-18.336-77.072 1.245-16.846 3.828-39.303 18.846-47.034 3.842-1.978 7.924-2.913 12.14-3.047.471-.015.95-.02 1.425-.015z" transform="translate(-28.121 -8.345)"/><path fill="url(#m)" d="M170.48 170.97c7.904-2.804 9.44-3.717 14.767-8.788 5.28-5.026 5.88-6.377 5.032-11.348-.545-3.2-2.126-8.172-2.936-9.236-.208-.273-2.098-3.803-4.2-7.846-10.313-19.82-24.175-40.715-32.779-49.406-4.779-4.826-10.873-7.384-20.274-8.507-4.912-.587-7.507.408-11.578 4.44-5.193 5.142-6.337 9.372-5.017 18.552 1.956 13.595 10.063 31.133 21.578 46.68 5.805 7.837 8.513 11.054 16.22 19.27 3.915 4.173 9.723 8.274 11.848 8.366.589.026 3.891-.954 7.338-2.177z" transform="translate(-28.121 -8.345)"/><path fill="url(#n)" d="M130.84 58.924c-7.609-.35-14.854 3.429-19.505 9.363-7.158 7.873-8.76 19.344-6.926 29.513 1.32 14.541 8.472 27.606 15.846 39.896 6.455 9.192 13.241 18.213 20.706 26.617 6.389 6.866 13.604 15.256 23.87 15.085 8.338-.684 15.737-5.306 22.648-9.68 6.814-4.38 12.067-12.08 10.813-20.482-1.342-9.218-4.879-17.97-8.138-26.65-5.238-11.461-10.794-22.814-18.039-33.16-8.507-12.978-19.614-26.077-35.396-29.782a28 28 0 0 0-5.88-.72zm-3.414 17.117c9.476.33 19.445 3.578 25.364 11.406 14.226 16.928 24.975 36.42 35.149 55.949 1.352 4.421 3.76 9.502 1.694 14.04-4.516 5.995-10.527 11.238-17.866 13.379-4.9 2.085-10.69 4.175-14.834-.576-9.178-7.55-16.595-17.025-23.586-26.58-9.85-14.247-18.483-30.224-20.353-47.704-.902-5.952 1.338-12.074 6.007-15.911 2.255-2.23 5.129-4.096 8.424-4.003z" transform="translate(-28.121 -8.345)"/><path fill="url(#p)" d="M128.44 65c-7.553.753-13.755 6.817-16.562 13.719 5.822-8.007 16.769-10.737 25.938-7.406 14.073 3.213 23.284 15.379 30.594 26.906 5.18 7.517 10.085 15.16 14.562 23.125-9.59-19.43-19.95-40.415-38.69-52.34-4.89-2.758-10.25-4.396-15.84-4z" filter="url(#o)" opacity=".2" transform="translate(-28.121 -8.345)"/><path fill="#fff" d="M168.19 63.423s19.659 24.839 27.779 38.386c10.385 17.324 26.552 54.468 26.552 54.468s-11.102-38.911-21.501-55.984c-8.56-14.051-32.83-36.867-32.83-36.867z" filter="url(#q)" opacity=".45" transform="scale(-1 1)rotate(57.492 32.654 -136.264)"/><path fill="url(#r)" d="M107.75 134.95c-1.303.09-2.487.64-3.66 1.654-1.832 1.584-1.919 1.789-1.898 4.532.038 4.936 3.957 11.763 7.977 13.887.989.522 2.122.958 2.526.964 1.417.021 4.832-1.853 5.436-2.985 1.193-2.069 1.41-5.121.934-7.549-.742-3.574-3.96-7.917-6.951-9.4-1.65-.819-3.06-1.193-4.364-1.103z" transform="translate(-28.121 -8.345)"/><path fill="#fff" d="M162.83 57.709s24.194 28.034 33.136 44.1c8.348 14.998 18.688 47.982 18.688 47.982s-5.433-34.478-13.637-49.497c-9.14-16.733-38.187-42.585-38.187-42.585" filter="url(#q)" opacity=".45" transform="translate(-28.121 -8.345)"/><path fill="url(#s)" d="M185.2 91.947c.705-1.1 1.755-1.875 3.207-2.417 2.27-.847 2.49-.826 4.887.509 4.313 2.402 8.422 9.116 8.356 13.662-.016 1.118-.177 2.322-.366 2.68-.661 1.252-3.944 3.35-5.227 3.335-2.388.054-5.17-1.22-7.071-2.802-2.78-2.366-5.046-7.274-4.913-10.61.074-1.839.422-3.256 1.127-4.357z" transform="translate(-28.121 -8.345)"/><g opacity=".5"><path fill="url(#t)" d="M-455.2 479.79c-1.17.016-2.277.115-3.344.281l120.72 176.62c.144-.136.26-.235.406-.375 10.778-10.257 11.981-13.01 10.25-23.156-1.114-6.53-4.315-16.67-5.968-18.844-.424-.556-4.302-7.78-8.594-16.03-.364-.7-.757-1.394-1.125-2.095l-70.188-102.72c-9.08-7.312-20.555-11.413-36.97-13.375-1.879-.224-3.588-.334-5.187-.312z" transform="translate(322.449 -167.725)scale(.48995)"/><path fill="url(#u)" d="M-463.45 481.51c-3.26 1.458-6.41 3.916-10.188 7.656-5.3 5.249-8.522 10.031-10.094 15.844l115.78 169.38c.128-.045.247-.08.375-.125 13.967-4.955 18.216-7.037 26.156-14.219l-122.03-178.54z" transform="translate(322.449 -167.725)scale(.48995)"/><path fill="url(#v)" d="M-484.76 511.39c-.318 4.405-.012 9.458.875 15.625 3.991 27.747 20.559 63.55 44.062 95.281 11.848 15.996 17.364 22.576 33.094 39.344 7.993 8.52 19.849 16.875 24.188 17.062.923.04 5.135-1.136 10.219-2.812l-112.44-164.5z" transform="translate(322.449 -167.725)scale(.48995)"/></g><path fill="url(#w)" d="M122.19 32.562c-.316.003-.628.026-.937.031-7.647.126-15.038 1.74-21.438 5.25-14.43 7.912-19.874 27.98-21.406 44.25-2.637 27.974 9.508 56.106 21.812 81.281 3.117 6.38 6.118 12.094 9.093 17.156.05.074.071.08.032.031 6.607 8.836 13.806 17.198 21.624 25l.032.032c3.896 2.382 8.017 3.88 12.469 4.437 21.608 2.709 39.895 1.85 55.594-8.437 8.378-5.49 17.492-13.331 24.094-22.22 6.601-8.887 10.706-18.844 8.969-28.624l-.032-.032c-5.144-16.277-11.79-32.223-20.062-47.219-.057-.099-.115-.22-.187-.343-13.86-23.715-32.25-46.67-48.91-57.88-11.17-7.514-26.12-12.625-40.32-12.718h-.438zm-.937.5c.455-.007.923-.003 1.374 0 14.08.092 28.946 5.165 40.032 12.625 16.539 11.129 34.925 34.052 48.75 57.719.057.099.116.221.187.344 8.25 14.956 14.897 30.855 20.031 47.094.002.01-.002.02 0 .031 1.69 9.583-2.327 19.404-8.875 28.219-6.555 8.825-15.633 16.6-23.969 22.062-15.563 10.2-33.689 11.109-55.25 8.406-4.367-.547-8.387-2.007-12.219-4.344l-.031-.03a229 229 0 0 1-21.562-24.907c-.004-.007.004-.024 0-.031-2.963-5.042-5.954-10.732-9.063-17.094-12.3-25.16-24.374-53.23-21.754-81.035 1.527-16.199 6.99-36.075 21.154-43.844 6.32-3.464 13.61-5.094 21.19-5.219zm-5.75.969c-4.248.135-8.342 1.098-12.22 3.094-7.59 3.907-12.028 11.53-14.718 20.25s-3.659 18.54-4.282 26.969c-1.951 26.399 6.611 53.147 18.375 77.219 6.81 13.933 13.06 24.53 19.656 31.938 6.597 7.407 13.554 11.606 21.688 12.625 20.628 2.585 39.564 4.756 54.594-5.094 8.21-5.38 16.782-13.826 22.75-23.312 5.969-9.487 9.346-20.017 7.094-29.562-7.431-31.496-34.592-77.977-67.344-97-13.195-7.664-29.367-16.986-44.156-17.125h-.25c-.395-.001-.796-.013-1.187 0zm.03.5c.468-.015.936-.005 1.407 0 14.586.137 30.713 9.368 43.906 17.03 32.553 18.909 59.73 65.348 67.125 96.689 2.208 9.36-1.106 19.769-7.031 29.188-5.926 9.418-14.482 17.85-22.625 23.188-14.844 9.728-33.657 7.616-54.281 5.03-8.003-1.002-14.8-5.12-21.344-12.468-6.545-7.349-12.794-17.929-19.594-31.844-11.75-24.03-20.261-50.71-18.32-76.975.624-8.419 1.583-18.223 4.25-26.875 2.67-8.652 7.04-16.113 14.47-19.938 3.807-1.96 7.845-2.898 12.03-3.031z" style="block-progression:tb;color:#000;text-transform:none;text-indent:0" transform="translate(-28.121 -8.345)"/><path fill="#1a1a1a" d="M262.135 71.405c1.01.005 1.892.049 2.603.135 2.09.248 6.498 1.353 7.174 1.796 3.922 4.112 4.598 22.426.131 29.579-.672.449-5.07 1.593-7.157 1.859-.71.093-1.592.144-2.602.158-7.07.095-20.395-1.693-24.923-4.608-2.634-1.385-5.424-3.188-7.399-4.784-2.213-1.788-3.11-2.357-4.073-2.58-.468-.11-.895-.416-1.083-.776-.283-.54-.469-.593-2.033-.592-1.15.001-1.925-.134-2.341-.404-.343-.221-.898-.402-1.23-.4-.33.002-.714-.172-.856-.386-.217-.328-1.119-.385-5.74-.365l-5.482.025-.555.814c-.493.716-.653.793-1.334.656-.014-.003-.019-.006-.032-.008l-1.426.128-.7-1.402c-.702-.072-2.016-.058-4.628.013-7.978.214-64.836.928-76.084.955-8.768.02-10.166-.027-10.438-.368-.28-.35-.37-1.22-.285-2.013-.092-.794-.009-1.663.267-2.015.27-.344 1.666-.404 10.434-.461 11.248-.073 68.11.136 76.09.28 2.613.046 3.927.049 4.627-.03l.688-1.407 1.427.115.032-.008c.68-.143.841-.068 1.34.644l.563.81 5.481-.025c4.622-.02 5.523-.086 5.737-.415.14-.215.522-.392.853-.394s.885-.186 1.226-.411c.414-.274 1.187-.416 2.337-.425 1.564-.012 1.75-.068 2.028-.61.185-.361.61-.672 1.076-.785.96-.232 1.853-.809 4.05-2.617 1.961-1.613 4.735-3.44 7.356-4.848 4.502-2.956 17.811-4.862 24.881-4.83z"/><path fill="#666" d="m169.11 296.11 105-.179-.357 1.429-104.82 1.071z" filter="url(#x)" opacity=".5" transform="translate(-56.405 -208.355)"/><path fill="#333" d="M317.53 282.15c-11.367.265-23.231 2.556-31.688 10.812-1.87 1.141-4.058 1.475-2.781 4.531-.85 3.466 4.156 3.28 5.656 5.75 9.517 7.68 22.722 8.978 34.384 7.949 4.213.289 5.901-3.251 6.147-6.98.919-6.73 1.38-14.329-1.844-20.531-3.235-1.022-6.473-1.8-9.875-1.531z" filter="url(#y)" opacity=".5" transform="translate(-56.405 -208.355)"/><path fill="url(#z)" d="m297.03 288.02 30.277-1.833-30.277 3.976z" transform="translate(-56.405 -208.355)"/><path fill="url(#A)" d="m297.01 295.87 31.161 1.071-31.161 1.072z" transform="translate(-56.405 -208.355)"/><path fill="url(#B)" d="m295.12 302.01 30.782 4.86-30.782-2.717z" transform="translate(-56.405 -208.355)"/><path fill="url(#C)" d="M190.26 89.349c-.44.069-.94.24-1.67.512-1.388.519-2.4 1.262-3.074 2.314a5.7 5.7 0 0 0-.615 1.317l10.966 15.666h.03c1.227.014 4.374-1.993 5.007-3.191.095-.18.17-.588.234-1.084l-10.88-15.53z" transform="translate(-28.121 -8.345)"/><path fill="url(#E)" d="m113.35 88.956-.812.563 50.893 76.607.812-.563z" filter="url(#D)" opacity=".3" style="block-progression:tb;color:#000;text-transform:none;text-indent:0" transform="translate(-28.121 -8.345)"/><path fill="url(#G)" d="m125.85 76.456-.812.563 53.036 80.893.812-.563z" filter="url(#F)" opacity=".3" style="block-progression:tb;color:#000;text-transform:none;text-indent:0" transform="translate(-28.121 -8.345)"/><path fill="#1a1a1a" d="M23.542 200.262c-.53.86-.96 1.63-1.264 2.28-.896 1.903-2.293 6.229-2.275 7.036 1.413 5.505 16.59 15.774 25.024 15.772.737-.332 4.036-3.458 5.367-5.088.454-.554.965-1.274 1.51-2.124 3.824-5.947 9.362-18.198 9.287-23.583.22-2.967.167-6.288-.141-8.809-.346-2.824-.353-3.887-.034-4.822.156-.454.122-.979-.083-1.329-.309-.526-.256-.712.574-2.038.61-.976.905-1.704.897-2.2-.007-.408.134-.975.31-1.255.178-.28.233-.697.126-.93-.163-.359.266-1.154 2.73-5.064l2.923-4.637.985-.04c.869-.039 1.018-.134 1.263-.784.004-.013.005-.02.01-.032l.864-1.142-.819-1.336c.31-.633 1.018-1.74 2.46-3.919 4.407-6.655 35.114-54.512 41.092-64.04 4.66-7.428 5.36-8.639 5.214-9.05-.15-.423-.839-.959-1.557-1.308-.624-.498-1.406-.888-1.851-.84-.434.047-1.225 1.2-5.915 8.608-6.017 9.504-35.944 57.852-40.047 64.699-1.343 2.24-2.037 3.357-2.474 3.91l-1.559-.162-.658 1.272c-.01.01-.015.012-.023.023-.481.5-.503.677-.164 1.477l.39.906-2.923 4.637c-2.464 3.91-2.997 4.64-3.39 4.647-.256.005-.609.236-.785.516s-.627.651-.998.822c-.452.206-.981.787-1.598 1.758-.839 1.32-.984 1.448-1.591 1.397-.405-.034-.892.161-1.235.498-.706.692-1.668 1.143-4.365 2.05-2.407.81-5.426 2.195-8.008 3.673-4.89 2.254-13.554 12.536-17.27 18.551z"/><path fill="#666" d="m169.11 296.11 105-.179-.357 1.429-104.82 1.071z" filter="url(#x)" opacity=".5" transform="scale(-1 1)rotate(58.033 219.159 -68.345)"/><path fill="#333" d="M317.53 282.15c-11.367.265-23.231 2.556-31.688 10.812-1.87 1.141-4.058 1.475-2.781 4.531-.85 3.466 4.156 3.28 5.656 5.75 9.517 7.68 22.722 8.978 34.384 7.949 4.213.289 5.901-3.251 6.147-6.98.919-6.73 1.38-14.329-1.844-20.531-3.235-1.022-6.473-1.8-9.875-1.531z" filter="url(#y)" opacity=".5" transform="scale(-1 1)rotate(58.033 219.159 -68.345)"/><path fill="url(#z)" d="m297.03 288.02 30.277-1.833-30.277 3.976z" transform="scale(-1 1)rotate(58.033 219.159 -68.345)"/><path fill="url(#A)" d="m297.01 295.87 31.161 1.071-31.161 1.072z" transform="scale(-1 1)rotate(58.033 219.159 -68.345)"/><path fill="url(#B)" d="m295.12 302.01 30.782 4.86-30.782-2.717z" transform="scale(-1 1)rotate(58.033 219.159 -68.345)"/><path fill="url(#H)" d="M107.61 135.87c-.44.069-.94.24-1.67.512-1.388.519-2.4 1.262-3.074 2.314a5.7 5.7 0 0 0-.615 1.317l10.966 15.666h.03c1.227.014 4.374-1.993 5.007-3.191.095-.18.17-.588.234-1.084z" transform="translate(-28.121 -8.345)"/><path fill="#fff" d="M140.06 195.33s29.078-4.372 42.395-10.195c14.783-6.464 40.262-26.865 40.262-26.865s-19.032 32.178-35.155 38.963c-14.606 6.147-47.502-1.903-47.502-1.903z" filter="url(#I)" opacity=".45" transform="rotate(-4.513 40.384 530.788)"/><path fill="#faa" d="M91.374 85.872s9.257-26.697 20.754-32.346c13.121-6.447 43.692 3.807 43.692 3.807s-34.41-23.358-49.878-15.39c-13.715 7.064-14.568 43.93-14.568 43.93z" filter="url(#J)" opacity=".4" transform="translate(-28.121 -8.345)"/><path fill="url(#K)" d="M55.094 38.125C41.536 55.526 38.482 79.731 43.5 100.81c.524 1.45 1.078 2.87 1.625 4.31-1.101-12.645-1.721-26.868-.187-36.558 1.344-8.495 5.818-20.304 10.156-30.437"/><path fill="url(#L)" d="M114.28 204.62c-.95.05-1.99.18-3.06.35 8.62 6.84 21.02 6.85 31.47 4.72 3.34-1.04 6.63-2.23 9.9-3.53-.64-.31-1.26-.59-1.87-.82-7.07-2.65-14.97 2.94-22.5 2.5-4.76-.27-9.18-3.44-13.94-3.22"/><path fill="url(#M)" d="m207.03 154.34-13.53 29.41c2.16-1.76 4.19-3.65 6-5.81 6.46-6.03 8.88-15.06 7.53-23.6"/><path fill="url(#O)" d="M106.75 138.22c-5.02 1.364 1.532 5.627 2.378 8.141 2.309 1.774 3.894 9.635 7.185 5.39-3.195-4.48-6.331-9.2-9.563-13.53z" filter="url(#N)" opacity=".4" transform="translate(-28.121 -8.345)"/><path fill="url(#P)" d="M189.33 91.499c-5.02 1.364 1.532 5.627 2.378 8.141 2.309 1.774 3.894 9.635 7.185 5.39-3.195-4.48-6.331-9.2-9.563-13.53z" filter="url(#N)" opacity=".4" transform="translate(-28.121 -8.345)"/><path fill="#fff" d="M57.579 49.882s-5.454 18.677-5.556 28.284c-.156 14.697 3.461 29.156 7.576 43.437 0 0-4.7-23.456-5.05-35.355-.358-12.159 3.03-36.365 3.03-36.365z" filter="url(#Q)" opacity=".2"/><path fill="#fff" d="M57.579 49.882s-5.454 18.677-5.556 28.284c-.156 14.697 3.461 29.156 7.576 43.437 0 0-4.7-23.456-5.05-35.355-.358-12.159 3.03-36.365 3.03-36.365z" filter="url(#Q)" opacity=".2" transform="scale(-1 1)rotate(61.756 2.1 -91.408)"/><path d="M127.43 76.032c-3.296-.093-6.183 1.771-8.437 4-4.605 3.783-6.835 9.814-6.032 15.688a31.34 31.34 0 0 1 9.344-11.125c5.349-3.97 11.563-5.968 17.844-6.156-4.063-1.494-8.438-2.258-12.719-2.406z" opacity=".2" style="color:#000" transform="translate(-28.121 -8.345)"/><path fill="url(#R)" d="M187.18 142c-.633 9.162-4.97 17.873-12.719 23.625-4.818 3.576-10.33 5.535-15.969 6.031 3.963 2.825 8.969.992 13.281-.844 7.339-2.141 13.328-7.38 17.844-13.375 2.065-4.538-.336-9.61-1.687-14.03-.246-.471-.504-.936-.75-1.407z" opacity=".2" style="color:#000" transform="translate(-28.121 -8.345)"/></svg>