<svg xmlns="http://www.w3.org/2000/svg" viewBox="0 0 157.76 133.35"><path fill="#dde9af" d="M132.82 66.26c24.749 5.79 41.524 67.264-62.082 67.092-93.79-.156-26.221-39.079-26.221-73.658s7.792-55.758 67.132-55.035c54.48.664 59.556 56.821 21.17 61.601z"/><path fill="#cdde87" d="M14.845 117.13c-25.024-18.87-15.507-63.1 7.071-67.68C5.328-8.139 71.683-7.186 80 11.063c36.072-11.997 79.044 14.212 24.244 57.074 5.05 2.02 13.513 9.163 18.183 15.657 5.731 7.97 11.617 24.749 11.112 27.274s-29.8 19.698-29.8 19.698z"/><path fill="#89a02c" d="M33.84 106.85h78.181l29.005 12.509-133.59.347z"/><path fill="#c87137" d="M72.41 40.48s8.085.124 12.254 1.167c4.17 1.042 5.12 18.639 3.73 21.419S87.35 70.71 87.35 70.71s-6.602 0-7.992-2.085-6.95-28.145-6.95-28.145z"/><path fill="#fca" stroke="#deaa87" stroke-width=".486" d="M71.17 56.98c-.065 4.148 1.524 9.526-1.792 12.723-2.925 1.998-5.35 1.251-7.634 2.688-6.01 3.781-10.594 11.3-15.077 15.05-8.945 4.079-14.697 10.368-23.642 14.446-1.477-.347-3.043-1.193-4.466-1.228-1.339 1.023-3.025 2.914-4.364 3.936 1.78 1.395 3.929-1.888 5.693-2.025 1.471.46 2.956 1.385 4.419 1.571 8.258-3.783 16.941-11.664 25.24-15.344 7.732-5.547 11.449-8.776 16.087-10.95 1.262 3.866 2.856 6.212 3.57 10.3 1.793 7.519.15 15.397-2.701 22.435 4.251-.192 9.98-.559 14.231-.751-.748-3.965-1.992-8.506-1.531-12.558-.211-2.369-1.191-4.482-1.183-6.587-2.38-3.662 3.51-2.155 3.296-5.751 1.548-2.179 1.966-5.434 2.727-6.63 2.401 2.38 12.506 9.638 16.216 10.968 2.509 2.325 14.208 9.704 24.468 12.743 2.26.918 4.979-1.267 5.36.318 3.915 5.807 2.201.438 1.67-1.685-1.742-1.864-7.356.22-7.997-.961-5.96-3.143-14.367-7.634-20.683-12.024A722 722 0 0 1 88.689 73.79c-2.66-2.575-7.473-1.51-9.59-4.302-1.378-1.815-1.618-3.75-1.015-6.761-.284-1.91 2.878-5.787-.586-5.23z"/><path fill="#deaa87" d="M74.73 75.59s1.51 3.31.108 4.975"/><path fill="#ff0" stroke="#ffd42a" stroke-width=".472" d="M64.96 71.14c.54 1.066.083 4.885 1.082 8.113-2.514 1.452-.368 3.774 1.872 4.725 1.205 2.595 1.555 11.287 1.486 14.028l10.19.072c-.1-5.099.09-9.948 3.277-13.886 3.11-1.915 2.36-3.022 1.12-4.5-.222-1.753-.207-7.584-.439-8.46-.246-.926-1.959-.41-1.959-.41.19 2.164.325 7.101.489 9.068-3.796.611-5.138 1.115-6.865-.98-2.888 2.283-4.767 1.099-6.921.979-.544-3.18-.028-7.068-.428-9.093-.678-1.029-2.904.344-2.904.344z"/><path fill="#fca" stroke="#deaa87" d="M271.36 377.44s.168-.694-3.314-3.007-6.199-.503-5.661 1.832c.537 2.335.332 2.907.259 4.726-.073 1.82-1.85 3.469-1.963 7.037-.146 4.598 2.66 7.502 4.816 6.187s5.108-3.464 5.108-3.464z" transform="matrix(.26587 0 0 .33266 -6.362 -71.896)"/><path fill="#deaa87" d="M64.943 54.42s.017-.126-.321-.545-.602-.091-.55.331c.053.423.033.527.026.857s-.18.628-.19 1.274c-.015.833.257 1.36.466 1.12.21-.237.496-.626.496-.626z"/><path fill="#fca" stroke="#deaa87" d="M271.36 377.44s.168-.694-3.314-3.007-6.199-.503-5.661 1.832c.537 2.335.332 2.907.259 4.726-.073 1.82-1.85 3.469-1.963 7.037-.146 4.598 2.66 7.502 4.816 6.187s5.108-3.464 5.108-3.464z" transform="matrix(-.26264 -.0655 -.03252 .32863 166.91 -53.087)"/><path fill="#deaa87" d="M84.121 54.13s-.003-.128.371-.458c.375-.331.603.058.51.463s-.083.512-.108.84.116.664.064 1.305c-.068.827-.388 1.28-.572.992-.183-.287-.428-.742-.428-.742z"/><path fill="#fca" stroke="#deaa87" stroke-width=".94" d="M340.68 403.35c-1.71 11.555-19.405 20.182-29.605 19.038-14.587-1.636-27.086-11.525-26.677-23.08-2.76-9.269 7.125-27.664 33.677-24.293 19.897 2.526 24.314 16.779 22.605 28.334z" transform="matrix(.34194 0 0 .54284 -32.41 -161.34)"/><path fill="#fff" d="M72.023 56.861c-.188 1.272-1.386 1.495-2.631 1.285-1.246-.21-2.066-.774-1.879-2.045.188-1.272 1.38-2.34 2.626-2.13s2.072 1.619 1.884 2.89"/><path fill="#abc837" d="M69.726 54.948c-.654.03-1.21.612-1.313 1.424-.117.928.411 1.802 1.18 1.954.77.152 1.487-.475 1.604-1.403s-.41-1.803-1.18-1.955a1.2 1.2 0 0 0-.29-.02"/><path fill="#22280b" d="M70.613 56.85c-.06.482-.466.802-.905.715s-.747-.548-.686-1.029.466-.8.905-.714.747.547.686 1.029"/><path fill="#668000" d="M72.293 56.305c-.185.384-1.002-.829-2.247-1.075s-2.427.403-2.43-.104c-.013-1.508 1.397-1.8 2.642-1.555s2.222 1.244 2.035 2.734"/><path fill="#fff" d="M69.322 56.958c-.032.252-.295.41-.588.351s-.505-.309-.473-.561.295-.41.588-.352.505.31.473.562"/><path fill="#803300" d="M69.42 54.774s-.824-.205-1.162-.484c-.339-.28-1.082-.852-1.082-.852l.24.515-.895-.984.258.646-1.1-.983.776 1.131s.46.39.654.47.765.406.964.445c.199.04 2.183.474 2.183.474z"/><path fill="#fff" d="M76.26 56.288c-.238 1.265.61 1.941 1.847 2.207s2.392.02 2.629-1.245-.534-2.713-1.77-2.978-2.47.75-2.706 2.016"/><path fill="#abc837" d="M77.156 56.397c-.148.921.351 1.823 1.114 2.015s1.503-.4 1.65-1.32-.351-1.824-1.115-2.016-1.502.4-1.65 1.32"/><path fill="#22280b" d="M77.756 56.465c-.077.478.215.954.651 1.063s.852-.189.929-.666-.215-.954-.652-1.063-.852.188-.928.666"/><path fill="#668000" d="M76.299 55.385c.066.404 1.467-.346 2.703-.062 1.236.285 1.866 1.345 2.01.911.43-1.291-.811-2.104-2.047-2.389s-2.43.185-2.666 1.54"/><path fill="#fff" d="M77.025 56.925c-.04.25.163.512.454.585s.56-.07.6-.321c.04-.25-.164-.512-.455-.585s-.559.07-.599.32"/><path fill="#803300" d="M79.43 55.266s.83.165 1.225.05a48 48 0 0 1 1.251-.329l-.369.38 1.113-.535-.421.494 1.304-.444-1.041.724s-.54.164-.744.156-.83.049-1.027-.001c-.198-.05-2.18-.504-2.18-.504z"/><path fill="#deaa87" d="M73.003 60.226c-1.616-1.238-.3-4.557 2.387-1.37-1.691-.755-2.741-.154-2.387 1.37"/><path fill="#f55" d="M72.166 63.195c.992-.077.83-.636 1.598-.632.383-.058.623.543 1.008.465.571-.267.547-.518 1.113-.41.533.43.635.725 1.429.9-.921.378-.908 1.011-1.825 1.236-.356.109-.607-.047-.906-.146-.421-.077-.792.248-1.214.118-.655-.453-.995-.963-1.203-1.531"/><path fill="none" stroke="#ffd42a" stroke-linecap="round" stroke-linejoin="round" stroke-width=".373" d="M73.48 82.85s-2.293 1.523-5.413 1.088"/><path fill="none" stroke="#ffd42a" stroke-linecap="round" stroke-linejoin="round" stroke-width=".461" d="M76.29 82.66s.624 3.607 6.85 1.11"/><path fill="#fca" stroke="#deaa87" stroke-width=".48646" d="M77.097 103.207s9.882 3.078 17.6 4.654 7.132.22 8.466.33c1.335.11 15.328 4.428 21.674 4.132 0 0 2.804-5.012 3.3-7.788.11-.607-.503-1.394-.086-1.849.42-.458 1.455-.54 1.865-.072.93 1.063-.73 4.175-.73 4.175s-.696.775-1.175 2.457c-.49 1.724 1.02 2.097.28 5.02-.166.655-3.453-.38-6.488-.198-10.5.625-10.762-1.465-19.201-2.396 0 0-14.234.363-16.458.3s-9.848-1.372-9.848-1.372 1.253-6.748.801-7.394z"/><path fill="#c83737" d="M128.57 104.333c.238.022.464-.308.504-.738s-.121-.796-.36-.819-.465.309-.505.739.122.796.36.818"/><path fill="#fca" stroke="#deaa87" stroke-width=".48646" d="M69.973 103.207s-9.882 3.078-17.6 4.654-7.132.22-8.466.33c-1.335.11-15.328 4.428-21.674 4.132 0 0-2.804-5.012-3.3-7.788-.11-.607.503-1.394.086-1.849-.42-.458-1.455-.54-1.865-.072-.93 1.063.098 3.923.098 3.923s1.23.742 1.578 2.456c.23 1.13-2.038 4.622-.437 5.85.535.41 3.984-.872 6.874-.775 8.348.279 10.762-1.465 19.201-2.396 0 0 14.234.363 16.458.3s9.848-1.372 9.848-1.372-1.253-6.747-.801-7.393z"/><path fill="#c83737" d="M18.5 104.333c-.238.022-.464-.308-.504-.738s.121-.796.36-.819.465.309.505.739-.122.796-.36.818"/><path fill="#501616" stroke="#280b0b" stroke-width=".48646" d="M52.37 107.862c-2.94.6-4.667.768-5.763.76v3.086c3.054.076 12.418.313 14.32.259 2.225-.063 11.882-1.49 11.882-1.49s9.007 1.293 13.339 1.49c1.902.054 11.266-.183 14.32-.259v-3.086c-1.095.008-2.823-.16-5.761-.76-6.056-1.236-14.686-4.754-14.779-5.326.32-3.273-1.632-1.198-5.147-1.182-3.971.018-5.604-3.36-6.198 2.193-4.588.726-11.973 3.42-16.214 4.315z"/><path fill="#803300" d="M76.23 53.25c1.106-1.185 4.754-1.678 6.08-1.086M73.19 52.99c-1.106-1.185-4.754-1.678-6.08-1.086"/><path fill="#ffd5d5" d="M72.78 63.56s1.72.676 2.58.43c-.538.705-2.255.185-2.58-.43"/><path fill="#c87137" d="M74.4 46.25s-4.951-1.558-6.95.164c-.5.432-2.345 6.887-2.345 6.887l-1.477-.984s-1.042-7.543.608-8.937 2.172-4.345 8.861-3.771c1.817.156 4.217-.8 8.426 1.312 3.852 1.932 3.301 6.723 3.301 7.46s-.868 5.74-.868 5.74-.435-5.657-1.303-6.313c-.87-.656-2.172-2.46-3.215-2.296s-5.038.738-5.038.738"/><path fill="#ff0" stroke="#ffd42a" stroke-width=".486" d="M63.77 45.53c-.259.383-.656 1.649-.135 2.157 1.65 1.607 5.632 4.078 10.765 4.078s10.172-2.384 10.172-4.686c0-.306.085-1.464-.054-1.75-1.15 1.717-5.732 4.353-9.936 4.353-4.454 0-9.906-2.275-10.813-4.152z"/><path fill="#fd5" d="M64.714 58.98c0 .593-.198 1.073-.442 1.073s-.442-.48-.442-1.073.198-1.073.442-1.073.442.48.442 1.073M85.424 58.85c0 .593-.198 1.073-.442 1.073s-.442-.48-.442-1.073.198-1.073.442-1.073.442.48.442 1.073"/></svg>