<svg xmlns="http://www.w3.org/2000/svg" width="830.347" height="765.914" viewBox="0 0 219.696 202.648"><g transform="matrix(1.25165 0 0 1.25165 -51.737 -122.434)"><path d="m124.355 107.87-.025 50.382-.314 82.489c-1.338.276-29.097 5.894-46.374.443-15.555-4.908-29.67-37.427-31.535-45.714l.33 13.798s14.769 31.133 28.573 38.79c13.805 7.658 48.56 5.372 48.56 5.372l11.327-.03s34.483 1.333 48.287-6.324 28.574-38.79 28.574-38.79l.33-13.796c-1.868 8.29-15.982 40.804-31.536 45.712-17.29 5.455-44.538.913-45.836.645l-.928-82.66-.002-50.261z" style="fill:#000;stroke:#000;stroke-width:.24273485px;stroke-linecap:butt;stroke-linejoin:miter;stroke-opacity:1"/><path d="M129.097 105.824a7.96 7.96 0 0 0-7.961 7.962 7.96 7.96 0 0 0 7.961 7.961 7.96 7.96 0 0 0 7.962-7.961 7.96 7.96 0 0 0-7.962-7.962m.225.916c3.511.09 6.607 3.003 6.8 6.563.717 5.933-7.187 9.953-11.557 5.87-4.867-3.67-2.042-12.314 4.05-12.413q.355-.03.707-.02" style="opacity:.98900003;fill:#000;fill-opacity:1;stroke:none;stroke-width:.24313137;stroke-miterlimit:4;stroke-dasharray:none;stroke-dashoffset:0;stroke-opacity:1"/><ellipse cx="129.097" cy="108.949" rx="6.169" ry="6.48" style="opacity:.98900003;fill:#000;fill-opacity:1;stroke:none;stroke-width:.5750342;stroke-miterlimit:4;stroke-dasharray:none;stroke-dashoffset:0;stroke-opacity:1"/><ellipse cx="129.097" cy="142.2" rx="6.931" ry="13.037" style="opacity:.98900003;fill:#000;fill-opacity:1;stroke:none;stroke-width:.86447662;stroke-miterlimit:4;stroke-dasharray:none;stroke-dashoffset:0;stroke-opacity:1"/><g transform="matrix(.71273 0 0 .71273 36.47 23.413)"><path d="M71.246 163.755h115.702v5.043H71.246Z" style="opacity:.98900003;fill:#000;fill-opacity:1;stroke:none;stroke-width:1.16089547;stroke-miterlimit:4;stroke-dasharray:none;stroke-dashoffset:0;stroke-opacity:1"/><circle cx="71.654" cy="166.276" r="6.088" style="opacity:.98900003;fill:#000;fill-opacity:1;stroke:none;stroke-width:.5291667;stroke-miterlimit:4;stroke-dasharray:none;stroke-dashoffset:0;stroke-opacity:1"/><circle cx="188.269" cy="166.276" r="6.088" style="opacity:.98900003;fill:#000;fill-opacity:1;stroke:none;stroke-width:.5291667;stroke-miterlimit:4;stroke-dasharray:none;stroke-dashoffset:0;stroke-opacity:1"/></g><path d="M129.097 132.157a9.68 9.68 0 0 0-9.679 9.68 9.68 9.68 0 0 0 9.68 9.678 9.68 9.68 0 0 0 9.678-9.679 9.68 9.68 0 0 0-9.679-9.68m.273 1.114c4.27.109 8.033 3.65 8.268 7.979.87 7.213-8.738 12.1-14.05 7.137-5.917-4.463-2.483-14.971 4.922-15.091q.433-.037.86-.025" style="opacity:.98900003;fill:#000;fill-opacity:1;stroke:none;stroke-width:.29557666;stroke-miterlimit:4;stroke-dasharray:none;stroke-dashoffset:0;stroke-opacity:1"/><ellipse cx="129.097" cy="245.611" rx="11.367" ry="9.461" style="opacity:.98900003;fill:#000;fill-opacity:1;stroke:none;stroke-width:1.03439164;stroke-miterlimit:4;stroke-dasharray:none;stroke-dashoffset:0;stroke-opacity:1"/></g></svg>