<svg xmlns="http://www.w3.org/2000/svg" version="1.0" viewBox="0 0 90.281 107.32"><defs><radialGradient id="a" cx="438.02" cy="-641.73" r="263.41" gradientTransform="matrix(1.0773 0 0 .36281 -33.854 -269.77)" gradientUnits="userSpaceOnUse"><stop offset="0" stop-color="#09a0ff"/><stop offset="1" stop-color="#1254f5" stop-opacity="0"/></radialGradient></defs><path fill="#d89055" fill-rule="evenodd" stroke="#000" stroke-width=".5623199999999999" d="m76.873 59.726-62.816 1.652s.309 2.104 1.439 4.493c2.762 1.448 4.186 5.366 7.156 5.097 3.637-.33 4.96-3.972 10.911-4.303s5.952 3.637 10.911 3.967c4.96.33 7.271-4.628 13.552-4.628 5.424 0 7.154 3.45 10.715 4.393z"/><path fill="url(#a)" fill-rule="evenodd" d="M195.97-471.55s50.44-31.04 75.67-31.04c25.22 0 32.98 34.92 54.33 32.98 21.34-1.94 29.1-23.28 64.02-25.22 34.93-1.94 34.93 21.34 64.03 23.28 29.11 1.94 42.69-27.16 79.55-27.16 36.87 0 44.63 27.16 73.74 27.16 29.1 0 15.52-25.22 64.02-25.22 48.51 0 50.45 3.88 50.45 3.88L613.13-256.18l-395.82-11.64z" transform="translate(-32.893 150.976)scale(.1704)"/><path fill="none" stroke="#000" stroke-width=".6816" d="M.335 70.624s8.595-5.29 12.894-5.29 5.62 5.95 9.258 5.62 4.959-3.967 10.91-4.297 5.951 3.636 10.91 3.967 7.275-4.629 13.556-4.629c6.282 0 7.605 4.629 12.565 4.629s2.645-4.298 10.909-4.298c8.266 0 8.597.661 8.597.661"/><path fill="none" stroke="#000" stroke-width=".46971" d="M81.59 25.733z"/><path fill="#fff" fill-rule="evenodd" stroke="#000" stroke-width="1.174275" d="M46.544 58.298 46.192.594s-.348 34.5-7.036 43.908-23.228 14.11-23.228 14.11zM48.78 3.661s18.23 34.886 19.596 41.626c1.367 6.745.911 12.316.911 12.316l-20.051-.296z"/></svg>