<svg xmlns="http://www.w3.org/2000/svg" xmlns:xlink="http://www.w3.org/1999/xlink" version="1.0" viewBox="0 0 200 200"><defs><linearGradient id="a"><stop offset="0" stop-color="#ebebec"/><stop offset="1" stop-color="#fefeff"/></linearGradient><linearGradient xlink:href="#a" id="b" x1="329.71" x2="10.363" y1="704.69" y2="728.42" gradientTransform="matrix(.59779 0 0 .16031 73.981 14.878)" gradientUnits="userSpaceOnUse"/><linearGradient xlink:href="#a" id="c" x1="171.14" x2="154.93" y1="331.53" y2="376.78" gradientTransform="matrix(.28644 0 0 .33456 73.981 14.878)" gradientUnits="userSpaceOnUse"/><linearGradient id="d" x1="615.23" x2="624.07" y1="18.839" y2="19.561" gradientTransform="matrix(.24433 0 0 2.5519 33.386 28.261)" gradientUnits="userSpaceOnUse"><stop offset="0" stop-color="#dfcba7"/><stop offset="1" stop-color="#f1dbb4"/></linearGradient><linearGradient xlink:href="#a" id="e" x1="263.73" x2="315.17" y1="286.68" y2="320.09" gradientTransform="matrix(.32114 0 0 .29842 73.981 14.878)" gradientUnits="userSpaceOnUse"/><linearGradient xlink:href="#a" id="f" x1="342.4" x2="438.46" y1="316.67" y2="347.91" gradientTransform="matrix(.27242 0 0 .35178 73.981 14.878)" gradientUnits="userSpaceOnUse"/><linearGradient xlink:href="#a" id="g" x1="407.42" x2="515.51" y1="276.01" y2="344.27" gradientTransform="matrix(.28176 0 0 .34012 73.981 14.878)" gradientUnits="userSpaceOnUse"/><linearGradient xlink:href="#a" id="h" x1="760.55" x2="612.6" y1="358.19" y2="329.76" gradientTransform="matrix(.27906 0 0 .34341 73.981 14.878)" gradientUnits="userSpaceOnUse"/><linearGradient xlink:href="#a" id="i" x1="52.563" x2="262.78" y1="800.69" y2="779.94" gradientTransform="matrix(.60978 0 0 .15716 73.981 14.878)" gradientUnits="userSpaceOnUse"/><linearGradient id="j" x1="227.92" x2="232.89" y1="29.656" y2="32.984" gradientTransform="matrix(.6504 0 0 .95865 33.386 28.261)" gradientUnits="userSpaceOnUse"><stop offset="0" stop-color="#084700"/><stop offset="1" stop-color="#086200"/></linearGradient><linearGradient id="k" x1="160.61" x2="83.461" y1="67.483" y2="168.11" gradientTransform="matrix(2.3638 0 0 .26377 33.386 28.261)" gradientUnits="userSpaceOnUse"><stop offset="0" stop-color="#fff"/><stop offset="1" stop-color="#fff" stop-opacity="0"/></linearGradient></defs><g fill-opacity=".124" fill-rule="evenodd"><path d="M7.842 177.464c-4.283-.259 4.787-2.886 6.046-3.692.643-.23 1.921-1.022 2.83-1.303.015 0 .072-.02.09-.014l1.617-.833c-.095.028-.16.028-.26.056l10.551-5.423c.093-.014.164-.02.255-.035l7.79-4 .133-.133 10.208-14.291c-15.265-.21-29.988-.77-44.102-1.716l67.534-20.716c33.71-2.648 68.892-1.926 88.003.133l-18.543 19.51c-18.34 1.262-36.093 2.11-53.25 2.544l-46.29 14.235-.85.315-8.36 4.323c-.016.014.012.007-.009.02 26.38-1.127 42.92 2.649 85.194.617-5.05.974-17.24 2.102-20.372 2.305.939.651 7.566 2.074 9.549 2.57-41.179 1.255-52.535-2.283-83.716-.65.003-.008-.015-.008-.015-.015l-2.734 1.415c-.027.043.022.064-.015.106-.274.3-1.454.763-1.901 1.085-.368.274-4.482 3.994-9.381 3.587z"/><path d="M95.894 125.385c-11.307 1.142-23.076-.273-33.823 4.05l-51.077 15.657c12.909.84 25.844 1.023 38.772 1.373-3.016 4.497-7.72 10.263-9.72 13.99 15.797-4.694 31.497-10.025 47.35-14.34 17.339-.498 34.663-1.352 51.974-2.494 5.373-5.647 10.74-11.293 16.113-16.94-19.812-1.814-39.721-1.709-59.59-1.296M29.602 167.46c-6.164 2.298-3.514 2.634 1.638 2.095 21.416-.427 43.273 1.723 64.388 1.149-4.505-2.018-3.972-1.955-8.078-1.681-19.244-.197-38.46-1.927-57.707-1.142v-.547zm-7.267 2.305c2.33 1.086 1.257-2.326 0 0m1.532.568c.093.084.085-.126 0 0"/><path d="M95.978 126.786c-12.379.876-25.157.204-36.842 5.01-13.333 4.09-26.665 8.175-39.998 12.266 11.091.588 22.197.77 33.3 1.072-3.006 4.28-6.185 8.434-9.022 12.827 14.837-4.526 29.661-9.38 44.639-13.268 16.911-.568 33.815-1.38 50.699-2.452q6.83-7.176 13.66-14.362c-18.774-1.702-37.612-1.205-56.436-1.093"/></g><path fill="url(#b)" fill-rule="evenodd" d="M90.078 127.67c66.042-6.29 130.53-5.47 192.55 2.48l-27.86 44.89c-41.69 2.58-84 3.3-126 .31l-38.692-47.68z" transform="translate(-20.203 3.102)scale(.70055)"/><path fill="url(#c)" fill-rule="evenodd" d="M90.388 127.67s29.722 2.79 38.072.93c-3.4 7.12.62 44.27.62 44.27s-37.454-44.27-38.692-45.2" transform="translate(-20.203 3.102)scale(.70055)"/><path fill="#f4d398" fill-rule="evenodd" d="m110.702 68.577.238-21.55-1.527.234-.231 21.901z"/><path fill="url(#d)" fill-rule="evenodd" d="M183.18 93.797V62.701l2.68.167.33 31.263z" transform="translate(-20.203 3.102)scale(.70055)"/><path fill="url(#e)" fill-rule="evenodd" d="m185.83 91.266 1.06-.43 27.94 59.434c-1.23-.31-63.77-6.19-63.77-6.19l32.29-53.788z" transform="translate(-20.203 3.102)scale(.70055)"/><path fill="url(#f)" fill-rule="evenodd" d="m183.42 90.305-39.79 51.915 39.02.14z" transform="translate(-20.203 3.102)scale(.70055)"/><path fill="url(#g)" fill-rule="evenodd" d="m186.72 90.9 42.66 52.87-42.37-1.68z" transform="translate(-20.203 3.102)scale(.70055)"/><path fill="url(#h)" fill-rule="evenodd" d="M281.7 130.15s-27.86-1.24-36.53-.93c-1.86 8.98 7.74 45.2 7.74 45.2 1.86-5.88 27.55-43.34 28.79-44.27" transform="translate(-20.203 3.102)scale(.70055)"/><path fill="url(#i)" fill-rule="evenodd" d="M90.078 127.67c77.492 13.52 127.44 11.25 192.55 2.48l-27.86 44.89c-33.02 4.74-85.24 6.39-126 .31l-38.692-47.68z" transform="translate(-20.203 3.102)scale(.70055)"/><path fill="url(#j)" fill-rule="evenodd" d="M183.09 66.983c-.51-.645-.13-2.479-.41-3.006.46-1.862-5.15-7.889 1.68-8.482 8.11-.928 3.61 7.615 3.38 8.236-.27.751.13 1.831-.32 2.526-.35.519-.81.97-1.42 1.254-1.04.361-1.9-.782-2.91-.528" transform="translate(-20.203 3.102)scale(.70055)"/><path fill="#fff" fill-opacity=".564" d="M108.852 44.308c-.455.632-1.162.9-1.583.6s-.4-1.057.056-1.689c.449-.632 1.156-.9 1.576-.6s.4 1.057-.049 1.689"/><path fill="#00199f" fill-rule="evenodd" d="M107.984 51.3c.581.636 1.457.75 2.115.888.302.012.624-.07.834-.248 27.994 2.634 46.25-3.089 84.977-1.063-2.95.8-12.35 3.092-14.558 4.14 2.732.332 12.736 2.154 15.889 3.728-38.306-3.28-62.216 2.813-86.392.992-.147.34-.336.465-.581.567-.715.332-1.59.142-2.305-.272z"/><path fill-opacity=".184" fill-rule="evenodd" d="M107.984 51.3c.581.636 1.457.75 2.115.888.302.012.414 8.014.169 8.116-.715.332-1.59.142-2.305-.272z"/><path fill="url(#k)" fill-rule="evenodd" d="M187.19 69.714c39.96 3.76 66.02-4.409 121.3-1.517-4.21 1.143-17.63 4.414-20.78 5.911 3.9.473 18.18 3.074 22.68 5.32-54.68-4.683-88.81 4.016-123.32 1.416-.21.485-.18-10.876.12-11.13" transform="translate(-20.203 3.102)scale(.70055)"/></svg>