<svg xmlns="http://www.w3.org/2000/svg" viewBox="0 0 760.08 1080.3"><defs><linearGradient id="p" x1="232.48" x2="319.05" y1="639.66" y2="639.66" gradientUnits="userSpaceOnUse"><stop offset="0" style="stop-color:#dbe3de"/><stop offset=".322" style="stop-color:#dbe3e2"/><stop offset="1" style="stop-color:#93aca7"/></linearGradient><linearGradient id="i" x1="338.51" x2="340.05" y1="663.35" y2="631.02" gradientUnits="userSpaceOnUse"><stop offset="0" style="stop-color:#374845"/><stop offset="1" style="stop-color:#dbe3e2"/></linearGradient><linearGradient id="f" x1="335" x2="326.43" y1="630.22" y2="600.81" gradientTransform="matrix(1 0 0 .79092 0 133.64)" gradientUnits="userSpaceOnUse"><stop offset="0" style="stop-color:#1c2422"/><stop offset=".25" style="stop-color:#374845"/><stop offset=".5" style="stop-color:#536c67"/><stop offset=".75" style="stop-color:#6f918a"/><stop offset="1" style="stop-color:#93aca7"/></linearGradient><linearGradient id="k" x1="336.04" x2="340.02" y1="584.63" y2="584.63" gradientTransform="translate(.714 1.786)" gradientUnits="userSpaceOnUse"><stop offset="0" style="stop-color:#1c2422"/><stop offset="1" style="stop-color:#dbe3e2"/></linearGradient><linearGradient id="n" x1="315" x2="350" y1="442.36" y2="445.93" gradientUnits="userSpaceOnUse"><stop offset="0" style="stop-color:#b7c8c4"/><stop offset="1" style="stop-color:#dbe3e2"/></linearGradient><linearGradient id="m" x1="322.98" x2="329.85" y1="593.59" y2="593.59" gradientUnits="userSpaceOnUse"><stop offset="0" style="stop-color:#374845"/><stop offset="1" style="stop-color:#536c67"/></linearGradient><linearGradient id="g" x1="339.29" x2="337.86" y1="632.36" y2="615.58" gradientUnits="userSpaceOnUse"><stop offset="0" style="stop-color:#374548"/><stop offset=".313" style="stop-color:#53676c"/><stop offset=".607" style="stop-color:#6f8a91"/><stop offset="1" style="stop-color:#b7c4c8"/></linearGradient><linearGradient id="a" x1="382.86" x2="382.86" y1="1072.4" y2="499.63" gradientUnits="userSpaceOnUse"><stop offset="0" style="stop-color:#0485a5"/><stop offset=".063" style="stop-color:#0498bc;stop-opacity:.93725"/><stop offset=".125" style="stop-color:#0499bc;stop-opacity:.87451"/><stop offset=".188" style="stop-color:#05bbe8;stop-opacity:.81176"/><stop offset=".25" style="stop-color:#05aad0;stop-opacity:.74902"/><stop offset=".313" style="stop-color:#05a5cb;stop-opacity:.68627"/><stop offset=".375" style="stop-color:#0495b8;stop-opacity:.62353"/><stop offset=".438" style="stop-color:#05a1cb;stop-opacity:.56078"/><stop offset=".5" style="stop-color:#05b2dc;stop-opacity:.49804"/><stop offset=".563" style="stop-color:#0498b9;stop-opacity:.43529"/><stop offset=".625" style="stop-color:#05b0dc;stop-opacity:.37255"/><stop offset=".688" style="stop-color:#059ccb;stop-opacity:.3098"/><stop offset=".75" style="stop-color:#05b1de;stop-opacity:.24706"/><stop offset=".813" style="stop-color:#06c2f1;stop-opacity:.18431"/><stop offset=".875" style="stop-color:#08c9f8;stop-opacity:.12157"/><stop offset=".938" style="stop-color:#0488a5;stop-opacity:.058824"/><stop offset="1" style="stop-color:#0492b6;stop-opacity:0"/></linearGradient><linearGradient id="b" x1="-567.71" x2="-567.71" y1="1123.1" y2="548.79" gradientTransform="translate(923.63 -50.103)" gradientUnits="userSpaceOnUse"><stop offset="0" style="stop-color:#3d72c1"/><stop offset=".031" style="stop-color:#3d72c1;stop-opacity:.96863"/><stop offset=".063" style="stop-color:#3d74c1;stop-opacity:.93725"/><stop offset=".094" style="stop-color:#3c70bf;stop-opacity:.90588"/><stop offset=".125" style="stop-color:#3e72c1;stop-opacity:.87451"/><stop offset=".156" style="stop-color:#4979c4;stop-opacity:.84314"/><stop offset=".188" style="stop-color:#4678c8;stop-opacity:.81176"/><stop offset=".219" style="stop-color:#3c6cb7;stop-opacity:.78039"/><stop offset=".25" style="stop-color:#4072c5;stop-opacity:.74902"/><stop offset=".281" style="stop-color:#3b6bb5;stop-opacity:.71765"/><stop offset=".313" style="stop-color:#3d74c1;stop-opacity:.68627"/><stop offset=".344" style="stop-color:#467abf;stop-opacity:.6549"/><stop offset=".375" style="stop-color:#4176c1;stop-opacity:.62353"/><stop offset=".406" style="stop-color:#4776c1;stop-opacity:.59216"/><stop offset=".438" style="stop-color:#3e70b9;stop-opacity:.56078"/><stop offset=".469" style="stop-color:#497cc4;stop-opacity:.52941"/><stop offset=".5" style="stop-color:#3b70b6;stop-opacity:.49804"/><stop offset=".531" style="stop-color:#4275c0;stop-opacity:.46667"/><stop offset=".563" style="stop-color:#3d70b8;stop-opacity:.43529"/><stop offset=".594" style="stop-color:#4a81c5;stop-opacity:.40392"/><stop offset=".625" style="stop-color:#3e6cb8;stop-opacity:.37255"/><stop offset=".656" style="stop-color:#3c75c0;stop-opacity:.34118"/><stop offset=".688" style="stop-color:#4a78c7;stop-opacity:.3098"/><stop offset=".719" style="stop-color:#3d70c0;stop-opacity:.27843"/><stop offset=".75" style="stop-color:#4072c6;stop-opacity:.24706"/><stop offset=".781" style="stop-color:#3c68b6;stop-opacity:.21569"/><stop offset=".813" style="stop-color:#376bb2;stop-opacity:.18431"/><stop offset=".844" style="stop-color:#3e72c2;stop-opacity:.15294"/><stop offset=".875" style="stop-color:#396bc0;stop-opacity:.12157"/><stop offset=".906" style="stop-color:#3c72c0;stop-opacity:.090196"/><stop offset=".938" style="stop-color:#3c70bd;stop-opacity:.058824"/><stop offset=".969" style="stop-color:#3e72c1;stop-opacity:.027451"/><stop offset="1" style="stop-color:#3d72c1;stop-opacity:0"/></linearGradient><linearGradient id="c" x1="1250.6" x2="1250.6" y1="1048.3" y2="474.08" gradientTransform="translate(-935.65 17.749)scale(1.0214)" gradientUnits="userSpaceOnUse"><stop offset="0" style="stop-color:#024252"/><stop offset=".031" style="stop-color:#024252;stop-opacity:.96863"/><stop offset=".063" style="stop-color:#024555;stop-opacity:.93725"/><stop offset=".094" style="stop-color:#025064;stop-opacity:.90588"/><stop offset=".125" style="stop-color:#03637d;stop-opacity:.87451"/><stop offset=".156" style="stop-color:#03667f;stop-opacity:.84314"/><stop offset=".188" style="stop-color:#037796;stop-opacity:.81176"/><stop offset=".219" style="stop-color:#048cb0;stop-opacity:.78039"/><stop offset=".25" style="stop-color:#0485a7;stop-opacity:.74902"/><stop offset=".281" style="stop-color:#0496bf;stop-opacity:.71765"/><stop offset=".313" style="stop-color:#049abd;stop-opacity:.68627"/><stop offset=".344" style="stop-color:#04acd4;stop-opacity:.6549"/><stop offset=".375" style="stop-color:#05aad1;stop-opacity:.62353"/><stop offset=".406" style="stop-color:#039bc4;stop-opacity:.59216"/><stop offset=".438" style="stop-color:#04a1c3;stop-opacity:.56078"/><stop offset=".469" style="stop-color:#037999;stop-opacity:.52941"/><stop offset=".5" style="stop-color:#0496ba;stop-opacity:.49804"/><stop offset=".531" style="stop-color:#049fc4;stop-opacity:.46667"/><stop offset=".563" style="stop-color:#03a0cd;stop-opacity:.43529"/><stop offset=".594" style="stop-color:#04a3c7;stop-opacity:.40392"/><stop offset=".625" style="stop-color:#04b4d8;stop-opacity:.37255"/><stop offset=".656" style="stop-color:#05b4e6;stop-opacity:.34118"/><stop offset=".688" style="stop-color:#06c5ed;stop-opacity:.3098"/><stop offset=".719" style="stop-color:#06c5fa;stop-opacity:.27843"/><stop offset=".75" style="stop-color:#07c6f8;stop-opacity:.24706"/><stop offset=".781" style="stop-color:#10ccfa;stop-opacity:.21569"/><stop offset=".813" style="stop-color:#06c9f4;stop-opacity:.18431"/><stop offset=".844" style="stop-color:#06c8f3;stop-opacity:.15294"/><stop offset=".875" style="stop-color:#06bbec;stop-opacity:.12157"/><stop offset=".906" style="stop-color:#06c6f6;stop-opacity:.090196"/><stop offset=".938" style="stop-color:#05b1db;stop-opacity:.058824"/><stop offset=".969" style="stop-color:#05bfe3;stop-opacity:.027451"/><stop offset="1" style="stop-color:#05a9d8;stop-opacity:0"/></linearGradient><linearGradient id="t" x1="178.6" x2="395.98" y1="41.061" y2="607.9" gradientUnits="userSpaceOnUse"><stop offset="0" style="stop-color:#afdde9"/><stop offset="1" style="stop-color:#d7eef4;stop-opacity:0"/></linearGradient><filter id="q" width="1.117" height="1.244" x="-.059" y="-.122" color-interpolation-filters="sRGB"><feGaussianBlur stdDeviation=".611"/></filter><filter id="o" width="1.088" height="1.47" x="-.044" y="-.235" color-interpolation-filters="sRGB"><feGaussianBlur stdDeviation="1.176"/></filter><filter id="j" color-interpolation-filters="sRGB"><feGaussianBlur stdDeviation=".297"/></filter><filter id="h" color-interpolation-filters="sRGB"><feGaussianBlur stdDeviation=".125"/></filter><filter id="l" color-interpolation-filters="sRGB"><feGaussianBlur stdDeviation=".316"/></filter><filter id="e" color-interpolation-filters="sRGB"><feGaussianBlur stdDeviation="2.593"/></filter><filter id="d" width="1.13" height="2.976" x="-.065" y="-.988" color-interpolation-filters="sRGB"><feGaussianBlur stdDeviation="4.99"/></filter><filter id="r" width="1.097" height="2.477" x="-.048" y="-.738" color-interpolation-filters="sRGB"><feGaussianBlur stdDeviation="3.73"/></filter><filter id="s" width="1.065" height="3.306" x="-.033" y="-1.153" color-interpolation-filters="sRGB"><feGaussianBlur stdDeviation="1.443"/></filter></defs><g transform="translate(4.493 6.278)"><rect width="745.71" height="572.97" x="2.857" y="496.53" rx="13" ry="13" style="fill-rule:evenodd;color:#000;fill:url(#a)"/><rect width="745.71" height="572.97" x="-13.51" y="497.86" rx="13" ry="13" style="fill-rule:evenodd;color:#000;fill:url(#b)" transform="rotate(-1.011)"/><rect width="761.68" height="585.24" x="-7.624" y="501.57" rx="13" ry="13" style="fill-rule:evenodd;color:#000;fill:url(#c)" transform="rotate(-.95)"/></g><path d="M513.16 595.77c0 3.347-41.382 6.06-92.429 6.06s-92.429-2.713-92.429-6.06 41.382-6.06 92.429-6.06 92.429 2.713 92.429 6.06" style="fill-rule:evenodd;color:#000;filter:url(#d);fill:#045" transform="matrix(1 0 0 .43714 -4.077 327.098)"/><g style="filter:url(#e)" transform="translate(84.444 -72.657)"><path d="m387.52 639.18 7.285-19.428-37.835-3.607-19.524-9.389-11.932 1.972-24.036-1.217-17.565 1.217-39.456 15.124-6.997 3.535-4.349 7.134" style="fill:url(#f)"/><path d="m290.71 615.93 60.714-.357s10.574 1.524 16.419 2.187c8.018.908 23.938.67 23.938.67-20.8 17.546-55.714 16.905-82.857 24.286z" style="fill-rule:evenodd;color:#000;fill:url(#g)"/><path d="m281.43 599.51 13.571 2.143c4.492 3.44 8.425 17.72.322 19.957l-9.608.4-23.57-.356z" style="fill-rule:evenodd;color:#000;filter:url(#h);fill:#536c67" transform="matrix(1.1086 0 0 .99918 -28.458 .494)"/><path d="m281.43 599.51 13.571 2.143c4.492 3.44 8.425 17.72.322 19.957l-9.608.4-23.57-.356z" style="opacity:.95964;fill-rule:evenodd;color:#000;filter:url(#h);fill:#374548"/><path d="m271.48 663.97 49.415-2.584s17.235.294 25.885.294c4.325 0 8.634-.843 12.942-1.218 6.329-.551 18.489-4.623 18.489-4.623s7.39-11.396 10.169-17.565c2.802-6.219 5.379-12.68 6.471-19.414.247-1.52 0-4.622 0-4.622s-9.397 10.131-15.716 12.018c-10.317 3.082-21.614 2.208-32.356 2.774l-28.763 2.206" style="fill:url(#i)"/><path d="m387.46 625.69-6.471-24.802-4.623-53.42-4.622-44.835-1.849-66.776-3.698-83.946-1.848-58.19-.545-12.296-5.927-84.051 2.774-62.006v61.052l4.622 79.177 6.471 132.6 3.172 45.858.654 6.745 2.615 65.43 1.961 30.354.654 31.03z" style="fill:#1c2224"/><path d="m343 603.19 14.522-35.32-6.597 6.066-13.808 29.253z" style="filter:url(#j);fill:url(#k)" transform="matrix(1 0 0 11.233 .714 -6161.2)"/><path d="M321.36 587.2c0 2.388 2.857 2.634 2.857 5.022-2.465-.308-4.802-1.835-6.681-.21-2.204 1.905-.188 7.29-1.336 10.009.372 2.482-2.403 6.498-1.542 8.69 3.503 3.503 7.703 2.303 11.556 2.92 3.275-.82 7.702-2.97 9.732-5.689 2.466-3.302-2.169-12.405-2.169-12.405-1.168-2.165-.557-4.69-.517-7.017.274-1.588 1.56-2.685 2.382-4.002.613-.914 1.744-1.656 1.896-2.724.387-2.716 0-5.487 0-8.23l-13.405.231c-.05 2.52 2.244 5.045 2.066 7.563-.899 1.947-3.94 3.894-4.84 5.842z" style="filter:url(#l);fill:url(#m)"/><path d="m345.5 569.06 3.922-48.373.654-64.062 3.922-90.863 4.576-81.058v-47.066l.653-7.844.654-24.187-3.922 26.8-2.615-1.307-13.074 44.451s-9.151 10.46-15.689 35.953c-6.537 25.494-21.572 87.595-21.572 87.595l-7.19 58.178 1.96 27.455 7.191 40.53 13.728 35.952 9.152 16.996z" style="fill:url(#n)"/><path d="m340.21 585.76-13.728 2.615-31.377-10.46-20.264.655-33.992 3.922-8.498-1.961 22.225-5.23h37.914l37.914 7.844 13.728 3.269" style="fill:#025"/><path d="m291.43 577.36-2.5 47.143" style="stroke:#000;stroke-width:.25;fill:none"/><path d="M273.75 595.52c-.515-1.67-2.03-3.336-1.32-5.151.526-1.932 2.769-3.11 4.623-2.535.709 1.01 2.048 1.974 2.013 3.31-.045.775.089 1.63-.067 2.354l-1.782 1.56.924 3.004c1.865.63 4.069.543 5.663 1.768 1.255.791 2.27 2.14 3.727 2.519 1.646.343-1.35-2.171.296-1.828 1.763.422 3.553.259 3.026 6.324l-7.627.462c.128 4.51.63 9.023.316 13.535l-.085 1.95h-15.022c-.11-2.486-.1-4.984-.287-7.461-.718-3.805-1.738-7.617-1.562-11.519 0-.992-.53-2.137 0-2.976.814-1.29 2.243-2.149 3.572-2.885l3.13-1.044z" style="fill:#00112b"/><path d="m324.59 643.82 27.272-3.236 19.876-1.386 12.48-4.16 4.622-3.236" style="filter:url(#o);stroke:#000;stroke-width:1.2942px;fill:none"/><path d="M233.07 624.4s-1.335 10.045 0 14.791c1.76 6.258 5.44 12.18 10.169 16.64 3.811 3.594 8.73 6.372 13.867 7.396 9.412 1.876 19.791.9 28.658-2.774 8.115-3.465 24.185-12.477 30.507-25.885 2.112-3.527 2.773-12.018 2.773-12.018s-21.804-.463-27.734 0c-9.54.493-19.24 1.6-28.658 0-6.437-1.094-18.489-6.47-18.489-6.47l-4.622-.925-.924 7.395z" style="fill:url(#p)"/><path d="M260.81 629.66c-.462 2.773 5.085 10.463 5.085 10.463s10.958 3.187 15.254.462c3.263-2.07 4.622-10.63 4.622-10.63z" style="opacity:.95964;filter:url(#q);fill:#536c67"/><path d="m233.93 579.51 6.786 36.786M241.79 581.65l.71 34.28M296.07 577.01l-6.429 46.429M327.14 586.65l-8.929 36.071M340.71 584.86l-22.5 38.214" style="stroke:#000;stroke-width:.25;fill:none"/></g><path d="M513.16 595.77c0 3.347-41.382 6.06-92.429 6.06s-92.429-2.713-92.429-6.06 41.382-6.06 92.429-6.06 92.429 2.713 92.429 6.06" style="fill-rule:evenodd;color:#000;filter:url(#r);fill:#d7eef4" transform="matrix(.5745 0 0 .24781 208.991 447.618)"/><path d="M513.16 595.77c0 3.347-41.382 6.06-92.429 6.06s-92.429-2.713-92.429-6.06 41.382-6.06 92.429-6.06 92.429 2.713 92.429 6.06" style="fill-rule:evenodd;color:#000;filter:url(#r);fill:#d7eef4" transform="matrix(.5745 0 0 .24781 208.991 447.618)"/><path d="M513.16 595.77c0 3.347-41.382 6.06-92.429 6.06s-92.429-2.713-92.429-6.06 41.382-6.06 92.429-6.06 92.429 2.713 92.429 6.06" style="fill-rule:evenodd;color:#000;filter:url(#r);fill:#d7eef4" transform="matrix(.5745 0 0 .24781 138.28 441.557)"/><g style="opacity:.84305;filter:url(#s)" transform="translate(4.493 2.237)"><path d="M513.16 595.77c0 3.347-41.382 6.06-92.429 6.06s-92.429-2.713-92.429-6.06 41.382-6.06 92.429-6.06 92.429 2.713 92.429 6.06" style="fill-rule:evenodd;color:#000;filter:url(#r);fill:#d7eef4" transform="matrix(.5745 0 0 .24781 213.59 439.32)"/></g><path d="M-4.041-6.278h751.55v614.17H-4.041z" style="opacity:.84305;fill-rule:evenodd;color:#000;fill:url(#t)" transform="translate(4.493 6.278)"/></svg>