<svg xmlns="http://www.w3.org/2000/svg" version="1.0" viewBox="0 0 128 128"><g stroke="#000"><path fill="none" stroke-linecap="round" stroke-linejoin="round" stroke-width="10" d="M96.625 8.656C66.684 16.14 41.264 29.89 26.312 58.126l45.563 16.5c2.951-22.556 5.98-45.11 24.75-65.97m4.785 2.156L97.938 21.25c-.001 0 22.332.871 21.472.438-.87-.434-18-10.876-18-10.876m-2.629 10.876a100 100 0 0 0-5.719 6.281c-8.549 10.249-15.617 23.462-15.031 40.437a61 61 0 0 0 1 9.032l34.939 13.25c-13.42-19.581-14.162-44.349-15.189-69M20.375 64.094c-1.787 10.977.557 19.109 4.937 25.406-1.253.251-2.441.517-3.562.844-.257.074-.5.172-.75.25q-.445.138-.875.281c-.281.095-.573.184-.844.281-.09.033-.192.061-.281.094-.478.177-.961.378-1.406.562-.06.025-.129.038-.188.063q-.768.324-1.468.656-.63.297-1.188.625c-.012.007-.019.024-.031.032-.357.212-.687.425-1 .656-.03.021-.065.04-.094.062-.29.218-.559.456-.813.688-.037.034-.088.059-.124.094-.236.222-.452.454-.657.687-.228.26-.433.541-.625.813-.013.019-.018.043-.031.062-.045.065-.113.122-.156.188-.139.212-.256.438-.375.656-.147.27-.29.535-.406.812-.026.061-.039.126-.063.188-.097.243-.174.502-.25.75q-.016.046-.031.094a10 10 0 0 0-.157.593c-.056.249-.118.499-.156.749-.001.01.002.02 0 .03-.024.17-.045.34-.062.5-.093.9-.069 1.8.031 2.69.018.16.04.31.062.47.031.21.055.42.094.62.01.06.021.11.031.16.049.24.098.48.157.72.018.07.043.14.062.22q.102.375.219.75c.003.01-.003.02 0 .03.078.25.162.48.25.72 5.474 14.99 16.514 14.37 26.344 14.4 27.76.1 43.279-.63 64.531-.31 10.83.17 10.87-2.05 15.69-3.5-10.17-.43-15.72-1.21-24.252-3.97l6.968 1.22c7.714-1.45 12.874-8.91 12.874-19.874-17.71-2.692-29.154-8.188-39.53-13.812-14.852-8.051-27.489-16.372-52.875-17.25"/><path fill="none" stroke-linecap="round" stroke-linejoin="round" stroke-width="2" d="M72.754 82.649 102.29 6.315"/><path fill="#0ff" fill-rule="evenodd" stroke-linecap="round" stroke-linejoin="round" stroke-width="2" d="M98.792 21.676C86.424 34.17 74.347 52.049 79.046 77.442c9.86-3.621 22.664 6.016 34.934 13.236-13.42-19.581-14.162-44.35-15.188-69.002"/><path fill="#ff0" fill-rule="evenodd" stroke-linejoin="round" stroke-width="2" d="M20.383 64.091c43.121 1.492 49.333 24.524 92.397 31.069 0 10.96-5.17 18.42-12.883 19.87l-54.321-9.54c-13.733-7.21-29.051-17.708-25.193-41.399z"/><path fill="#00f" fill-rule="evenodd" stroke-linejoin="round" stroke-width="2" d="M117.17 117.77c-14.15-.6-19.238-1.8-36.106-8.22-10.713-4.08-14.309-11.739-27.527-17.026-16.725-6.69-30.144-3.515-37.589 0-7.062 3.334-7.092 9.846-5.328 14.676 5.474 15 16.513 14.35 26.342 14.38 27.761.1 43.273-.61 64.528-.29 10.83.17 10.87-2.08 15.68-3.52z"/><path fill="#fff" fill-rule="evenodd" stroke-width="2" d="M33.71 88.622c-7.494.067-13.572 1.935-17.76 3.912-6.714 3.17-7.065 9.196-5.568 13.936 1.912 4.45 7.625 4.03 9.794-3 3.22 5.71 10.479 6.93 15.975.9 5.264 6.08 13.619 6.01 15.955-2.14 7.48 7.47 10.837 4.1 12.877 1.23.403-1.58 1.245-3.01-1.692-5.7a48.7 48.7 0 0 0-9.765-5.226c-7.317-2.927-13.988-3.963-19.816-3.912z"/><path fill="#0ff" fill-rule="evenodd" stroke-linejoin="round" stroke-width="2" d="M96.622 8.657C66.681 16.14 41.27 29.894 26.319 58.13c19.206-1.248 33.95 7.942 45.567 16.491 2.95-22.555 5.966-45.104 24.736-65.964z"/><path fill="red" fill-rule="evenodd" stroke-linejoin="round" stroke-width="2" d="M99.586 21.955s22.354.868 21.484.434-18.01-10.849-18.01-10.849z"/></g></svg>