<svg xmlns="http://www.w3.org/2000/svg" viewBox="0 0 318.32 173.21"><defs><filter id="a" color-interpolation-filters="sRGB"><feGaussianBlur stdDeviation="2.166"/></filter></defs><g style="filter:url(#a)" transform="translate(-1522.8 -2486)scale(.49679)"><path d="M3136 5288.5c3.016-5.37 14.674-12.313 11.008-17.63-5.029-5.154-11.812-11.195-13.896-17.442-2.444-13.358 5.704-4.955 13.273-2.8 8.964 4.324 20.945 3.694 27.396-4.561 3.949-5.067 13.331-15.528.506-11.681-9.32 2.21-19.435 5.688-28.47.107-5.154-4.358-19.318-.67-15.384-10.892 2.58-9.237 9.158-16.357 16.567-22.101.595-6.926-8.982-17.024.43-20.774 8.402-4.97 19.667-8.525 24.662-17.01-1.65-9.272 6.064-14.555 12.527-6.627-.398 7.984 9.38 6.12 16.333 8.695 8.071 2.507 16.664 7.176 24.25.987 6.529-3.943 10.342-11.512 18.742-12.877 19.64-8.684 34.046-25.096 46.825-41.816 10.384-12.127 15.565-28.617 26.44-40.02 18.806-7.463 37.963-13.728 57.924-17.252 48.2.542 96.623 4.466 144.87 1.194 11.048 1.622 23.053.48 31.856 8.587 16.854 11.2 33.547 23.526 47.536 38.078 8.757 12.213 15.392 26.65 13.99 41.988.884 10.731 9.277 19.506 13.257 29.431 6.503 11.452 11.56 24.473 23.334 31.552 9.215 8.6 21.02 13.962 32.307 18.996 8.347-.03 16.037.987 18.64 10.123-.528 5.26-13.671 6.456-19.133 10.126-11.736 5.201-23.453 10.501-36.57 10.236-9.863 1.792-19.5 1.33-28.78-2.685-8.97-2.133-16.627-8.503-23.565-14.055-8.265-16.099-18.697-31.175-26.6-47.346-5.604-18.966-12.026-37.838-12.29-57.819-.08-8.703-6.828-15.423-9.983-23.212-12.192-6.664-24.075-15.033-38.534-14.87-10.809-1.474-21.643-2.758-32.466-4.13 10.86 10.999 17.564 24.927 23.5 39 9.81 9.817 26.198 1.02 35.761 11.023 6.692 5.907 6.54 16.827 12.24 23.978.76 12.06-.86 24.7 6.427 35.17 3.982 9.16 9.321 18.95 9.556 28.852-2.183 10.24-2.791 21.156-10.592 28.993-5.02 10.438-16.29 14.728-25.625 20.355-9.213 6.513-11.619-2.457-14.153-9.974-2.306-7.726-14.93 7.792-17.706-2.18-3.465-9.98 12.834-12.41 9.993-22.64-4.585-1.067-16.597-2.556-4.328-9.347 7.044-3.579 17.326-2.584 23.36-6.941 4.538-9.457-3.265-19.306-5-28.81-3.549-9.045-5.434-20.448-15.498-24.373-19.931-2.414-38.378 9.266-58.14 10.969-7.848.363-15.072 2.57-19.563 9.46-6.272 6.534-9.229 18.2-19.777 18.116-8.264 5.887-14.603-5.426-22.041-2.216-12.771 10.366-4.148-8.201-12.52-2.632-7.88 7.924-14.524 1.559-7.926-7.012 4.413-6.817 6.508-16.018 11.76-21.674 7.98-4.55 17.317 1.722 24.84-4.227 9.56-.717 4.472-16.79-4.25-11.08-7.986 3.376-15.76 9.25-22.513 14.775-10.655 15.091-16.053 33.04-26.306 48.416-1.093 25.947-.313 52.011 5 77.5 1.694 8.979-.8 15.607-9.885 18.541-10.402 4.031-14.42 15.464-24.115 20.46-2.852-7.26-7.76-13.815-14.545-5.941-2.971 6.712-13.361 15.967-11.575 2.806-2.014-7.11 6.53-17.037 1.787-21.454-7.143-3.415-18.112-4.782-7.266-12.22 11.374-3.399 24.719-3.674 35.099-10.691.237-12.055 1.521-24.907-.298-36.51-4.57-8.856-13.746-11.974-22.202-15.99.765 11.66-10.815 19.592-20.785 22.578-12.223.823-26.104-.156-34.808 10.1-14.708 9.78-30.338 19.28-47.212 24.483-7.353 4.062-14.682-3.124-21.18-2.333-4.582 6.168-15.597 11.292-12.883-1.043 2.885-12.367-7.418-3.64-14.361-6.29l-9.271-2.496z" style="color:#000;fill:#95786a"/><g style="fill:#c8b195"><path d="m3135.5 5287 8-5.5 2.5.5v7l-6 1zM3162 5291l4.5-1.5 2 8.5-6 7.5-3.5-2.5 1-7zM3280.5 5310.5l5.5-4 1.5 3-4 6.5-6-2zM3294 5324.5l3.5-1.5.5 12.5 1.5 2.5-5 9.5-3-3-1.5-8.5 1-9.5zM3318.5 5328.5l-.5 6 1.5 3-4 4.5-3-4.5-.5-5.5zM3496.5 5235.5l.5 7.5-5.5 2v-5.5l2.5-4zM3498.5 5254.5l1.5 7.5 2 .5 1.5 2-8.5 6-2.5-4 1-8zM3519.5 5262.5l4.5 7.5 5 4-14 7-1.5-7 1.5-8.5z" style="color:#000;fill:#c8b195"/></g><g style="fill:#ad7368"><path d="m3139 5245 5-5.5 4-5 8 3.5 8-3.5 10.5-1 6.5 4-8 10.5-15 7.5-11-2-8.5-5.5zM3142 5217h6l8 4-2 4h-9l-6-2-1.5-4.5z" style="color:#000;fill:#ad7368"/></g></g><path d="M3105.1 5004a.13.13 0 0 0-.094.031c-.259.26.767 2.253 2.281 4.438l2.75 3.968-3.718 4.531c-2.805 3.423-4.1 4.335-5.344 3.72-.906-.449-3.61-.415-6.031.093-6.438 1.352-13.025 8.427-16.47 17.72-5.134 13.85-3.088 16.496 7.438 9.562 3.768-2.483 7.29-4.531 7.813-4.531 1.468 0 1.747 1.905 1.093 7-.457 3.563-1.635 5.896-4.937 9.812-2.385 2.829-5.275 5.431-6.438 5.781-3.22.97-14.81 8.437-16.78 10.813-2.033 2.45-1.66 9.185.624 11.47 1.209 1.208 2.13.733 6.532-3.47 2.817-2.69 8.127-8.958 11.812-13.905 3.685-4.948 7.535-9.151 8.562-9.344 1.747-.328 1.835.33 1.469 10.219-.478 12.926-1.226 14.117-6.969 10.812-2.222-1.28-4.251-2.124-4.5-1.875-.6.6 10.28 11.688 11.47 11.688.51 0 1.172-.931 1.468-2.063.296-1.131 1.941-2.57 3.656-3.218 2.044-.772 3.308-2.04 3.657-3.688 1.028-4.872 3.578-12.546 4.593-13.78.565-.688 2.355-1.25 3.969-1.25h2.938l-.313 7.562-.312 7.594-2.75-.563c-3.962-.782-3.388.955 1.5 4.5l4.25 3.062.53-15.812c.56-17.009 1.11-19.09 6.657-24.938 5.432-5.727 17.459-14.665 18.438-13.687 1.674 1.674-.797 6.022-6.563 11.437-4.82 4.528-7.145 8.784-4.812 8.876.412.016 2.275 1.412 4.125 3.093l3.375 3.063-2.625 6.156c-3.14 7.396-3.231 8.798-.625 11.156 2.746 2.485 2.52 3.902-1.125 6.969-1.72 1.446-2.88 2.87-2.594 3.156s3.26-.055 6.625-.75c4.504-.93 7.178-.997 10.094-.219 3.386.904 4.215.805 5.594-.719 2.989-3.302-1.9-11.19-7.719-12.469-1.566-.344-3.043-.927-3.281-1.312-.558-.903 1.64-9.156 2.437-9.156.334 0 1.888 1.35 3.47 3 3.302 3.447 4.158 3.635 6.655 1.375 1.476-1.336 2.106-1.403 3.344-.375 1.92 1.592 1.919 4.067.031 6.562-1.79 2.367-1.942 6.62-.312 8.25.66.66 2.347 1.209 3.75 1.219 5.023.03 5.45 1.249 2.375 6.781-2.772 4.987-2.782 5.13-.875 6.531 1.865 1.373 1.751 1.591-2.75 5.688-2.583 2.35-4.72 5.11-4.719 6.125 0 2.34.71 2.329 6.469-.219 2.585-1.143 5.262-1.864 5.968-1.594.707.272 1.556 2.434 1.875 4.813.366 2.727 1.38 4.984 2.75 6.094 2.561 2.073 9.23 2.343 10.813.437.996-1.2.733-8.424-.343-9.5-.245-.245-.971.752-1.625 2.188-1.432 3.141-4.403 4.266-6.532 2.5-1.185-.984-1.41-2.398-.937-5.969.67-5.055-.051-5.906-5-5.906-2.976 0-3.088-1.64-.313-4.594 2.174-2.314 1.868-4.406-.656-4.406-2.47 0-1.647-1.526 4.094-7.5 6.32-6.579 6.124-8.223-.781-6.75-2.429.518-5.381.573-6.594.125-4.297-1.59-3.743-3.731 2.687-10.22 5.427-5.475 7.435-8.656 5.5-8.656-.345 0-2.369 1.575-4.5 3.5-4.739 4.282-6.369 4.379-8.375.5-1.826-3.532-2.573-3.681-5-1-.995 1.1-2.347 2-3.03 2-1.534 0-14.97-12.03-14.97-13.406 0-.546 2.222-1.79 4.906-2.75q13.983-5.003 7.594-15.344c-2.066-3.343-4.375-4.444-9.344-4.468-1.565-.01-4.166-.984-5.812-2.157-2.682-1.91-3.431-2.006-7-.937-5.227 1.566-6.412.505-7.125-6.406-.31-3.007-.849-5.964-1.219-6.563-.926-1.498-14.835-10.458-16.219-10.5zm59.031 3.969c-.593.09-.9 1.185-.594 3.469.415 3.093.073 4.577-1.562 6.656-2.952 3.753-1.733 4.788 2.875 2.437 4.49-2.29 7.3-2.535 8.781-.75 2.44 2.94-5.297 13.042-10.937 14.281-4.111.903-6.122 3.14-4.875 5.469 1.45 2.71 1.239 5.718-.625 8.563-3.36 5.127.758 3.593 9.719-3.626 1.73-1.393 4.217-2.132 7.5-2.25 4.42-.158 4.957.065 5.25 2.126.178 1.26-.61 3.847-1.75 5.78-1.142 1.935-2.094 3.726-2.094 3.97 0 1.359 2.39.015 5.562-3.157 2.928-2.927 3.505-4.113 3-6.25-1.31-5.55-6.17-7.235-15-5.187-2.17.502-4.31.709-4.75.437-.439-.272 1.895-3.28 5.188-6.687s6.719-7.701 7.594-9.532c1.474-3.083 1.455-3.47-.157-5.25-1.06-1.172-3.064-1.937-5.125-1.937-2.349 0-3.51-.532-3.875-1.75-1.309-4.377-3.136-6.965-4.125-6.813zm-48.187 6.187c1.328-.015 1.875 1.969 1.875 6v5.375h-5c-6.25 0-6.562-1.762-1.438-7.75 2.041-2.384 3.53-3.613 4.563-3.625m-21.281 9.688c.485-.033.905.037 1.25.25 2.261 1.397.791 6.325-3.312 11.062-2.33 2.69-4.693 5.22-5.25 5.625-4.424 3.205-4.319-4.412.156-11.5 1.907-3.022 5.054-5.297 7.156-5.438zm35.156 6.937c2.124-.129 2.535.653.937 2.25-.8.8-2.945 1.758-4.78 2.125-2.896.58-3.311.425-3-1.187.232-1.208 1.69-2.167 4.155-2.75 1.08-.256 1.98-.395 2.688-.438m-15.125.813c.651.034 1.125.637 1.125 1.906 0 1.08-.842 2.43-1.906 3-2.83 1.514-3.283 1.29-2.5-1.219.665-2.133 1.973-3.476 3-3.656.1-.017.188-.036.281-.031zm-8.531.937c2.307 0 2.115.907-1.313 6.313-1.638 2.582-3.213 4.687-3.5 4.687s-.531-1.729-.531-3.843c0-4.07 2.312-7.157 5.344-7.157m19.219 7.813c1.078.052 1.96.347 2.156.906.234.667-1.368 3.142-3.594 5.5l-4.062 4.281v-4c-.01-2.2.307-4.51.718-5.156.519-.815 2.117-1.364 3.657-1.5a8 8 0 0 1 1.125-.031zm-11 .375-.375 10.156-.407 10.156-4.874 5.187c-2.69 2.857-5.34 6.344-5.876 7.75-1.084 2.853-2.777 3.352-3.656 1.063-.317-.828-.424-4.842-.218-8.907.345-6.836.725-7.84 4.812-13.718 2.43-3.496 5.795-7.57 7.5-9.032l3.094-2.656zM3391.6 5053.2c-28.472.103-33.678 1.391-59.25 9.656-9.667 3.124-10.23 3.481-17.25 10.656-7.19 7.35-14.999 19.306-17.813 27.281-.785 2.227-1.437 4.2-1.437 4.407 0 .205.337.343.75.312.412-.03 2.224-3.068 4-6.75 3.04-6.304 9.97-16.51 13.906-20.469 1.63-1.64 3.476-2.773 14.844-9.187 6.456-3.644 18.106-7.246 31.5-9.72 11.732-2.166 14.649-2.282 47.5-2.062 19.25.13 37.25.663 40 1.188 4.398.839 50.05 2.56 58 2.187 1.65-.077 6.542-.607 10.875-1.187 4.332-.58 9.818-.79 12.187-.469s7.613.996 11.625 1.5 7.43 1.383 7.625 1.969 2.175 1.062 4.375 1.062c2.361 0 3.864-.408 3.656-1.03-.194-.581-3.789-2.637-7.969-4.532-9.183-4.164-20.506-5.273-33.875-3.375-11.198 1.589-42.824 1.574-61-.031-7.975-.705-29.8-1.344-48.5-1.406-5.145-.017-9.683-.015-13.75 0zm142.31 9.375c-2.136.01-2.27.179-1 1.375.806.759 4.588 2.595 8.438 4.063 9.91 3.777 14.257 5.54 20.187 8.218 2.853 1.29 5.511 2.344 5.875 2.344s2.079.63 3.812 1.406 3.8 1.657 4.625 1.938c4.56 1.552 3.973-.705-1-3.844-2.2-1.389-4-2.853-4-3.281 0-1.129-9.666-5.81-15.5-7.5-8.322-2.411-18.825-4.729-21.438-4.719zm29.5 19.062c-.702.09-.374.508 1.031 2.063 1.048 1.159 3.947 3.143 6.438 4.406 5.683 2.882 22 15.408 24.938 19.156 1.212 1.547 2.958 3.126 3.875 3.5 3.803 1.55 4.182.41 1.156-3.438-1.1-1.398-2-3.017-2-3.562 0-1.689-10.676-10.847-16.719-14.344-7.376-4.269-15.26-7.73-17.688-7.781-.468-.01-.797-.03-1.031 0zm-90.219 2.156c-1.108.073-1.344.707-1.344 1.75 0 6.314-14.835 19.24-27 23.531-9.159 3.232-7.678 1.193 4.375-6 11.681-6.97 16.625-11.389 16.625-14.875 0-1.948-.51-2.625-2-2.625-1.1 0-2 .657-2 1.438 0 2.28-10.657 11.132-17.344 14.406-3.381 1.656-9.194 3.83-12.906 4.812s-6.75 2.066-6.75 2.438c0 .371 2.59 1.011 5.75 1.406l5.75.719-3.75 1.906c-2.06 1.057-3.75 2.37-3.75 2.906 0 3.008 18.835-1.693 23.406-5.844 1.165-1.057 2.544-2.104 3.094-2.312s3.629-1.867 6.812-3.719c6.477-3.767 10.367-8.24 11.313-12.969.425-2.122 1.222-3.187 2.407-3.187 2.572 0 3.138 2.522 1.156 5.187-.946 1.273-2.364 3.559-3.125 5.063-1.742 3.441-13.766 12.724-22.156 17.094-3.928 2.046-9.94 4.022-15.625 5.125-5.402 1.048-8.98 2.175-8.625 2.75.536.867 7.49.648 18.844-.594 1.65-.18 4.226-.386 5.719-.469 1.72-.096 4.097-1.599 6.5-4.093 3.673-3.814 5.572-5.24 17.375-13.156 6.016-4.036 8.906-7.596 8.906-10.938 0-1.515.489-1.965 1.75-1.625 10.858 2.922 15.409 3.872 15.969 3.312 1.29-1.29-1.388-2.669-13.25-6.75-9.964-3.428-14.278-4.81-16.125-4.687zm19.594.938c-.292.02-.508.102-.625.219-1.084 1.084.672 2.135 9.188 5.562 4.4 1.77 10.25 4.65 13 6.406s5.9 3.73 7 4.375c2.41 1.413 4.5 1.623 4.5.438 0-1.663-4.045-6.02-6.25-6.719-1.224-.388-5.85-2.38-10.25-4.406-8.326-3.834-14.516-6.017-16.563-5.875zm25.469 2.094c-.651.027-1.185.13-1.531.343-.56.346 1.915 2.595 5.5 5s8.093 6.533 10.03 9.157c6.285 8.504 8.92 11.25 10.689 11.25 1.02 0 2.862 1.957 4.469 4.75 1.503 2.612 3.414 5.536 4.25 6.5 1.047 1.209 1.61 4.546 1.843 10.75.186 4.943 1.018 13.158 1.844 18.25s1.5 9.587 1.5 10c0 .412.681.75 1.5.75 1.254 0 1.406-1.403.875-8.875-.659-9.278.07-15.086 1.688-13.47.509.51.986 10.555 1.062 22.345.111 17.173.434 22.089 1.688 24.719 2.714 5.692 5.467 3.778 3.187-2.22-.554-1.456-1.196-12.955-1.437-25.53-.433-22.594-1.008-29.507-2.563-30.47-.439-.27-1.128 1.299-1.5 3.5-1.305 7.727-2.885 4.186-4.125-9.155-.354-3.81-1.243-7.341-2-7.97-.746-.618-1.375-.737-1.375-.28s-2.254-2.748-5.031-7.125c-8.14-12.83-9.78-14.761-13.656-16.094-2.006-.69-3.923-1.169-4.25-1.063-.328.106-1.614-.765-2.875-1.937-1.897-1.764-6.96-3.242-9.781-3.125zm-31.312 10.062c-1.38.155-3.122 1.837-2.5 2.843 1.338 2.165-18.359 18.844-22.25 18.844-1.352 0-2.173.437-1.844.969.581.94-12.162 7.976-14.719 8.125-.701.041-3.081.888-5.28 1.906l-4 1.875 4.25.062c13.563.237 48.25-21.918 48.25-30.812 0-1.653-.458-3.301-1.032-3.656-.246-.152-.557-.192-.875-.156zm98.719 7.687c-1.747 0-.64 2.265 2.313 4.75 1.709 1.438 5.819 5.799 9.125 9.688 3.305 3.888 8.277 9.65 11.062 12.812 8.062 9.153 10.594 7.233 3.812-2.907-4.798-7.173-23.352-24.344-26.313-24.344zm-93.781 1.75c-.582.105-1.561.987-2.562 2.344-3.107 4.21-12.788 12.364-18.439 15.53-9.286 5.207-25.26 10.338-32.28 10.376-1.513.01-2.75.414-2.75.906 0 1.41 7.42 1.751 15.561.719 6.514-.826 9.736-.528 8.376.781-.23.22-4.038 1.001-8.438 1.719-7.62 1.243-9.968 2.324-8.875 4.093.271.44 3.283.82 6.688.875 4.614.074 5.55.31 3.687.907-1.375.44-4.103.85-6.062.906-2.743.077-4.057.792-5.782 3.125l-2.25 3.031 3.625 1.531c1.996.834 6.193 1.886 9.313 2.344 11.919 1.75 17.309 1.313 26.5-2.156 4.098-1.547 1.514-2.716-6.344-2.875-6.724-.136-6.54-.233 3.5-1.969 12.08-2.088 17.078-4.01 21.97-8.437 3.85-3.486 4.642-4.788 4.374-7.125-.198-1.727-1.002-2.961-2.031-3.157-2.123-.402-7.58 3.525-8.375 6.032-.826 2.603-11.116 7.336-17.562 8.093l-5.375.625 6-2.937c3.3-1.63 8.25-3.91 11-5.063 5.025-2.105 13.5-10.04 13.5-12.625 0-2.06-1.39-1.593-4.063 1.313-1.333 1.45-4.687 4.038-7.437 5.781-5.516 3.497-17.407 8.999-18.063 8.344-.229-.229 3.37-2.557 8-5.156 10.078-5.657 18.552-13.824 18.563-17.875 0-3.721-1.4-3.458-4 .75-1.19 1.925-4.038 5.048-6.344 6.937-5.355 4.389-19.333 11.562-22.531 11.562h-2.469l2.438-2.625c1.333-1.446 3.974-3.285 5.875-4.093 4.772-2.031 16.104-9.55 18.688-12.406 2.946-3.26 5.582-8.724 4.812-9.97-.09-.145-.243-.19-.437-.155zm-197.94 4.25c-1.837 0-9.497 7.261-14.125 13.375-2.622 3.464-7.64 8.53-11.125 11.25-10.489 8.187-22.556 16.375-24.125 16.375-1.772 0-3.958 2.417-3.031 3.344 1.523 1.523 4.279.325 12.313-5.344 4.674-3.299 10.075-6.847 12-7.906 1.924-1.06 5.033-3.356 6.906-5.094 1.873-1.737 5.023-4.207 7-5.469 4.984-3.182 7.652-6.279 10.03-11.656 1.121-2.533 2.732-5.154 3.564-5.843 1.678-1.394 1.991-3.032.593-3.032zm96.188 1.5-.75 2.75c-.885 3.297-1.54 2.769-3.875.656-1.157-.177-4.247-7.18-2.75 1.375.458 1.218 1.177 6.269 1.563 11.22.91 11.682 1.327 14.172 3 17.405 1.425 2.757 4.89 15.15 4.343 15.531-.168.118-2.787 1.71-5.812 3.531s-8.73 6.488-12.688 10.376c-5.796 5.694-8.282 9.226-12.875 18.125-6.326 12.255-16.005 27.264-18.625 28.906-4.757 2.982-13.247-6.933-15.687-18.312-1.164-5.428-2.564-8.063-4.281-8.063-1.278 0 .027 6.237 2.687 12.938 2.142 5.394 6.26 12.29 12.281 20.562 3.757 5.16 7.568 20.5 5.094 20.5-.546 0-4.526-2.25-8.813-5-10.984-7.046-12.594-6.809-6.25.875 2.107 2.551 4.19 5.256 4.625 6 1.267 2.162-4.57-1.906-8.031-5.594-3.344-3.564-5.708-4.326-4.781-1.531.319.963 3.233 7.038 6.469 13.5 3.235 6.463 5.504 11.75 5.062 11.75-1.49 0-10.187-10.827-10.187-12.688 0-1.014-.685-2.854-1.531-4.062-1.82-2.597-10.974-8.072-17.75-10.625-2.641-.995-7.067-3.35-9.844-5.22-5.742-3.863-5.875-3.898-5.875-2 0 1.353 6.368 7.562 7.812 7.626.394.017 1.514.658 2.5 1.406 1.707 1.294 1.676 1.531-.593 4.875-6.699 9.87-8.647 11.609-15.375 13.688-7.908 2.443-16.106 2.583-21.125.375-2.045-.9-7.094-2.85-11.22-4.344-18.951-6.864-21.83-7.97-26.968-10.28-5.89-2.65-5.72-2.95 2.468-4.282 4.87-.792 9.5-2.66 9.5-3.812 0-.468-2.362-.498-5.25-.094s-8.85 1.009-13.25 1.343c-9.061.69-10.477 2.32-4.5 5.188 1.926.923 11.394 5.54 21.032 10.28 9.638 4.742 18.105 8.626 18.811 8.626 2.347 0 .248 1.725-2.843 2.344-2.051.41-3.697 1.747-5.063 4.062-1.444 2.448-4.276 4.618-9.875 7.531-7.253 3.774-11.062 4.953-11.062 3.47 0-.562 4.47-8.845 8.656-16.095 1.526-2.642 1.612-3.434.532-4.5-1.074-1.06-1.583-.95-2.813.688-1.785 2.378-11.375 22.19-11.375 23.5 0 .5-5.187 3.439-11.563 6.562l-11.594 5.688-10.312-1.75-10.312-1.782-3.5 2.157c-1.926 1.19-3.75 2.842-4.062 3.656s-1.112 1.469-1.75 1.469c-1.822 0-.122-9.871 2.218-12.906 4.214-5.465 6.76-10.046 5.876-10.594-1.408-.87-5.924 2.454-7.532 5.562-.827 1.6-2.8 3.23-4.687 3.844-3.774 1.226-17.905 1.249-19.875.03-1.645-1.016 1.347-4.453 7.5-8.624 2.264-1.535 4.466-3.374 4.906-4.063.515-.806 3.366-1.253 8-1.28 4.047-.026 8.94-.717 11.188-1.595 6.564-2.562 10.388-2.752 16.656-.75 7.507 2.4 7.6 4.138.844 13.062-4.655 6.149-5.802 8.313-4.438 8.313 1.427 0 12.59-12.871 13.656-15.75 1.378-3.719 3.79-4.352 3.813-1 .028 4.156 1.387 5.187 4.343 3.25 2.05-1.344 2.625-2.52 2.625-5.406 0-2.944.622-4.149 3-5.907 1.642-1.214 4.184-2.69 5.657-3.25 1.967-.748 2.38-1.306 1.562-2.125-.819-.818-3.307-.269-9.406 2.032-7.051 2.66-9.33 3.078-15.156 2.75-3.771-.213-7.351-.883-7.938-1.47-1.379-1.378.123-4.718 4.157-9.312 3.034-3.456 5.118-8.812 3.437-8.812-.499 0-3.56 3.19-6.812 7.094-10.512 12.62-20.43 17.19-32 14.719-4.94-1.055-6.796-2.07-10.5-5.782-2.475-2.48-5.55-6.696-6.844-9.343-2.778-5.685-4.887-10.093-2.719.687.753 5.017 6.05 12.73 10.656 15.531l2.844 1.719-6.969 6.937c-3.829 3.8-6.969 7.442-6.969 8.125 0 1.806 3.501 3.395 9.906 4.5 7.08 1.222 9.993 1.276 13.031.282l2.407-.782-.657 7.563c-.573 6.788-.433 7.599 1.22 8.031 1.05.275 4.137-1 7.218-2.969l5.375-3.468 9.5.656c15.512 1.05 16.128.986 22.031-2.5 3.018-1.783 13.656-7.24 23.656-12.125 14.364-7.018 18.25-9.334 18.5-11.031.204-1.377 2.109-3.16 5.313-4.938 4.503-2.499 6.006-2.783 15.062-2.843 10.415-.07 19.937-2.315 25.438-6.032 1.374-.929 3.31-1.993 4.28-2.343 2.243-.81 3.72-4.706 3.72-9.75 0-4.609.776-4.812 7.343-1.907 5.36 2.37 7.67 5.213 7.657 9.438-.02 5.888 2.151 23.11 3.53 27.969 1.236 4.352 1.229 5.299-.187 8.281-2.424 5.11-7.738 7.323-20.219 8.406-11.468.996-14.148 2.178-21.094 9.344-3.814 3.935-3.773 3.965 5.688 5.313 9.547 1.359 10.81-1.234 1.562-3.22-3.206-.687-3.22-.73-1.5-3.062 2.594-3.512 5.548-4.5 13.594-4.5 9.011 0 15.932-1.975 22.656-6.5 7.237-4.87 8.81-4.608 14.97 2.5 3.806 4.395 6.218 6.257 9.093 7.032 2.37.638 3.906 1.643 3.906 2.562 0 1.76-5.24 6.913-9.187 9-6.22 3.29-16.37 11.796-18.75 15.719l-2.563 4.188-.312-3.407c-.217-2.272.364-4.313 1.75-6.187 1.141-1.544 2.062-3.496 2.062-4.313s2.25-3.413 5-5.781c4.644-4 6.191-7.278 4.313-9.156-.38-.38-2.742 1.339-5.25 3.812-2.508 2.474-6.214 5.865-8.25 7.563s-3.98 3.953-4.313 5c-.38 1.197-1.92 2.143-4.156 2.562-2.717.51-4.293 1.732-6.687 5.157-5.707 8.16-5.465 7.938-6.594 6.25-1.808-2.702-1.153-9.457 1.437-14.562 1.373-2.706 2.5-5.38 2.5-5.938s1.016-1.457 2.25-2c1.235-.543 2.392-1.745 2.563-2.656.262-1.398-.226-1.53-3.125-.875-4.506 1.016-5.658 1.797-5.688 3.844-.014.93-.913 4.345-2 7.593-2.65 7.924-2.615 15.525.094 18.97 2.534 3.22 3.499 3.286 5 .374.639-1.237 2.338-3.375 3.782-4.75s3.3-3.485 4.125-4.687c.85-1.24 2.8-2.322 4.5-2.5 2.557-.268 3.064.057 3.312 2.187.902 7.732 5.983 9.428 10.844 3.594 1.57-1.883 4.075-5.256 5.563-7.469 2.05-3.05 4.468-4.834 10-7.406 5.022-2.335 8.783-4.999 12.062-8.531 7.84-8.445 7.957-10.737 1.187-22.844l-3.656-6.5.094-20.844c.049-11.45.538-22.007 1.094-23.47 1.404-3.695 1.277-8.566-.375-13.25-1.22-3.455-1.215-4.361.094-7.062 1.451-2.997 7.755-7.219 10.812-7.219.808 0 2.281-.787 3.25-1.75 2.827-2.81 7.436-6.25 8.375-6.25.475 0 .865 1.463.875 3.25.02 4.75 1.018 7.75 2.593 7.75.761 0 1.375-.475 1.375-1.062 0-1.719 7.173-7.958 10.937-9.531 3.172-1.325 3.308-1.599 1.844-3.063-2.26-2.26-6.141-1.983-8.75.625-1.694 1.695-2.499 1.954-3.375 1.063-.87-.886-.548-1.68 1.344-3.25 1.633-1.355 2.067-2.214 1.25-2.5-2-.702-1.425-3.169 1.344-5.938 2.768-2.768 2.653-4.598-.375-6.219-2.896-1.549-4.796.457-7.407 7.875-2.05 5.828-2.745 6.73-6.687 8.72-6.712 3.385-7.758 1.553-3.906-6.97 2.036-4.504 2.468-4.862 5.062-4.343 3.331.666 5.122-2.026 2.375-3.563-2.37-1.326-2.15-1.926 2.906-8.437 4.038-5.2 4.886-5.822 7.657-5.532 1.715.18 4.332 1.218 5.812 2.313 2.45 1.811 3.095 1.873 7.094.687 2.434-.721 5.772-2.776 7.5-4.593 1.715-1.804 3.6-3.282 4.187-3.282s3.903 1.967 7.375 4.344 8.45 5.128 11.063 6.125c2.613.998 4.75 2.344 4.75 3 0 2.41-6.126 10.396-12.969 16.844-7.723 7.277-12.177 9.211-16.875 7.438-2.943-1.111-6.156-.518-6.156 1.125 0 1.102 9.17 7.125 10.844 7.125.64 0 1.156-.658 1.156-1.469s1.463-2.218 3.25-3.125c5.582-2.834 19.75-15.078 19.75-17.063 0-.487 1.1-2.468 2.438-4.437l2.437-3.594 10.532-.688c13.168-.851 28.97-4.687 37.155-9.031 5.787-3.07 6.8-3.282 13.594-2.906 9.06.5 12.132 1.65 15.125 5.687 3.382 4.56 7.48 15.284 8.22 21.531.35 2.973 1.717 8.128 3.062 11.437 1.345 3.31 2.437 6.75 2.437 7.657 0 2.5-7.077 6.61-12.594 7.312-8.473 1.078-12.732 2.795-16.625 6.688-2.75 2.75-3.78 4.633-3.78 6.906-.001 3.593-.048 3.56 6.436 1.594 2.7-.82 5.288-1.5 5.75-1.5 1.778 0 .68 2.428-2.437 5.468-6.242 6.089-10.3 17.758-7.812 22.406 1.342 2.508 5.247 2.85 7.093.625 1.073-1.293 10.33-6.5 11.562-6.5.23 0 .407 1.377.407 3.063 0 3.564 1.715 7.262 3 6.469 1.146-.71 4-6.475 4-8.063 0-.673.675-1.784 1.5-2.469s1.517-2.655 1.53-4.375c.015-1.72.844-4.925 1.845-7.125l1.843-4 .688 3.125c.803 3.554 6.646 10.375 8.875 10.375.82 0 1.991-.611 2.625-1.375.912-1.1.321-2.267-2.875-5.593-2.22-2.31-3.812-4.534-3.563-4.938 1.025-1.658-3.435-4.038-6.437-3.437-2.881.576-8.71 7.094-10.281 11.5-.324.907-2.305 2.208-4.406 2.875-2.102.666-5.796 2.318-8.188 3.687-2.88 1.648-4.686 2.158-5.344 1.5-1.124-1.124.645-5.219 2.25-5.219.53 0 .938-1.145.938-2.562 0-3.177 4.681-8.056 8.625-9 6.476-1.55 7.014-4.31 1.531-7.938-3.477-2.3-4.288-2.476-8.25-1.562-5.664 1.305-5.893 1.299-5.875-.188.035-2.856 2.124-4 9.687-5.312 7.37-1.279 8.494-1.245 14.812.562 6.477 1.852 8.434 3.146 8.47 5.563.058 4.05 11.412 14.014 17.061 14.969 5.138.868 4.96 2.839-.562 6.656-3.378 2.335-5.042 2.753-10.75 2.781-3.713.018-6.75.293-6.75.594s1.222 1.583 2.687 2.844l2.657 2.281-4.594 3.156c-2.527 1.739-5.068 3.156-5.656 3.156-1.276 0-1.449 2.678-.22 3.438.474.293 3.737-1.507 7.25-3.969 4.994-3.498 6.991-4.351 9.095-3.906 3.427.726 6.017-.685 10.625-5.781 6.897-7.63 9.731-14.19 12.219-28.281.582-3.3 1.729-8.104 2.562-10.688 1.752-5.432.973-7.811-3.75-11.625-1.582-1.278-2.875-2.886-2.875-3.563s-1.032-3.435-2.312-6.156c-2.986-6.342-7.075-25.924-7.313-34.969-.327-12.414-.907-15.304-3.469-17.438-1.311-1.092-3.15-2.013-4.093-2.031-1.574-.031-1.565.259.218 3.281 1.337 2.265 2.13 6.016 2.532 12 .556 8.286.473 8.687-1.47 8.687-1.121 0-4.543-1.35-7.593-3-6.501-3.517-6.504-3.518-6.469-1.25.03 1.964 5.873 5.903 12.25 8.25 3.377 1.243 4.31 2.1 4.563 4.282.176 1.517-.197 2.718-.813 2.718-1.746 0-8.529-3.671-9.968-5.406-.718-.865-1.86-1.594-2.532-1.594s-1.991-.86-2.937-1.906c-2.06-2.276-5.596-3.386-5.563-1.75.026 1.322 8.677 10.656 9.875 10.656.435 0 1.566.843 2.5 1.875 1.016 1.122 3.773 2.151 6.875 2.563 5.655.75 6.696 1.648 6.72 5.812.024 4.507-4.149 3.295-14.907-4.375-5.486-3.911-7.094-4.586-7.094-2.969 0 1.014 2.408 3.27 9.25 8.782 9.672 7.79 10.847 8.522 12.845 8 2.087-.546 4.077 1.714 5.375 6.062.544 1.824.3 2.25-1.375 2.25-1.138 0-2.094-.385-2.094-.875s-1.717-1.586-3.844-2.437-4.656-2.313-5.594-3.25c-2.344-2.345-8.43-6.438-9.594-6.438-3.864 0 4.556 10.601 12 15.094 4.02 2.425 6.484 3.228 9.282 3.063 4.215-.25 5.4 1.167 4.375 5.25-.733 2.92-3.294 2.58-7.156-1-6.163-5.711-17.47-11.435-17.47-8.844 0 1.308 4.515 6.437 5.657 6.437.694 0 2.921 2.02 4.968 4.47 2.048 2.448 4.1 4.234 4.532 3.968s2.363.185 4.312 1c2.65 1.107 3.531 2.066 3.531 3.844 0 2.112-.338 2.329-3.218 1.906-3.802-.558-7.776-3.227-12.562-8.438-1.895-2.062-3.98-3.75-4.657-3.75-.675 0-2.067-.9-3.062-2s-2.399-2-3.125-2c-1.787 0-5.276-7.938-6.531-14.844-3.22-17.712-9.04-29.139-16.562-32.53-5.111-2.305-16.133-1.857-33.281 1.343-8.46 1.58-16.54 2.368-25 2.438l-12.5.094-7.47-3.813c-4.113-2.104-10.413-5.891-14-8.406-16.093-11.287-18.501-16.034-19.624-38.78-.245-4.955-.815-10.355-1.281-12l-.845-3zm211.75 23.718c1.214 1.266 2.966 3.484 3.875 4.938 2.29 3.66 8.838 10.64 14.156 15.094 3.976 3.327 5.938 4.452 5.938 3.406 0-2.85-4.065-8.184-13.47-17.594-7.218-7.223-10.39-10.042-11.415-9.417-1.027.626-.421 2.18.916 3.573zm-82.781-1.906c-4.844 0-9.54.603-10.563 1.625-1.552 1.552.297 3.063 3.719 3.063 1.8 0 5.828.525 8.969 1.156 5.989 1.202 9.625 4.243 9.625 8.031 0 1.044 1.012 2.284 2.25 2.781 3.634 1.461 3.75 1.309 3.75-4.968 0-7.493-1.625-9.37-9.625-11.031-2.254-.468-5.22-.659-8.125-.657zm102.09 33.438c4.486 3.975 8.495 7.238 8.875 7.25 2.536.081.766-2.666-5.812-9.094-4.156-4.06-10.75-11.68-14.656-16.906s-7.253-9.699-9.433-8.106 7.43 14.808 21.026 26.856zm-52.688-19.75c-.572 0-.675 3.84-.281 9.75.357 5.363.88 17.625 1.187 27.25.697 21.801 1.52 25.407 6.469 28.531 3.823 2.413 4.969 5.194 4.969 11.937 0 3.774 4.544 11.05 9.719 15.594 4.723 4.147 6.5 2.081 2.312-2.687-2.132-2.43-3.02-4.722-3.531-9.063-.376-3.193-2.003-10.854-3.594-17.031-1.88-7.3-3.223-15.877-3.844-24.5-.525-7.297-1.65-16.57-2.5-20.594-.85-4.023-1.562-7.51-1.562-7.75 0-.239-.724-.437-1.625-.437-1.446 0-1.527.908-.813 7.75.445 4.262.794 9.1.781 10.75s.57 6.6 1.313 11c1.685 9.972 1.606 18.5-.187 18.5-1.282 0-1.483-1.395-3-20-.337-4.125-.79-8.85-1-10.5s-.638-6.15-.938-10c-.71-9.108-2.678-18.5-3.875-18.5zm-291 1.656q-.2.015-.437.062c-.57.121-2.475.5-4.25.813-1.776.313-4.183 1.042-5.344 1.656-4.157 2.198-10.754 8.227-12.344 11.25-1.829 3.477-4.062 14.164-3.5 16.812.576 2.717 4.219.287 4.219-2.812 0-4.456 3.915-13.746 7.25-17.22 3.454-3.597 8.444-6.474 13.094-7.593 2.39-.575 3.288-3.1 1.312-2.969zm183.34 1.407c1.76 1.022-1.73 1.002-9.5-.062l-5-.688 4.5-.25c3.419-.353 7.04-.081 10 1m-285.4-1.1c-1.328 0-5.549 8.904-6.156 13-.653 4.398-.836 4.6-8.813 9.124-4.488 2.546-9.845 5.185-11.906 5.844-4.638 1.484-6.781 4.378-6.781 9.219 0 2.045-.45 3.973-1 4.313-1.583.978-1.167 4.5.531 4.5.843 0 1.91.982 2.344 2.156.652 1.763-.246 3.15-5.156 8-5.601 5.531-7.72 6.911-7.719 5.062 0-2.066-11.932-18.516-11.969-16.5-.027 1.496 7.02 12.946 9.906 16.094 2.034 2.219 2.055 2.486.594 8.125-2.232 8.615-1.878 19.028.594 17.5.492-.304.875-1.427.875-2.5 0-1.783.49-1.883 5.75-1.281 3.775.432 7.124 1.568 9.75 3.344 5.746 3.884 13.164 4.685 18.375 1.968 4.332-2.258 11.194-2.385 11.906-.218.225.684-.69 1.677-2.031 2.187-1.59.605-2.666 1.985-3.063 3.969-.476 2.382-1.654 3.582-5.437 5.5-6.497 3.292-11.037 4.014-16.313 2.594-5.53-1.49-10.212-4.768-9.5-6.625.406-1.06-.096-1.228-2-.75q-2.51.628-4.375-1.063c-1.767-1.599-1.895-1.598-2.532.406-.772 2.434 1.006 5.167 2.907 4.438.705-.27 3.495 1.19 6.187 3.25s6.45 4.057 8.375 4.437c6.199 1.227 11.637.948 15.125-.75 4.727-2.3 15.86-12.167 16.937-15 .49-1.287 1.605-2.343 2.469-2.343 1.893 0 10.459-7.983 10.469-9.75.01-1.602-.013-1.605-6.781.656-4.664 1.558-10.302 2.051-13.22 1.156 0-.165 1.894-.964 4.438-1.844 7.314-2.529 7.354-4.567.063-3.656-8.565 1.07-6.778-1.552 2.781-4.062 8.334-2.19 12.162-4.5 7.438-4.5-1.49 0-7.493 1.125-13.312 2.5-13.457 3.18-19.152 3.29-20.22.406-.789-2.134-9.48-5.81-13.874-5.875-1.205-.018-2.488-.486-2.844-1.063-1.017-1.646 5.94-7.547 13.781-11.687 7.654-4.041 10.771-7.422 4.375-4.75-4.57 1.91-4.294 1.978-6.125-1.562-.865-1.674-2.682-3.456-4.031-3.969-3.663-1.393-3.488-6.646.281-8.125 6.747-2.647 20.33-9.976 23.625-12.75.897-.755 1.656-2.105 1.656-3 .01-2.62 1.87-8.57 3.282-10.5 1.228-1.68 1.527-1.6 5.5 1l4.218 2.75-2.187 2.313c-1.197 1.273-1.821 2.647-1.406 3.062.414.415 4.414.846 8.906.969 4.492.122 10.87.89 14.156 1.687 7.209 1.747 9.206 1.004 3.875-1.437-4.904-2.245-15.914-4.275-19-3.5-1.957.491-2.375.193-2.375-1.719 0-2.768-2.591-6.75-4.406-6.75-.72 0-2.446-.9-3.844-2-1.399-1.1-2.791-2-3.094-2zm425.62 3.622c-.727 2.047 4.82 9.912 16.969 22.69 2.613 2.748 4.75 5.28 4.75 5.625 0 .346 1.463 1.474 3.25 2.5s5.084 3.336 7.312 5.125 5.154 3.466 6.5 3.72c1.347.251 2.775.518 3.188.593 3.638.66-6.606-9.669-19.25-19.375-6.065-4.656-14.932-13.646-19.375-19.688-1.66-2.256-2.618-3.237-3.344-1.19zm-366 1.44c-.512.073-1.974 1.144-3.531 2.594-1.78 1.656-6.288 5.122-10 7.718-7.046 4.928-7.822 5.997-5.125 7.032 1.58.606 10.365-4.408 15.062-8.625l2.156-1.969 1.719 7.844c.945 4.312 2.119 8.647 2.625 9.625 1.183 2.285 2.812 1.291 2.812-1.719 0-2.434-4.76-21.666-5.562-22.469q-.047-.048-.156-.031zm161.55 9.447c.796 0 1.335.232 1.797.615 2.001 1.661 1.745 2.452-1.875 5.844-1.787 1.676-3.475 3.001-3.75 2.969-1.817-.213-5-2.018-5-2.844 0-1.422 4.088-5.1 6.875-6.187.596-.233 1.157-.392 1.953-.397m214.95 10.584c-.574.035-.633.741-.187 2.156 1.506 4.785 19.489 21.751 24.75 23.344 1.197.363 3.056 1.42 4.156 2.375 1.867 1.623 17.542 8.286 22 9.344 6.727 1.597 8.554-.44 2.937-3.281-1.606-.813-4.512-2.46-6.437-3.657-1.925-1.196-6.313-3.178-9.75-4.406s-6.25-2.617-6.25-3.094-.67-.875-1.5-.875-2.277-.9-3.219-2-2.177-2-2.75-2c-1.962 0-11.015-6.702-16.656-12.344-3.766-3.766-6.137-5.62-7.094-5.562zm-26.763 4.028c-1.278 1.778-1.056 14.735-.049 19.378.477 2.2 1.554 7.15 2.375 11 3.884 18.215 17.384 42.56 25.281 45.562 3.506 1.333 8.143 1.195 8.625-.25.29-.87 1.916-.608 5.844.938 2.988 1.176 6.193 2.151 7.156 2.187 3.619.134 1.525-2.544-4.25-5.406-3.292-1.632-6.239-3.703-6.531-4.625-.293-.922-1.786-2.198-3.344-2.844-5.959-2.468-22.125-26.296-22.125-32.625 0-1.132-.606-2.917-1.375-3.969-1.295-1.77-1.46-1.58-2.281 2.563l-.907 4.469-1.593-5.5c-1.715-5.828-4.844-24.66-4.844-29.188 0-2.146-.704-3.468-1.982-1.69zm26.419 4.878c-1.317 0-.111 4.253 1.813 6.375 1.237 1.366 3.6 4.119 5.25 6.094 4.448 5.326 5.862 6.639 11.562 11.03.7.897 12.839 10.117-1.594 2.626-3.307-1.716-3.469-1.915-3.469-.281 0 1.099 2.927 3.682 7.75 6.843 13.35 8.752 22.421 12.61 36.25 15.375 4.869.974 11.624 1.557 15.781 1.375 12.325-.537 12.087-2.168-.844-5.906-6.097-1.763-7.471-2.422-4.937-2.375 7.561.14 8.099-.963 1.75-3.594a375 375 0 0 1-8.25-3.562c-8.544-3.834-14.234-5.837-20-7-3.3-.666-7.35-1.989-9-2.969s-4.125-2.129-5.5-2.531c-3.72-1.089-10.28-6.114-18.656-14.25-4.105-3.988-7.671-7.25-7.906-7.25zm-377.5 9c-1.205 0-1.668.51-1.312 1.438.641 1.672-3.472 4.048-10.781 6.219-2.898.86-4.633 1.88-4.25 2.5.686 1.11 6.68.727 9.78-.626 1.453-.633 1.776-.446 1.5.938-.203 1.023-2.22 2.46-4.78 3.406-2.43.897-4.613 2.213-4.844 2.906-.77 2.316 8.796 1.184 13.25-1.562 3.855-2.377 8.395-6.917 8.469-8.469.055-1.157-3.407-.875-4.657.375-.612.612-1.61.826-2.187.469-.662-.41-.317-1.37.906-2.594 2.237-2.237 1.632-5-1.094-5zm368.56 21c.698.825 2.294 3.511 3.531 5.969 1.992 3.958 5.566 9.628 6.969 11.03 1.661 1.662 10 13.158 10 13.782 0 .415 1.4 1.344 3.094 2.094s5.136 2.951 7.656 4.875 5.988 4.104 7.687 4.843c4.207 1.832 19.934 1.874 21.438.063.904-1.088-.651-1.87-8.125-4.093-10.106-3.008-16.933-6.7-23.469-12.688-2.332-2.137-5.82-4.642-7.75-5.563s-3.53-1.967-3.53-2.344c-.001-.376-1.615-2.554-3.595-4.812-5.667-6.466-10.796-14.234-12.688-19.22-2.017-5.315-5.308-10.138-6.45-9.08s3.159 12.695 5.232 15.143zm-416.66-14c-5.9 0-8.384 1.142-9.156 4.219-.414 1.65-2.256 2.952-6.625 4.688-6.663 2.646-10.062 4.72-10.062 6.156 0 1.444 4.159 1.114 5.937-.47.869-.772 4.488-2.578 8.063-4.03 5.803-2.358 6.964-2.522 10.656-1.5 3.511.971 4.53.892 6.75-.563 3.054-2.001 3.171-2.716 1-6.031-1.357-2.07-2.404-2.469-6.563-2.469zm-83.812 3.937c6.717 3.8 13.888 9.642 17.938 14.625 1.007 1.24 1.557 1.392 1.844.532.754-2.262-7.372-10.521-13.72-13.937-2.99-1.61-5.748-2.732-6.49-2.532s-.384.855.428 1.313zm505.69 2.063c-.266 0-.764.704-1.094 1.563-.399 1.04 1.747 4.045 6.407 8.969 3.845 4.062 7.006 7.97 7.03 8.687.026.716 1.714 2.741 3.75 4.5 2.038 1.759 5.74 4.979 8.22 7.156 6.146 5.395 14.838 11.124 16.844 11.125.907 0 4.1.966 7.125 2.125 3.024 1.16 8.65 2.392 12.5 2.75 9.466.881 18-.988 18-3.937 0-1.36-2.786-2.145-14-4-3.3-.546-8.313-1.398-11.156-1.875-5.35-.898-24.096-10.228-30.062-14.97-1.784-1.417-7.703-6.98-13.156-12.343-5.455-5.363-10.14-9.75-10.406-9.75zm-365.88.563c-.73.052-2.146.647-3.656 1.562-2.014 1.22-7.736 3.394-12.72 4.813-13.266 3.776-12.02 5.619 2.532 3.719l5.5-.72-3.5 2c-1.925 1.093-4.779 2.009-6.344 2.032-3.198.047-8.656 2.9-8.656 4.531 0 .687 2.584.952 7.25.75 6.665-.288 7.048-.198 4.75 1.094-1.375.773-5.2 1.726-8.5 2.125-6.797.822-7.805 1.245-6.875 2.75 1.012 1.638 15.441.082 21.781-2.344 7.322-2.802 9.977-5.299 8.531-8-.597-1.116-.754-2.768-.375-3.687.87-2.108 1.388-9.408.75-10.47-.066-.109-.225-.173-.469-.155zm377.56 5.437c-1.77 0 .622 3.443 5.844 8.344 12.755 11.972 30.369 19.764 51.25 22.688 7.737 1.083 8.564 1.05 15.5-.563 13.775-3.203 15.54-4.612 12.625-10.25-1.588-3.07-8.294-8.324-9.656-9.218-7.57-4.97-2.32-2.678 1.03 4.5 2.2 2.808 4.58 6.382 2 8.5-13.107 2.024-39.83.124-55-9.063a193 193 0 0 0-4.312-2.719c-1.558-.946-6.46-4.08-10.875-6.968s-8.192-5.25-8.406-5.25zm20.156 2.032c1.781 1.174 8.446 3.415 1.406 1.968-1.866.01-5.671-2.61-4.95-3.054.723-.445 2.12.147 3.544 1.086m-504.75 3.03c.603.01 1.393.15 2.406.345 4.667.898 6.709 2.326 4.938 3.468-1.904 1.228-.627 4.553 2.875 7.5 2.091 1.76 4.647 2.607 9.187 3.094 3.463.372 7.154.945 8.219 1.25 1.89.541 1.894.567.063 1.906-3.698 2.705-12.694.995-15.906-3.031-.602-.755-3.17-1.673-5.719-2.031-5.636-.791-8.062-3.215-8.062-8.063 0-3.414.192-4.461 2-4.437zm-43.531.063c-1.206 0-1.103.33-.281 1.125.825.797 4.758 2.205 8.719 3.125s8.235 2.086 9.5 2.593c3.745 1.503 5.988 1.23 5.625-.656-.356-1.846-10.053-4.712-19.844-5.875-1.808-.214-2.996-.313-3.72-.312zm57.375 2.218c1.969-.085 4.344 1.434 4.344 3.844 0 .445-.45.813-1 .813s-1-.44-1-1c0-.598-1.069-.758-2.594-.375-2.171.545-2.52.345-2.219-1.219.265-1.377 1.288-2.011 2.469-2.063m520.34 3.813c1.375 0 3.4.371 4.5.844 1.823.783 1.779.875-.5.875-1.375 0-3.4-.403-4.5-.875-1.823-.784-1.779-.844.5-.844m-501.56.844c2.477 0 1.835 2.566-.969 3.843-3.453 1.574-13.646 1.474-15.875-.156-1.564-1.143-.922-1.34 4.875-1.5 3.675-.101 7.537-.638 8.563-1.187 1.025-.55 2.545-1 3.406-1m431.88 6.375c.239-.24 1.648 1.21 3.156 3.187s5.837 6.65 9.594 10.406 6.55 7.108 6.219 7.438c-1.158 1.158-1.972.537-8.938-6.656-6.451-6.663-11.092-13.314-10.03-14.375zm-362.47.468q-1.222.101-3.062.75c-2.304.813-8.534 2.14-13.844 2.938-10.762 1.616-12.938 2.24-12.937 3.719 0 2.786 28.44-1.616 31.094-4.813 1.3-1.567.976-2.496-.5-2.594a5 5 0 0 0-.75 0zm307.43 10.227c.556.303 2.722 1.124 4.512 1.586s3.256 1.293 3.281 1.843c.104 2.148-2.731 1.429-6.062-1.562-1.441-1.294-2.287-2.17-1.731-1.867m-7.394 3.554c.659 1.447 1.03 2.814.812 3.032-.515.516-2.208-1.686-3-3.907-.573-.53.061-1.675.302-1.684.24-.01 1.14.923 1.886 2.56m-199 9.032c3.072-.042 5.125.848 5.125 2.406 0 1.005-.338 2.02-.75 2.25-.977.543-5.192-.672-8.281-2.375l-2.469-1.344 3-.562c1.211-.23 2.351-.361 3.375-.375m4.594 11.062c.903 2.353-.504 3.005-4.063 1.906-2.632-.812-6.248-4.288-4.286-4.747s7.9 1.67 8.349 2.84m-110.06 4.844c.33.86 1.04 1.28 1.594.937 1.222-2.521.694-6.074-.276-6.787s-2.092 3.833-1.318 5.85m-13.312-4.5c-.244.017-.569.115-.938.343-1.002.62-11.156 17.06-11.156 18.062 0 .302.829.532 1.813.532 1.764 0 6.102-6.284 9.812-14.22 1.389-2.97 1.526-4.792.469-4.718zm103.56 6.906c.72-.051 1.577.563 2.312 1.937 1.757 3.282 13.64 12.094 16.312 12.094 2.377 0 3.678 2.004 3.719 5.75.033 3.04-6.362-.047-13.188-6.375-2.589-2.4-5.549-4.375-6.562-4.375-2.751 0-4.25-1.992-4.25-5.687 0-2.102.73-3.278 1.656-3.344zm11.562.03c.658 0 2.908 1.207 5 2.657 2.589 1.794 3.78 3.39 3.781 5 0 3.438-3.535 3.06-7.094-.75-2.951-3.16-3.857-6.906-1.687-6.906m-10.812 13.032c.73-.063 1.533.201 1.78.812.33.81 11.056 8.512 15.189 10.906 1.172.68 3.108 1.24 4.281 1.25 2.184.015 3.317 2.306 3.344 6.75.03 5.073-8.247.366-16.063-9.156-3.326-4.053-6.902-7.596-7.969-7.875-1.067-.28-1.969-1.024-1.968-1.625 0-.632.676-1 1.406-1.063z" style="fill:#000" transform="translate(-1522.8 -2486)scale(.49679)"/></svg>