<svg xmlns="http://www.w3.org/2000/svg" viewBox="0 0 1112.3 1140.6"><defs><filter id="b" width="1.305" height="1.551" x="-.153" y="-.275" color-interpolation-filters="sRGB"><feGaussianBlur stdDeviation="10.06"/></filter><filter id="f" width="1.332" height="1.812" x="-.166" y="-.406" color-interpolation-filters="sRGB"><feGaussianBlur stdDeviation="39.868"/></filter><filter id="g" width="1.682" height="2.966" x="-.341" y="-.983" color-interpolation-filters="sRGB"><feGaussianBlur stdDeviation="19.893"/></filter><filter id="c" width="1.893" height="1.911" x="-.446" y="-.456" color-interpolation-filters="sRGB"><feGaussianBlur stdDeviation="16"/></filter><filter id="d" width="2.21" height="1.83" x="-.605" y="-.415" color-interpolation-filters="sRGB"><feGaussianBlur stdDeviation="29.901"/></filter><filter id="h" width="1.222" height="1.424" x="-.111" y="-.212" color-interpolation-filters="sRGB"><feGaussianBlur stdDeviation="15.65"/></filter><filter id="e" width="1.556" height="2.149" x="-.278" y="-.574" color-interpolation-filters="sRGB"><feGaussianBlur stdDeviation="15.052"/></filter><filter id="i" width="1.204" height="1.212" x="-.102" y="-.106" color-interpolation-filters="sRGB"><feGaussianBlur stdDeviation="26.631"/></filter><filter id="a" width="1.351" height="1.211" x="-.175" y="-.106" color-interpolation-filters="sRGB"><feGaussianBlur stdDeviation="10.056"/></filter></defs><path d="M348.35 732.7s9.927-125.06 65.567-135.27c55.64-10.205 221.12 197.71 143.89 269.39-77.23 71.677-155.26 94.204-142.54 141.17 12.722 46.963 80.823 149.5 80.823 149.5l45.937 36.954 85.95 10.084 56.28 48.36-54.487-16.147-181.63-4.727s-157.53-209.37-133.76-258.92c23.776-49.55 130.68-93.805 73.915-112.15L331.526 842.6" style="fill:#536c53" transform="rotate(16.357 1365.481 1678.165)"/><path d="M430 608.08s94.286 85.714 102.86 108.57c8.571 22.857 37.143 107.14 32.857 112.86-4.286 5.714-4.286 7.143-4.286 7.143s-28.57-111.43-45.714-130c-17.143-18.571-78.57-90-84.286-90-5.714 0-1.428-8.571-1.428-8.571z" style="filter:url(#a);fill:#fff" transform="rotate(16.357 1365.481 1678.165)"/><path d="M301.2 744.13s9.927-125.06 65.567-135.27c55.64-10.205 221.12 197.71 143.89 269.39-77.23 71.677-155.26 94.204-142.54 141.17 12.722 46.963 80.823 149.5 80.823 149.5l45.937 36.954 85.95 10.084 56.28 48.36-54.487-16.147-181.63-4.727s-157.53-209.37-133.76-258.92c23.776-49.55 130.68-93.805 73.915-112.15l-56.769-18.344" style="fill:#7c916f" transform="rotate(16.357 1401.897 1777.75)"/><path d="M295.61 705.75s-11.325-87.675 47.246-87.675 110 48.571 110 48.571-57.848-41.452-97.848-31.452-26.437 10.024-30.723 21.452-28.675 49.104-28.675 49.104" style="opacity:.32086;filter:url(#b);fill:#000" transform="matrix(1.1808 .37464 -.3538 1.1151 516.65 -447.905)"/><path d="M384.29 909.51s-68.571 60-62.857 67.143 20 17.143 20 17.143-12.857-12.857-7.143-21.429 72.857-50 72.857-50" style="opacity:.64497;filter:url(#c);stroke:#000;stroke-width:1px;fill:#000" transform="rotate(17.603 1339.101 1688.54)"/><path d="m328.57 1045.2 82.857 152.86 35.714 1.429-7.14-21.4-85.71-151.5" style="opacity:.67456;filter:url(#d);stroke:#000;stroke-width:1px;fill:#000" transform="rotate(17.603 1339.101 1688.54)"/><path d="M301.43 708.08s8.571-58.571 35.714-57.143c27.143 1.429 92.857 20 92.857 20l-85.714-10-44.29 52.85" style="filter:url(#e);fill:#fff" transform="rotate(17.603 1339.101 1688.54)"/><path d="M277.79-194.86c0 15.063-12.211 27.274-27.274 27.274s-27.274-12.211-27.274-27.274 12.211-27.274 27.274-27.274 27.274 12.211 27.274 27.274" style="fill:#c8beb7" transform="matrix(.99899 .60262 -.4113 .68185 642.426 17.864)"/><path d="M277.79-194.86c0 15.063-12.211 27.274-27.274 27.274s-27.274-12.211-27.274-27.274 12.211-27.274 27.274-27.274 27.274 12.211 27.274 27.274" style="fill:#fff" transform="matrix(.72807 .4392 -.29977 .49694 729.48 18.653)"/><path d="M277.79-194.86c0 15.063-12.211 27.274-27.274 27.274s-27.274-12.211-27.274-27.274 12.211-27.274 27.274-27.274 27.274 12.211 27.274 27.274" style="fill:#000" transform="matrix(.42593 0 0 .59259 868.15 145.88)"/><path d="M189.91 620.02S165.666 910.94 32.33 919.03c-133.34 8.081-323.06 38.441-319.21-84.853 4.04-129.3 24.244-206.07 24.244-206.07s-242.44 238.4-109.1 367.7 367.7 177.79 497 96.975c129.3-80.812 238.4-209.1 238.4-209.1" style="fill:#7c916f" transform="translate(427.59 -157.1)"/><g style="fill:#536c53"><path d="m539.43 471.9 18.309 48.403-45.545-31.818-22.517-8.337 21.813-27.52z" style="fill:#536c53" transform="rotate(24.66 1077.197 1461.064)"/><path d="M336.43 497.36c15 7.143 99.286 54.286 99.286 54.286l55.714-65.714 37.143 50.714-15-87.857-49.286 26.429-31.429 30.714-72.86-62.85" style="fill:#536c53" transform="rotate(24.66 1077.197 1461.064)"/></g><path d="m633.4 294.3-42.119-11.816a66 66 0 0 0-7.318-1.607 68 68 0 0 0-7.387-.768 72 72 0 0 0-7.404-.002 77 77 0 0 0-7.36.752c-2.46.368-4.94.867-7.39 1.456a96 96 0 0 0-7.307 2.077 110 110 0 0 0-7.267 2.641 125 125 0 0 0-7.196 3.2 152 152 0 0 0-14.11 7.748c-4.627 2.86-9.172 5.982-13.608 9.274-4.436 3.293-8.761 6.778-12.962 10.363a297 297 0 0 0-12.206 11.018 348 348 0 0 0-11.266 11.29 393 393 0 0 0-10.22 11.098 435 435 0 0 0-16.728 20.113c-3.9 4.987-6.655 8.808-9.073 12.157l217.8-9.265z" style="fill:#7c916f" transform="translate(427.59 -157.1)"/><path d="m402.84 187.38-12.72 52.93-43.68 24.19s4.268 86.442-57.875 117.16c-62.143 30.714-150.7 364.99-132.84 423.56 17.857 58.571 289.29 30.71 330-15.719 40.714-46.429-104.3-205.7-107.88-282.12-1.514-32.397 26.746-77.636 59.812-119l10.75 1.5c2.984-2.856 6.385-6.115 11.125-10.312a435 435 0 0 1 20.094-16.75 394 394 0 0 1 12.062-9.063 348 348 0 0 1 13.125-9.062c4.531-2.969 9.22-5.86 14-8.625s9.665-5.41 14.625-7.844 9.994-4.68 15.062-6.656a152 152 0 0 1 15.281-5.063c2.553-.694 5.107-1.319 7.656-1.843 2.55-.525 5.088-.944 7.625-1.282 2.537-.337 5.047-.583 7.563-.718s5.046-.177 7.53-.094c2.486.083 4.93.276 7.376.594s4.882.776 7.281 1.344a68 68 0 0 1 7.125 2.093 66 66 0 0 1 6.906 2.907l39.29 19.24-3.56-134.97-255.72-16.4z" style="fill:#7c916f" transform="translate(427.59 -157.1)"/><path d="m539.43 471.9 18.309 48.403-45.545-31.818-22.517-8.337 21.813-27.52z" style="fill:#5d6c53" transform="rotate(42.858 811.825 937.073)"/><path d="M336.43 497.36c15 7.143 99.286 54.286 99.286 54.286l55.714-65.714 37.143 50.714-15-87.857-49.286 26.429-31.429 30.714-72.86-62.85" style="fill:#9dac93" transform="rotate(42.858 811.825 937.073)"/><path d="M187.14 828.08S101.426 979.51 84.28 980.94c-17.143 1.429-222.86 75.714-248.57 45.714-25.714-30-132.86-80-145.71-124.29-12.857-44.286-21.429-68.571-21.429-68.571s31.429 154.29 42.857 160c11.429 5.714 88.571 70 124.29 70 35.714 0 234.29 0 251.43-25.714 17.14-25.7 144.28-168.59 144.28-168.59l12.857 7.143" style="opacity:.49112;filter:url(#f);stroke:#000;stroke-width:1px;fill:#000" transform="translate(427.59 -157.1)"/><path d="M432.86 315.22s50-48.571 62.857-48.571 77.143 8.571 77.143 8.571-65.714 0-74.286 4.286c-8.571 4.286-65.714 35.714-65.714 35.714z" style="opacity:.65089;filter:url(#g);stroke:#000;stroke-width:1px;fill:#000" transform="translate(427.59 -157.1)"/><path d="M308.57 379.51s52.857-37.143 58.571-62.857-17.143-38.571 5.714-47.143c22.857-8.571 40-21.429 40-31.429s1.429-35.714 1.429-35.714l232.86 10h-215.71s-7.143 10-7.143 24.286-44.286 42.857-44.286 42.857-5.714 32.857-2.857 41.429c2.857 8.571-68.571 58.571-68.571 58.571z" style="filter:url(#h);fill:#fff" transform="translate(427.59 -157.1)"/><path d="M348.35 732.7s9.927-125.06 65.567-135.27c55.64-10.205 221.12 197.71 143.89 269.39-77.23 71.677-155.26 94.204-142.54 141.17 12.722 46.963 80.823 149.5 80.823 149.5l45.937 36.954 85.95 10.084 56.28 48.36-54.487-16.147-181.63-4.727s-157.53-209.37-133.76-258.92c23.776-49.55 130.68-93.805 73.915-112.15L331.526 842.6" style="fill:#536c53" transform="rotate(9.091 1512.704 2731.968)"/><path d="M430 608.08s94.286 85.714 102.86 108.57c8.571 22.857 37.143 107.14 32.857 112.86-4.286 5.714-4.286 7.143-4.286 7.143s-28.57-111.43-45.714-130c-17.143-18.571-78.57-90-84.286-90-5.714 0-1.428-8.571-1.428-8.571z" style="filter:url(#a);fill:#fff" transform="rotate(9.091 1512.704 2731.968)"/><path d="M301.2 744.13s9.927-125.06 65.567-135.27c55.64-10.205 221.12 197.71 143.89 269.39-77.23 71.677-155.26 94.204-142.54 141.17 12.722 46.963 80.823 149.5 80.823 149.5l45.937 36.954 85.95 10.084 56.28 48.36-54.487-16.147-181.63-4.727s-157.53-209.37-133.76-258.92c23.776-49.55 130.68-93.805 73.915-112.15l-56.769-18.344" style="fill:#7c916f" transform="rotate(9.091 1589.267 2906.227)"/><path d="M295.61 705.75s-11.325-87.675 47.246-87.675 110 48.571 110 48.571-57.848-41.452-97.848-31.452-26.437 10.024-30.723 21.452-28.675 49.104-28.675 49.104" style="opacity:.32086;filter:url(#b);fill:#000" transform="matrix(1.21869 .22229 -.20992 1.15089 422.915 -333.5)"/><path d="M384.29 909.51s-68.571 60-62.857 67.143 20 17.143 20 17.143-12.857-12.857-7.143-21.429 72.857-50 72.857-50" style="opacity:.64497;filter:url(#c);stroke:#000;stroke-width:1px;fill:#000" transform="rotate(10.337 1461.48 2624.17)"/><path d="m328.57 1045.2 82.857 152.86 35.714 1.429-7.14-21.4-85.71-151.5" style="opacity:.67456;filter:url(#d);stroke:#000;stroke-width:1px;fill:#000" transform="rotate(10.337 1461.48 2624.17)"/><path d="M301.43 708.08s8.571-58.571 35.714-57.143c27.143 1.429 92.857 20 92.857 20l-85.714-10-44.29 52.85" style="filter:url(#e);fill:#fff" transform="rotate(10.337 1461.48 2624.17)"/><path d="M-300 885.22s115.71 85.714 165.71 80 130 1.429 175.71-24.286c45.714-25.714 135.71-111.43 138.57-130 2.857-18.571 8.571-168.57 17.143-185.71 8.571-17.143 60-175.71 67.143-187.14s27.143-47.143 35.714-47.143 27.143-10 27.143-10l-32.857 24.286-90 228.57-12.857 200-144.26 132.85-220 15.71z" style="filter:url(#i);fill:#fff" transform="translate(427.59 -157.1)"/><path d="M277.79-194.86c0 15.063-12.211 27.274-27.274 27.274s-27.274-12.211-27.274-27.274 12.211-27.274 27.274-27.274 27.274 12.211 27.274 27.274" style="fill:#c8beb7" transform="matrix(.99899 .60262 -.4113 .68185 598.426 17.864)"/><path d="M277.79-194.86c0 15.063-12.211 27.274-27.274 27.274s-27.274-12.211-27.274-27.274 12.211-27.274 27.274-27.274 27.274 12.211 27.274 27.274" style="fill:#fff" transform="matrix(.72807 .4392 -.29977 .49694 685.48 18.653)"/><path d="M277.79-194.86a27.274 27.274 0 1 1-54.548 0 27.274 27.274 0 1 1 54.548 0" style="fill:#000" transform="matrix(.42593 0 0 .59259 824.15 145.88)"/><path d="M587.36 312.01c-3.03 13.132 8.586 51.013 8.586 51.013l7.829-50.508" style="fill:#fff" transform="translate(427.59 -157.1)"/></svg>